999
"DXF R12 Output" (www.mydxf.blogspot.com)
 0 
SECTION
 2 
HEADER
 9 
$ACADVER
 1 
AC1009
 9 
$EXTMIN
 10 
 0 
 20 
 0 
 9 
$EXTMAX
 10 
 8.5 
 20 
 11 
 0 
ENDSEC
 0 
SECTION
 2 
ENTITIES
0
LINE
8
Layer 1
10
220.779000
20
106.974000
11
217.982994
21
108.578372
0
LINE
8
Layer 1
10
217.982994
20
108.578372
11
215.615331
21
109.692439
0
LINE
8
Layer 1
10
215.615331
20
109.692439
11
213.612133
21
110.341976
0
LINE
8
Layer 1
10
213.612133
20
110.341976
11
211.909520
21
110.552760
0
LINE
8
Layer 1
10
211.909520
20
110.552760
11
210.359091
21
110.692755
0
LINE
8
Layer 1
10
210.359091
20
110.692755
11
208.907941
21
111.136039
0
LINE
8
Layer 1
10
208.907941
20
111.136039
11
207.473750
21
111.917555
0
LINE
8
Layer 1
10
207.473750
20
111.917555
11
205.974200
21
113.072250
0
LINE
8
Layer 1
10
205.974200
20
113.072250
11
204.615034
21
114.100679
0
LINE
8
Layer 1
10
204.615034
20
114.100679
11
203.061442
21
115.038369
0
LINE
8
Layer 1
10
203.061442
20
115.038369
11
201.504952
21
115.781791
0
LINE
8
Layer 1
10
201.504952
20
115.781791
11
200.137090
21
116.227420
0
LINE
8
Layer 1
10
200.137090
20
116.227420
11
198.680162
21
116.721592
0
LINE
8
Layer 1
10
198.680162
20
116.721592
11
197.168478
21
117.572924
0
LINE
8
Layer 1
10
197.168478
20
117.572924
11
195.639959
21
118.756039
0
LINE
8
Layer 1
10
195.639959
20
118.756039
11
194.132530
21
120.245560
0
LINE
8
Layer 1
10
194.132530
20
120.245560
11
190.916671
21
123.272014
0
LINE
8
Layer 1
10
190.916671
20
123.272014
11
189.124141
21
124.688884
0
LINE
8
Layer 1
10
189.124141
20
124.688884
11
187.498770
21
125.798570
0
LINE
8
Layer 1
10
187.498770
20
125.798570
11
184.410938
21
128.065684
0
LINE
8
Layer 1
10
184.410938
20
128.065684
11
183.026209
21
129.326704
0
LINE
8
Layer 1
10
183.026209
20
129.326704
11
181.988670
21
130.468390
0
LINE
8
Layer 1
10
181.988670
20
130.468390
11
180.206610
21
133.171102
0
LINE
8
Layer 1
10
180.206610
20
133.171102
11
178.583714
21
136.331026
0
LINE
8
Layer 1
10
178.583714
20
136.331026
11
177.402671
21
139.327482
0
LINE
8
Layer 1
10
177.402671
20
139.327482
11
177.066185
21
140.570447
0
LINE
8
Layer 1
10
177.066185
20
140.570447
11
176.946170
21
141.539790
0
LINE
8
Layer 1
10
176.946170
20
141.539790
11
176.690943
21
142.441480
0
LINE
8
Layer 1
10
176.690943
20
142.441480
11
175.996019
21
143.738883
0
LINE
8
Layer 1
10
175.996019
20
143.738883
11
174.967530
21
145.258514
0
LINE
8
Layer 1
10
174.967530
20
145.258514
11
173.711610
21
146.826890
0
LINE
8
Layer 1
10
173.711610
20
146.826890
11
172.536368
21
148.299270
0
LINE
8
Layer 1
10
172.536368
20
148.299270
11
171.532557
21
149.820129
0
LINE
8
Layer 1
10
171.532557
20
149.820129
11
170.695842
21
151.401847
0
LINE
8
Layer 1
10
170.695842
20
151.401847
11
170.021886
21
153.056803
0
LINE
8
Layer 1
10
170.021886
20
153.056803
11
169.506353
21
154.797376
0
LINE
8
Layer 1
10
169.506353
20
154.797376
11
169.144907
21
156.635945
0
LINE
8
Layer 1
10
169.144907
20
156.635945
11
168.933212
21
158.584890
0
LINE
8
Layer 1
10
168.933212
20
158.584890
11
168.866930
21
160.656590
0
LINE
8
Layer 1
10
168.866930
20
160.656590
11
169.060970
21
163.185779
0
LINE
8
Layer 1
10
169.060970
20
163.185779
11
169.517360
21
164.946330
0
LINE
8
Layer 1
10
169.517360
20
164.946330
11
169.704011
21
165.644877
0
LINE
8
Layer 1
10
169.704011
20
165.644877
11
169.652017
21
166.558314
0
LINE
8
Layer 1
10
169.652017
20
166.558314
11
169.366748
21
167.654651
0
LINE
8
Layer 1
10
169.366748
20
167.654651
11
168.853570
21
168.901900
0
LINE
8
Layer 1
10
168.853570
20
168.901900
11
168.307123
21
170.342851
0
LINE
8
Layer 1
10
168.307123
20
170.342851
11
167.785490
21
172.238974
0
LINE
8
Layer 1
10
167.785490
20
172.238974
11
167.052990
21
176.411150
0
LINE
8
Layer 1
10
167.052990
20
176.411150
11
166.503541
21
180.226156
0
LINE
8
Layer 1
10
166.503541
20
180.226156
11
165.875560
21
182.704490
0
LINE
8
Layer 1
10
165.875560
20
182.704490
11
165.641380
21
183.555896
0
LINE
8
Layer 1
10
165.641380
20
183.555896
11
165.621013
21
184.585951
0
LINE
8
Layer 1
10
165.621013
20
184.585951
11
165.814301
21
185.792656
0
LINE
8
Layer 1
10
165.814301
20
185.792656
11
166.221090
21
187.174010
0
LINE
8
Layer 1
10
166.221090
20
187.174010
11
166.679255
21
189.262467
0
LINE
8
Layer 1
10
166.679255
20
189.262467
11
167.165740
21
192.773261
0
LINE
8
Layer 1
10
167.165740
20
192.773261
11
167.991320
21
202.102510
0
LINE
8
Layer 1
10
167.991320
20
202.102510
11
168.596797
21
209.495194
0
LINE
8
Layer 1
10
168.596797
20
209.495194
11
169.395600
21
214.758535
0
LINE
8
Layer 1
10
169.395600
20
214.758535
11
169.885872
21
216.677852
0
LINE
8
Layer 1
10
169.885872
20
216.677852
11
170.446523
21
218.168213
0
LINE
8
Layer 1
10
170.446523
20
218.168213
11
171.084902
21
219.264079
0
LINE
8
Layer 1
10
171.084902
20
219.264079
11
171.808360
21
219.999910
0
LINE
8
Layer 1
10
171.808360
20
219.999910
11
171.889090
21
220.193121
0
LINE
8
Layer 1
10
171.889090
20
220.193121
11
171.820453
21
220.526406
0
LINE
8
Layer 1
10
171.820453
20
220.526406
11
171.279410
21
221.544653
0
LINE
8
Layer 1
10
171.279410
20
221.544653
11
170.273899
21
222.917555
0
LINE
8
Layer 1
10
170.273899
20
222.917555
11
168.892590
21
224.508020
0
LINE
8
Layer 1
10
168.892590
20
224.508020
11
167.212865
21
226.525492
0
LINE
8
Layer 1
10
167.212865
20
226.525492
11
165.608185
21
228.858165
0
LINE
8
Layer 1
10
165.608185
20
228.858165
11
164.169367
21
231.361725
0
LINE
8
Layer 1
10
164.169367
20
231.361725
11
162.987230
21
233.891860
0
LINE
8
Layer 1
10
162.987230
20
233.891860
11
161.356510
21
238.658374
0
LINE
8
Layer 1
10
161.356510
20
238.658374
11
160.148938
21
243.681725
0
LINE
8
Layer 1
10
160.148938
20
243.681725
11
159.525372
21
248.129894
0
LINE
8
Layer 1
10
159.525372
20
248.129894
11
159.482859
21
249.878278
0
LINE
8
Layer 1
10
159.482859
20
249.878278
11
159.646670
21
251.170860
0
LINE
8
Layer 1
10
159.646670
20
251.170860
11
159.754363
21
251.973265
0
LINE
8
Layer 1
10
159.754363
20
251.973265
11
159.617844
21
252.671450
0
LINE
8
Layer 1
10
159.617844
20
252.671450
11
159.232143
21
253.277805
0
LINE
8
Layer 1
10
159.232143
20
253.277805
11
158.592290
21
253.804720
0
LINE
8
Layer 1
10
158.592290
20
253.804720
11
157.764308
21
254.486841
0
LINE
8
Layer 1
10
157.764308
20
254.486841
11
157.011859
21
255.447297
0
LINE
8
Layer 1
10
157.011859
20
255.447297
11
156.321232
21
256.726378
0
LINE
8
Layer 1
10
156.321232
20
256.726378
11
155.678717
21
258.364374
0
LINE
8
Layer 1
10
155.678717
20
258.364374
11
154.483182
21
262.878274
0
LINE
8
Layer 1
10
154.483182
20
262.878274
11
153.315570
21
269.311320
0
LINE
8
Layer 1
10
153.315570
20
269.311320
11
152.440479
21
274.121084
0
LINE
8
Layer 1
10
152.440479
20
274.121084
11
151.382624
21
278.440910
0
LINE
8
Layer 1
10
151.382624
20
278.440910
11
150.015406
21
282.719666
0
LINE
8
Layer 1
10
150.015406
20
282.719666
11
148.212230
21
287.406220
0
LINE
8
Layer 1
10
148.212230
20
287.406220
11
146.374021
21
292.088410
0
LINE
8
Layer 1
10
146.374021
20
292.088410
11
145.262186
21
295.522432
0
LINE
8
Layer 1
10
145.262186
20
295.522432
11
144.714241
21
298.318149
0
LINE
8
Layer 1
10
144.714241
20
298.318149
11
144.567700
21
301.085420
0
LINE
8
Layer 1
10
144.567700
20
301.085420
11
144.520811
21
302.936045
0
LINE
8
Layer 1
10
144.520811
20
302.936045
11
144.345939
21
304.570309
0
LINE
8
Layer 1
10
144.345939
20
304.570309
11
143.991771
21
306.101584
0
LINE
8
Layer 1
10
143.991771
20
306.101584
11
143.406997
21
307.643245
0
LINE
8
Layer 1
10
143.406997
20
307.643245
11
142.540307
21
309.308665
0
LINE
8
Layer 1
10
142.540307
20
309.308665
11
141.340390
21
311.211219
0
LINE
8
Layer 1
10
141.340390
20
311.211219
11
137.735630
21
316.181220
0
LINE
8
Layer 1
10
137.735630
20
316.181220
11
134.610468
21
320.588124
0
LINE
8
Layer 1
10
134.610468
20
320.588124
11
131.677745
21
325.253173
0
LINE
8
Layer 1
10
131.677745
20
325.253173
11
128.951974
21
330.121630
0
LINE
8
Layer 1
10
128.951974
20
330.121630
11
126.447667
21
335.138762
0
LINE
8
Layer 1
10
126.447667
20
335.138762
11
124.179339
21
340.249833
0
LINE
8
Layer 1
10
124.179339
20
340.249833
11
122.161503
21
345.400108
0
LINE
8
Layer 1
10
122.161503
20
345.400108
11
120.408670
21
350.534853
0
LINE
8
Layer 1
10
120.408670
20
350.534853
11
118.935355
21
355.599332
0
LINE
8
Layer 1
10
118.935355
20
355.599332
11
117.756070
21
360.538811
0
LINE
8
Layer 1
10
117.756070
20
360.538811
11
116.885329
21
365.298555
0
LINE
8
Layer 1
10
116.885329
20
365.298555
11
116.337645
21
369.823828
0
LINE
8
Layer 1
10
116.337645
20
369.823828
11
116.127530
21
374.059897
0
LINE
8
Layer 1
10
116.127530
20
374.059897
11
116.269498
21
377.952025
0
LINE
8
Layer 1
10
116.269498
20
377.952025
11
116.778062
21
381.445478
0
LINE
8
Layer 1
10
116.778062
20
381.445478
11
117.667735
21
384.485521
0
LINE
8
Layer 1
10
117.667735
20
384.485521
11
118.260023
21
385.818410
0
LINE
8
Layer 1
10
118.260023
20
385.818410
11
118.953030
21
387.017420
0
LINE
8
Layer 1
10
118.953030
20
387.017420
11
120.560780
21
389.458920
0
LINE
8
Layer 1
10
120.560780
20
389.458920
11
130.600080
21
388.913402
0
LINE
8
Layer 1
10
130.600080
20
388.913402
11
136.408213
21
388.496186
0
LINE
8
Layer 1
10
136.408213
20
388.496186
11
142.059030
21
387.879655
0
LINE
8
Layer 1
10
142.059030
20
387.879655
11
147.571925
21
387.055797
0
LINE
8
Layer 1
10
147.571925
20
387.055797
11
152.966296
21
386.016598
0
LINE
8
Layer 1
10
152.966296
20
386.016598
11
158.261536
21
384.754046
0
LINE
8
Layer 1
10
158.261536
20
384.754046
11
163.477041
21
383.260128
0
LINE
8
Layer 1
10
163.477041
20
383.260128
11
168.632208
21
381.526832
0
LINE
8
Layer 1
10
168.632208
20
381.526832
11
173.746430
21
379.546143
0
LINE
8
Layer 1
10
173.746430
20
379.546143
11
178.839104
21
377.310050
0
LINE
8
Layer 1
10
178.839104
20
377.310050
11
183.929625
21
374.810540
0
LINE
8
Layer 1
10
183.929625
20
374.810540
11
189.037388
21
372.039600
0
LINE
8
Layer 1
10
189.037388
20
372.039600
11
194.181789
21
368.989217
0
LINE
8
Layer 1
10
194.181789
20
368.989217
11
199.382224
21
365.651379
0
LINE
8
Layer 1
10
199.382224
20
365.651379
11
204.658087
21
362.018072
0
LINE
8
Layer 1
10
204.658087
20
362.018072
11
210.028774
21
358.081284
0
LINE
8
Layer 1
10
210.028774
20
358.081284
11
215.513680
21
353.833002
0
LINE
8
Layer 1
10
215.513680
20
353.833002
11
220.744053
21
349.579636
0
LINE
8
Layer 1
10
220.744053
20
349.579636
11
225.936854
21
345.158916
0
LINE
8
Layer 1
10
225.936854
20
345.158916
11
236.183382
21
335.844754
0
LINE
8
Layer 1
10
236.183382
20
335.844754
11
246.200542
21
325.949193
0
LINE
8
Layer 1
10
246.200542
20
325.949193
11
255.935618
21
315.530914
0
LINE
8
Layer 1
10
255.935618
20
315.530914
11
265.335888
21
304.648597
0
LINE
8
Layer 1
10
265.335888
20
304.648597
11
274.348635
21
293.360919
0
LINE
8
Layer 1
10
274.348635
20
293.360919
11
282.921138
21
281.726561
0
LINE
8
Layer 1
10
282.921138
20
281.726561
11
291.000680
21
269.804202
0
LINE
8
Layer 1
10
291.000680
20
269.804202
11
294.434451
21
264.916227
0
LINE
8
Layer 1
10
294.434451
20
264.916227
11
295.540492
21
263.649594
0
LINE
8
Layer 1
10
295.540492
20
263.649594
11
295.868751
21
263.401890
0
LINE
8
Layer 1
10
295.868751
20
263.401890
11
296.019720
21
263.446032
0
LINE
8
Layer 1
10
296.019720
20
263.446032
11
295.944781
21
264.064227
0
LINE
8
Layer 1
10
295.944781
20
264.064227
11
295.541939
21
265.035038
0
LINE
8
Layer 1
10
295.541939
20
265.035038
11
294.015590
21
267.502152
0
LINE
8
Layer 1
10
294.015590
20
267.502152
11
292.442756
21
269.933788
0
LINE
8
Layer 1
10
292.442756
20
269.933788
11
292.032864
21
270.924135
0
LINE
8
Layer 1
10
292.032864
20
270.924135
11
291.871190
21
271.828342
0
LINE
8
Layer 1
10
291.871190
20
271.828342
11
291.955634
21
272.694541
0
LINE
8
Layer 1
10
291.955634
20
272.694541
11
292.284097
21
273.570863
0
LINE
8
Layer 1
10
292.284097
20
273.570863
11
293.664680
21
275.546402
0
LINE
8
Layer 1
10
293.664680
20
275.546402
11
295.586820
21
277.842432
0
LINE
8
Layer 1
10
295.586820
20
277.842432
11
293.207770
21
285.395362
0
LINE
8
Layer 1
10
293.207770
20
285.395362
11
290.087217
21
294.269700
0
LINE
8
Layer 1
10
290.087217
20
294.269700
11
286.163103
21
303.784312
0
LINE
8
Layer 1
10
286.163103
20
303.784312
11
281.692647
21
313.354424
0
LINE
8
Layer 1
10
281.692647
20
313.354424
11
276.933070
21
322.395262
0
LINE
8
Layer 1
10
276.933070
20
322.395262
11
273.269326
21
328.711261
0
LINE
8
Layer 1
10
273.269326
20
328.711261
11
269.807198
21
334.240751
0
LINE
8
Layer 1
10
269.807198
20
334.240751
11
266.521606
21
339.013943
0
LINE
8
Layer 1
10
266.521606
20
339.013943
11
263.387470
21
343.061050
0
LINE
8
Layer 1
10
263.387470
20
343.061050
11
260.379709
21
346.412283
0
LINE
8
Layer 1
10
260.379709
20
346.412283
11
257.473242
21
349.097854
0
LINE
8
Layer 1
10
257.473242
20
349.097854
11
254.642989
21
351.147977
0
LINE
8
Layer 1
10
254.642989
20
351.147977
11
251.863870
21
352.592862
0
LINE
8
Layer 1
10
251.863870
20
352.592862
11
248.846081
21
354.124928
0
LINE
8
Layer 1
10
248.846081
20
354.124928
11
247.611435
21
354.971657
0
LINE
8
Layer 1
10
247.611435
20
354.971657
11
246.575151
21
355.857188
0
LINE
8
Layer 1
10
246.575151
20
355.857188
11
245.748877
21
356.770273
0
LINE
8
Layer 1
10
245.748877
20
356.770273
11
245.144260
21
357.699663
0
LINE
8
Layer 1
10
245.144260
20
357.699663
11
244.772949
21
358.634112
0
LINE
8
Layer 1
10
244.772949
20
358.634112
11
244.646590
21
359.562372
0
LINE
8
Layer 1
10
244.646590
20
359.562372
11
244.726289
21
360.400636
0
LINE
8
Layer 1
10
244.726289
20
360.400636
11
245.027760
21
360.830187
0
LINE
8
Layer 1
10
245.027760
20
360.830187
11
245.644561
21
360.902123
0
LINE
8
Layer 1
10
245.644561
20
360.902123
11
246.670250
21
360.667542
0
LINE
8
Layer 1
10
246.670250
20
360.667542
11
248.274166
21
360.056476
0
LINE
8
Layer 1
10
248.274166
20
360.056476
11
250.003262
21
359.137509
0
LINE
8
Layer 1
10
250.003262
20
359.137509
11
251.843554
21
357.926700
0
LINE
8
Layer 1
10
251.843554
20
357.926700
11
253.781060
21
356.440109
0
LINE
8
Layer 1
10
253.781060
20
356.440109
11
257.891780
21
352.703816
0
LINE
8
Layer 1
10
257.891780
20
352.703816
11
262.223556
21
348.057105
0
LINE
8
Layer 1
10
262.223556
20
348.057105
11
266.664526
21
342.628447
0
LINE
8
Layer 1
10
266.664526
20
342.628447
11
271.102824
21
336.546319
0
LINE
8
Layer 1
10
271.102824
20
336.546319
11
275.426587
21
329.939192
0
LINE
8
Layer 1
10
275.426587
20
329.939192
11
279.523950
21
322.935542
0
LINE
8
Layer 1
10
279.523950
20
322.935542
11
283.512420
21
315.188012
0
LINE
8
Layer 1
10
283.512420
20
315.188012
11
287.734304
21
306.121048
0
LINE
8
Layer 1
10
287.734304
20
306.121048
11
291.734111
21
296.755857
0
LINE
8
Layer 1
10
291.734111
20
296.755857
11
295.056350
21
288.113642
0
LINE
8
Layer 1
10
295.056350
20
288.113642
11
296.982272
21
282.892882
0
LINE
8
Layer 1
10
296.982272
20
282.892882
11
297.679419
21
281.278924
0
LINE
8
Layer 1
10
297.679419
20
281.278924
11
298.274518
21
280.221638
0
LINE
8
Layer 1
10
298.274518
20
280.221638
11
298.823940
21
279.640318
0
LINE
8
Layer 1
10
298.823940
20
279.640318
11
299.384059
21
279.454257
0
LINE
8
Layer 1
10
299.384059
20
279.454257
11
300.011245
21
279.582747
0
LINE
8
Layer 1
10
300.011245
20
279.582747
11
300.761870
21
279.945082
0
LINE
8
Layer 1
10
300.761870
20
279.945082
11
301.701099
21
280.842844
0
LINE
8
Layer 1
10
301.701099
20
280.842844
11
302.726013
21
282.632211
0
LINE
8
Layer 1
10
302.726013
20
282.632211
11
303.906149
21
285.458751
0
LINE
8
Layer 1
10
303.906149
20
285.458751
11
305.311050
21
289.468032
0
LINE
8
Layer 1
10
305.311050
20
289.468032
11
307.168444
21
294.769385
0
LINE
8
Layer 1
10
307.168444
20
294.769385
11
309.448390
21
300.793604
0
LINE
8
Layer 1
10
309.448390
20
300.793604
11
314.772666
21
313.829307
0
LINE
8
Layer 1
10
314.772666
20
313.829307
11
320.277334
21
326.212473
0
LINE
8
Layer 1
10
320.277334
20
326.212473
11
322.782770
21
331.421020
0
LINE
8
Layer 1
10
322.782770
20
331.421020
11
324.955850
21
335.580432
0
LINE
8
Layer 1
10
324.955850
20
335.580432
11
327.289767
21
339.482538
0
LINE
8
Layer 1
10
327.289767
20
339.482538
11
330.043389
21
343.597659
0
LINE
8
Layer 1
10
330.043389
20
343.597659
11
333.075755
21
347.753519
0
LINE
8
Layer 1
10
333.075755
20
347.753519
11
336.245901
21
351.777842
0
LINE
8
Layer 1
10
336.245901
20
351.777842
11
339.412867
21
355.498351
0
LINE
8
Layer 1
10
339.412867
20
355.498351
11
342.435688
21
358.742770
0
LINE
8
Layer 1
10
342.435688
20
358.742770
11
345.173403
21
361.338823
0
LINE
8
Layer 1
10
345.173403
20
361.338823
11
347.485050
21
363.114232
0
LINE
8
Layer 1
10
347.485050
20
363.114232
11
349.627465
21
364.438890
0
LINE
8
Layer 1
10
349.627465
20
364.438890
11
350.784514
21
364.963149
0
LINE
8
Layer 1
10
350.784514
20
364.963149
11
351.087735
21
364.942723
0
LINE
8
Layer 1
10
351.087735
20
364.942723
11
351.257666
21
364.743308
0
LINE
8
Layer 1
10
351.257666
20
364.743308
11
351.348390
21
363.835661
0
LINE
8
Layer 1
10
351.348390
20
363.835661
11
351.121308
21
361.640409
0
LINE
8
Layer 1
10
351.121308
20
361.640409
11
350.786763
21
360.729903
0
LINE
8
Layer 1
10
350.786763
20
360.729903
11
350.259820
21
359.885469
0
LINE
8
Layer 1
10
350.259820
20
359.885469
11
349.506685
21
359.063100
0
LINE
8
Layer 1
10
349.506685
20
359.063100
11
348.493562
21
358.218792
0
LINE
8
Layer 1
10
348.493562
20
358.218792
11
345.552170
21
356.288331
0
LINE
8
Layer 1
10
345.552170
20
356.288331
11
343.206606
21
354.691635
0
LINE
8
Layer 1
10
343.206606
20
354.691635
11
340.854947
21
352.740526
0
LINE
8
Layer 1
10
340.854947
20
352.740526
11
338.583161
21
350.512705
0
LINE
8
Layer 1
10
338.583161
20
350.512705
11
336.477210
21
348.085871
0
LINE
8
Layer 1
10
336.477210
20
348.085871
11
334.713156
21
345.729448
0
LINE
8
Layer 1
10
334.713156
20
345.729448
11
332.833948
21
342.952051
0
LINE
8
Layer 1
10
332.833948
20
342.952051
11
328.821749
21
336.326698
0
LINE
8
Layer 1
10
328.821749
20
336.326698
11
324.623961
21
328.594534
0
LINE
8
Layer 1
10
324.623961
20
328.594534
11
320.423934
21
320.140284
0
LINE
8
Layer 1
10
320.423934
20
320.140284
11
316.405016
21
311.348669
0
LINE
8
Layer 1
10
316.405016
20
311.348669
11
312.750556
21
302.604413
0
LINE
8
Layer 1
10
312.750556
20
302.604413
11
309.643905
21
294.292240
0
LINE
8
Layer 1
10
309.643905
20
294.292240
11
307.268410
21
286.796871
0
LINE
8
Layer 1
10
307.268410
20
286.796871
11
305.053370
21
278.887511
0
LINE
8
Layer 1
10
305.053370
20
278.887511
11
307.228490
21
276.206841
0
LINE
8
Layer 1
10
307.228490
20
276.206841
11
308.761550
21
274.003245
0
LINE
8
Layer 1
10
308.761550
20
274.003245
11
309.142896
21
273.051710
0
LINE
8
Layer 1
10
309.142896
20
273.051710
11
309.267076
21
272.121877
0
LINE
8
Layer 1
10
309.267076
20
272.121877
11
309.133808
21
271.154892
0
LINE
8
Layer 1
10
309.133808
20
271.154892
11
308.742809
21
270.091899
0
LINE
8
Layer 1
10
308.742809
20
270.091899
11
307.186490
21
267.442471
0
LINE
8
Layer 1
10
307.186490
20
267.442471
11
305.730188
21
264.957988
0
LINE
8
Layer 1
10
305.730188
20
264.957988
11
305.372433
21
264.100360
0
LINE
8
Layer 1
10
305.372433
20
264.100360
11
305.342290
21
263.664431
0
LINE
8
Layer 1
10
305.342290
20
263.664431
11
305.690829
21
263.557853
0
LINE
8
Layer 1
10
305.690829
20
263.557853
11
306.203154
21
263.835490
0
LINE
8
Layer 1
10
306.203154
20
263.835490
11
307.625406
21
265.417475
0
LINE
8
Layer 1
10
307.625406
20
265.417475
11
309.421536
21
268.158515
0
LINE
8
Layer 1
10
309.421536
20
268.158515
11
311.404030
21
271.806741
0
LINE
8
Layer 1
10
311.404030
20
271.806741
11
314.238538
21
277.098095
0
LINE
8
Layer 1
10
314.238538
20
277.098095
11
317.798679
21
283.149861
0
LINE
8
Layer 1
10
317.798679
20
283.149861
11
321.957726
21
289.774508
0
LINE
8
Layer 1
10
321.957726
20
289.774508
11
326.588954
21
296.784504
0
LINE
8
Layer 1
10
326.588954
20
296.784504
11
331.565635
21
303.992316
0
LINE
8
Layer 1
10
331.565635
20
303.992316
11
336.761042
21
311.210414
0
LINE
8
Layer 1
10
336.761042
20
311.210414
11
342.048449
21
318.251267
0
LINE
8
Layer 1
10
342.048449
20
318.251267
11
347.301130
21
324.927341
0
LINE
8
Layer 1
10
347.301130
20
324.927341
11
354.770930
21
333.882030
0
LINE
8
Layer 1
10
354.770930
20
333.882030
11
362.286643
21
342.304464
0
LINE
8
Layer 1
10
362.286643
20
342.304464
11
369.841016
21
350.190036
0
LINE
8
Layer 1
10
369.841016
20
350.190036
11
377.426794
21
357.534139
0
LINE
8
Layer 1
10
377.426794
20
357.534139
11
385.036722
21
364.332167
0
LINE
8
Layer 1
10
385.036722
20
364.332167
11
392.663547
21
370.579512
0
LINE
8
Layer 1
10
392.663547
20
370.579512
11
400.300013
21
376.271568
0
LINE
8
Layer 1
10
400.300013
20
376.271568
11
407.938868
21
381.403729
0
LINE
8
Layer 1
10
407.938868
20
381.403729
11
415.572855
21
385.971386
0
LINE
8
Layer 1
10
415.572855
20
385.971386
11
423.194721
21
389.969934
0
LINE
8
Layer 1
10
423.194721
20
389.969934
11
430.797211
21
393.394765
0
LINE
8
Layer 1
10
430.797211
20
393.394765
11
438.373072
21
396.241274
0
LINE
8
Layer 1
10
438.373072
20
396.241274
11
445.915049
21
398.504852
0
LINE
8
Layer 1
10
445.915049
20
398.504852
11
453.415887
21
400.180894
0
LINE
8
Layer 1
10
453.415887
20
400.180894
11
460.868332
21
401.264793
0
LINE
8
Layer 1
10
460.868332
20
401.264793
11
468.265130
21
401.751941
0
LINE
8
Layer 1
10
468.265130
20
401.751941
11
475.904910
21
401.946101
0
LINE
8
Layer 1
10
475.904910
20
401.946101
11
477.463560
21
398.430041
0
LINE
8
Layer 1
10
477.463560
20
398.430041
11
478.147828
21
396.251188
0
LINE
8
Layer 1
10
478.147828
20
396.251188
11
478.643470
21
393.342057
0
LINE
8
Layer 1
10
478.643470
20
393.342057
11
478.949601
21
389.876758
0
LINE
8
Layer 1
10
478.949601
20
389.876758
11
479.065335
21
386.029400
0
LINE
8
Layer 1
10
479.065335
20
386.029400
11
478.989787
21
381.974090
0
LINE
8
Layer 1
10
478.989787
20
381.974090
11
478.722072
21
377.884938
0
LINE
8
Layer 1
10
478.722072
20
377.884938
11
478.261305
21
373.936052
0
LINE
8
Layer 1
10
478.261305
20
373.936052
11
477.606600
21
370.301541
0
LINE
8
Layer 1
10
477.606600
20
370.301541
11
476.424310
21
365.583242
0
LINE
8
Layer 1
10
476.424310
20
365.583242
11
474.891383
21
360.577380
0
LINE
8
Layer 1
10
474.891383
20
360.577380
11
473.013744
21
355.298033
0
LINE
8
Layer 1
10
473.013744
20
355.298033
11
470.797321
21
349.759279
0
LINE
8
Layer 1
10
470.797321
20
349.759279
11
468.248039
21
343.975194
0
LINE
8
Layer 1
10
468.248039
20
343.975194
11
465.371824
21
337.959858
0
LINE
8
Layer 1
10
465.371824
20
337.959858
11
462.174602
21
331.727348
0
LINE
8
Layer 1
10
462.174602
20
331.727348
11
458.662300
21
325.291741
0
LINE
8
Layer 1
10
458.662300
20
325.291741
11
456.761930
21
321.759779
0
LINE
8
Layer 1
10
456.761930
20
321.759779
11
455.688979
21
319.196300
0
LINE
8
Layer 1
10
455.688979
20
319.196300
11
455.213693
21
316.876666
0
LINE
8
Layer 1
10
455.213693
20
316.876666
11
455.106320
21
314.076241
0
LINE
8
Layer 1
10
455.106320
20
314.076241
11
454.964253
21
311.344230
0
LINE
8
Layer 1
10
454.964253
20
311.344230
11
454.485701
21
308.500690
0
LINE
8
Layer 1
10
454.485701
20
308.500690
11
453.592139
21
305.193625
0
LINE
8
Layer 1
10
453.592139
20
305.193625
11
452.205040
21
301.071041
0
LINE
8
Layer 1
10
452.205040
20
301.071041
11
450.333126
21
295.145532
0
LINE
8
Layer 1
10
450.333126
20
295.145532
11
448.937083
21
289.249966
0
LINE
8
Layer 1
10
448.937083
20
289.249966
11
448.061018
21
283.608313
0
LINE
8
Layer 1
10
448.061018
20
283.608313
11
447.749040
21
278.444541
0
LINE
8
Layer 1
10
447.749040
20
278.444541
11
447.495866
21
274.947101
0
LINE
8
Layer 1
10
447.495866
20
274.947101
11
446.812773
21
271.601116
0
LINE
8
Layer 1
10
446.812773
20
271.601116
11
445.781556
21
268.704494
0
LINE
8
Layer 1
10
445.781556
20
268.704494
11
445.160962
21
267.517789
0
LINE
8
Layer 1
10
445.160962
20
267.517789
11
444.484010
21
266.555141
0
LINE
8
Layer 1
10
444.484010
20
266.555141
11
443.623354
21
265.253920
0
LINE
8
Layer 1
10
443.623354
20
265.253920
11
443.054096
21
263.546656
0
LINE
8
Layer 1
10
443.054096
20
263.546656
11
442.682225
21
261.009352
0
LINE
8
Layer 1
10
442.682225
20
261.009352
11
442.413730
21
257.218011
0
LINE
8
Layer 1
10
442.413730
20
257.218011
11
442.127925
21
253.566504
0
LINE
8
Layer 1
10
442.127925
20
253.566504
11
441.679600
21
250.231547
0
LINE
8
Layer 1
10
441.679600
20
250.231547
11
441.058746
21
247.183350
0
LINE
8
Layer 1
10
441.058746
20
247.183350
11
440.255352
21
244.392124
0
LINE
8
Layer 1
10
440.255352
20
244.392124
11
439.259411
21
241.828076
0
LINE
8
Layer 1
10
439.259411
20
241.828076
11
438.060911
21
239.461419
0
LINE
8
Layer 1
10
438.060911
20
239.461419
11
436.649844
21
237.262360
0
LINE
8
Layer 1
10
436.649844
20
237.262360
11
435.016200
21
235.201111
0
LINE
8
Layer 1
10
435.016200
20
235.201111
11
432.656192
21
232.218362
0
LINE
8
Layer 1
10
432.656192
20
232.218362
11
432.128440
21
231.311000
0
LINE
8
Layer 1
10
432.128440
20
231.311000
11
432.068622
21
231.063950
0
LINE
8
Layer 1
10
432.068622
20
231.063950
11
432.160460
21
230.977751
0
LINE
8
Layer 1
10
432.160460
20
230.977751
11
432.775155
21
230.718628
0
LINE
8
Layer 1
10
432.775155
20
230.718628
11
433.371460
21
229.964791
0
LINE
8
Layer 1
10
433.371460
20
229.964791
11
433.939616
21
228.751543
0
LINE
8
Layer 1
10
433.939616
20
228.751543
11
434.469864
21
227.114184
0
LINE
8
Layer 1
10
434.469864
20
227.114184
11
435.377593
21
222.708334
0
LINE
8
Layer 1
10
435.377593
20
222.708334
11
436.016570
21
217.029651
0
LINE
8
Layer 1
10
436.016570
20
217.029651
11
436.426132
21
212.947806
0
LINE
8
Layer 1
10
436.426132
20
212.947806
11
437.002809
21
209.182877
0
LINE
8
Layer 1
10
437.002809
20
209.182877
11
437.747626
21
205.729261
0
LINE
8
Layer 1
10
437.747626
20
205.729261
11
438.661610
21
202.581351
0
LINE
8
Layer 1
10
438.661610
20
202.581351
11
439.680602
21
199.342551
0
LINE
8
Layer 1
10
439.680602
20
199.342551
11
440.163685
21
197.133972
0
LINE
8
Layer 1
10
440.163685
20
197.133972
11
440.176878
21
195.435943
0
LINE
8
Layer 1
10
440.176878
20
195.435943
11
439.786200
21
193.728791
0
LINE
8
Layer 1
10
439.786200
20
193.728791
11
439.448741
21
192.193953
0
LINE
8
Layer 1
10
439.448741
20
192.193953
11
439.172391
21
190.137276
0
LINE
8
Layer 1
10
439.172391
20
190.137276
11
438.917090
21
185.533981
0
LINE
8
Layer 1
10
438.917090
20
185.533981
11
438.851283
21
183.107053
0
LINE
8
Layer 1
10
438.851283
20
183.107053
11
438.650910
21
181.248334
0
LINE
8
Layer 1
10
438.650910
20
181.248334
11
438.311539
21
179.931748
0
LINE
8
Layer 1
10
438.311539
20
179.931748
11
437.828740
21
179.131221
0
LINE
8
Layer 1
10
437.828740
20
179.131221
11
437.364106
21
178.544994
0
LINE
8
Layer 1
10
437.364106
20
178.544994
11
437.152027
21
177.931894
0
LINE
8
Layer 1
10
437.152027
20
177.931894
11
437.186320
21
177.246736
0
LINE
8
Layer 1
10
437.186320
20
177.246736
11
437.460800
21
176.444341
0
LINE
8
Layer 1
10
437.460800
20
176.444341
11
437.836615
21
175.174637
0
LINE
8
Layer 1
10
437.836615
20
175.174637
11
438.069565
21
173.457142
0
LINE
8
Layer 1
10
438.069565
20
173.457142
11
438.129629
21
169.198670
0
LINE
8
Layer 1
10
438.129629
20
169.198670
11
437.686516
21
164.708708
0
LINE
8
Layer 1
10
437.686516
20
164.708708
11
437.290494
21
162.701851
0
LINE
8
Layer 1
10
437.290494
20
162.701851
11
436.785750
21
161.027041
0
LINE
8
Layer 1
10
436.785750
20
161.027041
11
436.101127
21
159.489031
0
LINE
8
Layer 1
10
436.101127
20
159.489031
11
435.244734
21
157.951647
0
LINE
8
Layer 1
10
435.244734
20
157.951647
11
434.325894
21
156.593223
0
LINE
8
Layer 1
10
434.325894
20
156.593223
11
433.453930
21
155.592091
0
LINE
8
Layer 1
10
433.453930
20
155.592091
11
432.505605
21
154.495227
0
LINE
8
Layer 1
10
432.505605
20
154.495227
11
431.795887
21
153.161940
0
LINE
8
Layer 1
10
431.795887
20
153.161940
11
431.276388
21
151.473271
0
LINE
8
Layer 1
10
431.276388
20
151.473271
11
430.898720
21
149.310261
0
LINE
8
Layer 1
10
430.898720
20
149.310261
11
430.368962
21
146.750837
0
LINE
8
Layer 1
10
430.368962
20
146.750837
11
429.492001
21
144.150548
0
LINE
8
Layer 1
10
429.492001
20
144.150548
11
428.343886
21
141.627169
0
LINE
8
Layer 1
10
428.343886
20
141.627169
11
427.000664
21
139.298480
0
LINE
8
Layer 1
10
427.000664
20
139.298480
11
425.538385
21
137.282257
0
LINE
8
Layer 1
10
425.538385
20
137.282257
11
424.033097
21
135.696277
0
LINE
8
Layer 1
10
424.033097
20
135.696277
11
422.560849
21
134.658320
0
LINE
8
Layer 1
10
422.560849
20
134.658320
11
421.860880
21
134.381654
0
LINE
8
Layer 1
10
421.860880
20
134.381654
11
421.197690
21
134.286161
0
LINE
8
Layer 1
10
421.197690
20
134.286161
11
420.430627
21
133.938027
0
LINE
8
Layer 1
10
420.430627
20
133.938027
11
419.326506
21
132.990137
0
LINE
8
Layer 1
10
419.326506
20
132.990137
11
418.032982
21
131.587262
0
LINE
8
Layer 1
10
418.032982
20
131.587262
11
416.697710
21
129.874171
0
LINE
8
Layer 1
10
416.697710
20
129.874171
11
415.080292
21
127.797583
0
LINE
8
Layer 1
10
415.080292
20
127.797583
11
413.581298
21
126.267965
0
LINE
8
Layer 1
10
413.581298
20
126.267965
11
412.112562
21
125.208392
0
LINE
8
Layer 1
10
412.112562
20
125.208392
11
410.585920
21
124.541941
0
LINE
8
Layer 1
10
410.585920
20
124.541941
11
409.210757
21
123.989807
0
LINE
8
Layer 1
10
409.210757
20
123.989807
11
407.642425
21
123.166740
0
LINE
8
Layer 1
10
407.642425
20
123.166740
11
406.074093
21
122.183951
0
LINE
8
Layer 1
10
406.074093
20
122.183951
11
404.698930
21
121.152651
0
LINE
8
Layer 1
10
404.698930
20
121.152651
11
403.294734
21
120.142793
0
LINE
8
Layer 1
10
403.294734
20
120.142793
11
401.647354
21
119.218371
0
LINE
8
Layer 1
10
401.647354
20
119.218371
11
399.962029
21
118.481682
0
LINE
8
Layer 1
10
399.962029
20
118.481682
11
398.444000
21
118.035021
0
LINE
8
Layer 1
10
398.444000
20
118.035021
11
396.780808
21
117.530912
0
LINE
8
Layer 1
10
396.780808
20
117.530912
11
394.700238
21
116.637804
0
LINE
8
Layer 1
10
394.700238
20
116.637804
11
392.467893
21
115.481884
0
LINE
8
Layer 1
10
392.467893
20
115.481884
11
390.349380
21
114.189341
0
LINE
8
Layer 1
10
390.349380
20
114.189341
11
387.591362
21
112.474901
0
LINE
8
Layer 1
10
387.591362
20
112.474901
11
385.197046
21
111.431379
0
LINE
8
Layer 1
10
385.197046
20
111.431379
11
382.435397
21
110.824818
0
LINE
8
Layer 1
10
382.435397
20
110.824818
11
378.575380
21
110.421261
0
LINE
8
Layer 1
10
378.575380
20
110.421261
11
366.304380
21
109.200511
0
LINE
8
Layer 1
10
366.304380
20
109.200511
11
363.343505
21
108.906969
0
LINE
8
Layer 1
10
363.343505
20
108.906969
11
361.345754
21
108.998976
0
LINE
8
Layer 1
10
361.345754
20
108.998976
11
359.706074
21
109.590183
0
LINE
8
Layer 1
10
359.706074
20
109.590183
11
357.819410
21
110.794241
0
LINE
8
Layer 1
10
357.819410
20
110.794241
11
356.344537
21
111.715296
0
LINE
8
Layer 1
10
356.344537
20
111.715296
11
354.697924
21
112.564656
0
LINE
8
Layer 1
10
354.697924
20
112.564656
11
353.080574
21
113.247936
0
LINE
8
Layer 1
10
353.080574
20
113.247936
11
351.693490
21
113.670751
0
LINE
8
Layer 1
10
351.693490
20
113.670751
11
349.083278
21
114.448081
0
LINE
8
Layer 1
10
349.083278
20
114.448081
11
346.909580
21
115.428061
0
LINE
8
Layer 1
10
346.909580
20
115.428061
11
345.767859
21
116.299903
0
LINE
8
Layer 1
10
345.767859
20
116.299903
11
344.412700
21
117.639962
0
LINE
8
Layer 1
10
344.412700
20
117.639962
11
341.278363
21
121.437224
0
LINE
8
Layer 1
10
341.278363
20
121.437224
11
337.939159
21
126.244829
0
LINE
8
Layer 1
10
337.939159
20
126.244829
11
334.827680
21
131.487761
0
LINE
8
Layer 1
10
334.827680
20
131.487761
11
331.935445
21
137.181102
0
LINE
8
Layer 1
10
331.935445
20
137.181102
11
328.694140
21
144.157924
0
LINE
8
Layer 1
10
328.694140
20
144.157924
11
325.262366
21
152.025557
0
LINE
8
Layer 1
10
325.262366
20
152.025557
11
321.798722
21
160.391336
0
LINE
8
Layer 1
10
321.798722
20
160.391336
11
318.461811
21
168.862593
0
LINE
8
Layer 1
10
318.461811
20
168.862593
11
315.410233
21
177.046661
0
LINE
8
Layer 1
10
315.410233
20
177.046661
11
312.802589
21
184.550873
0
LINE
8
Layer 1
10
312.802589
20
184.550873
11
310.797480
21
190.982561
0
LINE
8
Layer 1
10
310.797480
20
190.982561
11
309.035210
21
197.135661
0
LINE
8
Layer 1
10
309.035210
20
197.135661
11
308.566090
21
179.994861
0
LINE
8
Layer 1
10
308.566090
20
179.994861
11
308.134827
21
169.300020
0
LINE
8
Layer 1
10
308.134827
20
169.300020
11
307.455338
21
161.937186
0
LINE
8
Layer 1
10
307.455338
20
161.937186
11
306.986279
21
159.248437
0
LINE
8
Layer 1
10
306.986279
20
159.248437
11
306.411690
21
157.084489
0
LINE
8
Layer 1
10
306.411690
20
157.084489
11
305.717077
21
155.342608
0
LINE
8
Layer 1
10
305.717077
20
155.342608
11
304.887950
21
153.920061
0
LINE
8
Layer 1
10
304.887950
20
153.920061
11
304.025326
21
152.975285
0
LINE
8
Layer 1
10
304.025326
20
152.975285
11
303.643023
21
152.861952
0
LINE
8
Layer 1
10
303.643023
20
152.861952
11
303.266474
21
153.007836
0
LINE
8
Layer 1
10
303.266474
20
153.007836
11
302.449877
21
154.136789
0
LINE
8
Layer 1
10
302.449877
20
154.136789
11
301.414020
21
156.481221
0
LINE
8
Layer 1
10
301.414020
20
156.481221
11
300.698252
21
158.517891
0
LINE
8
Layer 1
10
300.698252
20
158.517891
11
300.070596
21
160.861434
0
LINE
8
Layer 1
10
300.070596
20
160.861434
11
299.051021
21
166.687489
0
LINE
8
Layer 1
10
299.051021
20
166.687489
11
298.298103
21
174.396084
0
LINE
8
Layer 1
10
298.298103
20
174.396084
11
297.754650
21
184.423921
0
LINE
8
Layer 1
10
297.754650
20
184.423921
11
297.241180
21
197.135721
0
LINE
8
Layer 1
10
297.241180
20
197.135721
11
294.396630
21
187.027021
0
LINE
8
Layer 1
10
294.396630
20
187.027021
11
291.737262
21
177.879732
0
LINE
8
Layer 1
10
291.737262
20
177.879732
11
289.013026
21
169.108354
0
LINE
8
Layer 1
10
289.013026
20
169.108354
11
286.224412
21
160.714218
0
LINE
8
Layer 1
10
286.224412
20
160.714218
11
283.371910
21
152.698659
0
LINE
8
Layer 1
10
283.371910
20
152.698659
11
280.456010
21
145.063006
0
LINE
8
Layer 1
10
280.456010
20
145.063006
11
277.477204
21
137.808594
0
LINE
8
Layer 1
10
277.477204
20
137.808594
11
274.435980
21
130.936755
0
LINE
8
Layer 1
10
274.435980
20
130.936755
11
271.332830
21
124.448821
0
LINE
8
Layer 1
10
271.332830
20
124.448821
11
268.125219
21
118.484507
0
LINE
8
Layer 1
10
268.125219
20
118.484507
11
266.677774
21
116.232217
0
LINE
8
Layer 1
10
266.677774
20
116.232217
11
265.274216
21
114.395334
0
LINE
8
Layer 1
10
265.274216
20
114.395334
11
263.869279
21
112.920480
0
LINE
8
Layer 1
10
263.869279
20
112.920480
11
262.417696
21
111.754279
0
LINE
8
Layer 1
10
262.417696
20
111.754279
11
260.874202
21
110.843352
0
LINE
8
Layer 1
10
260.874202
20
110.843352
11
259.193530
21
110.134321
0
LINE
8
Layer 1
10
259.193530
20
110.134321
11
257.473050
21
109.417072
0
LINE
8
Layer 1
10
257.473050
20
109.417072
11
255.618234
21
108.467939
0
LINE
8
Layer 1
10
255.618234
20
108.467939
11
253.852074
21
107.410494
0
LINE
8
Layer 1
10
253.852074
20
107.410494
11
252.397560
21
106.368311
0
LINE
8
Layer 1
10
252.397560
20
106.368311
11
250.636506
21
105.073099
0
LINE
8
Layer 1
10
250.636506
20
105.073099
11
249.027910
21
104.391454
0
LINE
8
Layer 1
10
249.027910
20
104.391454
11
246.982342
21
104.179185
0
LINE
8
Layer 1
10
246.982342
20
104.179185
11
243.910370
21
104.292101
0
LINE
8
Layer 1
10
243.910370
20
104.292101
11
239.062254
21
104.536869
0
LINE
8
Layer 1
10
239.062254
20
104.536869
11
235.512997
21
104.577634
0
LINE
8
Layer 1
10
235.512997
20
104.577634
11
232.667027
21
104.401817
0
LINE
8
Layer 1
10
232.667027
20
104.401817
11
229.928770
21
103.996841
0
LINE
8
Layer 1
10
229.928770
20
103.996841
11
227.986900
21
103.788806
0
LINE
8
Layer 1
10
227.986900
20
103.788806
11
226.196466
21
104.091405
0
LINE
8
Layer 1
10
226.196466
20
104.091405
11
223.984654
21
105.091015
0
LINE
8
Layer 1
10
223.984654
20
105.091015
11
220.778650
21
106.974011
0
LINE
8
Layer 1
10
220.778650
20
106.974011
11
220.779000
21
106.974000
0
LINE
8
Layer 1
10
263.978300
20
121.839300
11
265.114386
21
122.872039
0
LINE
8
Layer 1
10
265.114386
20
122.872039
11
266.251595
21
124.173718
0
LINE
8
Layer 1
10
266.251595
20
124.173718
11
268.504668
21
127.518041
0
LINE
8
Layer 1
10
268.504668
20
127.518041
11
270.688093
21
131.740562
0
LINE
8
Layer 1
10
270.688093
20
131.740562
11
272.752444
21
136.709575
0
LINE
8
Layer 1
10
272.752444
20
136.709575
11
274.648296
21
142.293372
0
LINE
8
Layer 1
10
274.648296
20
142.293372
11
276.326223
21
148.360247
0
LINE
8
Layer 1
10
276.326223
20
148.360247
11
277.736799
21
154.778492
0
LINE
8
Layer 1
10
277.736799
20
154.778492
11
278.830600
21
161.416400
0
LINE
8
Layer 1
10
278.830600
20
161.416400
11
279.751472
21
169.106303
0
LINE
8
Layer 1
10
279.751472
20
169.106303
11
280.335580
21
175.911900
0
LINE
8
Layer 1
10
280.335580
20
175.911900
11
280.513375
21
180.768622
0
LINE
8
Layer 1
10
280.513375
20
180.768622
11
280.428172
21
182.133477
0
LINE
8
Layer 1
10
280.428172
20
182.133477
11
280.215310
21
182.611900
0
LINE
8
Layer 1
10
280.215310
20
182.611900
11
279.217318
21
181.090194
0
LINE
8
Layer 1
10
279.217318
20
181.090194
11
277.040822
21
177.029814
0
LINE
8
Layer 1
10
277.040822
20
177.029814
11
270.586987
21
164.207613
0
LINE
8
Layer 1
10
270.586987
20
164.207613
11
263.723139
21
149.974455
0
LINE
8
Layer 1
10
263.723139
20
149.974455
11
259.318610
21
140.159500
0
LINE
8
Layer 1
10
259.318610
20
140.159500
11
257.594715
21
135.074688
0
LINE
8
Layer 1
10
257.594715
20
135.074688
11
256.395410
21
130.127070
0
LINE
8
Layer 1
10
256.395410
20
130.127070
11
255.814952
21
125.807442
0
LINE
8
Layer 1
10
255.814952
20
125.807442
11
255.786247
21
124.036498
0
LINE
8
Layer 1
10
255.786247
20
124.036498
11
255.947600
21
122.606600
0
LINE
8
Layer 1
10
255.947600
20
122.606600
11
256.303800
21
121.364350
0
LINE
8
Layer 1
10
256.303800
20
121.364350
11
256.843081
21
120.642129
0
LINE
8
Layer 1
10
256.843081
20
120.642129
11
257.746257
21
120.307453
0
LINE
8
Layer 1
10
257.746257
20
120.307453
11
259.194140
21
120.227840
0
LINE
8
Layer 1
10
259.194140
20
120.227840
11
260.421033
21
120.357138
0
LINE
8
Layer 1
10
260.421033
20
120.357138
11
261.732015
21
120.703931
0
LINE
8
Layer 1
10
261.732015
20
120.703931
11
262.970104
21
121.215569
0
LINE
8
Layer 1
10
262.970104
20
121.215569
11
263.978320
21
121.839400
0
LINE
8
Layer 1
10
263.978320
20
121.839400
11
263.978300
21
121.839300
0
LINE
8
Layer 1
10
352.877500
20
124.745190
11
353.292522
21
125.926066
0
LINE
8
Layer 1
10
353.292522
20
125.926066
11
353.541616
21
127.250862
0
LINE
8
Layer 1
10
353.541616
20
127.250862
11
353.623220
21
128.723835
0
LINE
8
Layer 1
10
353.623220
20
128.723835
11
353.535770
21
130.349242
0
LINE
8
Layer 1
10
353.535770
20
130.349242
11
352.847462
21
134.074389
0
LINE
8
Layer 1
10
352.847462
20
134.074389
11
351.464191
21
138.460361
0
LINE
8
Layer 1
10
351.464191
20
138.460361
11
349.373459
21
143.541219
0
LINE
8
Layer 1
10
349.373459
20
143.541219
11
346.562767
21
149.351020
0
LINE
8
Layer 1
10
346.562767
20
149.351020
11
343.019613
21
155.923824
0
LINE
8
Layer 1
10
343.019613
20
155.923824
11
338.731500
21
163.293690
0
LINE
8
Layer 1
10
338.731500
20
163.293690
11
332.286025
21
174.207206
0
LINE
8
Layer 1
10
332.286025
20
174.207206
11
328.261400
21
181.313490
0
LINE
8
Layer 1
10
328.261400
20
181.313490
11
327.059862
21
183.522147
0
LINE
8
Layer 1
10
327.059862
20
183.522147
11
326.327916
21
184.572423
0
LINE
8
Layer 1
10
326.327916
20
184.572423
11
326.095173
21
184.703788
0
LINE
8
Layer 1
10
326.095173
20
184.703788
11
325.928388
21
184.594302
0
LINE
8
Layer 1
10
325.928388
20
184.594302
11
325.724100
21
183.717770
0
LINE
8
Layer 1
10
325.724100
20
183.717770
11
325.730107
21
181.741806
0
LINE
8
Layer 1
10
325.730107
20
181.741806
11
326.034375
21
178.696780
0
LINE
8
Layer 1
10
326.034375
20
178.696780
11
327.332444
21
170.517268
0
LINE
8
Layer 1
10
327.332444
20
170.517268
11
329.207816
21
161.414682
0
LINE
8
Layer 1
10
329.207816
20
161.414682
11
330.233712
21
157.215813
0
LINE
8
Layer 1
10
330.233712
20
157.215813
11
331.250000
21
153.624470
0
LINE
8
Layer 1
10
331.250000
20
153.624470
11
334.227616
21
144.927067
0
LINE
8
Layer 1
10
334.227616
20
144.927067
11
337.422914
21
137.093870
0
LINE
8
Layer 1
10
337.422914
20
137.093870
11
339.019017
21
133.687659
0
LINE
8
Layer 1
10
339.019017
20
133.687659
11
340.569729
21
130.721073
0
LINE
8
Layer 1
10
340.569729
20
130.721073
11
342.041780
21
128.268635
0
LINE
8
Layer 1
10
342.041780
20
128.268635
11
343.401900
21
126.404870
0
LINE
8
Layer 1
10
343.401900
20
126.404870
11
345.009800
21
124.621932
0
LINE
8
Layer 1
10
345.009800
20
124.621932
11
346.343991
21
123.539576
0
LINE
8
Layer 1
10
346.343991
20
123.539576
11
347.657011
21
123.003395
0
LINE
8
Layer 1
10
347.657011
20
123.003395
11
349.201400
21
122.858980
0
LINE
8
Layer 1
10
349.201400
20
122.858980
11
350.589546
21
122.953007
0
LINE
8
Layer 1
10
350.589546
20
122.953007
11
351.602942
21
123.266903
0
LINE
8
Layer 1
10
351.602942
20
123.266903
11
352.334598
21
123.848387
0
LINE
8
Layer 1
10
352.334598
20
123.848387
11
352.877520
21
124.745180
0
LINE
8
Layer 1
10
352.877520
20
124.745180
11
352.877500
21
124.745190
0
LINE
8
Layer 1
10
249.119500
20
130.131580
11
250.363015
21
131.261751
0
LINE
8
Layer 1
10
250.363015
20
131.261751
11
251.641757
21
132.703448
0
LINE
8
Layer 1
10
251.641757
20
132.703448
11
253.001185
21
134.530525
0
LINE
8
Layer 1
10
253.001185
20
134.530525
11
254.486759
21
136.816835
0
LINE
8
Layer 1
10
254.486759
20
136.816835
11
258.018181
21
143.062569
0
LINE
8
Layer 1
10
258.018181
20
143.062569
11
262.599700
21
152.031480
0
LINE
8
Layer 1
10
262.599700
20
152.031480
11
275.598500
21
177.797380
0
LINE
8
Layer 1
10
275.598500
20
177.797380
11
280.924845
21
188.459232
0
LINE
8
Layer 1
10
280.924845
20
188.459232
11
284.794881
21
196.827517
0
LINE
8
Layer 1
10
284.794881
20
196.827517
11
287.543152
21
203.671185
0
LINE
8
Layer 1
10
287.543152
20
203.671185
11
289.504200
21
209.759180
0
LINE
8
Layer 1
10
289.504200
20
209.759180
11
290.680770
21
215.044963
0
LINE
8
Layer 1
10
290.680770
20
215.044963
11
291.456971
21
220.532843
0
LINE
8
Layer 1
10
291.456971
20
220.532843
11
291.690265
21
224.839791
0
LINE
8
Layer 1
10
291.690265
20
224.839791
11
291.558777
21
226.118220
0
LINE
8
Layer 1
10
291.558777
20
226.118220
11
291.423205
21
226.463038
0
LINE
8
Layer 1
10
291.423205
20
226.463038
11
291.238110
21
226.582780
0
LINE
8
Layer 1
10
291.238110
20
226.582780
11
290.772808
21
226.272237
0
LINE
8
Layer 1
10
290.772808
20
226.272237
11
290.036316
21
225.426697
0
LINE
8
Layer 1
10
290.036316
20
225.426697
11
288.154490
21
222.647180
0
LINE
8
Layer 1
10
288.154490
20
222.647180
11
286.671139
21
220.410742
0
LINE
8
Layer 1
10
286.671139
20
220.410742
11
284.763829
21
217.924610
0
LINE
8
Layer 1
10
284.763829
20
217.924610
11
279.738314
21
212.267193
0
LINE
8
Layer 1
10
279.738314
20
212.267193
11
273.199911
21
205.802794
0
LINE
8
Layer 1
10
273.199911
20
205.802794
11
265.270590
21
198.659280
0
LINE
8
Layer 1
10
265.270590
20
198.659280
11
261.351600
21
195.150473
0
LINE
8
Layer 1
10
261.351600
20
195.150473
11
258.010649
21
191.949825
0
LINE
8
Layer 1
10
258.010649
20
191.949825
11
255.601818
21
189.410804
0
LINE
8
Layer 1
10
255.601818
20
189.410804
11
254.479190
21
187.886880
0
LINE
8
Layer 1
10
254.479190
20
187.886880
11
253.199725
21
183.827864
0
LINE
8
Layer 1
10
253.199725
20
183.827864
11
251.354130
21
177.127880
0
LINE
8
Layer 1
10
251.354130
20
177.127880
11
250.059590
21
172.739234
0
LINE
8
Layer 1
10
250.059590
20
172.739234
11
248.197213
21
167.133075
0
LINE
8
Layer 1
10
248.197213
20
167.133075
11
243.765010
21
155.152480
0
LINE
8
Layer 1
10
243.765010
20
155.152480
11
240.905426
21
147.821258
0
LINE
8
Layer 1
10
240.905426
20
147.821258
11
239.292471
21
143.068030
0
LINE
8
Layer 1
10
239.292471
20
143.068030
11
238.576615
21
139.669302
0
LINE
8
Layer 1
10
238.576615
20
139.669302
11
238.408330
21
136.401580
0
LINE
8
Layer 1
10
238.408330
20
136.401580
11
238.472579
21
134.081525
0
LINE
8
Layer 1
10
238.472579
20
134.081525
11
238.669960
21
132.101744
0
LINE
8
Layer 1
10
238.669960
20
132.101744
11
238.984926
21
130.568788
0
LINE
8
Layer 1
10
238.984926
20
130.568788
11
239.401930
21
129.589210
0
LINE
8
Layer 1
10
239.401930
20
129.589210
11
240.130403
21
128.884953
0
LINE
8
Layer 1
10
240.130403
20
128.884953
11
241.133668
21
128.408860
0
LINE
8
Layer 1
10
241.133668
20
128.408860
11
242.343791
21
128.157143
0
LINE
8
Layer 1
10
242.343791
20
128.157143
11
243.692835
21
128.126009
0
LINE
8
Layer 1
10
243.692835
20
128.126009
11
245.112867
21
128.311667
0
LINE
8
Layer 1
10
245.112867
20
128.311667
11
246.535952
21
128.710328
0
LINE
8
Layer 1
10
246.535952
20
128.710328
11
247.894154
21
129.318199
0
LINE
8
Layer 1
10
247.894154
20
129.318199
11
249.119540
21
130.131490
0
LINE
8
Layer 1
10
249.119540
20
130.131490
11
249.119500
21
130.131580
0
LINE
8
Layer 1
10
369.460000
20
134.754000
11
370.131557
21
136.427432
0
LINE
8
Layer 1
10
370.131557
20
136.427432
11
370.489850
21
138.401208
0
LINE
8
Layer 1
10
370.489850
20
138.401208
11
370.539768
21
140.643976
0
LINE
8
Layer 1
10
370.539768
20
140.643976
11
370.286199
21
143.124385
0
LINE
8
Layer 1
10
370.286199
20
143.124385
11
369.734032
21
145.811083
0
LINE
8
Layer 1
10
369.734032
20
145.811083
11
368.888155
21
148.672719
0
LINE
8
Layer 1
10
368.888155
20
148.672719
11
367.753459
21
151.677942
0
LINE
8
Layer 1
10
367.753459
20
151.677942
11
366.334830
21
154.795400
0
LINE
8
Layer 1
10
366.334830
20
154.795400
11
362.144517
21
163.613686
0
LINE
8
Layer 1
10
362.144517
20
163.613686
11
358.607312
21
171.734387
0
LINE
8
Layer 1
10
358.607312
20
171.734387
11
355.741242
21
179.113920
0
LINE
8
Layer 1
10
355.741242
20
179.113920
11
353.564330
21
185.708700
0
LINE
8
Layer 1
10
353.564330
20
185.708700
11
351.229350
21
193.619830
0
LINE
8
Layer 1
10
351.229350
20
193.619830
11
343.969670
21
198.720370
0
LINE
8
Layer 1
10
343.969670
20
198.720370
11
336.410312
21
204.304572
0
LINE
8
Layer 1
10
336.410312
20
204.304572
11
329.531232
21
209.949764
0
LINE
8
Layer 1
10
329.531232
20
209.949764
11
323.398497
21
215.598583
0
LINE
8
Layer 1
10
323.398497
20
215.598583
11
318.078170
21
221.193670
0
LINE
8
Layer 1
10
318.078170
20
221.193670
11
315.836864
21
223.664079
0
LINE
8
Layer 1
10
315.836864
20
223.664079
11
314.117938
21
225.364218
0
LINE
8
Layer 1
10
314.117938
20
225.364218
11
312.891141
21
226.277567
0
LINE
8
Layer 1
10
312.891141
20
226.277567
11
312.452837
21
226.434033
0
LINE
8
Layer 1
10
312.452837
20
226.434033
11
312.126221
21
226.387606
0
LINE
8
Layer 1
10
312.126221
20
226.387606
11
311.907512
21
226.136222
0
LINE
8
Layer 1
10
311.907512
20
226.136222
11
311.792929
21
225.677815
0
LINE
8
Layer 1
10
311.792929
20
225.677815
11
311.861014
21
224.131674
0
LINE
8
Layer 1
10
311.861014
20
224.131674
11
312.300224
21
221.732662
0
LINE
8
Layer 1
10
312.300224
20
221.732662
11
313.080310
21
218.464260
0
LINE
8
Layer 1
10
313.080310
20
218.464260
11
314.052857
21
214.926998
0
LINE
8
Layer 1
10
314.052857
20
214.926998
11
315.173473
21
211.429957
0
LINE
8
Layer 1
10
315.173473
20
211.429957
11
316.467554
21
207.915274
0
LINE
8
Layer 1
10
316.467554
20
207.915274
11
317.960496
21
204.325087
0
LINE
8
Layer 1
10
317.960496
20
204.325087
11
321.644551
21
196.686755
0
LINE
8
Layer 1
10
321.644551
20
196.686755
11
326.428810
21
188.052060
0
LINE
8
Layer 1
10
326.428810
20
188.052060
11
340.770510
21
162.854360
0
LINE
8
Layer 1
10
340.770510
20
162.854360
11
345.570643
21
154.392476
0
LINE
8
Layer 1
10
345.570643
20
154.392476
11
349.601041
21
147.596849
0
LINE
8
Layer 1
10
349.601041
20
147.596849
11
352.994493
21
142.301656
0
LINE
8
Layer 1
10
352.994493
20
142.301656
11
355.883785
21
138.341072
0
LINE
8
Layer 1
10
355.883785
20
138.341072
11
358.401705
21
135.549275
0
LINE
8
Layer 1
10
358.401705
20
135.549275
11
359.562897
21
134.539851
0
LINE
8
Layer 1
10
359.562897
20
134.539851
11
360.681041
21
133.760440
0
LINE
8
Layer 1
10
360.681041
20
133.760440
11
361.772736
21
133.190313
0
LINE
8
Layer 1
10
361.772736
20
133.190313
11
362.854580
21
132.808743
0
LINE
8
Layer 1
10
362.854580
20
132.808743
11
363.943172
21
132.595001
0
LINE
8
Layer 1
10
363.943172
20
132.595001
11
365.055110
21
132.528360
0
LINE
8
Layer 1
10
365.055110
20
132.528360
11
366.698236
21
132.621036
0
LINE
8
Layer 1
10
366.698236
20
132.621036
11
367.857575
21
132.960967
0
LINE
8
Layer 1
10
367.857575
20
132.960967
11
368.716906
21
133.641013
0
LINE
8
Layer 1
10
368.716906
20
133.641013
11
369.460010
21
134.754030
0
LINE
8
Layer 1
10
369.460010
20
134.754030
11
369.460000
21
134.754000
0
LINE
8
Layer 1
10
231.118000
20
136.847030
11
232.442192
21
137.669365
0
LINE
8
Layer 1
10
232.442192
20
137.669365
11
233.656099
21
138.672280
0
LINE
8
Layer 1
10
233.656099
20
138.672280
11
234.807886
21
139.930438
0
LINE
8
Layer 1
10
234.807886
20
139.930438
11
235.945717
21
141.518504
0
LINE
8
Layer 1
10
235.945717
20
141.518504
11
237.117760
21
143.511142
0
LINE
8
Layer 1
10
237.117760
20
143.511142
11
238.372177
21
145.983016
0
LINE
8
Layer 1
10
238.372177
20
145.983016
11
241.320800
21
152.663130
0
LINE
8
Layer 1
10
241.320800
20
152.663130
11
246.247756
21
165.077422
0
LINE
8
Layer 1
10
246.247756
20
165.077422
11
248.187033
21
170.475946
0
LINE
8
Layer 1
10
248.187033
20
170.475946
11
249.752061
21
175.255018
0
LINE
8
Layer 1
10
249.752061
20
175.255018
11
250.924257
21
179.354359
0
LINE
8
Layer 1
10
250.924257
20
179.354359
11
251.685035
21
182.713694
0
LINE
8
Layer 1
10
251.685035
20
182.713694
11
252.015811
21
185.272743
0
LINE
8
Layer 1
10
252.015811
20
185.272743
11
251.898000
21
186.971230
0
LINE
8
Layer 1
10
251.898000
20
186.971230
11
251.696923
21
187.138260
0
LINE
8
Layer 1
10
251.696923
20
187.138260
11
251.241689
21
187.116282
0
LINE
8
Layer 1
10
251.241689
20
187.116282
11
249.579610
21
186.510220
0
LINE
8
Layer 1
10
249.579610
20
186.510220
11
246.933471
21
185.162888
0
LINE
8
Layer 1
10
246.933471
20
185.162888
11
243.324980
21
183.084130
0
LINE
8
Layer 1
10
243.324980
20
183.084130
11
236.093036
21
178.449884
0
LINE
8
Layer 1
10
236.093036
20
178.449884
11
229.607419
21
173.665402
0
LINE
8
Layer 1
10
229.607419
20
173.665402
11
223.934373
21
168.804677
0
LINE
8
Layer 1
10
223.934373
20
168.804677
11
221.423265
21
166.368847
0
LINE
8
Layer 1
10
221.423265
20
166.368847
11
219.140142
21
163.941705
0
LINE
8
Layer 1
10
219.140142
20
163.941705
11
217.093285
21
161.532499
0
LINE
8
Layer 1
10
217.093285
20
161.532499
11
215.290973
21
159.150480
0
LINE
8
Layer 1
10
215.290973
20
159.150480
11
213.741488
21
156.804895
0
LINE
8
Layer 1
10
213.741488
20
156.804895
11
212.453110
21
154.504996
0
LINE
8
Layer 1
10
212.453110
20
154.504996
11
211.434119
21
152.260030
0
LINE
8
Layer 1
10
211.434119
20
152.260030
11
210.692797
21
150.079248
0
LINE
8
Layer 1
10
210.692797
20
150.079248
11
210.237424
21
147.971898
0
LINE
8
Layer 1
10
210.237424
20
147.971898
11
210.076280
21
145.947230
0
LINE
8
Layer 1
10
210.076280
20
145.947230
11
210.210804
21
144.422920
0
LINE
8
Layer 1
10
210.210804
20
144.422920
11
210.615943
21
142.977057
0
LINE
8
Layer 1
10
210.615943
20
142.977057
11
211.267437
21
141.620134
0
LINE
8
Layer 1
10
211.267437
20
141.620134
11
212.141030
21
140.362642
0
LINE
8
Layer 1
10
212.141030
20
140.362642
11
213.212464
21
139.215071
0
LINE
8
Layer 1
10
213.212464
20
139.215071
11
214.457480
21
138.187913
0
LINE
8
Layer 1
10
214.457480
20
138.187913
11
215.851821
21
137.291658
0
LINE
8
Layer 1
10
215.851821
20
137.291658
11
217.371230
21
136.536799
0
LINE
8
Layer 1
10
217.371230
20
136.536799
11
218.991448
21
135.933825
0
LINE
8
Layer 1
10
218.991448
20
135.933825
11
220.688217
21
135.493230
0
LINE
8
Layer 1
10
220.688217
20
135.493230
11
222.437281
21
135.225502
0
LINE
8
Layer 1
10
222.437281
20
135.225502
11
224.214380
21
135.141134
0
LINE
8
Layer 1
10
224.214380
20
135.141134
11
225.995257
21
135.250617
0
LINE
8
Layer 1
10
225.995257
20
135.250617
11
227.755655
21
135.564441
0
LINE
8
Layer 1
10
227.755655
20
135.564441
11
229.471315
21
136.093098
0
LINE
8
Layer 1
10
229.471315
20
136.093098
11
231.117980
21
136.847080
0
LINE
8
Layer 1
10
231.117980
20
136.847080
11
231.118000
21
136.847030
0
LINE
8
Layer 1
10
390.189000
20
142.683630
11
392.283931
21
143.909323
0
LINE
8
Layer 1
10
392.283931
20
143.909323
11
394.021268
21
145.307538
0
LINE
8
Layer 1
10
394.021268
20
145.307538
11
395.404071
21
146.865130
0
LINE
8
Layer 1
10
395.404071
20
146.865130
11
396.435405
21
148.568955
0
LINE
8
Layer 1
10
396.435405
20
148.568955
11
397.118330
21
150.405867
0
LINE
8
Layer 1
10
397.118330
20
150.405867
11
397.455911
21
152.362722
0
LINE
8
Layer 1
10
397.455911
20
152.362722
11
397.451210
21
154.426375
0
LINE
8
Layer 1
10
397.451210
20
154.426375
11
397.107289
21
156.583680
0
LINE
8
Layer 1
10
397.107289
20
156.583680
11
396.427210
21
158.821493
0
LINE
8
Layer 1
10
396.427210
20
158.821493
11
395.414038
21
161.126669
0
LINE
8
Layer 1
10
395.414038
20
161.126669
11
394.070833
21
163.486063
0
LINE
8
Layer 1
10
394.070833
20
163.486063
11
392.400659
21
165.886530
0
LINE
8
Layer 1
10
392.400659
20
165.886530
11
390.406578
21
168.314925
0
LINE
8
Layer 1
10
390.406578
20
168.314925
11
388.091652
21
170.758103
0
LINE
8
Layer 1
10
388.091652
20
170.758103
11
385.458946
21
173.202920
0
LINE
8
Layer 1
10
385.458946
20
173.202920
11
382.511520
21
175.636230
0
LINE
8
Layer 1
10
382.511520
20
175.636230
11
378.692092
21
178.426583
0
LINE
8
Layer 1
10
378.692092
20
178.426583
11
374.369642
21
181.274144
0
LINE
8
Layer 1
10
374.369642
20
181.274144
11
369.835999
21
184.022507
0
LINE
8
Layer 1
10
369.835999
20
184.022507
11
365.382992
21
186.515270
0
LINE
8
Layer 1
10
365.382992
20
186.515270
11
361.302452
21
188.596028
0
LINE
8
Layer 1
10
361.302452
20
188.596028
11
357.886207
21
190.108376
0
LINE
8
Layer 1
10
357.886207
20
190.108376
11
355.426086
21
190.895912
0
LINE
8
Layer 1
10
355.426086
20
190.895912
11
354.645769
21
190.968998
0
LINE
8
Layer 1
10
354.645769
20
190.968998
11
354.213920
21
190.802230
0
LINE
8
Layer 1
10
354.213920
20
190.802230
11
354.082033
21
190.061051
0
LINE
8
Layer 1
10
354.082033
20
190.061051
11
354.263319
21
188.621918
0
LINE
8
Layer 1
10
354.263319
20
188.621918
11
355.438328
21
184.069422
0
LINE
8
Layer 1
10
355.438328
20
184.069422
11
357.484787
21
177.984005
0
LINE
8
Layer 1
10
357.484787
20
177.984005
11
360.148540
21
171.204930
0
LINE
8
Layer 1
10
360.148540
20
171.204930
11
362.715701
21
165.299516
0
LINE
8
Layer 1
10
362.715701
20
165.299516
11
365.138965
21
160.101905
0
LINE
8
Layer 1
10
365.138965
20
160.101905
11
367.429026
21
155.594332
0
LINE
8
Layer 1
10
367.429026
20
155.594332
11
369.596576
21
151.759030
0
LINE
8
Layer 1
10
369.596576
20
151.759030
11
371.652310
21
148.578235
0
LINE
8
Layer 1
10
371.652310
20
148.578235
11
373.606919
21
146.034180
0
LINE
8
Layer 1
10
373.606919
20
146.034180
11
375.471098
21
144.109100
0
LINE
8
Layer 1
10
375.471098
20
144.109100
11
377.255540
21
142.785230
0
LINE
8
Layer 1
10
377.255540
20
142.785230
11
378.551993
21
142.187055
0
LINE
8
Layer 1
10
378.551993
20
142.187055
11
380.080691
21
141.755048
0
LINE
8
Layer 1
10
380.080691
20
141.755048
11
381.771258
21
141.489763
0
LINE
8
Layer 1
10
381.771258
20
141.489763
11
383.553317
21
141.391752
0
LINE
8
Layer 1
10
383.553317
20
141.391752
11
385.356492
21
141.461571
0
LINE
8
Layer 1
10
385.356492
20
141.461571
11
387.110405
21
141.699771
0
LINE
8
Layer 1
10
387.110405
20
141.699771
11
388.744680
21
142.106906
0
LINE
8
Layer 1
10
388.744680
20
142.106906
11
390.188940
21
142.683530
0
LINE
8
Layer 1
10
390.188940
20
142.683530
11
390.189000
21
142.683630
0
LINE
8
Layer 1
10
205.141000
20
151.954450
11
206.316721
21
153.003195
0
LINE
8
Layer 1
10
206.316721
20
153.003195
11
208.329737
21
155.144000
0
LINE
8
Layer 1
10
208.329737
20
155.144000
11
213.739150
21
161.454870
0
LINE
8
Layer 1
10
213.739150
20
161.454870
11
217.401025
21
165.737138
0
LINE
8
Layer 1
10
217.401025
20
165.737138
11
220.774882
21
169.237938
0
LINE
8
Layer 1
10
220.774882
20
169.237938
11
224.177274
21
172.262078
0
LINE
8
Layer 1
10
224.177274
20
172.262078
11
227.924750
21
175.114370
0
LINE
8
Layer 1
10
227.924750
20
175.114370
11
232.911860
21
178.847097
0
LINE
8
Layer 1
10
232.911860
20
178.847097
11
234.355630
21
180.070192
0
LINE
8
Layer 1
10
234.355630
20
180.070192
11
234.798800
21
180.623420
0
LINE
8
Layer 1
10
234.798800
20
180.623420
11
233.783045
21
180.805654
0
LINE
8
Layer 1
10
233.783045
20
180.805654
11
231.539139
21
180.694026
0
LINE
8
Layer 1
10
231.539139
20
180.694026
11
224.702254
21
179.801840
0
LINE
8
Layer 1
10
224.702254
20
179.801840
11
216.958917
21
178.372174
0
LINE
8
Layer 1
10
216.958917
20
178.372174
11
213.581945
21
177.588696
0
LINE
8
Layer 1
10
213.581945
20
177.588696
11
210.979900
21
176.830340
0
LINE
8
Layer 1
10
210.979900
20
176.830340
11
207.509945
21
175.544623
0
LINE
8
Layer 1
10
207.509945
20
175.544623
11
204.543283
21
174.251806
0
LINE
8
Layer 1
10
204.543283
20
174.251806
11
202.036492
21
172.918579
0
LINE
8
Layer 1
10
202.036492
20
172.918579
11
199.946149
21
171.511631
0
LINE
8
Layer 1
10
199.946149
20
171.511631
11
198.228831
21
169.997654
0
LINE
8
Layer 1
10
198.228831
20
169.997654
11
196.841115
21
168.343336
0
LINE
8
Layer 1
10
196.841115
20
168.343336
11
195.739579
21
166.515368
0
LINE
8
Layer 1
10
195.739579
20
166.515368
11
194.880800
21
164.480440
0
LINE
8
Layer 1
10
194.880800
20
164.480440
11
194.471443
21
162.993823
0
LINE
8
Layer 1
10
194.471443
20
162.993823
11
194.272080
21
161.515688
0
LINE
8
Layer 1
10
194.272080
20
161.515688
11
194.267729
21
160.064324
0
LINE
8
Layer 1
10
194.267729
20
160.064324
11
194.443410
21
158.658021
0
LINE
8
Layer 1
10
194.443410
20
158.658021
11
194.784142
21
157.315068
0
LINE
8
Layer 1
10
194.784142
20
157.315068
11
195.274943
21
156.053755
0
LINE
8
Layer 1
10
195.274943
20
156.053755
11
195.900833
21
154.892370
0
LINE
8
Layer 1
10
195.900833
20
154.892370
11
196.646831
21
153.849204
0
LINE
8
Layer 1
10
196.646831
20
153.849204
11
197.497957
21
152.942545
0
LINE
8
Layer 1
10
197.497957
20
152.942545
11
198.439228
21
152.190682
0
LINE
8
Layer 1
10
198.439228
20
152.190682
11
199.455665
21
151.611906
0
LINE
8
Layer 1
10
199.455665
20
151.611906
11
200.532287
21
151.224505
0
LINE
8
Layer 1
10
200.532287
20
151.224505
11
201.654112
21
151.046768
0
LINE
8
Layer 1
10
201.654112
20
151.046768
11
202.806160
21
151.096986
0
LINE
8
Layer 1
10
202.806160
20
151.096986
11
203.973449
21
151.393447
0
LINE
8
Layer 1
10
203.973449
20
151.393447
11
205.141000
21
151.954440
0
LINE
8
Layer 1
10
205.141000
20
151.954440
11
205.141000
21
151.954450
0
LINE
8
Layer 1
10
409.322000
20
160.270660
11
410.803035
21
161.985685
0
LINE
8
Layer 1
10
410.803035
20
161.985685
11
412.061290
21
164.182570
0
LINE
8
Layer 1
10
412.061290
20
164.182570
11
412.614796
21
165.662269
0
LINE
8
Layer 1
10
412.614796
20
165.662269
11
412.975538
21
167.100883
0
LINE
8
Layer 1
10
412.975538
20
167.100883
11
413.142717
21
168.499457
0
LINE
8
Layer 1
10
413.142717
20
168.499457
11
413.115538
21
169.859036
0
LINE
8
Layer 1
10
413.115538
20
169.859036
11
412.893205
21
171.180667
0
LINE
8
Layer 1
10
412.893205
20
171.180667
11
412.474921
21
172.465396
0
LINE
8
Layer 1
10
412.474921
20
172.465396
11
411.859890
21
173.714267
0
LINE
8
Layer 1
10
411.859890
20
173.714267
11
411.047315
21
174.928326
0
LINE
8
Layer 1
10
411.047315
20
174.928326
11
410.036400
21
176.108620
0
LINE
8
Layer 1
10
410.036400
20
176.108620
11
408.826350
21
177.256194
0
LINE
8
Layer 1
10
408.826350
20
177.256194
11
405.805654
21
179.457363
0
LINE
8
Layer 1
10
405.805654
20
179.457363
11
401.978858
21
181.540200
0
LINE
8
Layer 1
10
401.978858
20
181.540200
11
397.339590
21
183.513070
0
LINE
8
Layer 1
10
397.339590
20
183.513070
11
394.400094
21
184.462317
0
LINE
8
Layer 1
10
394.400094
20
184.462317
11
391.142859
21
185.141575
0
LINE
8
Layer 1
10
391.142859
20
185.141575
11
387.212640
21
185.607443
0
LINE
8
Layer 1
10
387.212640
20
185.607443
11
382.254190
21
185.916520
0
LINE
8
Layer 1
10
382.254190
20
185.916520
11
375.346169
21
186.098233
0
LINE
8
Layer 1
10
375.346169
20
186.098233
11
373.328838
21
186.051230
0
LINE
8
Layer 1
10
373.328838
20
186.051230
11
372.687820
21
185.912520
0
LINE
8
Layer 1
10
372.687820
20
185.912520
11
380.782440
21
179.281350
0
LINE
8
Layer 1
10
380.782440
20
179.281350
11
387.536385
21
173.589038
0
LINE
8
Layer 1
10
387.536385
20
173.589038
11
392.924340
21
168.586650
0
LINE
8
Layer 1
10
392.924340
20
168.586650
11
396.127168
21
165.408165
0
LINE
8
Layer 1
10
396.127168
20
165.408165
11
398.874111
21
162.904940
0
LINE
8
Layer 1
10
398.874111
20
162.904940
11
401.228379
21
161.044917
0
LINE
8
Layer 1
10
401.228379
20
161.044917
11
403.253181
21
159.796041
0
LINE
8
Layer 1
10
403.253181
20
159.796041
11
405.011728
21
159.126256
0
LINE
8
Layer 1
10
405.011728
20
159.126256
11
406.567230
21
159.003505
0
LINE
8
Layer 1
10
406.567230
20
159.003505
11
407.982898
21
159.395732
0
LINE
8
Layer 1
10
407.982898
20
159.395732
11
409.321940
21
160.270880
0
LINE
8
Layer 1
10
409.321940
20
160.270880
11
409.322000
21
160.270660
0
LINE
8
Layer 1
10
287.304000
20
173.842000
11
292.181415
21
186.883863
0
LINE
8
Layer 1
10
292.181415
20
186.883863
11
293.888930
21
192.039824
0
LINE
8
Layer 1
10
293.888930
20
192.039824
11
295.175354
21
196.543525
0
LINE
8
Layer 1
10
295.175354
20
196.543525
11
296.090466
21
200.588254
0
LINE
8
Layer 1
10
296.090466
20
200.588254
11
296.684043
21
204.367300
0
LINE
8
Layer 1
10
296.684043
20
204.367300
11
297.005865
21
208.073952
0
LINE
8
Layer 1
10
297.005865
20
208.073952
11
297.105710
21
211.901500
0
LINE
8
Layer 1
10
297.105710
20
211.901500
11
296.936507
21
217.833952
0
LINE
8
Layer 1
10
296.936507
20
217.833952
11
296.726673
21
219.803263
0
LINE
8
Layer 1
10
296.726673
20
219.803263
11
296.441486
21
221.084358
0
LINE
8
Layer 1
10
296.441486
20
221.084358
11
296.087046
21
221.659533
0
LINE
8
Layer 1
10
296.087046
20
221.659533
11
295.885763
21
221.676868
0
LINE
8
Layer 1
10
295.885763
20
221.676868
11
295.669455
21
221.511084
0
LINE
8
Layer 1
10
295.669455
20
221.511084
11
295.194812
21
220.621308
0
LINE
8
Layer 1
10
295.194812
20
220.621308
11
294.669220
21
218.972500
0
LINE
8
Layer 1
10
294.669220
20
218.972500
11
292.843983
21
213.488804
0
LINE
8
Layer 1
10
292.843983
20
213.488804
11
289.735630
21
205.047100
0
LINE
8
Layer 1
10
289.735630
20
205.047100
11
287.224754
21
198.193952
0
LINE
8
Layer 1
10
287.224754
20
198.193952
11
285.138614
21
191.905603
0
LINE
8
Layer 1
10
285.138614
20
191.905603
11
283.468309
21
186.139671
0
LINE
8
Layer 1
10
283.468309
20
186.139671
11
282.204936
21
180.853775
0
LINE
8
Layer 1
10
282.204936
20
180.853775
11
281.339592
21
176.005532
0
LINE
8
Layer 1
10
281.339592
20
176.005532
11
280.863375
21
171.552559
0
LINE
8
Layer 1
10
280.863375
20
171.552559
11
280.767382
21
167.452476
0
LINE
8
Layer 1
10
280.767382
20
167.452476
11
281.042710
21
163.662900
0
LINE
8
Layer 1
10
281.042710
20
163.662900
11
281.465376
21
160.893466
0
LINE
8
Layer 1
10
281.465376
20
160.893466
11
281.643695
21
160.119652
0
LINE
8
Layer 1
10
281.643695
20
160.119652
11
281.768260
21
159.916990
0
LINE
8
Layer 1
10
281.768260
20
159.916990
11
287.304000
21
173.841990
0
LINE
8
Layer 1
10
287.304000
20
173.841990
11
287.304000
21
173.842000
0
LINE
8
Layer 1
10
326.350000
20
169.220720
11
325.795195
21
174.068150
0
LINE
8
Layer 1
10
325.795195
20
174.068150
11
325.042062
21
178.624147
0
LINE
8
Layer 1
10
325.042062
20
178.624147
11
324.014148
21
183.122961
0
LINE
8
Layer 1
10
324.014148
20
183.122961
11
322.635000
21
187.798840
0
LINE
8
Layer 1
10
322.635000
20
187.798840
11
320.828164
21
192.886034
0
LINE
8
Layer 1
10
320.828164
20
192.886034
11
318.517187
21
198.618792
0
LINE
8
Layer 1
10
318.517187
20
198.618792
11
315.625617
21
205.231365
0
LINE
8
Layer 1
10
315.625617
20
205.231365
11
312.077000
21
212.958000
0
LINE
8
Layer 1
10
312.077000
20
212.958000
11
307.563980
21
222.627170
0
LINE
8
Layer 1
10
307.563980
20
222.627170
11
307.343290
21
217.059370
0
LINE
8
Layer 1
10
307.343290
20
217.059370
11
307.399560
21
212.762010
0
LINE
8
Layer 1
10
307.399560
20
212.762010
11
307.912050
21
208.160037
0
LINE
8
Layer 1
10
307.912050
20
208.160037
11
308.900809
21
203.188396
0
LINE
8
Layer 1
10
308.900809
20
203.188396
11
310.385889
21
197.782033
0
LINE
8
Layer 1
10
310.385889
20
197.782033
11
312.387337
21
191.875892
0
LINE
8
Layer 1
10
312.387337
20
191.875892
11
314.925204
21
185.404922
0
LINE
8
Layer 1
10
314.925204
20
185.404922
11
318.019538
21
178.304066
0
LINE
8
Layer 1
10
318.019538
20
178.304066
11
321.690390
21
170.508270
0
LINE
8
Layer 1
10
321.690390
20
170.508270
11
325.182179
21
163.601566
0
LINE
8
Layer 1
10
325.182179
20
163.601566
11
326.311928
21
161.581197
0
LINE
8
Layer 1
10
326.311928
20
161.581197
11
326.807060
21
160.934980
0
LINE
8
Layer 1
10
326.807060
20
160.934980
11
326.794723
21
163.514428
0
LINE
8
Layer 1
10
326.794723
20
163.514428
11
326.350190
21
169.220550
0
LINE
8
Layer 1
10
326.350190
20
169.220550
11
326.350000
21
169.220720
0
LINE
8
Layer 1
10
203.438000
20
174.906420
11
205.605039
21
175.765075
0
LINE
8
Layer 1
10
205.605039
20
175.765075
11
207.736556
21
176.796663
0
LINE
8
Layer 1
10
207.736556
20
176.796663
11
209.821776
21
177.988959
0
LINE
8
Layer 1
10
209.821776
20
177.988959
11
211.849920
21
179.329741
0
LINE
8
Layer 1
10
211.849920
20
179.329741
11
215.691871
21
182.407870
0
LINE
8
Layer 1
10
215.691871
20
182.407870
11
219.176187
21
185.933261
0
LINE
8
Layer 1
10
219.176187
20
185.933261
11
222.216649
21
189.808129
0
LINE
8
Layer 1
10
222.216649
20
189.808129
11
224.727036
21
193.934685
0
LINE
8
Layer 1
10
224.727036
20
193.934685
11
225.756507
21
196.061789
0
LINE
8
Layer 1
10
225.756507
20
196.061789
11
226.621126
21
198.215145
0
LINE
8
Layer 1
10
226.621126
20
198.215145
11
227.310117
21
200.382530
0
LINE
8
Layer 1
10
227.310117
20
200.382530
11
227.812700
21
202.551720
0
LINE
8
Layer 1
10
227.812700
20
202.551720
11
228.290846
21
206.021847
0
LINE
8
Layer 1
10
228.290846
20
206.021847
11
228.258292
21
207.164484
0
LINE
8
Layer 1
10
228.258292
20
207.164484
11
228.023634
21
207.950192
0
LINE
8
Layer 1
10
228.023634
20
207.950192
11
227.571105
21
208.407488
0
LINE
8
Layer 1
10
227.571105
20
208.407488
11
226.884942
21
208.564887
0
LINE
8
Layer 1
10
226.884942
20
208.564887
11
225.949379
21
208.450906
0
LINE
8
Layer 1
10
225.949379
20
208.450906
11
224.748650
21
208.094060
0
LINE
8
Layer 1
10
224.748650
20
208.094060
11
220.032415
21
206.949965
0
LINE
8
Layer 1
10
220.032415
20
206.949965
11
212.268450
21
205.451270
0
LINE
8
Layer 1
10
212.268450
20
205.451270
11
204.318722
21
203.859819
0
LINE
8
Layer 1
10
204.318722
20
203.859819
11
201.322379
21
203.058054
0
LINE
8
Layer 1
10
201.322379
20
203.058054
11
198.835650
21
202.195120
0
LINE
8
Layer 1
10
198.835650
20
202.195120
11
196.751483
21
201.228161
0
LINE
8
Layer 1
10
196.751483
20
201.228161
11
194.962828
21
200.114321
0
LINE
8
Layer 1
10
194.962828
20
200.114321
11
193.362634
21
198.810742
0
LINE
8
Layer 1
10
193.362634
20
198.810742
11
191.843850
21
197.274570
0
LINE
8
Layer 1
10
191.843850
20
197.274570
11
190.410605
21
195.583438
0
LINE
8
Layer 1
10
190.410605
20
195.583438
11
189.172955
21
193.880489
0
LINE
8
Layer 1
10
189.172955
20
193.880489
11
188.129514
21
192.162517
0
LINE
8
Layer 1
10
188.129514
20
192.162517
11
187.278896
21
190.426315
0
LINE
8
Layer 1
10
187.278896
20
190.426315
11
186.619717
21
188.668676
0
LINE
8
Layer 1
10
186.619717
20
188.668676
11
186.150589
21
186.886393
0
LINE
8
Layer 1
10
186.150589
20
186.886393
11
185.870129
21
185.076260
0
LINE
8
Layer 1
10
185.870129
20
185.076260
11
185.776950
21
183.235070
0
LINE
8
Layer 1
10
185.776950
20
183.235070
11
185.880772
21
181.595267
0
LINE
8
Layer 1
10
185.880772
20
181.595267
11
186.183272
21
180.059835
0
LINE
8
Layer 1
10
186.183272
20
180.059835
11
186.670999
21
178.650222
0
LINE
8
Layer 1
10
186.670999
20
178.650222
11
187.330501
21
177.387879
0
LINE
8
Layer 1
10
187.330501
20
177.387879
11
188.148329
21
176.294255
0
LINE
8
Layer 1
10
188.148329
20
176.294255
11
189.111032
21
175.390801
0
LINE
8
Layer 1
10
189.111032
20
175.390801
11
190.205159
21
174.698966
0
LINE
8
Layer 1
10
190.205159
20
174.698966
11
191.417260
21
174.240200
0
LINE
8
Layer 1
10
191.417260
20
174.240200
11
194.239510
21
173.408830
0
LINE
8
Layer 1
10
194.239510
20
173.408830
11
195.696697
21
173.324534
0
LINE
8
Layer 1
10
195.696697
20
173.324534
11
198.101654
21
173.608910
0
LINE
8
Layer 1
10
198.101654
20
173.608910
11
200.875144
21
174.167651
0
LINE
8
Layer 1
10
200.875144
20
174.167651
11
203.437930
21
174.906450
0
LINE
8
Layer 1
10
203.437930
20
174.906450
11
203.438000
21
174.906420
0
LINE
8
Layer 1
10
233.928000
20
184.034160
11
238.210587
21
185.562648
0
LINE
8
Layer 1
10
238.210587
20
185.562648
11
242.861166
21
187.779830
0
LINE
8
Layer 1
10
242.861166
20
187.779830
11
248.116487
21
190.811152
0
LINE
8
Layer 1
10
248.116487
20
190.811152
11
254.213300
21
194.782060
0
LINE
8
Layer 1
10
254.213300
20
194.782060
11
260.040090
21
198.877328
0
LINE
8
Layer 1
10
260.040090
20
198.877328
11
265.305912
21
202.859994
0
LINE
8
Layer 1
10
265.305912
20
202.859994
11
269.994273
21
206.714256
0
LINE
8
Layer 1
10
269.994273
20
206.714256
11
274.088675
21
210.424310
0
LINE
8
Layer 1
10
274.088675
20
210.424310
11
277.572624
21
213.974351
0
LINE
8
Layer 1
10
277.572624
20
213.974351
11
280.429625
21
217.348576
0
LINE
8
Layer 1
10
280.429625
20
217.348576
11
282.643182
21
220.531180
0
LINE
8
Layer 1
10
282.643182
20
220.531180
11
284.196800
21
223.506360
0
LINE
8
Layer 1
10
284.196800
20
223.506360
11
285.538981
21
227.096156
0
LINE
8
Layer 1
10
285.538981
20
227.096156
11
286.442374
21
230.367813
0
LINE
8
Layer 1
10
286.442374
20
230.367813
11
286.805165
21
232.858018
0
LINE
8
Layer 1
10
286.805165
20
232.858018
11
286.752018
21
233.665292
0
LINE
8
Layer 1
10
286.752018
20
233.665292
11
286.525540
21
234.103460
0
LINE
8
Layer 1
10
286.525540
20
234.103460
11
285.581881
21
233.969977
0
LINE
8
Layer 1
10
285.581881
20
233.969977
11
283.515421
21
233.235250
0
LINE
8
Layer 1
10
283.515421
20
233.235250
11
277.233660
21
230.442570
0
LINE
8
Layer 1
10
277.233660
20
230.442570
11
270.307194
21
227.265725
0
LINE
8
Layer 1
10
270.307194
20
227.265725
11
267.694275
21
226.302659
0
LINE
8
Layer 1
10
267.694275
20
226.302659
11
265.387710
21
225.706584
0
LINE
8
Layer 1
10
265.387710
20
225.706584
11
263.192107
21
225.440061
0
LINE
8
Layer 1
10
263.192107
20
225.440061
11
260.912076
21
225.465656
0
LINE
8
Layer 1
10
260.912076
20
225.465656
11
258.352224
21
225.745931
0
LINE
8
Layer 1
10
258.352224
20
225.745931
11
255.317160
21
226.243450
0
LINE
8
Layer 1
10
255.317160
20
226.243450
11
250.191830
21
226.961358
0
LINE
8
Layer 1
10
250.191830
20
226.961358
11
247.997929
21
227.063701
0
LINE
8
Layer 1
10
247.997929
20
227.063701
11
246.015222
21
226.960454
0
LINE
8
Layer 1
10
246.015222
20
226.960454
11
244.217723
21
226.625731
0
LINE
8
Layer 1
10
244.217723
20
226.625731
11
242.579446
21
226.033644
0
LINE
8
Layer 1
10
242.579446
20
226.033644
11
241.074404
21
225.158306
0
LINE
8
Layer 1
10
241.074404
20
225.158306
11
239.676610
21
223.973831
0
LINE
8
Layer 1
10
239.676610
20
223.973831
11
238.360079
21
222.454332
0
LINE
8
Layer 1
10
238.360079
20
222.454332
11
237.098824
21
220.573921
0
LINE
8
Layer 1
10
237.098824
20
220.573921
11
235.866859
21
218.306712
0
LINE
8
Layer 1
10
235.866859
20
218.306712
11
234.638197
21
215.626818
0
LINE
8
Layer 1
10
234.638197
20
215.626818
11
232.086840
21
208.925426
0
LINE
8
Layer 1
10
232.086840
20
208.925426
11
229.236860
21
200.262650
0
LINE
8
Layer 1
10
229.236860
20
200.262650
11
226.078453
21
191.134589
0
LINE
8
Layer 1
10
226.078453
20
191.134589
11
224.694822
21
187.695608
0
LINE
8
Layer 1
10
224.694822
20
187.695608
11
223.684490
21
185.646150
0
LINE
8
Layer 1
10
223.684490
20
185.646150
11
222.378210
21
183.429826
0
LINE
8
Layer 1
10
222.378210
20
183.429826
11
221.834890
21
182.168860
0
LINE
8
Layer 1
10
221.834890
20
182.168860
11
222.129300
21
181.963437
0
LINE
8
Layer 1
10
222.129300
20
181.963437
11
222.952272
21
181.911210
0
LINE
8
Layer 1
10
222.952272
20
181.911210
11
225.822343
21
182.210576
0
LINE
8
Layer 1
10
225.822343
20
182.210576
11
229.721987
21
182.955422
0
LINE
8
Layer 1
10
229.721987
20
182.955422
11
233.928090
21
184.034210
0
LINE
8
Layer 1
10
233.928090
20
184.034210
11
233.928000
21
184.034160
0
LINE
8
Layer 1
10
418.399000
20
185.097860
11
419.390772
21
186.738750
0
LINE
8
Layer 1
10
419.390772
20
186.738750
11
420.044846
21
188.521929
0
LINE
8
Layer 1
10
420.044846
20
188.521929
11
420.378784
21
190.416535
0
LINE
8
Layer 1
10
420.378784
20
190.416535
11
420.410146
21
192.391705
0
LINE
8
Layer 1
10
420.410146
20
192.391705
11
420.156495
21
194.416578
0
LINE
8
Layer 1
10
420.156495
20
194.416578
11
419.635391
21
196.460291
0
LINE
8
Layer 1
10
419.635391
20
196.460291
11
418.864396
21
198.491982
0
LINE
8
Layer 1
10
418.864396
20
198.491982
11
417.861072
21
200.480789
0
LINE
8
Layer 1
10
417.861072
20
200.480789
11
416.642981
21
202.395850
0
LINE
8
Layer 1
10
416.642981
20
202.395850
11
415.227683
21
204.206302
0
LINE
8
Layer 1
10
415.227683
20
204.206302
11
413.632739
21
205.881284
0
LINE
8
Layer 1
10
413.632739
20
205.881284
11
411.875713
21
207.389933
0
LINE
8
Layer 1
10
411.875713
20
207.389933
11
409.974164
21
208.701388
0
LINE
8
Layer 1
10
409.974164
20
208.701388
11
407.945655
21
209.784785
0
LINE
8
Layer 1
10
407.945655
20
209.784785
11
405.807746
21
210.609263
0
LINE
8
Layer 1
10
405.807746
20
210.609263
11
403.578000
21
211.143960
0
LINE
8
Layer 1
10
403.578000
20
211.143960
11
398.225211
21
211.765970
0
LINE
8
Layer 1
10
398.225211
20
211.765970
11
389.981600
21
212.487970
0
LINE
8
Layer 1
10
389.981600
20
212.487970
11
382.221901
21
213.223684
0
LINE
8
Layer 1
10
382.221901
20
213.223684
11
378.032600
21
213.878660
0
LINE
8
Layer 1
10
378.032600
20
213.878660
11
377.102654
21
214.083678
0
LINE
8
Layer 1
10
377.102654
20
214.083678
11
376.441491
21
213.923816
0
LINE
8
Layer 1
10
376.441491
20
213.923816
11
376.049151
21
213.395155
0
LINE
8
Layer 1
10
376.049151
20
213.395155
11
375.925675
21
212.493776
0
LINE
8
Layer 1
10
375.925675
20
212.493776
11
376.071102
21
211.215761
0
LINE
8
Layer 1
10
376.071102
20
211.215761
11
376.485472
21
209.557190
0
LINE
8
Layer 1
10
376.485472
20
209.557190
11
378.121200
21
205.082710
0
LINE
8
Layer 1
10
378.121200
20
205.082710
11
379.289217
21
202.541784
0
LINE
8
Layer 1
10
379.289217
20
202.541784
11
380.642097
21
200.102364
0
LINE
8
Layer 1
10
380.642097
20
200.102364
11
382.165968
21
197.774112
0
LINE
8
Layer 1
10
382.165968
20
197.774112
11
383.846957
21
195.566694
0
LINE
8
Layer 1
10
383.846957
20
195.566694
11
385.671191
21
193.489776
0
LINE
8
Layer 1
10
385.671191
20
193.489776
11
387.624797
21
191.553021
0
LINE
8
Layer 1
10
387.624797
20
191.553021
11
389.693902
21
189.766094
0
LINE
8
Layer 1
10
389.693902
20
189.766094
11
391.864634
21
188.138660
0
LINE
8
Layer 1
10
391.864634
20
188.138660
11
394.123119
21
186.680384
0
LINE
8
Layer 1
10
394.123119
20
186.680384
11
396.455485
21
185.400931
0
LINE
8
Layer 1
10
396.455485
20
185.400931
11
398.847860
21
184.309965
0
LINE
8
Layer 1
10
398.847860
20
184.309965
11
401.286369
21
183.417151
0
LINE
8
Layer 1
10
401.286369
20
183.417151
11
403.757140
21
182.732153
0
LINE
8
Layer 1
10
403.757140
20
182.732153
11
406.246301
21
182.264638
0
LINE
8
Layer 1
10
406.246301
20
182.264638
11
408.739979
21
182.024268
0
LINE
8
Layer 1
10
408.739979
20
182.024268
11
411.224300
21
182.020710
0
LINE
8
Layer 1
10
411.224300
20
182.020710
11
414.032021
21
182.228193
0
LINE
8
Layer 1
10
414.032021
20
182.228193
11
415.823079
21
182.664117
0
LINE
8
Layer 1
10
415.823079
20
182.664117
11
416.497036
21
183.036229
0
LINE
8
Layer 1
10
416.497036
20
183.036229
11
417.108440
21
183.547630
0
LINE
8
Layer 1
10
417.108440
20
183.547630
11
418.399070
21
185.097880
0
LINE
8
Layer 1
10
418.399070
20
185.097880
11
418.399000
21
185.097860
0
LINE
8
Layer 1
10
384.021000
20
189.884030
11
381.122330
21
194.938370
0
LINE
8
Layer 1
10
381.122330
20
194.938370
11
379.827505
21
197.410599
0
LINE
8
Layer 1
10
379.827505
20
197.410599
11
378.054189
21
201.217835
0
LINE
8
Layer 1
10
378.054189
20
201.217835
11
374.006090
21
210.760670
0
LINE
8
Layer 1
10
374.006090
20
210.760670
11
371.346213
21
217.084539
0
LINE
8
Layer 1
10
371.346213
20
217.084539
11
368.904895
21
222.032251
0
LINE
8
Layer 1
10
368.904895
20
222.032251
11
367.717812
21
224.028536
0
LINE
8
Layer 1
10
367.717812
20
224.028536
11
366.527308
21
225.726967
0
LINE
8
Layer 1
10
366.527308
20
225.726967
11
365.314030
21
227.142938
0
LINE
8
Layer 1
10
365.314030
20
227.142938
11
364.058625
21
228.291845
0
LINE
8
Layer 1
10
364.058625
20
228.291845
11
362.741739
21
229.189082
0
LINE
8
Layer 1
10
362.741739
20
229.189082
11
361.344019
21
229.850045
0
LINE
8
Layer 1
10
361.344019
20
229.850045
11
359.846111
21
230.290128
0
LINE
8
Layer 1
10
359.846111
20
230.290128
11
358.228663
21
230.524726
0
LINE
8
Layer 1
10
358.228663
20
230.524726
11
356.472319
21
230.569235
0
LINE
8
Layer 1
10
356.472319
20
230.569235
11
354.557729
21
230.439048
0
LINE
8
Layer 1
10
354.557729
20
230.439048
11
350.176390
21
229.716170
0
LINE
8
Layer 1
10
350.176390
20
229.716170
11
346.781406
21
229.054751
0
LINE
8
Layer 1
10
346.781406
20
229.054751
11
343.885754
21
228.627164
0
LINE
8
Layer 1
10
343.885754
20
228.627164
11
341.323608
21
228.449209
0
LINE
8
Layer 1
10
341.323608
20
228.449209
11
338.929139
21
228.536691
0
LINE
8
Layer 1
10
338.929139
20
228.536691
11
336.536520
21
228.905412
0
LINE
8
Layer 1
10
336.536520
20
228.905412
11
333.979924
21
229.571176
0
LINE
8
Layer 1
10
333.979924
20
229.571176
11
331.093523
21
230.549784
0
LINE
8
Layer 1
10
331.093523
20
230.549784
11
327.711490
21
231.857040
0
LINE
8
Layer 1
10
327.711490
20
231.857040
11
321.188850
21
234.340256
0
LINE
8
Layer 1
10
321.188850
20
234.340256
11
317.826980
21
235.373100
0
LINE
8
Layer 1
10
317.826980
20
235.373100
11
317.281007
21
235.298047
0
LINE
8
Layer 1
10
317.281007
20
235.298047
11
316.843777
21
235.079387
0
LINE
8
Layer 1
10
316.843777
20
235.079387
11
316.513009
21
234.726863
0
LINE
8
Layer 1
10
316.513009
20
234.726863
11
316.286423
21
234.250222
0
LINE
8
Layer 1
10
316.286423
20
234.250222
11
316.136675
21
232.963569
0
LINE
8
Layer 1
10
316.136675
20
232.963569
11
316.376289
21
231.297391
0
LINE
8
Layer 1
10
316.376289
20
231.297391
11
316.987021
21
229.329652
0
LINE
8
Layer 1
10
316.987021
20
229.329652
11
317.950627
21
227.138315
0
LINE
8
Layer 1
10
317.950627
20
227.138315
11
319.248865
21
224.801343
0
LINE
8
Layer 1
10
319.248865
20
224.801343
11
320.863490
21
222.396700
0
LINE
8
Layer 1
10
320.863490
20
222.396700
11
322.466798
21
220.411564
0
LINE
8
Layer 1
10
322.466798
20
220.411564
11
324.452765
21
218.292473
0
LINE
8
Layer 1
10
324.452765
20
218.292473
11
329.402071
21
213.766452
0
LINE
8
Layer 1
10
329.402071
20
213.766452
11
335.370202
21
209.046689
0
LINE
8
Layer 1
10
335.370202
20
209.046689
11
342.015951
21
204.361238
0
LINE
8
Layer 1
10
342.015951
20
204.361238
11
348.998111
21
199.938150
0
LINE
8
Layer 1
10
348.998111
20
199.938150
11
355.975475
21
196.005480
0
LINE
8
Layer 1
10
355.975475
20
196.005480
11
362.606837
21
192.791279
0
LINE
8
Layer 1
10
362.606837
20
192.791279
11
365.686140
21
191.524871
0
LINE
8
Layer 1
10
365.686140
20
191.524871
11
368.550990
21
190.523600
0
LINE
8
Layer 1
10
368.550990
20
190.523600
11
371.031115
21
189.867618
0
LINE
8
Layer 1
10
371.031115
20
189.867618
11
373.702206
21
189.361870
0
LINE
8
Layer 1
10
373.702206
20
189.361870
11
376.390729
21
189.013531
0
LINE
8
Layer 1
10
376.390729
20
189.013531
11
378.923149
21
188.829774
0
LINE
8
Layer 1
10
378.923149
20
188.829774
11
381.125930
21
188.817774
0
LINE
8
Layer 1
10
381.125930
20
188.817774
11
382.825537
21
188.984705
0
LINE
8
Layer 1
10
382.825537
20
188.984705
11
383.848435
21
189.337743
0
LINE
8
Layer 1
10
383.848435
20
189.337743
11
384.051889
21
189.586293
0
LINE
8
Layer 1
10
384.051889
20
189.586293
11
384.021090
21
189.884060
0
LINE
8
Layer 1
10
384.021090
20
189.884060
11
384.021000
21
189.884030
0
LINE
8
Layer 1
10
218.959000
20
208.116000
11
222.484002
21
208.826884
0
LINE
8
Layer 1
10
222.484002
20
208.826884
11
225.379237
21
209.607700
0
LINE
8
Layer 1
10
225.379237
20
209.607700
11
227.745855
21
210.531633
0
LINE
8
Layer 1
10
227.745855
20
210.531633
11
229.685000
21
211.671866
0
LINE
8
Layer 1
10
229.685000
20
211.671866
11
231.297820
21
213.101585
0
LINE
8
Layer 1
10
231.297820
20
213.101585
11
232.685462
21
214.893975
0
LINE
8
Layer 1
10
232.685462
20
214.893975
11
233.949073
21
217.122218
0
LINE
8
Layer 1
10
233.949073
20
217.122218
11
235.189800
21
219.859500
0
LINE
8
Layer 1
10
235.189800
20
219.859500
11
237.095002
21
224.093215
0
LINE
8
Layer 1
10
237.095002
20
224.093215
11
238.497600
21
226.682810
0
LINE
8
Layer 1
10
238.497600
20
226.682810
11
238.961513
21
227.458036
0
LINE
8
Layer 1
10
238.961513
20
227.458036
11
238.988534
21
227.734943
0
LINE
8
Layer 1
10
238.988534
20
227.734943
11
238.856166
21
227.959311
0
LINE
8
Layer 1
10
238.856166
20
227.959311
11
238.044966
21
228.314233
0
LINE
8
Layer 1
10
238.044966
20
228.314233
11
236.391320
21
228.650400
0
LINE
8
Layer 1
10
236.391320
20
228.650400
11
230.219904
21
229.436261
0
LINE
8
Layer 1
10
230.219904
20
229.436261
11
223.527889
21
229.829223
0
LINE
8
Layer 1
10
223.527889
20
229.829223
11
217.286915
21
229.801821
0
LINE
8
Layer 1
10
217.286915
20
229.801821
11
214.639205
21
229.621900
0
LINE
8
Layer 1
10
214.639205
20
229.621900
11
212.468620
21
229.326590
0
LINE
8
Layer 1
10
212.468620
20
229.326590
11
208.333488
21
228.349716
0
LINE
8
Layer 1
10
208.333488
20
228.349716
11
204.586214
21
227.052569
0
LINE
8
Layer 1
10
204.586214
20
227.052569
11
201.259605
21
225.459925
0
LINE
8
Layer 1
10
201.259605
20
225.459925
11
198.386470
21
223.596564
0
LINE
8
Layer 1
10
198.386470
20
223.596564
11
195.999616
21
221.487262
0
LINE
8
Layer 1
10
195.999616
20
221.487262
11
194.131851
21
219.156797
0
LINE
8
Layer 1
10
194.131851
20
219.156797
11
192.815983
21
216.629947
0
LINE
8
Layer 1
10
192.815983
20
216.629947
11
192.375263
21
215.300621
0
LINE
8
Layer 1
10
192.375263
20
215.300621
11
192.084820
21
213.931490
0
LINE
8
Layer 1
10
192.084820
20
213.931490
11
191.925842
21
212.452528
0
LINE
8
Layer 1
10
191.925842
20
212.452528
11
191.953355
21
211.200610
0
LINE
8
Layer 1
10
191.953355
20
211.200610
11
192.184091
21
210.152546
0
LINE
8
Layer 1
10
192.184091
20
210.152546
11
192.634784
21
209.285141
0
LINE
8
Layer 1
10
192.634784
20
209.285141
11
193.322167
21
208.575206
0
LINE
8
Layer 1
10
193.322167
20
208.575206
11
194.262973
21
207.999546
0
LINE
8
Layer 1
10
194.262973
20
207.999546
11
195.473937
21
207.534972
0
LINE
8
Layer 1
10
195.473937
20
207.534972
11
196.971790
21
207.158290
0
LINE
8
Layer 1
10
196.971790
20
207.158290
11
198.658948
21
206.944591
0
LINE
8
Layer 1
10
198.658948
20
206.944591
11
200.985679
21
206.840802
0
LINE
8
Layer 1
10
200.985679
20
206.840802
11
206.885139
21
206.933650
0
LINE
8
Layer 1
10
206.885139
20
206.933650
11
213.324724
21
207.378233
0
LINE
8
Layer 1
10
213.324724
20
207.378233
11
218.958990
21
208.115950
0
LINE
8
Layer 1
10
218.958990
20
208.115950
11
218.959000
21
208.116000
0
LINE
8
Layer 1
10
408.851000
20
215.175320
11
410.106009
21
215.653379
0
LINE
8
Layer 1
10
410.106009
20
215.653379
11
411.114371
21
216.186514
0
LINE
8
Layer 1
10
411.114371
20
216.186514
11
411.890856
21
216.800013
0
LINE
8
Layer 1
10
411.890856
20
216.800013
11
412.450231
21
217.519166
0
LINE
8
Layer 1
10
412.450231
20
217.519166
11
412.807267
21
218.369262
0
LINE
8
Layer 1
10
412.807267
20
218.369262
11
412.976731
21
219.375590
0
LINE
8
Layer 1
10
412.976731
20
219.375590
11
412.812020
21
221.958100
0
LINE
8
Layer 1
10
412.812020
20
221.958100
11
412.361853
21
223.690087
0
LINE
8
Layer 1
10
412.361853
20
223.690087
11
411.571641
21
225.452510
0
LINE
8
Layer 1
10
411.571641
20
225.452510
11
410.484365
21
227.197196
0
LINE
8
Layer 1
10
410.484365
20
227.197196
11
409.143005
21
228.875971
0
LINE
8
Layer 1
10
409.143005
20
228.875971
11
407.590541
21
230.440663
0
LINE
8
Layer 1
10
407.590541
20
230.440663
11
405.869952
21
231.843097
0
LINE
8
Layer 1
10
405.869952
20
231.843097
11
404.024218
21
233.035100
0
LINE
8
Layer 1
10
404.024218
20
233.035100
11
402.096320
21
233.968500
0
LINE
8
Layer 1
10
402.096320
20
233.968500
11
399.569395
21
234.779310
0
LINE
8
Layer 1
10
399.569395
20
234.779310
11
396.544074
21
235.400738
0
LINE
8
Layer 1
10
396.544074
20
235.400738
11
393.124600
21
235.829172
0
LINE
8
Layer 1
10
393.124600
20
235.829172
11
389.415215
21
236.061003
0
LINE
8
Layer 1
10
389.415215
20
236.061003
11
385.520162
21
236.092617
0
LINE
8
Layer 1
10
385.520162
20
236.092617
11
381.543684
21
235.920406
0
LINE
8
Layer 1
10
381.543684
20
235.920406
11
377.590022
21
235.540757
0
LINE
8
Layer 1
10
377.590022
20
235.540757
11
373.763420
21
234.950060
0
LINE
8
Layer 1
10
373.763420
20
234.950060
11
367.919939
21
233.776564
0
LINE
8
Layer 1
10
367.919939
20
233.776564
11
365.196540
21
233.073820
0
LINE
8
Layer 1
10
365.196540
20
233.073820
11
365.188446
21
232.631302
0
LINE
8
Layer 1
10
365.188446
20
232.631302
11
365.512353
21
231.660534
0
LINE
8
Layer 1
10
365.512353
20
231.660534
11
366.931906
21
228.579586
0
LINE
8
Layer 1
10
366.931906
20
228.579586
11
369.006669
21
224.721655
0
LINE
8
Layer 1
10
369.006669
20
224.721655
11
371.288110
21
220.977420
0
LINE
8
Layer 1
10
371.288110
20
220.977420
11
372.132361
21
219.897308
0
LINE
8
Layer 1
10
372.132361
20
219.897308
11
373.198736
21
218.825619
0
LINE
8
Layer 1
10
373.198736
20
218.825619
11
374.350629
21
217.886205
0
LINE
8
Layer 1
10
374.350629
20
217.886205
11
375.451430
21
217.202920
0
LINE
8
Layer 1
10
375.451430
20
217.202920
11
378.020515
21
216.370963
0
LINE
8
Layer 1
10
378.020515
20
216.370963
11
381.914538
21
215.651714
0
LINE
8
Layer 1
10
381.914538
20
215.651714
11
386.700438
21
215.071462
0
LINE
8
Layer 1
10
386.700438
20
215.071462
11
391.945156
21
214.656499
0
LINE
8
Layer 1
10
391.945156
20
214.656499
11
397.215634
21
214.433113
0
LINE
8
Layer 1
10
397.215634
20
214.433113
11
402.078812
21
214.427594
0
LINE
8
Layer 1
10
402.078812
20
214.427594
11
406.101630
21
214.666233
0
LINE
8
Layer 1
10
406.101630
20
214.666233
11
408.851030
21
215.175320
0
LINE
8
Layer 1
10
408.851030
20
215.175320
11
408.851000
21
215.175320
0
LINE
8
Layer 1
10
274.092000
20
230.830000
11
277.338202
21
232.239009
0
LINE
8
Layer 1
10
277.338202
20
232.239009
11
279.808710
21
233.619047
0
LINE
8
Layer 1
10
279.808710
20
233.619047
11
281.257642
21
234.808897
0
LINE
8
Layer 1
10
281.257642
20
234.808897
11
281.522181
21
235.282121
0
LINE
8
Layer 1
10
281.522181
20
235.282121
11
281.439120
21
235.647340
0
LINE
8
Layer 1
10
281.439120
20
235.647340
11
280.919277
21
235.714366
0
LINE
8
Layer 1
10
280.919277
20
235.714366
11
279.775014
21
235.587768
0
LINE
8
Layer 1
10
279.775014
20
235.587768
11
276.289150
21
234.857380
0
LINE
8
Layer 1
10
276.289150
20
234.857380
11
273.888844
21
234.427253
0
LINE
8
Layer 1
10
273.888844
20
234.427253
11
270.083003
21
233.949881
0
LINE
8
Layer 1
10
270.083003
20
233.949881
11
259.813648
21
232.980229
0
LINE
8
Layer 1
10
259.813648
20
232.980229
11
248.598943
21
232.202072
0
LINE
8
Layer 1
10
248.598943
20
232.202072
11
239.556750
21
231.869060
0
LINE
8
Layer 1
10
239.556750
20
231.869060
11
237.406501
21
231.686990
0
LINE
8
Layer 1
10
237.406501
20
231.686990
11
236.865335
21
231.496792
0
LINE
8
Layer 1
10
236.865335
20
231.496792
11
236.800720
21
231.266720
0
LINE
8
Layer 1
10
236.800720
20
231.266720
11
237.584434
21
230.683147
0
LINE
8
Layer 1
10
237.584434
20
230.683147
11
238.858941
21
230.170413
0
LINE
8
Layer 1
10
238.858941
20
230.170413
11
240.563272
21
229.729230
0
LINE
8
Layer 1
10
240.563272
20
229.729230
11
242.636456
21
229.360314
0
LINE
8
Layer 1
10
242.636456
20
229.360314
11
247.645503
21
228.842137
0
LINE
8
Layer 1
10
247.645503
20
228.842137
11
253.398319
21
228.621593
0
LINE
8
Layer 1
10
253.398319
20
228.621593
11
259.407141
21
228.704394
0
LINE
8
Layer 1
10
259.407141
20
228.704394
11
265.184207
21
229.096255
0
LINE
8
Layer 1
10
265.184207
20
229.096255
11
270.241754
21
229.802886
0
LINE
8
Layer 1
10
270.241754
20
229.802886
11
272.348282
21
230.276025
0
LINE
8
Layer 1
10
272.348282
20
230.276025
11
274.092020
21
230.830000
0
LINE
8
Layer 1
10
274.092020
20
230.830000
11
274.092000
21
230.830000
0
LINE
8
Layer 1
10
210.343900
20
241.068400
11
215.777433
21
243.171673
0
LINE
8
Layer 1
10
215.777433
20
243.171673
11
220.491842
21
244.732398
0
LINE
8
Layer 1
10
220.491842
20
244.732398
11
224.839189
21
245.775242
0
LINE
8
Layer 1
10
224.839189
20
245.775242
11
229.171537
21
246.324874
0
LINE
8
Layer 1
10
229.171537
20
246.324874
11
233.840950
21
246.405959
0
LINE
8
Layer 1
10
233.840950
20
246.405959
11
239.199489
21
246.043165
0
LINE
8
Layer 1
10
239.199489
20
246.043165
11
245.599218
21
245.261160
0
LINE
8
Layer 1
10
245.599218
20
245.261160
11
253.392200
21
244.084610
0
LINE
8
Layer 1
10
253.392200
20
244.084610
11
258.589912
21
243.345722
0
LINE
8
Layer 1
10
258.589912
20
243.345722
11
263.499994
21
242.820995
0
LINE
8
Layer 1
10
263.499994
20
242.820995
11
268.093904
21
242.510355
0
LINE
8
Layer 1
10
268.093904
20
242.510355
11
272.343100
21
242.413730
0
LINE
8
Layer 1
10
272.343100
20
242.413730
11
276.219040
21
242.531046
0
LINE
8
Layer 1
10
276.219040
20
242.531046
11
279.693181
21
242.862230
0
LINE
8
Layer 1
10
279.693181
20
242.862230
11
282.736982
21
243.407209
0
LINE
8
Layer 1
10
282.736982
20
243.407209
11
285.321900
21
244.165910
0
LINE
8
Layer 1
10
285.321900
20
244.165910
11
288.944411
21
245.772064
0
LINE
8
Layer 1
10
288.944411
20
245.772064
11
290.242440
21
246.542837
0
LINE
8
Layer 1
10
290.242440
20
246.542837
11
290.952000
21
247.161040
0
LINE
8
Layer 1
10
290.952000
20
247.161040
11
291.234329
21
247.821873
0
LINE
8
Layer 1
10
291.234329
20
247.821873
11
291.165385
21
248.093483
0
LINE
8
Layer 1
10
291.165385
20
248.093483
11
290.935078
21
248.342125
0
LINE
8
Layer 1
10
290.935078
20
248.342125
11
289.926495
21
248.819214
0
LINE
8
Layer 1
10
289.926495
20
248.819214
11
288.080830
21
249.350560
0
LINE
8
Layer 1
10
288.080830
20
249.350560
11
286.282833
21
249.892955
0
LINE
8
Layer 1
10
286.282833
20
249.892955
11
284.428778
21
250.625031
0
LINE
8
Layer 1
10
284.428778
20
250.625031
11
280.350433
21
252.780454
0
LINE
8
Layer 1
10
280.350433
20
252.780454
11
275.441660
21
256.061279
0
LINE
8
Layer 1
10
275.441660
20
256.061279
11
269.298330
21
260.711960
0
LINE
8
Layer 1
10
269.298330
20
260.711960
11
265.821198
21
263.307526
0
LINE
8
Layer 1
10
265.821198
20
263.307526
11
262.097972
21
265.841653
0
LINE
8
Layer 1
10
262.097972
20
265.841653
11
258.239613
21
268.253456
0
LINE
8
Layer 1
10
258.239613
20
268.253456
11
254.357084
21
270.482051
0
LINE
8
Layer 1
10
254.357084
20
270.482051
11
250.561348
21
272.466553
0
LINE
8
Layer 1
10
250.561348
20
272.466553
11
246.963369
21
274.146079
0
LINE
8
Layer 1
10
246.963369
20
274.146079
11
243.674109
21
275.459742
0
LINE
8
Layer 1
10
243.674109
20
275.459742
11
240.804530
21
276.346660
0
LINE
8
Layer 1
10
240.804530
20
276.346660
11
238.737680
21
276.779521
0
LINE
8
Layer 1
10
238.737680
20
276.779521
11
236.717402
21
277.020608
0
LINE
8
Layer 1
10
236.717402
20
277.020608
11
234.678219
21
277.061724
0
LINE
8
Layer 1
10
234.678219
20
277.061724
11
232.554655
21
276.894672
0
LINE
8
Layer 1
10
232.554655
20
276.894672
11
230.281231
21
276.511256
0
LINE
8
Layer 1
10
230.281231
20
276.511256
11
227.792471
21
275.903278
0
LINE
8
Layer 1
10
227.792471
20
275.903278
11
221.907030
21
273.980850
0
LINE
8
Layer 1
10
221.907030
20
273.980850
11
219.172239
21
273.212029
0
LINE
8
Layer 1
10
219.172239
20
273.212029
11
215.208300
21
272.385980
0
LINE
8
Layer 1
10
215.208300
20
272.385980
11
210.546426
21
271.601863
0
LINE
8
Layer 1
10
210.546426
20
271.601863
11
205.717830
21
270.958840
0
LINE
8
Layer 1
10
205.717830
20
270.958840
11
199.989107
21
270.230847
0
LINE
8
Layer 1
10
199.989107
20
270.230847
11
195.931249
21
269.507751
0
LINE
8
Layer 1
10
195.931249
20
269.507751
11
193.069181
21
268.683310
0
LINE
8
Layer 1
10
193.069181
20
268.683310
11
190.927830
21
267.651280
0
LINE
8
Layer 1
10
190.927830
20
267.651280
11
189.732009
21
266.827962
0
LINE
8
Layer 1
10
189.732009
20
266.827962
11
188.655223
21
265.880257
0
LINE
8
Layer 1
10
188.655223
20
265.880257
11
187.699202
21
264.818180
0
LINE
8
Layer 1
10
187.699202
20
264.818180
11
186.865672
21
263.651745
0
LINE
8
Layer 1
10
186.865672
20
263.651745
11
186.156362
21
262.390968
0
LINE
8
Layer 1
10
186.156362
20
262.390968
11
185.573001
21
261.045861
0
LINE
8
Layer 1
10
185.573001
20
261.045861
11
184.791034
21
258.142719
0
LINE
8
Layer 1
10
184.791034
20
258.142719
11
184.533596
21
255.022434
0
LINE
8
Layer 1
10
184.533596
20
255.022434
11
184.814511
21
251.765123
0
LINE
8
Layer 1
10
184.814511
20
251.765123
11
185.647604
21
248.450899
0
LINE
8
Layer 1
10
185.647604
20
248.450899
11
187.046700
21
245.159880
0
LINE
8
Layer 1
10
187.046700
20
245.159880
11
188.034084
21
243.519518
0
LINE
8
Layer 1
10
188.034084
20
243.519518
11
189.214473
21
242.001965
0
LINE
8
Layer 1
10
189.214473
20
242.001965
11
190.547260
21
240.636781
0
LINE
8
Layer 1
10
190.547260
20
240.636781
11
191.991836
21
239.453526
0
LINE
8
Layer 1
10
191.991836
20
239.453526
11
193.507596
21
238.481761
0
LINE
8
Layer 1
10
193.507596
20
238.481761
11
195.053931
21
237.751045
0
LINE
8
Layer 1
10
195.053931
20
237.751045
11
196.590235
21
237.290938
0
LINE
8
Layer 1
10
196.590235
20
237.290938
11
198.075900
21
237.131000
0
LINE
8
Layer 1
10
198.075900
20
237.131000
11
199.817793
21
237.441684
0
LINE
8
Layer 1
10
199.817793
20
237.441684
11
202.711453
21
238.287605
0
LINE
8
Layer 1
10
202.711453
20
238.287605
11
210.343900
21
241.068380
0
LINE
8
Layer 1
10
210.343900
20
241.068380
11
210.343900
21
241.068400
0
LINE
8
Layer 1
10
338.838900
20
245.510320
11
347.126681
21
247.248869
0
LINE
8
Layer 1
10
347.126681
20
247.248869
11
357.235800
21
249.546910
0
LINE
8
Layer 1
10
357.235800
20
249.546910
11
363.448262
21
250.935905
0
LINE
8
Layer 1
10
363.448262
20
250.935905
11
367.995869
21
251.686248
0
LINE
8
Layer 1
10
367.995869
20
251.686248
11
371.946616
21
251.921838
0
LINE
8
Layer 1
10
371.946616
20
251.921838
11
376.368500
21
251.766580
0
LINE
8
Layer 1
10
376.368500
20
251.766580
11
379.856632
21
251.432769
0
LINE
8
Layer 1
10
379.856632
20
251.432769
11
383.561420
21
250.879129
0
LINE
8
Layer 1
10
383.561420
20
250.879129
11
387.073173
21
250.176956
0
LINE
8
Layer 1
10
387.073173
20
250.176956
11
389.982200
21
249.397550
0
LINE
8
Layer 1
10
389.982200
20
249.397550
11
400.080700
21
246.171490
0
LINE
8
Layer 1
10
400.080700
20
246.171490
11
401.974568
21
245.656584
0
LINE
8
Layer 1
10
401.974568
20
245.656584
11
403.712018
21
245.368309
0
LINE
8
Layer 1
10
403.712018
20
245.368309
11
405.313980
21
245.310991
0
LINE
8
Layer 1
10
405.313980
20
245.310991
11
406.801388
21
245.488958
0
LINE
8
Layer 1
10
406.801388
20
245.488958
11
408.195171
21
245.906535
0
LINE
8
Layer 1
10
408.195171
20
245.906535
11
409.516263
21
246.568050
0
LINE
8
Layer 1
10
409.516263
20
246.568050
11
410.785596
21
247.477829
0
LINE
8
Layer 1
10
410.785596
20
247.477829
11
412.024100
21
248.640200
0
LINE
8
Layer 1
10
412.024100
20
248.640200
11
413.365815
21
250.210022
0
LINE
8
Layer 1
10
413.365815
20
250.210022
11
414.530334
21
251.911552
0
LINE
8
Layer 1
10
414.530334
20
251.911552
11
415.511116
21
253.726377
0
LINE
8
Layer 1
10
415.511116
20
253.726377
11
416.301617
21
255.636081
0
LINE
8
Layer 1
10
416.301617
20
255.636081
11
416.895295
21
257.622250
0
LINE
8
Layer 1
10
416.895295
20
257.622250
11
417.285607
21
259.666470
0
LINE
8
Layer 1
10
417.285607
20
259.666470
11
417.466009
21
261.750325
0
LINE
8
Layer 1
10
417.466009
20
261.750325
11
417.429960
21
263.855400
0
LINE
8
Layer 1
10
417.429960
20
263.855400
11
417.223652
21
265.776997
0
LINE
8
Layer 1
10
417.223652
20
265.776997
11
416.877645
21
267.543217
0
LINE
8
Layer 1
10
416.877645
20
267.543217
11
416.384622
21
269.158473
0
LINE
8
Layer 1
10
416.384622
20
269.158473
11
415.737266
21
270.627178
0
LINE
8
Layer 1
10
415.737266
20
270.627178
11
414.928260
21
271.953745
0
LINE
8
Layer 1
10
414.928260
20
271.953745
11
413.950285
21
273.142588
0
LINE
8
Layer 1
10
413.950285
20
273.142588
11
412.796025
21
274.198118
0
LINE
8
Layer 1
10
412.796025
20
274.198118
11
411.458161
21
275.124750
0
LINE
8
Layer 1
10
411.458161
20
275.124750
11
409.929378
21
275.926896
0
LINE
8
Layer 1
10
409.929378
20
275.926896
11
408.202356
21
276.608968
0
LINE
8
Layer 1
10
408.202356
20
276.608968
11
406.269780
21
277.175381
0
LINE
8
Layer 1
10
406.269780
20
277.175381
11
404.124330
21
277.630547
0
LINE
8
Layer 1
10
404.124330
20
277.630547
11
399.165545
21
278.224789
0
LINE
8
Layer 1
10
399.165545
20
278.224789
11
393.267460
21
278.427000
0
LINE
8
Layer 1
10
393.267460
20
278.427000
11
390.162968
21
278.579926
0
LINE
8
Layer 1
10
390.162968
20
278.579926
11
386.353284
21
278.982911
0
LINE
8
Layer 1
10
386.353284
20
278.982911
11
382.321313
21
279.574763
0
LINE
8
Layer 1
10
382.321313
20
279.574763
11
378.549960
21
280.294290
0
LINE
8
Layer 1
10
378.549960
20
280.294290
11
372.778362
21
281.409454
0
LINE
8
Layer 1
10
372.778362
20
281.409454
11
367.837610
21
281.932775
0
LINE
8
Layer 1
10
367.837610
20
281.932775
11
365.586207
21
281.941574
0
LINE
8
Layer 1
10
365.586207
20
281.941574
11
363.431401
21
281.765307
0
LINE
8
Layer 1
10
363.431401
20
281.765307
11
361.336157
21
281.391607
0
LINE
8
Layer 1
10
361.336157
20
281.391607
11
359.263435
21
280.808104
0
LINE
8
Layer 1
10
359.263435
20
280.808104
11
357.176198
21
280.002430
0
LINE
8
Layer 1
10
357.176198
20
280.002430
11
355.037409
21
278.962217
0
LINE
8
Layer 1
10
355.037409
20
278.962217
11
352.810030
21
277.675097
0
LINE
8
Layer 1
10
352.810030
20
277.675097
11
350.457022
21
276.128700
0
LINE
8
Layer 1
10
350.457022
20
276.128700
11
345.225973
21
272.208607
0
LINE
8
Layer 1
10
345.225973
20
272.208607
11
339.047960
21
267.102990
0
LINE
8
Layer 1
10
339.047960
20
267.102990
11
332.442362
21
261.648542
0
LINE
8
Layer 1
10
332.442362
20
261.648542
11
327.170517
21
257.656378
0
LINE
8
Layer 1
10
327.170517
20
257.656378
11
323.001919
21
254.963270
0
LINE
8
Layer 1
10
323.001919
20
254.963270
11
321.259304
21
254.052853
0
LINE
8
Layer 1
10
321.259304
20
254.052853
11
319.706060
21
253.405990
0
LINE
8
Layer 1
10
319.706060
20
253.405990
11
316.802116
21
252.196752
0
LINE
8
Layer 1
10
316.802116
20
252.196752
11
313.935989
21
250.733631
0
LINE
8
Layer 1
10
313.935989
20
250.733631
11
311.747274
21
249.373817
0
LINE
8
Layer 1
10
311.747274
20
249.373817
11
311.106821
21
248.844272
0
LINE
8
Layer 1
10
311.106821
20
248.844272
11
310.875570
21
248.474500
0
LINE
8
Layer 1
10
310.875570
20
248.474500
11
311.129979
21
248.140574
0
LINE
8
Layer 1
10
311.129979
20
248.140574
11
311.833243
21
247.700063
0
LINE
8
Layer 1
10
311.833243
20
247.700063
11
314.226561
21
246.638624
0
LINE
8
Layer 1
10
314.226561
20
246.638624
11
317.335974
21
245.568865
0
LINE
8
Layer 1
10
317.335974
20
245.568865
11
320.441930
21
244.769470
0
LINE
8
Layer 1
10
320.441930
20
244.769470
11
324.144349
21
244.358255
0
LINE
8
Layer 1
10
324.144349
20
244.358255
11
328.731744
21
244.356218
0
LINE
8
Layer 1
10
328.731744
20
244.356218
11
333.773457
21
244.746014
0
LINE
8
Layer 1
10
333.773457
20
244.746014
11
338.838830
21
245.510300
0
LINE
8
Layer 1
10
338.838830
20
245.510300
11
338.838900
21
245.510320
0
LINE
8
Layer 1
10
293.118100
20
255.668420
11
292.121620
21
259.604838
0
LINE
8
Layer 1
10
292.121620
20
259.604838
11
291.418557
21
261.489073
0
LINE
8
Layer 1
10
291.418557
20
261.489073
11
290.538435
21
263.397653
0
LINE
8
Layer 1
10
290.538435
20
263.397653
11
288.125488
21
267.528825
0
LINE
8
Layer 1
10
288.125488
20
267.528825
11
284.639720
21
272.480320
0
LINE
8
Layer 1
10
284.639720
20
272.480320
11
278.495971
21
280.080831
0
LINE
8
Layer 1
10
278.495971
20
280.080831
11
268.795624
21
291.386694
0
LINE
8
Layer 1
10
268.795624
20
291.386694
11
257.455025
21
304.201120
0
LINE
8
Layer 1
10
257.455025
20
304.201120
11
246.390520
21
316.327320
0
LINE
8
Layer 1
10
246.390520
20
316.327320
11
242.383011
21
320.461810
0
LINE
8
Layer 1
10
242.383011
20
320.461810
11
238.614679
21
323.978259
0
LINE
8
Layer 1
10
238.614679
20
323.978259
11
235.014531
21
326.920810
0
LINE
8
Layer 1
10
235.014531
20
326.920810
11
231.511570
21
329.333607
0
LINE
8
Layer 1
10
231.511570
20
329.333607
11
228.034803
21
331.260794
0
LINE
8
Layer 1
10
228.034803
20
331.260794
11
224.513236
21
332.746512
0
LINE
8
Layer 1
10
224.513236
20
332.746512
11
220.875873
21
333.834907
0
LINE
8
Layer 1
10
220.875873
20
333.834907
11
217.051720
21
334.570120
0
LINE
8
Layer 1
10
217.051720
20
334.570120
11
214.531116
21
334.847421
0
LINE
8
Layer 1
10
214.531116
20
334.847421
11
211.806297
21
334.997590
0
LINE
8
Layer 1
10
211.806297
20
334.997590
11
206.410132
21
334.951048
0
LINE
8
Layer 1
10
206.410132
20
334.951048
11
202.195462
21
334.499535
0
LINE
8
Layer 1
10
202.195462
20
334.499535
11
200.947510
21
334.143488
0
LINE
8
Layer 1
10
200.947510
20
334.143488
11
200.611237
21
333.936668
0
LINE
8
Layer 1
10
200.611237
20
333.936668
11
200.494520
21
333.712088
0
LINE
8
Layer 1
10
200.494520
20
333.712088
11
201.265221
21
331.974004
0
LINE
8
Layer 1
10
201.265221
20
331.974004
11
203.118180
21
328.853028
0
LINE
8
Layer 1
10
203.118180
20
328.853028
11
205.328995
21
325.057093
0
LINE
8
Layer 1
10
205.328995
20
325.057093
11
207.276545
21
321.036969
0
LINE
8
Layer 1
10
207.276545
20
321.036969
11
208.884300
21
316.966800
0
LINE
8
Layer 1
10
208.884300
20
316.966800
11
210.075730
21
313.020728
0
LINE
8
Layer 1
10
210.075730
20
313.020728
11
210.757640
21
310.917728
0
LINE
8
Layer 1
10
210.757640
20
310.917728
11
211.236849
21
310.048421
0
LINE
8
Layer 1
10
211.236849
20
310.048421
11
211.891106
21
309.208348
0
LINE
8
Layer 1
10
211.891106
20
309.208348
11
213.973406
21
307.339211
0
LINE
8
Layer 1
10
213.973406
20
307.339211
11
217.501820
21
304.756938
0
LINE
8
Layer 1
10
217.501820
20
304.756938
11
220.378723
21
302.634063
0
LINE
8
Layer 1
10
220.378723
20
302.634063
11
222.926786
21
300.558775
0
LINE
8
Layer 1
10
222.926786
20
300.558775
11
225.172487
21
298.501060
0
LINE
8
Layer 1
10
225.172487
20
298.501060
11
227.142306
21
296.430902
0
LINE
8
Layer 1
10
227.142306
20
296.430902
11
228.862720
21
294.318286
0
LINE
8
Layer 1
10
228.862720
20
294.318286
11
230.360209
21
292.133196
0
LINE
8
Layer 1
10
230.360209
20
292.133196
11
231.661249
21
289.845619
0
LINE
8
Layer 1
10
231.661249
20
289.845619
11
232.792320
21
287.425538
0
LINE
8
Layer 1
10
232.792320
20
287.425538
11
233.709147
21
285.358378
0
LINE
8
Layer 1
10
233.709147
20
285.358378
11
234.589528
21
283.682849
0
LINE
8
Layer 1
10
234.589528
20
283.682849
11
235.535252
21
282.309129
0
LINE
8
Layer 1
10
235.535252
20
282.309129
11
236.648111
21
281.147398
0
LINE
8
Layer 1
10
236.648111
20
281.147398
11
238.029897
21
280.107834
0
LINE
8
Layer 1
10
238.029897
20
280.107834
11
239.782399
21
279.100617
0
LINE
8
Layer 1
10
239.782399
20
279.100617
11
244.806720
21
276.823938
0
LINE
8
Layer 1
10
244.806720
20
276.823938
11
250.256172
21
274.297836
0
LINE
8
Layer 1
10
250.256172
20
274.297836
11
256.316480
21
271.007414
0
LINE
8
Layer 1
10
256.316480
20
271.007414
11
263.467483
21
266.675829
0
LINE
8
Layer 1
10
263.467483
20
266.675829
11
272.189020
21
261.026238
0
LINE
8
Layer 1
10
272.189020
20
261.026238
11
278.684479
21
256.920224
0
LINE
8
Layer 1
10
278.684479
20
256.920224
11
283.790320
21
254.164898
0
LINE
8
Layer 1
10
283.790320
20
254.164898
11
285.922100
21
253.246601
0
LINE
8
Layer 1
10
285.922100
20
253.246601
11
287.826436
21
252.609407
0
LINE
8
Layer 1
10
287.826436
20
252.609407
11
289.543313
21
252.234458
0
LINE
8
Layer 1
10
289.543313
20
252.234458
11
291.112720
21
252.102898
0
LINE
8
Layer 1
10
291.112720
20
252.102898
11
293.794040
21
252.074198
0
LINE
8
Layer 1
10
293.794040
20
252.074198
11
293.118100
21
255.668420
0
LINE
8
Layer 1
10
319.769700
20
256.068300
11
324.504854
21
259.398734
0
LINE
8
Layer 1
10
324.504854
20
259.398734
11
330.620600
21
264.216740
0
LINE
8
Layer 1
10
330.620600
20
264.216740
11
334.451810
21
267.157720
0
LINE
8
Layer 1
10
334.451810
20
267.157720
11
339.635536
21
270.820616
0
LINE
8
Layer 1
10
339.635536
20
270.820616
11
345.491895
21
274.738574
0
LINE
8
Layer 1
10
345.491895
20
274.738574
11
351.341000
21
278.444740
0
LINE
8
Layer 1
10
351.341000
20
278.444740
11
364.962400
21
286.795390
0
LINE
8
Layer 1
10
364.962400
20
286.795390
11
367.109860
21
291.940690
0
LINE
8
Layer 1
10
367.109860
20
291.940690
11
368.286820
21
294.480405
0
LINE
8
Layer 1
10
368.286820
20
294.480405
11
369.696623
21
297.027336
0
LINE
8
Layer 1
10
369.696623
20
297.027336
11
371.325863
21
299.564223
0
LINE
8
Layer 1
10
371.325863
20
299.564223
11
373.161135
21
302.073806
0
LINE
8
Layer 1
10
373.161135
20
302.073806
11
375.189036
21
304.538824
0
LINE
8
Layer 1
10
375.189036
20
304.538824
11
377.396160
21
306.942018
0
LINE
8
Layer 1
10
377.396160
20
306.942018
11
379.769103
21
309.266127
0
LINE
8
Layer 1
10
379.769103
20
309.266127
11
382.294460
21
311.493890
0
LINE
8
Layer 1
10
382.294460
20
311.493890
11
385.222565
21
314.052125
0
LINE
8
Layer 1
10
385.222565
20
314.052125
11
387.058156
21
316.015652
0
LINE
8
Layer 1
10
387.058156
20
316.015652
11
388.147296
21
317.831682
0
LINE
8
Layer 1
10
388.147296
20
317.831682
11
388.836050
21
319.947420
0
LINE
8
Layer 1
10
388.836050
20
319.947420
11
390.339547
21
325.466360
0
LINE
8
Layer 1
10
390.339547
20
325.466360
11
391.865635
21
330.044139
0
LINE
8
Layer 1
10
391.865635
20
330.044139
11
393.466806
21
333.820983
0
LINE
8
Layer 1
10
393.466806
20
333.820983
11
395.195550
21
336.937120
0
LINE
8
Layer 1
10
395.195550
20
336.937120
11
396.970511
21
339.841634
0
LINE
8
Layer 1
10
396.970511
20
339.841634
11
397.708770
21
341.301970
0
LINE
8
Layer 1
10
397.708770
20
341.301970
11
397.542923
21
341.462804
0
LINE
8
Layer 1
10
397.542923
20
341.462804
11
397.069584
21
341.587920
0
LINE
8
Layer 1
10
397.069584
20
341.587920
11
395.345647
21
341.737286
0
LINE
8
Layer 1
10
395.345647
20
341.737286
11
389.805232
21
341.676574
0
LINE
8
Layer 1
10
389.805232
20
341.676574
11
383.410962
21
341.220452
0
LINE
8
Layer 1
10
383.410962
20
341.220452
11
380.619704
21
340.875555
0
LINE
8
Layer 1
10
380.619704
20
340.875555
11
378.486270
21
340.469536
0
LINE
8
Layer 1
10
378.486270
20
340.469536
11
375.497092
21
339.543850
0
LINE
8
Layer 1
10
375.497092
20
339.543850
11
372.484999
21
338.277066
0
LINE
8
Layer 1
10
372.484999
20
338.277066
11
369.458171
21
336.674831
0
LINE
8
Layer 1
10
369.458171
20
336.674831
11
366.424787
21
334.742792
0
LINE
8
Layer 1
10
366.424787
20
334.742792
11
363.393026
21
332.486596
0
LINE
8
Layer 1
10
363.393026
20
332.486596
11
360.371067
21
329.911891
0
LINE
8
Layer 1
10
360.371067
20
329.911891
11
357.367089
21
327.024321
0
LINE
8
Layer 1
10
357.367089
20
327.024321
11
354.389270
21
323.829536
0
LINE
8
Layer 1
10
354.389270
20
323.829536
11
349.193251
21
317.262469
0
LINE
8
Layer 1
10
349.193251
20
317.262469
11
341.214470
21
306.573236
0
LINE
8
Layer 1
10
341.214470
20
306.573236
11
332.619392
21
295.014195
0
LINE
8
Layer 1
10
332.619392
20
295.014195
11
325.941570
21
286.355936
0
LINE
8
Layer 1
10
325.941570
20
286.355936
11
322.140111
21
281.473442
0
LINE
8
Layer 1
10
322.140111
20
281.473442
11
318.816051
21
276.857159
0
LINE
8
Layer 1
10
318.816051
20
276.857159
11
315.978450
21
272.523887
0
LINE
8
Layer 1
10
315.978450
20
272.523887
11
313.636370
21
268.490424
0
LINE
8
Layer 1
10
313.636370
20
268.490424
11
311.798871
21
264.773568
0
LINE
8
Layer 1
10
311.798871
20
264.773568
11
310.475014
21
261.390119
0
LINE
8
Layer 1
10
310.475014
20
261.390119
11
309.673860
21
258.356875
0
LINE
8
Layer 1
10
309.673860
20
258.356875
11
309.404470
21
255.690636
0
LINE
8
Layer 1
10
309.404470
20
255.690636
11
309.403890
21
252.714356
0
LINE
8
Layer 1
10
309.403890
20
252.714356
11
312.710770
21
253.255786
0
LINE
8
Layer 1
10
312.710770
20
253.255786
11
314.290830
21
253.645214
0
LINE
8
Layer 1
10
314.290830
20
253.645214
11
316.148411
21
254.305304
0
LINE
8
Layer 1
10
316.148411
20
254.305304
11
318.051895
21
255.143769
0
LINE
8
Layer 1
10
318.051895
20
255.143769
11
319.769660
21
256.068326
0
LINE
8
Layer 1
10
319.769660
20
256.068326
11
319.769700
21
256.068300
0
LINE
8
Layer 1
10
208.000000
20
274.111000
11
214.546051
21
275.840669
0
LINE
8
Layer 1
10
214.546051
20
275.840669
11
219.844239
21
277.438960
0
LINE
8
Layer 1
10
219.844239
20
277.438960
11
223.991142
21
278.962169
0
LINE
8
Layer 1
10
223.991142
20
278.962169
11
227.083338
21
280.466590
0
LINE
8
Layer 1
10
227.083338
20
280.466590
11
229.217403
21
282.008519
0
LINE
8
Layer 1
10
229.217403
20
282.008519
11
229.955318
21
282.811141
0
LINE
8
Layer 1
10
229.955318
20
282.811141
11
230.489917
21
283.644250
0
LINE
8
Layer 1
10
230.489917
20
283.644250
11
230.833273
21
284.514884
0
LINE
8
Layer 1
10
230.833273
20
284.514884
11
230.997457
21
285.430079
0
LINE
8
Layer 1
10
230.997457
20
285.430079
11
230.994542
21
286.396872
0
LINE
8
Layer 1
10
230.994542
20
286.396872
11
230.836600
21
287.422300
0
LINE
8
Layer 1
10
230.836600
20
287.422300
11
230.289465
21
288.617571
0
LINE
8
Layer 1
10
230.289465
20
288.617571
11
229.150595
21
290.257528
0
LINE
8
Layer 1
10
229.150595
20
290.257528
11
225.694154
21
294.244597
0
LINE
8
Layer 1
10
225.694154
20
294.244597
11
221.660286
21
298.129693
0
LINE
8
Layer 1
10
221.660286
20
298.129693
11
219.799632
21
299.642183
0
LINE
8
Layer 1
10
219.799632
20
299.642183
11
218.242000
21
300.659000
0
LINE
8
Layer 1
10
218.242000
20
300.659000
11
216.456910
21
301.374087
0
LINE
8
Layer 1
10
216.456910
20
301.374087
11
214.218000
21
301.894179
0
LINE
8
Layer 1
10
214.218000
20
301.894179
11
211.587411
21
302.218674
0
LINE
8
Layer 1
10
211.587411
20
302.218674
11
208.627284
21
302.346972
0
LINE
8
Layer 1
10
208.627284
20
302.346972
11
205.399758
21
302.278474
0
LINE
8
Layer 1
10
205.399758
20
302.278474
11
201.966975
21
302.012578
0
LINE
8
Layer 1
10
201.966975
20
302.012578
11
198.391076
21
301.548683
0
LINE
8
Layer 1
10
198.391076
20
301.548683
11
194.734200
21
300.886190
0
LINE
8
Layer 1
10
194.734200
20
300.886190
11
189.605454
21
299.717509
0
LINE
8
Layer 1
10
189.605454
20
299.717509
11
186.196543
21
298.595775
0
LINE
8
Layer 1
10
186.196543
20
298.595775
11
184.931546
21
297.963981
0
LINE
8
Layer 1
10
184.931546
20
297.963981
11
183.849935
21
297.237686
0
LINE
8
Layer 1
10
183.849935
20
297.237686
11
181.908100
21
295.359940
0
LINE
8
Layer 1
10
181.908100
20
295.359940
11
180.979015
21
294.154061
0
LINE
8
Layer 1
10
180.979015
20
294.154061
11
180.219227
21
292.845377
0
LINE
8
Layer 1
10
180.219227
20
292.845377
11
179.628103
21
291.430943
0
LINE
8
Layer 1
10
179.628103
20
291.430943
11
179.205010
21
289.907812
0
LINE
8
Layer 1
10
179.205010
20
289.907812
11
178.949315
21
288.273042
0
LINE
8
Layer 1
10
178.949315
20
288.273042
11
178.860385
21
286.523687
0
LINE
8
Layer 1
10
178.860385
20
286.523687
11
178.937588
21
284.656801
0
LINE
8
Layer 1
10
178.937588
20
284.656801
11
179.180290
21
282.669440
0
LINE
8
Layer 1
10
179.180290
20
282.669440
11
179.780377
21
279.703349
0
LINE
8
Layer 1
10
179.780377
20
279.703349
11
180.576215
21
277.186020
0
LINE
8
Layer 1
10
180.576215
20
277.186020
11
181.583467
21
275.100447
0
LINE
8
Layer 1
10
181.583467
20
275.100447
11
182.817794
21
273.429625
0
LINE
8
Layer 1
10
182.817794
20
273.429625
11
184.294858
21
272.156549
0
LINE
8
Layer 1
10
184.294858
20
272.156549
11
186.030321
21
271.264212
0
LINE
8
Layer 1
10
186.030321
20
271.264212
11
188.039844
21
270.735611
0
LINE
8
Layer 1
10
188.039844
20
270.735611
11
190.339090
21
270.553740
0
LINE
8
Layer 1
10
190.339090
20
270.553740
11
192.802825
21
270.828240
0
LINE
8
Layer 1
10
192.802825
20
270.828240
11
196.953903
21
271.590424
0
LINE
8
Layer 1
10
196.953903
20
271.590424
11
208.000090
21
274.110960
0
LINE
8
Layer 1
10
208.000090
20
274.110960
11
208.000000
21
274.111000
0
LINE
8
Layer 1
10
415.885000
20
281.046370
11
416.933863
21
281.956481
0
LINE
8
Layer 1
10
416.933863
20
281.956481
11
417.872500
21
283.062614
0
LINE
8
Layer 1
10
417.872500
20
283.062614
11
418.698499
21
284.338916
0
LINE
8
Layer 1
10
418.698499
20
284.338916
11
419.409447
21
285.759537
0
LINE
8
Layer 1
10
419.409447
20
285.759537
11
420.476535
21
288.930324
0
LINE
8
Layer 1
10
420.476535
20
288.930324
11
421.054462
21
292.368160
0
LINE
8
Layer 1
10
421.054462
20
292.368160
11
421.123924
21
295.866228
0
LINE
8
Layer 1
10
421.123924
20
295.866228
11
420.665617
21
299.217713
0
LINE
8
Layer 1
10
420.665617
20
299.217713
11
420.232518
21
300.773857
0
LINE
8
Layer 1
10
420.232518
20
300.773857
11
419.660237
21
302.215799
0
LINE
8
Layer 1
10
419.660237
20
302.215799
11
418.946362
21
303.517687
0
LINE
8
Layer 1
10
418.946362
20
303.517687
11
418.088480
21
304.653670
0
LINE
8
Layer 1
10
418.088480
20
304.653670
11
416.762264
21
305.840854
0
LINE
8
Layer 1
10
416.762264
20
305.840854
11
415.040498
21
306.856047
0
LINE
8
Layer 1
10
415.040498
20
306.856047
11
412.900484
21
307.704150
0
LINE
8
Layer 1
10
412.900484
20
307.704150
11
410.319524
21
308.390065
0
LINE
8
Layer 1
10
410.319524
20
308.390065
11
407.274921
21
308.918691
0
LINE
8
Layer 1
10
407.274921
20
308.918691
11
403.743978
21
309.294931
0
LINE
8
Layer 1
10
403.743978
20
309.294931
11
399.703997
21
309.523683
0
LINE
8
Layer 1
10
399.703997
20
309.523683
11
395.132280
21
309.609850
0
LINE
8
Layer 1
10
395.132280
20
309.609850
11
390.578901
21
309.597033
0
LINE
8
Layer 1
10
390.578901
20
309.597033
11
387.025683
21
309.458056
0
LINE
8
Layer 1
10
387.025683
20
309.458056
11
384.244688
21
309.094544
0
LINE
8
Layer 1
10
384.244688
20
309.094544
11
382.007980
21
308.408123
0
LINE
8
Layer 1
10
382.007980
20
308.408123
11
380.087622
21
307.300416
0
LINE
8
Layer 1
10
380.087622
20
307.300416
11
378.255677
21
305.673050
0
LINE
8
Layer 1
10
378.255677
20
305.673050
11
376.284209
21
303.427650
0
LINE
8
Layer 1
10
376.284209
20
303.427650
11
373.945280
21
300.465840
0
LINE
8
Layer 1
10
373.945280
20
300.465840
11
371.205371
21
296.554983
0
LINE
8
Layer 1
10
371.205371
20
296.554983
11
370.337111
21
294.929168
0
LINE
8
Layer 1
10
370.337111
20
294.929168
11
369.789127
21
293.472930
0
LINE
8
Layer 1
10
369.789127
20
293.472930
11
369.550778
21
292.148643
0
LINE
8
Layer 1
10
369.550778
20
292.148643
11
369.611423
21
290.918682
0
LINE
8
Layer 1
10
369.611423
20
290.918682
11
369.960420
21
289.745423
0
LINE
8
Layer 1
10
369.960420
20
289.745423
11
370.587130
21
288.591240
0
LINE
8
Layer 1
10
370.587130
20
288.591240
11
371.447957
21
287.553782
0
LINE
8
Layer 1
10
371.447957
20
287.553782
11
372.636695
21
286.610007
0
LINE
8
Layer 1
10
372.636695
20
286.610007
11
374.220368
21
285.736235
0
LINE
8
Layer 1
10
374.220368
20
285.736235
11
376.265996
21
284.908789
0
LINE
8
Layer 1
10
376.265996
20
284.908789
11
378.840604
21
284.103990
0
LINE
8
Layer 1
10
378.840604
20
284.103990
11
382.011214
21
283.298161
0
LINE
8
Layer 1
10
382.011214
20
283.298161
11
390.408530
21
281.588700
0
LINE
8
Layer 1
10
390.408530
20
281.588700
11
400.140471
21
280.036454
0
LINE
8
Layer 1
10
400.140471
20
280.036454
11
404.086494
21
279.616184
0
LINE
8
Layer 1
10
404.086494
20
279.616184
11
407.461480
21
279.432251
0
LINE
8
Layer 1
10
407.461480
20
279.432251
11
410.297122
21
279.483980
0
LINE
8
Layer 1
10
410.297122
20
279.483980
11
412.625114
21
279.770696
0
LINE
8
Layer 1
10
412.625114
20
279.770696
11
414.477152
21
280.291724
0
LINE
8
Layer 1
10
414.477152
20
280.291724
11
415.884930
21
281.046390
0
LINE
8
Layer 1
10
415.884930
20
281.046390
11
415.885000
21
281.046370
0
LINE
8
Layer 1
10
202.235000
20
305.249000
11
206.524511
21
307.159132
0
LINE
8
Layer 1
10
206.524511
20
307.159132
11
207.713623
21
307.971525
0
LINE
8
Layer 1
10
207.713623
20
307.971525
11
208.351984
21
308.936491
0
LINE
8
Layer 1
10
208.351984
20
308.936491
11
208.504351
21
310.239796
0
LINE
8
Layer 1
10
208.504351
20
310.239796
11
208.235484
21
312.067205
0
LINE
8
Layer 1
10
208.235484
20
312.067205
11
206.693080
21
318.037400
0
LINE
8
Layer 1
10
206.693080
20
318.037400
11
205.258229
21
322.571461
0
LINE
8
Layer 1
10
205.258229
20
322.571461
11
204.454179
21
324.383918
0
LINE
8
Layer 1
10
204.454179
20
324.383918
11
203.549670
21
325.958436
0
LINE
8
Layer 1
10
203.549670
20
325.958436
11
202.512672
21
327.343850
0
LINE
8
Layer 1
10
202.512672
20
327.343850
11
201.311153
21
328.588993
0
LINE
8
Layer 1
10
201.311153
20
328.588993
11
199.913083
21
329.742698
0
LINE
8
Layer 1
10
199.913083
20
329.742698
11
198.286430
21
330.853800
0
LINE
8
Layer 1
10
198.286430
20
330.853800
11
196.581317
21
331.656231
0
LINE
8
Layer 1
10
196.581317
20
331.656231
11
194.487062
21
332.210495
0
LINE
8
Layer 1
10
194.487062
20
332.210495
11
192.129218
21
332.519302
0
LINE
8
Layer 1
10
192.129218
20
332.519302
11
189.633339
21
332.585359
0
LINE
8
Layer 1
10
189.633339
20
332.585359
11
187.124977
21
332.411373
0
LINE
8
Layer 1
10
187.124977
20
332.411373
11
184.729686
21
332.000055
0
LINE
8
Layer 1
10
184.729686
20
332.000055
11
182.573020
21
331.354110
0
LINE
8
Layer 1
10
182.573020
20
331.354110
11
180.780530
21
330.476248
0
LINE
8
Layer 1
10
180.780530
20
330.476248
11
179.251806
21
329.333437
0
LINE
8
Layer 1
10
179.251806
20
329.333437
11
177.928176
21
327.989533
0
LINE
8
Layer 1
10
177.928176
20
327.989533
11
176.809535
21
326.473378
0
LINE
8
Layer 1
10
176.809535
20
326.473378
11
175.895780
21
324.813814
0
LINE
8
Layer 1
10
175.895780
20
324.813814
11
175.186810
21
323.039683
0
LINE
8
Layer 1
10
175.186810
20
323.039683
11
174.682521
21
321.179827
0
LINE
8
Layer 1
10
174.682521
20
321.179827
11
174.382810
21
319.263089
0
LINE
8
Layer 1
10
174.382810
20
319.263089
11
174.287574
21
317.318309
0
LINE
8
Layer 1
10
174.287574
20
317.318309
11
174.396710
21
315.374331
0
LINE
8
Layer 1
10
174.396710
20
315.374331
11
174.710115
21
313.459996
0
LINE
8
Layer 1
10
174.710115
20
313.459996
11
175.227686
21
311.604146
0
LINE
8
Layer 1
10
175.227686
20
311.604146
11
175.949320
21
309.835624
0
LINE
8
Layer 1
10
175.949320
20
309.835624
11
176.874915
21
308.183271
0
LINE
8
Layer 1
10
176.874915
20
308.183271
11
178.004367
21
306.675929
0
LINE
8
Layer 1
10
178.004367
20
306.675929
11
179.337573
21
305.342441
0
LINE
8
Layer 1
10
179.337573
20
305.342441
11
180.874430
21
304.211648
0
LINE
8
Layer 1
10
180.874430
20
304.211648
11
183.041100
21
303.042549
0
LINE
8
Layer 1
10
183.041100
20
303.042549
11
185.237741
21
302.238998
0
LINE
8
Layer 1
10
185.237741
20
302.238998
11
187.521282
21
301.803762
0
LINE
8
Layer 1
10
187.521282
20
301.803762
11
189.948654
21
301.739606
0
LINE
8
Layer 1
10
189.948654
20
301.739606
11
192.576785
21
302.049293
0
LINE
8
Layer 1
10
192.576785
20
302.049293
11
195.462605
21
302.735589
0
LINE
8
Layer 1
10
195.462605
20
302.735589
11
198.663043
21
303.801259
0
LINE
8
Layer 1
10
198.663043
20
303.801259
11
202.235030
21
305.249068
0
LINE
8
Layer 1
10
202.235030
20
305.249068
11
202.235000
21
305.249000
0
LINE
8
Layer 1
10
415.873000
20
311.022710
11
417.821780
21
312.181833
0
LINE
8
Layer 1
10
417.821780
20
312.181833
11
419.559544
21
313.774184
0
LINE
8
Layer 1
10
419.559544
20
313.774184
11
421.056708
21
315.734366
0
LINE
8
Layer 1
10
421.056708
20
315.734366
11
422.283694
21
317.996984
0
LINE
8
Layer 1
10
422.283694
20
317.996984
11
423.210919
21
320.496643
0
LINE
8
Layer 1
10
423.210919
20
320.496643
11
423.808802
21
323.167947
0
LINE
8
Layer 1
10
423.808802
20
323.167947
11
424.047763
21
325.945501
0
LINE
8
Layer 1
10
424.047763
20
325.945501
11
423.898220
21
328.763910
0
LINE
8
Layer 1
10
423.898220
20
328.763910
11
423.280699
21
331.894014
0
LINE
8
Layer 1
10
423.280699
20
331.894014
11
422.277944
21
334.621526
0
LINE
8
Layer 1
10
422.277944
20
334.621526
11
420.912491
21
336.926717
0
LINE
8
Layer 1
10
420.912491
20
336.926717
11
419.206873
21
338.789860
0
LINE
8
Layer 1
10
419.206873
20
338.789860
11
417.183622
21
340.191228
0
LINE
8
Layer 1
10
417.183622
20
340.191228
11
414.865274
21
341.111094
0
LINE
8
Layer 1
10
414.865274
20
341.111094
11
412.274362
21
341.529731
0
LINE
8
Layer 1
10
412.274362
20
341.529731
11
409.433420
21
341.427410
0
LINE
8
Layer 1
10
409.433420
20
341.427410
11
407.110335
21
341.037340
0
LINE
8
Layer 1
10
407.110335
20
341.037340
11
404.861850
21
340.466177
0
LINE
8
Layer 1
10
404.861850
20
340.466177
11
402.726915
21
339.733262
0
LINE
8
Layer 1
10
402.726915
20
339.733262
11
400.744480
21
338.857935
0
LINE
8
Layer 1
10
400.744480
20
338.857935
11
398.953493
21
337.859537
0
LINE
8
Layer 1
10
398.953493
20
337.859537
11
397.392905
21
336.757409
0
LINE
8
Layer 1
10
397.392905
20
336.757409
11
396.101664
21
335.570889
0
LINE
8
Layer 1
10
396.101664
20
335.570889
11
395.118720
21
334.319320
0
LINE
8
Layer 1
10
395.118720
20
334.319320
11
394.381867
21
332.811105
0
LINE
8
Layer 1
10
394.381867
20
332.811105
11
393.561995
21
330.568121
0
LINE
8
Layer 1
10
393.561995
20
330.568121
11
391.931930
21
324.905299
0
LINE
8
Layer 1
10
391.931930
20
324.905299
11
390.746000
21
319.385762
0
LINE
8
Layer 1
10
390.746000
20
319.385762
11
390.481296
21
317.321885
0
LINE
8
Layer 1
10
390.481296
20
317.321885
11
390.521680
21
316.064420
0
LINE
8
Layer 1
10
390.521680
20
316.064420
11
390.753983
21
315.746582
0
LINE
8
Layer 1
10
390.753983
20
315.746582
11
391.268585
21
315.374265
0
LINE
8
Layer 1
10
391.268585
20
315.374265
11
393.012572
21
314.507038
0
LINE
8
Layer 1
10
393.012572
20
314.507038
11
398.434854
21
312.568157
0
LINE
8
Layer 1
10
398.434854
20
312.568157
11
404.674648
21
310.901351
0
LINE
8
Layer 1
10
404.674648
20
310.901351
11
407.440527
21
310.374216
0
LINE
8
Layer 1
10
407.440527
20
310.374216
11
409.618080
21
310.160190
0
LINE
8
Layer 1
10
409.618080
20
310.160190
11
413.181104
21
310.384471
0
LINE
8
Layer 1
10
413.181104
20
310.384471
11
414.738567
21
310.665975
0
LINE
8
Layer 1
10
414.738567
20
310.665975
11
415.873010
21
311.022653
0
LINE
8
Layer 1
10
415.873010
20
311.022653
11
415.873000
21
311.022710
0
LINE
8
Layer 1
10
166.668000
20
332.519000
11
167.598957
21
333.251111
0
LINE
8
Layer 1
10
167.598957
20
333.251111
11
168.538020
21
334.258787
0
LINE
8
Layer 1
10
168.538020
20
334.258787
11
169.375765
21
335.409129
0
LINE
8
Layer 1
10
169.375765
20
335.409129
11
170.002770
21
336.569240
0
LINE
8
Layer 1
10
170.002770
20
336.569240
11
170.696597
21
338.761958
0
LINE
8
Layer 1
10
170.696597
20
338.761958
11
170.812987
21
340.725694
0
LINE
8
Layer 1
10
170.812987
20
340.725694
11
170.385514
21
342.425253
0
LINE
8
Layer 1
10
170.385514
20
342.425253
11
169.447756
21
343.825438
0
LINE
8
Layer 1
10
169.447756
20
343.825438
11
168.033289
21
344.891052
0
LINE
8
Layer 1
10
168.033289
20
344.891052
11
166.175690
21
345.586900
0
LINE
8
Layer 1
10
166.175690
20
345.586900
11
163.908535
21
345.877784
0
LINE
8
Layer 1
10
163.908535
20
345.877784
11
161.265400
21
345.728510
0
LINE
8
Layer 1
10
161.265400
20
345.728510
11
157.416541
21
344.951749
0
LINE
8
Layer 1
10
157.416541
20
344.951749
11
154.228144
21
343.814615
0
LINE
8
Layer 1
10
154.228144
20
343.814615
11
152.973124
21
343.153082
0
LINE
8
Layer 1
10
152.973124
20
343.153082
11
151.993025
21
342.452064
0
LINE
8
Layer 1
10
151.993025
20
342.452064
11
151.324450
21
341.728430
0
LINE
8
Layer 1
10
151.324450
20
341.728430
11
151.004000
21
340.999050
0
LINE
8
Layer 1
10
151.004000
20
340.999050
11
150.913393
21
339.951250
0
LINE
8
Layer 1
10
150.913393
20
339.951250
11
151.001598
21
338.838030
0
LINE
8
Layer 1
10
151.001598
20
338.838030
11
151.652181
21
336.563846
0
LINE
8
Layer 1
10
151.652181
20
336.563846
11
152.831224
21
334.473542
0
LINE
8
Layer 1
10
152.831224
20
334.473542
11
153.580003
21
333.590171
0
LINE
8
Layer 1
10
153.580003
20
333.590171
11
154.414200
21
332.864160
0
LINE
8
Layer 1
10
154.414200
20
332.864160
11
155.626627
21
332.180529
0
LINE
8
Layer 1
10
155.626627
20
332.180529
11
157.090443
21
331.675384
0
LINE
8
Layer 1
10
157.090443
20
331.675384
11
158.725568
21
331.350978
0
LINE
8
Layer 1
10
158.725568
20
331.350978
11
160.451921
21
331.209569
0
LINE
8
Layer 1
10
160.451921
20
331.209569
11
162.189422
21
331.253412
0
LINE
8
Layer 1
10
162.189422
20
331.253412
11
163.857989
21
331.484761
0
LINE
8
Layer 1
10
163.857989
20
331.484761
11
165.377542
21
331.905873
0
LINE
8
Layer 1
10
165.377542
20
331.905873
11
166.668000
21
332.519004
0
LINE
8
Layer 1
10
166.668000
20
332.519004
11
166.668000
21
332.519000
0
LINE
8
Layer 1
10
441.420000
20
342.960000
11
443.084893
21
344.041163
0
LINE
8
Layer 1
10
443.084893
20
344.041163
11
444.427599
21
345.409371
0
LINE
8
Layer 1
10
444.427599
20
345.409371
11
445.424811
21
346.974134
0
LINE
8
Layer 1
10
445.424811
20
346.974134
11
446.053221
21
348.644960
0
LINE
8
Layer 1
10
446.053221
20
348.644960
11
446.289523
21
350.331360
0
LINE
8
Layer 1
10
446.289523
20
350.331360
11
446.110408
21
351.942844
0
LINE
8
Layer 1
10
446.110408
20
351.942844
11
445.492569
21
353.388920
0
LINE
8
Layer 1
10
445.492569
20
353.388920
11
444.412700
21
354.579100
0
LINE
8
Layer 1
10
444.412700
20
354.579100
11
443.122675
21
355.317975
0
LINE
8
Layer 1
10
443.122675
20
355.317975
11
441.432453
21
355.891374
0
LINE
8
Layer 1
10
441.432453
20
355.891374
11
439.472454
21
356.291553
0
LINE
8
Layer 1
10
439.472454
20
356.291553
11
437.373097
21
356.510773
0
LINE
8
Layer 1
10
437.373097
20
356.510773
11
435.264804
21
356.541293
0
LINE
8
Layer 1
10
435.264804
20
356.541293
11
433.277993
21
356.375370
0
LINE
8
Layer 1
10
433.277993
20
356.375370
11
431.543085
21
356.005265
0
LINE
8
Layer 1
10
431.543085
20
356.005265
11
430.190500
21
355.423236
0
LINE
8
Layer 1
10
430.190500
20
355.423236
11
429.044738
21
354.613179
0
LINE
8
Layer 1
10
429.044738
20
354.613179
11
428.131314
21
353.740755
0
LINE
8
Layer 1
10
428.131314
20
353.740755
11
427.449461
21
352.803595
0
LINE
8
Layer 1
10
427.449461
20
352.803595
11
426.998414
21
351.799331
0
LINE
8
Layer 1
10
426.998414
20
351.799331
11
426.777406
21
350.725594
0
LINE
8
Layer 1
10
426.777406
20
350.725594
11
426.785672
21
349.580017
0
LINE
8
Layer 1
10
426.785672
20
349.580017
11
427.022445
21
348.360230
0
LINE
8
Layer 1
10
427.022445
20
348.360230
11
427.486960
21
347.063866
0
LINE
8
Layer 1
10
427.486960
20
347.063866
11
428.468587
21
345.390552
0
LINE
8
Layer 1
10
428.468587
20
345.390552
11
429.799571
21
344.009817
0
LINE
8
Layer 1
10
429.799571
20
344.009817
11
431.413807
21
342.941133
0
LINE
8
Layer 1
10
431.413807
20
342.941133
11
433.245189
21
342.203971
0
LINE
8
Layer 1
10
433.245189
20
342.203971
11
435.227611
21
341.817801
0
LINE
8
Layer 1
10
435.227611
20
341.817801
11
437.294967
21
341.802095
0
LINE
8
Layer 1
10
437.294967
20
341.802095
11
439.381152
21
342.176323
0
LINE
8
Layer 1
10
439.381152
20
342.176323
11
441.420060
21
342.959956
0
LINE
8
Layer 1
10
441.420060
20
342.959956
11
441.420000
21
342.960000
0
LINE
8
Layer 1
10
162.570000
20
353.238000
11
165.086164
21
354.948667
0
LINE
8
Layer 1
10
165.086164
20
354.948667
11
166.829760
21
356.737593
0
LINE
8
Layer 1
10
166.829760
20
356.737593
11
167.361895
21
357.594130
0
LINE
8
Layer 1
10
167.361895
20
357.594130
11
167.640949
21
358.389504
0
LINE
8
Layer 1
10
167.640949
20
358.389504
11
167.646940
21
359.096808
0
LINE
8
Layer 1
10
167.646940
20
359.096808
11
167.359890
21
359.689130
0
LINE
8
Layer 1
10
167.359890
20
359.689130
11
166.394726
21
360.037308
0
LINE
8
Layer 1
10
166.394726
20
360.037308
11
164.313558
21
360.325045
0
LINE
8
Layer 1
10
164.313558
20
360.325045
11
157.984310
21
360.603948
0
LINE
8
Layer 1
10
157.984310
20
360.603948
11
153.625886
21
360.549679
0
LINE
8
Layer 1
10
153.625886
20
360.549679
11
150.609293
21
360.315701
0
LINE
8
Layer 1
10
150.609293
20
360.315701
11
148.529408
21
359.846083
0
LINE
8
Layer 1
10
148.529408
20
359.846083
11
146.981110
21
359.084898
0
LINE
8
Layer 1
10
146.981110
20
359.084898
11
145.347005
21
357.764885
0
LINE
8
Layer 1
10
145.347005
20
357.764885
11
144.125601
21
356.236231
0
LINE
8
Layer 1
10
144.125601
20
356.236231
11
143.360665
21
354.569339
0
LINE
8
Layer 1
10
143.360665
20
354.569339
11
143.095960
21
352.834618
0
LINE
8
Layer 1
10
143.095960
20
352.834618
11
143.255274
21
352.324067
0
LINE
8
Layer 1
10
143.255274
20
352.324067
11
143.711020
21
351.888171
0
LINE
8
Layer 1
10
143.711020
20
351.888171
11
144.429898
21
351.526238
0
LINE
8
Layer 1
10
144.429898
20
351.526238
11
145.378612
21
351.237579
0
LINE
8
Layer 1
10
145.378612
20
351.237579
11
147.832356
21
350.877326
0
LINE
8
Layer 1
10
147.832356
20
350.877326
11
150.805872
21
350.801894
0
LINE
8
Layer 1
10
150.805872
20
350.801894
11
154.032781
21
351.005763
0
LINE
8
Layer 1
10
154.032781
20
351.005763
11
157.246702
21
351.483416
0
LINE
8
Layer 1
10
157.246702
20
351.483416
11
160.181255
21
352.229336
0
LINE
8
Layer 1
10
160.181255
20
352.229336
11
162.570060
21
353.238003
0
LINE
8
Layer 1
10
162.570060
20
353.238003
11
162.570000
21
353.238000
0
LINE
8
Layer 1
10
450.507000
20
363.685100
11
452.595253
21
364.984777
0
LINE
8
Layer 1
10
452.595253
20
364.984777
11
453.175296
21
365.551435
0
LINE
8
Layer 1
10
453.175296
20
365.551435
11
453.456464
21
366.106470
0
LINE
8
Layer 1
10
453.456464
20
366.106470
11
453.446640
21
366.682754
0
LINE
8
Layer 1
10
453.446640
20
366.682754
11
453.153710
21
367.313160
0
LINE
8
Layer 1
10
453.153710
20
367.313160
11
451.750070
21
368.867830
0
LINE
8
Layer 1
10
451.750070
20
368.867830
11
450.022019
21
370.092398
0
LINE
8
Layer 1
10
450.022019
20
370.092398
11
447.799263
21
371.053854
0
LINE
8
Layer 1
10
447.799263
20
371.053854
11
445.205596
21
371.741332
0
LINE
8
Layer 1
10
445.205596
20
371.741332
11
442.364811
21
372.143965
0
LINE
8
Layer 1
10
442.364811
20
372.143965
11
439.400703
21
372.250886
0
LINE
8
Layer 1
10
439.400703
20
372.250886
11
436.437064
21
372.051228
0
LINE
8
Layer 1
10
436.437064
20
372.051228
11
433.597688
21
371.534125
0
LINE
8
Layer 1
10
433.597688
20
371.534125
11
431.006370
21
370.688710
0
LINE
8
Layer 1
10
431.006370
20
370.688710
11
429.695633
21
369.970961
0
LINE
8
Layer 1
10
429.695633
20
369.970961
11
428.948782
21
369.162812
0
LINE
8
Layer 1
10
428.948782
20
369.162812
11
428.754611
21
368.281747
0
LINE
8
Layer 1
10
428.754611
20
368.281747
11
429.101910
21
367.345251
0
LINE
8
Layer 1
10
429.101910
20
367.345251
11
429.979472
21
366.370810
0
LINE
8
Layer 1
10
429.979472
20
366.370810
11
431.376090
21
365.375907
0
LINE
8
Layer 1
10
431.376090
20
365.375907
11
433.280555
21
364.378029
0
LINE
8
Layer 1
10
433.280555
20
364.378029
11
435.681660
21
363.394660
0
LINE
8
Layer 1
10
435.681660
20
363.394660
11
437.626143
21
362.787326
0
LINE
8
Layer 1
10
437.626143
20
362.787326
11
439.616838
21
362.365305
0
LINE
8
Layer 1
10
439.616838
20
362.365305
11
441.617594
21
362.127888
0
LINE
8
Layer 1
10
441.617594
20
362.127888
11
443.592263
21
362.074368
0
LINE
8
Layer 1
10
443.592263
20
362.074368
11
445.504693
21
362.204037
0
LINE
8
Layer 1
10
445.504693
20
362.204037
11
447.318736
21
362.516186
0
LINE
8
Layer 1
10
447.318736
20
362.516186
11
448.998242
21
363.010108
0
LINE
8
Layer 1
10
448.998242
20
363.010108
11
450.507060
21
363.685095
0
LINE
8
Layer 1
10
450.507060
20
363.685095
11
450.507000
21
363.685100
0
LINE
8
Layer 1
10
158.306000
20
364.963060
11
159.873480
21
365.920162
0
LINE
8
Layer 1
10
159.873480
20
365.920162
11
161.158274
21
366.886655
0
LINE
8
Layer 1
10
161.158274
20
366.886655
11
162.155155
21
367.853589
0
LINE
8
Layer 1
10
162.155155
20
367.853589
11
162.858900
21
368.812018
0
LINE
8
Layer 1
10
162.858900
20
368.812018
11
163.264284
21
369.752993
0
LINE
8
Layer 1
10
163.264284
20
369.752993
11
163.366081
21
370.667567
0
LINE
8
Layer 1
10
163.366081
20
370.667567
11
163.159068
21
371.546792
0
LINE
8
Layer 1
10
163.159068
20
371.546792
11
162.638020
21
372.381720
0
LINE
8
Layer 1
10
162.638020
20
372.381720
11
162.164078
21
372.753534
0
LINE
8
Layer 1
10
162.164078
20
372.753534
11
161.433109
21
373.073234
0
LINE
8
Layer 1
10
161.433109
20
373.073234
11
159.336290
21
373.557369
0
LINE
8
Layer 1
10
159.336290
20
373.557369
11
156.619952
21
373.836287
0
LINE
8
Layer 1
10
156.619952
20
373.836287
11
153.556485
21
373.912146
0
LINE
8
Layer 1
10
153.556485
20
373.912146
11
150.418279
21
373.787108
0
LINE
8
Layer 1
10
150.418279
20
373.787108
11
147.477722
21
373.463331
0
LINE
8
Layer 1
10
147.477722
20
373.463331
11
145.007206
21
372.942976
0
LINE
8
Layer 1
10
145.007206
20
372.942976
11
143.279120
21
372.228202
0
LINE
8
Layer 1
10
143.279120
20
372.228202
11
142.384972
21
371.561571
0
LINE
8
Layer 1
10
142.384972
20
371.561571
11
141.704443
21
370.849389
0
LINE
8
Layer 1
10
141.704443
20
370.849389
11
141.239018
21
370.100032
0
LINE
8
Layer 1
10
141.239018
20
370.100032
11
140.990182
21
369.321878
0
LINE
8
Layer 1
10
140.990182
20
369.321878
11
140.959422
21
368.523304
0
LINE
8
Layer 1
10
140.959422
20
368.523304
11
141.148221
21
367.712687
0
LINE
8
Layer 1
10
141.148221
20
367.712687
11
141.558065
21
366.898404
0
LINE
8
Layer 1
10
141.558065
20
366.898404
11
142.190440
21
366.088832
0
LINE
8
Layer 1
10
142.190440
20
366.088832
11
143.664525
21
364.811666
0
LINE
8
Layer 1
10
143.664525
20
364.811666
11
145.397665
21
363.851887
0
LINE
8
Layer 1
10
145.397665
20
363.851887
11
147.337527
21
363.213151
0
LINE
8
Layer 1
10
147.337527
20
363.213151
11
149.431779
21
362.899113
0
LINE
8
Layer 1
10
149.431779
20
362.899113
11
151.628088
21
362.913430
0
LINE
8
Layer 1
10
151.628088
20
362.913430
11
153.874123
21
363.259757
0
LINE
8
Layer 1
10
153.874123
20
363.259757
11
156.117551
21
363.941749
0
LINE
8
Layer 1
10
156.117551
20
363.941749
11
158.306040
21
364.963062
0
LINE
8
Layer 1
10
158.306040
20
364.963062
11
158.306000
21
364.963060
0
LINE
8
Layer 1
10
452.081000
20
376.157960
11
453.081081
21
377.111132
0
LINE
8
Layer 1
10
453.081081
20
377.111132
11
453.776082
21
378.211534
0
LINE
8
Layer 1
10
453.776082
20
378.211534
11
454.168638
21
379.401990
0
LINE
8
Layer 1
10
454.168638
20
379.401990
11
454.261385
21
380.625324
0
LINE
8
Layer 1
10
454.261385
20
380.625324
11
454.056960
21
381.824359
0
LINE
8
Layer 1
10
454.056960
20
381.824359
11
453.557998
21
382.941920
0
LINE
8
Layer 1
10
453.557998
20
382.941920
11
452.767136
21
383.920829
0
LINE
8
Layer 1
10
452.767136
20
383.920829
11
451.687010
21
384.703910
0
LINE
8
Layer 1
10
451.687010
20
384.703910
11
449.503648
21
385.598845
0
LINE
8
Layer 1
10
449.503648
20
385.598845
11
447.023217
21
386.126620
0
LINE
8
Layer 1
10
447.023217
20
386.126620
11
444.376287
21
386.303039
0
LINE
8
Layer 1
10
444.376287
20
386.303039
11
441.693432
21
386.143906
0
LINE
8
Layer 1
10
441.693432
20
386.143906
11
439.105225
21
385.665027
0
LINE
8
Layer 1
10
439.105225
20
385.665027
11
436.742237
21
384.882204
0
LINE
8
Layer 1
10
436.742237
20
384.882204
11
434.735041
21
383.811244
0
LINE
8
Layer 1
10
434.735041
20
383.811244
11
433.214210
21
382.467950
0
LINE
8
Layer 1
10
433.214210
20
382.467950
11
432.247497
21
381.238138
0
LINE
8
Layer 1
10
432.247497
20
381.238138
11
431.856674
21
380.391315
0
LINE
8
Layer 1
10
431.856674
20
380.391315
11
431.996871
21
379.641677
0
LINE
8
Layer 1
10
431.996871
20
379.641677
11
432.623220
21
378.703420
0
LINE
8
Layer 1
10
432.623220
20
378.703420
11
433.636302
21
377.729466
0
LINE
8
Layer 1
10
433.636302
20
377.729466
11
435.265224
21
376.833169
0
LINE
8
Layer 1
10
435.265224
20
376.833169
11
437.790498
21
375.890339
0
LINE
8
Layer 1
10
437.790498
20
375.890339
11
441.492640
21
374.776790
0
LINE
8
Layer 1
10
441.492640
20
374.776790
11
442.590059
21
374.584240
0
LINE
8
Layer 1
10
442.590059
20
374.584240
11
443.957520
21
374.522829
0
LINE
8
Layer 1
10
443.957520
20
374.522829
11
447.091704
21
374.739832
0
LINE
8
Layer 1
10
447.091704
20
374.739832
11
450.073455
21
375.320609
0
LINE
8
Layer 1
10
450.073455
20
375.320609
11
451.250377
21
375.713916
0
LINE
8
Layer 1
10
451.250377
20
375.713916
11
452.081040
21
376.157970
0
LINE
8
Layer 1
10
452.081040
20
376.157970
11
452.081000
21
376.157960
 0 
ENDSEC
 0 
EOF