0
SECTION
2
HEADER
9
$INSUNITS
70
4
9
$ACADVER
1
AC1014
9
$HANDSEED
5
FFFF
0
ENDSEC
0
SECTION
2
TABLES
0
TABLE
2
VPORT
5
8
100
AcDbSymbolTable
0
ENDTAB
0
TABLE
2
LTYPE
5
5
100
AcDbSymbolTable
0
LTYPE
5
14
100
AcDbSymbolTableRecord
100
AcDbLinetypeTableRecord
2
BYBLOCK
70
0
0
LTYPE
5
15
100
AcDbSymbolTableRecord
100
AcDbLinetypeTableRecord
2
BYLAYER
70
0
0
ENDTAB
0
TABLE
2
LAYER
5
2
100
AcDbSymbolTable
70
2
0
LAYER
5
50
100
AcDbSymbolTableRecord
100
AcDbLayerTableRecord
2
0
70
0
6
CONTINUOUS
0
ENDTAB
0
TABLE
2
STYLE
5
3
100
AcDbSymbolTable
70
1
0
STYLE
5
11
100
AcDbSymbolTableRecord
100
AcDbTextStyleTableRecord
2
STANDARD
70
0
0
ENDTAB
0
TABLE
2
VIEW
5
6
100
AcDbSymbolTable
70
0
0
ENDTAB
0
TABLE
2
UCS
5
7
100
AcDbSymbolTable
70
0
0
ENDTAB
0
TABLE
2
APPID
5
9
100
AcDbSymbolTable
70
2
0
APPID
5
12
100
AcDbSymbolTableRecord
100
AcDbRegAppTableRecord
2
ACAD
70
0
0
ENDTAB
0
TABLE
2
DIMSTYLE
5
A
100
AcDbSymbolTable
70
1
0
ENDTAB
0
TABLE
2
BLOCK_RECORD
5
1
100
AcDbSymbolTable
70
1
0
BLOCK_RECORD
5
1F
100
AcDbSymbolTableRecord
100
AcDbBlockTableRecord
2
*MODEL_SPACE
0
BLOCK_RECORD
5
1B
100
AcDbSymbolTableRecord
100
AcDbBlockTableRecord
2
*PAPER_SPACE
0
ENDTAB
0
ENDSEC
0
SECTION
2
BLOCKS
0
BLOCK
5
20
100
AcDbEntity
100
AcDbBlockBegin
2
*MODEL_SPACE
0
ENDBLK
5
21
100
AcDbEntity
100
AcDbBlockEnd
0
BLOCK
5
1C
100
AcDbEntity
100
AcDbBlockBegin
2
*PAPER_SPACE
0
ENDBLK
5
1D
100
AcDbEntity
100
AcDbBlockEnd
0
ENDSEC
0
SECTION
2
ENTITIES
0
ELLIPSE
5
100
100
AcDbEntity
8
0
100
AcDbEllipse
10
79.714632464655836
20
141.29305727635136
30
4.4408920985006262e-15
11
-12.070501896456502
21
15.946880070021221
31
0.0
40
0.2203785409627366
41
1.0687178439769989
42
1.8541160073744432
0
LINE
5
101
100
AcDbEntity
8
0
100
AcDbLine
10
70.825097237810283
20
146.63568634274179
30
4.7626019983154863e-15
11
60.364099350830138
21
164.59205411230201
31
9.9920072216264089e-15
0
ELLIPSE
5
102
100
AcDbEntity
8
0
100
AcDbEllipse
10
63.475062718671531
20
166.94680244341521
30
4.4408920985006262e-15
11
1.7593629320340318
21
-4.7315354891805868
31
0.0
40
0.7592256634986001
41
4.256967657175557
42
4.9367002384730698
0
LINE
5
103
100
AcDbEntity
8
0
100
AcDbLine
10
79.714632464657768
20
134.28116489879807
30
4.7932646473110651e-15
11
94.300487660693847
21
117.37974485625372
31
-7.7715611723760958e-15
0
ELLIPSE
5
104
100
AcDbEntity
8
0
100
AcDbEllipse
10
178.80543400273467
20
44.054704542389885
30
2.2204460492503131e-15
11
4
21
3.9157656440348455e-14
31
0.0
40
0.93652731578634518
41
4.6067233982847604
42
5.3921215616822034
0
LINE
5
105
100
AcDbEntity
8
0
100
AcDbLine
10
126.8320739907716
20
45.450028416669916
30
-4.4408920985006262e-15
11
143.74796266486067
21
43.769795951538519
31
-2.3592239273284576e-15
0
LINE
5
106
100
AcDbEntity
8
0
100
AcDbLine
10
144.5668717241609
20
44.389644054108246
30
2.2204460492503131e-15
11
157.8112217249647
21
43.074100586090481
31
1.3183898417423734e-15
0
LINE
5
107
100
AcDbEntity
8
0
100
AcDbLine
10
157.8112217249647
20
43.074100586090481
30
1.3183898417423734e-15
11
157.8112217249647
21
42.372911348335016
31
3.7123082385903672e-15
0
LINE
5
108
100
AcDbEntity
8
0
100
AcDbLine
10
157.8112217249647
20
42.372911348335016
30
3.7123082385903672e-15
11
178.3835577546806
21
40.329488886370733
31
2.3873403459062176e-15
0
ELLIPSE
5
109
100
AcDbEntity
8
0
100
AcDbEllipse
10
94.667944977981691
20
191.29293409260868
30
1.3322676295501878e-14
11
-1.6499999999999915
21
-1.4403624811520516e-14
31
0.0
40
0.93652731578634529
41
0.86339946674990709
42
2.2781931868398639
0
ELLIPSE
5
110
100
AcDbEntity
8
0
100
AcDbEllipse
10
70.567311767314436
20
173.05069877147827
30
4.4408920985006262e-15
11
-1.6499999999999915
21
-1.4403624811520516e-14
31
0.0
40
0.93652731578634529
41
0.86339946674990553
42
2.2781931868398528
0
ELLIPSE
5
111
100
AcDbEntity
8
0
100
AcDbEllipse
10
114.14653894276475
20
168.72203276307121
30
4.4408920985006262e-15
11
-1.6500000000000008
21
-1.5105597079833451e-14
31
0.0
40
0.93652731578634496
41
0.86339946674994172
42
2.2781931868398639
0
ELLIPSE
5
112
100
AcDbEntity
8
0
100
AcDbEllipse
10
92.356925355039579
20
170.88636576727475
30
4.4408920985006262e-15
11
-13.049000000000081
21
-1.231106773594082e-13
31
0.0
40
0.93652731578634507
41
0.096254979252131584
42
3.0453376743376563
0
ELLIPSE
5
113
100
AcDbEntity
8
0
100
AcDbEllipse
10
90.045905732097467
20
150.47979744194078
30
4.4408920985006262e-15
11
-1.6500000000000008
21
-1.5105597079833451e-14
31
0.0
40
0.93652731578634496
41
0.86339946674992174
42
2.2781931868398915
0
ELLIPSE
5
114
100
AcDbEntity
8
0
100
AcDbEllipse
10
130.74584042475053
20
112.69599463051085
30
-8.8817841970012523e-15
11
5
21
3.9282391490726548e-14
31
0.0
40
0.9365273157863454
41
4.8444087191439058
42
5.0173453194290634
0
ELLIPSE
5
115
100
AcDbEntity
8
0
100
AcDbEllipse
10
127.52833721554151
20
71.727364768012151
30
-6.6613381477509392e-15
11
5
21
3.7047572533991728e-14
31
0.0
40
0.9365273157863454
41
4.407432641340324
42
5.0173453194290545
0
ELLIPSE
5
116
100
AcDbEntity
8
0
100
AcDbEllipse
10
107.41361516593997
20
95.035382147165436
30
-1.1102230246251565e-14
11
5
21
3.9282391490726548e-14
31
0.0
40
0.9365273157863454
41
4.8444087191439529
42
5.0173453194290598
0
ELLIPSE
5
117
100
AcDbEntity
8
0
100
AcDbEllipse
10
150.86056247435207
20
89.387977251357569
30
-1.3322676295501878e-14
11
5
21
3.7047572533991728e-14
31
0.0
40
0.9365273157863454
41
4.4074326413403213
42
5.0173453194290554
0
ELLIPSE
5
118
100
AcDbEntity
8
0
100
AcDbEllipse
10
108.6277128873168
20
155.68087736112474
30
-4.4408920985006262e-15
11
-1.4250000000000007
21
-1.2856574020582149e-14
31
0.0
40
0.93652731578634496
41
1.075999025522937
42
2.0655936280668867
0
LINE
5
119
100
AcDbEntity
8
0
100
AcDbLine
10
185.00554143814341
20
60.996572890816211
30
-1.7763568394002505e-14
11
187.8085794595325
21
57.748540988816472
31
-2.2343238370581275e-14
0
LINE
5
120
100
AcDbEntity
8
0
100
AcDbLine
10
123.54100383820978
20
158.67943969073147
30
4.4408920985006262e-15
11
197.59202655218729
21
72.872510810218643
31
-4.4408920985006262e-15
0
ELLIPSE
5
121
100
AcDbEntity
8
0
100
AcDbEllipse
10
120.10632219750022
20
166.2183513500616
30
1.3322676295501878e-14
11
4
21
3.396261529410909e-14
31
0.0
40
0.93652731578634518
41
6.2831853071795791
42
6.9629178884765111
0
LINE
5
122
100
AcDbEntity
8
0
100
AcDbLine
10
123.21728556534309
20
168.57309968117261
30
1.34316470614121e-14
11
98.473400606895467
21
197.24517872943255
31
8.8817841970012523e-15
0
ELLIPSE
5
123
100
AcDbEntity
8
0
100
AcDbEllipse
10
95.36243723905261
20
194.89043039832151
30
4.4408920985006262e-15
11
4
21
3.4671322038998469e-14
31
0.0
40
0.9365273157863454
41
0.67973258129693526
42
2.250528908092075
0
LINE
5
124
100
AcDbEntity
8
0
100
AcDbLine
10
92.848096982853463
20
197.80393257071643
30
4.3289642080754784e-15
11
60.960722462472319
21
173.66776217682232
31
-4.4408920985006262e-15
0
ELLIPSE
5
125
100
AcDbEntity
8
0
100
AcDbEllipse
10
63.475062718671481
20
170.75426000442744
30
-1.3322676295501878e-14
11
3.9999999999999996
21
3.4437113739755064e-14
31
0.0
40
0.93652731578634552
41
2.2505289080920767
42
3.1415926535898002
0
LINE
5
126
100
AcDbEntity
8
0
100
AcDbLine
10
92.044199174457475
20
97.456458745238379
30
-8.8817841970012523e-15
11
94.300487660693847
21
117.37974485625372
31
-7.7715611723760958e-15
0
ELLIPSE
5
127
100
AcDbEntity
8
0
100
AcDbEllipse
10
96.021889513250557
20
97.061360115054271
30
-6.6613381477509392e-15
11
-4
21
-3.3199171924787058e-14
31
0.0
40
0.93652731578634518
41
6.1775197250796507
42
6.2831853071795898
0
ELLIPSE
5
128
100
AcDbEntity
8
0
100
AcDbEllipse
10
120.10632219750023
20
163.86936740358078
30
-4.4408920985006262e-15
11
-4
21
-3.3223499313423794e-14
31
0.0
40
0.93652731578634496
41
3.0359270714898505
42
3.1415926535897931
0
ELLIPSE
5
129
100
AcDbEntity
8
0
100
AcDbEllipse
10
108.62771288731682
20
153.33189341464393
30
0
11
1.4250000000000009
21
9.5040192707712404e-15
31
0.0
40
0.93652731578634485
41
1.0759990255228995
42
2.0655936280668685
0
LINE
5
130
100
AcDbEntity
8
0
100
AcDbLine
10
124.0840125362933
20
163.47426877339666
30
-4.385025123245744e-15
11
123.54100383820978
21
158.67943969073147
31
4.4408920985006262e-15
0
LINE
5
131
100
AcDbEntity
8
0
100
AcDbLine
10
197.59202655218729
20
70.523526863737814
30
-1.9984014443252818e-14
11
185.00554143814341
21
60.996572890816211
31
-1.7763568394002505e-14
0
ELLIPSE
5
132
100
AcDbEntity
8
0
100
AcDbEllipse
10
94.667944977981691
20
188.94395014612786
30
-4.4408920985006262e-15
11
1.6499999999999915
21
1.1968556875698395e-14
31
0.0
40
0.93652731578634518
41
2.2505289080924045
42
2.2781931868398386
0
ELLIPSE
5
133
100
AcDbEntity
8
0
100
AcDbEllipse
10
94.667944977981691
20
188.94395014612786
30
-4.4408920985006262e-15
11
1.6499999999999915
21
1.1968556875698395e-14
31
0.0
40
0.93652731578634518
41
0.86339946674990009
42
2.2505289080924045
0
ELLIPSE
5
134
100
AcDbEntity
8
0
100
AcDbEllipse
10
70.567311767314436
20
170.70171482499745
30
4.4408920985006262e-15
11
1.6499999999999915
21
1.1968556875698395e-14
31
0.0
40
0.93652731578634518
41
2.250528908092408
42
2.2781931868398586
0
ELLIPSE
5
135
100
AcDbEntity
8
0
100
AcDbEllipse
10
70.567311767314436
20
170.70171482499745
30
4.4408920985006262e-15
11
1.6499999999999915
21
1.1968556875698395e-14
31
0.0
40
0.93652731578634518
41
0.86339946674990165
42
2.250528908092408
0
ELLIPSE
5
136
100
AcDbEntity
8
0
100
AcDbEllipse
10
114.14653894276475
20
166.37304881659037
30
1.3322676295501878e-14
11
1.6500000000000008
21
1.1840472393211778e-14
31
0.0
40
0.93652731578634463
41
2.2505289080924058
42
2.2781931868398515
0
ELLIPSE
5
137
100
AcDbEntity
8
0
100
AcDbEllipse
10
114.14653894276475
20
166.37304881659037
30
1.3322676295501878e-14
11
1.6500000000000008
21
1.1840472393211778e-14
31
0.0
40
0.93652731578634463
41
0.86339946674991086
42
2.2505289080924058
0
ELLIPSE
5
138
100
AcDbEntity
8
0
100
AcDbEllipse
10
92.356925355039593
20
168.53738182079394
30
4.4408920985006262e-15
11
13.049000000000079
21
9.6817091216572255e-14
31
0.0
40
0.93652731578634507
41
2.2505289080924111
42
3.0453376743376563
0
ELLIPSE
5
139
100
AcDbEntity
8
0
100
AcDbEllipse
10
92.356925355039593
20
168.53738182079394
30
4.4408920985006262e-15
11
13.049000000000079
21
9.6817091216572255e-14
31
0.0
40
0.93652731578634507
41
0.096254979252134859
42
2.2505289080924111
0
ELLIPSE
5
140
100
AcDbEntity
8
0
100
AcDbEllipse
10
90.045905732097481
20
148.13081349545999
30
-8.8817841970012523e-15
11
1.6500000000000008
21
1.1840472393211778e-14
31
0.0
40
0.93652731578634463
41
2.2505289080924169
42
2.2781931868398715
0
ELLIPSE
5
141
100
AcDbEntity
8
0
100
AcDbEllipse
10
90.045905732097481
20
148.13081349545999
30
-8.8817841970012523e-15
11
1.6500000000000008
21
1.1840472393211778e-14
31
0.0
40
0.93652731578634463
41
0.86339946674991086
42
2.2505289080924169
0
ELLIPSE
5
142
100
AcDbEntity
8
0
100
AcDbEllipse
10
127.25395023882571
20
49.175244072689082
30
2.2204460492503131e-15
11
4.0000000000000009
21
3.539219247820621e-14
31
0.0
40
0.93652731578634529
41
3.8213252348873064
42
4.6067233982847542
0
LINE
5
143
100
AcDbEntity
8
0
100
AcDbLine
10
94.132358541450643
20
79.842462362446156
30
4.4408920985006262e-15
11
92.910926145409292
21
81.257802203791684
31
4.9266146717741321e-15
0
LINE
5
144
100
AcDbEntity
8
0
100
AcDbLine
10
95.047427376653459
20
80.535095658878134
30
8.8817841970012523e-15
11
102.98535971000081
21
71.336983732500997
31
6.106226635438361e-15
0
ELLIPSE
5
145
100
AcDbEntity
8
0
100
AcDbEllipse
10
108.52695650819672
20
63.260828918775552
30
0
11
6.0352509482283985
21
-7.9734400350105545
31
0.0
40
0.22037854096286161
41
0.77487769076707169
42
2.9333543239818067
0
LINE
5
146
100
AcDbEntity
8
0
100
AcDbLine
10
114.06855330639259
20
58.494287307255888
30
0
11
124.14298687098432
21
46.820495741576352
31
2.3410433536775454e-15
0
ELLIPSE
5
147
100
AcDbEntity
8
0
100
AcDbEllipse
10
96.021889513250684
20
83.612550534904415
30
4.4408920985006262e-15
11
4.0000000000000018
21
4.2582536961576432e-14
31
0.0
40
0.93652731578634407
41
3.8071111938873372
42
3.8213252348873068
0
SPLINE
5
148
100
AcDbEntity
8
0
100
AcDbSpline
70
0
71
3
72
10
73
6
74
0
42
0.000000001
43
0.0000000001
44
0.0000000001
40
1.7019930187278429
40
1.7019930187278429
40
1.7019930187278429
40
1.7019930187278429
40
1.8222438361860007
40
1.8222438361860007
40
1.9878795247905847
40
1.9878795247905847
40
1.9878795247905847
40
1.9878795247905847
10
92.02188951325067
20
84.790628529022001
30
2.2204460492503131e-15
10
92.02188951325067
20
84.378046812755059
30
0
10
92.080148681151158
20
83.953521971103285
30
4.4408920985006262e-15
10
92.34013897207106
20
82.982335103846268
30
0
10
92.589175644341623
20
82.449424590797889
30
2.2204460492503131e-15
10
92.87550267596356
20
82.000640557847447
30
2.2204460492503131e-15
0
LINE
5
149
100
AcDbEntity
8
0
100
AcDbLine
10
92.875502675963531
20
82.000640557847447
30
2.2204460492503131e-15
11
92.875502675963503
21
81.299451320092004
31
4.352119877009072e-15
0
LINE
5
150
100
AcDbEntity
8
0
100
AcDbLine
10
131.9036949600515
20
108.43231729773974
30
8.8817841970012523e-15
11
131.40402328893001
21
108.0541061475088
31
-8.8881281813450251e-15
0
LINE
5
151
100
AcDbEntity
8
0
100
AcDbLine
10
108.57146970124106
20
90.771704814394269
30
8.8817841970012523e-15
11
108.07179803011969
21
90.393493664163429
31
-1.110857423059534e-14
0
LINE
5
152
100
AcDbEntity
8
0
100
AcDbLine
10
95.047427376653459
20
80.535095658878134
30
8.8817841970012523e-15
11
94.132358541450643
21
79.842462362446156
31
4.4408920985006262e-15
0
LINE
5
153
100
AcDbEntity
8
0
100
AcDbLine
10
144.5668717241609
20
44.389644054108246
30
2.2204460492503131e-15
11
143.74796266486067
21
43.769795951538519
31
-2.3592239273284576e-15
0
LINE
5
154
100
AcDbEntity
8
0
100
AcDbLine
10
181.3197742589349
20
41.141202369995739
30
2.6199583292429456e-15
11
187.80857945953258
21
46.052704503055267
31
-9.4368957093138306e-15
0
LINE
5
155
100
AcDbEntity
8
0
100
AcDbLine
10
187.80857945953258
20
46.052704503055267
30
-9.4368957093138306e-15
11
187.8085794595325
21
57.748540988816472
31
-2.2343238370581275e-14
0
LINE
5
156
100
AcDbEntity
8
0
100
AcDbLine
10
197.59202655218729
20
70.523526863737814
30
-1.9984014443252818e-14
11
197.59202655218729
21
72.872510810218643
31
-4.4408920985006262e-15
0
ELLIPSE
5
157
100
AcDbEntity
8
0
100
AcDbEllipse
10
127.52833721554155
20
65.388614058702728
30
-8.8817841970012523e-15
11
2.5
21
1.8523786266995864e-14
31
0.0
40
0.9365273157863454
41
0.92666624697449773
42
2.2149264066152936
0
ELLIPSE
5
158
100
AcDbEntity
8
0
100
AcDbEllipse
10
130.74584042475061
20
106.35724392120142
30
4.4408920985006262e-15
11
2.5
21
1.8523786266995864e-14
31
0.0
40
0.9365273157863454
41
0.92666624697450406
42
1.0892594696772424
0
ELLIPSE
5
159
100
AcDbEntity
8
0
100
AcDbEllipse
10
150.86056247435212
20
83.049226542048146
30
-2.2204460492503131e-15
11
2.5
21
1.8523786266995864e-14
31
0.0
40
0.9365273157863454
41
0.92666624697449984
42
2.2149264066153034
0
ELLIPSE
5
160
100
AcDbEntity
8
0
100
AcDbEllipse
10
107.41361516594
20
88.696631437855999
30
-2.2204460492503131e-15
11
2.5
21
1.8523786266995864e-14
31
0.0
40
0.9365273157863454
41
0.9266662469744984
42
1.0892594696771856
0
LINE
5
161
100
AcDbEntity
8
0
100
AcDbLine
10
124.10632219750022
20
166.21835135006162
30
1.3462788219720106e-14
11
124.10632219750025
21
163.86936740358081
31
-4.3847117822904575e-15
0
LINE
5
162
100
AcDbEntity
8
0
100
AcDbLine
10
92.021889513250557
20
97.061360115054214
30
-6.6525338271375821e-15
11
92.02188951325067
21
84.790628529022001
31
2.2204460492503131e-15
0
LINE
5
163
100
AcDbEntity
8
0
100
AcDbLine
10
59.475062718671481
20
170.75426000442735
30
-1.3321974410824484e-14
11
59.475062718671516
21
167.82831660726626
31
4.0033173462312756e-15
0
ELLIPSE
5
164
100
AcDbEntity
8
0
100
AcDbEllipse
10
92.356925355039309
20
176.60105805498227
30
4.4408920985006262e-15
11
2.6499999999999968
21
5.5650379671545957e-14
31
0.0
40
0.9365273157863454
41
3.428026145768694
42
5.3921215616821758
0
ELLIPSE
5
165
100
AcDbEntity
8
0
100
AcDbEllipse
10
92.356925355039309
20
176.60105805498227
30
4.4408920985006262e-15
11
2.6499999999999968
21
5.5650379671545957e-14
31
0.0
40
0.9365273157863454
41
5.3921215616821758
42
5.9967518150006658
0
ELLIPSE
5
166
100
AcDbEntity
8
0
100
AcDbEllipse
10
92.356925355039323
20
175.1986795794713
30
-1.3322676295501878e-14
11
2.6499999999999968
21
5.5650379671545957e-14
31
0.0
40
0.9365273157863454
41
0.28643349217889147
42
2.85515916141089
0
ELLIPSE
5
167
100
AcDbEntity
8
0
100
AcDbEllipse
10
92.356925355039309
20
176.60105805498227
30
4.4408920985006262e-15
11
-5
21
-1.0252965230846562e-13
31
0.0
40
0.9365273157863454
41
3.1415926535897931
42
6.2831853071795791
0
ELLIPSE
5
168
100
AcDbEntity
8
0
100
AcDbEllipse
10
92.356925355039323
20
175.1986795794713
30
-1.3322676295501878e-14
11
-5
21
-1.0252965230846562e-13
31
0.0
40
0.9365273157863454
41
2.2505289080924005
42
3.1415926535897789
0
ELLIPSE
5
169
100
AcDbEntity
8
0
100
AcDbEllipse
10
92.356925355039323
20
175.1986795794713
30
-1.3322676295501878e-14
11
-5
21
-1.0252965230846562e-13
31
0.0
40
0.9365273157863454
41
0
42
2.2505289080924005
0
LINE
5
170
100
AcDbEntity
8
0
100
AcDbLine
10
97.356925355039323
20
175.19867957947139
30
-1.3383658793905148e-14
11
97.356925355039309
21
176.60105805498236
31
4.3799096000973572e-15
0
LINE
5
171
100
AcDbEntity
8
0
100
AcDbLine
10
87.356925355039323
20
175.19867957947125
30
-1.3261693797098609e-14
11
87.356925355039309
21
176.60105805498219
31
4.501874596903896e-15
0
ELLIPSE
5
172
100
AcDbEntity
8
0
100
AcDbEllipse
10
92.460704749114257
20
168.76772163750647
30
-4.4408920985006262e-15
11
-7.9999999999999991
21
-2.3444699844057836e-14
31
0.0
40
0.93652731578634485
41
2.2505289080924147
42
3.1415926535898002
0
ELLIPSE
5
173
100
AcDbEntity
8
0
100
AcDbEllipse
10
92.460704749114257
20
168.76772163750647
30
-4.4408920985006262e-15
11
-7.9999999999999991
21
-2.3444699844057836e-14
31
0.0
40
0.93652731578634485
41
0
42
2.2505289080924147
0
ELLIPSE
5
174
100
AcDbEntity
8
0
100
AcDbEllipse
10
92.460704749114228
20
171.39718127908952
30
4.4408920985006262e-15
11
-7.9999999999999991
21
-2.3444699844057836e-14
31
0.0
40
0.93652731578634485
41
3.1415926535897967
42
3.3061145981266349
0
ELLIPSE
5
175
100
AcDbEntity
8
0
100
AcDbEllipse
10
92.460704749114228
20
171.39718127908952
30
4.4408920985006262e-15
11
-7.9999999999999991
21
-2.3444699844057836e-14
31
0.0
40
0.93652731578634485
41
6.1186633626427405
42
6.2831853071795862
0
ELLIPSE
5
176
100
AcDbEntity
8
0
100
AcDbEllipse
10
92.460704749114228
20
173.85134361123366
30
-4.4408920985006262e-15
11
-8.0000000000000036
21
-3.7977549357007534e-14
31
0.0
40
0.93652731578634474
41
2.9770707090529442
42
3.1415926535897931
0
ELLIPSE
5
177
100
AcDbEntity
8
0
100
AcDbEllipse
10
92.460704749114228
20
173.85134361123366
30
-4.4408920985006262e-15
11
-8.0000000000000036
21
-3.7977549357007534e-14
31
0.0
40
0.93652731578634474
41
6.2831853071795827
42
6.4477072517164284
0
ELLIPSE
5
178
100
AcDbEntity
8
0
100
AcDbEllipse
10
92.460704749114228
20
174.37723553955024
30
-1.3322676295501878e-14
11
-8.0000000000000053
21
-3.2952799931225322e-14
31
0.0
40
0.93652731578634474
41
3.1415926535897896
42
6.2831853071795898
0
LINE
5
179
100
AcDbEntity
8
0
100
AcDbLine
10
100.46070474911426
20
168.76772163750655
30
-4.1543583047596414e-15
11
100.46070474911424
21
171.39718127908958
31
4.7274258922416085e-15
0
LINE
5
180
100
AcDbEntity
8
0
100
AcDbLine
10
84.460704749114242
20
168.76772163750644
30
-4.7274258922416085e-15
11
84.460704749114228
21
171.39718127908949
31
4.1543583047596438e-15
0
LINE
5
181
100
AcDbEntity
8
0
100
AcDbLine
10
100.46070474911424
20
173.85134361123369
30
-4.6203843091106496e-15
11
100.46070474911424
21
174.37723553955027
31
-1.3285442950476249e-14
0
LINE
5
182
100
AcDbEntity
8
0
100
AcDbLine
10
84.460704749114228
20
173.85134361123366
30
-4.2613998878906003e-15
11
84.460704749114228
21
174.37723553955021
31
-1.3359909640527508e-14
0
LINE
5
183
100
AcDbEntity
8
0
100
AcDbLine
10
85.689994409363635
20
11.221855154668855
30
2.2204460492503131e-15
11
83.804239217213464
21
13.406981783964486
31
8.3266726846886741e-16
0
LINE
5
184
100
AcDbEntity
8
0
100
AcDbLine
10
83.804239217213464
20
13.406981783964486
30
8.3266726846886741e-16
11
83.206793873328465
21
13.224083797518393
31
1.1275702593849246e-15
0
LINE
5
185
100
AcDbEntity
8
0
100
AcDbLine
10
-10.057361024800864
20
11.654008689576706
30
0
11
-10.057361024800848
21
13.406981783965364
31
-2.3592239273284576e-15
0
LINE
5
186
100
AcDbEntity
8
0
100
AcDbLine
10
-2.2799526051973285
20
22.799798800524485
30
0
11
-10.057361024800848
21
13.406981783965364
31
-2.3592239273284576e-15
0
LINE
5
187
100
AcDbEntity
8
0
100
AcDbLine
10
-2.2799526051973285
20
22.799798800524485
30
0
11
-2.2799526051972698
21
23.741859175126084
31
-5.620504062164855e-15
0
LINE
5
188
100
AcDbEntity
8
0
100
AcDbLine
10
31.105221062229568
20
60.052253438105723
30
4.4408920985006262e-15
11
-2.2799526051972698
21
23.741859175126084
31
-5.620504062164855e-15
0
LINE
5
189
100
AcDbEntity
8
0
100
AcDbLine
10
47.592793851900055
20
82.526337843368168
30
-8.8817841970012523e-15
11
47.592793851900083
21
84.272531573612085
31
-1.0477729794899915e-14
0
LINE
5
190
100
AcDbEntity
8
0
100
AcDbLine
10
47.592793851899906
20
73.335948047043885
30
0
11
47.592793851900055
21
82.526337843368168
31
-8.8817841970012523e-15
0
LINE
5
191
100
AcDbEntity
8
0
100
AcDbLine
10
47.592793851899842
20
69.344359522593024
30
4.4408920985006262e-15
11
47.592793851899906
21
73.335948047043885
31
0
0
LINE
5
192
100
AcDbEntity
8
0
100
AcDbLine
10
47.592793851899842
20
69.344359522593024
30
4.4408920985006262e-15
11
46.815238667477999
21
56.268139175290194
31
2.7755575615628914e-15
0
LWPOLYLINE
5
193
100
AcDbEntity
8
0
100
AcDbPolyline
90
5
70
1
43
0.0
10
8.8064569899589351
20
19.911578656047585
10
38.194533129126917
20
42.155981775244811
10
70.816942775554836
20
4.3546296554497044
10
45.609706088085467
20
-14.725215236124033
10
45.602887019192394
20
-14.717313611837199
0
LINE
5
194
100
AcDbEntity
8
0
100
AcDbLine
10
82.934447433265404
20
13.539666361497478
30
-4.4408920985006262e-15
11
53.938782163760372
21
40.827307256432839
31
2.2204460492503131e-15
0
LINE
5
195
100
AcDbEntity
8
0
100
AcDbLine
10
49.182254088321997
20
45.303646351357699
30
0
11
46.828926676341489
21
47.518348194873219
31
1.1102230246251565e-15
0
LINE
5
196
100
AcDbEntity
8
0
100
AcDbLine
10
83.206793873328465
20
13.224083797518393
30
1.1275702593849246e-15
11
82.934447433265404
21
13.539666361497478
31
-4.4408920985006262e-15
0
LINE
5
197
100
AcDbEntity
8
0
100
AcDbLine
10
86.08419182240867
20
2.2102952824973432
30
-8.8817841970012523e-15
11
86.084191822408712
21
4.4792295554070609
31
-1.1796119636642288e-14
0
ELLIPSE
5
198
100
AcDbEntity
8
0
100
AcDbEllipse
10
84.944215519812118
20
2.8835689308966028
30
0
11
2.0500000000000012
21
-1.5439481656530568e-14
31
0.0
40
0.93652731578634596
41
0.21308929051519818
42
0.98112726640524861
0
LINE
5
199
100
AcDbEntity
8
0
100
AcDbLine
10
91.975845049864148
20
3.9380997236834592
30
2.2204460492503131e-15
11
85.689994409363635
21
11.221855154668855
31
2.2204460492503131e-15
0
ELLIPSE
5
200
100
AcDbEntity
8
0
100
AcDbEllipse
10
47.857696740879589
20
45.857725973686769
30
6.6613381477509392e-15
11
2.0500000000000012
21
-1.5439481656530568e-14
31
0.0
40
0.93652731578634596
41
0.21308929051519396
42
2.0965199661790233
0
LINE
5
201
100
AcDbEntity
8
0
100
AcDbLine
10
54.889326270931598
20
46.912256766473632
30
4.4408920985006262e-15
11
48.603475630431092
21
54.196012197459027
31
6.106226635438361e-15
0
ELLIPSE
5
202
100
AcDbEntity
8
0
100
AcDbEllipse
10
35.946542476333825
20
-34.203717284110859
30
-4.4408920985006262e-15
11
2.0500000000000012
21
-1.5439481656530568e-14
31
0.0
40
0.93652731578634596
41
2.2505289080924205
42
2.9285033630746167
0
ELLIPSE
5
203
100
AcDbEntity
8
0
100
AcDbEllipse
10
35.946542476333825
20
-34.203717284110859
30
-4.4408920985006262e-15
11
2.0500000000000012
21
-1.5439481656530568e-14
31
0.0
40
0.93652731578634596
41
0.21308929051520362
42
2.2505289080924205
0
ELLIPSE
5
204
100
AcDbEntity
8
0
100
AcDbEllipse
10
-1.1399763025987131
20
8.7704397586793004
30
-2.2204460492503131e-15
11
2.0500000000000012
21
-1.5439481656530568e-14
31
0.0
40
0.93652731578634596
41
2.2505289080924245
42
2.928503363074606
0
ELLIPSE
5
205
100
AcDbEntity
8
0
100
AcDbEllipse
10
-1.1399763025987131
20
8.7704397586793004
30
-2.2204460492503131e-15
11
2.0500000000000012
21
-1.5439481656530568e-14
31
0.0
40
0.93652731578634596
41
0.21308929051520181
42
2.2505289080924245
0
LINE
5
206
100
AcDbEntity
8
0
100
AcDbLine
10
93.861600242014291
20
1.7529730943878441
30
0
11
91.975845049864148
21
3.9380997236834592
31
2.2204460492503131e-15
0
LINE
5
207
100
AcDbEntity
8
0
100
AcDbLine
10
93.861600242014276
20
-8.0824236192711396e-13
30
-2.2204460492503131e-15
11
93.861600242014291
21
1.7529730943878441
31
0
0
LINE
5
208
100
AcDbEntity
8
0
100
AcDbLine
10
56.775081463081762
20
44.727130137178008
30
4.4408920985006262e-15
11
54.889326270931598
21
46.912256766473632
31
4.4408920985006262e-15
0
LINE
5
209
100
AcDbEntity
8
0
100
AcDbLine
10
56.77508146308174
20
42.974157042789358
30
4.4408920985006262e-15
11
56.775081463081762
21
44.727130137178008
31
4.4408920985006262e-15
0
LINE
5
210
100
AcDbEntity
8
0
100
AcDbLine
10
48.603475630431092
20
54.196012197459027
30
6.106226635438361e-15
11
46.815238667477999
21
56.268139175290194
31
2.7755575615628914e-15
0
LINE
5
211
100
AcDbEntity
8
0
100
AcDbLine
10
53.938782163760372
20
40.827307256432839
30
2.2204460492503131e-15
11
56.77508146308174
21
42.974157042789358
31
4.4408920985006262e-15
0
LINE
5
212
100
AcDbEntity
8
0
100
AcDbLine
10
37.086518778932479
20
-42.974157042790111
30
0
11
93.861600242014276
21
-8.0824236192711396e-13
31
-2.2204460492503131e-15
0
ELLIPSE
5
213
100
AcDbEntity
8
0
100
AcDbEllipse
10
65.474059510483201
20
-12.775854026128762
30
-4.4408920985006262e-15
11
9.8789129015616552
21
8.5254607431717329
31
0.0
40
0.27267175407273292
41
0.74231953885120017
42
2.3992731147385933
0
LINE
5
214
100
AcDbEntity
8
0
100
AcDbLine
10
27.029157754131674
20
-31.320148353213458
30
-4.4408920985006262e-15
11
27.029157754131692
21
-29.567175258824804
31
-6.1756155744774333e-15
0
LINE
5
215
100
AcDbEntity
8
0
100
AcDbLine
10
27.029157754131674
20
-31.320148353213458
30
-4.4408920985006262e-15
11
37.086518778932479
21
-42.974157042790111
31
0
0
LINE
5
216
100
AcDbEntity
8
0
100
AcDbLine
10
32.584292974080995
20
-22.858209262940182
30
-6.6613381477509392e-15
11
27.029157754131692
21
-29.567175258824804
31
-6.1756155744774333e-15
0
LINE
5
217
100
AcDbEntity
8
0
100
AcDbLine
10
-6.2172489379008766e-14
20
6.2172489379008766e-14
30
2.2204460492503131e-15
11
-10.057361024800864
21
11.654008689576706
31
0
0
LINE
5
218
100
AcDbEntity
8
0
100
AcDbLine
10
32.584292974080995
20
-22.858209262940182
30
-6.6613381477509392e-15
11
7.7774084196034465
21
5.8868708277818804
31
-3.3306690738754696e-15
0
LINE
5
219
100
AcDbEntity
8
0
100
AcDbLine
10
7.7774084196034465
20
5.8868708277818804
30
-3.3306690738754696e-15
11
-6.2172489379008766e-14
21
6.2172489379008766e-14
31
2.2204460492503131e-15
0
ELLIPSE
5
220
100
AcDbEntity
8
0
100
AcDbEllipse
10
62.331134190232902
20
-9.1339763106360152
30
0
11
-9.8789129015616552
21
-8.5254607431717329
31
0.0
40
0.27267175407273292
41
0.74231953885119939
42
2.3992731147385951
0
LINE
5
221
100
AcDbEntity
8
0
100
AcDbLine
10
33.218154042013936
20
77.00457993298302
30
-4.4408920985006262e-15
11
33.218154042013701
21
62.442785357449694
31
8.8817841970012523e-15
0
LINE
5
222
100
AcDbEntity
8
0
100
AcDbLine
10
45.707038659749919
20
86.457658202907695
30
-4.4408920985006262e-15
11
33.218154042013936
21
77.00457993298302
31
-4.4408920985006262e-15
0
LINE
5
223
100
AcDbEntity
8
0
100
AcDbLine
10
45.707038659749919
20
86.457658202907695
30
-4.4408920985006262e-15
11
47.592793851900083
21
84.272531573612085
31
-1.0477729794899915e-14
0
SPLINE
5
224
100
AcDbEntity
8
0
100
AcDbSpline
70
0
71
3
72
12
73
8
74
0
42
0.000000001
43
0.0000000001
44
0.0000000001
40
0.4713808966265991
40
0.4713808966265991
40
0.4713808966265991
40
0.4713808966265991
40
0.48676229263038917
40
0.48676229263038917
40
0.74836708762555593
40
0.74836708762555593
40
0.79143061411881843
40
0.79143061411881843
40
0.79143061411881843
40
0.79143061411881843
10
33.218154042013694
20
62.442785357449715
30
4.4408920985006262e-15
10
33.185341305671379
20
62.403356240389755
30
4.4408920985006262e-15
10
33.152451265928342
20
62.364005509312847
30
0
10
32.559148195014188
20
61.656879604623278
30
4.4408920985006262e-15
10
31.97573427534234
20
61.004865349289439
30
0
10
31.297262202416963
20
60.261478395984355
30
0
10
31.20126890099527
20
60.15671702210355
30
2.2204460492503131e-15
10
31.105221062229571
20
60.052253438105708
30
2.2204460492503131e-15
0
SPLINE
5
225
100
AcDbEntity
8
0
100
AcDbSpline
70
0
71
3
72
12
73
8
74
0
42
0.000000001
43
0.0000000001
44
0.0000000001
40
5.6278986032100784
40
5.6278986032100784
40
5.6278986032100784
40
5.6278986032100784
40
5.8366071524869101
40
5.8366071524869101
40
6.2054597000972533
40
6.2054597000972533
40
6.4133760229556289
40
6.4133760229556289
40
6.4133760229556289
40
6.4133760229556289
10
86.947849143661387
20
3.2895859822828433
30
0
10
86.920321413973511
20
3.1822770957238866
30
-2.2204460492503131e-15
10
86.880330628530203
20
3.0755952930579422
30
0
10
86.733161507250884
20
2.7862061885616995
30
0
10
86.59720559252959
20
2.6075605455066642
30
2.2204460492503131e-15
10
86.32037668977118
20
2.3623998263713419
30
2.2204460492503131e-15
10
86.207718007965013
20
2.2811498542192155
30
-2.2204460492503131e-15
10
86.084191822408684
20
2.2102952824973432
30
-2.2204460492503131e-15
0
SPLINE
5
226
100
AcDbEntity
8
0
100
AcDbSpline
70
0
71
3
72
12
73
8
74
0
42
0.000000001
43
0.0000000001
44
0.0000000001
40
5.6278986032100811
40
5.6278986032100811
40
5.6278986032100811
40
5.6278986032100811
40
5.836607152486911
40
5.836607152486911
40
6.2054597000972542
40
6.2054597000972542
40
6.3046671893683381
40
6.3046671893683381
40
6.3046671893683381
40
6.3046671893683381
10
49.86133036472885
20
46.263743025073012
30
2.2204460492503131e-15
10
49.833802635040968
20
46.156434138514051
30
6.6613381477509392e-15
10
49.79381184959766
20
46.049752335848105
30
2.2204460492503131e-15
10
49.646642728318341
20
45.76036323135186
30
6.6613381477509392e-15
10
49.51068681359704
20
45.581717588296833
30
4.4408920985006262e-15
10
49.286034352153258
20
45.382764522145564
30
2.2204460492503131e-15
10
49.235510337116743
20
45.342215695530179
30
4.4408920985006262e-15
10
49.182254088322004
20
45.303646351357692
30
4.4408920985006262e-15
0
SPLINE
5
227
100
AcDbEntity
8
0
100
AcDbSpline
70
0
71
3
72
26
73
22
74
0
42
0.000000001
43
0.0000000001
44
0.0000000001
40
5.6278986032100686
40
5.6278986032100686
40
5.6278986032100686
40
5.6278986032100686
40
5.836607152486911
40
5.836607152486911
40
6.2054597000972542
40
6.2054597000972542
40
6.509056913514697
40
6.509056913514697
40
6.7859069853244876
40
6.7859069853244876
40
7.0524527783248967
40
7.0524527783248967
40
7.3177411728670227
40
7.3177411728670227
40
7.5896719391030576
40
7.5896719391030576
40
7.8792702439864133
40
7.8792702439864133
40
8.2061257969643684
40
8.2061257969643684
40
8.297937173744133
40
8.297937173744133
40
8.297937173744133
40
8.297937173744133
10
37.9501761001831
20
-33.797700232724623
30
-2.2204460492503131e-15
10
37.92264837049521
20
-33.905009119283577
30
-4.4408920985006262e-15
10
37.882657585051888
20
-34.011690921949523
30
-6.6613381477509392e-15
10
37.735488463772583
20
-34.301080026445788
30
-6.6613381477509392e-15
10
37.599532549051268
20
-34.479725669500802
30
-4.4408920985006262e-15
10
37.276780162373058
20
-34.765556398995592
30
-6.6613381477509392e-15
10
37.103344830065261
20
-34.879334321082894
30
0
10
36.732608491574361
20
-35.048709766944143
30
-8.8817841970012523e-15
10
36.53893646830457
20
-35.108403435807006
30
-6.6613381477509392e-15
10
36.144415422023812
20
-35.174497125354961
30
0
10
35.944259979075134
20
-35.182762794907546
30
-4.4408920985006262e-15
10
35.551598736898661
20
-35.14974915034697
30
-4.4408920985006262e-15
10
35.359205520757158
20
-35.108733716854047
30
-2.2204460492503131e-15
10
34.995114492186175
20
-34.982398771324959
30
-4.4408920985006262e-15
10
34.824186273279182
20
-34.896098556668697
30
-4.4408920985006262e-15
10
34.513077566348642
20
-34.68510747203171
30
-2.2204460492503131e-15
10
34.375695136493697
20
-34.558503262422178
30
-6.6613381477509392e-15
10
34.139158770308434
20
-34.269776591400046
30
-4.4408920985006262e-15
10
34.04703555590585
20
-34.105544126145134
30
-4.4408920985006262e-15
10
33.969539296777633
20
-33.891976122411684
30
-6.6613381477509392e-15
10
33.955018364869289
20
-33.844905661777823
30
-6.6613381477509392e-15
10
33.942908852484564
20
-33.797700232724623
30
-4.4408920985006262e-15
0
SPLINE
5
228
100
AcDbEntity
8
0
100
AcDbSpline
70
0
71
3
72
26
73
22
74
0
42
0.000000001
43
0.0000000001
44
0.0000000001
40
5.6278986032100695
40
5.6278986032100695
40
5.6278986032100695
40
5.6278986032100695
40
5.8366071524869119
40
5.8366071524869119
40
6.2054597000972542
40
6.2054597000972542
40
6.509056913514697
40
6.509056913514697
40
6.7859069853244876
40
6.7859069853244876
40
7.0524527783248967
40
7.0524527783248967
40
7.3177411728670227
40
7.3177411728670227
40
7.5896719391030576
40
7.5896719391030576
40
7.8792702439864133
40
7.8792702439864133
40
8.2061257969643684
40
8.2061257969643684
40
8.2979371737441383
40
8.2979371737441383
40
8.2979371737441383
40
8.2979371737441383
10
0.86365732125054606
20
9.1764568100655541
30
0
10
0.83612959156266875
20
9.0691479235065877
30
0
10
0.79613880611935528
20
8.9624661208406344
30
0
10
0.64896968484003281
20
8.6730770163443829
30
0
10
0.51301377011872873
20
8.4944313732893573
30
0
10
0.19026138344051979
20
8.2086006437945933
30
0
10
0.016826051132721176
20
8.0948227217072777
30
0
10
-0.35391028735817009
20
7.9254472758460226
30
0
10
-0.5475823106279698
20
7.8657536069831746
30
-2.2204460492503131e-15
10
-0.9421033569087367
20
7.7996599174352133
30
0
10
-1.1422587998574052
20
7.7913942478826304
30
0
10
-1.5349200420338693
20
7.8244078924431948
30
0
10
-1.7273132581753803
20
7.8654233259361206
30
0
10
-2.09140428674635
20
7.9917582714652102
30
-2.2204460492503131e-15
10
-2.2623325056533528
20
8.0780584861214599
30
-2.2204460492503131e-15
10
-2.5734412125838979
20
8.2890495707584577
30
-2.2204460492503131e-15
10
-2.7108236424388465
20
8.4156537803679896
30
-2.2204460492503131e-15
10
-2.9473600086241003
20
8.7043804513901222
30
0
10
-3.039483223026691
20
8.8686129166450378
30
0
10
-3.1169794821549068
20
9.0821809203784731
30
0
10
-3.1315004140632574
20
9.1292513810123523
30
0
10
-3.1436099264479633
20
9.1764568100655595
30
0
0
LINE
5
229
100
AcDbEntity
8
0
100
AcDbLine
10
25.215946557132042
20
71.947069614466002
30
0
11
25.215946557132053
21
75.453015803243318
31
-2.2204460492503131e-15
0
LINE
5
230
100
AcDbEntity
8
0
100
AcDbLine
10
25.215946557132053
20
75.453015803243318
30
-2.2204460492503131e-15
11
26.743727882298121
21
76.609423031604948
31
1.2490009027033011e-15
0
LINE
5
231
100
AcDbEntity
8
0
100
AcDbLine
10
30.079490315417786
20
67.801315667103751
30
8.8817841970012523e-15
11
30.079490315417804
21
70.754751256848678
31
5.5511151231257827e-15
0
LINE
5
232
100
AcDbEntity
8
0
100
AcDbLine
10
29.301749473457445
20
67.212628584325543
30
0
11
30.079490315417786
21
67.801315667103751
31
8.8817841970012523e-15
0
LINE
5
233
100
AcDbEntity
8
0
100
AcDbLine
10
25.215946557132042
20
71.947069614466002
30
0
11
29.301749473457445
21
67.212628584325543
31
0
0
ELLIPSE
5
234
100
AcDbEntity
8
0
100
AcDbEllipse
10
47.016022357280463
20
100.71878020545932
30
-4.4408920985006262e-15
11
-2.0819227894316725
21
-1.7966907076191627
31
0.0
40
0.27267175407273053
41
3.1415926535897789
42
4.4812789152635037
0
LINE
5
235
100
AcDbEntity
8
0
100
AcDbLine
10
43.200304987783475
20
89.276081241755321
30
4.4408920985006262e-15
11
43.72617859578817
21
89.674125144690919
31
8.066464163292153e-15
0
LINE
5
236
100
AcDbEntity
8
0
100
AcDbLine
10
43.72617859578817
20
89.674125144690919
30
8.066464163292153e-15
11
43.726178595788234
21
99.192769047221361
31
-9.4368957093138306e-15
0
LINE
5
237
100
AcDbEntity
8
0
100
AcDbLine
10
43.726178595788234
20
99.192769047221361
30
-9.4368957093138306e-15
11
47.016022357280463
21
101.68291540737309
31
-4.3856659660931475e-15
0
LINE
5
238
100
AcDbEntity
8
0
100
AcDbLine
10
48.20085193309378
20
92.824401154642459
30
2.2204460492503131e-15
11
51.101825273605854
21
95.020203973405131
31
1.2490009027033011e-15
0
LINE
5
239
100
AcDbEntity
8
0
100
AcDbLine
10
48.200851933093709
20
85.058730346500681
30
1.3322676295501878e-14
11
48.20085193309378
21
92.824401154642459
31
2.2204460492503131e-15
0
LINE
5
240
100
AcDbEntity
8
0
100
AcDbLine
10
45.662007513379237
20
83.137029910527417
30
0
11
48.200851933093709
21
85.058730346500681
31
1.3322676295501878e-14
0
ELLIPSE
5
241
100
AcDbEntity
8
0
100
AcDbEllipse
10
51.101825273605861
20
95.984339175318894
30
-4.4408920985006262e-15
11
2.0819227894316725
21
1.7966907076191627
31
0.0
40
0.27267175407273053
41
4.4812789152634975
42
6.2831853071795791
0
LINE
5
242
100
AcDbEntity
8
0
100
AcDbLine
10
39.412380418941844
20
70.237711691255981
30
6.6613381477509392e-15
11
38.593540603190725
21
71.18654571487339
31
6.5572547391923308e-15
0
LINE
5
243
100
AcDbEntity
8
0
100
AcDbLine
10
40.190121260902181
20
70.826398774034175
30
6.6613381477509392e-15
11
40.190121260902188
21
72.395028488439991
31
4.2327252813834093e-15
0
LINE
5
244
100
AcDbEntity
8
0
100
AcDbLine
10
39.412380418941844
20
70.237711691255981
30
6.6613381477509392e-15
11
40.190121260902181
21
70.826398774034175
31
6.6613381477509392e-15
0
LINE
5
245
100
AcDbEntity
8
0
100
AcDbLine
10
34.979257619767907
20
66.882195319420305
30
8.8817841970012523e-15
11
34.160417804016781
21
67.831029343037713
31
7.6674777638174874e-15
0
LINE
5
246
100
AcDbEntity
8
0
100
AcDbLine
10
35.756998461728244
20
67.470882402198498
30
4.4408920985006262e-15
11
35.756998461728251
21
69.039512116604286
31
4.9960036108132044e-15
0
LINE
5
247
100
AcDbEntity
8
0
100
AcDbLine
10
34.979257619767907
20
66.882195319420305
30
8.8817841970012523e-15
11
35.756998461728244
21
67.470882402198498
31
4.4408920985006262e-15
0
LINE
5
248
100
AcDbEntity
8
0
100
AcDbLine
10
26.74372788229817
20
84.506848026897899
30
-4.4408920985006262e-15
11
39.187581353663617
21
93.925841351348964
31
-4.4408920985006262e-15
0
LINE
5
249
100
AcDbEntity
8
0
100
AcDbLine
10
26.743727882298121
20
76.609423031604948
30
1.2490009027033011e-15
11
26.74372788229817
21
84.506848026897899
31
-4.4408920985006262e-15
0
LINE
5
250
100
AcDbEntity
8
0
100
AcDbLine
10
43.200304987783475
20
89.276081241755321
30
4.4408920985006262e-15
11
39.187581353663617
21
93.925841351348964
31
-4.4408920985006262e-15
0
LINE
5
251
100
AcDbEntity
8
0
100
AcDbLine
10
45.662007513379201
20
76.536805005082073
30
8.8817841970012523e-15
11
45.662007513379237
21
83.137029910527417
31
0
0
LINE
5
252
100
AcDbEntity
8
0
100
AcDbLine
10
33.218154042013751
20
67.117811680630993
30
4.4408920985006262e-15
11
34.160417804016781
21
67.831029343037713
31
7.6674777638174874e-15
0
LINE
5
253
100
AcDbEntity
8
0
100
AcDbLine
10
35.756998461728251
20
69.039512116604286
30
4.9960036108132044e-15
11
38.593540603190725
21
71.18654571487339
31
6.5572547391923308e-15
0
LINE
5
254
100
AcDbEntity
8
0
100
AcDbLine
10
40.190121260902188
20
72.395028488439991
30
4.2327252813834093e-15
11
45.662007513379201
21
76.536805005082073
31
8.8817841970012523e-15
0
LINE
5
255
100
AcDbEntity
8
0
100
AcDbLine
10
30.079490315417804
20
70.754751256848678
30
5.5511151231257827e-15
11
33.218154042013751
21
67.117811680630993
31
4.4408920985006262e-15
0
LINE
5
256
100
AcDbEntity
8
0
100
AcDbLine
10
49.097945146712135
20
102.51547091307849
30
-4.2882364326146671e-15
11
53.183748063037541
21
97.781029882938043
31
-4.2882364326146671e-15
0
LINE
5
257
100
AcDbEntity
8
0
100
AcDbLine
10
254.99644171410984
20
5.6845943248312247
30
-5.1070259132757201e-14
11
239.77523486236151
21
13.756417107757471
31
-4.3853809472693683e-14
0
ELLIPSE
5
258
100
AcDbEntity
8
0
100
AcDbEllipse
10
277.00558242715783
20
-40.999339627701389
30
-2.2204460492503131e-14
11
-7.5706283252061635
21
-6.5334207549786747
31
0.0
40
0.27267175407273209
41
4.4812789152635037
42
6.0520752420584012
0
LINE
5
259
100
AcDbEntity
8
0
100
AcDbLine
10
269.2281740075544
20
-46.886210455483223
30
-2.2187124996817109e-14
11
269.22817400755434
21
-51.11498863933172
31
-2.4980018054066022e-14
0
LINE
5
260
100
AcDbEntity
8
0
100
AcDbLine
10
237.05314191550031
20
11.696012318033834
30
-3.7747582837255322e-14
11
239.77523486236151
21
13.756417107757471
31
-4.3853809472693683e-14
0
LINE
5
261
100
AcDbEntity
8
0
100
AcDbLine
10
254.99644171410984
20
5.6845943248312247
30
-5.1070259132757201e-14
11
256.23061777209699
21
10.994673841557908
31
-2.8033131371785203e-14
0
LINE
5
262
100
AcDbEntity
8
0
100
AcDbLine
10
256.23061777209699
20
10.994673841557908
30
-2.8033131371785203e-14
11
261.67480366581941
21
15.1154834210052
31
-2.6922908347160046e-14
0
LINE
5
263
100
AcDbEntity
8
0
100
AcDbLine
10
233.9421785476589
20
-24.299734049021154
30
-2.2204460492503131e-15
11
233.9421785476589
21
-25.106101672439927
31
-3.5388358909926865e-15
0
LINE
5
264
100
AcDbEntity
8
0
100
AcDbLine
10
234.06752333335334
20
-23.665350968992737
30
-8.8817841970012523e-15
11
233.9421785476589
21
-24.299734049021154
31
-2.2204460492503131e-15
0
LINE
5
265
100
AcDbEntity
8
0
100
AcDbLine
10
234.06752333335334
20
-23.665350968992737
30
-8.8817841970012523e-15
11
237.05314191550028
21
-20.059603718705628
31
-1.5681900222830336e-14
0
LINE
5
266
100
AcDbEntity
8
0
100
AcDbLine
10
237.05314191550028
20
-20.059603718705628
30
-1.5681900222830336e-14
11
237.05314191550028
21
-10.234606928512562
31
-2.4980018054066022e-14
0
LINE
5
267
100
AcDbEntity
8
0
100
AcDbLine
10
233.9421785476589
20
-6.2791706387059465
30
-3.5527136788005009e-14
11
233.9421785476589
21
-6.6297652575836699
31
-3.6567970873591094e-14
0
LINE
5
268
100
AcDbEntity
8
0
100
AcDbLine
10
237.05314191550031
20
-2.522043832082268
30
-2.2204460492503131e-14
11
233.9421785476589
21
-6.2791706387059465
31
-3.5527136788005009e-14
0
LINE
5
269
100
AcDbEntity
8
0
100
AcDbLine
10
237.05314191550031
20
-2.522043832082268
30
-2.2204460492503131e-14
11
237.05314191550031
21
11.696012318033834
31
-3.7747582837255322e-14
0
LINE
5
270
100
AcDbEntity
8
0
100
AcDbLine
10
257.4154345746723
20
-49.91423090464815
30
-1.1102230246251565e-14
11
262.90379703896156
21
-56.273893612653566
31
-1.0824674490095276e-14
0
LINE
5
271
100
AcDbEntity
8
0
100
AcDbLine
10
255.06756641383441
20
-43.625642245107095
30
-8.8817841970012523e-15
11
250.56772079257632
21
-38.41142751794581
31
-7.2164496600635175e-15
0
LINE
5
272
100
AcDbEntity
8
0
100
AcDbLine
10
265.65352615574108
20
-55.432109633786396
30
-1.1102230246251565e-14
11
262.90379703896156
21
-56.273893612653566
31
-1.0824674490095276e-14
0
ELLIPSE
5
273
100
AcDbEntity
8
0
100
AcDbEllipse
10
255.23949283640553
20
-48.425833737462263
30
-2.4424906541753444e-14
11
1.5088127370570934
21
-1.9933600087526293
31
0.0
40
0.22037854096286125
41
3.424912334169353
42
6.2831853071796431
0
ELLIPSE
5
274
100
AcDbEntity
8
0
100
AcDbEllipse
10
255.23949283640553
20
-48.425833737462263
30
-2.4424906541753444e-14
11
1.5088127370570934
21
-1.9933600087526293
31
0.0
40
0.22037854096286125
41
3.1415926535897931
42
3.424912334169353
0
LINE
5
275
100
AcDbEntity
8
0
100
AcDbLine
10
250.56772079257632
20
-38.41142751794581
30
-7.2164496600635175e-15
11
247.45675742473503
21
-40.766175849058484
31
-1.457167719820518e-14
0
LINE
5
276
100
AcDbEntity
8
0
100
AcDbLine
10
247.45675742473503
20
-40.766175849058484
30
-1.457167719820518e-14
11
233.9421785476589
21
-25.106101672439927
31
-3.5388358909926865e-15
0
LINE
5
277
100
AcDbEntity
8
0
100
AcDbLine
10
233.9421785476589
20
-6.6297652575836699
30
-3.6567970873591094e-14
11
237.05314191550028
21
-10.234606928512562
31
-2.4980018054066022e-14
0
LINE
5
278
100
AcDbEntity
8
0
100
AcDbLine
10
286.38648369625844
20
-30.392807865949255
30
-1.7763568394002505e-14
11
289.96113154807176
21
-26.075686871494575
31
-1.4155343563970746e-14
0
LINE
5
279
100
AcDbEntity
8
0
100
AcDbLine
10
269.22817400755434
20
-51.11498863933172
30
-2.4980018054066022e-14
11
265.65352615574108
21
-55.432109633786396
31
-1.1102230246251565e-14
0
LINE
5
280
100
AcDbEntity
8
0
100
AcDbLine
10
277.00558242715783
20
-37.493393438924102
30
-2.2130791045506507e-14
11
286.38648369625844
21
-30.392807865949255
31
-1.7763568394002505e-14
0
LINE
5
281
100
AcDbEntity
8
0
100
AcDbLine
10
289.96113154807176
20
-26.075686871494575
30
-1.4155343563970746e-14
11
289.96113154807176
21
-25.37449763373909
31
-1.8596235662471372e-14
0
LINE
5
282
100
AcDbEntity
8
0
100
AcDbLine
10
289.96113154807176
20
-25.37449763373909
30
-1.8596235662471372e-14
11
286.96685103095552
21
-21.904862698744445
31
-7.0776717819853729e-15
0
ELLIPSE
5
283
100
AcDbEntity
8
0
100
AcDbEllipse
10
300.20138596721637
20
-14.117504855049038
30
-1.1102230246251565e-14
11
-13.753308124124555
21
-11.869047704877946
31
0.0
40
0.27267175407273209
41
5.4691616531026641
42
5.6943499141411715
0
LINE
5
284
100
AcDbEntity
8
0
100
AcDbLine
10
288.40564986415109
20
-19.539979421740856
30
-1.1348459600399818e-14
11
289.96113154807182
21
-18.362605256184487
31
-3.9551695252271202e-14
0
LINE
5
285
100
AcDbEntity
8
0
100
AcDbLine
10
289.96113154807182
20
-18.362605256184487
30
-3.9551695252271202e-14
11
289.96113154807182
21
-17.661416018429041
31
-2.2620794126737565e-14
0
LINE
5
286
100
AcDbEntity
8
0
100
AcDbLine
10
289.96113154807182
20
-17.661416018429041
30
-2.2620794126737565e-14
11
261.67480366581941
21
15.1154834210052
31
-2.6922908347160046e-14
0
LINE
5
287
100
AcDbEntity
8
0
100
AcDbLine
10
254.8470158374584
20
-45.58749762148544
30
0
11
255.06756641383441
21
-43.625642245107095
31
-8.8817841970012523e-15
0
LINE
5
288
100
AcDbEntity
8
0
100
AcDbLine
10
254.8470158374584
20
-45.58749762148544
30
0
11
253.73068009934843
21
-46.432473728709624
31
-2.4286128663675299e-14
0
LINE
5
289
100
AcDbEntity
8
0
100
AcDbLine
10
257.4154345746723
20
-49.91423090464815
30
-1.1102230246251565e-14
11
256.74830557346263
21
-50.419193746214887
31
-2.4563684419831588e-14
0
LWPOLYLINE
5
290
100
AcDbEntity
8
0
100
AcDbPolyline
90
4
70
1
43
0.0
10
250.53336169373557
20
-42.251373383496315
10
249.90839712201574
20
-41.52719310086151
10
250.54880997073369
20
-41.04245223173713
10
251.17377454245349
20
-41.766632514371906
0
LINE
5
291
100
AcDbEntity
8
0
100
AcDbLine
10
250.98855316596556
20
-36.819238382792221
30
-8.8817841970012523e-15
11
248.65533064008451
21
-38.585299631126752
31
-1.033895191682177e-14
0
LINE
5
292
100
AcDbEntity
8
0
100
AcDbLine
10
254.90149518967712
20
-41.353376138580593
30
-1.9984014443252818e-14
11
250.98855316596556
21
-36.819238382792221
31
-8.8817841970012523e-15
0
LINE
5
293
100
AcDbEntity
8
0
100
AcDbLine
10
254.90149518967712
20
-43.106349232969251
30
-2.2204460492503131e-15
11
254.90149518967712
21
-41.353376138580593
31
-1.9984014443252818e-14
0
LINE
5
294
100
AcDbEntity
8
0
100
AcDbLine
10
254.90149518967712
20
-43.106349232969251
30
-2.2204460492503131e-15
11
248.29069803301417
21
-48.110189436583823
31
-7.2164496600635175e-15
0
LINE
5
295
100
AcDbEntity
8
0
100
AcDbLine
10
248.29069803301417
20
-48.110189436583823
30
-7.2164496600635175e-15
11
247.38027987137008
21
-47.055238625850826
31
-5.7592819402429996e-15
0
LINE
5
296
100
AcDbEntity
8
0
100
AcDbLine
10
247.38027987137008
20
-47.055238625850826
30
-5.7592819402429996e-15
11
244.37775600930257
21
-49.327906998103394
31
-2.9143354396410359e-15
0
LINE
5
297
100
AcDbEntity
8
0
100
AcDbLine
10
248.65533064008451
20
-32.066343287714275
30
-1.7763568394002505e-14
11
248.65533064008451
21
-38.585299631126752
31
-1.033895191682177e-14
0
ELLIPSE
5
298
100
AcDbEntity
8
0
100
AcDbEllipse
10
224.09150481510309
20
-32.305833665158758
30
-2.6645352591003757e-14
11
-14.058467551018687
21
1.4879203257886464
31
0.0
40
0.24670472786246003
41
4.1802522476878128
42
4.5246859727685793
0
SPLINE
5
299
100
AcDbEntity
8
0
100
AcDbSpline
70
0
71
3
72
10
73
6
74
0
42
0.000000001
43
0.0000000001
44
0.0000000001
40
6.1758170991430079
40
6.1758170991430079
40
6.1758170991430079
40
6.1758170991430079
40
6.4347786248407113
40
6.4347786248407113
40
6.4455602868693935
40
6.4455602868693935
40
6.4455602868693935
40
6.4455602868693935
10
227.07548285293797
20
-29.176112222120057
30
-2.886579864025407e-14
10
226.21690511186506
20
-29.044356671117647
30
-2.2204460492503131e-14
10
225.34734759978312
20
-29.023392004056362
30
-2.4424906541753444e-14
10
224.45579618147221
20
-29.129904589539418
30
-1.9984014443252818e-14
10
224.42006475604495
20
-29.134388757582744
30
-3.1086244689504383e-14
10
224.3842469603743
20
-29.139103648136665
30
-2.6645352591003757e-14
0
ELLIPSE
5
300
100
AcDbEntity
8
0
100
AcDbEllipse
10
222.18621586848678
20
-32.902829168096261
30
-4.4408920985006262e-15
11
-9.5310158798580566
21
-4.1926329121809518
31
0.0
40
0.31107843939933449
41
1.4347995859301017
42
2.7701957512016069
0
ELLIPSE
5
301
100
AcDbEntity
8
0
100
AcDbEllipse
10
236.53748908330476
20
-49.532426369544126
30
-2.886579864025407e-14
11
-1.442488856011557
21
-13.629212817131339
31
0.0
40
0.027839792661523484
41
1.5273892692906927
42
1.7501111182066107
0
SPLINE
5
302
100
AcDbEntity
8
0
100
AcDbSpline
70
0
71
3
72
10
73
6
74
0
42
0.000000001
43
0.0000000001
44
0.0000000001
40
6.1758170991420638
40
6.1758170991420638
40
6.1758170991420638
40
6.1758170991420638
40
6.4347786248407139
40
6.4347786248407139
40
6.4455602868693944
40
6.4455602868693944
40
6.4455602868693944
40
6.4455602868693944
10
236.85397160246799
20
-50.163965394598407
30
-8.8817841970012523e-15
10
236.76291032690003
20
-51.014521080864824
30
-1.1102230246251565e-14
10
236.57022184226128
20
-51.839520283940018
30
-6.6613381477509392e-15
10
236.26941205401891
20
-52.63552895288413
30
-1.5543122344752192e-14
10
236.25718257393657
20
-52.667347321660984
30
-8.8817841970012523e-15
10
236.2447469380316
20
-52.699156386563345
30
-2.2204460492503131e-15
0
ELLIPSE
5
303
100
AcDbEntity
8
0
100
AcDbEllipse
10
225.91532317078952
20
-49.157274383173792
30
-1.3322676295501878e-14
11
-10.999999999996508
21
4.1746111426332564e-15
31
0.0
40
0.93652731578634751
41
0.10227530138699445
42
2.7906193500147669
0
LINE
5
304
100
AcDbEntity
8
0
100
AcDbLine
10
222.18621586848673
20
-36.408775356873541
30
-3.9064577508305289e-15
11
220.53303498535226
21
-37.053551952014487
31
-4.1980308118638732e-15
0
ELLIPSE
5
305
100
AcDbEntity
8
0
100
AcDbEllipse
10
225.91532317078952
20
-49.157274383173792
30
-1.3322676295501878e-14
11
13.999999999984357
21
-4.3723283589183763e-15
31
0.0
40
0.93652731578634729
41
1.9654073723609293
42
2.4140712782336955
0
ELLIPSE
5
306
100
AcDbEntity
8
0
100
AcDbEllipse
10
225.91532317078952
20
-49.157274383173792
30
-1.3322676295501878e-14
11
13.999999999984357
21
-4.3723283589183763e-15
31
0.0
40
0.93652731578634729
41
2.7578904781990463
42
3.1415926535897931
0
ELLIPSE
5
307
100
AcDbEntity
8
0
100
AcDbEllipse
10
225.91532317078952
20
-37.237057341331038
30
-2.4424906541753444e-14
11
-10.999999999996511
21
4.004319422176123e-15
31
0.0
40
0.93652731578634762
41
0.10227530138699356
42
0.31594047091530925
0
ELLIPSE
5
308
100
AcDbEntity
8
0
100
AcDbEllipse
10
225.91532317078952
20
-37.237057341331038
30
-2.4424906541753444e-14
11
-10.999999999996511
21
4.004319422176123e-15
31
0.0
40
0.93652731578634762
41
0.74864578448809538
42
2.6744010333779089
0
ELLIPSE
5
309
100
AcDbEntity
8
0
100
AcDbEllipse
10
225.91532317078952
20
-39.340625054597403
30
-3.1086244689504383e-14
11
-10.999999999996511
21
4.004319422176123e-15
31
0.0
40
0.93652731578634762
41
4.852031119759852
42
6.1809100057925965
0
LINE
5
310
100
AcDbEntity
8
0
100
AcDbLine
10
231.8060547283016
20
-20.736611381023454
30
-1.3322676295501878e-14
11
220.53303498535217
21
-25.13333491017173
31
-1.609823385706477e-14
0
ELLIPSE
5
311
100
AcDbEntity
8
0
100
AcDbEllipse
10
225.91532317078952
20
-37.237057341331038
30
-2.4424906541753444e-14
11
-13.999999999984357
21
7.7728814915061421e-15
31
0.0
40
0.9365273157863474
41
5.1070000259507244
42
6.2831853071795871
0
ELLIPSE
5
312
100
AcDbEntity
8
0
100
AcDbEllipse
10
225.91532317078952
20
-39.340625054597403
30
-3.1086244689504383e-14
11
13.999999999984357
21
-7.7728814915061421e-15
31
0.0
40
0.9365273157863474
41
3.8691140289458938
42
5.6459955861368707
0
ELLIPSE
5
313
100
AcDbEntity
8
0
100
AcDbEllipse
10
225.91532317078952
20
-39.340625054597403
30
-3.1086244689504383e-14
11
13.999999999984357
21
-7.7728814915061421e-15
31
0.0
40
0.9365273157863474
41
3.1415926535897931
42
3.5252948289805426
0
ELLIPSE
5
314
100
AcDbEntity
8
0
100
AcDbEllipse
10
225.91532317078952
20
-51.260842096440143
30
-1.1102230246251565e-14
11
-10.999999999996508
21
4.1746111426332564e-15
31
0.0
40
0.93652731578634751
41
5.96724483626428
42
6.1809100057925983
0
ELLIPSE
5
315
100
AcDbEntity
8
0
100
AcDbEllipse
10
225.91532317078952
20
-51.260842096440143
30
-1.1102230246251565e-14
11
-10.999999999996508
21
4.1746111426332564e-15
31
0.0
40
0.93652731578634751
41
4.6067233982847569
42
5.5345395226914942
0
LINE
5
316
100
AcDbEntity
8
0
100
AcDbLine
10
235.73652629128119
20
-41.876788835460189
30
-2.3889266435482827e-14
11
227.07548285293797
21
-41.016499042390684
31
-1.0548682613089446e-14
0
LINE
5
317
100
AcDbEntity
8
0
100
AcDbLine
10
244.37775600930257
20
-49.327906998103394
30
-2.9143354396410359e-15
11
237.42284492290383
21
-58.728256794785608
31
-5.5511151231257827e-15
0
ELLIPSE
5
318
100
AcDbEntity
8
0
100
AcDbEllipse
10
225.91532317078952
20
-51.260842096440143
30
-1.1102230246251565e-14
11
-13.999999999984357
21
4.3723283589183763e-15
31
0.0
40
0.93652731578634729
41
0
42
2.5356504438249448
0
LINE
5
319
100
AcDbEntity
8
0
100
AcDbLine
10
236.08362935908355
20
-17.498832425743473
30
-4.4408920985006262e-15
11
231.8060547283016
21
-20.736611381023454
31
-1.3322676295501878e-14
0
LINE
5
320
100
AcDbEntity
8
0
100
AcDbLine
10
236.08362935908355
20
-17.498832425743473
30
-4.4408920985006262e-15
11
248.65533064008451
21
-32.066343287714275
31
-1.7763568394002505e-14
0
LINE
5
321
100
AcDbEntity
8
0
100
AcDbLine
10
211.91532317080515
20
-37.237057341331038
30
-2.4676866515110875e-14
11
211.91532317080515
21
-39.340625054597396
31
-3.1338204662861811e-14
0
LINE
5
322
100
AcDbEntity
8
0
100
AcDbLine
10
211.91532317080515
20
-51.260842096440136
30
-1.0968271685636181e-14
11
211.91532317080515
21
-49.157274383173785
31
-1.3188717734886494e-14
0
LINE
5
323
100
AcDbEntity
8
0
100
AcDbLine
10
111.21229320979282
20
139.8001246607779
30
4.4408920985006262e-15
11
108.06936788954255
21
145.19497547065924
31
6.106226635438361e-15
0
LINE
5
324
100
AcDbEntity
8
0
100
AcDbLine
10
116.68098326702847
20
133.46325743582037
30
4.4408920985006262e-15
11
111.21229320979282
21
139.8001246607779
31
4.4408920985006262e-15
0
LINE
5
325
100
AcDbEntity
8
0
100
AcDbLine
10
115.84677630914609
20
157.39605538442899
30
0
11
124.86132536667283
21
156.50065235377551
31
3.1571967262777889e-15
0
LINE
5
326
100
AcDbEntity
8
0
100
AcDbLine
10
124.86132536667283
20
156.50065235377551
30
3.1571967262777889e-15
11
124.86132536667284
21
160.12930665915999
31
-9.0205620750793969e-15
0
LINE
5
327
100
AcDbEntity
8
0
100
AcDbLine
10
169.04587335830357
20
155.74051494841686
30
-1.3322676295501878e-14
11
124.86132536667284
21
160.12930665915999
31
-9.0205620750793969e-15
0
LINE
5
328
100
AcDbEntity
8
0
100
AcDbLine
10
173.5061384555778
20
152.7210921351716
30
0
11
173.12536196260294
21
152.75891415196196
31
5.139118297581291e-16
0
ELLIPSE
5
329
100
AcDbEntity
8
0
100
AcDbEllipse
10
152.1768622144595
20
151.33375426125045
30
4.4408920985006262e-15
11
-25.539549384316548
21
2.7030552585123551
31
0.0
40
0.24670472786246081
41
3.3988075264401503
42
3.7506110502753827
0
LINE
5
330
100
AcDbEntity
8
0
100
AcDbLine
10
119.82390858727861
20
128.06840662593919
30
4.4408920985006262e-15
11
116.68098326702847
21
133.46325743582037
31
4.4408920985006262e-15
0
ELLIPSE
5
331
100
AcDbEntity
8
0
100
AcDbEllipse
10
199.85605783582452
20
104.1291832500325
30
0
11
-4
21
1.6157045806140682e-14
31
0.0
40
0.93652731578634707
41
3.0359270714898745
42
3.1415926535898038
0
LINE
5
332
100
AcDbEntity
8
0
100
AcDbLine
10
203.83374817461757
20
103.73408461984839
30
1.9169752516377505e-17
11
202.03963876978875
21
87.891892805763234
31
-5.5511151231257827e-15
0
LINE
5
333
100
AcDbEntity
8
0
100
AcDbLine
10
202.03963876978875
20
87.891892805763234
30
-5.5511151231257827e-15
11
201.95278477865077
21
87.826151340339123
31
-5.8893862009412601e-15
0
LINE
5
334
100
AcDbEntity
8
0
100
AcDbLine
10
174.56254416168923
20
67.093948560876996
30
-6.6613381477509392e-15
11
174.1965166276081
21
66.816895242304184
31
-7.6154360595381831e-15
0
LINE
5
335
100
AcDbEntity
8
0
100
AcDbLine
10
174.1965166276081
20
66.816895242304184
30
-7.6154360595381831e-15
11
163.57342904516224
21
79.126441920669549
31
-1.6653345369377348e-15
0
LINE
5
336
100
AcDbEntity
8
0
100
AcDbLine
10
204.30680659402529
20
110.01879814578929
30
8.8817841970012523e-15
11
203.85605783582452
21
106.03863491373808
31
6.106226635438361e-15
0
ELLIPSE
5
337
100
AcDbEntity
8
0
100
AcDbEllipse
10
202.04461062905716
20
93.549294508812466
30
2.2204460492503131e-15
11
-2.620521421769646
21
-24.759736617733502
31
0.0
40
0.027839792661768597
41
2.3014641917825651
42
3.1154878458606525
0
LINE
5
338
100
AcDbEntity
8
0
100
AcDbLine
10
200.5480809906858
20
74.721266546996006
30
-6.6613381477509392e-15
11
198.19141969970309
21
53.91167705814361
31
-3.3306690738754696e-15
0
LINE
5
339
100
AcDbEntity
8
0
100
AcDbLine
10
200.5480809906858
20
74.721266546996006
30
-6.6613381477509392e-15
11
200.5480809906858
21
75.422455784751435
31
1.3877787807814457e-15
0
LINE
5
340
100
AcDbEntity
8
0
100
AcDbLine
10
200.5480809906858
20
75.422455784751435
30
1.3877787807814457e-15
11
201.95278477865077
21
87.826151340339123
31
-5.8893862009412601e-15
0
ELLIPSE
5
341
100
AcDbEntity
8
0
100
AcDbEllipse
10
168.34961013353359
20
141.15901508283577
30
-4.4408920985006262e-15
11
5
21
-1.8058797855487961e-14
31
0.0
40
0.93652731578634707
41
4.8841187723875796
42
5.0173453194290794
0
ELLIPSE
5
342
100
AcDbEntity
8
0
100
AcDbEllipse
10
188.46433218313507
20
117.85099770368241
30
-8.8817841970012523e-15
11
5
21
-1.8010143078214495e-14
31
0.0
40
0.93652731578634718
41
4.407432641340308
42
5.0173453194290856
0
LINE
5
343
100
AcDbEntity
8
0
100
AcDbLine
10
173.12536196260294
20
152.75891415196196
30
5.139118297581291e-16
11
171.7349604780909
21
154.37004762351043
31
-4.5796699765787707e-15
0
ELLIPSE
5
344
100
AcDbEntity
8
0
100
AcDbEllipse
10
168.62399711024949
20
152.01529929239771
30
-4.4408920985006262e-15
11
4
21
-1.3495608654234737e-14
31
0.0
40
0.93652731578634718
41
0.67973258129751568
42
1.4651307446949806
0
ELLIPSE
5
345
100
AcDbEntity
8
0
100
AcDbEllipse
10
127.36692935587948
20
114.71173762686712
30
0
11
-10.964039222613646
21
14.485082730267484
31
0.0
40
0.22037854096286194
41
4.4127950720084304
42
5.5323497854784351
0
LINE
5
346
100
AcDbEntity
8
0
100
AcDbLine
10
121.08107871537882
20
126.61165553974199
30
8.8817841970012523e-15
11
121.52878995082723
21
126.95053683143141
31
1.4745978653514104e-15
0
LINE
5
347
100
AcDbEntity
8
0
100
AcDbLine
10
119.82390858727861
20
128.06840662593919
30
4.4408920985006262e-15
11
121.08107871537882
21
126.61165553974199
31
8.8817841970012523e-15
0
LINE
5
348
100
AcDbEntity
8
0
100
AcDbLine
10
133.65277999637988
20
112.74533391552664
30
-5.9525371426946676e-16
11
133.65277999637988
21
112.04414467777119
31
6.83481049534862e-15
0
LINE
5
349
100
AcDbEntity
8
0
100
AcDbLine
10
134.90995012447999
20
110.58739359157411
30
4.4408920985006262e-15
11
138.62146932006272
21
113.39671424190227
31
4.0245584642661925e-15
0
LINE
5
350
100
AcDbEntity
8
0
100
AcDbLine
10
143.19847144751344
20
116.86113565956505
30
8.8817841970012523e-15
11
146.26987838319928
21
119.18594296226006
31
1.1518563880485999e-14
0
LINE
5
351
100
AcDbEntity
8
0
100
AcDbLine
10
169.20404489229742
20
136.5452570805206
30
-4.4665107369430085e-15
11
169.60210364200964
21
136.8465554456055
31
4.7011006198971472e-15
0
LINE
5
352
100
AcDbEntity
8
0
100
AcDbLine
10
133.65277999637988
20
112.04414467777119
30
6.83481049534862e-15
11
134.90995012447999
21
110.58739359157411
31
4.4408920985006262e-15
0
LINE
5
353
100
AcDbEntity
8
0
100
AcDbLine
10
174.56254416168923
20
67.093948560876996
30
-6.6613381477509392e-15
11
180.48236726810867
21
60.23432904907424
31
-9.7144514654701197e-15
0
LINE
5
354
100
AcDbEntity
8
0
100
AcDbLine
10
180.48236726810867
20
60.23432904907424
30
-9.7144514654701197e-15
11
180.48236726810865
21
59.533139811318776
31
-7.7715611723760958e-15
0
LINE
5
355
100
AcDbEntity
8
0
100
AcDbLine
10
138.62146932006272
20
113.39671424190227
30
4.0245584642661925e-15
11
163.57342904516224
21
84.483527697121275
31
-3.3306690738754696e-15
0
LINE
5
356
100
AcDbEntity
8
0
100
AcDbLine
10
163.57342904516224
20
84.483527697121275
30
-3.3306690738754696e-15
11
163.57342904516224
21
79.126441920669549
31
-1.6653345369377348e-15
0
LINE
5
357
100
AcDbEntity
8
0
100
AcDbLine
10
190.4140112800996
20
48.024806230361776
30
-1.1102230246251565e-14
11
180.48236726810865
21
59.533139811318776
31
-7.7715611723760958e-15
0
LINE
5
358
100
AcDbEntity
8
0
100
AcDbLine
10
108.0693678895426
20
151.50918455664714
30
-4.4408920985006262e-15
11
108.06936788954255
21
145.19497547065924
31
6.106226635438361e-15
0
ELLIPSE
5
359
100
AcDbEntity
8
0
100
AcDbEllipse
10
168.3496101335335
20
134.82026437352644
30
4.4408920985006262e-15
11
2.5
21
-5.8159483707198873e-15
31
0.0
40
0.93652731578634707
41
0.9266662469744259
42
1.0460454655509417
0
ELLIPSE
5
360
100
AcDbEntity
8
0
100
AcDbEllipse
10
145.01738487472298
20
117.15965189018104
30
-4.4408920985006262e-15
11
2.5
21
-5.8159483707198873e-15
31
0.0
40
0.93652731578634707
41
0.28303333441786171
42
1.0460454655508942
0
ELLIPSE
5
361
100
AcDbEntity
8
0
100
AcDbEllipse
10
188.46433218313504
20
111.51224699437307
30
0
11
2.5
21
-5.8159483707198873e-15
31
0.0
40
0.93652731578634707
41
0.92666624697443734
42
2.2149264066153376
0
ELLIPSE
5
362
100
AcDbEntity
8
0
100
AcDbEllipse
10
165.13210692432452
20
93.851634511027697
30
-2.2204460492503131e-15
11
2.5
21
-5.8159483707198873e-15
31
0.0
40
0.93652731578634707
41
0.28303333441785095
42
2.8585593191719489
0
LINE
5
363
100
AcDbEntity
8
0
100
AcDbLine
10
108.0693678895426
20
151.50918455664714
30
-4.4408920985006262e-15
11
115.84677630914609
21
157.39605538442899
31
0
0
LINE
5
364
100
AcDbEntity
8
0
100
AcDbLine
10
198.19141969970309
20
53.91167705814361
30
-3.3306690738754696e-15
11
190.4140112800996
21
48.024806230361776
31
-1.1102230246251565e-14
0
ELLIPSE
5
365
100
AcDbEntity
8
0
100
AcDbEllipse
10
165.13210692432452
20
95.159352439441577
30
-2.2204460492503131e-15
11
-2.4999999999999996
21
8.5400831275993463e-15
31
0.0
40
0.93652731578634707
41
2.2505289080924236
42
2.8585593191719489
0
ELLIPSE
5
366
100
AcDbEntity
8
0
100
AcDbEllipse
10
165.13210692432452
20
95.159352439441577
30
-2.2204460492503131e-15
11
-2.4999999999999996
21
8.5400831275993463e-15
31
0.0
40
0.93652731578634707
41
0.28303333441785772
42
2.2505289080924236
0
ELLIPSE
5
367
100
AcDbEntity
8
0
100
AcDbEllipse
10
145.01738487472298
20
118.46736981859495
30
-8.8817841970012523e-15
11
-2.4999999999999996
21
8.5400831275993463e-15
31
0.0
40
0.93652731578634707
41
2.2505289080924236
42
2.8585593191719356
0
ELLIPSE
5
368
100
AcDbEntity
8
0
100
AcDbEllipse
10
145.01738487472298
20
118.46736981859495
30
-8.8817841970012523e-15
11
-2.4999999999999996
21
8.5400831275993463e-15
31
0.0
40
0.93652731578634707
41
0.75602991076790504
42
2.2505289080924236
0
LINE
5
369
100
AcDbEntity
8
0
100
AcDbLine
10
203.85605783582452
20
106.03863491373808
30
6.106226635438361e-15
11
203.85605783582449
21
104.12918325003253
31
1.9277269856249317e-17
0
LINE
5
370
100
AcDbEntity
8
0
100
AcDbLine
10
177.04585772654028
20
150.32245322546078
30
4.8750508475098076e-15
11
204.68223136518873
21
118.29869095432628
31
4.9829871391713788e-15
0
LINE
5
371
100
AcDbEntity
8
0
100
AcDbLine
10
219.83238347975458
20
103.77805658983584
30
-1.3322676295501878e-14
11
212.05497506015109
21
97.891185762054022
31
-1.4432899320127035e-14
0
LINE
5
372
100
AcDbEntity
8
0
100
AcDbLine
10
214.68503746890951
20
96.333487567210881
30
-1.3322676295501878e-14
11
214.65089045192516
21
96.37305556439
31
-7.2424705122031696e-15
0
LINE
5
373
100
AcDbEntity
8
0
100
AcDbLine
10
220.46096854380465
20
103.04968104673733
30
0
11
219.83238347975458
21
103.77805658983584
31
-1.3322676295501878e-14
0
LINE
5
374
100
AcDbEntity
8
0
100
AcDbLine
10
212.05497506015107
20
95.612320739348775
30
-2.2204460492503131e-15
11
212.05497506015109
21
97.891185762054022
31
-1.4432899320127035e-14
0
LINE
5
375
100
AcDbEntity
8
0
100
AcDbLine
10
212.71770714118554
20
94.844377199071118
30
-1.5543122344752192e-14
11
212.05497506015107
21
95.612320739348775
31
-2.2204460492503131e-15
0
LINE
5
376
100
AcDbEntity
8
0
100
AcDbLine
10
220.4609685438046
20
100.77081602403206
30
0
11
214.65089045192516
21
96.37305556439
31
-7.2424705122031696e-15
0
LINE
5
377
100
AcDbEntity
8
0
100
AcDbLine
10
220.46096854380465
20
103.04968104673733
30
0
11
220.4609685438046
21
100.77081602403206
31
0
0
ELLIPSE
5
378
100
AcDbEntity
8
0
100
AcDbEllipse
10
210.23069335646534
20
62.757642219547414
30
-4.4408920985006262e-15
11
-2.75
21
7.5926352899046041e-15
31
0.0
40
0.93652731578634607
41
3.1415926535897931
42
3.8213252348873303
0
LINE
5
379
100
AcDbEntity
8
0
100
AcDbLine
10
212.36948067185625
20
64.376531697187417
30
-4.3013875092580944e-15
11
211.21444786871325
21
65.714930735601328
31
-4.5102810375396984e-15
0
LINE
5
380
100
AcDbEntity
8
0
100
AcDbLine
10
227.25181803237126
20
80.132791356481775
30
4.4408920985006262e-15
11
225.77192536807183
21
81.847623102787537
31
5.4123372450476381e-15
0
LINE
5
381
100
AcDbEntity
8
0
100
AcDbLine
10
225.35906559360242
20
79.302212301280321
30
-8.8817841970012523e-15
11
205.43299122014264
21
64.219781289214239
31
-1.5543122344752192e-14
0
LINE
5
382
100
AcDbEntity
8
0
100
AcDbLine
10
227.25181803237126
20
77.853926333776514
30
-4.4408920985006262e-15
11
211.21444786871325
21
65.714930735601328
31
-4.5102810375396984e-15
0
LINE
5
383
100
AcDbEntity
8
0
100
AcDbLine
10
227.25181803237126
20
80.132791356481775
30
4.4408920985006262e-15
11
227.25181803237126
21
77.853926333776514
31
-4.4408920985006262e-15
0
LINE
5
384
100
AcDbEntity
8
0
100
AcDbLine
10
225.35906559360242
20
79.302212301280321
30
-8.8817841970012523e-15
11
224.19346546132797
21
80.652856276036843
31
-6.3143934525555778e-15
0
LINE
5
385
100
AcDbEntity
8
0
100
AcDbLine
10
205.43299122014264
20
64.219781289214239
30
-1.5543122344752192e-14
11
205.43299122014264
21
61.940916266508964
31
0
0
LINE
5
386
100
AcDbEntity
8
0
100
AcDbLine
10
208.09190604107437
20
58.859887719202163
30
-2.2204460492503131e-15
11
205.43299122014264
21
61.940916266508964
31
0
0
ELLIPSE
5
387
100
AcDbEntity
8
0
100
AcDbEllipse
10
210.23069335646534
20
60.478777196842174
30
-8.8817841970012523e-15
11
2.75
21
-7.5926352899046041e-15
31
0.0
40
0.93652731578634607
41
3.8213252348873152
42
6.2831853071795898
0
LINE
5
388
100
AcDbEntity
8
0
100
AcDbLine
10
238.8987534903319
20
101.35146847912834
30
-1.1102230246251565e-14
11
238.27016842628183
21
102.07984402222687
31
-7.7021722333370235e-15
0
LINE
5
389
100
AcDbEntity
8
0
100
AcDbLine
10
238.27016842628183
20
102.07984402222687
30
-7.7021722333370235e-15
11
230.06274532209505
21
95.86748676431101
31
-1.1657341758564144e-14
0
LINE
5
390
100
AcDbEntity
8
0
100
AcDbLine
10
238.8987534903319
20
99.07260345642311
30
-8.8817841970012523e-15
11
231.88091987190882
21
93.76066948386881
31
-1.3877787807814457e-15
0
LINE
5
391
100
AcDbEntity
8
0
100
AcDbLine
10
238.8987534903319
20
101.35146847912834
30
-1.1102230246251565e-14
11
238.8987534903319
21
99.07260345642311
31
-8.8817841970012523e-15
0
LINE
5
392
100
AcDbEntity
8
0
100
AcDbLine
10
235.31581862524661
20
105.50320907478999
30
-1.7763568394002505e-14
11
234.68723356119654
21
106.23158461788853
31
-1.4363510381087963e-14
0
LINE
5
393
100
AcDbEntity
8
0
100
AcDbLine
10
234.68723356119654
20
106.23158461788853
30
-1.4363510381087963e-14
11
226.47981045700976
21
100.01922735997269
31
-7.2164496600635175e-15
0
LINE
5
394
100
AcDbEntity
8
0
100
AcDbLine
10
235.31581862524661
20
103.22434405208476
30
-8.8817841970012523e-15
11
228.29798500682355
21
97.912410079530488
31
-9.4368957093138306e-15
0
LINE
5
395
100
AcDbEntity
8
0
100
AcDbLine
10
235.31581862524661
20
105.50320907478999
30
-1.7763568394002505e-14
11
235.31581862524661
21
103.22434405208476
31
-8.8817841970012523e-15
0
LINE
5
396
100
AcDbEntity
8
0
100
AcDbLine
10
233.80082208104335
20
91.535974857394081
30
-1.3322676295501878e-14
11
231.88091987190882
21
93.76066948386881
31
-1.3877787807814457e-15
0
LINE
5
397
100
AcDbEntity
8
0
100
AcDbLine
10
230.06274532209505
20
95.86748676431101
30
-1.1657341758564144e-14
11
228.29798500682355
21
97.912410079530488
31
-9.4368957093138306e-15
0
LINE
5
398
100
AcDbEntity
8
0
100
AcDbLine
10
226.47981045700976
20
100.01922735997269
30
-7.2164496600635175e-15
11
223.74346105624255
21
103.18998354697069
31
-1.6792123247455493e-14
0
LINE
5
399
100
AcDbEntity
8
0
100
AcDbLine
10
223.74346105624255
20
103.18998354697069
30
-1.6792123247455493e-14
11
214.68503746890951
21
96.333487567210881
31
-1.3322676295501878e-14
0
LINE
5
400
100
AcDbEntity
8
0
100
AcDbLine
10
212.71770714118554
20
94.844377199071118
30
-1.5543122344752192e-14
11
201.81116931296066
21
86.589007812625908
31
-1.4432899320127035e-14
0
LINE
5
401
100
AcDbEntity
8
0
100
AcDbLine
10
233.80082208104335
20
87.924850282953443
30
-4.4408920985006262e-15
11
225.77192536807183
21
81.847623102787537
31
5.4123372450476381e-15
0
LINE
5
402
100
AcDbEntity
8
0
100
AcDbLine
10
224.19346546132797
20
80.652856276036843
30
-6.3143934525555778e-15
11
211.86853033776148
21
71.323874548608671
31
-8.8817841970012523e-15
0
LINE
5
403
100
AcDbEntity
8
0
100
AcDbLine
10
233.80082208104335
20
91.535974857394081
30
-1.3322676295501878e-14
11
233.80082208104335
21
87.924850282953443
31
-4.4408920985006262e-15
0
LINE
5
404
100
AcDbEntity
8
0
100
AcDbLine
10
201.81116931296066
20
86.589007812625908
30
-1.4432899320127035e-14
11
201.81116931296063
21
82.977883238185257
31
-2.9143354396410359e-15
0
LINE
5
405
100
AcDbEntity
8
0
100
AcDbLine
10
211.86853033776148
20
71.323874548608671
30
-8.8817841970012523e-15
11
201.81116931296063
21
82.977883238185257
31
-2.9143354396410359e-15
0
LINE
5
406
100
AcDbEntity
8
0
100
AcDbLine
10
212.98069335646531
20
62.757642219547407
30
-4.2615205370291962e-15
11
212.98069335646531
21
60.478777196842174
31
-8.7024126355298215e-15
0
LINE
5
407
100
AcDbEntity
8
0
100
AcDbLine
10
200.93026880896161
20
112.00528165536312
30
4.4408920985006262e-15
11
206.37445470268406
21
116.12609123481042
31
3.6082248300317588e-15
0
LINE
5
408
100
AcDbEntity
8
0
100
AcDbLine
10
206.37445470268406
20
116.12609123481042
30
3.6082248300317588e-15
11
206.37445470268406
21
124.89095670675626
31
-3.3306690738754696e-15
0
ELLIPSE
5
409
100
AcDbEntity
8
0
100
AcDbEllipse
10
164.76887098587918
20
137.1830024426053
30
4.4408920985006262e-15
11
-13.965250148620488
21
-12.051952790454969
31
0.0
40
0.27267175407273175
41
2.3049379248624979
42
2.6423499946137414
0
LINE
5
410
100
AcDbEntity
8
0
100
AcDbLine
10
175.78686624695959
20
141.84149261706017
30
2.2204460492503131e-14
11
176.5646070889199
21
142.43017969983836
31
4.2336019228935083e-15
0
LINE
5
411
100
AcDbEntity
8
0
100
AcDbLine
10
175.78686624695956
20
141.1403033793047
30
0
11
175.78686624695959
21
141.84149261706017
31
2.2204460492503131e-14
0
LINE
5
412
100
AcDbEntity
8
0
100
AcDbLine
10
200.93026880896161
20
112.00528165536312
30
4.4408920985006262e-15
11
175.78686624695956
21
141.1403033793047
31
0
0
LINE
5
413
100
AcDbEntity
8
0
100
AcDbLine
10
206.37445470268406
20
124.89095670675626
30
-3.3306690738754696e-15
11
181.23105214068207
21
154.02597843069788
31
-2.1094237467877974e-14
0
LINE
5
414
100
AcDbEntity
8
0
100
AcDbLine
10
175.78686624695959
20
149.90516885125058
30
0
11
181.23105214068207
21
154.02597843069788
31
-2.1094237467877974e-14
0
LINE
5
415
100
AcDbEntity
8
0
100
AcDbLine
10
175.78686624695959
20
149.20397961349511
30
0
11
175.78686624695959
21
149.90516885125058
31
0
0
LINE
5
416
100
AcDbEntity
8
0
100
AcDbLine
10
178.60291472363812
20
145.9408717926112
30
4.3072153915083169e-15
11
175.78686624695959
21
149.20397961349511
31
0
0
ELLIPSE
5
417
100
AcDbEntity
8
0
100
AcDbEllipse
10
113.96793555270148
20
163.23403530267655
30
4.4408920985006262e-15
11
-5.5879999999999992
21
-9.8446924131954907e-14
31
0.0
40
0.93652731578634496
41
3.1407418443985282
42
3.1415926535897967
0
ELLIPSE
5
418
100
AcDbEntity
8
0
100
AcDbEllipse
10
70.745915157377809
20
167.52722044216225
30
2.2204460492503131e-14
11
-5.5879999999999992
21
-9.8446924131954907e-14
31
0.0
40
0.93652731578634496
41
0
42
0.00085080919123646113
0
ELLIPSE
5
419
100
AcDbEntity
8
0
100
AcDbEllipse
10
113.96793555270148
20
163.22513019935701
30
4.4408920985006262e-15
11
-5.5879999999999992
21
-9.8446924131954907e-14
31
0.0
40
0.93652731578634496
41
3.1415926535897967
42
3.1424434627810331
0
ELLIPSE
5
420
100
AcDbEntity
8
0
100
AcDbEllipse
10
70.745915157377794
20
167.51831533884274
30
1.3322676295501878e-14
11
-5.5879999999999992
21
-9.8446924131954907e-14
31
0.0
40
0.93652731578634496
41
6.2823344979883284
42
6.2831853071795933
0
ELLIPSE
5
421
100
AcDbEntity
8
0
100
AcDbEllipse
10
113.96793555270163
20
152.63696235247815
30
1.3322676295501878e-14
11
-5.5879999999999992
21
-9.8446924131954907e-14
31
0.0
40
0.93652731578634496
41
3.1415926535897967
42
3.142443462781026
0
ELLIPSE
5
422
100
AcDbEntity
8
0
100
AcDbEllipse
10
70.745915157377993
20
156.93014749196385
30
2.2204460492503131e-14
11
-5.5879999999999992
21
-9.8446924131954907e-14
31
0.0
40
0.93652731578634496
41
6.2823344979883284
42
6.2831853071795969
0
ELLIPSE
5
423
100
AcDbEntity
8
0
100
AcDbEllipse
10
70.745915157377979
20
156.93905259528339
30
2.2204460492503131e-14
11
-5.5879999999999992
21
-9.8446924131954907e-14
31
0.0
40
0.93652731578634496
41
3.5527136788005072e-15
42
0.00085080919124001537
0
ELLIPSE
5
424
100
AcDbEntity
8
0
100
AcDbEllipse
10
113.96793555270163
20
152.64586745579766
30
4.4408920985006262e-15
11
-5.5879999999999992
21
-9.8446924131954907e-14
31
0.0
40
0.93652731578634496
41
3.1407418443985282
42
3.1415926535897967
0
LINE
5
425
100
AcDbEntity
8
0
100
AcDbLine
10
119.55593555270141
20
165.81651526533005
30
-4.4408920985006262e-15
11
119.55593555270147
21
163.23403530267666
31
4.8027632235621418e-15
0
LINE
5
426
100
AcDbEntity
8
0
100
AcDbLine
10
65.157915157377758
20
170.10970040481556
30
4.4408920985006262e-15
11
65.157915157377801
21
167.52722044216213
31
2.1842589367441614e-14
0
LINE
5
427
100
AcDbEntity
8
0
100
AcDbLine
10
119.55593555270163
20
152.63696235247826
30
1.3684547420563395e-14
11
119.5559355527017
21
149.34207412426531
31
1.4016565685892601e-14
0
LINE
5
428
100
AcDbEntity
8
0
100
AcDbLine
10
65.157915157378
20
156.93014749196374
30
2.1842589367441614e-14
11
65.157915157378042
21
153.63525926375081
31
5.5511151231257827e-16
0
LINE
5
429
100
AcDbEntity
8
0
100
AcDbLine
10
119.55593555270147
20
163.22513019935712
30
4.8027632235621418e-15
11
119.55593555270163
21
152.64586745579777
31
4.8027632235621418e-15
0
LINE
5
430
100
AcDbEntity
8
0
100
AcDbLine
10
65.157915157377801
20
167.51831533884263
30
1.2960805170440362e-14
11
65.157915157377985
21
156.93905259528327
31
2.1842589367441614e-14
0
SPLINE
5
431
100
AcDbEntity
8
0
100
AcDbSpline
70
0
71
3
72
16
73
12
74
0
42
0.000000001
43
0.0000000001
44
0.0000000001
40
3.1415926535897931
40
3.1415926535897931
40
3.1415926535897931
40
3.1415926535897931
40
3.3198054026892718
40
3.3198054026892718
40
3.4980181517887505
40
3.4980181517887505
40
3.6762309008882292
40
3.6762309008882292
40
3.8544436499877079
40
3.8544436499877079
40
4.0326563990871866
40
4.0326563990871866
40
4.0326563990871866
40
4.0326563990871866
10
67.246112283833497
20
174.21489891753478
30
4.4408920985006262e-15
10
66.987725875052263
20
174.01932124820274
30
4.4408920985006262e-15
10
66.747593152985786
20
173.8018200018783
30
1.3322676295501878e-14
10
66.311637111197939
20
173.3295405102964
30
4.4408920985006262e-15
10
66.115823735656861
20
173.07476699857747
30
4.4408920985006262e-15
10
65.775066273003702
20
172.53584812631283
30
1.3322676295501878e-14
10
65.630132242111173
20
172.25171043837179
30
-4.4408920985006262e-15
10
65.396129550101534
20
171.66311576959032
30
-4.4408920985006262e-15
10
65.307069534511868
20
171.35867016007006
30
1.3322676295501878e-14
10
65.187959778534136
20
170.73937606999073
30
-4.4408920985006262e-15
10
65.157915157377758
20
170.42454222829991
30
-4.4408920985006262e-15
10
65.157915157377758
20
170.10970040481556
30
4.4408920985006262e-15
0
LINE
5
432
100
AcDbEntity
8
0
100
AcDbLine
10
67.246112283833497
20
174.21489891753478
30
4.4408920985006262e-15
11
91.149199320642893
21
192.30760771963944
31
1.7763568394002505e-14
0
SPLINE
5
433
100
AcDbEntity
8
0
100
AcDbSpline
70
0
71
3
72
16
73
12
74
0
42
0.000000001
43
0.0000000001
44
0.0000000001
40
0.89106374549739376
40
0.89106374549739376
40
0.89106374549739376
40
0.89106374549739376
40
1.0270102617568939
40
1.0270102617568939
40
1.1629567780163941
40
1.1629567780163941
40
1.2989032942758942
40
1.2989032942758942
40
1.4348498105353944
40
1.4348498105353944
40
1.5707963267948948
40
1.5707963267948948
40
1.5707963267948948
40
1.5707963267948948
10
119.55593555270141
20
165.81651526533005
30
-4.4408920985006262e-15
10
119.55593555270141
20
166.05668691012966
30
4.4408920985006262e-15
10
119.53847369042158
20
166.2968564859037
30
-4.4408920985006262e-15
10
119.4689889083928
20
166.77258042150439
30
-4.4408920985006262e-15
10
119.41696702958669
20
167.00813084897339
30
-4.4408920985006262e-15
10
119.27943647114981
20
167.47011937704525
30
1.3322676295501878e-14
10
119.1939296718521
20
167.69655409476286
30
1.3322676295501878e-14
10
118.99117035434418
20
168.13604727650042
30
-4.4408920985006262e-15
10
118.87392023895717
20
168.34910308492334
30
-4.4408920985006262e-15
10
118.61001666615172
20
168.75789879590045
30
4.4408920985006262e-15
10
118.46336582010308
20
168.95363676654944
30
4.4408920985006262e-15
10
118.30344694878043
20
169.138943420196
30
1.3322676295501878e-14
0
SPLINE
5
434
100
AcDbEntity
8
0
100
AcDbSpline
70
0
71
3
72
16
73
12
74
0
42
0.000000001
43
0.0000000001
44
0.0000000001
40
1.5707963267948963
40
1.5707963267948963
40
1.5707963267948963
40
1.5707963267948963
40
1.8849555921538756
40
1.8849555921538756
40
2.1991148575128552
40
2.1991148575128552
40
2.5132741228718345
40
2.5132741228718345
40
2.8274333882308138
40
2.8274333882308138
40
3.1415926535897931
40
3.1415926535897931
40
3.1415926535897931
40
3.1415926535897931
10
98.984513590266204
20
191.52483736178641
30
1.3322676295501878e-14
10
98.614956528312106
20
191.95306313599173
30
1.3322676295501878e-14
10
98.174204292514588
20
192.32511734829004
30
4.4408920985006262e-15
10
97.194131836272504
20
192.92242062784081
30
4.4408920985006262e-15
10
96.65496337447658
20
193.14763121963108
30
4.4408920985006262e-15
10
95.530093112599445
20
193.43097632958518
30
1.3322676295501878e-14
10
94.944532979110647
20
193.48909512844796
30
4.4408920985006262e-15
10
93.782427300425468
20
193.43308961268406
30
4.4408920985006262e-15
10
93.206022143994034
20
193.31896839503264
30
1.3322676295501878e-14
10
92.117082400745588
20
192.9286017835048
30
4.4408920985006262e-15
10
91.604691336627326
20
192.6523784345768
30
4.4408920985006262e-15
10
91.149199320642879
20
192.30760771963944
30
1.3322676295501878e-14
0
LINE
5
435
100
AcDbEntity
8
0
100
AcDbLine
10
98.984513590266204
20
191.52483736178641
30
1.3322676295501878e-14
11
118.30344694878045
21
169.138943420196
31
1.332267629550188e-14
0
SPLINE
5
436
100
AcDbEntity
8
0
100
AcDbSpline
70
0
71
3
72
16
73
12
74
0
42
0.000000001
43
0.0000000001
44
0.0000000001
40
0
40
0
40
0
40
0
40
0.17821274909947876
40
0.17821274909947876
40
0.35642549819895752
40
0.35642549819895752
40
0.53463824729843634
40
0.53463824729843634
40
0.71285099639791505
40
0.71285099639791505
40
0.89106374549739376
40
0.89106374549739376
40
0.89106374549739376
40
0.89106374549739376
10
117.46773842624597
20
145.23687561154611
30
4.4408920985006262e-15
10
117.72612483502719
20
145.43245328087818
30
1.3322676295501878e-14
10
117.96625755709366
20
145.64995452720251
30
8.8817841970012523e-15
10
118.40221359888154
20
146.12223401878447
30
2.2204460492503131e-14
10
118.59802697442262
20
146.37700753050336
30
4.4408920985006262e-15
10
118.93878443707578
20
146.91592640276804
30
2.2204460492503131e-14
10
119.08371846796828
20
147.20006409070908
30
8.8817841970012523e-15
10
119.31772115997795
20
147.78865875949054
30
1.3322676295501878e-14
10
119.40678117556759
20
148.0931043690108
30
1.3322676295501878e-14
10
119.52589093154532
20
148.71239845909011
30
8.8817841970012523e-15
10
119.5559355527017
20
149.02723230078092
30
1.3322676295501878e-14
10
119.55593555270171
20
149.34207412426531
30
8.8817841970012523e-15
0
LINE
5
437
100
AcDbEntity
8
0
100
AcDbLine
10
93.564651389436591
20
127.1441668094414
30
1.3322676295501878e-14
11
117.46773842624597
21
145.23687561154611
31
4.4408920985006262e-15
0
SPLINE
5
438
100
AcDbEntity
8
0
100
AcDbSpline
70
0
71
3
72
16
73
12
74
0
42
0.000000001
43
0.0000000001
44
0.0000000001
40
4.0326563990871866
40
4.0326563990871866
40
4.0326563990871866
40
4.0326563990871866
40
4.1686029153466864
40
4.1686029153466864
40
4.3045494316061861
40
4.3045494316061861
40
4.4404959478656858
40
4.4404959478656858
40
4.5764424641251855
40
4.5764424641251855
40
4.7123889803846861
40
4.7123889803846861
40
4.7123889803846861
40
4.7123889803846861
10
65.157915157378056
20
153.63525926375081
30
1.3322676295501878e-14
10
65.157915157378056
20
153.39508761895115
30
1.3322676295501878e-14
10
65.175377019657859
20
153.15491804317713
30
1.3322676295501878e-14
10
65.244861801686639
20
152.67919410757651
30
1.3322676295501878e-14
10
65.296883680492755
20
152.44364368010741
30
2.2204460492503131e-14
10
65.43441423892962
20
151.98165515203561
30
2.2204460492503131e-14
10
65.519921038227352
20
151.75522043431798
30
1.3322676295501878e-14
10
65.722680355735264
20
151.31572725258044
30
1.7763568394002505e-14
10
65.839930471122258
20
151.10267144415755
30
8.8817841970012523e-15
10
66.103834043927719
20
150.69387573318042
30
1.3322676295501878e-14
10
66.250484889976363
20
150.49813776253137
30
8.8817841970012523e-15
10
66.410403761298994
20
150.31283110888484
30
2.6645352591003757e-14
0
SPLINE
5
439
100
AcDbEntity
8
0
100
AcDbSpline
70
0
71
3
72
16
73
12
74
0
42
0.000000001
43
0.0000000001
44
0.0000000001
40
4.7123889803846897
40
4.7123889803846897
40
4.7123889803846897
40
4.7123889803846897
40
5.0265482457436681
40
5.0265482457436681
40
5.3407075111026465
40
5.3407075111026465
40
5.6548667764616249
40
5.6548667764616249
40
5.9690260418206034
40
5.9690260418206034
40
6.2831853071795827
40
6.2831853071795827
40
6.2831853071795827
40
6.2831853071795827
10
85.72933711981328
20
127.92693716729443
30
1.3322676295501878e-14
10
86.098894181767363
20
127.49871139308917
30
1.3322676295501878e-14
10
86.539646417564867
20
127.12665718079082
30
4.4408920985006262e-15
10
87.519718873806937
20
126.52935390124006
30
8.8817841970012523e-15
10
88.05888733560289
20
126.30414330944978
30
8.8817841970012523e-15
10
89.18375759748001
20
126.02079819949567
30
1.3322676295501878e-14
10
89.769317730968808
20
125.96267940063288
30
1.3322676295501878e-14
10
90.931423409654002
20
126.01868491639677
30
8.8817841970012523e-15
10
91.507828566085379
20
126.1328061340482
30
1.3322676295501878e-14
10
92.596768309333868
20
126.52317274557603
30
4.4408920985006262e-15
10
93.109159373452144
20
126.79939609450406
30
2.2204460492503131e-14
10
93.564651389436591
20
127.14416680944142
30
1.3322676295501878e-14
0
LINE
5
440
100
AcDbEntity
8
0
100
AcDbLine
10
66.410403761298994
20
150.31283110888484
30
2.6645352591003751e-14
11
85.72933711981328
21
127.92693716729443
31
1.3322676295501878e-14
0
ELLIPSE
5
441
100
AcDbEntity
8
0
100
AcDbEllipse
10
68.078916015906742
20
-15.79424227672941
30
-8.8817841970012523e-15
11
-1.9229395946023706
21
-1.6594888717645775
31
0.0
40
0.27267175407273297
41
1.4210854715202029e-14
42
0.46084511000512995
0
ELLIPSE
5
442
100
AcDbEntity
8
0
100
AcDbEllipse
10
77.179570573223359
20
-26.339663389710083
30
-1.3322676295501878e-14
11
-1.9229395946023706
21
-1.6594888717645775
31
0.0
40
0.27267175407273297
41
2.9994085580045473
42
3.1415926535897931
0
LINE
5
443
100
AcDbEntity
8
0
100
AcDbLine
10
66.557810477200675
20
-17.513781145624755
30
-8.8903328231694701e-15
11
75.658465034517292
21
-28.059202258605428
31
-6.106226635438361e-15
0
SPLINE
5
444
100
AcDbEntity
8
0
100
AcDbSpline
70
4
71
2
72
6
73
3
74
0
42
0.000000001
43
0.0000000001
44
0.0000000001
40
-2.7973979357818384
40
-2.7973979357818384
40
-2.7973979357818384
40
-2.6051162172171014
40
-2.6051162172171014
40
-2.6051162172171014
41
2.7213844032207843
41
2.813243442967726
41
2.8843415531147985
10
75.658465034517235
20
-28.059202258605382
30
-1.3322676295501877e-14
10
75.84301570271225
20
-28.19238775707284
30
-1.3322676295501878e-14
10
75.97778624705569
20
-28.275956666282145
30
-4.4408920985006262e-15
0
ELLIPSE
5
445
100
AcDbEntity
8
0
100
AcDbEllipse
10
77.49889178576079
20
-26.709678165604135
30
-1.3322676295501878e-14
11
-1.7306456351421335
21
-1.4935399845881197
31
0.0
40
0.27267175407273281
41
0.31306327196788603
42
2.9994085580045478
0
ELLIPSE
5
446
100
AcDbEntity
8
0
100
AcDbEllipse
10
69.333198914307772
20
11.035194625067941
30
-6.6613381477509392e-15
11
-4.2304671081252145
21
-3.6508755178820702
31
0.0
40
0.27267175407273297
41
3.1415926535897967
42
3.1496119313466924
0
ELLIPSE
5
447
100
AcDbEntity
8
0
100
AcDbEllipse
10
45.430111877498192
20
-17.832689193624866
30
-4.4408920985006262e-15
11
-4.2304671081252145
21
-3.6508755178820702
31
0.0
40
0.27267175407273297
41
6.275166029422687
42
6.2831853071795898
0
ELLIPSE
5
448
100
AcDbEntity
8
0
100
AcDbEllipse
10
69.317232853680906
20
11.053695363862651
30
-1.1102230246251565e-14
11
-4.2304671081252145
21
-3.6508755178820702
31
0.0
40
0.27267175407273297
41
3.1335733758328939
42
3.1415926535897967
0
ELLIPSE
5
449
100
AcDbEntity
8
0
100
AcDbEllipse
10
45.414145816871319
20
-17.81418845483017
30
-8.8817841970012523e-15
11
-4.2304671081252145
21
-3.6508755178820702
31
0.0
40
0.27267175407273297
41
3.5527136788005009e-15
42
0.0080192777568959712
0
LINE
5
450
100
AcDbEntity
8
0
100
AcDbLine
10
13.830842396145018
20
4.1357146607692652
30
-4.4408920985006262e-15
11
13.830842396145101
21
9.389725619270969
31
-9.9920072216264089e-15
0
LINE
5
451
100
AcDbEntity
8
0
100
AcDbLine
10
13.830842396145101
20
9.389725619270969
30
-9.9920072216264089e-15
11
16.064133822420491
21
11.08014708590472
31
-7.7021722333370235e-15
0
ELLIPSE
5
452
100
AcDbEntity
8
0
100
AcDbEllipse
10
50.33358676833096
20
33.051073790764427
30
-8.8817841970012523e-15
11
-4.2304671081252145
21
-3.6508755178820702
31
0.0
40
0.27267175407273297
41
3.1335733758328974
42
3.1415926535897967
0
ELLIPSE
5
453
100
AcDbEntity
8
0
100
AcDbEllipse
10
26.430499731521387
20
4.1831899720716104
30
-2.2204460492503131e-15
11
-4.2304671081252145
21
-3.6508755178820702
31
0.0
40
0.27267175407273297
41
1.7763568394002497e-15
42
0.0080192777568977407
0
LINE
5
454
100
AcDbEntity
8
0
100
AcDbLine
10
20.524728752349777
20
2.4735797446281849
30
-2.2204460492503131e-15
11
17.3433757340567
21
0.065552125934623673
31
-2.2204460492503131e-15
0
LINE
5
455
100
AcDbEntity
8
0
100
AcDbLine
10
17.3433757340567
20
0.065552125934623673
30
-2.2204460492503131e-15
11
13.830842396145018
21
4.1357146607692652
31
-4.4408920985006262e-15
0
ELLIPSE
5
456
100
AcDbEntity
8
0
100
AcDbEllipse
10
26.44646579214826
20
4.1646892332769037
30
0
11
-4.2304671081252145
21
-3.6508755178820702
31
0.0
40
0.27267175407273297
41
6.275166029422687
42
6.2831853071795862
0
ELLIPSE
5
457
100
AcDbEntity
8
0
100
AcDbEllipse
10
50.349552828957833
20
33.032573051969727
30
-4.4408920985006262e-15
11
-4.2304671081252145
21
-3.6508755178820702
31
0.0
40
0.27267175407273297
41
3.1415926535897913
42
3.1496119313466906
0
LINE
5
458
100
AcDbEntity
8
0
100
AcDbLine
10
64.057057307747328
20
-15.021599943519512
30
-6.6613381477509392e-15
11
66.155976421304374
21
-17.453731148493986
31
-8.8817841970012523e-15
0
LINE
5
459
100
AcDbEntity
8
0
100
AcDbLine
10
68.115894196378434
20
-11.949387815096252
30
-8.8817841970012523e-15
11
79.102510167825727
21
-24.680174517945503
31
-1.3322676295501878e-14
0
LINE
5
460
100
AcDbEntity
8
0
100
AcDbLine
10
79.269782256455827
20
-25.298080274106596
30
-1.3136701004817879e-14
11
79.147226651773394
21
-24.771221288046146
31
-1.3325400318900271e-14
0
LINE
5
461
100
AcDbEntity
8
0
100
AcDbLine
10
78.19382360422567
20
9.3208558924861649
30
-1.3322676295501878e-14
11
73.563666022432983
21
14.686070142950012
31
-6.5062399912108043e-15
0
LINE
5
462
100
AcDbEntity
8
0
100
AcDbLine
10
45.829802351165661
20
-26.84877896197079
30
-8.8817841970012523e-15
11
41.199644769372981
21
-21.483564711506936
31
-4.5959902550407611e-15
0
LINE
5
463
100
AcDbEntity
8
0
100
AcDbLine
10
54.564053876456171
20
36.701949308646498
30
-8.7266860404611173e-15
11
48.656611444513807
21
43.547222662686579
31
-6.106226635438361e-15
0
LINE
5
464
100
AcDbEntity
8
0
100
AcDbLine
10
22.200032623396172
20
0.53231445418954071
30
-2.3755442057904473e-15
11
20.524728752349777
21
2.4735797446281849
31
-2.2204460492503131e-15
0
LINE
5
465
100
AcDbEntity
8
0
100
AcDbLine
10
73.547699961806103
20
14.704570881744722
30
-1.0947132089711432e-14
11
54.580019937083044
21
36.683448569851798
31
-4.285793941960492e-15
0
LINE
5
466
100
AcDbEntity
8
0
100
AcDbLine
10
41.183678708746108
20
-21.46506397271224
30
-9.0368823535413857e-15
11
22.215998684023045
21
0.513813715394834
31
-1.5509815654013432e-16
0
LINE
5
467
100
AcDbEntity
8
0
100
AcDbLine
10
74.269947244270256
20
-7.2912660596615497
30
-4.4408920985006262e-15
11
68.115894196378434
21
-11.949387815096252
31
-8.8817841970012523e-15
0
LINE
5
468
100
AcDbEntity
8
0
100
AcDbLine
10
64.057057307747328
20
-15.021599943519512
30
-6.6613381477509392e-15
11
50.366860207460832
21
-25.383974861766134
31
-3.3306690738754696e-15
0
SPLINE
5
469
100
AcDbEntity
8
0
100
AcDbSpline
70
0
71
3
72
16
73
12
74
0
42
0.000000001
43
0.0000000001
44
0.0000000001
40
4.7123889803846826
40
4.7123889803846826
40
4.7123889803846826
40
4.7123889803846826
40
5.0265482457436619
40
5.0265482457436619
40
5.3407075111026412
40
5.3407075111026412
40
5.6548667764616205
40
5.6548667764616205
40
5.9690260418205998
40
5.9690260418205998
40
6.2831853071795791
40
6.2831853071795791
40
6.2831853071795791
40
6.2831853071795791
10
74.269947244270256
20
-7.2912660596615497
30
-4.4408920985006262e-15
10
74.695843240142082
20
-6.9688971446580128
30
-2.2204460492503131e-15
10
75.120475630120964
20
-6.6171392472816271
30
-2.2204460492503131e-15
10
75.929120767786145
20
-5.8866184802194299
30
0
10
76.312968559929573
20
-5.5080211739077134
30
-2.2204460492503131e-15
10
77.00524266263885
20
-4.7572952691374981
30
-4.4408920985006262e-15
10
77.313537793575051
20
-4.3854675223614281
30
0
10
77.828069261270457
20
-3.6767658102046274
30
-2.2204460492503131e-15
10
78.034491233751382
20
-3.3409149033608232
30
-4.4408920985006262e-15
10
78.328117308894193
20
-2.7112937630608247
30
-4.4408920985006262e-15
10
78.422279973258867
20
-2.4191831733001701
30
-4.4408920985006262e-15
10
78.422279973258867
20
-2.1146642614709998
30
-2.2204460492503131e-15
0
SPLINE
5
470
100
AcDbEntity
8
0
100
AcDbSpline
70
0
71
3
72
18
73
14
74
0
42
0.000000001
43
0.0000000001
44
0.0000000001
40
3.3727027187109764
40
3.3727027187109764
40
3.3727027187109764
40
3.3727027187109764
40
3.5303432080789618
40
3.5303432080789618
40
3.7438017451819308
40
3.7438017451819308
40
4.0117389975166722
40
4.0117389975166722
40
4.2796762498514136
40
4.2796762498514136
40
4.547613502186155
40
4.547613502186155
40
4.7123889803846826
40
4.7123889803846826
40
4.7123889803846826
40
4.7123889803846826
10
45.829802351165661
20
-26.84877896197079
30
-8.8817841970012523e-15
10
45.941317116362406
20
-26.977997157421289
30
0
10
46.089519329896184
20
-27.069392198266776
30
-4.4408920985006262e-15
10
46.441539019638931
20
-27.190362135502134
30
-4.4408920985006262e-15
10
46.646222674145804
20
-27.197825520116442
30
-8.8817841970012523e-15
10
47.118135822916813
20
-27.150105281096234
30
-4.4408920985006262e-15
10
47.393718833008109
20
-27.075204400152519
30
-6.6613381477509392e-15
10
47.990563404406259
20
-26.850357264378367
30
-4.4408920985006262e-15
10
48.310812797254769
20
-26.6991136461229
30
-4.4408920985006262e-15
10
48.984943270758251
20
-26.329219925570651
30
0
10
49.338472864286757
20
-26.110500027557716
30
-4.4408920985006262e-15
10
49.919766922585836
20
-25.714080006954209
30
-2.2204460492503131e-15
10
50.143479189866369
20
-25.553056273595111
30
-2.2204460492503131e-15
10
50.366860207460853
20
-25.383974861766131
30
-8.8817841970012523e-15
0
LINE
5
471
100
AcDbEntity
8
0
100
AcDbLine
10
78.422279973259037
20
8.6605107551172456
30
-1.1102230246251565e-14
11
78.422279973258867
21
-2.1146642614709998
31
-2.2204460492503127e-15
0
SPLINE
5
472
100
AcDbEntity
8
0
100
AcDbSpline
70
0
71
3
72
16
73
12
74
0
42
0.000000001
43
0.0000000001
44
0.0000000001
40
6.28318530717958
40
6.28318530717958
40
6.28318530717958
40
6.28318530717958
40
6.3294073202038179
40
6.3294073202038179
40
6.3756293332280558
40
6.3756293332280558
40
6.4218513462522937
40
6.4218513462522937
40
6.4680733592765316
40
6.4680733592765316
40
6.5142953723007695
40
6.5142953723007695
40
6.5142953723007695
40
6.5142953723007695
10
78.422279973259037
20
8.6605107551172402
30
-1.5543122344752192e-14
10
78.422279973259037
20
8.7053143902817496
30
-4.4408920985006262e-15
10
78.419991999742507
20
8.750415928187266
30
-6.6613381477509392e-15
10
78.409898866548801
20
8.8411406633972831
30
-8.8817841970012523e-15
10
78.402086451091336
20
8.8867730936629918
30
-1.5543122344752192e-14
10
78.37987213358501
20
8.9779738400381639
30
-8.8817841970012523e-15
10
78.36545446493632
20
9.0235462996746598
30
-4.4408920985006262e-15
10
78.329169869201081
20
9.1132814563629374
30
-4.4408920985006262e-15
10
78.307284966775342
20
9.1574328873548296
30
-8.8817841970012523e-15
10
78.255962203662989
20
9.2422895087188586
30
-8.8817841970012523e-15
10
78.226521021938495
20
9.282967624459161
30
-8.8817841970012523e-15
10
78.19382360422567
20
9.3208558924861649
30
-1.3322676295501878e-14
0
LINE
5
473
100
AcDbEntity
8
0
100
AcDbLine
10
44.119553588218622
20
42.082418562481934
30
-8.8817841970012523e-15
11
20.216466551409205
21
23.989709760377345
31
-8.8817841970012523e-15
0
SPLINE
5
474
100
AcDbEntity
8
0
100
AcDbSpline
70
0
71
3
72
16
73
12
74
0
42
0.000000001
43
0.0000000001
44
0.0000000001
40
1.5707963267948901
40
1.5707963267948901
40
1.5707963267948901
40
1.5707963267948901
40
1.8849555921538694
40
1.8849555921538694
40
2.199114857512849
40
2.199114857512849
40
2.5132741228718283
40
2.5132741228718283
40
2.8274333882308076
40
2.8274333882308076
40
3.1415926535897869
40
3.1415926535897869
40
3.1415926535897869
40
3.1415926535897869
10
20.216466551409216
20
23.989709760377348
30
-1.3322676295501878e-14
10
19.790570555537382
20
23.667340845373811
30
-4.4408920985006262e-15
10
19.365938165558504
20
23.315582947997399
30
-1.1102230246251565e-14
10
18.557293027893323
20
22.585062180935211
30
-1.7763568394002505e-14
10
18.173445235749888
20
22.206464874623492
30
-8.8817841970012523e-15
10
17.481171133040601
20
21.455738969853286
30
-4.4408920985006262e-15
10
17.17287600210441
20
21.083911223077216
30
-1.1102230246251565e-14
10
16.658344534409007
20
20.375209510920421
30
-4.4408920985006262e-15
10
16.45192256192809
20
20.039358604076604
30
-8.8817841970012523e-15
10
16.158296486785261
20
19.409737463776612
30
-8.8817841970012523e-15
10
16.064133822420608
20
19.117626874015947
30
-4.4408920985006262e-15
10
16.064133822420608
20
18.81310796218678
30
-1.5543122344752192e-14
0
SPLINE
5
475
100
AcDbEntity
8
0
100
AcDbSpline
70
0
71
3
72
18
73
14
74
0
42
0.000000001
43
0.0000000001
44
0.0000000001
40
0.23111006512118326
40
0.23111006512118326
40
0.23111006512118326
40
0.23111006512118326
40
0.38875055448916895
40
0.38875055448916895
40
0.60220909159213831
40
0.60220909159213831
40
0.87014634392687962
40
0.87014634392687962
40
1.1380835962616209
40
1.1380835962616209
40
1.4060208485963623
40
1.4060208485963623
40
1.5707963267948897
40
1.5707963267948897
40
1.5707963267948897
40
1.5707963267948897
10
48.656611444513807
20
43.547222662686579
30
-8.8817841970012523e-15
10
48.545096679317055
20
43.676440858137084
30
-2.2204460492503131e-15
10
48.396894465783276
20
43.767835898982568
30
-6.6613381477509392e-15
10
48.04487477604053
20
43.888805836217927
30
-8.8817841970012523e-15
10
47.84019112153365
20
43.896269220832245
30
-8.8817841970012523e-15
10
47.368277972762662
20
43.848548981812023
30
-8.8817841970012523e-15
10
47.092694962671359
20
43.773648100868314
30
-6.6613381477509392e-15
10
46.495850391273208
20
43.548800965094173
30
-6.6613381477509392e-15
10
46.175600998424706
20
43.397557346838695
30
-4.4408920985006262e-15
10
45.50147052492121
20
43.027663626286447
30
-4.4408920985006262e-15
10
45.147940931392711
20
42.808943728273512
30
-4.4408920985006262e-15
10
44.566646873093617
20
42.412523707669997
30
-8.8817841970012523e-15
10
44.342934605813085
20
42.251499974310896
30
-4.4408920985006262e-15
10
44.119553588218622
20
42.082418562481934
30
-8.8817841970012523e-15
0
LINE
5
476
100
AcDbEntity
8
0
100
AcDbLine
10
16.064133822420608
20
18.81310796218678
30
-1.5543122344752188e-14
11
16.064133822420491
21
11.08014708590472
31
-7.7021722333370235e-15
0
ELLIPSE
5
477
100
AcDbEntity
8
0
100
AcDbEllipse
10
118.00682551969913
20
-130.62911602970229
30
-2.2204460492503131e-14
11
28.750000022605082
21
1.4519136775072783e-14
31
0.0
40
0.93652731578634696
41
4.6894321884909091
42
6.2598032049081676
0
ELLIPSE
5
478
100
AcDbEntity
8
0
100
AcDbEllipse
10
118.00682551969913
20
-130.62911602970229
30
-2.2204460492503131e-14
11
28.750000022605082
21
1.4519136775072783e-14
31
0.0
40
0.93652731578634696
41
4.5680122962217675
42
4.5997342860254911
0
ELLIPSE
5
479
100
AcDbEntity
8
0
100
AcDbEllipse
10
118.00682551969913
20
-130.62911602970229
30
-2.2204460492503131e-14
11
28.750000022605082
21
1.4519136775072783e-14
31
0.0
40
0.93652731578634696
41
3.1546143472851695
42
4.5059737093306094
0
ELLIPSE
5
480
100
AcDbEntity
8
0
100
AcDbEllipse
10
118.00682551969913
20
-130.62911602970229
30
-2.2204460492503131e-14
11
-29.75
21
2.0501453549555536e-14
31
0.0
40
0.93652731578634696
41
3.1415926535897931
42
6.283185307179588
0
LINE
5
481
100
AcDbEntity
8
0
100
AcDbLine
10
126.28823742204332
20
-123.56326797904246
30
-2.2204460492503131e-14
11
114.48895569247314
21
-132.43941179110871
31
-2.4424906541753444e-14
0
SPLINE
5
482
100
AcDbEntity
8
0
100
AcDbSpline
70
0
71
3
72
8
73
4
74
0
42
0.000000001
43
0.0000000001
44
0.0000000001
40
0
40
0
40
0
40
0
40
0.13108875830897343
40
0.13108875830897343
40
0.13108875830897343
40
0.13108875830897343
10
114.48895569247316
20
-132.43941179110868
30
-2.2204460492503131e-14
10
113.33291212049505
20
-133.39453190272602
30
-2.2204460492503131e-14
10
112.29407484861457
20
-134.37106018181601
30
-3.1086244689504383e-14
10
111.38710629593862
20
-135.37337948065516
30
-3.1086244689504383e-14
0
SPLINE
5
483
100
AcDbEntity
8
0
100
AcDbSpline
70
4
71
5
72
20
73
14
74
0
42
0.000000001
43
0.0000000001
44
0.0000000001
40
0.13753930459510375
40
0.13753930459510375
40
0.13753930459510375
40
0.13753930459510375
40
0.13753930459510375
40
0.13753930459510375
40
0.20000000000000001
40
0.30000000000000004
40
0.40000000000000002
40
0.5
40
0.59999999999999998
40
0.69999999999999996
40
0.79999999999999993
40
0.89999999999999991
40
0.99351504995770168
40
0.99351504995770168
40
0.99351504995770168
40
0.99351504995770168
40
0.99351504995770168
40
0.99351504995770168
41
1
41
1
41
1
41
1
41
1
41
1
41
1
41
1
41
1
41
1
41
1
41
1
41
1
41
1
10
111.38711317625007
20
-135.37337110042222
30
-3.9968028886505635e-14
10
111.04806100319921
20
-135.53970505431008
30
-4.8849813083506888e-14
10
110.16784965037925
20
-135.95041351025495
30
-3.1086244689504383e-14
10
108.75292308744235
20
-136.52066620827202
30
-3.1086244689504383e-14
10
106.81528729959712
20
-137.0924129244369
30
-4.4408920985006262e-15
10
104.37407456283128
20
-137.41379090439563
30
-1.3322676295501878e-14
10
101.77446697181256
20
-137.23777015256863
30
-3.1086244689504383e-14
10
99.215689359860619
20
-136.52425187600184
30
-3.1086244689504383e-14
10
96.695635986804191
20
-135.30095664076777
30
-2.2204460492503131e-14
10
94.243397607132948
20
-133.63106403972924
30
-3.1086244689504383e-14
10
92.313248144521765
20
-131.96784333057391
30
-3.9968028886505635e-14
10
90.886719410063748
20
-130.55441503522079
30
-2.2204460492503131e-14
10
89.951818395107139
20
-129.54865855034907
30
-1.3322676295501878e-14
10
89.501342105410586
20
-129.04539615267063
30
-2.2204460492503131e-14
0
SPLINE
5
484
100
AcDbEntity
8
0
100
AcDbSpline
70
0
71
3
72
11
73
7
74
0
42
0.000000001
43
0.0000000001
44
0.0000000001
40
0.22149435639003792
40
0.22149435639003792
40
0.22149435639003792
40
0.22149435639003792
40
0.36147177731780056
40
0.36147177731780056
40
0.36147177731780056
40
0.51421566822944031
40
0.51421566822944031
40
0.51421566822944031
40
0.51421566822944031
10
109.70359630472672
20
-137.48537117707872
30
-1.3322676295501878e-14
10
108.93679614702327
20
-138.595865870484
30
-1.3322676295501878e-14
10
108.33188386941359
20
-139.73921420648099
30
-3.9968028886505635e-14
10
107.90671132243051
20
-140.92075241391279
30
-1.3322676295501878e-14
10
107.44276143176549
20
-142.21005137275731
30
-1.3322676295501878e-14
10
107.21455685533203
20
-143.54271920378781
30
4.4408920985006262e-15
10
107.21455685533203
20
-144.89905224099059
30
-3.1086244689504383e-14
0
SPLINE
5
485
100
AcDbEntity
8
0
100
AcDbSpline
70
4
71
5
72
16
73
10
74
0
42
0.000000001
43
0.0000000001
44
0.0000000001
40
-0.98579931242660568
40
-0.98579931242660568
40
-0.98579931242660568
40
-0.98579931242660568
40
-0.98579931242660568
40
-0.98579931242660568
40
-0.89999999999999991
40
-0.79999999999999993
40
-0.69999999999999996
40
-0.59999999999999998
40
-0.52086956445987287
40
-0.52086956445987287
40
-0.52086956445987287
40
-0.52086956445987287
40
-0.52086956445987287
40
-0.52086956445987287
41
1
41
1
41
1
41
1
41
1
41
1
41
1
41
1
41
1
41
1
10
113.8704012407959
20
-157.2741410357759
30
-3.9968028886505635e-14
10
113.48056584957615
20
-156.79955453834191
30
-3.1086244689504383e-14
10
112.66969003396466
20
-155.77623939594855
30
-3.1086244689504383e-14
10
111.53358783381854
20
-154.21686918433343
30
-3.9968028886505635e-14
10
110.23489131781199
20
-152.1429556761222
30
-3.9968028886505635e-14
10
109.07706360024625
20
-149.69753331161408
30
-3.1086244689504383e-14
10
108.48983268009746
20
-147.7506072324567
30
-2.2204460492503131e-14
10
108.26680576160582
20
-146.34489189473459
30
-2.2204460492503131e-14
10
108.21284096494512
20
-145.45457536736018
30
-1.3322676295501878e-14
10
108.206532060923
20
-145.06359892821555
30
-2.2204460492503131e-14
0
SPLINE
5
486
100
AcDbEntity
8
0
100
AcDbSpline
70
4
71
5
72
21
73
15
74
0
42
0.000000001
43
0.0000000001
44
0.0000000001
40
-0.94311382641329655
40
-0.94311382641329655
40
-0.94311382641329655
40
-0.94311382641329655
40
-0.94311382641329655
40
-0.94311382641329655
40
-0.89999999999999991
40
-0.79999999999999993
40
-0.69999999999999996
40
-0.59999999999999998
40
-0.5
40
-0.40000000000000002
40
-0.30000000000000004
40
-0.20000000000000001
40
-0.10000000000000001
40
-0.016906345951980151
40
-0.016906345951980151
40
-0.016906345951980151
40
-0.016906345951980151
40
-0.016906345951980151
40
-0.016906345951980151
41
1
41
1
41
1
41
1
41
1
41
1
41
1
41
1
41
1
41
1
41
1
41
1
41
1
41
1
41
1
10
129.25225369812847
20
-133.98356482174501
30
-1.3322676295501878e-14
10
129.24925116049067
20
-134.07146785604928
30
-2.2204460492503131e-14
10
129.23708048676835
20
-134.4168177998927
30
-3.1086244689504383e-14
10
129.20269156480063
20
-135.29851198406757
30
-3.1086244689504383e-14
10
129.10763072951366
20
-137.17640374468851
30
-3.1086244689504383e-14
10
128.8299323233918
20
-140.38554136828625
30
-3.9968028886505635e-14
10
128.17383222558641
20
-144.32122956523438
30
-3.1086244689504383e-14
10
127.04675887126113
20
-147.91581916308641
30
-1.3322676295501878e-14
10
125.38012943168142
20
-150.77968621444876
30
-4.4408920985006262e-15
10
123.19857196597896
20
-152.92335462896256
30
-3.1086244689504383e-14
10
120.65742843445668
20
-154.51366539111072
30
-2.2204460492503131e-14
10
118.37161658129418
20
-155.6428178718603
30
-2.2204460492503131e-14
10
116.55918502615677
20
-156.5135443130473
30
-1.3322676295501878e-14
10
115.33863856007537
20
-157.10736219906272
30
-3.1086244689504383e-14
10
114.77484940109385
20
-157.38360231333775
30
-1.3322676295501878e-14
0
SPLINE
5
487
100
AcDbEntity
8
0
100
AcDbSpline
70
4
71
5
72
21
73
15
74
0
42
0.000000001
43
0.0000000001
44
0.0000000001
40
-0.98991796758840112
40
-0.98991796758840112
40
-0.98991796758840112
40
-0.98991796758840112
40
-0.98991796758840112
40
-0.98991796758840112
40
-0.89999999999999991
40
-0.79999999999999993
40
-0.69999999999999996
40
-0.59999999999999998
40
-0.5
40
-0.40000000000000002
40
-0.30000000000000004
40
-0.20000000000000001
40
-0.10000000000000001
40
-0.051957790884078099
40
-0.051957790884078099
40
-0.051957790884078099
40
-0.051957790884078099
40
-0.051957790884078099
40
-0.051957790884078099
41
1
41
1
41
1
41
1
41
1
41
1
41
1
41
1
41
1
41
1
41
1
41
1
41
1
41
1
41
1
10
146.57464203691495
20
-129.77428503378835
30
-4.8849813083506888e-14
10
146.31270295462431
20
-130.01212731618583
30
-1.3322676295501878e-14
10
145.75490425391979
20
-130.50044405631786
30
-3.1086244689504383e-14
10
144.88871339053338
20
-131.20056156098147
30
-1.3322676295501878e-14
10
143.69324528707719
20
-132.04759585099944
30
-2.2204460492503131e-14
10
142.13712733322416
20
-132.94197140421792
30
-1.3322676295501878e-14
10
140.4884279189645
20
-133.66159018800226
30
-3.1086244689504383e-14
10
138.7751361639672
20
-134.17291547468713
30
-3.1086244689504383e-14
10
136.99518526802586
20
-134.46827971373335
30
-2.2204460492503131e-14
10
135.15114068076829
20
-134.55679286432297
30
-2.2204460492503131e-14
10
133.44507898410598
20
-134.46467909440824
30
-2.2204460492503131e-14
10
132.0860076333
20
-134.28659609981682
30
-1.3322676295501878e-14
10
131.10095804565432
20
-134.10832060694642
30
-3.1086244689504383e-14
10
130.50724590994639
20
-133.98392817436411
30
-1.3322676295501878e-14
10
130.31396796996628
20
-133.94167335641433
30
-3.1086244689504383e-14
0
LINE
5
488
100
AcDbEntity
8
0
100
AcDbLine
10
130.31396796996631
20
-133.9416733564143
30
-3.1086244689504371e-14
11
128.75271345300678
21
-124.33869161897987
31
-1.9428902930940239e-14
0
SPLINE
5
489
100
AcDbEntity
8
0
100
AcDbSpline
70
0
71
3
72
14
73
10
74
0
42
0.000000001
43
0.0000000001
44
0.0000000001
40
0.074140749896469113
40
0.074140749896469113
40
0.074140749896469113
40
0.074140749896469113
40
0.40027930435819387
40
0.40027930435819387
40
0.40027930435819387
40
0.7289099105976975
40
0.7289099105976975
40
0.7289099105976975
40
0.88784784303638475
40
0.88784784303638475
40
0.88784784303638475
40
0.88784784303638475
10
146.48409190954501
20
-127.63039226412998
30
-2.2204460492503131e-14
10
144.85387901245608
20
-125.51065318264898
30
-3.9968028886505635e-14
10
143.03798823386765
20
-123.8262042948577
30
-2.2204460492503131e-14
10
140.95699265513858
20
-122.70892842267872
30
-3.1086244689504383e-14
10
138.86009601638278
20
-121.5831153527798
30
-3.1086244689504383e-14
10
136.4912121081085
20
-121.10832369464003
30
-1.3322676295501878e-14
10
134.00440060998653
20
-121.2304262117737
30
-4.4408920985006262e-14
10
132.80168646720156
20
-121.28947951128482
30
-3.1086244689504383e-14
10
131.57020972864814
20
-121.47617818290244
30
-2.2204460492503131e-14
10
130.30941296690034
20
-121.77692540088975
30
-3.1086244689504383e-14
0
SPLINE
5
490
100
AcDbEntity
8
0
100
AcDbSpline
70
0
71
3
72
11
73
7
74
0
42
0.000000001
43
0.0000000001
44
0.0000000001
40
-0.56958292839003755
40
-0.56958292839003755
40
-0.56958292839003755
40
-0.56958292839003755
40
-0.40027930547368329
40
-0.40027930547368329
40
-0.40027930547368329
40
-0.09882901383719056
40
-0.09882901383719056
40
-0.09882901383719056
40
-0.09882901383719056
10
132.01806168561788
20
-115.10374262597361
30
-1.7763568394002505e-14
10
132.01806168561788
20
-113.95090158404004
30
-3.1086244689504383e-14
10
131.83467160814791
20
-112.81018167588883
30
-1.7763568394002505e-14
10
131.45574601131204
20
-111.69931960638606
30
-4.4408920985006262e-15
10
130.78105736787325
20
-109.72139563139244
30
-2.2204460492503131e-14
10
129.55297598073426
20
-107.849223715504
30
-1.3322676295501878e-14
10
127.89338517993934
20
-106.04721649384254
30
-1.3322676295501878e-14
0
SPLINE
5
491
100
AcDbEntity
8
0
100
AcDbSpline
70
4
71
5
72
16
73
10
74
0
42
0.000000001
43
0.0000000001
44
0.0000000001
40
0.57843401565877506
40
0.57843401565877506
40
0.57843401565877506
40
0.57843401565877506
40
0.57843401565877506
40
0.57843401565877506
40
0.59999999999999998
40
0.69999999999999996
40
0.79999999999999993
40
0.89999999999999991
40
0.93704361980470341
40
0.93704361980470341
40
0.93704361980470341
40
0.93704361980470341
40
0.93704361980470341
40
0.93704361980470341
41
1
41
1
41
1
41
1
41
1
41
1
41
1
41
1
41
1
41
1
10
131.02575977137096
20
-115.27130554689904
30
-3.1086244689504383e-14
10
131.02428914544871
20
-115.35221777093437
30
-2.6645352591003757e-14
10
131.01123789877536
20
-115.80876381368091
30
4.4408920985006262e-15
10
130.93869763342357
20
-116.64546491915026
30
-2.6645352591003757e-14
10
130.70717833733883
20
-117.87171022663132
30
-2.6645352591003757e-14
10
130.25608377690216
20
-119.25742095682568
30
-1.7763568394002505e-14
10
129.65751105539951
20
-120.57627615952237
30
-4.4408920985006262e-15
10
129.15448748943987
20
-121.51157320766011
30
-3.9968028886505635e-14
10
128.83671752543236
20
-122.05484645202658
30
-3.1086244689504383e-14
10
128.74886047787339
20
-122.20188127332769
30
-1.3322676295501878e-14
0
SPLINE
5
492
100
AcDbEntity
8
0
100
AcDbSpline
70
0
71
3
72
8
73
4
74
0
42
0.000000001
43
0.0000000001
44
0.0000000001
40
0.95280408612185052
40
0.95280408612185052
40
0.95280408612185052
40
0.95280408612185052
40
1
40
1
40
1
40
1
10
128.7488605157935
20
-122.20188138250211
30
-3.1086244689504383e-14
10
128.36732839617713
20
-122.31819407996275
30
-2.2204460492503131e-14
10
127.98319084668485
20
-122.44407321118901
30
-2.2204460492503131e-14
10
127.59643327182074
20
-122.57916276137979
30
-1.3322676295501878e-14
0
LINE
5
493
100
AcDbEntity
8
0
100
AcDbLine
10
127.59643327182074
20
-122.57916276137979
30
-1.3322676295501878e-14
11
127.50931239623694
21
-122.6447004475252
31
-3.5648567431323386e-14
0
LINE
5
494
100
AcDbEntity
8
0
100
AcDbLine
10
127.50931239623694
20
-122.6447004475252
30
-3.5648567431323386e-14
11
117.49604572584146
21
-119.08885293495416
31
-2.8310687127941492e-14
0
SPLINE
5
495
100
AcDbEntity
8
0
100
AcDbSpline
70
4
71
5
72
12
73
6
74
0
42
0.000000001
43
0.0000000001
44
0.0000000001
40
0.051957790884078127
40
0.051957790884078127
40
0.051957790884078127
40
0.051957790884078127
40
0.051957790884078127
40
0.051957790884078127
40
0.066008078258704472
40
0.066008078258704472
40
0.066008078258704472
40
0.066008078258704472
40
0.066008078258704472
40
0.066008078258704472
41
1
41
1
41
1
41
1
41
1
41
1
10
117.49604572584096
20
-119.08885293493482
30
-2.6645352591003757e-14
10
117.49500090890993
20
-119.03450079843373
30
-2.2204460492503131e-14
10
117.49411371310447
20
-118.98023016377414
30
-2.6645352591003757e-14
10
117.49338431702503
20
-118.92604110817655
30
-3.1086244689504383e-14
10
117.49281292286447
20
-118.87193371925746
30
-3.5527136788005009e-14
10
117.49239975604686
20
-118.81790809497346
30
-1.7763568394002505e-14
0
SPLINE
5
496
100
AcDbEntity
8
0
100
AcDbSpline
70
0
71
3
72
11
73
7
74
0
42
0.000000001
43
0.0000000001
44
0.0000000001
40
-0.93242866930259316
40
-0.93242866930259316
40
-0.93242866930259316
40
-0.93242866930259316
40
-0.500818064059528
40
-0.500818064059528
40
-0.500818064059528
40
-0.075482387167930654
40
-0.075482387167930654
40
-0.075482387167930654
40
-0.075482387167930654
10
123.71811602127801
20
-104.94176957636959
30
-4.4408920985006262e-14
10
121.32016169172162
20
-106.60027476292825
30
-2.2204460492503131e-14
10
119.40859333135219
20
-108.55837674064739
30
-3.5527136788005009e-14
10
118.19002451785862
20
-110.89575845769343
30
-1.7763568394002505e-14
10
116.98917174725904
20
-113.19915838044075
30
-2.6645352591003757e-14
10
116.49167301891046
20
-115.80972393129051
30
-4.4408920985006262e-14
10
116.49167301891046
20
-118.63517502406171
30
-2.2204460492503131e-14
0
SPLINE
5
497
100
AcDbEntity
8
0
100
AcDbSpline
70
0
71
3
72
20
73
16
74
0
42
0.000000001
43
0.0000000001
44
0.0000000001
40
-0.88564111899074616
40
-0.88564111899074616
40
-0.88564111899074616
40
-0.88564111899074616
40
-0.79704875496089089
40
-0.79704875496089089
40
-0.79704875496089089
40
-0.59409750992178179
40
-0.59409750992178179
40
-0.59409750992178179
40
-0.41050171326044799
40
-0.41050171326044799
40
-0.41050171326044799
40
-0.21400228434726398
40
-0.21400228434726398
40
-0.21400228434726398
40
-0.042876173788738314
40
-0.042876173788738314
40
-0.042876173788738314
40
-0.042876173788738314
10
116.49167387569001
20
-118.97934810175082
30
-2.2204460492503131e-14
10
115.87554532458944
20
-118.88036207323695
30
-3.5527136788005009e-14
10
115.04632388093712
20
-118.7524554348601
30
-2.6645352591003757e-14
10
114.0703336038591
20
-118.62172057446161
30
-4.4408920985006262e-15
10
111.83449258022078
20
-118.32222746375797
30
-2.6645352591003757e-14
10
108.84973009988047
20
-118.01271786573773
30
-2.2204460492503131e-14
10
106.01371689265527
20
-118.06315604513557
30
-2.6645352591003757e-14
10
103.44817409925068
20
-118.10878393831214
30
-3.5527136788005009e-14
10
101.02360876508814
20
-118.46699886902668
30
0
10
98.988537042136073
20
-119.23516393174447
30
-3.1086244689504383e-14
10
96.810434718284341
20
-120.05731780933863
30
-2.6645352591003757e-14
10
95.077310644343498
20
-121.33159563672726
30
-3.1086244689504383e-14
10
93.540387268400153
20
-122.81861744573639
30
-3.1086244689504383e-14
10
92.201921701317673
20
-124.11362506941687
30
-1.3322676295501878e-14
10
90.963239416433595
20
-125.55302067875382
30
-4.4408920985006262e-15
10
89.61498735973835
20
-127.09351263032472
30
-2.2204460492503131e-14
0
SPLINE
5
498
100
AcDbEntity
8
0
100
AcDbSpline
70
4
71
5
72
16
73
10
74
0
42
0.000000001
43
0.0000000001
44
0.0000000001
40
-0.50664771247356521
40
-0.50664771247356521
40
-0.50664771247356521
40
-0.50664771247356521
40
-0.50664771247356521
40
-0.50664771247356521
40
-0.5
40
-0.40000000000000002
40
-0.30000000000000004
40
-0.20000000000000001
40
-0.13753930330120781
40
-0.13753930330120781
40
-0.13753930330120781
40
-0.13753930330120781
40
-0.13753930330120781
40
-0.13753930330120781
41
1
41
1
41
1
41
1
41
1
41
1
41
1
41
1
41
1
41
1
10
108.20653206092295
20
-145.06359892821555
30
-2.2204460492503131e-14
10
108.20706265416148
20
-145.03089346110093
30
-2.2204460492503131e-14
10
108.21756621284234
20
-144.5064706267986
30
-2.2204460492503131e-14
10
108.29984630272513
20
-143.49850534594529
30
-3.1086244689504383e-14
10
108.60098969170438
20
-142.02645317324101
30
-3.9968028886505635e-14
10
109.27749127410245
20
-140.29609657482044
30
-2.2204460492503131e-14
10
110.28084751156676
20
-138.64174955372326
30
-1.3322676295501878e-14
10
111.17299962516273
20
-137.46572978751533
30
-1.3322676295501878e-14
10
111.78642174127833
20
-136.74587818707548
30
-3.1086244689504383e-14
10
112.03119773631485
20
-136.47030130959755
30
-2.2204460492503131e-14
0
LINE
5
499
100
AcDbEntity
8
0
100
AcDbLine
10
127.80191708940563
20
-125.06281819421362
30
-3.9968028886505635e-14
11
129.25225369812847
21
-133.98356482174501
31
-1.3322676295501878e-14
0
LINE
5
500
100
AcDbEntity
8
0
100
AcDbLine
10
115.74495528125439
20
-134.24540112794799
30
-3.9968028886505635e-14
11
127.80191708940563
21
-125.06281819421362
31
-3.9968028886505635e-14
0
SPLINE
5
501
100
AcDbEntity
8
0
100
AcDbSpline
70
0
71
3
72
8
73
4
74
0
42
0.000000001
43
0.0000000001
44
0.0000000001
40
-0.13108875716443247
40
-0.13108875716443247
40
-0.13108875716443247
40
-0.13108875716443247
40
0
40
0
40
0
40
0
10
112.03118754396829
20
-136.4703058519903
30
-1.3322676295501878e-14
10
113.2678753898054
20
-135.85005016487577
30
-3.1086244689504383e-14
10
114.50529791253794
20
-135.10363338574112
30
-4.4408920985006262e-15
10
115.74495528125439
20
-134.24540112794799
30
-3.9968028886505635e-14
0
LINE
5
502
100
AcDbEntity
8
0
100
AcDbLine
10
117.53685118538431
20
-120.4555314125968
30
-3.1086244689504383e-14
11
126.28823742204332
21
-123.56326797904246
31
-2.2204460492503131e-14
0
SPLINE
5
503
100
AcDbEntity
8
0
100
AcDbSpline
70
4
71
5
72
21
73
15
74
0
42
0.000000001
43
0.0000000001
44
0.0000000001
40
0.0062863832075928964
40
0.0062863832075928964
40
0.0062863832075928964
40
0.0062863832075928964
40
0.0062863832075928964
40
0.0062863832075928964
40
0.10000000000000001
40
0.20000000000000001
40
0.30000000000000004
40
0.40000000000000002
40
0.5
40
0.59999999999999998
40
0.69999999999999996
40
0.79999999999999993
40
0.89999999999999991
40
1
40
1
40
1
40
1
40
1
40
1
41
1
41
1
41
1
41
1
41
1
41
1
41
1
41
1
41
1
41
1
41
1
41
1
41
1
41
1
41
1
10
89.501342105410657
20
-129.04539615267078
30
-2.2204460492503131e-14
10
89.965270186987055
20
-128.52412971775684
30
-3.1086244689504383e-14
10
90.89998423936845
20
-127.46654399348321
30
-1.3322676295501878e-14
10
92.242704804375165
20
-125.92602328410004
30
-2.2204460492503131e-14
10
93.944701412963937
20
-124.01046823284142
30
-3.1086244689504383e-14
10
96.186267820127711
20
-121.97333008293656
30
-1.3322676295501878e-14
10
98.881905988776779
20
-120.42535480944755
30
-1.3322676295501878e-14
10
102.22143325992374
20
-119.49996504032478
30
-3.5527136788005009e-14
10
106.21067077597182
20
-119.22192000415832
30
-1.3322676295501878e-14
10
110.45722967847223
20
-119.44669079901716
30
-1.3322676295501878e-14
10
114.30347837465436
20
-119.91933205551504
30
-1.7763568394002505e-14
10
116.48497314001898
20
-120.27369345314064
30
-1.7763568394002505e-14
10
117.34535904445505
20
-120.42238424573742
30
-1.7763568394002505e-14
10
117.53673196053791
20
-120.45548907422835
30
-2.2204460492503131e-14
10
117.53685118538431
20
-120.45553141259677
30
-1.3322676295501878e-14
0
SPLINE
5
504
100
AcDbEntity
8
0
100
AcDbSpline
70
0
71
3
72
11
73
7
74
0
42
0.000000001
43
0.0000000001
44
0.0000000001
40
0.51421566822944031
40
0.51421566822944031
40
0.51421566822944031
40
0.51421566822944031
40
0.64556930545273739
40
0.64556930545273739
40
0.64556930545273739
40
0.94272103821437436
40
0.94272103821437436
40
0.94272103821437436
40
0.94272103821437436
10
107.21455685533201
20
-145.24964685986834
30
-4.4408920985006262e-15
10
107.21455685533203
20
-146.41603902560001
30
-3.1086244689504383e-14
10
107.38332126199512
20
-147.59993234990029
30
-3.9968028886505635e-14
10
107.71605441293784
20
-148.78879594621017
30
-2.2204460492503131e-14
10
108.46877230061821
20
-151.47827516527559
30
-3.1086244689504383e-14
10
109.98703761480141
20
-154.20194274528663
30
-3.1086244689504383e-14
10
112.11443848810589
20
-156.98270642049098
30
-3.9968028886505635e-14
0
SPLINE
5
505
100
AcDbEntity
8
0
100
AcDbSpline
70
0
71
3
72
14
73
10
74
0
42
0.000000001
43
0.0000000001
44
0.0000000001
40
-0.97187908791782984
40
-0.97187908791782984
40
-0.97187908791782984
40
-0.97187908791782984
40
-0.64556930753493724
40
-0.64556930753493724
40
-0.64556930753493724
40
-0.36147177844707656
40
-0.36147177844707656
40
-0.36147177844707656
40
-0.21334778480026428
40
-0.21334778480026428
40
-0.21334778480026428
40
-0.21334778480026428
10
89.267885503904068
20
-130.58353561910042
30
-4.4408920985006262e-15
10
91.951805139805742
20
-133.48458849282972
30
-1.3322676295501878e-14
10
94.711209974225966
20
-135.71496217621379
30
-1.3322676295501878e-14
10
97.621216007758164
20
-137.09136020505599
30
-2.2204460492503131e-14
10
100.15477636499661
20
-138.28970393406297
30
-2.2204460492503131e-14
10
102.82495608580518
20
-138.78080832932019
30
-1.3322676295501878e-14
10
105.50956996940084
20
-138.49364960285084
30
-2.2204460492503131e-14
10
106.90928552171346
20
-138.34392954892519
30
-2.2204460492503131e-14
10
108.30657286241359
20
-138.00093787341717
30
-2.2204460492503131e-14
10
109.70359630472394
20
-137.48537117708076
30
-3.1086244689504383e-14
0
SPLINE
5
506
100
AcDbEntity
8
0
100
AcDbSpline
70
4
71
5
72
17
73
11
74
0
42
0.000000001
43
0.0000000001
44
0.0000000001
40
0
40
0
40
0
40
0
40
0
40
0
40
0.10000000000000001
40
0.20000000000000001
40
0.30000000000000004
40
0.40000000000000002
40
0.5
40
0.55971271734541528
40
0.55971271734541528
40
0.55971271734541528
40
0.55971271734541528
40
0.55971271734541528
40
0.55971271734541528
41
1
41
1
41
1
41
1
41
1
41
1
41
1
41
1
41
1
41
1
41
1
10
125.42857322720076
20
-105.31776112415832
30
-8.8817841970012523e-15
10
125.8007063106446
20
-105.65718285141534
30
-2.6645352591003757e-14
10
126.51696296716133
20
-106.33866963854929
30
-1.7763568394002505e-14
10
127.50732244133812
20
-107.3688295320562
30
-1.3322676295501878e-14
10
128.6569598445613
20
-108.75849886465453
30
-1.7763568394002505e-14
10
129.78986577890751
20
-110.52428811531504
30
-2.2204460492503131e-14
10
130.52657844734043
20
-112.17657482624375
30
-2.2204460492503131e-14
10
130.87065751391566
20
-113.49137449882619
30
-1.3322676295501878e-14
10
130.99329909866151
20
-114.45253089603614
30
-1.7763568394002505e-14
10
131.0216770916804
20
-115.04804227676058
30
4.4408920985006262e-15
10
131.02575977137093
20
-115.27130554689903
30
-3.1086244689504383e-14
0
SPLINE
5
507
100
AcDbEntity
8
0
100
AcDbSpline
70
4
71
5
72
21
73
15
74
0
42
0.000000001
43
0.0000000001
44
0.0000000001
40
0.084316032610265143
40
0.084316032610265143
40
0.084316032610265143
40
0.084316032610265143
40
0.084316032610265143
40
0.084316032610265143
40
0.10000000000000001
40
0.20000000000000001
40
0.30000000000000004
40
0.40000000000000002
40
0.5
40
0.59999999999999998
40
0.69999999999999996
40
0.79999999999999993
40
0.89999999999999991
40
1
40
1
40
1
40
1
40
1
40
1
41
1
41
1
41
1
41
1
41
1
41
1
41
1
41
1
41
1
41
1
41
1
41
1
41
1
41
1
41
1
10
117.49239975604684
20
-118.81790809497343
30
-1.7763568394002505e-14
10
117.49286193187778
20
-118.75807764244533
30
-3.5527136788005009e-14
10
117.49773434521828
20
-118.31752744212453
30
-1.7763568394002505e-14
10
117.52698380061837
20
-117.50656213603555
30
-2.2204460492503131e-14
10
117.62570480790461
20
-116.34838608725788
30
-3.1086244689504383e-14
10
117.86850236743143
20
-114.88105884830659
30
-8.8817841970012523e-15
10
118.34772160801505
20
-113.21104868168356
30
-1.7763568394002505e-14
10
119.02945297116435
20
-111.64311801624964
30
-3.9968028886505635e-14
10
119.92266929680353
20
-110.18152693356916
30
-4.4408920985006262e-15
10
121.01979904989261
20
-108.82277452334569
30
-4.4408920985006262e-15
10
122.30589103963715
20
-107.55999266375707
30
-4.8849813083506888e-14
10
123.4738292600145
20
-106.62107387871362
30
-1.7763568394002505e-14
10
124.42313169191181
20
-105.9548459816216
30
-3.1086244689504383e-14
10
125.08807935825821
20
-105.52734715433439
30
-1.7763568394002505e-14
10
125.42857322720076
20
-105.31776112415832
30
-8.8817841970012523e-15
0
SPLINE
5
508
100
AcDbEntity
8
0
100
AcDbSpline
70
4
71
5
72
21
73
15
74
0
42
0.000000001
43
0.0000000001
44
0.0000000001
40
-0.93704362070973102
40
-0.93704362070973102
40
-0.93704362070973102
40
-0.93704362070973102
40
-0.93704362070973102
40
-0.93704362070973102
40
-0.89999999999999991
40
-0.79999999999999993
40
-0.69999999999999996
40
-0.59999999999999998
40
-0.5
40
-0.40000000000000002
40
-0.30000000000000004
40
-0.20000000000000001
40
-0.10000000000000001
40
-0.010575007086388255
40
-0.010575007086388255
40
-0.010575007086388255
40
-0.010575007086388255
40
-0.010575007086388255
40
-0.010575007086388255
41
1
41
1
41
1
41
1
41
1
41
1
41
1
41
1
41
1
41
1
41
1
41
1
41
1
41
1
41
1
10
129.42431522619731
20
-123.33516190622932
30
-1.3322676295501878e-14
10
129.5962514534838
20
-123.28555417590975
30
-1.3322676295501878e-14
10
130.23009513469967
20
-123.10853265210297
30
-3.1086244689504383e-14
10
131.31207831521232
20
-122.84410744560279
30
-1.3322676295501878e-14
10
132.81454614278709
20
-122.5726444300213
30
-2.2204460492503131e-14
10
134.69299246038113
20
-122.42347990271151
30
-4.4408920985006262e-15
10
136.73888735120255
20
-122.55256401090081
30
-1.3322676295501878e-14
10
138.67337466498449
20
-123.00540205492641
30
-2.2204460492503131e-14
10
140.49222212622396
20
-123.79429316100905
30
-1.3322676295501878e-14
10
142.20033790619203
20
-124.90497402849536
30
-3.1086244689504383e-14
10
143.77225135214863
20
-126.28298701016179
30
-2.2204460492503131e-14
10
144.95189249474299
20
-127.58605183950549
30
-2.2204460492503131e-14
10
145.7917609363312
20
-128.66160301474426
30
-3.9968028886505635e-14
10
146.32592426689698
20
-129.41063904392047
30
-4.4408920985006262e-15
10
146.57464203691484
20
-129.7742850337888
30
-2.2204460492503131e-14
0
SPLINE
5
509
100
AcDbEntity
8
0
100
AcDbSpline
70
0
71
3
72
8
73
4
74
0
42
0.000000001
43
0.0000000001
44
0.0000000001
40
-1
40
-1
40
-1
40
-1
40
-0.95280408675383732
40
-0.95280408675383732
40
-0.95280408675383732
40
-0.95280408675383732
10
128.78869108079863
20
-124.31129105520482
30
-2.2204460492503131e-14
10
129.01085407081291
20
-123.98547685707874
30
-3.1086244689504383e-14
10
129.22285162550867
20
-123.66012980261912
30
-3.1086244689504383e-14
10
129.42431512017126
20
-123.33516184860562
30
-3.1086244689504383e-14
0
LINE
5
510
100
AcDbEntity
8
0
100
AcDbLine
10
128.75271345300678
20
-124.33869161897987
30
-1.9428902930940239e-14
11
128.78869108079863
21
-124.31129105520482
31
-2.2204460492503131e-14
0
SPLINE
5
511
100
AcDbEntity
8
0
100
AcDbSpline
70
0
71
3
72
11
73
7
74
0
42
0.000000001
43
0.0000000001
44
0.0000000001
40
-0.87724492549667132
40
-0.87724492549667132
40
-0.87724492549667132
40
-0.87724492549667132
40
-0.72890991310241759
40
-0.72890991310241759
40
-0.72890991310241759
40
-0.56958292839003755
40
-0.56958292839003755
40
-0.56958292839003755
40
-0.56958292839003755
10
130.3094129668994
20
-121.77692540089053
30
-3.1086244689504383e-14
10
130.83362551554262
20
-120.75866897360385
30
-2.2204460492503131e-14
10
131.24795064102267
20
-119.74276500455089
30
-2.2204460492503131e-14
10
131.54094369945636
20
-118.72648002724256
30
-3.1086244689504383e-14
10
131.85564823069564
20
-117.63488594955669
30
-3.5527136788005009e-14
10
132.01806168561788
20
-116.53924425333697
30
-8.8817841970012523e-15
10
132.01806168561791
20
-115.45433724485136
30
-3.5527136788005009e-14
0
SPLINE
5
512
100
AcDbEntity
8
0
100
AcDbSpline
70
0
71
3
72
11
73
7
74
0
42
0.000000001
43
0.0000000001
44
0.0000000001
40
0.058245271040911269
40
0.058245271040911269
40
0.058245271040911269
40
0.058245271040911269
40
0.50081806225234993
40
0.50081806225234993
40
0.50081806225234993
40
0.95572695650200246
40
0.95572695650200246
40
0.95572695650200246
40
0.95572695650200246
10
130.21771684477687
20
-135.23261981384746
30
-3.9968028886505635e-14
10
133.29711511556309
20
-135.89117580678976
30
-1.3322676295501878e-14
10
136.24893512277842
20
-136.01682242842224
30
-2.2204460492503131e-14
10
139.01328648744513
20
-135.3753940753594
30
-4.4408920985006262e-15
10
141.85469031431813
20
-134.71608679613536
30
-1.3322676295501878e-14
10
144.41769740578582
20
-133.26346862452363
30
4.4408920985006262e-15
10
146.74896676144786
20
-131.25862551783351
30
-2.2204460492503131e-14
0
SPLINE
5
513
100
AcDbEntity
8
0
100
AcDbSpline
70
0
71
3
72
20
73
16
74
0
42
0.000000001
43
0.0000000001
44
0.0000000001
40
0.080798927825321082
40
0.080798927825321082
40
0.080798927825321082
40
0.080798927825321082
40
0.21400228410247596
40
0.21400228410247596
40
0.21400228410247596
40
0.41050171307685696
40
0.41050171307685696
40
0.41050171307685696
40
0.59409750983341059
40
0.59409750983341059
40
0.59409750983341059
40
0.79704875491670535
40
0.79704875491670535
40
0.79704875491670535
40
0.88575795872325414
40
0.88575795872325414
40
0.88575795872325414
40
0.88575795872325414
10
117.34687572296099
20
-157.54718171913345
30
-3.1086244689504383e-14
10
118.77451490452322
20
-156.85734020929652
30
-3.1086244689504383e-14
10
120.12410601199895
20
-156.18848141493777
30
-2.2204460492503131e-14
10
121.3950439176979
20
-155.44591069217586
30
-3.9968028886505635e-14
10
123.2699108858553
20
-154.35048241563746
30
-3.9968028886505635e-14
10
124.96382442024647
20
-153.03076920873261
30
-1.3322676295501878e-14
10
126.27905120807071
20
-151.20875472999805
30
-1.3322676295501878e-14
10
127.50791030087566
20
-149.5063874423615
30
-2.2204460492503131e-14
10
128.39047437631339
20
-147.36137217047963
30
-4.4408920985006262e-15
10
128.97626322610873
20
-145.02169620278627
30
-1.3322676295501878e-14
10
129.6238084233417
20
-142.43536166178109
30
-1.3322676295501878e-14
10
129.92676309899852
20
-139.63731537115541
30
-1.3322676295501878e-14
10
130.08308019133864
20
-137.52715152324973
30
-2.2204460492503131e-14
10
130.15140578745488
20
-136.6048070716439
30
-2.2204460492503131e-14
10
130.19182416607705
20
-135.81780720804662
30
-1.3322676295501878e-14
10
130.21771684477685
20
-135.23261981384746
30
-3.9968028886505635e-14
0
ELLIPSE
5
514
100
AcDbEntity
8
0
100
AcDbEllipse
10
118.00682551969913
20
-131.33030526745776
30
-2.2204460492503131e-14
11
28.75
21
-5.1770750118837235e-15
31
0.0
40
0.93652731578634696
41
1.3708123951989795
42
2.9835815429046266
0
ELLIPSE
5
515
100
AcDbEntity
8
0
100
AcDbEllipse
10
118.00682551969913
20
-131.33030526745776
30
-2.2204460492503131e-14
11
28.750000290410355
21
0
31
0.0
40
0.93652731578634718
41
0.13785088409810151
42
1.2197501894318041
0
ELLIPSE
5
516
100
AcDbEntity
8
0
100
AcDbEllipse
10
118.00682551969913
20
-131.33030526745776
30
-2.2204460492503131e-14
11
28.749999837313599
21
-2.0678280341223473e-16
31
0.0
40
0.93652731578634696
41
3.1138540842987275
42
3.1285714548131214
0
ELLIPSE
5
517
100
AcDbEntity
8
0
100
AcDbEllipse
10
118.00682551969913
20
-131.33030526745776
30
-2.2204460492503131e-14
11
29.75
21
-2.0501453549555536e-14
31
0.0
40
0.93652731578634696
41
3.1415926535897949
42
6.2831853071795853
0
LINE
5
518
100
AcDbEntity
8
0
100
AcDbLine
10
107.21455685533201
20
-145.24964685986834
30
-4.4408920985006262e-15
11
107.21455685533203
21
-144.89905224099059
31
-3.1086244689504389e-14
0
LINE
5
519
100
AcDbEntity
8
0
100
AcDbLine
10
132.01806168561791
20
-115.45433724485137
30
-3.552713678800499e-14
11
132.01806168561788
21
-115.10374262597361
31
-1.7763568394002505e-14
0
LINE
5
520
100
AcDbEntity
8
0
100
AcDbLine
10
116.49167387569001
20
-118.97934810175082
30
-2.2204460492503131e-14
11
116.49167301891046
21
-118.63517502406171
31
-2.2204460492503137e-14
0
LINE
5
521
100
AcDbEntity
8
0
100
AcDbLine
10
147.75682551969913
20
-131.33030526745779
30
-2.2662887005606793e-14
11
147.75682551969913
21
-130.62911602970232
31
-2.2662887005606793e-14
0
LINE
5
522
100
AcDbEntity
8
0
100
AcDbLine
10
88.256825519699134
20
-131.33030526745776
30
-2.1746033979399468e-14
11
88.256825519699134
21
-130.62911602970232
31
-2.1746033979399468e-14
0
SPLINE
5
523
100
AcDbEntity
8
0
100
AcDbSpline
70
4
71
2
72
6
73
3
74
0
42
0.000000001
43
0.0000000001
44
0.0000000001
40
4.3143935763246226
40
4.3143935763246226
40
4.3143935763246226
40
5.1555589050790385
40
5.1555589050790385
40
5.1555589050790385
41
1.2356261676104496
41
1.2393738323895631
41
1.2356261676104292
10
151.07622837104321
20
-112.55040918376828
30
-1.3322676295501878e-14
10
149.11645919810783
20
-110.19457864553543
30
-2.6645352591003757e-14
10
147.15669002517225
20
-108.00862791239261
30
-3.5527136788005009e-14
0
SPLINE
5
524
100
AcDbEntity
8
0
100
AcDbSpline
70
0
71
3
72
12
73
8
74
0
42
0.000000001
43
0.0000000001
44
0.0000000001
40
0.29674704178443595
40
0.29674704178443595
40
0.29674704178443595
40
0.29674704178443595
40
0.42685478754048484
40
0.42685478754048484
40
0.85370957508096967
40
0.85370957508096967
40
1.2785391026315645
40
1.2785391026315645
40
1.2785391026315645
40
1.2785391026315645
10
147.15669002517205
20
-108.00862791239234
30
-2.2204460492503131e-14
10
146.86083208994756
20
-107.67862431842759
30
-3.1086244689504383e-14
10
146.56271710382205
20
-107.34834761967016
30
-2.6645352591003757e-14
10
145.28723242043372
20
-105.94119798213117
30
-1.7763568394002505e-14
10
144.31098610139915
20
-104.87760646687283
30
-1.7763568394002505e-14
10
142.53518847033772
20
-102.91818288284648
30
-1.3322676295501878e-14
10
141.46985015229293
20
-101.72703904545062
30
-1.7763568394002505e-14
10
140.57971183300714
20
-100.69558758593743
30
-3.5527136788005009e-14
0
LINE
5
525
100
AcDbEntity
8
0
100
AcDbLine
10
140.57971183300714
20
-100.69558758593743
30
-3.5527136788005003e-14
11
112.8785302556276
21
-68.596728847721408
31
-6.6613381477509392e-15
0
LINE
5
526
100
AcDbEntity
8
0
100
AcDbLine
10
112.8785302556276
20
-68.596728847721408
30
-6.6613381477509392e-15
11
106.25482241220638
21
-73.610341399802664
31
-2.0816681711721685e-14
0
LINE
5
527
100
AcDbEntity
8
0
100
AcDbLine
10
56.354991220259869
20
-111.38048856279362
30
-2.6645352591003757e-14
11
50.65926289879971
21
-115.69169546997621
31
-2.8033131371785203e-14
0
SPLINE
5
528
100
AcDbEntity
8
0
100
AcDbSpline
70
0
71
3
72
12
73
8
74
0
42
0.000000001
43
0.0000000001
44
0.0000000001
40
7.1326367638472057
40
7.1326367638472057
40
7.1326367638472057
40
7.1326367638472057
40
7.5574662913977999
40
7.5574662913977999
40
7.9843210789382848
40
7.9843210789382848
40
8.1144288246943361
40
8.1144288246943361
40
8.1144288246943361
40
8.1144288246943361
10
157.65320656321902
20
-120.47957022876693
30
-2.2204460492503131e-14
10
156.76306824393322
20
-119.44811876925374
30
-3.1086244689504383e-14
10
155.69772992588844
20
-118.1703322410762
30
-2.6645352591003757e-14
10
153.92193229482703
20
-116.01433012400933
30
-1.7763568394002505e-14
10
152.94568597579246
20
-114.81546271845519
30
-3.5527136788005009e-14
10
151.67020129240416
20
-113.26666605020399
30
-1.7763568394002505e-14
10
151.37208630627865
20
-112.9060588023212
30
-3.5527136788005009e-14
10
151.0762283710541
20
-112.55040918378137
30
-2.6645352591003757e-14
0
LINE
5
529
100
AcDbEntity
8
0
100
AcDbLine
10
185.35438814059859
20
-152.57842896698295
30
-1.3322676295501878e-14
11
157.65320656321902
21
-120.47957022876693
31
-2.2204460492503131e-14
0
ELLIPSE
5
530
100
AcDbEntity
8
0
100
AcDbEllipse
10
123.5825881175016
20
-197.47518080599616
30
-3.1086244689504383e-14
11
3
21
-3.5739429602428046e-16
31
0.0
40
0.93652731578634707
41
3.8213252348873352
42
5.3921215616822122
0
LINE
5
531
100
AcDbEntity
8
0
100
AcDbLine
10
125.46834330965176
20
-199.66030743529177
30
-3.1074752840776078e-14
11
185.35438814059859
21
-154.33140206137165
31
2.2204460492503131e-15
0
LINE
5
532
100
AcDbEntity
8
0
100
AcDbLine
10
185.35438814059859
20
-154.33140206137165
30
2.2204460492503131e-15
11
185.35438814059859
21
-152.57842896698295
31
-1.3322676295501878e-14
0
ELLIPSE
5
533
100
AcDbEntity
8
0
100
AcDbEllipse
10
118.00682551969913
20
-131.33030526745776
30
-2.2204460492503131e-14
11
28.000000000000007
21
-1.9043625670166092e-14
31
0.0
40
0.93652731578634718
41
4.9528965441984294
42
5.3921215616822096
0
ELLIPSE
5
534
100
AcDbEntity
8
0
100
AcDbEllipse
10
118.00682551969913
20
-131.33030526745776
30
-2.2204460492503131e-14
11
28.000000000000007
21
-1.9043625670166092e-14
31
0.0
40
0.93652731578634718
41
3.2286064860794541
42
4.7339468834292928
0
ELLIPSE
5
535
100
AcDbEntity
8
0
100
AcDbEllipse
10
118.00682551969913
20
-131.33030526745776
30
-2.2204460492503131e-14
11
28.000000000000007
21
-1.9043625670166092e-14
31
0.0
40
0.93652731578634718
41
5.3921215616822096
42
6.1961714746899244
0
ELLIPSE
5
536
100
AcDbEntity
8
0
100
AcDbEllipse
10
118.00682551969915
20
-135.8880353128682
30
-2.2204460492503131e-14
11
28.000000000000007
21
-1.9043625670166092e-14
31
0.0
40
0.93652731578634718
41
3.0164935347296717
42
3.0545788211001321
0
ELLIPSE
5
537
100
AcDbEntity
8
0
100
AcDbEllipse
10
118.00682551969915
20
-135.8880353128682
30
-2.2204460492503131e-14
11
28.000000000000007
21
-1.9043625670166092e-14
31
0.0
40
0.93652731578634718
41
0.92209843233647726
42
2.531761832651743
0
ELLIPSE
5
538
100
AcDbEntity
8
0
100
AcDbEllipse
10
118.00682551969915
20
-135.8880353128682
30
-2.2204460492503131e-14
11
28.000000000000007
21
-1.9043625670166092e-14
31
0.0
40
0.93652731578634718
41
0.087013832489660145
42
0.43736673025855044
0
LINE
5
539
100
AcDbEntity
8
0
100
AcDbLine
10
118.54466344542615
20
-157.1558825856925
30
-2.2204460492503131e-14
11
118.61040005122149
21
-157.54697691985288
31
-2.0743940877001179e-14
0
ELLIPSE
5
540
100
AcDbEntity
8
0
100
AcDbEllipse
10
133.11055821627423
20
-116.52955633017478
30
-2.6645352591003757e-14
11
-3.0000000000000009
21
2.8128543111223115e-17
31
0.0
40
0.93652731578634707
41
2.2505289080924236
42
3.0164811834783714
0
ELLIPSE
5
541
100
AcDbEntity
8
0
100
AcDbEllipse
10
133.11055821627426
20
-117.2307455679303
30
-3.5527136788005009e-14
11
3.0000000000000009
21
-2.8128543111223115e-17
31
0.0
40
0.93652731578634729
41
0.12511147011141557
42
0.92209843233648126
0
ELLIPSE
5
542
100
AcDbEntity
8
0
100
AcDbEllipse
10
140.65357898487483
20
-125.97125208511281
30
-3.1086244689504383e-14
11
3.0000000000000004
21
1.2163694318366747e-17
31
0.0
40
0.93652731578634729
41
0.43736673025856071
42
2.2505289080924289
0
LINE
5
543
100
AcDbEntity
8
0
100
AcDbLine
10
137.40470720600678
20
-124.81789475945681
30
-2.2204460492503131e-14
11
138.76782379272464
21
-123.7861254558172
31
-3.1175627549504361e-14
0
ELLIPSE
5
544
100
AcDbEntity
8
0
100
AcDbEllipse
10
93.202192901250555
20
-132.96670041089965
30
-3.1086244689504383e-14
11
3.0000000000000018
21
-7.8777075795876171e-16
31
0.0
40
0.93652731578634696
41
1.2033313568958228
42
3.0164935347296558
0
ELLIPSE
5
545
100
AcDbEntity
8
0
100
AcDbEllipse
10
97.513202437330648
20
-121.77744229176504
30
-3.5527136788005009e-14
11
3.0000000000000009
21
4.1821276761611425e-16
31
0.0
40
0.93652731578634674
41
3.2667041237011945
42
4.3449240104856184
0
ELLIPSE
5
546
100
AcDbEntity
8
0
100
AcDbEllipse
10
97.513202437330648
20
-122.47863152952048
30
-3.9968028886505635e-14
11
-3.0000000000000009
21
-4.1821276761611425e-16
31
0.0
40
0.93652731578634707
41
5.6733544862415251
42
6.1580738370681782
0
LINE
5
547
100
AcDbEntity
8
0
100
AcDbLine
10
98.071105907664531
20
-124.98913935569989
30
-1.3322676295501878e-14
11
96.43545005331066
21
-124.39945951210984
31
-3.5549019750897256e-14
0
ELLIPSE
5
548
100
AcDbEntity
8
0
100
AcDbEllipse
10
121.50817102159633
20
-156.01780275688785
30
-3.1086244689504383e-14
11
1.2249999999999874
21
-6.0482775365815462e-16
31
0.0
40
0.93652731578634707
41
3.4521577351668702
42
4.344924010485645
0
ELLIPSE
5
549
100
AcDbEntity
8
0
100
AcDbEllipse
10
121.50817102159633
20
-156.01780275688785
30
-3.1086244689504383e-14
11
1.2249999999999874
21
-6.0482775365815462e-16
31
0.0
40
0.93652731578634707
41
4.344924010485645
42
5.9726202256025447
0
ELLIPSE
5
550
100
AcDbEntity
8
0
100
AcDbEllipse
10
121.50817102159635
20
-156.71899199464337
30
-1.3322676295501878e-14
11
-1.2249999999999874
21
6.0482775365815462e-16
31
0.0
40
0.93652731578634685
41
3.4521577351669328
42
5.9726202256024949
0
LINE
5
551
100
AcDbEntity
8
0
100
AcDbLine
10
124.67630264993998
20
-156.79830552635283
30
-2.0733220666971014e-14
11
124.47167859776647
21
-155.5809121658387
31
-2.5396351688300456e-14
0
ELLIPSE
5
552
100
AcDbEntity
8
0
100
AcDbEllipse
10
121.50817102159635
20
-156.71899199464337
30
-1.3322676295501878e-14
11
3.0000000000000067
21
1.9086084233050735e-16
31
0.0
40
0.93652731578634718
41
3.1415926535897647
42
3.297726459288985
0
ELLIPSE
5
553
100
AcDbEntity
8
0
100
AcDbEllipse
10
121.50817102159633
20
-156.01780275688785
30
-3.1086244689504383e-14
11
-3.0000000000000067
21
-1.9086084233050735e-16
31
0.0
40
0.93652731578634718
41
3.2977264592890094
42
6.283185307179572
0
ELLIPSE
5
554
100
AcDbEntity
8
0
100
AcDbEllipse
10
135.51895201385659
20
-121.93157889240568
30
-3.1086244689504383e-14
11
-1.2249999999999877
21
8.9287625315431975e-17
31
0.0
40
0.93652731578634696
41
0.31056508157707274
42
2.8310275720127476
0
ELLIPSE
5
555
100
AcDbEntity
8
0
100
AcDbEllipse
10
135.51895201385659
20
-122.63276813016117
30
-3.1086244689504383e-14
11
1.2249999999999877
21
-8.9287625315431975e-17
31
0.0
40
0.93652731578634674
41
0.31056508157709545
42
2.831027572012716
0
LINE
5
556
100
AcDbEntity
8
0
100
AcDbLine
10
134.99631340842438
20
-118.71468295947039
30
-2.6328686836909536e-14
11
133.63319682170646
21
-119.74645226311006
31
-2.8657631823136853e-14
0
ELLIPSE
5
557
100
AcDbEntity
8
0
100
AcDbEllipse
10
135.51895201385659
20
-122.63276813016117
30
-3.1086244689504383e-14
11
-3.0000000000000075
21
-1.7261530085295725e-16
31
0.0
40
0.93652731578634718
41
6.2831853071795791
42
8.5337142152719991
0
ELLIPSE
5
558
100
AcDbEntity
8
0
100
AcDbEllipse
10
135.51895201385659
20
-121.93157889240568
30
-3.1086244689504383e-14
11
3.0000000000000075
21
1.7261530085295725e-16
31
0.0
40
0.93652731578634707
41
2.2505289080924133
42
3.1415926535897789
0
ELLIPSE
5
559
100
AcDbEntity
8
0
100
AcDbEllipse
10
96.993353523644501
20
-127.61115657604465
30
-2.2204460492503131e-14
11
-1.2249999999999872
21
8.331586230697587e-16
31
0.0
40
0.93652731578634696
41
0.31056508157706841
42
2.8310275720127298
0
ELLIPSE
5
560
100
AcDbEntity
8
0
100
AcDbEllipse
10
96.993353523644544
20
-128.31234581380014
30
4.4408920985006262e-15
11
1.2249999999999872
21
-8.331586230697587e-16
31
0.0
40
0.93652731578634685
41
2.2505289080924391
42
2.8310275720127294
0
ELLIPSE
5
561
100
AcDbEntity
8
0
100
AcDbEllipse
10
96.993353523644544
20
-128.31234581380014
30
4.4408920985006262e-15
11
1.2249999999999872
21
-8.331586230697587e-16
31
0.0
40
0.93652731578634685
41
0.31056508157709495
42
2.2505289080924391
0
LINE
5
562
100
AcDbEntity
8
0
100
AcDbLine
10
95.915601139624499
20
-130.93436303414489
30
-2.2204460492503131e-14
11
94.279945285270543
21
-130.34468319055486
31
-3.1288697520476768e-14
0
ELLIPSE
5
563
100
AcDbEntity
8
0
100
AcDbEllipse
10
96.993353523644544
20
-128.31234581380014
30
4.4408920985006262e-15
11
-3.0000000000000075
21
0
31
0.0
40
0.93652731578634707
41
1.2033313568958011
42
3.1415926535898002
0
ELLIPSE
5
564
100
AcDbEntity
8
0
100
AcDbEllipse
10
96.993353523644501
20
-127.61115657604465
30
-2.2204460492503131e-14
11
3.0000000000000075
21
0
31
0.0
40
0.93652731578634685
41
0
42
1.2033313568958068
0
ELLIPSE
5
565
100
AcDbEntity
8
0
100
AcDbEllipse
10
103.43910031073939
20
-70.498176416831456
30
-3.1086244689504383e-14
11
-2.7158629267027745
21
3.5880480157547412
31
0.0
40
0.2203785409628608
41
3.5204922645328205
42
6.2831853071796004
0
ELLIPSE
5
566
100
AcDbEntity
8
0
100
AcDbEllipse
10
54.44142726723743
20
-107.58546263185706
30
-3.1086244689504383e-14
11
2.7158629267027745
21
-3.5880480157547412
31
0.0
40
0.2203785409628608
41
3.1415926535897896
42
4.9957086609642305
0
LINE
5
567
100
AcDbEntity
8
0
100
AcDbLine
10
56.354991220259869
20
-111.38048856279362
30
-2.6645352591003757e-14
11
54.441427267237444
21
-109.16313841680685
31
-3.1016414418683159e-14
0
LINE
5
568
100
AcDbEntity
8
0
100
AcDbLine
10
50.65926289879971
20
-117.44466856436483
30
-1.3322676295501878e-14
11
50.65926289879971
21
-115.69169546997621
31
-2.8033131371785203e-14
0
LINE
5
569
100
AcDbEntity
8
0
100
AcDbLine
10
50.65926289879971
20
-117.44466856436483
30
-1.3322676295501878e-14
11
121.24936559162057
21
-199.24124205433074
31
-3.1100463417591951e-14
0
LINE
5
570
100
AcDbEntity
8
0
100
AcDbLine
10
118.50817102159635
20
-156.71899199464332
30
-1.3221127478631629e-14
11
118.50817102159631
21
-156.01780275688782
31
-3.0984695872634132e-14
0
LINE
5
571
100
AcDbEntity
8
0
100
AcDbLine
10
132.51895201385659
20
-122.63276813016117
30
-3.1019224121863375e-14
11
132.51895201385659
21
-121.93157889240567
31
-3.1019224121863375e-14
0
LINE
5
572
100
AcDbEntity
8
0
100
AcDbLine
10
99.993353523644544
20
-128.31234581380014
30
4.4408920985006262e-15
11
99.993353523644515
21
-127.61115657604466
31
-2.2204460492503131e-14
0
LINE
5
573
100
AcDbEntity
8
0
100
AcDbLine
10
100.72323738403661
20
-66.910128401076719
30
-3.1336044870045043e-14
11
51.725564340534653
21
-103.99741461610232
31
-3.1336044870045043e-14
0
LWPOLYLINE
5
574
100
AcDbEntity
8
0
100
AcDbPolyline
90
4
70
1
43
0.0
10
74.023653701878217
20
-104.37161338741133
10
59.338540889011249
20
-115.48705924760949
10
59.338540889011249
20
-115.26168418412914
10
74.023653701878217
20
-104.14623832393102
0
LINE
5
575
100
AcDbEntity
8
0
100
AcDbLine
10
47.202045046524425
20
-117.94858217524423
30
-4.4408920985006262e-15
11
47.202045046524425
21
-130.17949612873443
31
-5.5511151231257827e-15
0
LINE
5
576
100
AcDbEntity
8
0
100
AcDbLine
10
102.34590740456457
20
-71.874444628141049
30
-3.1086244689504383e-14
11
55.015304770945107
21
-107.69989301309218
31
-2.6645352591003757e-14
0
SPLINE
5
577
100
AcDbEntity
8
0
100
AcDbSpline
70
0
71
3
72
14
73
10
74
0
42
0.000000001
43
0.0000000001
44
0.0000000001
40
1.4082224595093888
40
1.4082224595093888
40
1.4082224595093888
40
1.4082224595093888
40
1.427746505147961
40
1.427746505147961
40
1.4746792587489463
40
1.4746792587489463
40
1.5216120123499317
40
1.5216120123499317
40
1.5411360579885038
40
1.5411360579885038
40
1.5411360579885038
40
1.5411360579885038
10
138.38974530114368
20
-211.74218539297246
30
-3.1086244689504383e-14
10
138.34883688954957
20
-211.69478260182092
30
-3.1086244689504383e-14
10
138.29974680575486
20
-211.63791684362738
30
-2.2204460492503131e-14
10
138.16050101572702
20
-211.47662969078996
30
-3.1086244689504383e-14
10
138.04249615985393
20
-211.33995510535041
30
-3.1086244689504383e-14
10
137.84582130699846
20
-211.11205730606218
30
-2.2204460492503131e-14
10
137.72781645112536
20
-210.97525466176614
30
-2.2204460492503131e-14
10
137.58857066109752
20
-210.81383854423871
30
-3.1086244689504383e-14
10
137.53948057730281
20
-210.75693762711748
30
-1.3322676295501878e-14
10
137.49857216570868
20
-210.70953483596588
30
-1.3322676295501878e-14
0
LINE
5
578
100
AcDbEntity
8
0
100
AcDbLine
10
138.38974530114368
20
-211.74218539297246
30
-3.1086244689504383e-14
11
141.08708405367645
21
-214.86773782996187
31
-3.2057689836051395e-14
0
LINE
5
579
100
AcDbEntity
8
0
100
AcDbLine
10
141.08708405367645
20
-216.62071092435053
30
-1.3322676295501878e-14
11
141.08708405367645
21
-214.86773782996187
31
-3.2057689836051395e-14
0
LINE
5
580
100
AcDbEntity
8
0
100
AcDbLine
10
135.71630224837878
20
-208.64432219693316
30
-1.3322676295501878e-14
11
137.49857216570865
21
-210.70953483596588
31
-1.3322676295501878e-14
0
LINE
5
581
100
AcDbEntity
8
0
100
AcDbLine
10
129.42097142427124
20
-225.45101716602329
30
-3.9968028886505635e-14
11
141.08708405367645
21
-216.62071092435053
31
-1.3322676295501878e-14
0
ELLIPSE
5
582
100
AcDbEntity
8
0
100
AcDbEllipse
10
134.05545452362443
20
-215.92226862274879
30
-2.2204460492503131e-14
11
2.0500000000000003
21
-6.1764407739385992e-16
31
0.0
40
0.93652731578634718
41
2.250528908092428
42
2.9473404826861471
0
ELLIPSE
5
583
100
AcDbEntity
8
0
100
AcDbEllipse
10
134.05545452362443
20
-215.92226862274879
30
-2.2204460492503131e-14
11
2.0500000000000003
21
-6.1764407739385992e-16
31
0.0
40
0.93652731578634718
41
0.19425217090366279
42
2.250528908092428
0
LINE
5
584
100
AcDbEntity
8
0
100
AcDbLine
10
185.35438814059859
20
-171.07229511278317
30
-2.2204460492503131e-14
11
135.71630224837878
21
-208.64432219693316
31
-1.3322676295501878e-14
0
LINE
5
585
100
AcDbEntity
8
0
100
AcDbLine
10
185.35438814059859
20
-171.07229511278317
30
-2.2204460492503131e-14
11
185.35438814059859
21
-154.50669937081048
31
-3.3306690738754696e-14
0
ELLIPSE
5
586
100
AcDbEntity
8
0
100
AcDbEllipse
10
47.830630110574468
20
-112.58930283547161
30
-3.1086244689504383e-14
11
-2.4141003792913498
21
3.1893760140042082
31
0.0
40
0.22037854096286064
41
0
42
0.45785260577898595
0
ELLIPSE
5
587
100
AcDbEntity
8
0
100
AcDbEllipse
10
54.052556846257254
20
-107.87980617324618
30
-1.7763568394002505e-14
11
2.4141003792913498
21
-3.1893760140042082
31
0.0
40
0.22037854096286064
41
1.4611794719911808
42
3.1415926535898038
0
LINE
5
588
100
AcDbEntity
8
0
100
AcDbLine
10
45.354488332557793
20
-109.96358377435175
30
-3.1285419535544684e-14
11
47.202045046524425
21
-117.94858217524423
31
-4.4408920985006262e-15
0
LINE
5
589
100
AcDbEntity
8
0
100
AcDbLine
10
101.35182895370291
20
-67.578113814322464
30
-1.3322676295501878e-14
11
102.34590740456457
21
-71.874444628141049
31
-3.1086244689504383e-14
0
ELLIPSE
5
590
100
AcDbEntity
8
0
100
AcDbEllipse
10
110.04989746740236
20
-65.494336213216883
30
-2.6645352591003757e-14
11
-2.4141003792913498
21
3.1893760140042078
31
0.0
40
0.22037854096286061
41
3.4249123341693406
42
6.2831853071795933
0
ELLIPSE
5
591
100
AcDbEntity
8
0
100
AcDbEllipse
10
103.82797073171957
20
-70.203832875442359
30
-2.6645352591003757e-14
11
2.4141003792913498
21
-3.1893760140042078
31
0.0
40
0.22037854096286061
41
3.1415926535898073
42
3.5994452593687503
0
LWPOLYLINE
5
592
100
AcDbEntity
8
0
100
AcDbPolyline
90
6
70
1
43
0.0
10
125.60948439798111
20
-197.01935756363898
10
66.333404360334242
20
-128.3329546256023
10
66.333404360334228
20
-128.04499739925555
10
64.917146706377423
20
-126.40390298440941
10
109.0058070220303
20
-93.032343430715287
10
169.84846115861808
20
-163.53402058600469
0
LINE
5
593
100
AcDbEntity
8
0
100
AcDbLine
10
185.35438814059859
20
-154.50669937081048
30
-3.3306690738754696e-14
11
112.56423772360259
21
-70.160811479999722
31
-1.3322676295501878e-14
0
ELLIPSE
5
594
100
AcDbEntity
8
0
100
AcDbEllipse
10
138.27933211485546
20
-197.49138908961939
30
-1.3322676295501878e-14
11
-1.4250000000000009
21
7.9103390504542443e-17
31
0.0
40
0.93652731578634663
41
2.2505289080924098
42
2.5091850983986279
0
ELLIPSE
5
595
100
AcDbEntity
8
0
100
AcDbEllipse
10
138.27933211485546
20
-197.49138908961939
30
-1.3322676295501878e-14
11
-1.4250000000000009
21
7.9103390504542443e-17
31
0.0
40
0.93652731578634663
41
0.63240755519117364
42
2.2505289080924098
0
ELLIPSE
5
596
100
AcDbEntity
8
0
100
AcDbEllipse
10
153.83414895406241
20
-185.71764743405566
30
-1.3322676295501878e-14
11
-1.4250000000000009
21
7.9103390504542443e-17
31
0.0
40
0.93652731578634663
41
2.2505289080924098
42
2.5091850983986279
0
ELLIPSE
5
597
100
AcDbEntity
8
0
100
AcDbEllipse
10
153.83414895406241
20
-185.71764743405566
30
-1.3322676295501878e-14
11
-1.4250000000000009
21
7.9103390504542443e-17
31
0.0
40
0.93652731578634663
41
0.63240755519118208
42
2.2505289080924098
0
ELLIPSE
5
598
100
AcDbEntity
8
0
100
AcDbEllipse
10
153.83414895406241
20
-187.29532321900547
30
-4.4408920985006262e-15
11
-1.4250000000000009
21
9.1267084822909192e-17
31
0.0
40
0.93652731578634663
41
3.7740002087809978
42
5.6507777519883984
0
ELLIPSE
5
599
100
AcDbEntity
8
0
100
AcDbEllipse
10
138.27933211485546
20
-199.06906487456919
30
-4.4408920985006262e-15
11
-1.4250000000000009
21
9.1267084822909192e-17
31
0.0
40
0.93652731578634663
41
3.7740002087809583
42
5.6507777519884126
0
LINE
5
600
100
AcDbEntity
8
0
100
AcDbLine
10
47.202045046524425
20
-130.17949612873443
30
-5.5511151231257827e-15
11
129.42097142427124
21
-225.45101716602329
31
-3.9968028886505635e-14
0
LINE
5
601
100
AcDbEntity
8
0
100
AcDbLine
10
112.56423772360259
20
-70.160811479999722
30
-1.3322676295501878e-14
11
112.56423772360257
21
-68.407838385611029
31
-2.6432160297857561e-14
0
SPLINE
5
602
100
AcDbEntity
8
0
100
AcDbSpline
70
0
71
3
72
26
73
22
74
0
42
0.000000001
43
0.0000000001
44
0.0000000001
40
4.2495121244448208
40
4.2495121244448208
40
4.2495121244448208
40
4.2495121244448208
40
4.4916671874446532
40
4.4916671874446532
40
4.8612167678273437
40
4.8612167678273437
40
5.1614481100616487
40
5.1614481100616487
40
5.4345172127480144
40
5.4345172127480144
40
5.6972685893359234
40
5.6972685893359234
40
5.9589012932548426
40
5.9589012932548426
40
6.2275137034046963
40
6.2275137034046963
40
6.5145419957006894
40
6.5145419957006894
40
6.8408005580663538
40
6.8408005580663538
40
6.9573933273193056
40
6.9573933273193056
40
6.9573933273193056
40
6.9573933273193056
10
132.04401030972292
20
-215.55166857043906
30
-2.2204460492503131e-14
10
132.07288513724308
20
-215.67440839063829
30
-1.3322676295501878e-14
10
132.11824103986783
20
-215.79669830003112
30
-4.4408920985006262e-15
10
132.27778459182738
20
-216.09902863645615
30
-1.3322676295501878e-14
10
132.41646734882252
20
-216.27593450983761
30
-1.3322676295501878e-14
10
132.74322541682412
20
-216.5566134992562
30
-2.2204460492503131e-14
10
132.9170121992579
20
-216.66740539885001
30
1.3322676295501878e-14
10
133.28716516710108
20
-216.83145514421977
30
-3.9968028886505635e-14
10
133.47988200452033
20
-216.88887071774971
30
-1.3322676295501878e-14
10
133.87175002098158
20
-216.9514658312431
30
-3.9968028886505635e-14
10
134.07022654019801
20
-216.95850508532035
30
-1.3322676295501878e-14
10
134.45932543938636
20
-216.92421776933574
30
-1.3322676295501878e-14
10
134.64983572554866
20
-216.88312811425487
30
-3.1086244689504383e-14
10
135.01048029776754
20
-216.75774880698577
30
-1.3322676295501878e-14
10
135.17980529730104
20
-216.67243838911361
30
-1.3322676295501878e-14
10
135.48849567891881
20
-216.46427191947257
30
-1.3322676295501878e-14
10
135.62492907345475
20
-216.33946222886792
30
-2.2204460492503131e-14
10
135.86084243560504
20
-216.05461287365873
30
-3.9968028886505635e-14
10
135.95288546690935
20
-215.8924794830109
30
-3.1086244689504383e-14
10
136.03527221547117
20
-215.66972736530857
30
-3.1086244689504383e-14
10
136.05299609159093
20
-215.61076531348198
30
-1.3322676295501878e-14
10
136.06689873752603
20
-215.55166857043906
30
-4.4408920985006262e-15
0
LINE
5
603
100
AcDbEntity
8
0
100
AcDbLine
10
45.41652973128312
20
-109.3999268214674
30
-3.1308289294429414e-14
11
51.638456466965906
21
-104.69043015924197
31
-1.7985612998927536e-14
0
LINE
5
604
100
AcDbEntity
8
0
100
AcDbLine
10
107.635797088111
20
-62.304960199212672
30
-2.6867397195928788e-14
11
101.41387035242822
21
-67.014456861438148
31
-2.6867397195928788e-14
0
ELLIPSE
5
605
100
AcDbEntity
8
0
100
AcDbEllipse
10
81.160127923653931
20
-148.72196709262286
30
-3.1086244689504383e-14
11
1.0863451706811096
21
-1.4352192063018938
31
0.0
40
0.220378540962861
41
3.1415926535898286
42
6.2831853071796075
0
LINE
5
606
100
AcDbEntity
8
0
100
AcDbLine
10
77.555458930930058
20
-148.66426949903055
30
-4.4408920985006262e-15
11
80.003031227230409
21
-146.81165469823654
31
-1.6653345369377348e-15
0
LINE
5
607
100
AcDbEntity
8
0
100
AcDbLine
10
74.047954273530777
20
-144.59993396854077
30
-1.3322676295501878e-14
11
77.555458930930058
21
-148.66426949903055
31
-4.4408920985006262e-15
0
LINE
5
608
100
AcDbEntity
8
0
100
AcDbLine
10
74.047954273530777
20
-144.59993396854077
30
-1.3322676295501878e-14
11
74.047954273530777
21
-140.5330363895591
31
-1.2212453270876722e-14
0
LINE
5
609
100
AcDbEntity
8
0
100
AcDbLine
10
74.372566872160576
20
-140.28733083648723
30
-1.3322676295501878e-14
11
74.047954273530777
21
-140.5330363895591
31
-1.2212453270876722e-14
0
ELLIPSE
5
610
100
AcDbEntity
8
0
100
AcDbEllipse
10
38.60025753597381
20
-88.309424477427541
30
-8.8817841970012523e-15
11
-1.0748070373865044
21
-0.92755400265497956
31
0.0
40
0.27267175407273186
41
3.1415926535897647
42
6.0520752420583852
0
ELLIPSE
5
611
100
AcDbEntity
8
0
100
AcDbEllipse
10
38.60025753597381
20
-88.309424477427541
30
-8.8817841970012523e-15
11
-1.0748070373865044
21
-0.92755400265497956
31
0.0
40
0.27267175407273186
41
6.0520752420583852
42
6.283185307179501
0
ELLIPSE
5
612
100
AcDbEntity
8
0
100
AcDbEllipse
10
41.99138860280739
20
-85.742611797228193
30
-8.8817841970012523e-15
11
-1.0748070373865044
21
-0.92755400265497956
31
0.0
40
0.27267175407273186
41
3.1415926535897931
42
6.0520752420583586
0
ELLIPSE
5
613
100
AcDbEntity
8
0
100
AcDbEllipse
10
41.99138860280739
20
-85.742611797228193
30
-8.8817841970012523e-15
11
-1.0748070373865044
21
-0.92755400265497956
31
0.0
40
0.27267175407273186
41
6.0520752420583586
42
6.2831853071795862
0
LINE
5
614
100
AcDbEntity
8
0
100
AcDbLine
10
80.506904888999486
20
-107.43944129612912
30
-1.3322676295501878e-14
11
69.205931563203762
21
-94.34439170859531
31
-1.1657341758564144e-14
0
LINE
5
615
100
AcDbEntity
8
0
100
AcDbLine
10
53.340018387212652
20
-111.96312209931392
30
-3.1086244689504383e-14
11
53.340018387212652
21
-107.56217443769589
31
-3.219646771412954e-14
0
LINE
5
616
100
AcDbEntity
8
0
100
AcDbLine
10
61.712771440359369
20
-121.66508433338647
30
-8.8817841970012523e-15
11
53.340018387212652
21
-111.96312209931392
31
-3.1086244689504383e-14
0
LINE
5
617
100
AcDbEntity
8
0
100
AcDbLine
10
69.205931563203762
20
-94.34439170859531
30
-1.1657341758564144e-14
11
58.368910799398506
21
-102.54714228470095
31
-2.3869795029440866e-14
0
LINE
5
618
100
AcDbEntity
8
0
100
AcDbLine
10
56.100266238877737
20
-104.26432322228331
30
-1.7763568394002505e-14
11
54.977779732564933
21
-105.1139549649003
31
-1.7243151351209463e-14
0
LINE
5
619
100
AcDbEntity
8
0
100
AcDbLine
10
99.474346539039331
20
-93.082617929899527
30
-1.7763568394002505e-14
11
95.899701896744091
21
-88.940483664188179
31
-2.0539125955565396e-14
0
LINE
5
620
100
AcDbEntity
8
0
100
AcDbLine
10
86.450150666925865
20
-99.809334680047073
30
-8.8817841970012523e-15
11
86.450150666925865
21
-96.093031719943141
31
-9.4368957093138306e-15
0
LINE
5
621
100
AcDbEntity
8
0
100
AcDbLine
10
88.084849378591116
20
-101.70354857409029
30
0
11
86.450150666925865
21
-99.809334680047073
31
-8.8817841970012523e-15
0
LINE
5
622
100
AcDbEntity
8
0
100
AcDbLine
10
95.899701896744091
20
-88.940483664188179
30
-2.0539125955565396e-14
11
86.450150666925865
21
-96.093031719943141
31
-9.4368957093138306e-15
0
LINE
5
623
100
AcDbEntity
8
0
100
AcDbLine
10
170.43454875592488
20
-161.75873042214036
30
-2.2204460492503131e-14
11
168.42139731847865
21
-163.28252367429073
31
-3.0184188481996443e-14
0
LINE
5
624
100
AcDbEntity
8
0
100
AcDbLine
10
126.69328979143125
20
-194.8673351752976
30
-2.2204460492503131e-14
11
123.53677598571592
21
-197.25656151366493
31
-1.6237011735142914e-14
0
LINE
5
625
100
AcDbEntity
8
0
100
AcDbLine
10
123.53677598571592
20
-197.25656151366493
30
-1.6237011735142914e-14
11
82.635857855041166
21
-149.86245344385111
31
-1.5543122344752192e-14
0
LINE
5
626
100
AcDbEntity
8
0
100
AcDbLine
10
80.278989731262399
20
-147.1314227562809
30
-1.3322676295501878e-14
11
80.003031227230409
21
-146.81165469823654
31
-1.6653345369377348e-15
0
LINE
5
627
100
AcDbEntity
8
0
100
AcDbLine
10
74.372566872160576
20
-140.28733083648723
30
-1.3322676295501878e-14
11
59.923967503850548
21
-123.54495655209286
31
-1.2212453270876722e-14
0
LINE
5
628
100
AcDbEntity
8
0
100
AcDbLine
10
170.43454875592494
20
-161.23283849382381
30
-1.3322676295501878e-14
11
106.82174027405956
21
-87.521233532251742
31
-1.7763568394002505e-14
0
LINE
5
629
100
AcDbEntity
8
0
100
AcDbLine
10
170.43454875592488
20
-161.75873042214036
30
-2.2204460492503131e-14
11
170.43454875592494
21
-161.23283849382381
31
-1.3322676295501878e-14
0
LINE
5
630
100
AcDbEntity
8
0
100
AcDbLine
10
59.923967503850548
20
-123.54495655209286
30
-1.2212453270876722e-14
11
59.923967503850555
21
-123.01906462377629
31
-3.4035274598664955e-14
0
LINE
5
631
100
AcDbEntity
8
0
100
AcDbLine
10
61.712771440359369
20
-121.66508433338647
30
-8.8817841970012523e-15
11
59.923967503850555
21
-123.01906462377629
31
-3.4035274598664955e-14
0
LINE
5
632
100
AcDbEntity
8
0
100
AcDbLine
10
106.82174027405956
20
-87.521233532251742
30
-1.7763568394002505e-14
11
99.474346539039331
21
-93.082617929899527
31
-1.7763568394002505e-14
0
LINE
5
633
100
AcDbEntity
8
0
100
AcDbLine
10
88.084849378591116
20
-101.70354857409029
30
0
11
80.506904888999486
21
-107.43944129612912
31
-1.3322676295501878e-14
0
LINE
5
634
100
AcDbEntity
8
0
100
AcDbLine
10
170.43454875592488
20
-165.61527122979541
30
-2.2204460492503131e-14
11
168.42139731847865
21
-163.28252367429073
31
-3.0184188481996443e-14
0
LINE
5
635
100
AcDbEntity
8
0
100
AcDbLine
10
170.43454875592488
20
-165.61527122979541
30
-2.2204460492503131e-14
11
170.43454875592488
21
-166.14116315811199
31
-2.5049406993105094e-14
0
LINE
5
636
100
AcDbEntity
8
0
100
AcDbLine
10
128.98096187943835
20
-197.51818467018924
30
-4.4408920985006262e-15
11
126.69328979143125
21
-194.8673351752976
31
-2.2204460492503131e-14
0
LINE
5
637
100
AcDbEntity
8
0
100
AcDbLine
10
170.43454875592488
20
-166.14116315811199
30
-2.5049406993105094e-14
11
128.98096187943835
21
-197.51818467018924
31
-4.4408920985006262e-15
0
LINE
5
638
100
AcDbEntity
8
0
100
AcDbLine
10
80.278989731262399
20
-147.1314227562809
30
-1.3322676295501878e-14
11
80.073782752972818
21
-147.28674788632097
31
-3.0986324617288122e-14
0
LINE
5
639
100
AcDbEntity
8
0
100
AcDbLine
10
82.635857855041166
20
-149.86245344385111
30
-1.5543122344752192e-14
11
82.246473094335045
21
-150.15718629892473
31
-3.1186164761720645e-14
0
LINE
5
640
100
AcDbEntity
8
0
100
AcDbLine
10
54.977779732564933
20
-105.1139549649003
30
-1.7243151351209463e-14
11
39.675064573360316
21
-87.381870474772555
31
-8.7635698822168362e-15
0
LINE
5
641
100
AcDbEntity
8
0
100
AcDbLine
10
53.340018387212652
20
-107.56217443769589
30
-3.219646771412954e-14
11
37.525450498587297
21
-89.236978480082485
31
-8.9999985117856669e-15
0
LINE
5
642
100
AcDbEntity
8
0
100
AcDbLine
10
58.368910799398506
20
-102.54714228470095
30
-2.3869795029440866e-14
11
43.066195640193889
21
-84.815057794573221
31
-8.7635698822168362e-15
0
LINE
5
643
100
AcDbEntity
8
0
100
AcDbLine
10
56.100266238877737
20
-104.26432322228331
30
-1.7763568394002505e-14
11
40.916581565420884
21
-86.670165799883165
31
-8.9999985117856669e-15
0
LWPOLYLINE
5
644
100
AcDbEntity
8
0
100
AcDbPolyline
90
8
70
1
43
0.0
10
187.24014333274874
20
-149.85523093199038
10
187.24014333274874
20
-173.25742174207875
10
183.351439122947
20
-176.20085715596969
10
181.46568393079687
20
-174.01573052667408
10
181.46568393079684
20
-155.52186438087392
10
178.3227586105466
20
-151.87998666538115
10
182.21146282034834
20
-148.93655125149027
10
185.35438814059859
20
-147.67010430269474
0
ENDSEC
0
SECTION
2
OBJECTS
0
DICTIONARY
5
C
100
AcDbDictionary
3
ACAD_GROUP
350
D
3
ACAD_MLINESTYLE
350
17
0
DICTIONARY
5
D
100
AcDbDictionary
0
DICTIONARY
5
1A
330
C
100
AcDbDictionary
0
DICTIONARY
5
17
100
AcDbDictionary
0
ENDSEC
0
EOF
