999
"DXF R12 Output" (www.mydxf.blogspot.com)
 0 
SECTION
 2 
HEADER
 9 
$ACADVER
 1 
AC1009
 9 
$EXTMIN
 10 
 0 
 20 
 0 
 9 
$EXTMAX
 10 
 8.5 
 20 
 11 
 0 
ENDSEC
 0 
SECTION
 2 
ENTITIES
0
LINE
8
Layer 1
10
10.680300
20
0.449178
11
10.601780
21
8.838408
0
LINE
8
Layer 1
10
10.601780
20
8.838408
11
9.196640
21
7.027721
0
LINE
8
Layer 1
10
9.196640
20
7.027721
11
7.293021
21
5.114514
0
LINE
8
Layer 1
10
7.293021
20
5.114514
11
5.267147
21
3.481179
0
LINE
8
Layer 1
10
5.267147
20
3.481179
11
3.495240
21
2.510108
0
LINE
8
Layer 1
10
3.495240
20
2.510108
11
3.209756
21
4.804006
0
LINE
8
Layer 1
10
3.209756
20
4.804006
11
3.154203
21
5.865160
0
LINE
8
Layer 1
10
3.154203
20
5.865160
11
3.263910
21
6.924240
0
LINE
8
Layer 1
10
3.263910
20
6.924240
11
3.510773
21
7.538312
0
LINE
8
Layer 1
10
3.510773
20
7.538312
11
3.959051
21
8.166433
0
LINE
8
Layer 1
10
3.959051
20
8.166433
11
5.170951
21
9.346561
0
LINE
8
Layer 1
10
5.170951
20
9.346561
11
6.833830
21
10.574500
0
LINE
8
Layer 1
10
6.833830
20
10.574500
11
5.770033
21
10.904916
0
LINE
8
Layer 1
10
5.770033
20
10.904916
11
4.854828
21
11.566142
0
LINE
8
Layer 1
10
4.854828
20
11.566142
11
4.058311
21
12.490981
0
LINE
8
Layer 1
10
4.058311
20
12.490981
11
3.350574
21
13.612237
0
LINE
8
Layer 1
10
3.350574
20
13.612237
11
2.081818
21
16.175214
0
LINE
8
Layer 1
10
2.081818
20
16.175214
11
0.809311
21
18.717500
0
LINE
8
Layer 1
10
0.809311
20
18.717500
11
4.703355
21
18.510025
0
LINE
8
Layer 1
10
4.703355
20
18.510025
11
5.858403
21
18.285359
0
LINE
8
Layer 1
10
5.858403
20
18.285359
11
6.963450
21
17.726700
0
LINE
8
Layer 1
10
6.963450
20
17.726700
11
8.378219
21
16.704189
0
LINE
8
Layer 1
10
8.378219
20
16.704189
11
9.437099
21
15.708838
0
LINE
8
Layer 1
10
9.437099
20
15.708838
11
10.225167
21
14.650317
0
LINE
8
Layer 1
10
10.225167
20
14.650317
11
10.827500
21
13.438300
0
LINE
8
Layer 1
10
10.827500
20
13.438300
11
11.243109
21
14.643561
0
LINE
8
Layer 1
10
11.243109
20
14.643561
11
11.834650
21
15.758288
0
LINE
8
Layer 1
10
11.834650
20
15.758288
11
12.841391
21
16.697270
0
LINE
8
Layer 1
10
12.841391
20
16.697270
11
13.575232
21
17.074230
0
LINE
8
Layer 1
10
13.575232
20
17.074230
11
14.502600
21
17.375300
0
LINE
8
Layer 1
10
14.502600
20
17.375300
11
18.743890
21
18.491590
0
LINE
8
Layer 1
10
18.743890
20
18.491590
11
18.692260
21
17.270660
0
LINE
8
Layer 1
10
18.692260
20
17.270660
11
18.396641
21
16.070119
0
LINE
8
Layer 1
10
18.396641
20
16.070119
11
17.913336
21
14.907807
0
LINE
8
Layer 1
10
17.913336
20
14.907807
11
17.298653
21
13.801562
0
LINE
8
Layer 1
10
17.298653
20
13.801562
11
15.900368
21
11.828637
0
LINE
8
Layer 1
10
15.900368
20
11.828637
11
14.652230
21
10.294060
0
LINE
8
Layer 1
10
14.652230
20
10.294060
11
15.547872
21
7.432765
0
LINE
8
Layer 1
10
15.547872
20
7.432765
11
16.443520
21
4.571470
0
LINE
8
Layer 1
10
16.443520
20
4.571470
11
16.825315
21
4.880964
0
LINE
8
Layer 1
10
16.825315
20
4.880964
11
17.078410
21
5.614790
0
LINE
8
Layer 1
10
17.078410
20
5.614790
11
17.370105
21
7.789665
0
LINE
8
Layer 1
10
17.370105
20
7.789665
11
17.661799
21
9.964540
0
LINE
8
Layer 1
10
17.661799
20
9.964540
11
17.914895
21
10.698367
0
LINE
8
Layer 1
10
17.914895
20
10.698367
11
18.296690
21
11.007860
0
LINE
8
Layer 1
10
3.769360
20
9.682220
11
9.390660
21
9.337237
0
LINE
8
Layer 1
10
9.390660
20
9.337237
11
8.243695
21
10.350420
0
LINE
8
Layer 1
10
8.243695
20
10.350420
11
7.051325
21
11.697497
0
LINE
8
Layer 1
10
7.051325
20
11.697497
11
6.052065
21
13.112037
0
LINE
8
Layer 1
10
6.052065
20
13.112037
11
5.484430
21
14.327607
0
LINE
8
Layer 1
10
5.484430
20
14.327607
11
7.033794
21
14.407588
0
LINE
8
Layer 1
10
7.033794
20
14.407588
11
8.451030
21
14.271500
0
LINE
8
Layer 1
10
8.451030
20
14.271500
11
9.250422
21
13.753900
0
LINE
8
Layer 1
10
9.250422
20
13.753900
11
9.984165
21
12.898125
0
LINE
8
Layer 1
10
9.984165
20
12.898125
11
10.728900
21
11.742400
0
LINE
8
Layer 1
10
10.728900
20
11.742400
11
10.999752
21
12.428982
0
LINE
8
Layer 1
10
10.999752
20
12.428982
11
11.485192
21
13.001833
0
LINE
8
Layer 1
10
11.485192
20
13.001833
11
12.925438
21
13.898013
0
LINE
8
Layer 1
10
12.925438
20
13.898013
11
16.462600
21
15.334000
0
LINE
8
Layer 1
10
16.462600
20
15.334000
11
16.142038
21
12.773350
0
LINE
8
Layer 1
10
16.142038
20
12.773350
11
15.937717
21
12.021522
0
LINE
8
Layer 1
10
15.937717
20
12.021522
11
15.512100
21
11.318500
0
LINE
8
Layer 1
10
15.512100
20
11.318500
11
14.045575
21
9.781085
0
LINE
8
Layer 1
10
14.045575
20
9.781085
11
13.300041
21
9.310940
0
LINE
8
Layer 1
10
13.300041
20
9.310940
11
12.460400
21
8.970660
0
LINE
8
Layer 1
10
12.460400
20
8.970660
11
13.248080
21
8.639320
0
LINE
8
Layer 1
10
13.248080
20
8.639320
11
13.966938
21
8.196130
0
LINE
8
Layer 1
10
13.966938
20
8.196130
11
14.548752
21
7.487170
0
LINE
8
Layer 1
10
14.548752
20
7.487170
11
14.925300
21
6.358520
0
LINE
8
Layer 1
10
14.925300
20
6.358520
11
15.475035
21
3.506030
0
LINE
8
Layer 1
10
15.475035
20
3.506030
11
14.659878
21
3.597862
0
LINE
8
Layer 1
10
14.659878
20
3.597862
11
13.869750
21
3.849787
0
LINE
8
Layer 1
10
13.869750
20
3.849787
11
12.401864
21
4.681876
0
LINE
8
Layer 1
10
12.401864
20
4.681876
11
11.145941
21
5.698207
0
LINE
8
Layer 1
10
11.145941
20
5.698207
11
10.176545
21
6.594690
0
LINE
8
Layer 1
10
10.176545
20
6.594690
11
6.261035
21
5.682938
0
LINE
8
Layer 1
10
6.261035
20
5.682938
11
6.450478
21
5.416276
0
LINE
8
Layer 1
10
6.450478
20
5.416276
11
6.930065
21
5.214497
0
LINE
8
Layer 1
10
6.930065
20
5.214497
11
8.372816
21
4.919077
0
LINE
8
Layer 1
10
8.372816
20
4.919077
11
9.815566
21
4.623658
0
LINE
8
Layer 1
10
9.815566
20
4.623658
11
10.295153
21
4.421879
0
LINE
8
Layer 1
10
10.295153
20
4.421879
11
10.484595
21
4.155218
 0 
ENDSEC
 0 
EOF