<?xml version="1.0" encoding="UTF-8" standalone="no"?>
<!-- Created with Inkscape (http://www.inkscape.org/) -->

<svg
   width="20mm"
   height="20mm"
   viewBox="0 0 20 20"
   version="1.1"
   id="svg5"
   inkscape:version="1.2.2 (732a01da63, 2022-12-09)"
   sodipodi:docname="drawing.svg"
   xmlns:inkscape="http://www.inkscape.org/namespaces/inkscape"
   xmlns:sodipodi="http://sodipodi.sourceforge.net/DTD/sodipodi-0.dtd"
   xmlns="http://www.w3.org/2000/svg"
   xmlns:svg="http://www.w3.org/2000/svg">
  <sodipodi:namedview
     id="namedview7"
     pagecolor="#ffffff"
     bordercolor="#000000"
     borderopacity="0.25"
     inkscape:showpageshadow="2"
     inkscape:pageopacity="0.0"
     inkscape:pagecheckerboard="0"
     inkscape:deskcolor="#d1d1d1"
     inkscape:document-units="mm"
     showgrid="true"
     inkscape:zoom="8.4092297"
     inkscape:cx="53.631547"
     inkscape:cy="37.042632"
     inkscape:window-width="1920"
     inkscape:window-height="1112"
     inkscape:window-x="-8"
     inkscape:window-y="-8"
     inkscape:window-maximized="1"
     inkscape:current-layer="g2277">
    <inkscape:grid
       type="xygrid"
       id="grid2210"
       enabled="true"
       visible="true"
       empspacing="20"
       originx="0"
       originy="0" />
  </sodipodi:namedview>
  <defs
     id="defs2" />
  <g
     inkscape:label="Layer 2"
     inkscape:groupmode="layer"
     id="g2277"
     style="display:none">
    <g
       id="g2275"
       transform="translate(0.22248015,-0.08899206)"
       style="display:inline">
      <path
         style="mix-blend-mode:normal;fill:none;stroke:#000000;stroke-width:1.20321;stroke-linecap:butt;stroke-linejoin:round;stroke-dasharray:none;paint-order:normal"
         d="m 10.457849,19.639822 c 0,0 -0.01316,-5.954671 -0.07852,-8.38923 -1.3739894,2.175951 -5.0805214,5.645 -7.1065374,6.328305 C 3.1120744,15.918241 2.7492724,14.593859 3.0414262,13.164757 3.3669843,11.572254 6.611351,9.5144623 6.611351,9.5144623 3.549855,9.1342135 2.3923431,4.5085192 0.58683063,1.3714688 4.3648202,1.6557332 5.1415823,1.3103033 6.7409683,2.3622824 8.902396,3.7839388 9.8879517,4.8922387 10.605062,6.6506695 11.148235,5.0211778 11.522476,3.405898 14.280115,2.7136547 c 1.965363,-0.4933603 3.653599,-1.025355 4.241291,-1.1162911 0.23769,3.2671378 -2.727774,6.5070915 -4.091661,8.1975288 0.349232,0.7657796 1.442055,4.9568056 1.791288,5.7225856 1.227847,-0.133811 0.625319,-6.3025803 1.853166,-6.4363915"
         id="path2273"
         sodipodi:nodetypes="cccsccscscccc" />
    </g>
  </g>
  <g
     inkscape:label="Layer 1"
     inkscape:groupmode="layer"
     id="layer1"
     transform="matrix(0.6617465,0,0,0.67129337,3.3119994,3.1432633)"
     style="display:none">
    <g
       id="g524"
       transform="translate(0.73964325,0.26513612)">
      <path
         style="mix-blend-mode:normal;fill:none;stroke:#000000;stroke-width:1.20321;stroke-linecap:butt;stroke-linejoin:round;stroke-dasharray:none;paint-order:normal"
         d="m 10.457849,19.639822 c 0,0 -0.01316,-5.954671 -0.07852,-8.38923 -1.3739894,2.175951 -5.0805214,5.645 -7.1065374,6.328305 C 3.1120744,15.918241 2.7492724,14.593859 3.0414262,13.164757 3.3669843,11.572254 6.611351,9.5144623 6.611351,9.5144623 3.549855,9.1342135 2.3923431,4.5085192 0.58683063,1.3714688 4.3648202,1.6557332 5.1415823,1.3103033 6.7409683,2.3622824 8.902396,3.7839388 9.8879517,4.8922387 10.605062,6.6506695 11.148235,5.0211778 11.522476,3.405898 14.280115,2.7136547 c 1.965363,-0.4933603 3.653599,-1.025355 4.241291,-1.1162911 0.23769,3.2671378 -2.727774,6.5070915 -4.091661,8.1975288 0.349232,0.7657796 1.442055,4.9568056 1.791288,5.7225856 1.227847,-0.133811 0.625319,-6.3025803 1.853166,-6.4363915"
         id="path540"
         sodipodi:nodetypes="cccsccscscccc" />
    </g>
  </g>
</svg>
