999
"DXF R12 Output" (www.mydxf.blogspot.com)
 0 
SECTION
 2 
HEADER
 9 
$ACADVER
 1 
AC1009
 9 
$EXTMIN
 10 
 0 
 20 
 0 
 9 
$EXTMAX
 10 
 8.5 
 20 
 11 
 0 
ENDSEC
 0 
SECTION
 2 
ENTITIES
0
LINE
8
Layer 1
10
1105.840000
20
39.905000
11
1098.358337
21
53.106963
0
LINE
8
Layer 1
10
1098.358337
20
53.106963
11
1095.246400
21
58.828200
0
LINE
8
Layer 1
10
1095.246400
20
58.828200
11
1098.296700
21
64.423525
0
LINE
8
Layer 1
10
1098.296700
20
64.423525
11
1105.630100
21
77.323100
0
LINE
8
Layer 1
10
1105.630100
20
77.323100
11
1116.013500
21
95.424200
0
LINE
8
Layer 1
10
1116.013500
20
95.424200
11
1137.422700
21
95.650020
0
LINE
8
Layer 1
10
1137.422700
20
95.650020
11
1158.831900
21
95.875830
0
LINE
8
Layer 1
10
1158.831900
20
95.875830
11
1169.439700
21
77.314430
0
LINE
8
Layer 1
10
1169.439700
20
77.314430
11
1180.047600
21
58.753130
0
LINE
8
Layer 1
10
1180.047600
20
58.753130
11
1169.339500
21
40.064630
0
LINE
8
Layer 1
10
1169.339500
20
40.064630
11
1158.631800
21
21.375930
0
LINE
8
Layer 1
10
1158.631800
20
21.375930
11
1137.540000
21
21.375900
0
LINE
8
Layer 1
10
1137.540000
20
21.375900
11
1116.440000
21
21.375900
0
LINE
8
Layer 1
10
1116.440000
20
21.375900
11
1105.840000
21
39.905000
0
LINE
8
Layer 1
10
1254.814000
20
33.011890
11
1244.160400
21
51.683690
0
LINE
8
Layer 1
10
1244.160400
20
51.683690
11
1240.165500
21
58.719320
0
LINE
8
Layer 1
10
1240.165500
20
58.719320
11
1242.309700
21
62.685170
0
LINE
8
Layer 1
10
1242.309700
20
62.685170
11
1252.755300
21
81.037570
0
LINE
8
Layer 1
10
1252.755300
20
81.037570
11
1261.056900
21
95.424070
0
LINE
8
Layer 1
10
1261.056900
20
95.424070
11
1282.513600
21
95.649890
0
LINE
8
Layer 1
10
1282.513600
20
95.649890
11
1303.970300
21
95.875700
0
LINE
8
Layer 1
10
1303.970300
20
95.875700
11
1305.997600
21
92.264950
0
LINE
8
Layer 1
10
1305.997600
20
92.264950
11
1316.542700
21
73.714450
0
LINE
8
Layer 1
10
1316.542700
20
73.714450
11
1325.060200
21
58.774750
0
LINE
8
Layer 1
10
1325.060200
20
58.774750
11
1314.397800
21
40.075250
0
LINE
8
Layer 1
10
1314.397800
20
40.075250
11
1303.735400
21
21.375750
0
LINE
8
Layer 1
10
1303.735400
20
21.375750
11
1282.610000
21
21.375900
0
LINE
8
Layer 1
10
1282.610000
20
21.375900
11
1261.480000
21
21.375900
0
LINE
8
Layer 1
10
1261.480000
20
21.375900
11
1254.814000
21
33.011890
0
LINE
8
Layer 1
10
827.276000
20
39.374750
11
816.844100
21
57.835050
0
LINE
8
Layer 1
10
816.844100
20
57.835050
11
814.746970
21
61.713010
0
LINE
8
Layer 1
10
814.746970
20
61.713010
11
825.178870
21
80.035610
0
LINE
8
Layer 1
10
825.178870
20
80.035610
11
835.610770
21
98.358210
0
LINE
8
Layer 1
10
835.610770
20
98.358210
11
857.143370
21
98.371010
0
LINE
8
Layer 1
10
857.143370
20
98.371010
11
878.675970
21
98.383810
0
LINE
8
Layer 1
10
878.675970
20
98.383810
11
888.951170
21
80.418910
0
LINE
8
Layer 1
10
888.951170
20
80.418910
11
896.206549
21
67.477210
0
LINE
8
Layer 1
10
896.206549
20
67.477210
11
898.412478
21
63.342647
0
LINE
8
Layer 1
10
898.412478
20
63.342647
11
899.221270
21
61.589410
0
LINE
8
Layer 1
10
899.221270
20
61.589410
11
898.407901
21
59.834725
0
LINE
8
Layer 1
10
898.407901
20
59.834725
11
896.196094
21
55.696240
0
LINE
8
Layer 1
10
896.196094
20
55.696240
11
888.928970
21
42.741610
0
LINE
8
Layer 1
10
888.928970
20
42.741610
11
878.641770
21
24.758410
0
LINE
8
Layer 1
10
878.641770
20
24.758410
11
857.126270
21
24.774410
0
LINE
8
Layer 1
10
857.126270
20
24.774410
11
835.610770
21
24.790410
0
LINE
8
Layer 1
10
835.610770
20
24.790410
11
827.275990
21
39.372610
0
LINE
8
Layer 1
10
827.275990
20
39.372610
11
827.276000
21
39.374750
0
LINE
8
Layer 1
10
876.587700
20
33.011890
11
881.097231
21
40.558336
0
LINE
8
Layer 1
10
881.097231
20
40.558336
11
886.347841
21
49.793623
0
LINE
8
Layer 1
10
886.347841
20
49.793623
11
890.700306
21
57.778318
0
LINE
8
Layer 1
10
890.700306
20
57.778318
11
892.027476
21
60.383121
0
LINE
8
Layer 1
10
892.027476
20
60.383121
11
892.515400
21
61.572990
0
LINE
8
Layer 1
10
892.515400
20
61.572990
11
891.939847
21
62.939978
0
LINE
8
Layer 1
10
891.939847
20
62.939978
11
890.395428
21
65.945585
0
LINE
8
Layer 1
10
890.395428
20
65.945585
11
885.493425
21
74.914869
0
LINE
8
Layer 1
10
885.493425
20
74.914869
11
879.996259
21
84.565263
0
LINE
8
Layer 1
10
879.996259
20
84.565263
11
876.090800
21
90.981190
0
LINE
8
Layer 1
10
876.090800
20
90.981190
11
874.504900
21
93.308450
0
LINE
8
Layer 1
10
874.504900
20
93.308450
11
857.019000
21
93.308500
0
LINE
8
Layer 1
10
857.019000
20
93.308500
11
839.530000
21
93.308500
0
LINE
8
Layer 1
10
839.530000
20
93.308500
11
830.565000
21
77.643800
0
LINE
8
Layer 1
10
830.565000
20
77.643800
11
826.628484
21
70.617103
0
LINE
8
Layer 1
10
826.628484
20
70.617103
11
823.935307
21
65.460400
0
LINE
8
Layer 1
10
823.935307
20
65.460400
11
822.455319
21
62.112247
0
LINE
8
Layer 1
10
822.455319
20
62.112247
11
822.160849
21
61.097175
0
LINE
8
Layer 1
10
822.160849
20
61.097175
11
822.158370
21
60.511200
0
LINE
8
Layer 1
10
822.158370
20
60.511200
11
825.028243
21
55.185049
0
LINE
8
Layer 1
10
825.028243
20
55.185049
11
831.143920
21
44.440800
0
LINE
8
Layer 1
10
831.143920
20
44.440800
11
839.571090
21
29.838300
0
LINE
8
Layer 1
10
839.571090
20
29.838300
11
857.085000
21
29.838400
0
LINE
8
Layer 1
10
857.085000
20
29.838400
11
874.599000
21
29.838400
0
LINE
8
Layer 1
10
874.599000
20
29.838400
11
876.587700
21
33.011890
0
LINE
8
Layer 1
10
896.792700
20
80.380190
11
889.723336
21
93.269718
0
LINE
8
Layer 1
10
889.723336
20
93.269718
11
887.572823
21
97.582922
0
LINE
8
Layer 1
10
887.572823
20
97.582922
11
886.783000
21
99.632790
0
LINE
8
Layer 1
10
886.783000
20
99.632790
11
887.577320
21
101.683835
0
LINE
8
Layer 1
10
887.577320
20
101.683835
11
889.740071
21
106.000329
0
LINE
8
Layer 1
10
889.740071
20
106.000329
11
896.849600
21
118.900690
0
LINE
8
Layer 1
10
896.849600
20
118.900690
11
906.916200
21
136.453390
0
LINE
8
Layer 1
10
906.916200
20
136.453390
11
928.335300
21
136.463390
0
LINE
8
Layer 1
10
928.335300
20
136.463390
11
949.754600
21
136.473390
0
LINE
8
Layer 1
10
949.754600
20
136.473390
11
956.857690
21
124.073490
0
LINE
8
Layer 1
10
956.857690
20
124.073490
11
967.397690
21
105.600690
0
LINE
8
Layer 1
10
967.397690
20
105.600690
11
970.834930
21
99.527710
0
LINE
8
Layer 1
10
970.834930
20
99.527710
11
960.313930
21
81.187910
0
LINE
8
Layer 1
10
960.313930
20
81.187910
11
949.792930
21
62.848010
0
LINE
8
Layer 1
10
949.792930
20
62.848010
11
928.301000
21
62.848000
0
LINE
8
Layer 1
10
928.301000
20
62.848000
11
906.806000
21
62.848000
0
LINE
8
Layer 1
10
906.806000
20
62.848000
11
896.796300
21
80.385300
0
LINE
8
Layer 1
10
896.796300
20
80.385300
11
896.792700
21
80.380190
0
LINE
8
Layer 1
10
1043.850700
20
68.555190
11
1033.231400
21
87.126790
0
LINE
8
Layer 1
10
1033.231400
20
87.126790
11
1025.432700
21
100.832290
0
LINE
8
Layer 1
10
1025.432700
20
100.832290
11
1029.289700
21
107.860370
0
LINE
8
Layer 1
10
1029.289700
20
107.860370
11
1039.726100
21
126.313070
0
LINE
8
Layer 1
10
1039.726100
20
126.313070
11
1046.305100
21
137.737670
0
LINE
8
Layer 1
10
1046.305100
20
137.737670
11
1067.673300
21
137.963160
0
LINE
8
Layer 1
10
1067.673300
20
137.963160
11
1089.041300
21
138.188650
0
LINE
8
Layer 1
10
1089.041300
20
138.188650
11
1099.690000
21
119.542950
0
LINE
8
Layer 1
10
1099.690000
20
119.542950
11
1110.338800
21
100.897250
0
LINE
8
Layer 1
10
1110.338800
20
100.897250
11
1105.840700
21
93.083070
0
LINE
8
Layer 1
10
1105.840700
20
93.083070
11
1095.148500
21
74.485870
0
LINE
8
Layer 1
10
1095.148500
20
74.485870
11
1088.954700
21
63.702770
0
LINE
8
Layer 1
10
1088.954700
20
63.702770
11
1067.812800
21
63.692770
0
LINE
8
Layer 1
10
1067.812800
20
63.692770
11
1046.671300
21
63.682770
0
LINE
8
Layer 1
10
1046.671300
20
63.682770
11
1043.850700
21
68.548830
0
LINE
8
Layer 1
10
1043.850700
20
68.548830
11
1043.850700
21
68.555190
0
LINE
8
Layer 1
10
1090.607200
20
78.287280
11
1099.614300
21
93.912880
0
LINE
8
Layer 1
10
1099.614300
20
93.912880
11
1103.711300
21
100.864300
0
LINE
8
Layer 1
10
1103.711300
20
100.864300
11
1094.765800
21
116.550500
0
LINE
8
Layer 1
10
1094.765800
20
116.550500
11
1085.819900
21
132.236800
0
LINE
8
Layer 1
10
1085.819900
20
132.236800
11
1067.673300
21
132.203800
0
LINE
8
Layer 1
10
1067.673300
20
132.203800
11
1049.527000
21
132.171800
0
LINE
8
Layer 1
10
1049.527000
20
132.171800
11
1041.137900
21
117.243900
0
LINE
8
Layer 1
10
1041.137900
20
117.243900
11
1035.141487
21
106.413459
0
LINE
8
Layer 1
10
1035.141487
20
106.413459
11
1032.504400
21
101.336800
0
LINE
8
Layer 1
10
1032.504400
20
101.336800
11
1032.733973
21
100.394660
0
LINE
8
Layer 1
10
1032.733973
20
100.394660
11
1033.538262
21
98.553360
0
LINE
8
Layer 1
10
1033.538262
20
98.553360
11
1036.365600
21
93.236420
0
LINE
8
Layer 1
10
1036.365600
20
93.236420
11
1045.236300
21
77.864220
0
LINE
8
Layer 1
10
1045.236300
20
77.864220
11
1050.001400
21
69.613090
0
LINE
8
Layer 1
10
1050.001400
20
69.613090
11
1067.850000
21
69.613100
0
LINE
8
Layer 1
10
1067.850000
20
69.613100
11
1085.700000
21
69.613100
0
LINE
8
Layer 1
10
1085.700000
20
69.613100
11
1090.607200
21
78.287280
0
LINE
8
Layer 1
10
1320.478200
20
82.323050
11
1309.828700
21
100.956950
0
LINE
8
Layer 1
10
1309.828700
20
100.956950
11
1320.300600
21
119.347250
0
LINE
8
Layer 1
10
1320.300600
20
119.347250
11
1330.772100
21
137.737650
0
LINE
8
Layer 1
10
1330.772100
20
137.737650
11
1352.145200
21
137.963140
0
LINE
8
Layer 1
10
1352.145200
20
137.963140
11
1373.518200
21
138.188630
0
LINE
8
Layer 1
10
1373.518200
20
138.188630
11
1384.170400
21
119.602930
0
LINE
8
Layer 1
10
1384.170400
20
119.602930
11
1394.822700
21
101.017330
0
LINE
8
Layer 1
10
1394.822700
20
101.017330
11
1387.918400
21
88.911730
0
LINE
8
Layer 1
10
1387.918400
20
88.911730
11
1377.295900
21
70.247630
0
LINE
8
Layer 1
10
1377.295900
20
70.247630
11
1373.577800
21
63.689060
0
LINE
8
Layer 1
10
1373.577800
20
63.689060
11
1352.360000
21
63.688800
0
LINE
8
Layer 1
10
1352.360000
20
63.688800
11
1331.130000
21
63.688800
0
LINE
8
Layer 1
10
1331.130000
20
63.688800
11
1320.478200
21
82.323050
0
LINE
8
Layer 1
10
1379.204000
20
85.279160
11
1388.169800
21
100.945260
0
LINE
8
Layer 1
10
1388.169800
20
100.945260
11
1379.356200
21
116.379560
0
LINE
8
Layer 1
10
1379.356200
20
116.379560
11
1370.542900
21
131.813760
0
LINE
8
Layer 1
10
1370.542900
20
131.813760
11
1352.330000
21
131.814000
0
LINE
8
Layer 1
10
1352.330000
20
131.814000
11
1334.110000
21
131.814000
0
LINE
8
Layer 1
10
1334.110000
20
131.814000
11
1325.401600
21
116.588000
0
LINE
8
Layer 1
10
1325.401600
20
116.588000
11
1321.956950
21
110.406755
0
LINE
8
Layer 1
10
1321.956950
20
110.406755
11
1319.298075
21
105.318471
0
LINE
8
Layer 1
10
1319.298075
20
105.318471
11
1317.632687
21
101.739377
0
LINE
8
Layer 1
10
1317.632687
20
101.739377
11
1317.237462
21
100.645847
0
LINE
8
Layer 1
10
1317.237462
20
100.645847
11
1317.168500
21
100.085700
0
LINE
8
Layer 1
10
1317.168500
20
100.085700
11
1319.974512
21
94.896194
0
LINE
8
Layer 1
10
1319.974512
20
94.896194
11
1326.055700
21
84.211400
0
LINE
8
Layer 1
10
1326.055700
20
84.211400
11
1334.467900
21
69.613200
0
LINE
8
Layer 1
10
1334.467900
20
69.613200
11
1352.350000
21
69.613000
0
LINE
8
Layer 1
10
1352.350000
20
69.613000
11
1370.240000
21
69.613000
0
LINE
8
Layer 1
10
1370.240000
20
69.613000
11
1379.204000
21
85.279160
0
LINE
8
Layer 1
10
1139.813000
20
105.134360
11
1118.527200
21
105.579390
0
LINE
8
Layer 1
10
1118.527200
20
105.579390
11
1108.176800
21
123.695090
0
LINE
8
Layer 1
10
1108.176800
20
123.695090
11
1100.952912
21
136.636755
0
LINE
8
Layer 1
10
1100.952912
20
136.636755
11
1098.822439
21
140.688502
0
LINE
8
Layer 1
10
1098.822439
20
140.688502
11
1098.119600
21
142.312990
0
LINE
8
Layer 1
10
1098.119600
20
142.312990
11
1115.194300
21
172.223090
0
LINE
8
Layer 1
10
1115.194300
20
172.223090
11
1118.914000
21
178.781670
0
LINE
8
Layer 1
10
1118.914000
20
178.781670
11
1140.425900
21
178.752870
0
LINE
8
Layer 1
10
1140.425900
20
178.752870
11
1161.937800
21
178.724070
0
LINE
8
Layer 1
10
1161.937800
20
178.724070
11
1172.004400
21
160.805070
0
LINE
8
Layer 1
10
1172.004400
20
160.805070
11
1179.099962
21
147.755420
0
LINE
8
Layer 1
10
1179.099962
20
147.755420
11
1181.247358
21
143.478692
0
LINE
8
Layer 1
10
1181.247358
20
143.478692
11
1182.022900
21
141.543370
0
LINE
8
Layer 1
10
1182.022900
20
141.543370
11
1181.131323
21
139.595176
0
LINE
8
Layer 1
10
1181.131323
20
139.595176
11
1178.803450
21
135.191555
0
LINE
8
Layer 1
10
1178.803450
20
135.191555
11
1171.735450
21
122.396190
0
LINE
8
Layer 1
10
1171.735450
20
122.396190
11
1164.612175
21
109.913590
0
LINE
8
Layer 1
10
1164.612175
20
109.913590
11
1162.215208
21
105.900925
0
LINE
8
Layer 1
10
1162.215208
20
105.900925
11
1161.226900
21
104.500070
0
LINE
8
Layer 1
10
1161.226900
20
104.500070
11
1154.883900
21
104.764719
0
LINE
8
Layer 1
10
1154.883900
20
104.764719
11
1139.813000
21
105.134780
0
LINE
8
Layer 1
10
1139.813000
20
105.134780
11
1139.813000
21
105.134360
0
LINE
8
Layer 1
10
1167.068500
20
125.876260
11
1173.220612
21
136.824917
0
LINE
8
Layer 1
10
1173.220612
20
136.824917
11
1175.779400
21
141.776560
0
LINE
8
Layer 1
10
1175.779400
20
141.776560
11
1173.253688
21
146.713654
0
LINE
8
Layer 1
10
1173.253688
20
146.713654
11
1167.181000
21
157.627160
0
LINE
8
Layer 1
10
1167.181000
20
157.627160
11
1158.582300
21
172.796660
0
LINE
8
Layer 1
10
1158.582300
20
172.796660
11
1140.386300
21
172.828660
0
LINE
8
Layer 1
10
1140.386300
20
172.828660
11
1122.190500
21
172.860660
0
LINE
8
Layer 1
10
1122.190500
20
172.860660
11
1118.486600
21
166.302080
0
LINE
8
Layer 1
10
1118.486600
20
166.302080
11
1109.615900
21
150.744880
0
LINE
8
Layer 1
10
1109.615900
20
150.744880
11
1104.449100
21
141.746270
0
LINE
8
Layer 1
10
1104.449100
20
141.746270
11
1113.479600
21
125.988170
0
LINE
8
Layer 1
10
1113.479600
20
125.988170
11
1122.510100
21
110.230170
0
LINE
8
Layer 1
10
1122.510100
20
110.230170
11
1140.433800
21
110.445110
0
LINE
8
Layer 1
10
1140.433800
20
110.445110
11
1158.357600
21
110.660050
0
LINE
8
Layer 1
10
1158.357600
20
110.660050
11
1167.068500
21
125.879350
0
LINE
8
Layer 1
10
1167.068500
20
125.879350
11
1167.068500
21
125.876260
0
LINE
8
Layer 1
10
825.591500
20
122.687610
11
818.501561
21
135.469854
0
LINE
8
Layer 1
10
818.501561
20
135.469854
11
816.333907
21
139.674836
0
LINE
8
Layer 1
10
816.333907
20
139.674836
11
815.524900
21
141.595210
0
LINE
8
Layer 1
10
815.524900
20
141.595210
11
816.301075
21
143.542828
0
LINE
8
Layer 1
10
816.301075
20
143.542828
11
818.448674
21
147.822172
0
LINE
8
Layer 1
10
818.448674
20
147.822172
11
825.544000
21
160.849010
0
LINE
8
Layer 1
10
825.544000
20
160.849010
11
835.610700
21
178.718010
0
LINE
8
Layer 1
10
835.610700
20
178.718010
11
857.088800
21
178.750010
0
LINE
8
Layer 1
10
857.088800
20
178.750010
11
878.566900
21
178.782310
0
LINE
8
Layer 1
10
878.566900
20
178.782310
11
888.127680
21
162.117810
0
LINE
8
Layer 1
10
888.127680
20
162.117810
11
898.701180
21
143.620510
0
LINE
8
Layer 1
10
898.701180
20
143.620510
11
898.938919
21
142.957063
0
LINE
8
Layer 1
10
898.938919
20
142.957063
11
898.924311
21
142.088564
0
LINE
8
Layer 1
10
898.924311
20
142.088564
11
898.583191
21
140.856306
0
LINE
8
Layer 1
10
898.583191
20
140.856306
11
897.841396
21
139.101582
0
LINE
8
Layer 1
10
897.841396
20
139.101582
11
894.859124
21
133.389915
0
LINE
8
Layer 1
10
894.859124
20
133.389915
11
889.384180
21
123.683910
0
LINE
8
Layer 1
10
889.384180
20
123.683910
11
879.054480
21
105.580110
0
LINE
8
Layer 1
10
879.054480
20
105.580110
11
857.332580
21
105.372840
0
LINE
8
Layer 1
10
857.332580
20
105.372840
11
835.610780
21
105.165580
0
LINE
8
Layer 1
10
835.610780
20
105.165580
11
825.591680
21
122.688380
0
LINE
8
Layer 1
10
825.591680
20
122.688380
11
825.591500
21
122.687610
0
LINE
8
Layer 1
10
966.106500
20
123.368250
11
961.096822
21
132.311341
0
LINE
8
Layer 1
10
961.096822
20
132.311341
11
958.037452
21
138.155225
0
LINE
8
Layer 1
10
958.037452
20
138.155225
11
956.610957
21
141.553847
0
LINE
8
Layer 1
10
956.610957
20
141.553847
11
956.410839
21
142.540542
0
LINE
8
Layer 1
10
956.410839
20
142.540542
11
956.499900
21
143.161150
0
LINE
8
Layer 1
10
956.499900
20
143.161150
11
966.896900
21
161.744550
0
LINE
8
Layer 1
10
966.896900
20
161.744550
11
976.544090
21
178.747150
0
LINE
8
Layer 1
10
976.544090
20
178.747150
11
998.002390
21
178.763150
0
LINE
8
Layer 1
10
998.002390
20
178.763150
11
1019.460390
21
178.779150
0
LINE
8
Layer 1
10
1019.460390
20
178.779150
11
1030.004890
21
160.230850
0
LINE
8
Layer 1
10
1030.004890
20
160.230850
11
1040.548990
21
141.682550
0
LINE
8
Layer 1
10
1040.548990
20
141.682550
11
1030.071490
21
123.418150
0
LINE
8
Layer 1
10
1030.071490
20
123.418150
11
1019.593590
21
105.153750
0
LINE
8
Layer 1
10
1019.593590
20
105.153750
11
998.031000
21
105.154000
0
LINE
8
Layer 1
10
998.031000
20
105.154000
11
976.466000
21
105.154000
0
LINE
8
Layer 1
10
976.466000
20
105.154000
11
966.109900
21
123.366000
0
LINE
8
Layer 1
10
966.109900
20
123.366000
11
966.106500
21
123.368250
0
LINE
8
Layer 1
10
1250.906500
20
122.704530
11
1243.815912
21
135.477779
0
LINE
8
Layer 1
10
1243.815912
20
135.477779
11
1241.648439
21
139.669548
0
LINE
8
Layer 1
10
1241.648439
20
139.669548
11
1240.839900
21
141.572630
0
LINE
8
Layer 1
10
1240.839900
20
141.572630
11
1241.613459
21
143.505739
0
LINE
8
Layer 1
10
1241.613459
20
143.505739
11
1243.761750
21
147.779371
0
LINE
8
Layer 1
10
1243.761750
20
147.779371
11
1250.860200
21
160.821830
0
LINE
8
Layer 1
10
1250.860200
20
160.821830
11
1260.926900
21
178.732130
0
LINE
8
Layer 1
10
1260.926900
20
178.732130
11
1282.446000
21
178.757730
0
LINE
8
Layer 1
10
1282.446000
20
178.757730
11
1303.965200
21
178.783330
0
LINE
8
Layer 1
10
1303.965200
20
178.783330
11
1314.531200
21
160.279730
0
LINE
8
Layer 1
10
1314.531200
20
160.279730
11
1325.097600
21
141.776030
0
LINE
8
Layer 1
10
1325.097600
20
141.776030
11
1314.716100
21
123.678630
0
LINE
8
Layer 1
10
1314.716100
20
123.678630
11
1304.334600
21
105.581130
0
LINE
8
Layer 1
10
1304.334600
20
105.581130
11
1282.630600
21
105.378980
0
LINE
8
Layer 1
10
1282.630600
20
105.378980
11
1260.926900
21
105.176840
0
LINE
8
Layer 1
10
1260.926900
20
105.176840
11
1250.906500
21
122.706140
0
LINE
8
Layer 1
10
1250.906500
20
122.706140
11
1250.906500
21
122.704530
0
LINE
8
Layer 1
10
690.295500
20
108.738830
11
686.541793
21
114.989588
0
LINE
8
Layer 1
10
686.541793
20
114.989588
11
679.604627
21
127.094401
0
LINE
8
Layer 1
10
679.604627
20
127.094401
11
672.921498
21
138.994804
0
LINE
8
Layer 1
10
672.921498
20
138.994804
11
669.929900
21
144.632330
0
LINE
8
Layer 1
10
669.929900
20
144.632330
11
672.902400
21
150.137459
0
LINE
8
Layer 1
10
672.902400
20
150.137459
11
679.572850
21
162.040145
0
LINE
8
Layer 1
10
679.572850
20
162.040145
11
690.525300
21
181.139630
0
LINE
8
Layer 1
10
690.525300
20
181.139630
11
692.469530
21
181.314508
0
LINE
8
Layer 1
10
692.469530
20
181.314508
11
697.361592
21
181.405127
0
LINE
8
Layer 1
10
697.361592
20
181.405127
11
712.070110
21
181.371953
0
LINE
8
Layer 1
10
712.070110
20
181.371953
11
726.812647
21
181.116835
0
LINE
8
Layer 1
10
726.812647
20
181.116835
11
731.747235
21
180.930024
0
LINE
8
Layer 1
10
731.747235
20
180.930024
11
733.751000
21
180.716500
0
LINE
8
Layer 1
10
733.751000
20
180.716500
11
737.175487
21
175.049809
0
LINE
8
Layer 1
10
737.175487
20
175.049809
11
744.524200
21
162.360200
0
LINE
8
Layer 1
10
744.524200
20
162.360200
11
754.667500
21
144.669400
0
LINE
8
Layer 1
10
754.667500
20
144.669400
11
744.254600
21
126.393800
0
LINE
8
Layer 1
10
744.254600
20
126.393800
11
733.841700
21
108.118200
0
LINE
8
Layer 1
10
733.841700
20
108.118200
11
712.486200
21
107.892710
0
LINE
8
Layer 1
10
712.486200
20
107.892710
11
702.168864
21
107.835361
0
LINE
8
Layer 1
10
702.168864
20
107.835361
11
695.462787
21
107.940561
0
LINE
8
Layer 1
10
695.462787
20
107.940561
11
691.720767
21
108.233398
0
LINE
8
Layer 1
10
691.720767
20
108.233398
11
690.759027
21
108.458020
0
LINE
8
Layer 1
10
690.759027
20
108.458020
11
690.295600
21
108.738960
0
LINE
8
Layer 1
10
690.295600
20
108.738960
11
690.295500
21
108.738830
0
LINE
8
Layer 1
10
751.077400
20
165.015630
11
740.464300
21
183.688630
0
LINE
8
Layer 1
10
740.464300
20
183.688630
11
740.221236
21
184.386311
0
LINE
8
Layer 1
10
740.221236
20
184.386311
11
740.230836
21
185.273962
0
LINE
8
Layer 1
10
740.230836
20
185.273962
11
740.573987
21
186.523394
0
LINE
8
Layer 1
10
740.573987
20
186.523394
11
741.331571
21
188.306416
0
LINE
8
Layer 1
10
741.331571
20
188.306416
11
744.413583
21
194.160477
0
LINE
8
Layer 1
10
744.413583
20
194.160477
11
750.123950
21
204.210630
0
LINE
8
Layer 1
10
750.123950
20
204.210630
11
760.792850
21
222.787630
0
LINE
8
Layer 1
10
760.792850
20
222.787630
11
781.895000
21
222.788000
0
LINE
8
Layer 1
10
781.895000
20
222.788000
11
802.993000
21
222.788000
0
LINE
8
Layer 1
10
802.993000
20
222.788000
11
813.698100
21
204.122700
0
LINE
8
Layer 1
10
813.698100
20
204.122700
11
824.403200
21
185.457500
0
LINE
8
Layer 1
10
824.403200
20
185.457500
11
813.914700
21
167.098500
0
LINE
8
Layer 1
10
813.914700
20
167.098500
11
803.426200
21
148.739600
0
LINE
8
Layer 1
10
803.426200
20
148.739600
11
782.055900
21
148.513780
0
LINE
8
Layer 1
10
782.055900
20
148.513780
11
760.685600
21
148.287970
0
LINE
8
Layer 1
10
760.685600
20
148.287970
11
751.077400
21
165.015630
0
LINE
8
Layer 1
10
808.955900
20
170.052110
11
817.751050
21
185.441110
0
LINE
8
Layer 1
10
817.751050
20
185.441110
11
808.741310
21
201.152410
0
LINE
8
Layer 1
10
808.741310
20
201.152410
11
799.731580
21
216.863610
0
LINE
8
Layer 1
10
799.731580
20
216.863610
11
781.894000
21
216.864000
0
LINE
8
Layer 1
10
781.894000
20
216.864000
11
764.052000
21
216.864000
0
LINE
8
Layer 1
10
764.052000
20
216.864000
11
755.162240
21
201.330800
0
LINE
8
Layer 1
10
755.162240
20
201.330800
11
748.883854
21
190.207673
0
LINE
8
Layer 1
10
748.883854
20
190.207673
11
746.272480
21
185.277700
0
LINE
8
Layer 1
10
746.272480
20
185.277700
11
747.468995
21
182.852033
0
LINE
8
Layer 1
10
747.468995
20
182.852033
11
750.345750
21
177.750140
0
LINE
8
Layer 1
10
750.345750
20
177.750140
11
759.212520
21
162.474940
0
LINE
8
Layer 1
10
759.212520
20
162.474940
11
764.006050
21
154.207470
0
LINE
8
Layer 1
10
764.006050
20
154.207470
11
782.085350
21
154.435520
0
LINE
8
Layer 1
10
782.085350
20
154.435520
11
800.164650
21
154.663250
0
LINE
8
Layer 1
10
800.164650
20
154.663250
11
808.955900
21
170.052110
0
LINE
8
Layer 1
10
1045.440900
20
150.220110
11
1041.043939
21
157.726924
0
LINE
8
Layer 1
10
1041.043939
20
157.726924
11
1034.374112
21
169.467286
0
LINE
8
Layer 1
10
1034.374112
20
169.467286
11
1028.281880
21
180.381285
0
LINE
8
Layer 1
10
1028.281880
20
180.381285
11
1025.617700
21
185.409010
0
LINE
8
Layer 1
10
1025.617700
20
185.409010
11
1026.027170
21
186.479114
0
LINE
8
Layer 1
10
1026.027170
20
186.479114
11
1027.891912
21
189.920086
0
LINE
8
Layer 1
10
1027.891912
20
189.920086
11
1039.805200
21
210.728310
0
LINE
8
Layer 1
10
1039.805200
20
210.728310
11
1046.745000
21
222.787610
0
LINE
8
Layer 1
10
1046.745000
20
222.787610
11
1067.849400
21
222.777610
0
LINE
8
Layer 1
10
1067.849400
20
222.777610
11
1088.953900
21
222.767610
0
LINE
8
Layer 1
10
1088.953900
20
222.767610
11
1099.632800
21
204.093510
0
LINE
8
Layer 1
10
1099.632800
20
204.093510
11
1110.311700
21
185.419410
0
LINE
8
Layer 1
10
1110.311700
20
185.419410
11
1099.747900
21
166.865010
0
LINE
8
Layer 1
10
1099.747900
20
166.865010
11
1089.183800
21
148.310510
0
LINE
8
Layer 1
10
1089.183800
20
148.310510
11
1067.910000
21
148.310000
0
LINE
8
Layer 1
10
1067.910000
20
148.310000
11
1055.641405
21
148.341158
0
LINE
8
Layer 1
10
1055.641405
20
148.341158
11
1049.187288
21
148.551761
0
LINE
8
Layer 1
10
1049.187288
20
148.551761
11
1047.493956
21
148.779260
0
LINE
8
Layer 1
10
1047.493956
20
148.779260
11
1046.478202
21
149.117507
0
LINE
8
Layer 1
10
1046.478202
20
149.117507
11
1045.881343
21
149.588463
0
LINE
8
Layer 1
10
1045.881343
20
149.588463
11
1045.444700
21
150.214090
0
LINE
8
Layer 1
10
1045.444700
20
150.214090
11
1045.440900
21
150.220110
0
LINE
8
Layer 1
10
1183.266900
20
160.361210
11
1172.627000
21
178.940010
0
LINE
8
Layer 1
10
1172.627000
20
178.940010
11
1168.902500
21
185.445360
0
LINE
8
Layer 1
10
1168.902500
20
185.445360
11
1179.598800
21
204.116460
0
LINE
8
Layer 1
10
1179.598800
20
204.116460
11
1190.295200
21
222.787660
0
LINE
8
Layer 1
10
1190.295200
20
222.787660
11
1211.440000
21
222.788000
0
LINE
8
Layer 1
10
1211.440000
20
222.788000
11
1232.570000
21
222.788000
0
LINE
8
Layer 1
10
1232.570000
20
222.788000
11
1243.267600
21
204.114500
0
LINE
8
Layer 1
10
1243.267600
20
204.114500
11
1253.965200
21
185.441100
0
LINE
8
Layer 1
10
1253.965200
20
185.441100
11
1243.494600
21
167.090300
0
LINE
8
Layer 1
10
1243.494600
20
167.090300
11
1233.024000
21
148.739500
0
LINE
8
Layer 1
10
1233.024000
20
148.739500
11
1211.604100
21
148.513690
0
LINE
8
Layer 1
10
1211.604100
20
148.513690
11
1190.184500
21
148.287880
0
LINE
8
Layer 1
10
1190.184500
20
148.287880
11
1183.266900
21
160.361210
0
LINE
8
Layer 1
10
831.549000
20
192.533000
11
819.867062
21
212.987600
0
LINE
8
Layer 1
10
819.867062
20
212.987600
11
816.348155
21
219.393162
0
LINE
8
Layer 1
10
816.348155
20
219.393162
11
815.061200
21
222.027500
0
LINE
8
Layer 1
10
815.061200
20
222.027500
11
818.095434
21
227.760719
0
LINE
8
Layer 1
10
818.095434
20
227.760719
11
825.390500
21
240.693600
0
LINE
8
Layer 1
10
825.390500
20
240.693600
11
835.719800
21
258.753500
0
LINE
8
Layer 1
10
835.719800
20
258.753500
11
857.075100
21
258.979000
0
LINE
8
Layer 1
10
857.075100
20
258.979000
11
878.430400
21
259.204490
0
LINE
8
Layer 1
10
878.430400
20
259.204490
11
889.083400
21
240.611790
0
LINE
8
Layer 1
10
889.083400
20
240.611790
11
899.736400
21
222.019090
0
LINE
8
Layer 1
10
899.736400
20
222.019090
11
889.079700
21
203.362090
0
LINE
8
Layer 1
10
889.079700
20
203.362090
11
878.422900
21
184.705090
0
LINE
8
Layer 1
10
878.422900
20
184.705090
11
857.256000
21
184.706000
0
LINE
8
Layer 1
10
857.256000
20
184.706000
11
836.089000
21
184.706000
0
LINE
8
Layer 1
10
836.089000
20
184.706000
11
831.549000
21
192.533000
0
LINE
8
Layer 1
10
966.212000
20
208.868900
11
958.991316
21
222.018441
0
LINE
8
Layer 1
10
958.991316
20
222.018441
11
956.856347
21
226.263722
0
LINE
8
Layer 1
10
956.856347
20
226.263722
11
956.145300
21
228.114000
0
LINE
8
Layer 1
10
956.145300
20
228.114000
11
959.288638
21
234.025917
0
LINE
8
Layer 1
10
959.288638
20
234.025917
11
966.466900
21
246.733900
0
LINE
8
Layer 1
10
966.466900
20
246.733900
11
976.519600
21
264.281600
0
LINE
8
Layer 1
10
976.519600
20
264.281600
11
998.220100
21
264.056430
0
LINE
8
Layer 1
10
998.220100
20
264.056430
11
1019.920300
21
263.831250
0
LINE
8
Layer 1
10
1019.920300
20
263.831250
11
1030.260600
21
245.663050
0
LINE
8
Layer 1
10
1030.260600
20
245.663050
11
1034.230436
21
238.535237
0
LINE
8
Layer 1
10
1034.230436
20
238.535237
11
1037.396113
21
232.558308
0
LINE
8
Layer 1
10
1037.396113
20
232.558308
11
1039.436958
21
228.358950
0
LINE
8
Layer 1
10
1039.436958
20
228.358950
11
1039.935359
21
227.121700
0
LINE
8
Layer 1
10
1039.935359
20
227.121700
11
1040.032300
21
226.563850
0
LINE
8
Layer 1
10
1040.032300
20
226.563850
11
1029.464700
21
208.130950
0
LINE
8
Layer 1
10
1029.464700
20
208.130950
11
1019.465300
21
190.629050
0
LINE
8
Layer 1
10
1019.465300
20
190.629050
11
998.006400
21
190.662950
0
LINE
8
Layer 1
10
998.006400
20
190.662950
11
976.547500
21
190.696850
0
LINE
8
Layer 1
10
976.547500
20
190.696850
11
966.212000
21
208.869750
0
LINE
8
Layer 1
10
966.212000
20
208.869750
11
966.212000
21
208.868900
0
LINE
8
Layer 1
10
1025.012100
20
211.997220
11
1033.869400
21
227.441620
0
LINE
8
Layer 1
10
1033.869400
20
227.441620
11
1031.214100
21
232.166410
0
LINE
8
Layer 1
10
1031.214100
20
232.166410
11
1022.266900
21
248.037410
0
LINE
8
Layer 1
10
1022.266900
20
248.037410
11
1015.975200
21
259.183610
0
LINE
8
Layer 1
10
1015.975200
20
259.183610
11
997.994700
21
258.968670
0
LINE
8
Layer 1
10
997.994700
20
258.968670
11
980.013900
21
258.753740
0
LINE
8
Layer 1
10
980.013900
20
258.753740
11
971.360070
21
243.637940
0
LINE
8
Layer 1
10
971.360070
20
243.637940
11
965.247987
21
232.701505
0
LINE
8
Layer 1
10
965.247987
20
232.701505
11
963.388753
21
229.171543
0
LINE
8
Layer 1
10
963.388753
20
229.171543
11
962.705920
21
227.633940
0
LINE
8
Layer 1
10
962.705920
20
227.633940
11
963.384408
21
226.098739
0
LINE
8
Layer 1
10
963.384408
20
226.098739
11
965.231778
21
222.575280
0
LINE
8
Layer 1
10
965.231778
20
222.575280
11
971.304580
21
211.660140
0
LINE
8
Layer 1
10
971.304580
20
211.660140
11
979.902930
21
196.574540
0
LINE
8
Layer 1
10
979.902930
20
196.574540
11
998.028630
21
196.564540
0
LINE
8
Layer 1
10
998.028630
20
196.564540
11
1016.154230
21
196.554540
0
LINE
8
Layer 1
10
1016.154230
20
196.554540
11
1025.012030
21
211.998940
0
LINE
8
Layer 1
10
1025.012030
20
211.998940
11
1025.012100
21
211.997220
0
LINE
8
Layer 1
10
1115.090400
20
192.518820
11
1104.225087
21
211.414196
0
LINE
8
Layer 1
10
1104.225087
20
211.414196
11
1095.250000
21
227.549220
0
LINE
8
Layer 1
10
1095.250000
20
227.549220
11
1097.759512
21
232.235028
0
LINE
8
Layer 1
10
1097.759512
20
232.235028
11
1103.792900
21
242.931020
0
LINE
8
Layer 1
10
1103.792900
20
242.931020
11
1114.069100
21
261.084720
0
LINE
8
Layer 1
10
1114.069100
20
261.084720
11
1115.802800
21
264.262390
0
LINE
8
Layer 1
10
1115.802800
20
264.262390
11
1137.561000
21
264.046500
0
LINE
8
Layer 1
10
1137.561000
20
264.046500
11
1159.319300
21
263.830920
0
LINE
8
Layer 1
10
1159.319300
20
263.830920
11
1169.659900
21
245.751320
0
LINE
8
Layer 1
10
1169.659900
20
245.751320
11
1180.000500
21
227.671820
0
LINE
8
Layer 1
10
1180.000500
20
227.671820
11
1169.613900
21
209.361820
0
LINE
8
Layer 1
10
1169.613900
20
209.361820
11
1159.227300
21
191.051920
0
LINE
8
Layer 1
10
1159.227300
20
191.051920
11
1137.753500
21
190.826110
0
LINE
8
Layer 1
10
1137.753500
20
190.826110
11
1116.279700
21
190.600290
0
LINE
8
Layer 1
10
1116.279700
20
190.600290
11
1115.090400
21
192.518820
0
LINE
8
Layer 1
10
530.305000
20
338.949000
11
519.582200
21
357.634500
0
LINE
8
Layer 1
10
519.582200
20
357.634500
11
513.846770
21
367.656400
0
LINE
8
Layer 1
10
513.846770
20
367.656400
11
521.696070
21
381.330000
0
LINE
8
Layer 1
10
521.696070
20
381.330000
11
532.270770
21
399.869600
0
LINE
8
Layer 1
10
532.270770
20
399.869600
11
534.996150
21
404.735640
0
LINE
8
Layer 1
10
534.996150
20
404.735640
11
556.288000
21
404.735000
0
LINE
8
Layer 1
10
556.288000
20
404.735000
11
577.579000
21
404.735000
0
LINE
8
Layer 1
10
577.579000
20
404.735000
11
582.140000
21
396.907030
0
LINE
8
Layer 1
10
582.140000
20
396.907030
11
590.362819
21
382.682027
0
LINE
8
Layer 1
10
590.362819
20
382.682027
11
595.369225
21
373.686080
0
LINE
8
Layer 1
10
595.369225
20
373.686080
11
597.777219
21
368.758658
0
LINE
8
Layer 1
10
597.777219
20
368.758658
11
598.199936
21
367.457978
0
LINE
8
Layer 1
10
598.199936
20
367.457978
11
598.204800
21
366.739230
0
LINE
8
Layer 1
10
598.204800
20
366.739230
11
594.877709
21
360.623465
0
LINE
8
Layer 1
10
594.877709
20
360.623465
11
587.591600
21
347.823430
0
LINE
8
Layer 1
10
587.591600
20
347.823430
11
577.486100
21
330.263330
0
LINE
8
Layer 1
10
577.486100
20
330.263330
11
556.389200
21
330.273330
0
LINE
8
Layer 1
10
556.389200
20
330.273330
11
535.292300
21
330.283330
0
LINE
8
Layer 1
10
535.292300
20
330.283330
11
530.305000
21
338.949000
0
LINE
8
Layer 1
10
665.481000
20
348.931570
11
654.736700
21
367.599070
0
LINE
8
Layer 1
10
654.736700
20
367.599070
11
665.356600
21
386.181470
0
LINE
8
Layer 1
10
665.356600
20
386.181470
11
675.976500
21
404.763870
0
LINE
8
Layer 1
10
675.976500
20
404.763870
11
697.385600
21
404.538050
0
LINE
8
Layer 1
10
697.385600
20
404.538050
11
718.794700
21
404.312240
0
LINE
8
Layer 1
10
718.794700
20
404.312240
11
729.178300
21
386.211240
0
LINE
8
Layer 1
10
729.178300
20
386.211240
11
736.511706
21
373.316826
0
LINE
8
Layer 1
10
736.511706
20
373.316826
11
739.561900
21
367.733840
0
LINE
8
Layer 1
10
739.561900
20
367.733840
11
736.458639
21
362.019919
0
LINE
8
Layer 1
10
736.458639
20
362.019919
11
728.997600
21
348.810640
0
LINE
8
Layer 1
10
728.997600
20
348.810640
11
718.433000
21
330.263000
0
LINE
8
Layer 1
10
718.433000
20
330.263000
11
697.329000
21
330.263000
0
LINE
8
Layer 1
10
697.329000
20
330.263000
11
676.225000
21
330.263000
0
LINE
8
Layer 1
10
676.225000
20
330.263000
11
665.481000
21
348.931570
0
LINE
8
Layer 1
10
723.972100
20
351.701590
11
730.242585
21
362.809127
0
LINE
8
Layer 1
10
730.242585
20
362.809127
11
732.850670
21
367.729390
0
LINE
8
Layer 1
10
732.850670
20
367.729390
11
730.776937
21
371.640704
0
LINE
8
Layer 1
10
730.776937
20
371.640704
11
725.944807
21
380.266419
0
LINE
8
Layer 1
10
725.944807
20
380.266419
11
716.339770
21
396.924090
0
LINE
8
Layer 1
10
716.339770
20
396.924090
11
715.918019
21
397.555292
0
LINE
8
Layer 1
10
715.918019
20
397.555292
11
715.375034
21
398.027414
0
LINE
8
Layer 1
10
715.375034
20
398.027414
11
714.488051
21
398.360048
0
LINE
8
Layer 1
10
714.488051
20
398.360048
11
713.034304
21
398.572786
0
LINE
8
Layer 1
10
713.034304
20
398.572786
11
707.535457
21
398.716948
0
LINE
8
Layer 1
10
707.535457
20
398.716948
11
697.096370
21
398.616640
0
LINE
8
Layer 1
10
697.096370
20
398.616640
11
679.018770
21
398.388580
0
LINE
8
Layer 1
10
679.018770
20
398.388580
11
670.222100
21
382.982680
0
LINE
8
Layer 1
10
670.222100
20
382.982680
11
661.425430
21
367.576780
0
LINE
8
Layer 1
10
661.425430
20
367.576780
11
670.454980
21
351.882380
0
LINE
8
Layer 1
10
670.454980
20
351.882380
11
679.484530
21
336.187980
0
LINE
8
Layer 1
10
679.484530
20
336.187980
11
697.289000
21
336.187000
0
LINE
8
Layer 1
10
697.289000
20
336.187000
11
715.093000
21
336.187000
0
LINE
8
Layer 1
10
715.093000
20
336.187000
11
723.972100
21
351.701590
0
LINE
8
Layer 1
10
751.383300
20
367.499890
11
750.233838
21
369.228712
0
LINE
8
Layer 1
10
750.233838
20
369.228712
11
747.734233
21
373.416632
0
LINE
8
Layer 1
10
747.734233
20
373.416632
11
740.540562
21
385.904603
0
LINE
8
Layer 1
10
740.540562
20
385.904603
11
733.514236
21
398.433467
0
LINE
8
Layer 1
10
733.514236
20
398.433467
11
731.223810
21
402.672504
0
LINE
8
Layer 1
10
731.223810
20
402.672504
11
730.367200
21
404.472890
0
LINE
8
Layer 1
10
730.367200
20
404.472890
11
733.412496
21
410.177728
0
LINE
8
Layer 1
10
733.412496
20
410.177728
11
740.686600
21
422.930390
0
LINE
8
Layer 1
10
740.686600
20
422.930390
11
750.972800
21
440.702090
0
LINE
8
Layer 1
10
750.972800
20
440.702090
11
772.630000
21
440.702000
0
LINE
8
Layer 1
10
772.630000
20
440.702000
11
794.287000
21
440.702000
0
LINE
8
Layer 1
10
794.287000
20
440.702000
11
804.698400
21
422.455700
0
LINE
8
Layer 1
10
804.698400
20
422.455700
11
815.109800
21
404.209500
0
LINE
8
Layer 1
10
815.109800
20
404.209500
11
804.702700
21
386.066200
0
LINE
8
Layer 1
10
804.702700
20
386.066200
11
794.295600
21
367.922900
0
LINE
8
Layer 1
10
794.295600
20
367.922900
11
773.137000
21
367.499770
0
LINE
8
Layer 1
10
773.137000
20
367.499770
11
758.018812
21
367.325132
0
LINE
8
Layer 1
10
758.018812
20
367.325132
11
753.283661
21
367.368792
0
LINE
8
Layer 1
10
753.283661
20
367.368792
11
751.382900
21
367.499770
0
LINE
8
Layer 1
10
751.382900
20
367.499770
11
751.383300
21
367.499890
0
LINE
8
Layer 1
10
790.883300
20
374.058470
11
794.081526
21
379.248123
0
LINE
8
Layer 1
10
794.081526
20
379.248123
11
800.033804
21
389.424736
0
LINE
8
Layer 1
10
800.033804
20
389.424736
11
805.777655
21
399.467117
0
LINE
8
Layer 1
10
805.777655
20
399.467117
11
808.350600
21
404.254070
0
LINE
8
Layer 1
10
808.350600
20
404.254070
11
805.692505
21
409.083886
0
LINE
8
Layer 1
10
805.692505
20
409.083886
11
799.778388
21
419.372268
0
LINE
8
Layer 1
10
799.778388
20
419.372268
11
793.698502
21
429.785475
0
LINE
8
Layer 1
10
793.698502
20
429.785475
11
790.543100
21
434.989770
0
LINE
8
Layer 1
10
790.543100
20
434.989770
11
790.106414
21
435.260479
0
LINE
8
Layer 1
10
790.106414
20
435.260479
11
789.239032
21
435.486044
0
LINE
8
Layer 1
10
789.239032
20
435.486044
11
786.019684
21
435.812900
0
LINE
8
Layer 1
10
786.019684
20
435.812900
11
780.500069
21
435.992651
0
LINE
8
Layer 1
10
780.500069
20
435.992651
11
772.295200
21
436.047610
0
LINE
8
Layer 1
10
772.295200
20
436.047610
11
754.901000
21
436.047000
0
LINE
8
Layer 1
10
754.901000
20
436.047000
11
745.973230
21
420.423600
0
LINE
8
Layer 1
10
745.973230
20
420.423600
11
739.667959
21
409.219654
0
LINE
8
Layer 1
10
739.667959
20
409.219654
11
737.045420
21
404.221800
0
LINE
8
Layer 1
10
737.045420
20
404.221800
11
739.656794
21
399.250499
0
LINE
8
Layer 1
10
739.656794
20
399.250499
11
745.935180
21
388.110200
0
LINE
8
Layer 1
10
745.935180
20
388.110200
11
754.824940
21
372.576900
0
LINE
8
Layer 1
10
754.824940
20
372.576900
11
772.230000
21
372.577000
0
LINE
8
Layer 1
10
772.230000
20
372.577000
11
781.544481
21
372.622449
0
LINE
8
Layer 1
10
781.544481
20
372.622449
11
786.966875
21
372.821610
0
LINE
8
Layer 1
10
786.966875
20
372.821610
11
788.589484
21
373.008277
0
LINE
8
Layer 1
10
788.589484
20
373.008277
11
789.684206
21
373.268706
0
LINE
8
Layer 1
10
789.684206
20
373.268706
11
790.399419
21
373.614675
0
LINE
8
Layer 1
10
790.399419
20
373.614675
11
790.883500
21
374.057960
0
LINE
8
Layer 1
10
790.883500
20
374.057960
11
790.883300
21
374.058470
0
LINE
8
Layer 1
10
464.115300
20
373.621110
11
453.544461
21
392.027375
0
LINE
8
Layer 1
10
453.544461
20
392.027375
11
444.273500
21
408.520510
0
LINE
8
Layer 1
10
444.273500
20
408.520510
11
454.657600
21
426.832410
0
LINE
8
Layer 1
10
454.657600
20
426.832410
11
465.041600
21
444.933410
0
LINE
8
Layer 1
10
465.041600
20
444.933410
11
486.691000
21
444.933000
0
LINE
8
Layer 1
10
486.691000
20
444.933000
11
508.341000
21
444.933000
0
LINE
8
Layer 1
10
508.341000
20
444.933000
11
518.670700
21
426.873100
0
LINE
8
Layer 1
10
518.670700
20
426.873100
11
525.953012
21
413.954378
0
LINE
8
Layer 1
10
525.953012
20
413.954378
11
528.955900
21
408.255200
0
LINE
8
Layer 1
10
528.955900
20
408.255200
11
525.913733
21
402.640617
0
LINE
8
Layer 1
10
525.913733
20
402.640617
11
518.663300
21
389.925500
0
LINE
8
Layer 1
10
518.663300
20
389.925500
11
508.415300
21
372.153800
0
LINE
8
Layer 1
10
508.415300
20
372.153800
11
486.858700
21
371.927990
0
LINE
8
Layer 1
10
486.858700
20
371.927990
11
465.302100
21
371.702180
0
LINE
8
Layer 1
10
465.302100
20
371.702180
11
464.115300
21
373.621110
0
LINE
8
Layer 1
10
513.494700
20
392.625010
11
518.552253
21
401.583773
0
LINE
8
Layer 1
10
518.552253
20
401.583773
11
521.106374
21
406.572410
0
LINE
8
Layer 1
10
521.106374
20
406.572410
11
521.647493
21
408.045744
0
LINE
8
Layer 1
10
521.647493
20
408.045744
11
521.806170
21
409.087922
0
LINE
8
Layer 1
10
521.806170
20
409.087922
11
521.663543
21
409.886069
0
LINE
8
Layer 1
10
521.663543
20
409.886069
11
521.300750
21
410.627310
0
LINE
8
Layer 1
10
521.300750
20
410.627310
11
512.202050
21
426.527110
0
LINE
8
Layer 1
10
512.202050
20
426.527110
11
504.338800
21
440.279010
0
LINE
8
Layer 1
10
504.338800
20
440.279010
11
486.679700
21
440.273010
0
LINE
8
Layer 1
10
486.679700
20
440.273010
11
469.020600
21
440.267010
0
LINE
8
Layer 1
10
469.020600
20
440.267010
11
460.212260
21
424.913010
0
LINE
8
Layer 1
10
460.212260
20
424.913010
11
451.148750
21
408.913110
0
LINE
8
Layer 1
10
451.148750
20
408.913110
11
451.761124
21
407.425301
0
LINE
8
Layer 1
10
451.761124
20
407.425301
11
453.617247
21
403.851862
0
LINE
8
Layer 1
10
453.617247
20
403.851862
11
459.910610
21
392.590410
0
LINE
8
Layer 1
10
459.910610
20
392.590410
11
468.927660
21
376.913810
0
LINE
8
Layer 1
10
468.927660
20
376.913810
11
486.690360
21
376.841510
0
LINE
8
Layer 1
10
486.690360
20
376.841510
11
504.453060
21
376.769210
0
LINE
8
Layer 1
10
504.453060
20
376.769210
11
513.494530
21
392.623510
0
LINE
8
Layer 1
10
513.494530
20
392.623510
11
513.494700
21
392.625010
0
LINE
8
Layer 1
10
524.467500
20
430.829610
11
513.891500
21
449.335310
0
LINE
8
Layer 1
10
513.891500
20
449.335310
11
524.279900
21
467.444810
0
LINE
8
Layer 1
10
524.279900
20
467.444810
11
534.668300
21
485.554310
0
LINE
8
Layer 1
10
534.668300
20
485.554310
11
556.372200
21
485.760930
0
LINE
8
Layer 1
10
556.372200
20
485.760930
11
578.076100
21
485.967550
0
LINE
8
Layer 1
10
578.076100
20
485.967550
11
588.352500
21
467.884650
0
LINE
8
Layer 1
10
588.352500
20
467.884650
11
595.598316
21
454.895801
0
LINE
8
Layer 1
10
595.598316
20
454.895801
11
597.793262
21
450.775013
0
LINE
8
Layer 1
10
597.793262
20
450.775013
11
598.588400
21
449.060250
0
LINE
8
Layer 1
10
598.588400
20
449.060250
11
595.539702
21
443.316065
0
LINE
8
Layer 1
10
595.539702
20
443.316065
11
588.266600
21
430.547050
0
LINE
8
Layer 1
10
588.266600
20
430.547050
11
577.985300
21
412.775450
0
LINE
8
Layer 1
10
577.985300
20
412.775450
11
556.514400
21
412.549640
0
LINE
8
Layer 1
10
556.514400
20
412.549640
11
535.043500
21
412.323820
0
LINE
8
Layer 1
10
535.043500
20
412.323820
11
524.467500
21
430.829610
0
LINE
8
Layer 1
10
673.825500
20
415.934610
11
663.251000
21
434.340510
0
LINE
8
Layer 1
10
663.251000
20
434.340510
11
654.744980
21
449.135610
0
LINE
8
Layer 1
10
654.744980
20
449.135610
11
656.407960
21
452.112190
0
LINE
8
Layer 1
10
656.407960
20
452.112190
11
666.818860
21
470.321590
0
LINE
8
Layer 1
10
666.818860
20
470.321590
11
675.566830
21
485.554390
0
LINE
8
Layer 1
10
675.566830
20
485.554390
11
697.288130
21
485.747900
0
LINE
8
Layer 1
10
697.288130
20
485.747900
11
719.009430
21
485.941410
0
LINE
8
Layer 1
10
719.009430
20
485.941410
11
729.364230
21
467.662910
0
LINE
8
Layer 1
10
729.364230
20
467.662910
11
739.719030
21
449.384410
0
LINE
8
Layer 1
10
739.719030
20
449.384410
11
737.603540
21
445.466350
0
LINE
8
Layer 1
10
737.603540
20
445.466350
11
727.202040
21
427.161750
0
LINE
8
Layer 1
10
727.202040
20
427.161750
11
718.915960
21
412.775150
0
LINE
8
Layer 1
10
718.915960
20
412.775150
11
697.404960
21
412.549340
0
LINE
8
Layer 1
10
697.404960
20
412.549340
11
675.893960
21
412.323520
0
LINE
8
Layer 1
10
675.893960
20
412.323520
11
673.825500
21
415.934610
0
LINE
8
Layer 1
10
811.916500
20
430.481810
11
804.658800
21
443.464738
0
LINE
8
Layer 1
10
804.658800
20
443.464738
11
801.640100
21
449.246510
0
LINE
8
Layer 1
10
801.640100
20
449.246510
11
804.651766
21
455.007061
0
LINE
8
Layer 1
10
804.651766
20
455.007061
11
811.892600
21
467.938910
0
LINE
8
Layer 1
10
811.892600
20
467.938910
11
822.145000
21
485.977510
0
LINE
8
Layer 1
10
822.145000
20
485.977510
11
843.701000
21
485.977000
0
LINE
8
Layer 1
10
843.701000
20
485.977000
11
865.257000
21
485.977000
0
LINE
8
Layer 1
10
865.257000
20
485.977000
11
875.532300
21
468.012100
0
LINE
8
Layer 1
10
875.532300
20
468.012100
11
882.784664
21
455.070400
0
LINE
8
Layer 1
10
882.784664
20
455.070400
11
884.987358
21
450.935837
0
LINE
8
Layer 1
10
884.987358
20
450.935837
11
885.792200
21
449.182600
0
LINE
8
Layer 1
10
885.792200
20
449.182600
11
885.090505
21
447.644936
0
LINE
8
Layer 1
10
885.090505
20
447.644936
11
883.193162
21
444.097352
0
LINE
8
Layer 1
10
883.193162
20
444.097352
11
876.967980
21
433.085200
0
LINE
8
Layer 1
10
876.967980
20
433.085200
11
866.755280
21
415.102000
0
LINE
8
Layer 1
10
866.755280
20
415.102000
11
865.351460
21
412.351610
0
LINE
8
Layer 1
10
865.351460
20
412.351610
11
843.771660
21
412.361610
0
LINE
8
Layer 1
10
843.771660
20
412.361610
11
822.191860
21
412.371610
0
LINE
8
Layer 1
10
822.191860
20
412.371610
11
811.915460
21
430.482610
0
LINE
8
Layer 1
10
811.915460
20
430.482610
11
811.916500
21
430.481810
0
LINE
8
Layer 1
10
747.856000
20
454.877000
11
737.287700
21
473.188800
0
LINE
8
Layer 1
10
737.287700
20
473.188800
11
734.587547
21
478.008803
0
LINE
8
Layer 1
10
734.587547
20
478.008803
11
732.443082
21
482.131400
0
LINE
8
Layer 1
10
732.443082
20
482.131400
11
731.070874
21
485.118722
0
LINE
8
Layer 1
10
731.070874
20
485.118722
11
730.742043
21
486.049821
0
LINE
8
Layer 1
10
730.742043
20
486.049821
11
730.687490
21
486.532900
0
LINE
8
Layer 1
10
730.687490
20
486.532900
11
733.984553
21
492.573516
0
LINE
8
Layer 1
10
733.984553
20
492.573516
11
741.287590
21
505.456900
0
LINE
8
Layer 1
10
741.287590
20
505.456900
11
751.443490
21
523.213100
0
LINE
8
Layer 1
10
751.443490
20
523.213100
11
772.581000
21
523.213000
0
LINE
8
Layer 1
10
772.581000
20
523.213000
11
793.719000
21
523.213000
0
LINE
8
Layer 1
10
793.719000
20
523.213000
11
804.425000
21
504.527700
0
LINE
8
Layer 1
10
804.425000
20
504.527700
11
815.131000
21
485.842400
0
LINE
8
Layer 1
10
815.131000
20
485.842400
11
804.499000
21
467.291900
0
LINE
8
Layer 1
10
804.499000
20
467.291900
11
793.867000
21
448.741400
0
LINE
8
Layer 1
10
793.867000
20
448.741400
11
772.623000
21
448.741000
0
LINE
8
Layer 1
10
772.623000
20
448.741000
11
751.380000
21
448.741000
0
LINE
8
Layer 1
10
751.380000
20
448.741000
11
747.856000
21
454.877000
0
LINE
8
Layer 1
10
799.514600
20
470.293100
11
808.458380
21
485.920800
0
LINE
8
Layer 1
10
808.458380
20
485.920800
11
799.425470
21
501.621100
0
LINE
8
Layer 1
10
799.425470
20
501.621100
11
790.392560
21
517.321400
0
LINE
8
Layer 1
10
790.392560
20
517.321400
11
772.420160
21
517.093670
0
LINE
8
Layer 1
10
772.420160
20
517.093670
11
754.447760
21
516.866250
0
LINE
8
Layer 1
10
754.447760
20
516.866250
11
745.767030
21
501.633350
0
LINE
8
Layer 1
10
745.767030
20
501.633350
11
739.630191
21
490.708335
0
LINE
8
Layer 1
10
739.630191
20
490.708335
11
737.065580
21
485.832550
0
LINE
8
Layer 1
10
737.065580
20
485.832550
11
738.318492
21
483.236603
0
LINE
8
Layer 1
10
738.318492
20
483.236603
11
741.361610
21
477.792980
0
LINE
8
Layer 1
10
741.361610
20
477.792980
11
749.000600
21
464.397480
0
LINE
8
Layer 1
10
749.000600
20
464.397480
11
752.407383
21
458.243557
0
LINE
8
Layer 1
10
752.407383
20
458.243557
11
753.776913
21
456.491848
0
LINE
8
Layer 1
10
753.776913
20
456.491848
11
754.546099
21
455.878177
0
LINE
8
Layer 1
10
754.546099
20
455.878177
11
755.435521
21
455.412960
0
LINE
8
Layer 1
10
755.435521
20
455.412960
11
756.493148
21
455.076445
0
LINE
8
Layer 1
10
756.493148
20
455.076445
11
757.766945
21
454.848881
0
LINE
8
Layer 1
10
757.766945
20
454.848881
11
761.154924
21
454.641601
0
LINE
8
Layer 1
10
761.154924
20
454.641601
11
772.635500
21
454.665390
0
LINE
8
Layer 1
10
772.635500
20
454.665390
11
790.571000
21
454.665000
0
LINE
8
Layer 1
10
790.571000
20
454.665000
11
799.514600
21
470.293100
0
LINE
8
Layer 1
10
462.024600
20
460.363560
11
449.469284
21
482.185547
0
LINE
8
Layer 1
10
449.469284
20
482.185547
11
444.273200
21
491.433560
0
LINE
8
Layer 1
10
444.273200
20
491.433560
11
454.657300
21
509.766560
0
LINE
8
Layer 1
10
454.657300
20
509.766560
11
465.041300
21
527.867560
0
LINE
8
Layer 1
10
465.041300
20
527.867560
11
486.686000
21
527.867000
0
LINE
8
Layer 1
10
486.686000
20
527.867000
11
508.331000
21
527.867000
0
LINE
8
Layer 1
10
508.331000
20
527.867000
11
518.614000
21
510.095400
0
LINE
8
Layer 1
10
518.614000
20
510.095400
11
525.876369
21
497.295609
0
LINE
8
Layer 1
10
525.876369
20
497.295609
11
528.085607
21
493.208403
0
LINE
8
Layer 1
10
528.085607
20
493.208403
11
528.897000
21
491.477500
0
LINE
8
Layer 1
10
528.897000
20
491.477500
11
528.085644
21
489.746601
0
LINE
8
Layer 1
10
528.085644
20
489.746601
11
525.876510
21
485.659387
0
LINE
8
Layer 1
10
525.876510
20
485.659387
11
518.614500
21
472.859600
0
LINE
8
Layer 1
10
518.614500
20
472.859600
11
508.332000
21
455.088000
0
LINE
8
Layer 1
10
508.332000
20
455.088000
11
486.834000
21
454.862190
0
LINE
8
Layer 1
10
486.834000
20
454.862190
11
465.336000
21
454.636380
0
LINE
8
Layer 1
10
465.336000
20
454.636380
11
462.024600
21
460.363560
0
LINE
8
Layer 1
10
513.312200
20
475.358760
11
519.652560
21
486.542770
0
LINE
8
Layer 1
10
519.652560
20
486.542770
11
522.289690
21
491.503460
0
LINE
8
Layer 1
10
522.289690
20
491.503460
11
519.654844
21
496.456760
0
LINE
8
Layer 1
10
519.654844
20
496.456760
11
513.320030
21
507.622760
0
LINE
8
Layer 1
10
513.320030
20
507.622760
11
504.350370
21
523.213160
0
LINE
8
Layer 1
10
504.350370
20
523.213160
11
487.025000
21
523.213000
0
LINE
8
Layer 1
10
487.025000
20
523.213000
11
477.756819
21
523.167460
0
LINE
8
Layer 1
10
477.756819
20
523.167460
11
472.356050
21
522.968145
0
LINE
8
Layer 1
10
472.356050
20
522.968145
11
470.737262
21
522.781435
0
LINE
8
Layer 1
10
470.737262
20
522.781435
11
469.642906
21
522.521015
0
LINE
8
Layer 1
10
469.642906
20
522.521015
11
468.925510
21
522.175132
0
LINE
8
Layer 1
10
468.925510
20
522.175132
11
468.437600
21
521.732030
0
LINE
8
Layer 1
10
468.437600
20
521.732030
11
465.212145
21
516.513422
0
LINE
8
Layer 1
10
465.212145
20
516.513422
11
459.267912
21
506.334356
0
LINE
8
Layer 1
10
459.267912
20
506.334356
11
453.545173
21
496.291177
0
LINE
8
Layer 1
10
453.545173
20
496.291177
11
450.984200
21
491.480230
0
LINE
8
Layer 1
10
450.984200
20
491.480230
11
453.547358
21
486.677747
0
LINE
8
Layer 1
10
453.547358
20
486.677747
11
459.274887
21
476.635759
0
LINE
8
Layer 1
10
459.274887
20
476.635759
11
465.223873
21
466.451906
0
LINE
8
Layer 1
10
465.223873
20
466.451906
11
468.451400
21
461.223830
0
LINE
8
Layer 1
10
468.451400
20
461.223830
11
468.935045
21
460.780653
0
LINE
8
Layer 1
10
468.935045
20
460.780653
11
469.648602
21
460.434735
0
LINE
8
Layer 1
10
469.648602
20
460.434735
11
470.739554
21
460.174311
0
LINE
8
Layer 1
10
470.739554
20
460.174311
11
472.355386
21
459.987617
0
LINE
8
Layer 1
10
472.355386
20
459.987617
11
477.751627
21
459.788364
0
LINE
8
Layer 1
10
477.751627
20
459.788364
11
487.017200
21
459.742860
0
LINE
8
Layer 1
10
487.017200
20
459.742860
11
504.335000
21
459.743000
0
LINE
8
Layer 1
10
504.335000
20
459.743000
11
513.312200
21
475.358760
0
LINE
8
Layer 1
10
597.370200
20
469.669980
11
587.007100
21
488.158680
0
LINE
8
Layer 1
10
587.007100
20
488.158680
11
585.032860
21
491.701910
0
LINE
8
Layer 1
10
585.032860
20
491.701910
11
594.456580
21
508.092210
0
LINE
8
Layer 1
10
594.456580
20
508.092210
11
605.057980
21
526.400910
0
LINE
8
Layer 1
10
605.057980
20
526.400910
11
606.235670
21
528.319240
0
LINE
8
Layer 1
10
606.235670
20
528.319240
11
627.710870
21
528.093420
0
LINE
8
Layer 1
10
627.710870
20
528.093420
11
649.186070
21
527.867610
0
LINE
8
Layer 1
10
649.186070
20
527.867610
11
657.717580
21
513.057910
0
LINE
8
Layer 1
10
657.717580
20
513.057910
11
668.150580
21
494.823010
0
LINE
8
Layer 1
10
668.150580
20
494.823010
11
670.052050
21
491.397770
0
LINE
8
Layer 1
10
670.052050
20
491.397770
11
659.600850
21
473.243170
0
LINE
8
Layer 1
10
659.600850
20
473.243170
11
649.149650
21
455.088570
0
LINE
8
Layer 1
10
649.149650
20
455.088570
11
627.454450
21
454.906580
0
LINE
8
Layer 1
10
627.454450
20
454.906580
11
605.759250
21
454.724580
0
LINE
8
Layer 1
10
605.759250
20
454.724580
11
597.370200
21
469.669980
0
LINE
8
Layer 1
10
645.755600
20
461.224000
11
648.982079
21
466.450641
0
LINE
8
Layer 1
10
648.982079
20
466.450641
11
654.931218
21
476.634220
0
LINE
8
Layer 1
10
654.931218
20
476.634220
11
660.659372
21
486.676214
0
LINE
8
Layer 1
10
660.659372
20
486.676214
11
663.222900
21
491.478100
0
LINE
8
Layer 1
10
663.222900
20
491.478100
11
660.659375
21
496.279985
0
LINE
8
Layer 1
10
660.659375
20
496.279985
11
654.931225
21
506.321984
0
LINE
8
Layer 1
10
654.931225
20
506.321984
11
648.982088
21
516.505566
0
LINE
8
Layer 1
10
648.982088
20
516.505566
11
645.755600
21
521.732200
0
LINE
8
Layer 1
10
645.755600
20
521.732200
11
645.273923
21
522.174808
0
LINE
8
Layer 1
10
645.273923
20
522.174808
11
644.567596
21
522.520460
0
LINE
8
Layer 1
10
644.567596
20
522.520460
11
643.493014
21
522.780849
0
LINE
8
Layer 1
10
643.493014
20
522.780849
11
641.906572
21
522.967670
0
LINE
8
Layer 1
10
641.906572
20
522.967670
11
636.623688
21
523.167388
0
LINE
8
Layer 1
10
636.623688
20
523.167388
11
627.570100
21
523.213170
0
LINE
8
Layer 1
10
627.570100
20
523.213170
11
618.519550
21
523.167270
0
LINE
8
Layer 1
10
618.519550
20
523.167270
11
613.232875
21
522.967355
0
LINE
8
Layer 1
10
613.232875
20
522.967355
11
611.642362
21
522.780480
0
LINE
8
Layer 1
10
611.642362
20
522.780480
11
610.562462
21
522.520105
0
LINE
8
Layer 1
10
610.562462
20
522.520105
11
609.849726
21
522.174567
0
LINE
8
Layer 1
10
609.849726
20
522.174567
11
609.360700
21
521.732200
0
LINE
8
Layer 1
10
609.360700
20
521.732200
11
606.068844
21
516.462257
0
LINE
8
Layer 1
10
606.068844
20
516.462257
11
600.135600
21
506.334967
0
LINE
8
Layer 1
10
600.135600
20
506.334967
11
594.454056
21
496.358019
0
LINE
8
Layer 1
10
594.454056
20
496.358019
11
591.917300
21
491.539100
0
LINE
8
Layer 1
10
591.917300
20
491.539100
11
592.655409
21
489.973659
0
LINE
8
Layer 1
10
592.655409
20
489.973659
11
594.608645
21
486.387380
0
LINE
8
Layer 1
10
594.608645
20
486.387380
11
600.593962
21
475.863635
0
LINE
8
Layer 1
10
600.593962
20
475.863635
11
606.740173
21
465.390523
0
LINE
8
Layer 1
10
606.740173
20
465.390523
11
609.914200
21
460.390700
0
LINE
8
Layer 1
10
609.914200
20
460.390700
11
611.585310
21
460.148269
0
LINE
8
Layer 1
10
611.585310
20
460.148269
11
615.486249
21
459.947788
0
LINE
8
Layer 1
10
615.486249
20
459.947788
11
627.649800
21
459.755990
0
LINE
8
Layer 1
10
627.649800
20
459.755990
11
636.662928
21
459.794263
0
LINE
8
Layer 1
10
636.662928
20
459.794263
11
641.921425
21
459.989985
0
LINE
8
Layer 1
10
641.921425
20
459.989985
11
643.500583
21
460.175813
0
LINE
8
Layer 1
10
643.500583
20
460.175813
11
644.570559
21
460.435712
0
LINE
8
Layer 1
10
644.570559
20
460.435712
11
645.274512
21
460.781251
0
LINE
8
Layer 1
10
645.274512
20
460.781251
11
645.755600
21
461.224000
0
LINE
8
Layer 1
10
645.755600
20
461.224000
11
645.755600
21
461.224000
0
LINE
8
Layer 1
10
1454.909600
20
460.377740
11
1444.297600
21
478.936640
0
LINE
8
Layer 1
10
1444.297600
20
478.936640
11
1436.505800
21
492.629540
0
LINE
8
Layer 1
10
1436.505800
20
492.629540
11
1447.205600
21
511.306440
0
LINE
8
Layer 1
10
1447.205600
20
511.306440
11
1457.905200
21
529.983340
0
LINE
8
Layer 1
10
1457.905200
20
529.983340
11
1478.980000
21
529.983000
0
LINE
8
Layer 1
10
1478.980000
20
529.983000
11
1500.060000
21
529.983000
0
LINE
8
Layer 1
10
1500.060000
20
529.983000
11
1510.778200
21
511.354900
0
LINE
8
Layer 1
10
1510.778200
20
511.354900
11
1518.251100
21
498.015387
0
LINE
8
Layer 1
10
1518.251100
20
498.015387
11
1520.448981
21
493.814673
0
LINE
8
Layer 1
10
1520.448981
20
493.814673
11
1521.166700
21
492.102300
0
LINE
8
Layer 1
10
1521.166700
20
492.102300
11
1510.555600
21
473.494500
0
LINE
8
Layer 1
10
1510.555600
20
473.494500
11
1500.274700
21
455.511300
0
LINE
8
Layer 1
10
1500.274700
20
455.511300
11
1479.000000
21
455.511000
0
LINE
8
Layer 1
10
1479.000000
20
455.511000
11
1457.730000
21
455.511000
0
LINE
8
Layer 1
10
1457.730000
20
455.511000
11
1454.909600
21
460.377740
0
LINE
8
Layer 1
10
1234.057600
20
512.768940
11
1226.887350
21
525.456393
0
LINE
8
Layer 1
10
1226.887350
20
525.456393
11
1223.744000
21
531.410240
0
LINE
8
Layer 1
10
1223.744000
20
531.410240
11
1224.083388
21
532.642880
0
LINE
8
Layer 1
10
1224.083388
20
532.642880
11
1225.211925
21
535.142599
0
LINE
8
Layer 1
10
1225.211925
20
535.142599
11
1229.128900
21
542.489140
0
LINE
8
Layer 1
10
1229.128900
20
542.489140
11
1239.471400
21
560.651840
0
LINE
8
Layer 1
10
1239.471400
20
560.651840
11
1244.153100
21
568.894260
0
LINE
8
Layer 1
10
1244.153100
20
568.894260
11
1265.576500
21
568.904260
0
LINE
8
Layer 1
10
1265.576500
20
568.904260
11
1287.000300
21
568.914260
0
LINE
8
Layer 1
10
1287.000300
20
568.914260
11
1297.454400
21
550.594760
0
LINE
8
Layer 1
10
1297.454400
20
550.594760
11
1304.783625
21
537.467523
0
LINE
8
Layer 1
10
1304.783625
20
537.467523
11
1306.971112
21
533.327008
0
LINE
8
Layer 1
10
1306.971112
20
533.327008
11
1307.724600
21
531.631560
0
LINE
8
Layer 1
10
1307.724600
20
531.631560
11
1297.368100
21
513.138360
0
LINE
8
Layer 1
10
1297.368100
20
513.138360
11
1287.195900
21
495.288860
0
LINE
8
Layer 1
10
1287.195900
20
495.288860
11
1265.650000
21
495.289000
0
LINE
8
Layer 1
10
1265.650000
20
495.289000
11
1244.090000
21
495.289000
0
LINE
8
Layer 1
10
1244.090000
20
495.289000
11
1234.057600
21
512.768940
0
LINE
8
Layer 1
10
1383.112600
20
500.998640
11
1372.591900
21
519.321240
0
LINE
8
Layer 1
10
1372.591900
20
519.321240
11
1365.377200
21
531.931640
0
LINE
8
Layer 1
10
1365.377200
20
531.931640
11
1375.773900
21
550.210040
0
LINE
8
Layer 1
10
1375.773900
20
550.210040
11
1386.170900
21
568.488540
0
LINE
8
Layer 1
10
1386.170900
20
568.488540
11
1407.790000
21
568.488000
0
LINE
8
Layer 1
10
1407.790000
20
568.488000
11
1429.420000
21
568.488000
0
LINE
8
Layer 1
10
1429.420000
20
568.488000
11
1439.721000
21
550.716400
0
LINE
8
Layer 1
10
1439.721000
20
550.716400
11
1447.008337
21
537.941321
0
LINE
8
Layer 1
10
1447.008337
20
537.941321
11
1450.062900
21
532.182800
0
LINE
8
Layer 1
10
1450.062900
20
532.182800
11
1449.271880
21
530.463414
0
LINE
8
Layer 1
10
1449.271880
20
530.463414
11
1447.076512
21
526.345251
0
LINE
8
Layer 1
10
1447.076512
20
526.345251
11
1439.826900
21
513.380400
0
LINE
8
Layer 1
10
1439.826900
20
513.380400
11
1429.550700
21
495.340000
0
LINE
8
Layer 1
10
1429.550700
20
495.340000
11
1407.986200
21
495.314400
0
LINE
8
Layer 1
10
1407.986200
20
495.314400
11
1386.422000
21
495.288800
0
LINE
8
Layer 1
10
1386.422000
20
495.288800
11
1383.116000
21
501.001120
0
LINE
8
Layer 1
10
1383.116000
20
501.001120
11
1383.112600
21
500.998640
0
LINE
8
Layer 1
10
1434.584400
20
516.007140
11
1440.823950
21
527.291250
0
LINE
8
Layer 1
10
1440.823950
20
527.291250
11
1442.657203
21
530.907647
0
LINE
8
Layer 1
10
1442.657203
20
530.907647
11
1443.253500
21
532.454040
0
LINE
8
Layer 1
10
1443.253500
20
532.454040
11
1434.580600
21
548.104540
0
LINE
8
Layer 1
10
1434.580600
20
548.104540
11
1426.191800
21
562.951440
0
LINE
8
Layer 1
10
1426.191800
20
562.951440
11
1407.847000
21
562.757930
0
LINE
8
Layer 1
10
1407.847000
20
562.757930
11
1389.502000
21
562.564420
0
LINE
8
Layer 1
10
1389.502000
20
562.564420
11
1380.763800
21
547.244220
0
LINE
8
Layer 1
10
1380.763800
20
547.244220
11
1372.025300
21
531.924020
0
LINE
8
Layer 1
10
1372.025300
20
531.924020
11
1381.056100
21
516.143820
0
LINE
8
Layer 1
10
1381.056100
20
516.143820
11
1390.086900
21
500.363620
0
LINE
8
Layer 1
10
1390.086900
20
500.363620
11
1407.860000
21
500.363000
0
LINE
8
Layer 1
10
1407.860000
20
500.363000
11
1425.630000
21
500.363000
0
LINE
8
Layer 1
10
1425.630000
20
500.363000
11
1434.584400
21
516.007140
0
LINE
8
Layer 1
10
1028.685400
20
538.643140
11
1023.839159
21
546.906110
0
LINE
8
Layer 1
10
1023.839159
20
546.906110
11
1017.213150
21
558.629866
0
LINE
8
Layer 1
10
1017.213150
20
558.629866
11
1011.363241
21
569.239184
0
LINE
8
Layer 1
10
1011.363241
20
569.239184
11
1008.845300
21
574.158840
0
LINE
8
Layer 1
10
1008.845300
20
574.158840
11
1009.656173
21
575.930626
0
LINE
8
Layer 1
10
1009.656173
20
575.930626
11
1011.863987
21
580.096445
0
LINE
8
Layer 1
10
1011.863987
20
580.096445
11
1019.121600
21
593.121340
0
LINE
8
Layer 1
10
1019.121600
20
593.121340
11
1029.398100
21
611.193240
0
LINE
8
Layer 1
10
1029.398100
20
611.193240
11
1050.789500
21
611.203240
0
LINE
8
Layer 1
10
1050.789500
20
611.203240
11
1072.181200
21
611.213240
0
LINE
8
Layer 1
10
1072.181200
20
611.213240
11
1073.975500
21
608.046250
0
LINE
8
Layer 1
10
1073.975500
20
608.046250
11
1084.594500
21
589.476250
0
LINE
8
Layer 1
10
1084.594500
20
589.476250
11
1093.419500
21
574.073150
0
LINE
8
Layer 1
10
1093.419500
20
574.073150
11
1082.778300
21
555.625450
0
LINE
8
Layer 1
10
1082.778300
20
555.625450
11
1072.137200
21
537.177750
0
LINE
8
Layer 1
10
1072.137200
20
537.177750
11
1051.006100
21
536.951620
0
LINE
8
Layer 1
10
1051.006100
20
536.951620
11
1029.875000
21
536.725490
0
LINE
8
Layer 1
10
1029.875000
20
536.725490
11
1028.685400
21
538.643140
0
LINE
8
Layer 1
10
1304.972400
20
556.812640
11
1297.644025
21
570.039915
0
LINE
8
Layer 1
10
1297.644025
20
570.039915
11
1295.474925
21
574.267156
0
LINE
8
Layer 1
10
1295.474925
20
574.267156
11
1294.749800
21
576.061340
0
LINE
8
Layer 1
10
1294.749800
20
576.061340
11
1297.939237
21
581.968340
0
LINE
8
Layer 1
10
1297.939237
20
581.968340
11
1305.235900
21
594.920540
0
LINE
8
Layer 1
10
1305.235900
20
594.920540
11
1315.458500
21
612.889840
0
LINE
8
Layer 1
10
1315.458500
20
612.889840
11
1336.810900
21
612.692180
0
LINE
8
Layer 1
10
1336.810900
20
612.692180
11
1358.163000
21
612.494510
0
LINE
8
Layer 1
10
1358.163000
20
612.494510
11
1363.729300
21
602.762420
0
LINE
8
Layer 1
10
1363.729300
20
602.762420
11
1374.092100
21
584.704120
0
LINE
8
Layer 1
10
1374.092100
20
584.704120
11
1377.404338
21
578.489371
0
LINE
8
Layer 1
10
1377.404338
20
578.489371
11
1378.353136
21
576.338605
0
LINE
8
Layer 1
10
1378.353136
20
576.338605
11
1378.631800
21
575.239650
0
LINE
8
Layer 1
10
1378.631800
20
575.239650
11
1375.492837
21
569.208202
0
LINE
8
Layer 1
10
1375.492837
20
569.208202
11
1368.308300
21
556.305450
0
LINE
8
Layer 1
10
1368.308300
20
556.305450
11
1358.241600
21
538.509550
0
LINE
8
Layer 1
10
1358.241600
20
538.509550
11
1336.849900
21
538.480750
0
LINE
8
Layer 1
10
1336.849900
20
538.480750
11
1315.458500
21
538.451950
0
LINE
8
Layer 1
10
1315.458500
20
538.451950
11
1304.972400
21
556.812640
0
LINE
8
Layer 1
10
1454.453400
20
544.144240
11
1443.826200
21
562.761140
0
LINE
8
Layer 1
10
1443.826200
20
562.761140
11
1436.485300
21
575.651540
0
LINE
8
Layer 1
10
1436.485300
20
575.651540
11
1447.173700
21
594.284740
0
LINE
8
Layer 1
10
1447.173700
20
594.284740
11
1457.861800
21
612.917840
0
LINE
8
Layer 1
10
1457.861800
20
612.917840
11
1479.030000
21
612.917000
0
LINE
8
Layer 1
10
1479.030000
20
612.917000
11
1500.200000
21
612.917000
0
LINE
8
Layer 1
10
1500.200000
20
612.917000
11
1510.844000
21
594.259500
0
LINE
8
Layer 1
10
1510.844000
20
594.259500
11
1521.488300
21
575.602000
0
LINE
8
Layer 1
10
1521.488300
20
575.602000
11
1511.031700
21
557.235200
0
LINE
8
Layer 1
10
1511.031700
20
557.235200
11
1500.575400
21
538.868500
0
LINE
8
Layer 1
10
1500.575400
20
538.868500
11
1479.156100
21
538.642690
0
LINE
8
Layer 1
10
1479.156100
20
538.642690
11
1457.737100
21
538.416870
0
LINE
8
Layer 1
10
1457.737100
20
538.416870
11
1454.453400
21
544.144240
0
LINE
8
Layer 1
10
534.567000
20
580.110000
11
524.003300
21
598.508300
0
LINE
8
Layer 1
10
524.003300
20
598.508300
11
514.641120
21
614.988200
0
LINE
8
Layer 1
10
514.641120
20
614.988200
11
516.308380
21
617.972460
0
LINE
8
Layer 1
10
516.308380
20
617.972460
11
526.724080
21
636.189560
0
LINE
8
Layer 1
10
526.724080
20
636.189560
11
535.472530
21
651.422360
0
LINE
8
Layer 1
10
535.472530
20
651.422360
11
557.105000
21
651.423000
0
LINE
8
Layer 1
10
557.105000
20
651.423000
11
578.736000
21
651.423000
0
LINE
8
Layer 1
10
578.736000
20
651.423000
11
589.161900
21
633.286400
0
LINE
8
Layer 1
10
589.161900
20
633.286400
11
594.560940
21
623.777422
0
LINE
8
Layer 1
10
594.560940
20
623.777422
11
597.590884
21
618.030800
0
LINE
8
Layer 1
10
597.590884
20
618.030800
11
598.382510
21
616.222629
0
LINE
8
Layer 1
10
598.382510
20
616.222629
11
598.779943
21
614.940153
0
LINE
8
Layer 1
10
598.779943
20
614.940153
11
598.849207
21
614.045076
0
LINE
8
Layer 1
10
598.849207
20
614.045076
11
598.656330
21
613.399100
0
LINE
8
Layer 1
10
598.656330
20
613.399100
11
588.273430
21
595.146200
0
LINE
8
Layer 1
10
588.273430
20
595.146200
11
578.821960
21
578.644000
0
LINE
8
Layer 1
10
578.821960
20
578.644000
11
557.295360
21
578.418180
0
LINE
8
Layer 1
10
557.295360
20
578.418180
11
535.768760
21
578.192370
0
LINE
8
Layer 1
10
535.768760
20
578.192370
11
534.567000
21
580.110000
0
LINE
8
Layer 1
10
583.872000
20
599.076600
11
588.139178
21
606.635598
0
LINE
8
Layer 1
10
588.139178
20
606.635598
11
590.815791
21
611.743663
0
LINE
8
Layer 1
10
590.815791
20
611.743663
11
592.099686
21
614.809120
0
LINE
8
Layer 1
10
592.099686
20
614.809120
11
592.281191
21
615.703474
0
LINE
8
Layer 1
10
592.281191
20
615.703474
11
592.188710
21
616.240300
0
LINE
8
Layer 1
10
592.188710
20
616.240300
11
583.094220
21
632.169800
0
LINE
8
Layer 1
10
583.094220
20
632.169800
11
574.785100
21
646.767900
0
LINE
8
Layer 1
10
574.785100
20
646.767900
11
557.476000
21
646.768000
0
LINE
8
Layer 1
10
557.476000
20
646.768000
11
548.214789
21
646.722506
0
LINE
8
Layer 1
10
548.214789
20
646.722506
11
542.820888
21
646.523270
0
LINE
8
Layer 1
10
542.820888
20
646.523270
11
541.205661
21
646.336582
0
LINE
8
Layer 1
10
541.205661
20
646.336582
11
540.115042
21
646.076159
0
LINE
8
Layer 1
10
540.115042
20
646.076159
11
539.401624
21
645.730234
0
LINE
8
Layer 1
10
539.401624
20
645.730234
11
538.918000
21
645.287040
0
LINE
8
Layer 1
10
538.918000
20
645.287040
11
535.605285
21
639.947292
0
LINE
8
Layer 1
10
535.605285
20
639.947292
11
529.665729
21
629.741914
0
LINE
8
Layer 1
10
529.665729
20
629.741914
11
523.985483
21
619.699974
0
LINE
8
Layer 1
10
523.985483
20
619.699974
11
521.450700
21
614.850540
0
LINE
8
Layer 1
10
521.450700
20
614.850540
11
522.643324
21
612.493646
0
LINE
8
Layer 1
10
522.643324
20
612.493646
11
525.510690
21
607.506540
0
LINE
8
Layer 1
10
525.510690
20
607.506540
11
534.373500
21
592.032740
0
LINE
8
Layer 1
10
534.373500
20
592.032740
11
539.176290
21
583.419130
0
LINE
8
Layer 1
10
539.176290
20
583.419130
11
556.973390
21
583.331830
0
LINE
8
Layer 1
10
556.973390
20
583.331830
11
574.770490
21
583.244530
0
LINE
8
Layer 1
10
574.770490
20
583.244530
11
583.872000
21
599.076600
0
LINE
8
Layer 1
10
1089.198000
20
595.426260
11
1082.102662
21
607.976755
0
LINE
8
Layer 1
10
1082.102662
20
607.976755
11
1078.843200
21
614.007560
0
LINE
8
Layer 1
10
1078.843200
20
614.007560
11
1078.893605
21
614.624836
0
LINE
8
Layer 1
10
1078.893605
20
614.624836
11
1079.295344
21
615.795128
0
LINE
8
Layer 1
10
1079.295344
20
615.795128
11
1081.123250
21
619.735784
0
LINE
8
Layer 1
10
1081.123250
20
619.735784
11
1084.267781
21
625.711578
0
LINE
8
Layer 1
10
1084.267781
20
625.711578
11
1088.669800
21
633.604560
0
LINE
8
Layer 1
10
1088.669800
20
633.604560
11
1099.024700
21
651.813560
0
LINE
8
Layer 1
10
1099.024700
20
651.813560
11
1120.531500
21
651.829560
0
LINE
8
Layer 1
10
1120.531500
20
651.829560
11
1142.038600
21
651.845560
0
LINE
8
Layer 1
10
1142.038600
20
651.845560
11
1152.312300
21
633.862360
0
LINE
8
Layer 1
10
1152.312300
20
633.862360
11
1159.576188
21
620.910984
0
LINE
8
Layer 1
10
1159.576188
20
620.910984
11
1161.792098
21
616.775991
0
LINE
8
Layer 1
10
1161.792098
20
616.775991
11
1162.613300
21
615.025560
0
LINE
8
Layer 1
10
1162.613300
20
615.025560
11
1161.819192
21
613.275719
0
LINE
8
Layer 1
10
1161.819192
20
613.275719
11
1159.616538
21
609.142294
0
LINE
8
Layer 1
10
1159.616538
20
609.142294
11
1152.351600
21
596.196060
0
LINE
8
Layer 1
10
1152.351600
20
596.196060
11
1142.063000
21
578.220160
0
LINE
8
Layer 1
10
1142.063000
20
578.220160
11
1120.543800
21
578.226160
0
LINE
8
Layer 1
10
1120.543800
20
578.226160
11
1099.024700
21
578.232160
0
LINE
8
Layer 1
10
1099.024700
20
578.232160
11
1089.198000
21
595.426260
0
LINE
8
Layer 1
10
1233.724000
20
596.381300
11
1229.203836
21
604.477027
0
LINE
8
Layer 1
10
1229.203836
20
604.477027
11
1226.082187
21
610.415088
0
LINE
8
Layer 1
10
1226.082187
20
610.415088
11
1224.337070
21
614.239480
0
LINE
8
Layer 1
10
1224.337070
20
614.239480
11
1223.973841
21
615.372799
0
LINE
8
Layer 1
10
1223.973841
20
615.372799
11
1223.946500
21
615.994200
0
LINE
8
Layer 1
10
1223.946500
20
615.994200
11
1227.223275
21
622.070114
0
LINE
8
Layer 1
10
1227.223275
20
622.070114
11
1234.325500
21
634.639400
0
LINE
8
Layer 1
10
1234.325500
20
634.639400
11
1244.152100
21
651.832700
0
LINE
8
Layer 1
10
1244.152100
20
651.832700
11
1265.569500
21
651.838700
0
LINE
8
Layer 1
10
1265.569500
20
651.838700
11
1286.986900
21
651.844700
0
LINE
8
Layer 1
10
1286.986900
20
651.844700
11
1297.447000
21
633.582000
0
LINE
8
Layer 1
10
1297.447000
20
633.582000
11
1304.790638
21
620.507975
0
LINE
8
Layer 1
10
1304.790638
20
620.507975
11
1306.990192
21
616.393856
0
LINE
8
Layer 1
10
1306.990192
20
616.393856
11
1307.757200
21
614.720200
0
LINE
8
Layer 1
10
1307.757200
20
614.720200
11
1297.365900
21
596.170200
0
LINE
8
Layer 1
10
1297.365900
20
596.170200
11
1287.125100
21
578.218600
0
LINE
8
Layer 1
10
1287.125100
20
578.218600
11
1265.590000
21
578.219000
0
LINE
8
Layer 1
10
1265.590000
20
578.219000
11
1244.050000
21
578.219000
0
LINE
8
Layer 1
10
1244.050000
20
578.219000
11
1233.724000
21
596.381300
0
LINE
8
Layer 1
10
1291.363300
20
597.261200
11
1300.311700
21
612.947400
0
LINE
8
Layer 1
10
1300.311700
20
612.947400
11
1300.642318
21
613.687489
0
LINE
8
Layer 1
10
1300.642318
20
613.687489
11
1300.754547
21
614.496702
0
LINE
8
Layer 1
10
1300.754547
20
614.496702
11
1300.570165
21
615.552102
0
LINE
8
Layer 1
10
1300.570165
20
615.552102
11
1300.010950
21
617.030747
0
LINE
8
Layer 1
10
1300.010950
20
617.030747
11
1297.455128
21
621.966019
0
LINE
8
Layer 1
10
1297.455128
20
621.966019
11
1292.461300
21
630.719000
0
LINE
8
Layer 1
10
1292.461300
20
630.719000
11
1283.449500
21
646.344700
0
LINE
8
Layer 1
10
1283.449500
20
646.344700
11
1265.735000
21
646.573080
0
LINE
8
Layer 1
10
1265.735000
20
646.573080
11
1248.020600
21
646.801450
0
LINE
8
Layer 1
10
1248.020600
20
646.801450
11
1244.505600
21
640.649340
0
LINE
8
Layer 1
10
1244.505600
20
640.649340
11
1235.650800
21
625.310540
0
LINE
8
Layer 1
10
1235.650800
20
625.310540
11
1231.879162
21
618.499188
0
LINE
8
Layer 1
10
1231.879162
20
618.499188
11
1230.731864
21
616.175546
0
LINE
8
Layer 1
10
1230.731864
20
616.175546
11
1230.310500
21
615.023340
0
LINE
8
Layer 1
10
1230.310500
20
615.023340
11
1230.631689
21
614.038816
0
LINE
8
Layer 1
10
1230.631689
20
614.038816
11
1231.506237
21
612.171793
0
LINE
8
Layer 1
10
1231.506237
20
612.171793
11
1234.381300
21
606.861490
0
LINE
8
Layer 1
10
1234.381300
20
606.861490
11
1243.226900
21
591.532390
0
LINE
8
Layer 1
10
1243.226900
20
591.532390
11
1248.001500
21
583.264540
0
LINE
8
Layer 1
10
1248.001500
20
583.264540
11
1265.788900
21
583.492910
0
LINE
8
Layer 1
10
1265.788900
20
583.492910
11
1283.576600
21
583.721280
0
LINE
8
Layer 1
10
1283.576600
20
583.721280
11
1291.363300
21
597.261200
0
LINE
8
Layer 1
10
1376.038900
20
597.763720
11
1365.358100
21
616.461020
0
LINE
8
Layer 1
10
1365.358100
20
616.461020
11
1375.986600
21
635.013520
0
LINE
8
Layer 1
10
1375.986600
20
635.013520
11
1386.615100
21
653.566020
0
LINE
8
Layer 1
10
1386.615100
20
653.566020
11
1407.973500
21
653.340520
0
LINE
8
Layer 1
10
1407.973500
20
653.340520
11
1429.331900
21
653.115030
0
LINE
8
Layer 1
10
1429.331900
20
653.115030
11
1439.742600
21
634.966930
0
LINE
8
Layer 1
10
1439.742600
20
634.966930
11
1443.993061
21
627.402558
0
LINE
8
Layer 1
10
1443.993061
20
627.402558
11
1447.176788
21
621.413505
0
LINE
8
Layer 1
10
1447.176788
20
621.413505
11
1449.122920
21
617.335114
0
LINE
8
Layer 1
10
1449.122920
20
617.335114
11
1449.578496
21
616.117212
0
LINE
8
Layer 1
10
1449.578496
20
616.117212
11
1449.660600
21
615.502730
0
LINE
8
Layer 1
10
1449.660600
20
615.502730
11
1446.343425
21
609.415013
0
LINE
8
Layer 1
10
1446.343425
20
609.415013
11
1439.062200
21
596.626630
0
LINE
8
Layer 1
10
1439.062200
20
596.626630
11
1428.956900
21
579.066630
0
LINE
8
Layer 1
10
1428.956900
20
579.066630
11
1407.840000
21
579.067000
0
LINE
8
Layer 1
10
1407.840000
20
579.067000
11
1386.720000
21
579.067000
0
LINE
8
Layer 1
10
1386.720000
20
579.067000
11
1376.038900
21
597.763720
0
LINE
8
Layer 1
10
597.675900
20
637.319220
11
587.120500
21
655.797420
0
LINE
8
Layer 1
10
587.120500
20
655.797420
11
597.567400
21
674.131920
0
LINE
8
Layer 1
10
597.567400
20
674.131920
11
608.014400
21
692.466420
0
LINE
8
Layer 1
10
608.014400
20
692.466420
11
629.582000
21
692.467000
0
LINE
8
Layer 1
10
629.582000
20
692.467000
11
651.148000
21
692.467000
0
LINE
8
Layer 1
10
651.148000
20
692.467000
11
661.654400
21
674.126700
0
LINE
8
Layer 1
10
661.654400
20
674.126700
11
672.160700
21
655.786400
0
LINE
8
Layer 1
10
672.160700
20
655.786400
11
665.085790
21
643.449500
0
LINE
8
Layer 1
10
665.085790
20
643.449500
11
654.534790
21
624.986100
0
LINE
8
Layer 1
10
654.534790
20
624.986100
11
651.058670
21
618.859640
0
LINE
8
Layer 1
10
651.058670
20
618.859640
11
629.645270
21
618.849640
0
LINE
8
Layer 1
10
629.645270
20
618.849640
11
608.231770
21
618.839640
0
LINE
8
Layer 1
10
608.231770
20
618.839640
11
597.675900
21
637.319220
0
LINE
8
Layer 1
10
656.635600
20
640.277630
11
665.502280
21
655.790330
0
LINE
8
Layer 1
10
665.502280
20
655.790330
11
662.150860
21
661.645880
0
LINE
8
Layer 1
10
662.150860
20
661.645880
11
653.016070
21
677.445080
0
LINE
8
Layer 1
10
653.016070
20
677.445080
11
647.232710
21
687.388760
0
LINE
8
Layer 1
10
647.232710
20
687.388760
11
629.431610
21
687.356760
0
LINE
8
Layer 1
10
629.431610
20
687.356760
11
611.630510
21
687.324760
0
LINE
8
Layer 1
10
611.630510
20
687.324760
11
602.922870
21
671.911060
0
LINE
8
Layer 1
10
602.922870
20
671.911060
11
594.114560
21
655.957660
0
LINE
8
Layer 1
10
594.114560
20
655.957660
11
596.614920
21
651.073928
0
LINE
8
Layer 1
10
596.614920
20
651.073928
11
602.767990
21
640.090160
0
LINE
8
Layer 1
10
602.767990
20
640.090160
11
611.522110
21
624.762360
0
LINE
8
Layer 1
10
611.522110
20
624.762360
11
629.646000
21
624.763000
0
LINE
8
Layer 1
10
629.646000
20
624.763000
11
647.770000
21
624.763000
0
LINE
8
Layer 1
10
647.770000
20
624.763000
11
656.635600
21
640.277630
0
LINE
8
Layer 1
10
1019.023600
20
636.992010
11
1011.685113
21
649.958060
0
LINE
8
Layer 1
10
1011.685113
20
649.958060
11
1008.608200
21
655.678510
0
LINE
8
Layer 1
10
1008.608200
20
655.678510
11
1011.627325
21
661.395354
0
LINE
8
Layer 1
10
1011.627325
20
661.395354
11
1018.956700
21
674.352810
0
LINE
8
Layer 1
10
1018.956700
20
674.352810
11
1029.348000
21
692.466410
0
LINE
8
Layer 1
10
1029.348000
20
692.466410
11
1050.910000
21
692.467000
0
LINE
8
Layer 1
10
1050.910000
20
692.467000
11
1072.470000
21
692.467000
0
LINE
8
Layer 1
10
1072.470000
20
692.467000
11
1082.669500
21
674.483800
0
LINE
8
Layer 1
10
1082.669500
20
674.483800
11
1093.010400
21
655.992500
0
LINE
8
Layer 1
10
1093.010400
20
655.992500
11
1090.033387
21
650.251700
0
LINE
8
Layer 1
10
1090.033387
20
650.251700
11
1082.679600
21
637.163000
0
LINE
8
Layer 1
10
1082.679600
20
637.163000
11
1072.207800
21
618.841700
0
LINE
8
Layer 1
10
1072.207800
20
618.841700
11
1050.802100
21
618.854500
0
LINE
8
Layer 1
10
1050.802100
20
618.854500
11
1029.396400
21
618.867300
0
LINE
8
Layer 1
10
1029.396400
20
618.867300
11
1019.023600
21
636.992010
0
LINE
8
Layer 1
10
1077.686700
20
640.092630
11
1083.858313
21
651.043596
0
LINE
8
Layer 1
10
1083.858313
20
651.043596
11
1086.403600
21
655.848530
0
LINE
8
Layer 1
10
1086.403600
20
655.848530
11
1077.595300
21
671.814730
0
LINE
8
Layer 1
10
1077.595300
20
671.814730
11
1068.824200
21
687.352730
0
LINE
8
Layer 1
10
1068.824200
20
687.352730
11
1050.819300
21
687.159220
0
LINE
8
Layer 1
10
1050.819300
20
687.159220
11
1032.814400
21
686.965710
0
LINE
8
Layer 1
10
1032.814400
20
686.965710
11
1023.887900
21
671.370310
0
LINE
8
Layer 1
10
1023.887900
20
671.370310
11
1014.961100
21
655.774810
0
LINE
8
Layer 1
10
1014.961100
20
655.774810
11
1023.823600
21
640.269910
0
LINE
8
Layer 1
10
1023.823600
20
640.269910
11
1032.685700
21
624.765010
0
LINE
8
Layer 1
10
1032.685700
20
624.765010
11
1050.810000
21
624.765000
0
LINE
8
Layer 1
10
1050.810000
20
624.765000
11
1068.930000
21
624.765000
0
LINE
8
Layer 1
10
1068.930000
20
624.765000
11
1077.686700
21
640.092630
0
LINE
8
Layer 1
10
1172.644900
20
619.898830
11
1168.903969
21
626.122919
0
LINE
8
Layer 1
10
1168.903969
20
626.122919
11
1161.970475
21
638.203931
0
LINE
8
Layer 1
10
1161.970475
20
638.203931
11
1155.286319
21
650.085318
0
LINE
8
Layer 1
10
1155.286319
20
650.085318
11
1152.293400
21
655.710530
0
LINE
8
Layer 1
10
1152.293400
20
655.710530
11
1155.312087
21
661.432134
0
LINE
8
Layer 1
10
1155.312087
20
661.432134
11
1162.570000
21
674.373530
0
LINE
8
Layer 1
10
1162.570000
20
674.373530
11
1172.846200
21
692.456330
0
LINE
8
Layer 1
10
1172.846200
20
692.456330
11
1194.533100
21
692.249710
0
LINE
8
Layer 1
10
1194.533100
20
692.249710
11
1216.220000
21
692.043090
0
LINE
8
Layer 1
10
1216.220000
20
692.043090
11
1226.624000
21
673.931490
0
LINE
8
Layer 1
10
1226.624000
20
673.931490
11
1237.028300
21
655.819790
0
LINE
8
Layer 1
10
1237.028300
20
655.819790
11
1226.461700
21
637.330390
0
LINE
8
Layer 1
10
1226.461700
20
637.330390
11
1215.894700
21
618.840990
0
LINE
8
Layer 1
10
1215.894700
20
618.840990
11
1194.680000
21
618.841000
0
LINE
8
Layer 1
10
1194.680000
20
618.841000
11
1184.586783
21
618.894277
0
LINE
8
Layer 1
10
1184.586783
20
618.894277
11
1177.905512
21
619.071225
0
LINE
8
Layer 1
10
1177.905512
20
619.071225
11
1174.101936
21
619.397521
0
LINE
8
Layer 1
10
1174.101936
20
619.397521
11
1173.112329
21
619.624698
0
LINE
8
Layer 1
10
1173.112329
20
619.624698
11
1172.641800
21
619.898840
0
LINE
8
Layer 1
10
1172.641800
20
619.898840
11
1172.644900
21
619.898830
0
LINE
8
Layer 1
10
678.651000
20
660.943000
11
667.985900
21
679.507700
0
LINE
8
Layer 1
10
667.985900
20
679.507700
11
658.235230
21
696.591500
0
LINE
8
Layer 1
10
658.235230
20
696.591500
11
668.908330
21
715.266400
0
LINE
8
Layer 1
10
668.908330
20
715.266400
11
679.581430
21
733.941400
0
LINE
8
Layer 1
10
679.581430
20
733.941400
11
700.846730
21
733.726140
0
LINE
8
Layer 1
10
700.846730
20
733.726140
11
722.112030
21
733.510560
0
LINE
8
Layer 1
10
722.112030
20
733.510560
11
732.100240
21
716.162060
0
LINE
8
Layer 1
10
732.100240
20
716.162060
11
739.287844
21
703.490330
0
LINE
8
Layer 1
10
739.287844
20
703.490330
11
742.542740
21
697.385960
0
LINE
8
Layer 1
10
742.542740
20
697.385960
11
742.478164
21
696.787933
0
LINE
8
Layer 1
10
742.478164
20
696.787933
11
742.085957
21
695.673020
0
LINE
8
Layer 1
10
742.085957
20
695.673020
11
740.383307
21
692.021054
0
LINE
8
Layer 1
10
740.383307
20
692.021054
11
737.564114
21
686.687090
0
LINE
8
Layer 1
10
737.564114
20
686.687090
11
733.757700
21
679.928160
0
LINE
8
Layer 1
10
733.757700
20
679.928160
11
726.938167
21
667.955302
0
LINE
8
Layer 1
10
726.938167
20
667.955302
11
723.516600
21
661.680060
0
LINE
8
Layer 1
10
723.516600
20
661.680060
11
722.514880
21
659.462160
0
LINE
8
Layer 1
10
722.514880
20
659.462160
11
701.040000
21
659.462000
0
LINE
8
Layer 1
10
701.040000
20
659.462000
11
689.413452
21
659.503852
0
LINE
8
Layer 1
10
689.413452
20
659.503852
11
682.828413
21
659.697019
0
LINE
8
Layer 1
10
682.828413
20
659.697019
11
680.947399
21
659.882039
0
LINE
8
Layer 1
10
680.947399
20
659.882039
11
679.751892
21
660.142919
0
LINE
8
Layer 1
10
679.751892
20
660.142919
11
679.050267
21
660.492337
0
LINE
8
Layer 1
10
679.050267
20
660.492337
11
678.650900
21
660.942970
0
LINE
8
Layer 1
10
678.650900
20
660.942970
11
678.651000
21
660.943000
0
LINE
8
Layer 1
10
951.185000
20
674.484800
11
940.550800
21
692.916200
0
LINE
8
Layer 1
10
940.550800
20
692.916200
11
938.501670
21
696.327940
0
LINE
8
Layer 1
10
938.501670
20
696.327940
11
945.451340
21
708.572140
0
LINE
8
Layer 1
10
945.451340
20
708.572140
11
956.123240
21
727.163340
0
LINE
8
Layer 1
10
956.123240
20
727.163340
11
959.845520
21
733.510370
0
LINE
8
Layer 1
10
959.845520
20
733.510370
11
981.156000
21
733.511000
0
LINE
8
Layer 1
10
981.156000
20
733.511000
11
1002.470000
21
733.511000
0
LINE
8
Layer 1
10
1002.470000
20
733.511000
11
1012.789700
21
715.467400
0
LINE
8
Layer 1
10
1012.789700
20
715.467400
11
1020.077937
21
702.484013
0
LINE
8
Layer 1
10
1020.077937
20
702.484013
11
1022.295092
21
698.347586
0
LINE
8
Layer 1
10
1022.295092
20
698.347586
11
1023.109400
21
696.606500
0
LINE
8
Layer 1
10
1023.109400
20
696.606500
11
1022.298536
21
694.857647
0
LINE
8
Layer 1
10
1022.298536
20
694.857647
11
1020.090713
21
690.700042
0
LINE
8
Layer 1
10
1020.090713
20
690.700042
11
1012.832800
21
677.647000
0
LINE
8
Layer 1
10
1012.832800
20
677.647000
11
1002.556600
21
659.504800
0
LINE
8
Layer 1
10
1002.556600
20
659.504800
11
981.164900
21
659.485600
0
LINE
8
Layer 1
10
981.164900
20
659.485600
11
959.773200
21
659.466400
0
LINE
8
Layer 1
10
959.773200
20
659.466400
11
951.188490
21
674.486100
0
LINE
8
Layer 1
10
951.188490
20
674.486100
11
951.185000
21
674.484800
0
LINE
8
Layer 1
10
1097.283000
20
663.058600
11
1084.246688
21
685.626525
0
LINE
8
Layer 1
10
1084.246688
20
685.626525
11
1080.073298
21
693.183794
0
LINE
8
Layer 1
10
1080.073298
20
693.183794
11
1078.498800
21
696.417200
0
LINE
8
Layer 1
10
1078.498800
20
696.417200
11
1079.314722
21
698.225608
0
LINE
8
Layer 1
10
1079.314722
20
698.225608
11
1081.538450
21
702.418437
0
LINE
8
Layer 1
10
1081.538450
20
702.418437
11
1088.865100
21
715.458200
0
LINE
8
Layer 1
10
1088.865100
20
715.458200
11
1099.257000
21
733.510300
0
LINE
8
Layer 1
10
1099.257000
20
733.510300
11
1120.533000
21
733.712440
0
LINE
8
Layer 1
10
1120.533000
20
733.712440
11
1141.808700
21
733.914590
0
LINE
8
Layer 1
10
1141.808700
20
733.914590
11
1152.451400
21
715.239590
0
LINE
8
Layer 1
10
1152.451400
20
715.239590
11
1163.094500
21
696.564590
0
LINE
8
Layer 1
10
1163.094500
20
696.564590
11
1152.451400
21
678.013990
0
LINE
8
Layer 1
10
1152.451400
20
678.013990
11
1141.808700
21
659.463390
0
LINE
8
Layer 1
10
1141.808700
20
659.463390
11
1120.606200
21
659.462560
0
LINE
8
Layer 1
10
1120.606200
20
659.462560
11
1099.403500
21
659.461690
0
LINE
8
Layer 1
10
1099.403500
20
659.461690
11
1097.283000
21
663.058340
0
LINE
8
Layer 1
10
1097.283000
20
663.058340
11
1097.283000
21
663.058600
0
LINE
8
Layer 1
10
1147.453000
20
680.977300
11
1156.421000
21
696.568700
0
LINE
8
Layer 1
10
1156.421000
20
696.568700
11
1147.437100
21
712.286300
0
LINE
8
Layer 1
10
1147.437100
20
712.286300
11
1138.453200
21
728.003900
0
LINE
8
Layer 1
10
1138.453200
20
728.003900
11
1120.448000
21
727.795360
0
LINE
8
Layer 1
10
1120.448000
20
727.795360
11
1102.443200
21
727.586820
0
LINE
8
Layer 1
10
1102.443200
20
727.586820
11
1093.775400
21
712.442920
0
LINE
8
Layer 1
10
1093.775400
20
712.442920
11
1087.726600
21
701.424997
0
LINE
8
Layer 1
10
1087.726600
20
701.424997
11
1085.943206
21
697.822299
0
LINE
8
Layer 1
10
1085.943206
20
697.822299
11
1085.355500
21
696.201020
0
LINE
8
Layer 1
10
1085.355500
20
696.201020
11
1087.994825
21
691.069891
0
LINE
8
Layer 1
10
1087.994825
20
691.069891
11
1093.992200
21
680.275220
0
LINE
8
Layer 1
10
1093.992200
20
680.275220
11
1102.381000
21
665.447420
0
LINE
8
Layer 1
10
1102.381000
20
665.447420
11
1120.432800
21
665.415420
0
LINE
8
Layer 1
10
1120.432800
20
665.415420
11
1138.484900
21
665.383420
0
LINE
8
Layer 1
10
1138.484900
20
665.383420
11
1147.453000
21
680.974920
0
LINE
8
Layer 1
10
1147.453000
20
680.974920
11
1147.453000
21
680.977300
0
LINE
8
Layer 1
10
531.229000
20
668.983000
11
519.130138
21
690.010225
0
LINE
8
Layer 1
10
519.130138
20
690.010225
11
514.739700
21
698.013100
0
LINE
8
Layer 1
10
514.739700
20
698.013100
11
517.800953
21
703.690470
0
LINE
8
Layer 1
10
517.800953
20
703.690470
11
524.622725
21
715.681224
0
LINE
8
Layer 1
10
524.622725
20
715.681224
11
531.662034
21
727.818165
0
LINE
8
Layer 1
10
531.662034
20
727.818165
11
535.375900
21
733.934100
0
LINE
8
Layer 1
10
535.375900
20
733.934100
11
535.845427
21
734.297704
0
LINE
8
Layer 1
10
535.845427
20
734.297704
11
536.676719
21
734.576316
0
LINE
8
Layer 1
10
536.676719
20
734.576316
11
540.019283
21
734.901220
0
LINE
8
Layer 1
10
540.019283
20
734.901220
11
546.592954
21
734.954129
0
LINE
8
Layer 1
10
546.592954
20
734.954129
11
557.587100
21
734.780360
0
LINE
8
Layer 1
10
557.587100
20
734.780360
11
578.746100
21
734.357230
0
LINE
8
Layer 1
10
578.746100
20
734.357230
11
588.095500
21
718.124230
0
LINE
8
Layer 1
10
588.095500
20
718.124230
11
598.510300
21
699.882930
0
LINE
8
Layer 1
10
598.510300
20
699.882930
11
598.788691
21
699.180109
0
LINE
8
Layer 1
10
598.788691
20
699.180109
11
598.838674
21
698.348296
0
LINE
8
Layer 1
10
598.838674
20
698.348296
11
598.585857
21
697.222674
0
LINE
8
Layer 1
10
598.585857
20
697.222674
11
597.955846
21
695.638430
0
LINE
8
Layer 1
10
597.955846
20
695.638430
11
595.266668
21
690.434814
0
LINE
8
Layer 1
10
595.266668
20
690.434814
11
590.175990
21
681.418930
0
LINE
8
Layer 1
10
590.175990
20
681.418930
11
579.616290
21
663.059130
0
LINE
8
Layer 1
10
579.616290
20
663.059130
11
579.188892
21
662.433504
0
LINE
8
Layer 1
10
579.188892
20
662.433504
11
578.598990
21
661.962545
0
LINE
8
Layer 1
10
578.598990
20
661.962545
11
577.587022
21
661.624292
0
LINE
8
Layer 1
10
577.587022
20
661.624292
11
575.893425
21
661.396785
0
LINE
8
Layer 1
10
575.893425
20
661.396785
11
569.423092
21
661.186165
0
LINE
8
Layer 1
10
569.423092
20
661.186165
11
557.111490
21
661.155000
0
LINE
8
Layer 1
10
557.111490
20
661.155000
11
535.767000
21
661.155000
0
LINE
8
Layer 1
10
535.767000
20
661.155000
11
531.229000
21
668.983000
0
LINE
8
Layer 1
10
461.623500
20
709.589600
11
448.829200
21
731.852450
0
LINE
8
Layer 1
10
448.829200
20
731.852450
11
445.989966
21
736.936044
0
LINE
8
Layer 1
10
445.989966
20
736.936044
11
445.112000
21
738.712100
0
LINE
8
Layer 1
10
445.112000
20
738.712100
11
448.215285
21
744.472277
0
LINE
8
Layer 1
10
448.215285
20
744.472277
11
455.676400
21
757.700700
0
LINE
8
Layer 1
10
455.676400
20
757.700700
11
466.240700
21
776.247500
0
LINE
8
Layer 1
10
466.240700
20
776.247500
11
487.366000
21
776.247000
0
LINE
8
Layer 1
10
487.366000
20
776.247000
11
508.492000
21
776.247000
0
LINE
8
Layer 1
10
508.492000
20
776.247000
11
519.188600
21
757.521700
0
LINE
8
Layer 1
10
519.188600
20
757.521700
11
529.885200
21
738.796400
0
LINE
8
Layer 1
10
529.885200
20
738.796400
11
519.431000
21
720.497400
0
LINE
8
Layer 1
10
519.431000
20
720.497400
11
508.976800
21
702.198400
0
LINE
8
Layer 1
10
508.976800
20
702.198400
11
487.566500
21
701.972590
0
LINE
8
Layer 1
10
487.566500
20
701.972590
11
466.156200
21
701.746770
0
LINE
8
Layer 1
10
466.156200
20
701.746770
11
461.623500
21
709.589600
0
LINE
8
Layer 1
10
597.674000
20
720.291000
11
587.098000
21
738.806000
0
LINE
8
Layer 1
10
587.098000
20
738.806000
11
597.701000
21
757.315000
0
LINE
8
Layer 1
10
597.701000
20
757.315000
11
608.303000
21
775.824000
0
LINE
8
Layer 1
10
608.303000
20
775.824000
11
629.642000
21
775.824000
0
LINE
8
Layer 1
10
629.642000
20
775.824000
11
650.981000
21
775.824000
0
LINE
8
Layer 1
10
650.981000
20
775.824000
11
661.244600
21
758.052400
0
LINE
8
Layer 1
10
661.244600
20
758.052400
11
668.508478
21
745.152096
0
LINE
8
Layer 1
10
668.508478
20
745.152096
11
670.730057
21
740.956111
0
LINE
8
Layer 1
10
670.730057
20
740.956111
11
671.560100
21
739.092400
0
LINE
8
Layer 1
10
671.560100
20
739.092400
11
670.769365
21
737.206670
0
LINE
8
Layer 1
10
670.769365
20
737.206670
11
668.578056
21
732.950800
0
LINE
8
Layer 1
10
668.578056
20
732.950800
11
661.335600
21
719.853700
0
LINE
8
Layer 1
10
661.335600
20
719.853700
11
651.059200
21
701.803400
0
LINE
8
Layer 1
10
651.059200
20
701.803400
11
629.654800
21
701.790600
0
LINE
8
Layer 1
10
629.654800
20
701.790600
11
608.250400
21
701.777800
0
LINE
8
Layer 1
10
608.250400
20
701.777800
11
597.674000
21
720.291000
0
LINE
8
Layer 1
10
1168.534000
20
704.955600
11
1157.950500
21
723.432600
0
LINE
8
Layer 1
10
1157.950500
20
723.432600
11
1149.163900
21
738.742600
0
LINE
8
Layer 1
10
1149.163900
20
738.742600
11
1159.756500
21
757.283300
0
LINE
8
Layer 1
10
1159.756500
20
757.283300
11
1170.349200
21
775.824100
0
LINE
8
Layer 1
10
1170.349200
20
775.824100
11
1191.690000
21
775.824000
0
LINE
8
Layer 1
10
1191.690000
20
775.824000
11
1213.020000
21
775.824000
0
LINE
8
Layer 1
10
1213.020000
20
775.824000
11
1216.900500
21
769.053840
0
LINE
8
Layer 1
10
1216.900500
20
769.053840
11
1227.283600
21
750.933340
0
LINE
8
Layer 1
10
1227.283600
20
750.933340
11
1229.839627
21
746.309286
0
LINE
8
Layer 1
10
1229.839627
20
746.309286
11
1231.820338
21
742.402011
0
LINE
8
Layer 1
10
1231.820338
20
742.402011
11
1233.062655
21
739.553401
0
LINE
8
Layer 1
10
1233.062655
20
739.553401
11
1233.355954
21
738.632934
0
LINE
8
Layer 1
10
1233.355954
20
738.632934
11
1233.403500
21
738.105340
0
LINE
8
Layer 1
10
1233.403500
20
738.105340
11
1230.209162
21
731.948855
0
LINE
8
Layer 1
10
1230.209162
20
731.948855
11
1223.065100
21
719.222040
0
LINE
8
Layer 1
10
1223.065100
20
719.222040
11
1213.109400
21
701.816340
0
LINE
8
Layer 1
10
1213.109400
20
701.816340
11
1191.717700
21
701.803540
0
LINE
8
Layer 1
10
1191.717700
20
701.803540
11
1170.326300
21
701.790740
0
LINE
8
Layer 1
10
1170.326300
20
701.790740
11
1168.529500
21
704.957730
0
LINE
8
Layer 1
10
1168.529500
20
704.957730
11
1168.534000
21
704.955600
0
LINE
8
Layer 1
10
1218.381900
20
722.770200
11
1224.425413
21
733.772263
0
LINE
8
Layer 1
10
1224.425413
20
733.772263
11
1226.254748
21
737.398027
0
LINE
8
Layer 1
10
1226.254748
20
737.398027
11
1226.915800
21
739.060900
0
LINE
8
Layer 1
10
1226.915800
20
739.060900
11
1226.219022
21
740.703165
0
LINE
8
Layer 1
10
1226.219022
20
740.703165
11
1224.363400
21
744.272838
0
LINE
8
Layer 1
10
1224.363400
20
744.272838
11
1218.295900
21
755.090500
0
LINE
8
Layer 1
10
1218.295900
20
755.090500
11
1209.715700
21
769.900200
0
LINE
8
Layer 1
10
1209.715700
20
769.900200
11
1191.700900
21
770.102990
0
LINE
8
Layer 1
10
1191.700900
20
770.102990
11
1173.686200
21
770.305770
0
LINE
8
Layer 1
10
1173.686200
20
770.305770
11
1164.768900
21
754.545770
0
LINE
8
Layer 1
10
1164.768900
20
754.545770
11
1155.851900
21
738.785770
0
LINE
8
Layer 1
10
1155.851900
20
738.785770
11
1164.735900
21
723.242670
0
LINE
8
Layer 1
10
1164.735900
20
723.242670
11
1173.620000
21
707.699570
0
LINE
8
Layer 1
10
1173.620000
20
707.699570
11
1191.710000
21
707.699000
0
LINE
8
Layer 1
10
1191.710000
20
707.699000
11
1209.810000
21
707.699000
0
LINE
8
Layer 1
10
1209.810000
20
707.699000
11
1218.381900
21
722.770200
0
LINE
8
Layer 1
10
1090.040900
20
761.016400
11
1079.425100
21
779.664200
0
LINE
8
Layer 1
10
1079.425100
20
779.664200
11
1090.063700
21
798.261400
0
LINE
8
Layer 1
10
1090.063700
20
798.261400
11
1100.702300
21
816.858600
0
LINE
8
Layer 1
10
1100.702300
20
816.858600
11
1122.036000
21
816.651650
0
LINE
8
Layer 1
10
1122.036000
20
816.651650
11
1143.369400
21
816.444710
0
LINE
8
Layer 1
10
1143.369400
20
816.444710
11
1153.652000
21
798.673110
0
LINE
8
Layer 1
10
1153.652000
20
798.673110
11
1160.914025
21
785.748985
0
LINE
8
Layer 1
10
1160.914025
20
785.748985
11
1163.123150
21
781.527210
0
LINE
8
Layer 1
10
1163.123150
20
781.527210
11
1163.934500
21
779.632010
0
LINE
8
Layer 1
10
1163.934500
20
779.632010
11
1163.123150
21
777.736831
0
LINE
8
Layer 1
10
1163.123150
20
777.736831
11
1160.914025
21
773.515077
0
LINE
8
Layer 1
10
1160.914025
20
773.515077
11
1153.652000
21
760.591010
0
LINE
8
Layer 1
10
1153.652000
20
760.591010
11
1143.369400
21
742.819410
0
LINE
8
Layer 1
10
1143.369400
20
742.819410
11
1122.013200
21
742.593910
0
LINE
8
Layer 1
10
1122.013200
20
742.593910
11
1100.657000
21
742.368420
0
LINE
8
Layer 1
10
1100.657000
20
742.368420
11
1090.040900
21
761.016400
0
LINE
8
Layer 1
10
597.699900
20
803.261400
11
587.124700
21
821.787500
0
LINE
8
Layer 1
10
587.124700
20
821.787500
11
597.713700
21
840.272900
0
LINE
8
Layer 1
10
597.713700
20
840.272900
11
608.302700
21
858.758400
0
LINE
8
Layer 1
10
608.302700
20
858.758400
11
629.642000
21
858.758000
0
LINE
8
Layer 1
10
629.642000
20
858.758000
11
650.981000
21
858.758000
0
LINE
8
Layer 1
10
650.981000
20
858.758000
11
661.244600
21
840.986400
0
LINE
8
Layer 1
10
661.244600
20
840.986400
11
668.508478
21
828.087021
0
LINE
8
Layer 1
10
668.508478
20
828.087021
11
670.730057
21
823.892052
0
LINE
8
Layer 1
10
670.730057
20
823.892052
11
671.560100
21
822.029600
0
LINE
8
Layer 1
10
671.560100
20
822.029600
11
670.769365
21
820.145927
0
LINE
8
Layer 1
10
670.769365
20
820.145927
11
668.578056
21
815.893211
0
LINE
8
Layer 1
10
668.578056
20
815.893211
11
661.335600
21
802.804000
0
LINE
8
Layer 1
10
661.335600
20
802.804000
11
651.059200
21
784.763600
0
LINE
8
Layer 1
10
651.059200
20
784.763600
11
629.667600
21
784.750800
0
LINE
8
Layer 1
10
629.667600
20
784.750800
11
608.275900
21
784.734800
0
LINE
8
Layer 1
10
608.275900
20
784.734800
11
597.700700
21
803.260900
0
LINE
8
Layer 1
10
597.700700
20
803.260900
11
597.699900
21
803.261400
0
LINE
8
Layer 1
10
736.166900
20
802.678990
11
725.573300
21
821.280290
0
LINE
8
Layer 1
10
725.573300
20
821.280290
11
726.283301
21
822.986280
0
LINE
8
Layer 1
10
726.283301
20
822.986280
11
728.463635
21
827.184861
0
LINE
8
Layer 1
10
728.463635
20
827.184861
11
735.882200
21
840.532890
0
LINE
8
Layer 1
10
735.882200
20
840.532890
11
746.525400
21
859.181490
0
LINE
8
Layer 1
10
746.525400
20
859.181490
11
767.725000
21
859.181000
0
LINE
8
Layer 1
10
767.725000
20
859.181000
11
788.925000
21
859.181000
0
LINE
8
Layer 1
10
788.925000
20
859.181000
11
797.501470
21
844.159700
0
LINE
8
Layer 1
10
797.501470
20
844.159700
11
808.151770
21
825.492800
0
LINE
8
Layer 1
10
808.151770
20
825.492800
11
810.225590
21
821.847190
0
LINE
8
Layer 1
10
810.225590
20
821.847190
11
799.747990
21
803.489890
0
LINE
8
Layer 1
10
799.747990
20
803.489890
11
789.270390
21
785.132490
0
LINE
8
Layer 1
10
789.270390
20
785.132490
11
767.848290
21
784.906680
0
LINE
8
Layer 1
10
767.848290
20
784.906680
11
746.426190
21
784.680870
0
LINE
8
Layer 1
10
746.426190
20
784.680870
11
736.166900
21
802.678990
0
LINE
8
Layer 1
10
879.448900
20
803.253530
11
868.842500
21
821.825030
0
LINE
8
Layer 1
10
868.842500
20
821.825030
11
879.492200
21
840.510230
0
LINE
8
Layer 1
10
879.492200
20
840.510230
11
890.141900
21
859.195430
0
LINE
8
Layer 1
10
890.141900
20
859.195430
11
911.407200
21
858.976970
0
LINE
8
Layer 1
10
911.407200
20
858.976970
11
932.672500
21
858.758520
0
LINE
8
Layer 1
10
932.672500
20
858.758520
11
942.660680
21
841.410020
0
LINE
8
Layer 1
10
942.660680
20
841.410020
11
949.850045
21
828.732823
0
LINE
8
Layer 1
10
949.850045
20
828.732823
11
953.109080
21
822.615320
0
LINE
8
Layer 1
10
953.109080
20
822.615320
11
953.032319
21
821.981586
0
LINE
8
Layer 1
10
953.032319
20
821.981586
11
952.595149
21
820.777766
0
LINE
8
Layer 1
10
952.595149
20
820.777766
11
950.696661
21
816.771881
0
LINE
8
Layer 1
10
950.696661
20
816.771881
11
947.527765
21
810.821690
0
LINE
8
Layer 1
10
947.527765
20
810.821690
11
943.202610
21
803.151220
0
LINE
8
Layer 1
10
943.202610
20
803.151220
11
932.836010
21
785.133220
0
LINE
8
Layer 1
10
932.836010
20
785.133220
11
911.445610
21
784.907730
0
LINE
8
Layer 1
10
911.445610
20
784.907730
11
890.055210
21
784.682230
0
LINE
8
Layer 1
10
890.055210
20
784.682230
11
879.448900
21
803.253530
0
LINE
8
Layer 1
10
1020.330900
20
803.243530
11
1009.737300
21
821.805030
0
LINE
8
Layer 1
10
1009.737300
20
821.805030
11
1020.401300
21
840.507230
0
LINE
8
Layer 1
10
1020.401300
20
840.507230
11
1031.065300
21
859.209430
0
LINE
8
Layer 1
10
1031.065300
20
859.209430
11
1052.339700
21
858.983940
0
LINE
8
Layer 1
10
1052.339700
20
858.983940
11
1073.614100
21
858.758450
0
LINE
8
Layer 1
10
1073.614100
20
858.758450
11
1081.942900
21
844.371850
0
LINE
8
Layer 1
10
1081.942900
20
844.371850
11
1088.456212
21
832.964391
0
LINE
8
Layer 1
10
1088.456212
20
832.964391
11
1092.419900
21
825.740350
0
LINE
8
Layer 1
10
1092.419900
20
825.740350
11
1094.568000
21
821.495460
0
LINE
8
Layer 1
10
1094.568000
20
821.495460
11
1084.189600
21
803.314260
0
LINE
8
Layer 1
10
1084.189600
20
803.314260
11
1073.811600
21
785.133060
0
LINE
8
Layer 1
10
1073.811600
20
785.133060
11
1052.367900
21
784.907570
0
LINE
8
Layer 1
10
1052.367900
20
784.907570
11
1030.924200
21
784.682070
0
LINE
8
Layer 1
10
1030.924200
20
784.682070
11
1020.330900
21
803.243530
0
LINE
8
Layer 1
10
1078.891600
20
805.567520
11
1084.886900
21
816.372044
0
LINE
8
Layer 1
10
1084.886900
20
816.372044
11
1087.521000
21
821.458020
0
LINE
8
Layer 1
10
1087.521000
20
821.458020
11
1086.924478
21
823.049529
0
LINE
8
Layer 1
10
1086.924478
20
823.049529
11
1085.121525
21
826.633496
0
LINE
8
Layer 1
10
1085.121525
20
826.633496
11
1079.013900
21
837.653220
0
LINE
8
Layer 1
10
1079.013900
20
837.653220
11
1070.265900
21
852.834720
0
LINE
8
Layer 1
10
1070.265900
20
852.834720
11
1052.236000
21
853.062450
0
LINE
8
Layer 1
10
1052.236000
20
853.062450
11
1034.206100
21
853.290180
0
LINE
8
Layer 1
10
1034.206100
20
853.290180
11
1029.375700
21
844.599710
0
LINE
8
Layer 1
10
1029.375700
20
844.599710
11
1020.418400
21
828.935810
0
LINE
8
Layer 1
10
1020.418400
20
828.935810
11
1016.291600
21
821.962380
0
LINE
8
Layer 1
10
1016.291600
20
821.962380
11
1025.231400
21
806.298180
0
LINE
8
Layer 1
10
1025.231400
20
806.298180
11
1034.171500
21
790.633880
0
LINE
8
Layer 1
10
1034.171500
20
790.633880
11
1052.336800
21
790.662680
0
LINE
8
Layer 1
10
1052.336800
20
790.662680
11
1070.502500
21
790.691480
0
LINE
8
Layer 1
10
1070.502500
20
790.691480
11
1078.891600
21
805.568280
0
LINE
8
Layer 1
10
1078.891600
20
805.568280
11
1078.891600
21
805.567520
0
LINE
8
Layer 1
10
1159.747600
20
803.274360
11
1149.165000
21
821.813260
0
LINE
8
Layer 1
10
1149.165000
20
821.813260
11
1159.757100
21
840.285960
0
LINE
8
Layer 1
10
1159.757100
20
840.285960
11
1170.349100
21
858.758660
0
LINE
8
Layer 1
10
1170.349100
20
858.758660
11
1191.670000
21
858.758000
0
LINE
8
Layer 1
10
1191.670000
20
858.758000
11
1212.980000
21
858.758000
0
LINE
8
Layer 1
10
1212.980000
20
858.758000
11
1223.280900
21
840.986400
0
LINE
8
Layer 1
10
1223.280900
20
840.986400
11
1230.568238
21
828.093021
0
LINE
8
Layer 1
10
1230.568238
20
828.093021
11
1232.794280
21
823.904539
0
LINE
8
Layer 1
10
1232.794280
20
823.904539
11
1233.622800
21
822.050000
0
LINE
8
Layer 1
10
1233.622800
20
822.050000
11
1232.831780
21
820.171756
0
LINE
8
Layer 1
10
1232.831780
20
820.171756
11
1230.636413
21
815.918764
0
LINE
8
Layer 1
10
1230.636413
20
815.918764
11
1223.386800
21
802.813300
0
LINE
8
Layer 1
10
1223.386800
20
802.813300
11
1213.110600
21
784.741400
0
LINE
8
Layer 1
10
1213.110600
20
784.741400
11
1191.718900
21
784.738400
0
LINE
8
Layer 1
10
1191.718900
20
784.738400
11
1170.327200
21
784.735400
0
LINE
8
Layer 1
10
1170.327200
20
784.735400
11
1159.744700
21
803.274300
0
LINE
8
Layer 1
10
1159.744700
20
803.274300
11
1159.747600
21
803.274360
0
LINE
8
Layer 1
10
525.244600
20
843.949260
11
514.613300
21
862.567160
0
LINE
8
Layer 1
10
514.613300
20
862.567160
11
525.252700
21
881.199160
0
LINE
8
Layer 1
10
525.252700
20
881.199160
11
535.892100
21
899.831160
0
LINE
8
Layer 1
10
535.892100
20
899.831160
11
557.248100
21
899.605340
0
LINE
8
Layer 1
10
557.248100
20
899.605340
11
578.604100
21
899.379530
0
LINE
8
Layer 1
10
578.604100
20
899.379530
11
589.109300
21
880.991330
0
LINE
8
Layer 1
10
589.109300
20
880.991330
11
599.614500
21
862.603130
0
LINE
8
Layer 1
10
599.614500
20
862.603130
11
588.972800
21
843.967030
0
LINE
8
Layer 1
10
588.972800
20
843.967030
11
578.331100
21
825.330930
0
LINE
8
Layer 1
10
578.331100
20
825.330930
11
557.104000
21
825.331000
0
LINE
8
Layer 1
10
557.104000
20
825.331000
11
535.876000
21
825.331000
0
LINE
8
Layer 1
10
535.876000
20
825.331000
11
525.244600
21
843.949260
0
LINE
8
Layer 1
10
666.704600
20
842.952870
11
659.415635
21
855.752903
0
LINE
8
Layer 1
10
659.415635
20
855.752903
11
656.117600
21
861.782370
0
LINE
8
Layer 1
10
656.117600
20
861.782370
11
656.238181
21
862.396385
0
LINE
8
Layer 1
10
656.238181
20
862.396385
11
656.760846
21
863.687084
0
LINE
8
Layer 1
10
656.760846
20
863.687084
11
658.849350
21
867.980208
0
LINE
8
Layer 1
10
658.849350
20
867.980208
11
662.056959
21
874.025087
0
LINE
8
Layer 1
10
662.056959
20
874.025087
11
666.057520
21
881.185070
0
LINE
8
Layer 1
10
666.057520
20
881.185070
11
676.453520
21
899.379870
0
LINE
8
Layer 1
10
676.453520
20
899.379870
11
697.801520
21
899.605360
0
LINE
8
Layer 1
10
697.801520
20
899.605360
11
719.149520
21
899.830850
0
LINE
8
Layer 1
10
719.149520
20
899.830850
11
729.819020
21
881.252750
0
LINE
8
Layer 1
10
729.819020
20
881.252750
11
740.488520
21
862.674650
0
LINE
8
Layer 1
10
740.488520
20
862.674650
11
729.832120
21
844.002950
0
LINE
8
Layer 1
10
729.832120
20
844.002950
11
719.175720
21
825.331250
0
LINE
8
Layer 1
10
719.175720
20
825.331250
11
698.005000
21
825.331000
0
LINE
8
Layer 1
10
698.005000
20
825.331000
11
676.835000
21
825.331000
0
LINE
8
Layer 1
10
676.835000
20
825.331000
11
666.704600
21
842.952870
0
LINE
8
Layer 1
10
810.801600
20
837.390680
11
800.252300
21
855.779380
0
LINE
8
Layer 1
10
800.252300
20
855.779380
11
797.677202
21
860.406481
0
LINE
8
Layer 1
10
797.677202
20
860.406481
11
796.606140
21
862.643220
0
LINE
8
Layer 1
10
796.606140
20
862.643220
11
799.656319
21
868.337920
0
LINE
8
Layer 1
10
799.656319
20
868.337920
11
806.989740
21
881.278820
0
LINE
8
Layer 1
10
806.989740
20
881.278820
11
817.373340
21
899.379820
0
LINE
8
Layer 1
10
817.373340
20
899.379820
11
838.720340
21
899.605310
0
LINE
8
Layer 1
10
838.720340
20
899.605310
11
860.067340
21
899.830800
0
LINE
8
Layer 1
10
860.067340
20
899.830800
11
870.741640
21
881.205100
0
LINE
8
Layer 1
10
870.741640
20
881.205100
11
881.415940
21
862.579400
0
LINE
8
Layer 1
10
881.415940
20
862.579400
11
870.699840
21
843.955300
0
LINE
8
Layer 1
10
870.699840
20
843.955300
11
859.983740
21
825.331200
0
LINE
8
Layer 1
10
859.983740
20
825.331200
11
838.844000
21
825.331000
0
LINE
8
Layer 1
10
838.844000
20
825.331000
11
817.704000
21
825.331000
0
LINE
8
Layer 1
10
817.704000
20
825.331000
11
810.801600
21
837.390680
0
LINE
8
Layer 1
10
959.018600
20
827.220980
11
948.151800
21
845.907780
0
LINE
8
Layer 1
10
948.151800
20
845.907780
11
938.513430
21
862.675980
0
LINE
8
Layer 1
10
938.513430
20
862.675980
11
944.743410
21
873.411480
0
LINE
8
Layer 1
10
944.743410
20
873.411480
11
955.371510
21
891.974780
0
LINE
8
Layer 1
10
955.371510
20
891.974780
11
959.769760
21
899.802550
0
LINE
8
Layer 1
10
959.769760
20
899.802550
11
981.161460
21
899.769250
0
LINE
8
Layer 1
10
981.161460
20
899.769250
11
1002.553160
21
899.735950
0
LINE
8
Layer 1
10
1002.553160
20
899.735950
11
1012.829360
21
881.598450
0
LINE
8
Layer 1
10
1012.829360
20
881.598450
11
1020.075297
21
868.471091
0
LINE
8
Layer 1
10
1020.075297
20
868.471091
11
1022.270205
21
864.230406
0
LINE
8
Layer 1
10
1022.270205
20
864.230406
11
1023.065360
21
862.379250
0
LINE
8
Layer 1
10
1023.065360
20
862.379250
11
1022.234274
21
860.556938
0
LINE
8
Layer 1
10
1022.234274
20
860.556938
11
1020.012997
21
856.394847
0
LINE
8
Layer 1
10
1020.012997
20
856.394847
11
1012.743760
21
843.525850
0
LINE
8
Layer 1
10
1012.743760
20
843.525850
11
1002.462460
21
825.754250
0
LINE
8
Layer 1
10
1002.462460
20
825.754250
11
981.354560
21
825.528120
0
LINE
8
Layer 1
10
981.354560
20
825.528120
11
960.246960
21
825.301990
0
LINE
8
Layer 1
10
960.246960
20
825.301990
11
959.018670
21
827.220540
0
LINE
8
Layer 1
10
959.018670
20
827.220540
11
959.018600
21
827.220980
0
LINE
8
Layer 1
10
597.999000
20
885.722000
11
590.741296
21
898.791131
0
LINE
8
Layer 1
10
590.741296
20
898.791131
11
588.533474
21
903.016730
0
LINE
8
Layer 1
10
588.533474
20
903.016730
11
587.722600
21
904.865500
0
LINE
8
Layer 1
10
587.722600
20
904.865500
11
588.341260
21
906.300968
0
LINE
8
Layer 1
10
588.341260
20
906.300968
11
590.013427
21
909.532869
0
LINE
8
Layer 1
10
590.013427
20
909.532869
11
595.415413
21
919.407900
0
LINE
8
Layer 1
10
595.415413
20
919.407900
11
601.722817
21
930.534456
0
LINE
8
Layer 1
10
601.722817
20
930.534456
11
606.729900
21
938.956400
0
LINE
8
Layer 1
10
606.729900
20
938.956400
11
608.737590
21
942.144400
0
LINE
8
Layer 1
10
608.737590
20
942.144400
11
629.891390
21
941.918267
0
LINE
8
Layer 1
10
629.891390
20
941.918267
11
651.045190
21
941.692133
0
LINE
8
Layer 1
10
651.045190
20
941.692133
11
658.365950
21
928.998133
0
LINE
8
Layer 1
10
658.365950
20
928.998133
11
668.969200
21
910.359308
0
LINE
8
Layer 1
10
668.969200
20
910.359308
11
671.034463
21
906.389936
0
LINE
8
Layer 1
10
671.034463
20
906.389936
11
671.611350
21
904.762833
0
LINE
8
Layer 1
10
671.611350
20
904.762833
11
670.800484
21
902.984814
0
LINE
8
Layer 1
10
670.800484
20
902.984814
11
668.592681
21
898.812459
0
LINE
8
Layer 1
10
668.592681
20
898.812459
11
661.335050
21
885.776633
0
LINE
8
Layer 1
10
661.335050
20
885.776633
11
651.058650
21
867.695133
0
LINE
8
Layer 1
10
651.058650
20
867.695133
11
629.667050
21
867.682333
0
LINE
8
Layer 1
10
629.667050
20
867.682333
11
608.275350
21
867.669533
0
LINE
8
Layer 1
10
608.275350
20
867.669533
11
597.998950
21
885.719833
0
LINE
8
Layer 1
10
597.998950
20
885.719833
11
597.999000
21
885.722000
0
LINE
8
Layer 1
10
656.301700
20
888.674850
11
662.374461
21
899.646684
0
LINE
8
Layer 1
10
662.374461
20
899.646684
11
664.221817
21
903.231519
0
LINE
8
Layer 1
10
664.221817
20
903.231519
11
664.900300
21
904.841650
0
LINE
8
Layer 1
10
664.900300
20
904.841650
11
664.221817
21
906.453459
0
LINE
8
Layer 1
10
664.221817
20
906.453459
11
662.374461
21
910.042824
0
LINE
8
Layer 1
10
662.374461
20
910.042824
11
656.301700
21
921.029550
0
LINE
8
Layer 1
10
656.301700
20
921.029550
11
647.703100
21
936.136250
0
LINE
8
Layer 1
10
647.703100
20
936.136250
11
629.667000
21
936.149040
0
LINE
8
Layer 1
10
629.667000
20
936.149040
11
611.630900
21
936.161830
0
LINE
8
Layer 1
10
611.630900
20
936.161830
11
602.722120
21
920.458530
0
LINE
8
Layer 1
10
602.722120
20
920.458530
11
593.813300
21
904.755230
0
LINE
8
Layer 1
10
593.813300
20
904.755230
11
602.722120
21
889.166430
0
LINE
8
Layer 1
10
602.722120
20
889.166430
11
611.630900
21
873.577630
0
LINE
8
Layer 1
10
611.630900
20
873.577630
11
629.667000
21
873.580630
0
LINE
8
Layer 1
10
629.667000
20
873.580630
11
647.703100
21
873.583630
0
LINE
8
Layer 1
10
647.703100
20
873.583630
11
656.301700
21
888.669330
0
LINE
8
Layer 1
10
656.301700
20
888.669330
11
656.301700
21
888.674850
0
LINE
8
Layer 1
10
886.379700
20
874.202450
11
875.764600
21
892.745650
0
LINE
8
Layer 1
10
875.764600
20
892.745650
11
868.826150
21
904.730250
0
LINE
8
Layer 1
10
868.826150
20
904.730250
11
879.484050
21
923.429850
0
LINE
8
Layer 1
10
879.484050
20
923.429850
11
890.141950
21
942.129450
0
LINE
8
Layer 1
10
890.141950
20
942.129450
11
911.444150
21
941.910992
0
LINE
8
Layer 1
10
911.444150
20
941.910992
11
932.746350
21
941.692535
0
LINE
8
Layer 1
10
932.746350
20
941.692535
11
943.112150
21
923.628435
0
LINE
8
Layer 1
10
943.112150
20
923.628435
11
950.433043
21
910.643762
0
LINE
8
Layer 1
10
950.433043
20
910.643762
11
953.478050
21
904.791935
0
LINE
8
Layer 1
10
953.478050
20
904.791935
11
950.746962
21
899.491918
0
LINE
8
Layer 1
10
950.746962
20
899.491918
11
944.180840
21
887.833935
0
LINE
8
Layer 1
10
944.180840
20
887.833935
11
937.349168
21
875.814683
0
LINE
8
Layer 1
10
937.349168
20
875.814683
11
933.979540
21
869.646135
0
LINE
8
Layer 1
10
933.979540
20
869.646135
11
933.075290
21
867.644105
0
LINE
8
Layer 1
10
933.075290
20
867.644105
11
911.566000
21
867.644000
0
LINE
8
Layer 1
10
911.566000
20
867.644000
11
890.056000
21
867.644000
0
LINE
8
Layer 1
10
890.056000
20
867.644000
11
886.379700
21
874.202450
0
LINE
8
Layer 1
10
937.958600
20
888.485750
11
943.883259
21
899.395411
0
LINE
8
Layer 1
10
943.883259
20
899.395411
11
945.685563
21
903.038839
0
LINE
8
Layer 1
10
945.685563
20
903.038839
11
946.347500
21
904.762550
0
LINE
8
Layer 1
10
946.347500
20
904.762550
11
945.685563
21
906.495340
0
LINE
8
Layer 1
10
945.685563
20
906.495340
11
943.883259
21
910.163518
0
LINE
8
Layer 1
10
943.883259
20
910.163518
11
937.958600
21
921.154550
0
LINE
8
Layer 1
10
937.958600
20
921.154550
11
929.569740
21
936.126450
0
LINE
8
Layer 1
10
929.569740
20
936.126450
11
911.517440
21
936.159080
0
LINE
8
Layer 1
10
911.517440
20
936.159080
11
893.465140
21
936.191700
0
LINE
8
Layer 1
10
893.465140
20
936.191700
11
884.486260
21
920.502400
0
LINE
8
Layer 1
10
884.486260
20
920.502400
11
875.507370
21
904.813100
0
LINE
8
Layer 1
10
875.507370
20
904.813100
11
884.457180
21
889.190500
0
LINE
8
Layer 1
10
884.457180
20
889.190500
11
893.406960
21
873.567800
0
LINE
8
Layer 1
10
893.406960
20
873.567800
11
911.488360
21
873.599800
0
LINE
8
Layer 1
10
911.488360
20
873.599800
11
929.569760
21
873.631800
0
LINE
8
Layer 1
10
929.569760
20
873.631800
11
937.958620
21
888.488400
0
LINE
8
Layer 1
10
937.958620
20
888.488400
11
937.958600
21
888.485750
0
LINE
8
Layer 1
10
1020.380700
20
886.158270
11
1009.711600
21
904.700370
0
LINE
8
Layer 1
10
1009.711600
20
904.700370
11
1020.344800
21
923.407870
0
LINE
8
Layer 1
10
1020.344800
20
923.407870
11
1030.978100
21
942.115370
0
LINE
8
Layer 1
10
1030.978100
20
942.115370
11
1052.140000
21
942.116000
0
LINE
8
Layer 1
10
1052.140000
20
942.116000
11
1073.300000
21
942.116000
0
LINE
8
Layer 1
10
1073.300000
20
942.116000
11
1083.002600
21
925.257100
0
LINE
8
Layer 1
10
1083.002600
20
925.257100
11
1090.124863
21
912.753999
0
LINE
8
Layer 1
10
1090.124863
20
912.753999
11
1093.622900
21
906.367500
0
LINE
8
Layer 1
10
1093.622900
20
906.367500
11
1093.831431
21
905.644634
0
LINE
8
Layer 1
10
1093.831431
20
905.644634
11
1093.791822
21
904.729603
0
LINE
8
Layer 1
10
1093.791822
20
904.729603
11
1093.427983
21
903.461659
0
LINE
8
Layer 1
10
1093.427983
20
903.461659
11
1092.663825
21
901.680056
0
LINE
8
Layer 1
10
1092.663825
20
901.680056
11
1089.630191
21
895.932882
0
LINE
8
Layer 1
10
1089.630191
20
895.932882
11
1084.082200
21
886.202100
0
LINE
8
Layer 1
10
1084.082200
20
886.202100
11
1073.624600
21
868.067500
0
LINE
8
Layer 1
10
1073.624600
20
868.067500
11
1052.335300
21
867.842010
0
LINE
8
Layer 1
10
1052.335300
20
867.842010
11
1031.046000
21
867.616510
0
LINE
8
Layer 1
10
1031.046000
20
867.616510
11
1020.380700
21
886.158270
0
LINE
8
Layer 1
10
668.871000
20
928.498000
11
658.251000
21
947.038000
0
LINE
8
Layer 1
10
658.251000
20
947.038000
11
668.916000
21
965.721000
0
LINE
8
Layer 1
10
668.916000
20
965.721000
11
679.581000
21
984.404000
0
LINE
8
Layer 1
10
679.581000
20
984.404000
11
700.700300
21
984.416790
0
LINE
8
Layer 1
10
700.700300
20
984.416790
11
721.819600
21
984.429580
0
LINE
8
Layer 1
10
721.819600
20
984.429580
11
731.460760
21
967.695980
0
LINE
8
Layer 1
10
731.460760
20
967.695980
11
738.562563
21
955.229790
0
LINE
8
Layer 1
10
738.562563
20
955.229790
11
742.098460
21
948.755980
0
LINE
8
Layer 1
10
742.098460
20
948.755980
11
742.358953
21
947.993482
0
LINE
8
Layer 1
10
742.358953
20
947.993482
11
742.398226
21
947.125130
0
LINE
8
Layer 1
10
742.398226
20
947.125130
11
742.140198
21
945.983158
0
LINE
8
Layer 1
10
742.140198
20
945.983158
11
741.508786
21
944.399804
0
LINE
8
Layer 1
10
741.508786
20
944.399804
11
738.821485
21
939.237891
0
LINE
8
Layer 1
10
738.821485
20
939.237891
11
733.727670
21
930.297280
0
LINE
8
Layer 1
10
733.727670
20
930.297280
11
726.840866
21
918.218804
0
LINE
8
Layer 1
10
726.840866
20
918.218804
11
723.437370
21
912.001480
0
LINE
8
Layer 1
10
723.437370
20
912.001480
11
722.514410
21
909.957960
0
LINE
8
Layer 1
10
722.514410
20
909.957960
11
701.003000
21
909.958000
0
LINE
8
Layer 1
10
701.003000
20
909.958000
11
679.491000
21
909.958000
0
LINE
8
Layer 1
10
679.491000
20
909.958000
11
668.871000
21
928.498000
0
LINE
8
Layer 1
10
727.397500
20
930.770560
11
733.393985
21
941.560335
0
LINE
8
Layer 1
10
733.393985
20
941.560335
11
736.030980
21
946.679660
0
LINE
8
Layer 1
10
736.030980
20
946.679660
11
735.987159
21
947.233767
0
LINE
8
Layer 1
10
735.987159
20
947.233767
11
735.634755
21
948.220995
0
LINE
8
Layer 1
10
735.634755
20
948.220995
11
733.715805
21
952.026059
0
LINE
8
Layer 1
10
733.715805
20
952.026059
11
723.002580
21
970.677360
0
LINE
8
Layer 1
10
723.002580
20
970.677360
11
718.425910
21
978.505320
0
LINE
8
Layer 1
10
718.425910
20
978.505320
11
700.670000
21
978.505000
0
LINE
8
Layer 1
10
700.670000
20
978.505000
11
682.913000
21
978.505000
0
LINE
8
Layer 1
10
682.913000
20
978.505000
11
673.908500
21
962.747100
0
LINE
8
Layer 1
10
673.908500
20
962.747100
11
664.903960
21
946.989200
0
LINE
8
Layer 1
10
664.903960
20
946.989200
11
673.823560
21
931.435200
0
LINE
8
Layer 1
10
673.823560
20
931.435200
11
682.743120
21
915.881200
0
LINE
8
Layer 1
10
682.743120
20
915.881200
11
700.876020
21
915.913190
0
LINE
8
Layer 1
10
700.876020
20
915.913190
11
719.008920
21
915.945170
0
LINE
8
Layer 1
10
719.008920
20
915.945170
11
727.397830
21
930.772970
0
LINE
8
Layer 1
10
727.397830
20
930.772970
11
727.397500
21
930.770560
0
LINE
8
Layer 1
10
813.080400
20
917.785560
11
805.258855
21
931.352141
0
LINE
8
Layer 1
10
805.258855
20
931.352141
11
800.212113
21
940.416810
0
LINE
8
Layer 1
10
800.212113
20
940.416810
11
797.572289
21
945.664579
0
LINE
8
Layer 1
10
797.572289
20
945.664579
11
797.040008
21
947.071192
0
LINE
8
Layer 1
10
797.040008
20
947.071192
11
796.971500
21
947.780460
0
LINE
8
Layer 1
10
796.971500
20
947.780460
11
807.559600
21
966.672960
0
LINE
8
Layer 1
10
807.559600
20
966.672960
11
817.716000
21
984.429000
0
LINE
8
Layer 1
10
817.716000
20
984.429000
11
838.869000
21
984.429000
0
LINE
8
Layer 1
10
838.869000
20
984.429000
11
860.021000
21
984.429000
0
LINE
8
Layer 1
10
860.021000
20
984.429000
11
870.689800
21
965.722700
0
LINE
8
Layer 1
10
870.689800
20
965.722700
11
881.358600
21
947.016400
0
LINE
8
Layer 1
10
881.358600
20
947.016400
11
870.777700
21
928.486900
0
LINE
8
Layer 1
10
870.777700
20
928.486900
11
860.196800
21
909.957300
0
LINE
8
Layer 1
10
860.196800
20
909.957300
11
838.915000
21
909.958000
0
LINE
8
Layer 1
10
838.915000
20
909.958000
11
817.633000
21
909.958000
0
LINE
8
Layer 1
10
817.633000
20
909.958000
11
813.080400
21
917.785560
 0 
ENDSEC
 0 
EOF