999
"DXF R12 Output" (www.mydxf.blogspot.com)
 0 
SECTION
 2 
HEADER
 9 
$ACADVER
 1 
AC1009
 9 
$EXTMIN
 10 
 0 
 20 
 0 
 9 
$EXTMAX
 10 
 8.5 
 20 
 11 
 0 
ENDSEC
 0 
SECTION
 2 
ENTITIES
0
LINE
8
Layer 1
10
1063.450000
20
103.265000
11
1061.840000
21
103.265000
0
LINE
8
Layer 1
10
1061.840000
20
103.265000
11
1061.840000
21
114.342000
0
LINE
8
Layer 1
10
1061.840000
20
114.342000
11
1061.840000
21
125.418000
0
LINE
8
Layer 1
10
1061.840000
20
125.418000
11
998.250000
21
125.418000
0
LINE
8
Layer 1
10
998.250000
20
125.418000
11
934.664000
21
125.418000
0
LINE
8
Layer 1
10
934.664000
20
125.418000
11
933.602730
21
126.252830
0
LINE
8
Layer 1
10
933.602730
20
126.252830
11
932.541420
21
127.087640
0
LINE
8
Layer 1
10
932.541420
20
127.087640
11
932.541000
21
136.683000
0
LINE
8
Layer 1
10
932.541000
20
136.683000
11
932.541000
21
146.277000
0
LINE
8
Layer 1
10
932.541000
20
146.277000
11
931.903870
21
146.521490
0
LINE
8
Layer 1
10
931.903870
20
146.521490
11
931.266730
21
146.765980
0
LINE
8
Layer 1
10
931.266730
20
146.765980
11
894.243000
21
146.766000
0
LINE
8
Layer 1
10
894.243000
20
146.766000
11
857.219000
21
146.766000
0
LINE
8
Layer 1
10
857.219000
20
146.766000
11
857.219000
21
137.118000
0
LINE
8
Layer 1
10
857.219000
20
137.118000
11
857.219000
21
127.469000
0
LINE
8
Layer 1
10
857.219000
20
127.469000
11
856.193710
21
126.443730
0
LINE
8
Layer 1
10
856.193710
20
126.443730
11
855.168450
21
125.418430
0
LINE
8
Layer 1
10
855.168450
20
125.418430
11
467.518000
21
125.418000
0
LINE
8
Layer 1
10
467.518000
20
125.418000
11
79.867600
21
125.418000
0
LINE
8
Layer 1
10
79.867600
20
125.418000
11
78.844310
21
126.521570
0
LINE
8
Layer 1
10
78.844310
20
126.521570
11
77.821030
21
127.625120
0
LINE
8
Layer 1
10
77.821030
20
127.625120
11
77.821000
21
412.704000
0
LINE
8
Layer 1
10
77.821000
20
412.704000
11
77.821000
21
697.783000
0
LINE
8
Layer 1
10
77.821000
20
697.783000
11
69.765200
21
697.783000
0
LINE
8
Layer 1
10
69.765200
20
697.783000
11
61.709400
21
697.783000
0
LINE
8
Layer 1
10
61.709400
20
697.783000
11
61.709400
21
699.394000
0
LINE
8
Layer 1
10
61.709400
20
699.394000
11
61.709400
21
701.005000
0
LINE
8
Layer 1
10
61.709400
20
701.005000
11
70.470090
21
700.992400
0
LINE
8
Layer 1
10
70.470090
20
700.992400
11
79.230780
21
700.979800
0
LINE
8
Layer 1
10
79.230780
20
700.979800
11
80.036343
21
700.371290
0
LINE
8
Layer 1
10
80.036343
20
700.371290
11
80.841932
21
699.762770
0
LINE
8
Layer 1
10
80.841932
20
699.762770
11
81.053399
21
673.497870
0
LINE
8
Layer 1
10
81.053399
20
673.497870
11
81.264866
21
647.232970
0
LINE
8
Layer 1
10
81.264866
20
647.232970
11
81.355466
21
647.131380
0
LINE
8
Layer 1
10
81.355466
20
647.131380
11
81.446066
21
647.029800
0
LINE
8
Layer 1
10
81.446066
20
647.029800
11
183.050066
21
647.131380
0
LINE
8
Layer 1
10
183.050066
20
647.131380
11
284.654066
21
647.232970
0
LINE
8
Layer 1
10
284.654066
20
647.232970
11
284.756026
21
709.967470
0
LINE
8
Layer 1
10
284.756026
20
709.967470
11
284.857996
21
772.701970
0
LINE
8
Layer 1
10
284.857996
20
772.701970
11
286.265000
21
772.702000
0
LINE
8
Layer 1
10
286.265000
20
772.702000
11
287.672000
21
772.702000
0
LINE
8
Layer 1
10
287.672000
20
772.702000
11
287.774220
21
715.606500
0
LINE
8
Layer 1
10
287.774220
20
715.606500
11
287.876300
21
658.511000
0
LINE
8
Layer 1
10
287.876300
20
658.511000
11
313.554200
21
658.407400
0
LINE
8
Layer 1
10
313.554200
20
658.407400
11
339.232000
21
658.303670
0
LINE
8
Layer 1
10
339.232000
20
658.303670
11
339.232000
21
715.504000
0
LINE
8
Layer 1
10
339.232000
20
715.504000
11
339.232000
21
772.703000
0
LINE
8
Layer 1
10
339.232000
20
772.703000
11
340.642000
21
772.703000
0
LINE
8
Layer 1
10
340.642000
20
772.703000
11
342.051000
21
772.703000
0
LINE
8
Layer 1
10
342.051000
20
772.703000
11
342.051000
21
714.771000
0
LINE
8
Layer 1
10
342.051000
20
714.771000
11
342.051000
21
656.840000
0
LINE
8
Layer 1
10
342.051000
20
656.840000
11
341.118750
21
655.964200
0
LINE
8
Layer 1
10
341.118750
20
655.964200
11
340.186520
21
655.088410
0
LINE
8
Layer 1
10
340.186520
20
655.088410
11
313.931000
21
655.088000
0
LINE
8
Layer 1
10
313.931000
20
655.088000
11
287.675000
21
655.088000
0
LINE
8
Layer 1
10
287.675000
20
655.088000
11
287.675000
21
650.344000
0
LINE
8
Layer 1
10
287.675000
20
650.344000
11
287.675000
21
645.600000
0
LINE
8
Layer 1
10
287.675000
20
645.600000
11
286.768700
21
644.805600
0
LINE
8
Layer 1
10
286.768700
20
644.805600
11
285.862440
21
644.011210
0
LINE
8
Layer 1
10
285.862440
20
644.011210
11
183.452440
21
643.908110
0
LINE
8
Layer 1
10
183.452440
20
643.908110
11
81.042440
21
643.805020
0
LINE
8
Layer 1
10
81.042440
20
643.805020
11
81.143391
21
386.324020
0
LINE
8
Layer 1
10
81.143391
20
386.324020
11
81.244342
21
128.843020
0
LINE
8
Layer 1
10
81.244342
20
128.843020
11
467.620342
21
128.742060
0
LINE
8
Layer 1
10
467.620342
20
128.742060
11
853.996342
21
128.641110
0
LINE
8
Layer 1
10
853.996342
20
128.641110
11
853.997000
21
138.219000
0
LINE
8
Layer 1
10
853.997000
20
138.219000
11
853.997000
21
147.796000
0
LINE
8
Layer 1
10
853.997000
20
147.796000
11
854.624020
21
148.691210
0
LINE
8
Layer 1
10
854.624020
20
148.691210
11
855.251050
21
149.586390
0
LINE
8
Layer 1
10
855.251050
20
149.586390
11
894.632000
21
149.587000
0
LINE
8
Layer 1
10
894.632000
20
149.587000
11
934.012000
21
149.587000
0
LINE
8
Layer 1
10
934.012000
20
149.587000
11
934.887780
21
148.654740
0
LINE
8
Layer 1
10
934.887780
20
148.654740
11
935.763580
21
147.722540
0
LINE
8
Layer 1
10
935.763580
20
147.722540
11
935.764000
21
138.186000
0
LINE
8
Layer 1
10
935.764000
20
138.186000
11
935.764000
21
128.649000
0
LINE
8
Layer 1
10
935.764000
20
128.649000
11
999.629200
21
128.544510
0
LINE
8
Layer 1
10
999.629200
20
128.544510
11
1063.494500
21
128.440280
0
LINE
8
Layer 1
10
1063.494500
20
128.440280
11
1064.268100
21
127.433290
0
LINE
8
Layer 1
10
1064.268100
20
127.433290
11
1065.041600
21
126.426320
0
LINE
8
Layer 1
10
1065.041600
20
126.426320
11
1065.051600
21
114.846120
0
LINE
8
Layer 1
10
1065.051600
20
114.846120
11
1065.061600
21
103.265920
0
LINE
8
Layer 1
10
1065.061600
20
103.265920
11
1063.450000
21
103.266000
0
LINE
8
Layer 1
10
1063.450000
20
103.266000
11
1063.450000
21
103.265000
0
LINE
8
Layer 1
10
538.715000
20
152.002000
11
319.191000
21
152.002000
0
LINE
8
Layer 1
10
319.191000
20
152.002000
11
318.638190
21
152.668070
0
LINE
8
Layer 1
10
318.638190
20
152.668070
11
318.085390
21
153.334150
0
LINE
8
Layer 1
10
318.085390
20
153.334150
11
317.982170
21
246.217350
0
LINE
8
Layer 1
10
317.982170
20
246.217350
11
317.878950
21
339.100650
0
LINE
8
Layer 1
10
317.878950
20
339.100650
11
318.904760
21
340.206950
0
LINE
8
Layer 1
10
318.904760
20
340.206950
11
319.930590
21
341.313250
0
LINE
8
Layer 1
10
319.930590
20
341.313250
11
448.001000
21
341.314000
0
LINE
8
Layer 1
10
448.001000
20
341.314000
11
576.072000
21
341.314000
0
LINE
8
Layer 1
10
576.072000
20
341.314000
11
576.072000
21
524.872000
0
LINE
8
Layer 1
10
576.072000
20
524.872000
11
576.072000
21
708.431000
0
LINE
8
Layer 1
10
576.072000
20
708.431000
11
577.141620
21
709.350110
0
LINE
8
Layer 1
10
577.141620
20
709.350110
11
578.211270
21
710.269200
0
LINE
8
Layer 1
10
578.211270
20
710.269200
11
665.756000
21
710.269000
0
LINE
8
Layer 1
10
665.756000
20
710.269000
11
753.300000
21
710.269000
0
LINE
8
Layer 1
10
753.300000
20
710.269000
11
753.300000
21
717.676000
0
LINE
8
Layer 1
10
753.300000
20
717.676000
11
753.300000
21
725.083000
0
LINE
8
Layer 1
10
753.300000
20
725.083000
11
754.069980
21
726.033910
0
LINE
8
Layer 1
10
754.069980
20
726.033910
11
754.839960
21
726.984810
0
LINE
8
Layer 1
10
754.839960
20
726.984810
11
837.950960
21
727.130190
0
LINE
8
Layer 1
10
837.950960
20
727.130190
11
921.061960
21
727.275570
0
LINE
8
Layer 1
10
921.061960
20
727.275570
11
942.539960
21
726.981060
0
LINE
8
Layer 1
10
942.539960
20
726.981060
11
964.017960
21
726.686550
0
LINE
8
Layer 1
10
964.017960
20
726.686550
11
964.794110
21
725.853440
0
LINE
8
Layer 1
10
964.794110
20
725.853440
11
965.570270
21
725.020330
0
LINE
8
Layer 1
10
965.570270
20
725.020330
11
965.562270
21
441.633330
0
LINE
8
Layer 1
10
965.562270
20
441.633330
11
965.556270
21
158.246330
0
LINE
8
Layer 1
10
965.556270
20
158.246330
11
964.600210
21
157.340060
0
LINE
8
Layer 1
10
964.600210
20
157.340060
11
963.644100
21
156.433780
0
LINE
8
Layer 1
10
963.644100
20
156.433780
11
861.694000
21
156.433000
0
LINE
8
Layer 1
10
861.694000
20
156.433000
11
759.744000
21
156.433000
0
LINE
8
Layer 1
10
759.744000
20
156.433000
11
759.744000
21
155.085000
0
LINE
8
Layer 1
10
759.744000
20
155.085000
11
759.744000
21
153.737000
0
LINE
8
Layer 1
10
759.744000
20
153.737000
11
758.991880
21
152.869790
0
LINE
8
Layer 1
10
758.991880
20
152.869790
11
758.239750
21
152.002580
0
LINE
8
Layer 1
10
758.239750
20
152.002580
11
538.716000
21
152.002000
0
LINE
8
Layer 1
10
538.716000
20
152.002000
11
538.715000
21
152.002000
0
LINE
8
Layer 1
10
538.813700
20
154.821540
11
756.522000
21
154.822000
0
LINE
8
Layer 1
10
756.522000
20
154.822000
11
756.522000
21
155.628000
0
LINE
8
Layer 1
10
756.522000
20
155.628000
11
756.522000
21
156.433000
0
LINE
8
Layer 1
10
756.522000
20
156.433000
11
756.041000
21
156.433000
0
LINE
8
Layer 1
10
756.041000
20
156.433000
11
755.559000
21
156.433000
0
LINE
8
Layer 1
10
755.559000
20
156.433000
11
754.429300
21
157.515350
0
LINE
8
Layer 1
10
754.429300
20
157.515350
11
753.299600
21
158.597680
0
LINE
8
Layer 1
10
753.299600
20
158.597680
11
753.300000
21
432.822000
0
LINE
8
Layer 1
10
753.300000
20
432.822000
11
753.300000
21
707.047000
0
LINE
8
Layer 1
10
753.300000
20
707.047000
11
731.549000
21
707.047000
0
LINE
8
Layer 1
10
731.549000
20
707.047000
11
709.798000
21
707.047000
0
LINE
8
Layer 1
10
709.798000
20
707.047000
11
709.798000
21
455.102000
0
LINE
8
Layer 1
10
709.798000
20
455.102000
11
709.798000
21
203.157000
0
LINE
8
Layer 1
10
709.798000
20
203.157000
11
708.992410
21
202.351410
0
LINE
8
Layer 1
10
708.992410
20
202.351410
11
708.186850
21
201.545820
0
LINE
8
Layer 1
10
708.186850
20
201.545820
11
514.647000
21
201.546000
0
LINE
8
Layer 1
10
514.647000
20
201.546000
11
321.106000
21
201.546000
0
LINE
8
Layer 1
10
321.106000
20
201.546000
11
321.106000
21
178.184000
0
LINE
8
Layer 1
10
321.106000
20
178.184000
11
321.106000
21
154.822000
0
LINE
8
Layer 1
10
321.106000
20
154.822000
11
538.813700
21
154.821540
0
LINE
8
Layer 1
10
529.146740
20
178.870440
11
333.793740
21
178.787540
0
LINE
8
Layer 1
10
333.793740
20
178.787540
11
328.162850
21
178.900220
0
LINE
8
Layer 1
10
328.162850
20
178.900220
11
322.531970
21
179.012910
0
LINE
8
Layer 1
10
322.531970
20
179.012910
11
322.141150
21
179.403740
0
LINE
8
Layer 1
10
322.141150
20
179.403740
11
321.750330
21
179.794560
0
LINE
8
Layer 1
10
321.750330
20
179.794560
11
327.369230
21
179.800560
0
LINE
8
Layer 1
10
327.369230
20
179.800560
11
332.988150
21
179.806560
0
LINE
8
Layer 1
10
332.988150
20
179.806560
11
333.502220
21
180.132810
0
LINE
8
Layer 1
10
333.502220
20
180.132810
11
334.016310
21
180.459030
0
LINE
8
Layer 1
10
334.016310
20
180.459030
11
333.905010
21
186.873380
0
LINE
8
Layer 1
10
333.905010
20
186.873380
11
333.793710
21
193.287930
0
LINE
8
Layer 1
10
333.793710
20
193.287930
11
327.953260
21
193.489330
0
LINE
8
Layer 1
10
327.953260
20
193.489330
11
322.112810
21
193.690720
0
LINE
8
Layer 1
10
322.112810
20
193.690720
11
322.113000
21
194.094000
0
LINE
8
Layer 1
10
322.113000
20
194.094000
11
322.113000
21
194.497000
0
LINE
8
Layer 1
10
322.113000
20
194.497000
11
327.841750
21
194.608670
0
LINE
8
Layer 1
10
327.841750
20
194.608670
11
333.570520
21
194.720480
0
LINE
8
Layer 1
10
333.570520
20
194.720480
11
334.387090
21
193.903900
0
LINE
8
Layer 1
10
334.387090
20
193.903900
11
335.203670
21
193.087330
0
LINE
8
Layer 1
10
335.203670
20
193.087330
11
335.204000
21
186.686000
0
LINE
8
Layer 1
10
335.204000
20
186.686000
11
335.204000
21
180.284000
0
LINE
8
Layer 1
10
335.204000
20
180.284000
11
335.841130
21
180.039500
0
LINE
8
Layer 1
10
335.841130
20
180.039500
11
336.478250
21
179.795010
0
LINE
8
Layer 1
10
336.478250
20
179.795010
11
528.804000
21
179.795000
0
LINE
8
Layer 1
10
528.804000
20
179.795000
11
721.129000
21
179.795000
0
LINE
8
Layer 1
10
721.129000
20
179.795000
11
721.908070
21
180.211980
0
LINE
8
Layer 1
10
721.908070
20
180.211980
11
722.687200
21
180.628940
0
LINE
8
Layer 1
10
722.687200
20
180.628940
11
722.688000
21
187.247000
0
LINE
8
Layer 1
10
722.688000
20
187.247000
11
722.688000
21
193.864000
0
LINE
8
Layer 1
10
722.688000
20
193.864000
11
723.467100
21
194.280970
0
LINE
8
Layer 1
10
723.467100
20
194.280970
11
724.246190
21
194.697940
0
LINE
8
Layer 1
10
724.246190
20
194.697940
11
730.501000
21
194.698000
0
LINE
8
Layer 1
10
730.501000
20
194.698000
11
736.757000
21
194.698000
0
LINE
8
Layer 1
10
736.757000
20
194.698000
11
737.147820
21
195.428240
0
LINE
8
Layer 1
10
737.147820
20
195.428240
11
737.538660
21
196.158510
0
LINE
8
Layer 1
10
737.538660
20
196.158510
11
737.570960
21
259.725510
0
LINE
8
Layer 1
10
737.570960
20
259.725510
11
737.603260
21
323.292410
0
LINE
8
Layer 1
10
737.603260
20
323.292410
11
737.145170
21
323.844400
0
LINE
8
Layer 1
10
737.145170
20
323.844400
11
736.687070
21
324.396350
0
LINE
8
Layer 1
10
736.687070
20
324.396350
11
729.932000
21
324.397000
0
LINE
8
Layer 1
10
729.932000
20
324.397000
11
723.177000
21
324.397000
0
LINE
8
Layer 1
10
723.177000
20
324.397000
11
722.932510
21
325.034110
0
LINE
8
Layer 1
10
722.932510
20
325.034110
11
722.688020
21
325.671250
0
LINE
8
Layer 1
10
722.688020
20
325.671250
11
722.688000
21
332.439000
0
LINE
8
Layer 1
10
722.688000
20
332.439000
11
722.688000
21
339.207000
0
LINE
8
Layer 1
10
722.688000
20
339.207000
11
723.680780
21
339.857510
0
LINE
8
Layer 1
10
723.680780
20
339.857510
11
724.673590
21
340.508010
0
LINE
8
Layer 1
10
724.673590
20
340.508010
11
730.904000
21
340.508000
0
LINE
8
Layer 1
10
730.904000
20
340.508000
11
737.134000
21
340.508000
0
LINE
8
Layer 1
10
737.134000
20
340.508000
11
737.378830
21
341.279350
0
LINE
8
Layer 1
10
737.378830
20
341.279350
11
737.623630
21
342.050660
0
LINE
8
Layer 1
10
737.623630
20
342.050660
11
737.362310
21
343.091900
0
LINE
8
Layer 1
10
737.362310
20
343.091900
11
737.100970
21
344.133110
0
LINE
8
Layer 1
10
737.100970
20
344.133110
11
730.528000
21
344.133000
0
LINE
8
Layer 1
10
730.528000
20
344.133000
11
723.954000
21
344.133000
0
LINE
8
Layer 1
10
723.954000
20
344.133000
11
723.321030
21
344.765950
0
LINE
8
Layer 1
10
723.321030
20
344.765950
11
722.688080
21
345.398940
0
LINE
8
Layer 1
10
722.688080
20
345.398940
11
722.688000
21
352.274000
0
LINE
8
Layer 1
10
722.688000
20
352.274000
11
722.688000
21
359.149000
0
LINE
8
Layer 1
10
722.688000
20
359.149000
11
723.392870
21
359.684100
0
LINE
8
Layer 1
10
723.392870
20
359.684100
11
724.097750
21
360.219180
0
LINE
8
Layer 1
10
724.097750
20
360.219180
11
730.361140
21
360.231780
0
LINE
8
Layer 1
10
730.361140
20
360.231780
11
736.624510
21
360.244380
0
LINE
8
Layer 1
10
736.624510
20
360.244380
11
737.107870
21
360.727730
0
LINE
8
Layer 1
10
737.107870
20
360.727730
11
737.591220
21
361.211070
0
LINE
8
Layer 1
10
737.591220
20
361.211070
11
737.591000
21
526.799000
0
LINE
8
Layer 1
10
737.591000
20
526.799000
11
737.591000
21
692.386000
0
LINE
8
Layer 1
10
737.591000
20
692.386000
11
737.107650
21
692.869350
0
LINE
8
Layer 1
10
737.107650
20
692.869350
11
736.624290
21
693.352710
0
LINE
8
Layer 1
10
736.624290
20
693.352710
11
730.323000
21
693.352000
0
LINE
8
Layer 1
10
730.323000
20
693.352000
11
724.021000
21
693.352000
0
LINE
8
Layer 1
10
724.021000
20
693.352000
11
723.354370
21
694.088590
0
LINE
8
Layer 1
10
723.354370
20
694.088590
11
722.687770
21
694.825190
0
LINE
8
Layer 1
10
722.687770
20
694.825190
11
722.688000
21
700.308000
0
LINE
8
Layer 1
10
722.688000
20
700.308000
11
722.688000
21
705.791000
0
LINE
8
Layer 1
10
722.688000
20
705.791000
11
723.090780
21
706.039950
0
LINE
8
Layer 1
10
723.090780
20
706.039950
11
723.493570
21
706.288880
0
LINE
8
Layer 1
10
723.493570
20
706.288880
11
723.494000
21
701.257000
0
LINE
8
Layer 1
10
723.494000
20
701.257000
11
723.494000
21
696.224000
0
LINE
8
Layer 1
10
723.494000
20
696.224000
11
723.886800
21
695.190810
0
LINE
8
Layer 1
10
723.886800
20
695.190810
11
724.279650
21
694.157610
0
LINE
8
Layer 1
10
724.279650
20
694.157610
11
730.518000
21
694.158000
0
LINE
8
Layer 1
10
730.518000
20
694.158000
11
736.757000
21
694.158000
0
LINE
8
Layer 1
10
736.757000
20
694.158000
11
737.173970
21
694.937100
0
LINE
8
Layer 1
10
737.173970
20
694.937100
11
737.590940
21
695.716190
0
LINE
8
Layer 1
10
737.590940
20
695.716190
11
737.591000
21
701.059000
0
LINE
8
Layer 1
10
737.591000
20
701.059000
11
737.591000
21
706.403000
0
LINE
8
Layer 1
10
737.591000
20
706.403000
11
737.994510
21
705.999500
0
LINE
8
Layer 1
10
737.994510
20
705.999500
11
738.397990
21
705.596000
0
LINE
8
Layer 1
10
738.397990
20
705.596000
11
738.498060
21
467.568000
0
LINE
8
Layer 1
10
738.498060
20
467.568000
11
738.598120
21
229.540000
0
LINE
8
Layer 1
10
738.598120
20
229.540000
11
739.237140
21
228.301050
0
LINE
8
Layer 1
10
739.237140
20
228.301050
11
739.876160
21
227.062140
0
LINE
8
Layer 1
10
739.876160
20
227.062140
11
739.515400
21
226.086830
0
LINE
8
Layer 1
10
739.515400
20
226.086830
11
739.154610
21
225.111560
0
LINE
8
Layer 1
10
739.154610
20
225.111560
11
739.376520
21
217.860200
0
LINE
8
Layer 1
10
739.376520
20
217.860200
11
739.598450
21
210.608860
0
LINE
8
Layer 1
10
739.598450
20
210.608860
11
739.807250
21
206.178180
0
LINE
8
Layer 1
10
739.807250
20
206.178180
11
740.016050
21
201.747480
0
LINE
8
Layer 1
10
740.016050
20
201.747480
11
739.445390
21
202.477900
0
LINE
8
Layer 1
10
739.445390
20
202.477900
11
738.874770
21
203.208320
0
LINE
8
Layer 1
10
738.874770
20
203.208320
11
738.671830
21
202.075120
0
LINE
8
Layer 1
10
738.671830
20
202.075120
11
738.468940
21
200.941910
0
LINE
8
Layer 1
10
738.468940
20
200.941910
11
738.437640
21
190.907810
0
LINE
8
Layer 1
10
738.437640
20
190.907810
11
738.406240
21
180.873810
0
LINE
8
Layer 1
10
738.406240
20
180.873810
11
738.853750
21
180.334600
0
LINE
8
Layer 1
10
738.853750
20
180.334600
11
740.453713
21
179.955290
0
LINE
8
Layer 1
10
740.453713
20
179.955290
11
740.890329
21
179.663985
0
LINE
8
Layer 1
10
740.890329
20
179.663985
11
740.420440
21
179.448315
0
LINE
8
Layer 1
10
740.420440
20
179.448315
11
739.300886
21
179.295909
0
LINE
8
Layer 1
10
739.300886
20
179.295909
11
733.462850
21
179.071500
0
LINE
8
Layer 1
10
733.462850
20
179.071500
11
724.500760
21
178.954270
0
LINE
8
Layer 1
10
724.500760
20
178.954270
11
529.147760
21
178.871270
0
LINE
8
Layer 1
10
529.147760
20
178.871270
11
529.146740
21
178.870440
0
LINE
8
Layer 1
10
730.484740
20
179.794480
11
736.624000
21
179.795000
0
LINE
8
Layer 1
10
736.624000
20
179.795000
11
737.107350
21
180.278360
0
LINE
8
Layer 1
10
737.107350
20
180.278360
11
737.590700
21
180.761700
0
LINE
8
Layer 1
10
737.590700
20
180.761700
11
737.591000
21
186.489000
0
LINE
8
Layer 1
10
737.591000
20
186.489000
11
737.591000
21
192.216000
0
LINE
8
Layer 1
10
737.591000
20
192.216000
11
737.346500
21
192.853130
0
LINE
8
Layer 1
10
737.346500
20
192.853130
11
737.102010
21
193.490270
0
LINE
8
Layer 1
10
737.102010
20
193.490270
11
730.524000
21
193.490000
0
LINE
8
Layer 1
10
730.524000
20
193.490000
11
723.945000
21
193.490000
0
LINE
8
Layer 1
10
723.945000
20
193.490000
11
723.675090
21
191.689890
0
LINE
8
Layer 1
10
723.675090
20
191.689890
11
723.405140
21
189.889790
0
LINE
8
Layer 1
10
723.405140
20
189.889790
11
723.555700
21
185.345950
0
LINE
8
Layer 1
10
723.555700
20
185.345950
11
723.706270
21
180.802110
0
LINE
8
Layer 1
10
723.706270
20
180.802110
11
724.026170
21
180.298630
0
LINE
8
Layer 1
10
724.026170
20
180.298630
11
724.346020
21
179.795130
0
LINE
8
Layer 1
10
724.346020
20
179.795130
11
730.484740
21
179.794480
0
LINE
8
Layer 1
10
730.517340
20
325.201480
11
736.757000
21
325.202000
0
LINE
8
Layer 1
10
736.757000
20
325.202000
11
737.173980
21
325.981130
0
LINE
8
Layer 1
10
737.173980
20
325.981130
11
737.590930
21
326.760190
0
LINE
8
Layer 1
10
737.590930
20
326.760190
11
737.584930
21
332.325060
0
LINE
8
Layer 1
10
737.584930
20
332.325060
11
737.578930
21
337.889890
0
LINE
8
Layer 1
10
737.578930
20
337.889890
11
737.197010
21
338.494070
0
LINE
8
Layer 1
10
737.197010
20
338.494070
11
736.815020
21
339.098260
0
LINE
8
Layer 1
10
736.815020
20
339.098260
11
730.542000
21
339.098000
0
LINE
8
Layer 1
10
730.542000
20
339.098000
11
724.270000
21
339.098000
0
LINE
8
Layer 1
10
724.270000
20
339.098000
11
723.888040
21
338.493810
0
LINE
8
Layer 1
10
723.888040
20
338.493810
11
723.506120
21
337.889630
0
LINE
8
Layer 1
10
723.506120
20
337.889630
11
723.500120
21
332.578880
0
LINE
8
Layer 1
10
723.500120
20
332.578880
11
723.494120
21
327.268140
0
LINE
8
Layer 1
10
723.494120
20
327.268140
11
723.886930
21
326.234950
0
LINE
8
Layer 1
10
723.886930
20
326.234950
11
724.279760
21
325.201740
0
LINE
8
Layer 1
10
724.279760
20
325.201740
11
730.519000
21
325.202000
0
LINE
8
Layer 1
10
730.519000
20
325.202000
11
730.517340
21
325.201480
0
LINE
8
Layer 1
10
730.544740
20
345.340980
11
737.094000
21
345.342000
0
LINE
8
Layer 1
10
737.094000
20
345.342000
11
737.336900
21
346.248270
0
LINE
8
Layer 1
10
737.336900
20
346.248270
11
737.579770
21
347.154540
0
LINE
8
Layer 1
10
737.579770
20
347.154540
11
737.585770
21
352.612360
0
LINE
8
Layer 1
10
737.585770
20
352.612360
11
737.591770
21
358.070160
0
LINE
8
Layer 1
10
737.591770
20
358.070160
11
737.108420
21
358.553510
0
LINE
8
Layer 1
10
737.108420
20
358.553510
11
736.625080
21
359.036850
0
LINE
8
Layer 1
10
736.625080
20
359.036850
11
730.477000
21
359.036000
0
LINE
8
Layer 1
10
730.477000
20
359.036000
11
724.328000
21
359.036000
0
LINE
8
Layer 1
10
724.328000
20
359.036000
11
723.911020
21
358.256880
0
LINE
8
Layer 1
10
723.911020
20
358.256880
11
723.494040
21
357.477810
0
LINE
8
Layer 1
10
723.494040
20
357.477810
11
723.494000
21
352.669000
0
LINE
8
Layer 1
10
723.494000
20
352.669000
11
723.494000
21
347.859000
0
LINE
8
Layer 1
10
723.494000
20
347.859000
11
723.745760
21
346.600270
0
LINE
8
Layer 1
10
723.745760
20
346.600270
11
723.997500
21
345.341550
0
LINE
8
Layer 1
10
723.997500
20
345.341550
11
730.546000
21
345.342000
0
LINE
8
Layer 1
10
730.546000
20
345.342000
11
730.544740
21
345.340980
0
LINE
8
Layer 1
10
764.967640
20
159.654980
11
773.440000
21
159.655000
0
LINE
8
Layer 1
10
773.440000
20
159.655000
11
773.339000
21
441.709000
0
LINE
8
Layer 1
10
773.339000
20
441.709000
11
773.238000
21
723.763000
0
LINE
8
Layer 1
10
773.238000
20
723.763000
11
764.779000
21
723.763000
0
LINE
8
Layer 1
10
764.779000
20
723.763000
11
756.321000
21
723.763000
0
LINE
8
Layer 1
10
756.321000
20
723.763000
11
756.218030
21
442.213000
0
LINE
8
Layer 1
10
756.218030
20
442.213000
11
756.115190
21
160.663000
0
LINE
8
Layer 1
10
756.115190
20
160.663000
11
756.306190
21
160.159520
0
LINE
8
Layer 1
10
756.306190
20
160.159520
11
756.497150
21
159.656040
0
LINE
8
Layer 1
10
756.497150
20
159.656040
11
764.967640
21
159.654980
0
LINE
8
Layer 1
10
758.233290
20
703.972980
11
757.327000
21
703.730110
0
LINE
8
Layer 1
10
757.327000
20
703.730110
11
757.328000
21
705.238000
0
LINE
8
Layer 1
10
757.328000
20
705.238000
11
757.328000
21
706.745000
0
LINE
8
Layer 1
10
757.328000
20
706.745000
11
758.586720
21
706.493270
0
LINE
8
Layer 1
10
758.586720
20
706.493270
11
759.845440
21
706.241520
0
LINE
8
Layer 1
10
759.845440
20
706.241520
11
766.038000
21
706.241000
0
LINE
8
Layer 1
10
766.038000
20
706.241000
11
772.231000
21
706.241000
0
LINE
8
Layer 1
10
772.231000
20
706.241000
11
772.231000
21
705.234000
0
LINE
8
Layer 1
10
772.231000
20
705.234000
11
772.231000
21
704.227000
0
LINE
8
Layer 1
10
772.231000
20
704.227000
11
765.685660
21
704.221000
0
LINE
8
Layer 1
10
765.685660
20
704.221000
11
759.140320
21
704.215000
0
LINE
8
Layer 1
10
759.140320
20
704.215000
11
758.234050
21
703.972140
0
LINE
8
Layer 1
10
758.234050
20
703.972140
11
758.233290
21
703.972980
0
LINE
8
Layer 1
10
757.810340
20
707.368610
11
757.327000
21
706.885270
0
LINE
8
Layer 1
10
757.327000
20
706.885270
11
757.328000
21
707.852000
0
LINE
8
Layer 1
10
757.328000
20
707.852000
11
757.328000
21
708.819000
0
LINE
8
Layer 1
10
757.328000
20
708.819000
11
757.811340
21
708.335640
0
LINE
8
Layer 1
10
757.811340
20
708.335640
11
758.294700
21
707.852300
0
LINE
8
Layer 1
10
758.294700
20
707.852300
11
757.810340
21
707.368610
0
LINE
8
Layer 1
10
859.241340
20
159.654610
11
942.225000
21
159.655000
0
LINE
8
Layer 1
10
942.225000
20
159.655000
11
942.116100
21
168.012880
0
LINE
8
Layer 1
10
942.116100
20
168.012880
11
942.007330
21
176.370770
0
LINE
8
Layer 1
10
942.007330
20
176.370770
11
859.133230
21
176.472480
0
LINE
8
Layer 1
10
859.133230
20
176.472480
11
776.259230
21
176.574190
0
LINE
8
Layer 1
10
776.259230
20
176.574190
11
776.259000
21
168.115000
0
LINE
8
Layer 1
10
776.259000
20
168.115000
11
776.259000
21
159.656000
0
LINE
8
Layer 1
10
776.259000
20
159.656000
11
859.241340
21
159.654610
0
LINE
8
Layer 1
10
953.843240
20
159.654610
11
962.254000
21
159.655000
0
LINE
8
Layer 1
10
962.254000
20
159.655000
11
962.496880
21
160.561270
0
LINE
8
Layer 1
10
962.496880
20
160.561270
11
962.739770
21
161.467550
0
LINE
8
Layer 1
10
962.739770
20
161.467550
11
962.745770
21
442.495550
0
LINE
8
Layer 1
10
962.745770
20
442.495550
11
962.751770
21
723.523550
0
LINE
8
Layer 1
10
962.751770
20
723.523550
11
961.442710
21
723.760890
0
LINE
8
Layer 1
10
961.442710
20
723.760890
11
960.133640
21
723.998230
0
LINE
8
Layer 1
10
960.133640
20
723.998230
11
952.883420
21
723.879730
0
LINE
8
Layer 1
10
952.883420
20
723.879730
11
945.633200
21
723.761500
0
LINE
8
Layer 1
10
945.633200
20
723.761500
11
945.533900
21
441.707500
0
LINE
8
Layer 1
10
945.533900
20
441.707500
11
945.434600
21
159.653500
0
LINE
8
Layer 1
10
945.434600
20
159.653500
11
953.844000
21
159.655000
0
LINE
8
Layer 1
10
953.844000
20
159.655000
11
953.843240
21
159.654610
0
LINE
8
Layer 1
10
953.641800
20
176.974610
11
946.614000
21
176.975000
0
LINE
8
Layer 1
10
946.614000
20
176.975000
11
946.389560
21
177.559890
0
LINE
8
Layer 1
10
946.389560
20
177.559890
11
946.165130
21
178.144780
0
LINE
8
Layer 1
10
946.165130
20
178.144780
11
946.425970
21
178.566870
0
LINE
8
Layer 1
10
946.425970
20
178.566870
11
946.686830
21
178.988960
0
LINE
8
Layer 1
10
946.686830
20
178.988960
11
953.409800
21
178.982960
0
LINE
8
Layer 1
10
953.409800
20
178.982960
11
960.132750
21
178.976960
0
LINE
8
Layer 1
10
960.132750
20
178.976960
11
961.039030
21
178.734070
0
LINE
8
Layer 1
10
961.039030
20
178.734070
11
961.945300
21
178.491200
0
LINE
8
Layer 1
10
961.945300
20
178.491200
11
961.945000
21
177.978000
0
LINE
8
Layer 1
10
961.945000
20
177.978000
11
961.945000
21
177.463000
0
LINE
8
Layer 1
10
961.945000
20
177.463000
11
961.307870
21
177.218510
0
LINE
8
Layer 1
10
961.307870
20
177.218510
11
960.670750
21
176.974010
0
LINE
8
Layer 1
10
960.670750
20
176.974010
11
953.642000
21
176.974000
0
LINE
8
Layer 1
10
953.642000
20
176.974000
11
953.641800
21
176.974610
0
LINE
8
Layer 1
10
953.372670
20
704.231610
11
946.613290
21
704.225610
0
LINE
8
Layer 1
10
946.613290
20
704.225610
11
946.388850
21
704.810520
0
LINE
8
Layer 1
10
946.388850
20
704.810520
11
946.164420
21
705.395400
0
LINE
8
Layer 1
10
946.164420
20
705.395400
11
946.425260
21
705.817480
0
LINE
8
Layer 1
10
946.425260
20
705.817480
11
946.686120
21
706.239560
0
LINE
8
Layer 1
10
946.686120
20
706.239560
11
953.679000
21
706.241000
0
LINE
8
Layer 1
10
953.679000
20
706.241000
11
960.671000
21
706.241000
0
LINE
8
Layer 1
10
960.671000
20
706.241000
11
961.308120
21
705.996510
0
LINE
8
Layer 1
10
961.308120
20
705.996510
11
961.945250
21
705.752020
0
LINE
8
Layer 1
10
961.945250
20
705.752020
11
961.945000
21
705.238000
0
LINE
8
Layer 1
10
961.945000
20
705.238000
11
961.945000
21
704.724000
0
LINE
8
Layer 1
10
961.945000
20
704.724000
11
961.038730
21
704.481140
0
LINE
8
Layer 1
10
961.038730
20
704.481140
11
960.132450
21
704.238260
0
LINE
8
Layer 1
10
960.132450
20
704.238260
11
953.373080
21
704.232260
0
LINE
8
Layer 1
10
953.373080
20
704.232260
11
953.372670
21
704.231610
0
LINE
8
Layer 1
10
858.931070
20
179.490610
11
941.603670
21
179.592320
0
LINE
8
Layer 1
10
941.603670
20
179.592320
11
941.704750
21
441.708320
0
LINE
8
Layer 1
10
941.704750
20
441.708320
11
941.805700
21
703.824320
0
LINE
8
Layer 1
10
941.805700
20
703.824320
11
859.032000
21
703.825000
0
LINE
8
Layer 1
10
859.032000
20
703.825000
11
776.259000
21
703.825000
0
LINE
8
Layer 1
10
776.259000
20
703.825000
11
776.259000
21
441.607000
0
LINE
8
Layer 1
10
776.259000
20
441.607000
11
776.259000
21
179.390000
0
LINE
8
Layer 1
10
776.259000
20
179.390000
11
858.931070
21
179.490610
0
LINE
8
Layer 1
10
512.810000
20
204.365000
11
704.515000
21
204.365000
0
LINE
8
Layer 1
10
704.515000
20
204.365000
11
704.734660
21
204.720450
0
LINE
8
Layer 1
10
704.734660
20
204.720450
11
704.954310
21
205.075870
0
LINE
8
Layer 1
10
704.954310
20
205.075870
11
704.059870
21
206.230910
0
LINE
8
Layer 1
10
704.059870
20
206.230910
11
703.165390
21
207.385920
0
LINE
8
Layer 1
10
703.165390
20
207.385920
11
702.454200
21
208.166760
0
LINE
8
Layer 1
10
702.454200
20
208.166760
11
701.742980
21
208.947580
0
LINE
8
Layer 1
10
701.742980
20
208.947580
11
701.743000
21
209.275000
0
LINE
8
Layer 1
10
701.743000
20
209.275000
11
701.743000
21
209.601000
0
LINE
8
Layer 1
10
701.743000
20
209.601000
11
701.038110
21
210.319220
0
LINE
8
Layer 1
10
701.038110
20
210.319220
11
700.333240
21
211.037430
0
LINE
8
Layer 1
10
700.333240
20
211.037430
11
697.935100
21
214.246410
0
LINE
8
Layer 1
10
697.935100
20
214.246410
11
695.536930
21
217.455400
0
LINE
8
Layer 1
10
695.536930
20
217.455400
11
695.215480
21
217.858200
0
LINE
8
Layer 1
10
695.215480
20
217.858200
11
694.894000
21
218.260980
0
LINE
8
Layer 1
10
694.894000
20
218.260980
11
693.082260
21
220.517080
0
LINE
8
Layer 1
10
693.082260
20
220.517080
11
691.270470
21
222.773230
0
LINE
8
Layer 1
10
691.270470
20
222.773230
11
691.270000
21
223.001000
0
LINE
8
Layer 1
10
691.270000
20
223.001000
11
691.270000
21
223.228000
0
LINE
8
Layer 1
10
691.270000
20
223.228000
11
690.363710
21
224.318240
0
LINE
8
Layer 1
10
690.363710
20
224.318240
11
689.457430
21
225.408450
0
LINE
8
Layer 1
10
689.457430
20
225.408450
11
688.335870
21
226.567810
0
LINE
8
Layer 1
10
688.335870
20
226.567810
11
687.214310
21
227.727120
0
LINE
8
Layer 1
10
687.214310
20
227.727120
11
504.160000
21
227.727000
0
LINE
8
Layer 1
10
504.160000
20
227.727000
11
321.106000
21
227.727000
0
LINE
8
Layer 1
10
321.106000
20
227.727000
11
321.106000
21
216.046000
0
LINE
8
Layer 1
10
321.106000
20
216.046000
11
321.106000
21
204.365000
0
LINE
8
Layer 1
10
321.106000
20
204.365000
11
512.810000
21
204.365000
0
LINE
8
Layer 1
10
706.811000
20
207.184520
11
706.979000
21
207.185000
0
LINE
8
Layer 1
10
706.979000
20
207.185000
11
706.979000
21
457.116000
0
LINE
8
Layer 1
10
706.979000
20
457.116000
11
706.979000
21
707.047000
0
LINE
8
Layer 1
10
706.979000
20
707.047000
11
698.319000
21
707.047000
0
LINE
8
Layer 1
10
698.319000
20
707.047000
11
689.659000
21
707.047000
0
LINE
8
Layer 1
10
689.659000
20
707.047000
11
689.659000
21
468.341000
0
LINE
8
Layer 1
10
689.659000
20
468.341000
11
689.659000
21
229.635000
0
LINE
8
Layer 1
10
689.659000
20
229.635000
11
690.497450
21
228.278370
0
LINE
8
Layer 1
10
690.497450
20
228.278370
11
691.335860
21
226.921770
0
LINE
8
Layer 1
10
691.335860
20
226.921770
11
691.706000
21
226.921000
0
LINE
8
Layer 1
10
691.706000
20
226.921000
11
692.076000
21
226.921000
0
LINE
8
Layer 1
10
692.076000
20
226.921000
11
692.076000
21
226.502000
0
LINE
8
Layer 1
10
692.076000
20
226.502000
11
692.076000
21
226.082000
0
LINE
8
Layer 1
10
692.076000
20
226.082000
11
692.488130
21
225.595520
0
LINE
8
Layer 1
10
692.488130
20
225.595520
11
692.900240
21
225.109040
0
LINE
8
Layer 1
10
692.900240
20
225.109040
11
694.885760
21
222.588730
0
LINE
8
Layer 1
10
694.885760
20
222.588730
11
696.871220
21
220.068470
0
LINE
8
Layer 1
10
696.871220
20
220.068470
11
699.176220
21
216.848980
0
LINE
8
Layer 1
10
699.176220
20
216.848980
11
701.481240
21
213.629510
0
LINE
8
Layer 1
10
701.481240
20
213.629510
11
701.813000
21
213.629000
0
LINE
8
Layer 1
10
701.813000
20
213.629000
11
702.145000
21
213.629000
0
LINE
8
Layer 1
10
702.145000
20
213.629000
11
702.145000
21
213.231000
0
LINE
8
Layer 1
10
702.145000
20
213.231000
11
702.145000
21
212.833000
0
LINE
8
Layer 1
10
702.145000
20
212.833000
11
702.731040
21
212.123490
0
LINE
8
Layer 1
10
702.731040
20
212.123490
11
703.317150
21
211.414020
0
LINE
8
Layer 1
10
703.317150
20
211.414020
11
704.980670
21
209.299380
0
LINE
8
Layer 1
10
704.980670
20
209.299380
11
706.644200
21
207.184730
0
LINE
8
Layer 1
10
706.644200
20
207.184730
11
706.811000
21
207.184520
0
LINE
8
Layer 1
10
503.973000
20
230.546000
11
686.839000
21
230.546000
0
LINE
8
Layer 1
10
686.839000
20
230.546000
11
686.839000
21
468.797000
0
LINE
8
Layer 1
10
686.839000
20
468.797000
11
686.839000
21
707.047000
0
LINE
8
Layer 1
10
686.839000
20
707.047000
11
632.865000
21
707.047000
0
LINE
8
Layer 1
10
632.865000
20
707.047000
11
578.892000
21
707.047000
0
LINE
8
Layer 1
10
578.892000
20
707.047000
11
578.892000
21
523.339000
0
LINE
8
Layer 1
10
578.892000
20
523.339000
11
578.892000
21
339.630000
0
LINE
8
Layer 1
10
578.892000
20
339.630000
11
577.985740
21
338.873960
0
LINE
8
Layer 1
10
577.985740
20
338.873960
11
577.079460
21
338.117890
0
LINE
8
Layer 1
10
577.079460
20
338.117890
11
449.093460
21
338.104090
0
LINE
8
Layer 1
10
449.093460
20
338.104090
11
321.107460
21
338.090390
0
LINE
8
Layer 1
10
321.107460
20
338.090390
11
321.106000
21
284.318000
0
LINE
8
Layer 1
10
321.106000
20
284.318000
11
321.106000
21
230.546000
0
LINE
8
Layer 1
10
321.106000
20
230.546000
11
503.973000
21
230.546000
0
LINE
8
Layer 1
10
328.117000
20
324.397000
11
321.864000
21
324.397000
0
LINE
8
Layer 1
10
321.864000
20
324.397000
11
322.112950
21
324.799780
0
LINE
8
Layer 1
10
322.112950
20
324.799780
11
322.361880
21
325.202560
0
LINE
8
Layer 1
10
322.361880
20
325.202560
11
327.727000
21
325.202000
0
LINE
8
Layer 1
10
327.727000
20
325.202000
11
333.091000
21
325.202000
0
LINE
8
Layer 1
10
333.091000
20
325.202000
11
333.530900
21
325.732040
0
LINE
8
Layer 1
10
333.530900
20
325.732040
11
333.970800
21
326.262110
0
LINE
8
Layer 1
10
333.970800
20
326.262110
11
334.083740
21
331.573740
0
LINE
8
Layer 1
10
334.083740
20
331.573740
11
334.196680
21
336.885370
0
LINE
8
Layer 1
10
334.196680
20
336.885370
11
334.599470
21
336.885290
0
LINE
8
Layer 1
10
334.599470
20
336.885290
11
335.002260
21
336.885210
0
LINE
8
Layer 1
10
335.002260
20
336.885210
11
335.114310
21
331.441220
0
LINE
8
Layer 1
10
335.114310
20
331.441220
11
335.226370
21
325.997240
0
LINE
8
Layer 1
10
335.226370
20
325.997240
11
334.798010
21
325.196810
0
LINE
8
Layer 1
10
334.798010
20
325.196810
11
334.369630
21
324.396440
0
LINE
8
Layer 1
10
334.369630
20
324.396440
11
328.117000
21
324.397000
0
LINE
8
Layer 1
10
586.028000
20
344.133700
11
580.033000
21
344.133000
0
LINE
8
Layer 1
10
580.033000
20
344.133000
11
580.200270
21
344.636490
0
LINE
8
Layer 1
10
580.200270
20
344.636490
11
580.367550
21
345.139980
0
LINE
8
Layer 1
10
580.367550
20
345.139980
11
585.957190
21
345.252670
0
LINE
8
Layer 1
10
585.957190
20
345.252670
11
591.546820
21
345.365350
0
LINE
8
Layer 1
10
591.546820
20
345.365350
11
591.859190
21
345.856920
0
LINE
8
Layer 1
10
591.859190
20
345.856920
11
592.171520
21
346.348490
0
LINE
8
Layer 1
10
592.171520
20
346.348490
11
592.177520
21
352.209080
0
LINE
8
Layer 1
10
592.177520
20
352.209080
11
592.183520
21
358.069660
0
LINE
8
Layer 1
10
592.183520
20
358.069660
11
591.700170
21
358.553020
0
LINE
8
Layer 1
10
591.700170
20
358.553020
11
591.216820
21
359.036360
0
LINE
8
Layer 1
10
591.216820
20
359.036360
11
585.903000
21
359.037000
0
LINE
8
Layer 1
10
585.903000
20
359.037000
11
580.589000
21
359.037000
0
LINE
8
Layer 1
10
580.589000
20
359.037000
11
580.357140
21
359.641190
0
LINE
8
Layer 1
10
580.357140
20
359.641190
11
580.125310
21
360.245370
0
LINE
8
Layer 1
10
580.125310
20
360.245370
11
585.778000
21
360.245000
0
LINE
8
Layer 1
10
585.778000
20
360.245000
11
591.431000
21
360.245000
0
LINE
8
Layer 1
10
591.431000
20
360.245000
11
592.210080
21
359.828050
0
LINE
8
Layer 1
10
592.210080
20
359.828050
11
592.989190
21
359.411070
0
LINE
8
Layer 1
10
592.989190
20
359.411070
11
592.989000
21
352.256000
0
LINE
8
Layer 1
10
592.989000
20
352.256000
11
592.989000
21
345.100000
0
LINE
8
Layer 1
10
592.989000
20
345.100000
11
592.505650
21
344.616650
0
LINE
8
Layer 1
10
592.505650
20
344.616650
11
592.022310
21
344.133290
0
LINE
8
Layer 1
10
592.022310
20
344.133290
11
586.027000
21
344.133000
0
LINE
8
Layer 1
10
586.027000
20
344.133000
11
586.028000
21
344.133700
0
LINE
8
Layer 1
10
586.300410
20
693.352700
11
580.100000
21
693.352000
0
LINE
8
Layer 1
10
580.100000
20
693.352000
11
580.100000
21
693.755000
0
LINE
8
Layer 1
10
580.100000
20
693.755000
11
580.100000
21
694.158000
0
LINE
8
Layer 1
10
580.100000
20
694.158000
11
585.725000
21
694.158000
0
LINE
8
Layer 1
10
585.725000
20
694.158000
11
591.350000
21
694.158000
0
LINE
8
Layer 1
10
591.350000
20
694.158000
11
591.766980
21
694.937100
0
LINE
8
Layer 1
10
591.766980
20
694.937100
11
592.183930
21
695.716200
0
LINE
8
Layer 1
10
592.183930
20
695.716200
11
592.184000
21
700.979000
0
LINE
8
Layer 1
10
592.184000
20
700.979000
11
592.184000
21
706.241000
0
LINE
8
Layer 1
10
592.184000
20
706.241000
11
592.587000
21
706.241000
0
LINE
8
Layer 1
10
592.587000
20
706.241000
11
592.989000
21
706.241000
0
LINE
8
Layer 1
10
592.989000
20
706.241000
11
592.989000
21
700.434000
0
LINE
8
Layer 1
10
592.989000
20
700.434000
11
592.989000
21
694.626000
0
LINE
8
Layer 1
10
592.989000
20
694.626000
11
592.744510
21
693.988870
0
LINE
8
Layer 1
10
592.744510
20
693.988870
11
592.500020
21
693.351730
0
LINE
8
Layer 1
10
592.500020
20
693.351730
11
586.300410
21
693.352700
0
LINE
8
Layer 1
10
859.133410
20
706.744500
11
942.007410
21
706.846210
0
LINE
8
Layer 1
10
942.007410
20
706.846210
11
942.116690
21
715.074330
0
LINE
8
Layer 1
10
942.116690
20
715.074330
11
942.225850
21
723.302460
0
LINE
8
Layer 1
10
942.225850
20
723.302460
11
941.713840
21
723.627430
0
LINE
8
Layer 1
10
941.713840
20
723.627430
11
941.201760
21
723.952430
0
LINE
8
Layer 1
10
941.201760
20
723.952430
11
858.730560
21
723.958430
0
LINE
8
Layer 1
10
858.730560
20
723.958430
11
776.259360
21
723.964430
0
LINE
8
Layer 1
10
776.259360
20
723.964430
11
776.259000
21
715.303000
0
LINE
8
Layer 1
10
776.259000
20
715.303000
11
776.259000
21
706.642000
0
LINE
8
Layer 1
10
776.259000
20
706.642000
11
859.133410
21
706.744500
 0 
ENDSEC
 0 
EOF