999
"DXF R12 Output" (www.mydxf.blogspot.com)
 0 
SECTION
 2 
HEADER
 9 
$ACADVER
 1 
AC1009
 9 
$EXTMIN
 10 
 0 
 20 
 0 
 9 
$EXTMAX
 10 
 8.5 
 20 
 11 
 0 
ENDSEC
 0 
SECTION
 2 
ENTITIES
0
LINE
8
Layer 1
10
315.456000
20
368.737000
11
315.248998
21
369.919738
0
LINE
8
Layer 1
10
315.248998
20
369.919738
11
315.317079
21
371.480388
0
LINE
8
Layer 1
10
315.317079
20
371.480388
11
315.611647
21
373.257852
0
LINE
8
Layer 1
10
315.611647
20
373.257852
11
316.084102
21
375.091034
0
LINE
8
Layer 1
10
316.084102
20
375.091034
11
316.685850
21
376.818836
0
LINE
8
Layer 1
10
316.685850
20
376.818836
11
317.368292
21
378.280163
0
LINE
8
Layer 1
10
317.368292
20
378.280163
11
318.082831
21
379.313916
0
LINE
8
Layer 1
10
318.082831
20
379.313916
11
318.780870
21
379.759000
0
LINE
8
Layer 1
10
318.780870
20
379.759000
11
319.379839
21
379.690737
0
LINE
8
Layer 1
10
319.379839
20
379.690737
11
319.812652
21
379.292594
0
LINE
8
Layer 1
10
319.812652
20
379.292594
11
320.079243
21
378.569342
0
LINE
8
Layer 1
10
320.079243
20
378.569342
11
320.179544
21
377.525754
0
LINE
8
Layer 1
10
320.179544
20
377.525754
11
319.881003
21
374.496662
0
LINE
8
Layer 1
10
319.881003
20
374.496662
11
318.916490
21
370.243500
0
LINE
8
Layer 1
10
318.916490
20
370.243500
11
318.626237
21
369.484434
0
LINE
8
Layer 1
10
318.626237
20
369.484434
11
318.218732
21
368.855097
0
LINE
8
Layer 1
10
318.218732
20
368.855097
11
317.732271
21
368.372161
0
LINE
8
Layer 1
10
317.732271
20
368.372161
11
317.205151
21
368.052299
0
LINE
8
Layer 1
10
317.205151
20
368.052299
11
316.675670
21
367.912181
0
LINE
8
Layer 1
10
316.675670
20
367.912181
11
316.182123
21
367.968479
0
LINE
8
Layer 1
10
316.182123
20
367.968479
11
315.762807
21
368.237865
0
LINE
8
Layer 1
10
315.762807
20
368.237865
11
315.456020
21
368.737010
0
LINE
8
Layer 1
10
315.456020
20
368.737010
11
315.456000
21
368.737000
0
LINE
8
Layer 1
10
321.117340
20
393.288900
11
321.254283
21
394.474260
0
LINE
8
Layer 1
10
321.254283
20
394.474260
11
321.623622
21
396.025604
0
LINE
8
Layer 1
10
321.623622
20
396.025604
11
322.810540
21
399.580179
0
LINE
8
Layer 1
10
322.810540
20
399.580179
11
324.180203
21
402.660489
0
LINE
8
Layer 1
10
324.180203
20
402.660489
11
324.777973
21
403.619003
0
LINE
8
Layer 1
10
324.777973
20
403.619003
11
325.234720
21
403.974400
0
LINE
8
Layer 1
10
325.234720
20
403.974400
11
326.008725
21
403.883607
0
LINE
8
Layer 1
10
326.008725
20
403.883607
11
326.580708
21
403.600935
0
LINE
8
Layer 1
10
326.580708
20
403.600935
11
326.952025
21
403.110946
0
LINE
8
Layer 1
10
326.952025
20
403.110946
11
327.124032
21
402.398201
0
LINE
8
Layer 1
10
327.124032
20
402.398201
11
327.098086
21
401.447263
0
LINE
8
Layer 1
10
327.098086
20
401.447263
11
326.875541
21
400.242692
0
LINE
8
Layer 1
10
326.875541
20
400.242692
11
325.846080
21
397.010900
0
LINE
8
Layer 1
10
325.846080
20
397.010900
11
325.106480
21
395.261683
0
LINE
8
Layer 1
10
325.106480
20
395.261683
11
324.319017
21
393.808242
0
LINE
8
Layer 1
10
324.319017
20
393.808242
11
323.528838
21
392.686113
0
LINE
8
Layer 1
10
323.528838
20
392.686113
11
322.781090
21
391.930831
0
LINE
8
Layer 1
10
322.781090
20
391.930831
11
322.120919
21
391.577933
0
LINE
8
Layer 1
10
322.120919
20
391.577933
11
321.593473
21
391.662952
0
LINE
8
Layer 1
10
321.593473
20
391.662952
11
321.243898
21
392.221426
0
LINE
8
Layer 1
10
321.243898
20
392.221426
11
321.117340
21
393.288890
0
LINE
8
Layer 1
10
321.117340
20
393.288890
11
321.117340
21
393.288900
0
LINE
8
Layer 1
10
782.590340
20
395.617090
11
782.784153
21
396.374112
0
LINE
8
Layer 1
10
782.784153
20
396.374112
11
783.551931
21
396.885370
0
LINE
8
Layer 1
10
783.551931
20
396.885370
11
785.173181
21
397.253791
0
LINE
8
Layer 1
10
785.173181
20
397.253791
11
787.927410
21
397.582300
0
LINE
8
Layer 1
10
787.927410
20
397.582300
11
791.409021
21
397.780583
0
LINE
8
Layer 1
10
791.409021
20
397.780583
11
792.644265
21
397.705103
0
LINE
8
Layer 1
10
792.644265
20
397.705103
11
793.563055
21
397.506082
0
LINE
8
Layer 1
10
793.563055
20
397.506082
11
794.180833
21
397.178175
0
LINE
8
Layer 1
10
794.180833
20
397.178175
11
794.513039
21
396.716036
0
LINE
8
Layer 1
10
794.513039
20
396.716036
11
794.575114
21
396.114319
0
LINE
8
Layer 1
10
794.575114
20
396.114319
11
794.382500
21
395.367680
0
LINE
8
Layer 1
10
794.382500
20
395.367680
11
794.127309
21
395.029080
0
LINE
8
Layer 1
10
794.127309
20
395.029080
11
793.661930
21
394.740791
0
LINE
8
Layer 1
10
793.661930
20
394.740791
11
792.225706
21
394.312505
0
LINE
8
Layer 1
10
792.225706
20
394.312505
11
790.324017
21
394.077532
0
LINE
8
Layer 1
10
790.324017
20
394.077532
11
788.207055
21
394.030583
0
LINE
8
Layer 1
10
788.207055
20
394.030583
11
786.125011
21
394.166365
0
LINE
8
Layer 1
10
786.125011
20
394.166365
11
784.328077
21
394.479591
0
LINE
8
Layer 1
10
784.328077
20
394.479591
11
783.066443
21
394.964969
0
LINE
8
Layer 1
10
783.066443
20
394.964969
11
782.714548
21
395.270562
0
LINE
8
Layer 1
10
782.714548
20
395.270562
11
782.590300
21
395.617210
0
LINE
8
Layer 1
10
782.590300
20
395.617210
11
782.590340
21
395.617090
0
LINE
8
Layer 1
10
764.146540
20
396.125850
11
758.688670
21
397.150780
0
LINE
8
Layer 1
10
758.688670
20
397.150780
11
758.326796
21
397.286332
0
LINE
8
Layer 1
10
758.326796
20
397.286332
11
758.050166
21
397.614732
0
LINE
8
Layer 1
10
758.050166
20
397.614732
11
757.769970
21
398.628933
0
LINE
8
Layer 1
10
757.769970
20
398.628933
11
757.882759
21
399.751099
0
LINE
8
Layer 1
10
757.882759
20
399.751099
11
758.097360
21
400.214457
0
LINE
8
Layer 1
10
758.097360
20
400.214457
11
758.423210
21
400.538950
0
LINE
8
Layer 1
10
758.423210
20
400.538950
11
759.357486
21
400.727595
0
LINE
8
Layer 1
10
759.357486
20
400.727595
11
760.854664
21
400.615856
0
LINE
8
Layer 1
10
760.854664
20
400.615856
11
764.690155
21
399.742975
0
LINE
8
Layer 1
10
764.690155
20
399.742975
11
768.234549
21
398.423807
0
LINE
8
Layer 1
10
768.234549
20
398.423807
11
769.367854
21
397.754208
0
LINE
8
Layer 1
10
769.367854
20
397.754208
11
769.682082
21
397.444440
0
LINE
8
Layer 1
10
769.682082
20
397.444440
11
769.792710
21
397.161850
0
LINE
8
Layer 1
10
769.792710
20
397.161850
11
769.615464
21
396.002263
0
LINE
8
Layer 1
10
769.615464
20
396.002263
11
769.328044
21
395.667759
0
LINE
8
Layer 1
10
769.328044
20
395.667759
11
768.849546
21
395.486038
0
LINE
8
Layer 1
10
768.849546
20
395.486038
11
767.143685
21
395.548718
0
LINE
8
Layer 1
10
767.143685
20
395.548718
11
764.146610
21
396.125850
0
LINE
8
Layer 1
10
764.146610
20
396.125850
11
764.146540
21
396.125850
0
LINE
8
Layer 1
10
806.680340
20
399.476160
11
806.817846
21
400.176409
0
LINE
8
Layer 1
10
806.817846
20
400.176409
11
807.219541
21
400.804626
0
LINE
8
Layer 1
10
807.219541
20
400.804626
11
807.869188
21
401.342801
0
LINE
8
Layer 1
10
807.869188
20
401.342801
11
808.750550
21
401.772920
0
LINE
8
Layer 1
10
808.750550
20
401.772920
11
813.693440
21
404.026480
0
LINE
8
Layer 1
10
813.693440
20
404.026480
11
815.669846
21
404.884933
0
LINE
8
Layer 1
10
815.669846
20
404.884933
11
816.409654
21
405.056681
0
LINE
8
Layer 1
10
816.409654
20
405.056681
11
816.995458
21
405.054754
0
LINE
8
Layer 1
10
816.995458
20
405.054754
11
817.435949
21
404.877636
0
LINE
8
Layer 1
10
817.435949
20
404.877636
11
817.739823
21
404.523810
0
LINE
8
Layer 1
10
817.739823
20
404.523810
11
817.915772
21
403.991760
0
LINE
8
Layer 1
10
817.915772
20
403.991760
11
817.972490
21
403.279970
0
LINE
8
Layer 1
10
817.972490
20
403.279970
11
817.707215
21
402.556353
0
LINE
8
Layer 1
10
817.707215
20
402.556353
11
816.896522
21
401.769179
0
LINE
8
Layer 1
10
816.896522
20
401.769179
11
815.518114
21
400.901595
0
LINE
8
Layer 1
10
815.518114
20
400.901595
11
813.549690
21
399.936750
0
LINE
8
Layer 1
10
813.549690
20
399.936750
11
810.221335
21
398.565865
0
LINE
8
Layer 1
10
810.221335
20
398.565865
11
808.110554
21
398.041759
0
LINE
8
Layer 1
10
808.110554
20
398.041759
11
807.444458
21
398.092738
0
LINE
8
Layer 1
10
807.444458
20
398.092738
11
807.002003
21
398.350001
0
LINE
8
Layer 1
10
807.002003
20
398.350001
11
806.756269
21
398.811743
0
LINE
8
Layer 1
10
806.756269
20
398.811743
11
806.680340
21
399.476160
0
LINE
8
Layer 1
10
806.680340
20
399.476160
11
806.680340
21
399.476160
0
LINE
8
Layer 1
10
738.927440
20
403.626780
11
737.439765
21
404.350405
0
LINE
8
Layer 1
10
737.439765
20
404.350405
11
736.192488
21
405.143310
0
LINE
8
Layer 1
10
736.192488
20
405.143310
11
735.219866
21
405.954283
0
LINE
8
Layer 1
10
735.219866
20
405.954283
11
734.556159
21
406.732114
0
LINE
8
Layer 1
10
734.556159
20
406.732114
11
734.235625
21
407.425589
0
LINE
8
Layer 1
10
734.235625
20
407.425589
11
734.292523
21
407.983499
0
LINE
8
Layer 1
10
734.292523
20
407.983499
11
734.761112
21
408.354629
0
LINE
8
Layer 1
10
734.761112
20
408.354629
11
735.675650
21
408.487770
0
LINE
8
Layer 1
10
735.675650
20
408.487770
11
736.736525
21
408.330325
0
LINE
8
Layer 1
10
736.736525
20
408.330325
11
738.202927
21
407.910820
0
LINE
8
Layer 1
10
738.202927
20
407.910820
11
741.672771
21
406.580096
0
LINE
8
Layer 1
10
741.672771
20
406.580096
11
744.726105
21
405.084540
0
LINE
8
Layer 1
10
744.726105
20
405.084540
11
745.671868
21
404.458993
0
LINE
8
Layer 1
10
745.671868
20
404.458993
11
746.003850
21
404.013090
0
LINE
8
Layer 1
10
746.003850
20
404.013090
11
745.842881
21
402.800887
0
LINE
8
Layer 1
10
745.842881
20
402.800887
11
745.584407
21
402.116761
0
LINE
8
Layer 1
10
745.584407
20
402.116761
11
745.131013
21
401.827543
0
LINE
8
Layer 1
10
745.131013
20
401.827543
11
744.385280
21
401.800060
0
LINE
8
Layer 1
10
744.385280
20
401.800060
11
742.238604
21
402.371413
0
LINE
8
Layer 1
10
742.238604
20
402.371413
11
738.927410
21
403.626780
0
LINE
8
Layer 1
10
738.927410
20
403.626780
11
738.927440
21
403.626780
0
LINE
8
Layer 1
10
716.909640
20
413.332940
11
713.913114
21
414.911746
0
LINE
8
Layer 1
10
713.913114
20
414.911746
11
712.882957
21
415.646827
0
LINE
8
Layer 1
10
712.882957
20
415.646827
11
712.169014
21
416.340676
0
LINE
8
Layer 1
10
712.169014
20
416.340676
11
711.774392
21
416.989530
0
LINE
8
Layer 1
10
711.774392
20
416.989530
11
711.702199
21
417.589624
0
LINE
8
Layer 1
10
711.702199
20
417.589624
11
711.955543
21
418.137195
0
LINE
8
Layer 1
10
711.955543
20
418.137195
11
712.537530
21
418.628480
0
LINE
8
Layer 1
10
712.537530
20
418.628480
11
713.277087
21
418.629473
0
LINE
8
Layer 1
10
713.277087
20
418.629473
11
714.609508
21
418.241377
0
LINE
8
Layer 1
10
714.609508
20
418.241377
11
718.199566
21
416.710514
0
LINE
8
Layer 1
10
718.199566
20
416.710514
11
721.600956
21
414.861079
0
LINE
8
Layer 1
10
721.600956
20
414.861079
11
722.697542
21
414.074768
0
LINE
8
Layer 1
10
722.697542
20
414.074768
11
723.106930
21
413.518260
0
LINE
8
Layer 1
10
723.106930
20
413.518260
11
723.033995
21
412.731658
0
LINE
8
Layer 1
10
723.033995
20
412.731658
11
722.819083
21
412.164933
0
LINE
8
Layer 1
10
722.819083
20
412.164933
11
722.432936
21
411.817209
0
LINE
8
Layer 1
10
722.432936
20
411.817209
11
721.846295
21
411.687614
0
LINE
8
Layer 1
10
721.846295
20
411.687614
11
721.029901
21
411.775272
0
LINE
8
Layer 1
10
721.029901
20
411.775272
11
719.954494
21
412.079310
0
LINE
8
Layer 1
10
719.954494
20
412.079310
11
716.909610
21
413.333030
0
LINE
8
Layer 1
10
716.909610
20
413.333030
11
716.909640
21
413.332940
0
LINE
8
Layer 1
10
827.484640
20
411.883970
11
827.428001
21
412.351070
0
LINE
8
Layer 1
10
827.428001
20
412.351070
11
827.556880
21
412.921522
0
LINE
8
Layer 1
10
827.556880
20
412.921522
11
828.282623
21
414.290053
0
LINE
8
Layer 1
10
828.282623
20
414.290053
11
829.484734
21
415.824704
0
LINE
8
Layer 1
10
829.484734
20
415.824704
11
830.986079
21
417.360618
0
LINE
8
Layer 1
10
830.986079
20
417.360618
11
832.609523
21
418.732934
0
LINE
8
Layer 1
10
832.609523
20
418.732934
11
834.177933
21
419.776796
0
LINE
8
Layer 1
10
834.177933
20
419.776796
11
835.514173
21
420.327344
0
LINE
8
Layer 1
10
835.514173
20
420.327344
11
836.039876
21
420.366107
0
LINE
8
Layer 1
10
836.039876
20
420.366107
11
836.441110
21
420.219720
0
LINE
8
Layer 1
10
836.441110
20
420.219720
11
837.187636
21
419.515028
0
LINE
8
Layer 1
10
837.187636
20
419.515028
11
837.278116
21
419.145985
0
LINE
8
Layer 1
10
837.278116
20
419.145985
11
837.143551
21
418.692546
0
LINE
8
Layer 1
10
837.143551
20
418.692546
11
836.089720
21
417.312696
0
LINE
8
Layer 1
10
836.089720
20
417.312696
11
833.807010
21
414.935900
0
LINE
8
Layer 1
10
833.807010
20
414.935900
11
831.121911
21
412.355784
0
LINE
8
Layer 1
10
831.121911
20
412.355784
11
829.321933
21
411.058910
0
LINE
8
Layer 1
10
829.321933
20
411.058910
11
828.684121
21
410.858023
0
LINE
8
Layer 1
10
828.684121
20
410.858023
11
828.183900
21
410.937549
0
LINE
8
Layer 1
10
828.183900
20
410.937549
11
827.793372
21
411.284020
0
LINE
8
Layer 1
10
827.793372
20
411.284020
11
827.484640
21
411.883970
0
LINE
8
Layer 1
10
827.484640
20
411.883970
11
827.484640
21
411.883970
0
LINE
8
Layer 1
10
1036.594640
20
422.110670
11
1034.926828
21
429.268303
0
LINE
8
Layer 1
10
1034.926828
20
429.268303
11
1033.991840
21
432.637670
0
LINE
8
Layer 1
10
1033.991840
20
432.637670
11
1032.720642
21
432.681467
0
LINE
8
Layer 1
10
1032.720642
20
432.681467
11
1029.565078
21
432.304185
0
LINE
8
Layer 1
10
1029.565078
20
432.304185
11
1019.502440
21
430.559200
0
LINE
8
Layer 1
10
1019.502440
20
430.559200
11
1014.048545
21
429.409406
0
LINE
8
Layer 1
10
1014.048545
20
429.409406
11
1010.124584
21
428.618464
0
LINE
8
Layer 1
10
1010.124584
20
428.618464
11
1008.651790
21
428.448124
0
LINE
8
Layer 1
10
1008.651790
20
428.448124
11
1007.460032
21
428.476172
0
LINE
8
Layer 1
10
1007.460032
20
428.476172
11
1006.515496
21
428.738832
0
LINE
8
Layer 1
10
1006.515496
20
428.738832
11
1005.784365
21
429.272329
0
LINE
8
Layer 1
10
1005.784365
20
429.272329
11
1005.232824
21
430.112887
0
LINE
8
Layer 1
10
1005.232824
20
430.112887
11
1004.827057
21
431.296732
0
LINE
8
Layer 1
10
1004.827057
20
431.296732
11
1004.317584
21
434.839180
0
LINE
8
Layer 1
10
1004.317584
20
434.839180
11
1003.560040
21
447.637400
0
LINE
8
Layer 1
10
1003.560040
20
447.637400
11
1001.365240
21
480.240300
0
LINE
8
Layer 1
10
1001.365240
20
480.240300
11
1000.426140
21
493.646500
0
LINE
8
Layer 1
10
1000.426140
20
493.646500
11
986.209040
21
507.878400
0
LINE
8
Layer 1
10
986.209040
20
507.878400
11
976.317945
21
518.079411
0
LINE
8
Layer 1
10
976.317945
20
518.079411
11
973.425564
21
521.299120
0
LINE
8
Layer 1
10
973.425564
20
521.299120
11
972.501640
21
522.620000
0
LINE
8
Layer 1
10
972.501640
20
522.620000
11
974.765277
21
522.720273
0
LINE
8
Layer 1
10
974.765277
20
522.720273
11
980.551959
21
522.616493
0
LINE
8
Layer 1
10
980.551959
20
522.616493
11
999.191340
21
521.892220
0
LINE
8
Layer 1
10
999.191340
20
521.892220
11
1044.191540
21
519.902740
0
LINE
8
Layer 1
10
1044.191540
20
519.902740
11
1077.315240
21
518.409200
0
LINE
8
Layer 1
10
1077.315240
20
518.409200
11
1111.191640
21
516.885380
0
LINE
8
Layer 1
10
1111.191640
20
516.885380
11
1144.691740
21
515.398900
0
LINE
8
Layer 1
10
1144.691740
20
515.398900
11
1170.538840
21
514.185800
0
LINE
8
Layer 1
10
1170.538840
20
514.185800
11
1177.125707
21
513.873475
0
LINE
8
Layer 1
10
1177.125707
20
513.873475
11
1180.526228
21
513.564785
0
LINE
8
Layer 1
10
1180.526228
20
513.564785
11
1181.290202
21
513.367899
0
LINE
8
Layer 1
10
1181.290202
20
513.367899
11
1181.567904
21
513.119235
0
LINE
8
Layer 1
10
1181.567904
20
513.119235
11
1181.462771
21
512.801233
0
LINE
8
Layer 1
10
1181.462771
20
512.801233
11
1181.078240
21
512.396330
0
LINE
8
Layer 1
10
1181.078240
20
512.396330
11
1173.358328
21
506.771015
0
LINE
8
Layer 1
10
1173.358328
20
506.771015
11
1156.736740
21
495.044630
0
LINE
8
Layer 1
10
1156.736740
20
495.044630
11
1111.944540
21
463.579230
0
LINE
8
Layer 1
10
1111.944540
20
463.579230
11
1084.843340
21
444.470230
0
LINE
8
Layer 1
10
1084.843340
20
444.470230
11
1059.378340
21
426.505430
0
LINE
8
Layer 1
10
1059.378340
20
426.505430
11
1038.983540
21
412.255430
0
LINE
8
Layer 1
10
1038.983540
20
412.255430
11
1038.199453
21
415.150444
0
LINE
8
Layer 1
10
1038.199453
20
415.150444
11
1036.594640
21
422.110810
0
LINE
8
Layer 1
10
1036.594640
20
422.110810
11
1036.594640
21
422.110670
0
LINE
8
Layer 1
10
1064.141040
20
433.577970
11
1101.028740
21
459.554070
0
LINE
8
Layer 1
10
1101.028740
20
459.554070
11
1123.613040
21
475.494870
0
LINE
8
Layer 1
10
1123.613040
20
475.494870
11
1143.938940
21
489.787070
0
LINE
8
Layer 1
10
1143.938940
20
489.787070
11
1163.135540
21
503.343570
0
LINE
8
Layer 1
10
1163.135540
20
503.343570
11
1166.291503
21
505.562918
0
LINE
8
Layer 1
10
1166.291503
20
505.562918
11
1168.593440
21
507.012990
0
LINE
8
Layer 1
10
1168.593440
20
507.012990
11
1169.693313
21
507.838544
0
LINE
8
Layer 1
10
1169.693313
20
507.838544
11
1170.250103
21
508.681190
0
LINE
8
Layer 1
10
1170.250103
20
508.681190
11
1170.291755
21
509.010216
0
LINE
8
Layer 1
10
1170.291755
20
509.010216
11
1170.157935
21
509.225066
0
LINE
8
Layer 1
10
1170.157935
20
509.225066
11
1169.835408
21
509.286259
0
LINE
8
Layer 1
10
1169.835408
20
509.286259
11
1169.310940
21
509.154310
0
LINE
8
Layer 1
10
1169.310940
20
509.154310
11
1128.933703
21
500.823604
0
LINE
8
Layer 1
10
1128.933703
20
500.823604
11
1048.331940
21
484.551710
0
LINE
8
Layer 1
10
1048.331940
20
484.551710
11
1036.011448
21
482.050729
0
LINE
8
Layer 1
10
1036.011448
20
482.050729
11
1029.662278
21
480.570014
0
LINE
8
Layer 1
10
1029.662278
20
480.570014
11
1028.122253
21
480.037767
0
LINE
8
Layer 1
10
1028.122253
20
480.037767
11
1027.349438
21
479.551199
0
LINE
8
Layer 1
10
1027.349438
20
479.551199
11
1027.101959
21
479.040515
0
LINE
8
Layer 1
10
1027.101959
20
479.040515
11
1027.137940
21
478.435920
0
LINE
8
Layer 1
10
1027.137940
20
478.435920
11
1030.379640
21
463.446420
0
LINE
8
Layer 1
10
1030.379640
20
463.446420
11
1036.718840
21
435.216020
0
LINE
8
Layer 1
10
1036.718840
20
435.216020
11
1040.505340
21
418.798220
0
LINE
8
Layer 1
10
1040.505340
20
418.798220
11
1040.642464
21
418.225586
0
LINE
8
Layer 1
10
1040.642464
20
418.225586
11
1040.890017
21
417.910117
0
LINE
8
Layer 1
10
1040.890017
20
417.910117
11
1041.595259
21
418.068957
0
LINE
8
Layer 1
10
1041.595259
20
418.068957
11
1043.105453
21
418.919254
0
LINE
8
Layer 1
10
1043.105453
20
418.919254
11
1049.929732
21
423.562799
0
LINE
8
Layer 1
10
1049.929732
20
423.562799
11
1064.140940
21
433.577920
0
LINE
8
Layer 1
10
1064.140940
20
433.577920
11
1064.141040
21
433.577970
0
LINE
8
Layer 1
10
1024.618540
20
435.091830
11
1030.466928
21
436.477606
0
LINE
8
Layer 1
10
1030.466928
20
436.477606
11
1032.246026
21
437.068490
0
LINE
8
Layer 1
10
1032.246026
20
437.068490
11
1032.899440
21
437.486590
0
LINE
8
Layer 1
10
1032.899440
20
437.486590
11
1032.540246
21
439.800771
0
LINE
8
Layer 1
10
1032.540246
20
439.800771
11
1031.589396
21
444.407533
0
LINE
8
Layer 1
10
1031.589396
20
444.407533
11
1028.673115
21
457.263811
0
LINE
8
Layer 1
10
1028.673115
20
457.263811
11
1025.671371
21
469.585454
0
LINE
8
Layer 1
10
1025.671371
20
469.585454
11
1024.613693
21
473.523921
0
LINE
8
Layer 1
10
1024.613693
20
473.523921
11
1024.104940
21
474.902490
0
LINE
8
Layer 1
10
1024.104940
20
474.902490
11
1023.315382
21
473.218036
0
LINE
8
Layer 1
10
1023.315382
20
473.218036
11
1021.586478
21
468.632989
0
LINE
8
Layer 1
10
1021.586478
20
468.632989
11
1014.721240
21
449.142990
0
LINE
8
Layer 1
10
1014.721240
20
449.142990
11
1010.973840
21
438.702190
0
LINE
8
Layer 1
10
1010.973840
20
438.702190
11
1009.711103
21
435.100381
0
LINE
8
Layer 1
10
1009.711103
20
435.100381
11
1009.185840
21
433.173690
0
LINE
8
Layer 1
10
1009.185840
20
433.173690
11
1009.375500
21
432.911432
0
LINE
8
Layer 1
10
1009.375500
20
432.911432
11
1009.973895
21
432.781640
0
LINE
8
Layer 1
10
1009.973895
20
432.781640
11
1012.573378
21
432.941390
0
LINE
8
Layer 1
10
1012.573378
20
432.941390
11
1017.337267
21
433.696812
0
LINE
8
Layer 1
10
1017.337267
20
433.696812
11
1024.618540
21
435.091780
0
LINE
8
Layer 1
10
1024.618540
20
435.091780
11
1024.618540
21
435.091830
0
LINE
8
Layer 1
10
1009.343640
20
442.932310
11
1017.617378
21
466.639248
0
LINE
8
Layer 1
10
1017.617378
20
466.639248
11
1021.567960
21
477.596162
0
LINE
8
Layer 1
10
1021.567960
20
477.596162
11
1023.409740
21
482.388310
0
LINE
8
Layer 1
10
1023.409740
20
482.388310
11
1028.220145
21
483.513256
0
LINE
8
Layer 1
10
1028.220145
20
483.513256
11
1040.980578
21
486.207958
0
LINE
8
Layer 1
10
1040.980578
20
486.207958
11
1082.584940
21
494.691810
0
LINE
8
Layer 1
10
1082.584940
20
494.691810
11
1121.891606
21
502.646207
0
LINE
8
Layer 1
10
1121.891606
20
502.646207
11
1133.187057
21
505.024791
0
LINE
8
Layer 1
10
1133.187057
20
505.024791
11
1139.501615
21
506.494560
0
LINE
8
Layer 1
10
1139.501615
20
506.494560
11
1140.929581
21
506.925419
0
LINE
8
Layer 1
10
1140.929581
20
506.925419
11
1141.278551
21
507.173210
0
LINE
8
Layer 1
10
1141.278551
20
507.173210
11
1140.603934
21
507.252646
0
LINE
8
Layer 1
10
1140.603934
20
507.252646
11
1138.961137
21
507.178438
0
LINE
8
Layer 1
10
1138.961137
20
507.178438
11
1123.816340
21
505.639410
0
LINE
8
Layer 1
10
1123.816340
20
505.639410
11
1057.742140
21
498.781980
0
LINE
8
Layer 1
10
1057.742140
20
498.781980
11
1029.511740
21
495.824460
0
LINE
8
Layer 1
10
1029.511740
20
495.824460
11
1010.016940
21
493.874090
0
LINE
8
Layer 1
10
1010.016940
20
493.874090
11
1003.696340
21
493.345150
0
LINE
8
Layer 1
10
1003.696340
20
493.345150
11
1004.195240
21
484.606430
0
LINE
8
Layer 1
10
1004.195240
20
484.606430
11
1005.790040
21
458.929530
0
LINE
8
Layer 1
10
1005.790040
20
458.929530
11
1006.906640
21
440.673830
0
LINE
8
Layer 1
10
1006.906640
20
440.673830
11
1006.973108
21
439.921199
0
LINE
8
Layer 1
10
1006.973108
20
439.921199
11
1007.134351
21
439.489060
0
LINE
8
Layer 1
10
1007.134351
20
439.489060
11
1007.377004
21
439.365014
0
LINE
8
Layer 1
10
1007.377004
20
439.365014
11
1007.687703
21
439.536664
0
LINE
8
Layer 1
10
1007.687703
20
439.536664
11
1008.459773
21
440.717456
0
LINE
8
Layer 1
10
1008.459773
20
440.717456
11
1009.343640
21
442.932250
0
LINE
8
Layer 1
10
1009.343640
20
442.932250
11
1009.343640
21
442.932310
0
LINE
8
Layer 1
10
1020.525140
20
498.090710
11
1049.461240
21
501.065040
0
LINE
8
Layer 1
10
1049.461240
20
501.065040
11
1070.916340
21
503.286160
0
LINE
8
Layer 1
10
1070.916340
20
503.286160
11
1092.747840
21
505.576090
0
LINE
8
Layer 1
10
1092.747840
20
505.576090
11
1125.348940
21
508.986040
0
LINE
8
Layer 1
10
1125.348940
20
508.986040
11
1138.767502
21
510.319035
0
LINE
8
Layer 1
10
1138.767502
20
510.319035
11
1145.863040
21
510.873470
0
LINE
8
Layer 1
10
1145.863040
20
510.873470
11
1147.694140
21
511.094600
0
LINE
8
Layer 1
10
1147.694140
20
511.094600
11
1148.251162
21
511.333963
0
LINE
8
Layer 1
10
1148.251162
20
511.333963
11
1148.455740
21
511.626260
0
LINE
8
Layer 1
10
1148.455740
20
511.626260
11
1148.170790
21
512.157945
0
LINE
8
Layer 1
10
1148.170790
20
512.157945
11
1147.485640
21
512.379100
0
LINE
8
Layer 1
10
1147.485640
20
512.379100
11
1078.444440
21
515.354370
0
LINE
8
Layer 1
10
1078.444440
20
515.354370
11
1053.225240
21
516.500120
0
LINE
8
Layer 1
10
1053.225240
20
516.500120
11
986.789740
21
519.528400
0
LINE
8
Layer 1
10
986.789740
20
519.528400
11
981.871766
21
519.649816
0
LINE
8
Layer 1
10
981.871766
20
519.649816
11
980.375703
21
519.556262
0
LINE
8
Layer 1
10
980.375703
20
519.556262
11
979.826240
21
519.366870
0
LINE
8
Layer 1
10
979.826240
20
519.366870
11
980.077284
21
518.828518
0
LINE
8
Layer 1
10
980.077284
20
518.828518
11
980.788603
21
517.895433
0
LINE
8
Layer 1
10
980.788603
20
517.895433
11
983.341196
21
515.082097
0
LINE
8
Layer 1
10
983.341196
20
515.082097
11
991.210090
21
507.326005
0
LINE
8
Layer 1
10
991.210090
20
507.326005
11
999.418959
21
499.891146
0
LINE
8
Layer 1
10
999.418959
20
499.891146
11
1002.396520
21
497.479350
0
LINE
8
Layer 1
10
1002.396520
20
497.479350
11
1003.384070
21
496.807267
0
LINE
8
Layer 1
10
1003.384070
20
496.807267
11
1003.953840
21
496.570070
0
LINE
8
Layer 1
10
1003.953840
20
496.570070
11
1020.525140
21
498.090680
0
LINE
8
Layer 1
10
1020.525140
20
498.090680
11
1020.525140
21
498.090710
0
LINE
8
Layer 1
10
330.723140
20
415.322810
11
330.540412
21
415.574988
0
LINE
8
Layer 1
10
330.540412
20
415.574988
11
330.475464
21
416.025570
0
LINE
8
Layer 1
10
330.475464
20
416.025570
11
330.651117
21
417.403242
0
LINE
8
Layer 1
10
330.651117
20
417.403242
11
331.154512
21
419.218412
0
LINE
8
Layer 1
10
331.154512
20
419.218412
11
331.890066
21
421.233664
0
LINE
8
Layer 1
10
331.890066
20
421.233664
11
332.762194
21
423.211584
0
LINE
8
Layer 1
10
332.762194
20
423.211584
11
333.675310
21
424.914758
0
LINE
8
Layer 1
10
333.675310
20
424.914758
11
334.533830
21
426.105772
0
LINE
8
Layer 1
10
334.533830
20
426.105772
11
334.912747
21
426.435026
0
LINE
8
Layer 1
10
334.912747
20
426.435026
11
335.242170
21
426.547210
0
LINE
8
Layer 1
10
335.242170
20
426.547210
11
336.124378
21
426.456536
0
LINE
8
Layer 1
10
336.124378
20
426.456536
11
336.759970
21
426.207640
0
LINE
8
Layer 1
10
336.759970
20
426.207640
11
337.149776
21
425.772545
0
LINE
8
Layer 1
10
337.149776
20
425.772545
11
337.294621
21
425.123275
0
LINE
8
Layer 1
10
337.294621
20
425.123275
11
337.195335
21
424.231855
0
LINE
8
Layer 1
10
337.195335
20
424.231855
11
336.852744
21
423.070308
0
LINE
8
Layer 1
10
336.852744
20
423.070308
11
335.440960
21
419.824930
0
LINE
8
Layer 1
10
335.440960
20
419.824930
11
333.824927
21
416.563842
0
LINE
8
Layer 1
10
333.824927
20
416.563842
11
332.797924
21
415.010809
0
LINE
8
Layer 1
10
332.797924
20
415.010809
11
332.365631
21
414.741522
0
LINE
8
Layer 1
10
332.365631
20
414.741522
11
331.912984
21
414.739299
0
LINE
8
Layer 1
10
331.912984
20
414.739299
11
330.723140
21
415.322780
0
LINE
8
Layer 1
10
330.723140
20
415.322780
11
330.723140
21
415.322810
0
LINE
8
Layer 1
10
694.512140
20
424.350540
11
691.463452
21
426.084799
0
LINE
8
Layer 1
10
691.463452
20
426.084799
11
689.951655
21
427.201466
0
LINE
8
Layer 1
10
689.951655
20
427.201466
11
689.665905
21
427.643604
0
LINE
8
Layer 1
10
689.665905
20
427.643604
11
689.636955
21
428.069825
0
LINE
8
Layer 1
10
689.636955
20
428.069825
11
690.179560
21
429.059160
0
LINE
8
Layer 1
10
690.179560
20
429.059160
11
690.511644
21
429.298433
0
LINE
8
Layer 1
10
690.511644
20
429.298433
11
691.026587
21
429.394688
0
LINE
8
Layer 1
10
691.026587
20
429.394688
11
692.487368
21
429.215713
0
LINE
8
Layer 1
10
692.487368
20
429.215713
11
694.326545
21
428.637372
0
LINE
8
Layer 1
10
694.326545
20
428.637372
11
696.308756
21
427.774804
0
LINE
8
Layer 1
10
696.308756
20
427.774804
11
698.198643
21
426.743146
0
LINE
8
Layer 1
10
698.198643
20
426.743146
11
699.760846
21
425.657535
0
LINE
8
Layer 1
10
699.760846
20
425.657535
11
700.760005
21
424.633111
0
LINE
8
Layer 1
10
700.760005
20
424.633111
11
700.974893
21
424.179824
0
LINE
8
Layer 1
10
700.974893
20
424.179824
11
700.960760
21
423.785010
0
LINE
8
Layer 1
10
700.960760
20
423.785010
11
700.533500
21
422.356740
0
LINE
8
Layer 1
10
700.533500
20
422.356740
11
700.429136
21
422.119582
0
LINE
8
Layer 1
10
700.429136
20
422.119582
11
700.121918
21
422.027217
0
LINE
8
Layer 1
10
700.121918
20
422.027217
11
698.934166
21
422.265214
0
LINE
8
Layer 1
10
698.934166
20
422.265214
11
697.040734
21
423.047424
0
LINE
8
Layer 1
10
697.040734
20
423.047424
11
694.512110
21
424.350540
0
LINE
8
Layer 1
10
694.512110
20
424.350540
11
694.512140
21
424.350540
0
LINE
8
Layer 1
10
808.704140
20
424.851470
11
807.570821
21
425.108145
0
LINE
8
Layer 1
10
807.570821
20
425.108145
11
806.706374
21
425.566294
0
LINE
8
Layer 1
10
806.706374
20
425.566294
11
806.125644
21
426.151645
0
LINE
8
Layer 1
10
806.125644
20
426.151645
11
805.843478
21
426.789931
0
LINE
8
Layer 1
10
805.843478
20
426.789931
11
805.874722
21
427.406882
0
LINE
8
Layer 1
10
805.874722
20
427.406882
11
806.234225
21
427.928228
0
LINE
8
Layer 1
10
806.234225
20
427.928228
11
806.936832
21
428.279701
0
LINE
8
Layer 1
10
806.936832
20
428.279701
11
807.997390
21
428.387030
0
LINE
8
Layer 1
10
807.997390
20
428.387030
11
814.052285
21
428.183507
0
LINE
8
Layer 1
10
814.052285
20
428.183507
11
816.981505
21
427.914346
0
LINE
8
Layer 1
10
816.981505
20
427.914346
11
817.626268
21
427.677278
0
LINE
8
Layer 1
10
817.626268
20
427.677278
11
817.912350
21
427.330353
0
LINE
8
Layer 1
10
817.912350
20
427.330353
11
817.972120
21
426.182330
0
LINE
8
Layer 1
10
817.972120
20
426.182330
11
817.907298
21
425.512919
0
LINE
8
Layer 1
10
817.907298
20
425.512919
11
817.667125
21
425.006928
0
LINE
8
Layer 1
10
817.667125
20
425.006928
11
817.183036
21
424.654512
0
LINE
8
Layer 1
10
817.183036
20
424.654512
11
816.386468
21
424.445825
0
LINE
8
Layer 1
10
816.386468
20
424.445825
11
813.581642
21
424.420259
0
LINE
8
Layer 1
10
813.581642
20
424.420259
11
808.704140
21
424.851470
0
LINE
8
Layer 1
10
808.704140
20
424.851470
11
808.704140
21
424.851470
0
LINE
8
Layer 1
10
830.905740
20
425.994160
11
831.105490
21
426.492284
0
LINE
8
Layer 1
10
831.105490
20
426.492284
11
831.532455
21
426.928678
0
LINE
8
Layer 1
10
831.532455
20
426.928678
11
832.935510
21
427.613829
0
LINE
8
Layer 1
10
832.935510
20
427.613829
11
834.849868
21
428.044722
0
LINE
8
Layer 1
10
834.849868
20
428.044722
11
837.010489
21
428.216464
0
LINE
8
Layer 1
10
837.010489
20
428.216464
11
839.152335
21
428.124164
0
LINE
8
Layer 1
10
839.152335
20
428.124164
11
841.010368
21
427.762931
0
LINE
8
Layer 1
10
841.010368
20
427.762931
11
842.319549
21
427.127874
0
LINE
8
Layer 1
10
842.319549
20
427.127874
11
842.685496
21
426.706132
0
LINE
8
Layer 1
10
842.685496
20
426.706132
11
842.814840
21
426.214100
0
LINE
8
Layer 1
10
842.814840
20
426.214100
11
842.710091
21
425.117060
0
LINE
8
Layer 1
10
842.710091
20
425.117060
11
842.476055
21
424.777321
0
LINE
8
Layer 1
10
842.476055
20
424.777321
11
842.029270
21
424.547903
0
LINE
8
Layer 1
10
842.029270
20
424.547903
11
840.222519
21
424.333423
0
LINE
8
Layer 1
10
840.222519
20
424.333423
11
836.739980
21
424.300420
0
LINE
8
Layer 1
10
836.739980
20
424.300420
11
833.319604
21
424.334986
0
LINE
8
Layer 1
10
833.319604
20
424.334986
11
831.534718
21
424.533748
0
LINE
8
Layer 1
10
831.534718
20
424.533748
11
831.102011
21
424.739263
0
LINE
8
Layer 1
10
831.102011
20
424.739263
11
830.893892
21
425.039300
0
LINE
8
Layer 1
10
830.893892
20
425.039300
11
830.905700
21
425.994240
0
LINE
8
Layer 1
10
830.905700
20
425.994240
11
830.905740
21
425.994160
0
LINE
8
Layer 1
10
855.612640
20
426.182230
11
855.720861
21
427.257051
0
LINE
8
Layer 1
10
855.720861
20
427.257051
11
855.956706
21
427.591000
0
LINE
8
Layer 1
10
855.956706
20
427.591000
11
856.403101
21
427.817245
0
LINE
8
Layer 1
10
856.403101
20
427.817245
11
858.195726
21
428.030436
0
LINE
8
Layer 1
10
858.195726
20
428.030436
11
861.635100
21
428.064250
0
LINE
8
Layer 1
10
861.635100
20
428.064250
11
863.916399
21
427.967158
0
LINE
8
Layer 1
10
863.916399
20
427.967158
11
865.764133
21
427.701955
0
LINE
8
Layer 1
10
865.764133
20
427.701955
11
867.134720
21
427.307755
0
LINE
8
Layer 1
10
867.134720
20
427.307755
11
867.984578
21
426.823670
0
LINE
8
Layer 1
10
867.984578
20
426.823670
11
868.270123
21
426.288812
0
LINE
8
Layer 1
10
868.270123
20
426.288812
11
867.947773
21
425.742292
0
LINE
8
Layer 1
10
867.947773
20
425.742292
11
866.973946
21
425.223224
0
LINE
8
Layer 1
10
866.973946
20
425.223224
11
865.305060
21
424.770720
0
LINE
8
Layer 1
10
865.305060
20
424.770720
11
861.323971
21
424.213754
0
LINE
8
Layer 1
10
861.323971
20
424.213754
11
859.668892
21
424.170602
0
LINE
8
Layer 1
10
859.668892
20
424.170602
11
858.266274
21
424.280139
0
LINE
8
Layer 1
10
858.266274
20
424.280139
11
857.137727
21
424.539218
0
LINE
8
Layer 1
10
857.137727
20
424.539218
11
856.304865
21
424.944691
0
LINE
8
Layer 1
10
856.304865
20
424.944691
11
855.789298
21
425.493411
0
LINE
8
Layer 1
10
855.789298
20
425.493411
11
855.612640
21
426.182230
0
LINE
8
Layer 1
10
855.612640
20
426.182230
11
855.612640
21
426.182230
0
LINE
8
Layer 1
10
880.455340
20
426.903390
11
880.560089
21
428.000433
0
LINE
8
Layer 1
10
880.560089
20
428.000433
11
880.794124
21
428.340175
0
LINE
8
Layer 1
10
880.794124
20
428.340175
11
881.240908
21
428.569598
0
LINE
8
Layer 1
10
881.240908
20
428.569598
11
883.047652
21
428.784083
0
LINE
8
Layer 1
10
883.047652
20
428.784083
11
886.530180
21
428.817090
0
LINE
8
Layer 1
10
886.530180
20
428.817090
11
889.950560
21
428.782552
0
LINE
8
Layer 1
10
889.950560
20
428.782552
11
891.735446
21
428.583835
0
LINE
8
Layer 1
10
891.735446
20
428.583835
11
892.168151
21
428.378330
0
LINE
8
Layer 1
10
892.168151
20
428.378330
11
892.376269
21
428.078286
0
LINE
8
Layer 1
10
892.376269
20
428.078286
11
892.364460
21
427.123250
0
LINE
8
Layer 1
10
892.364460
20
427.123250
11
892.164710
21
426.625129
0
LINE
8
Layer 1
10
892.164710
20
426.625129
11
891.737745
21
426.188737
0
LINE
8
Layer 1
10
891.737745
20
426.188737
11
890.334690
21
425.503586
0
LINE
8
Layer 1
10
890.334690
20
425.503586
11
888.420332
21
425.072692
0
LINE
8
Layer 1
10
888.420332
20
425.072692
11
886.259711
21
424.900946
0
LINE
8
Layer 1
10
886.259711
20
424.900946
11
884.117865
21
424.993242
0
LINE
8
Layer 1
10
884.117865
20
424.993242
11
882.259832
21
425.354473
0
LINE
8
Layer 1
10
882.259832
20
425.354473
11
880.950651
21
425.989531
0
LINE
8
Layer 1
10
880.950651
20
425.989531
11
880.584704
21
426.411275
0
LINE
8
Layer 1
10
880.584704
20
426.411275
11
880.455360
21
426.903310
0
LINE
8
Layer 1
10
880.455360
20
426.903310
11
880.455340
21
426.903390
0
LINE
8
Layer 1
10
905.124340
20
426.339920
11
904.791753
21
427.133742
0
LINE
8
Layer 1
10
904.791753
20
427.133742
11
904.699614
21
427.772054
0
LINE
8
Layer 1
10
904.699614
20
427.772054
11
904.879137
21
428.270165
0
LINE
8
Layer 1
10
904.879137
20
428.270165
11
905.361535
21
428.643384
0
LINE
8
Layer 1
10
905.361535
20
428.643384
11
906.178023
21
428.907017
0
LINE
8
Layer 1
10
906.178023
20
428.907017
11
907.359813
21
429.076374
0
LINE
8
Layer 1
10
907.359813
20
429.076374
11
910.944160
21
429.193490
0
LINE
8
Layer 1
10
910.944160
20
429.193490
11
914.214187
21
429.152322
0
LINE
8
Layer 1
10
914.214187
20
429.152322
11
916.025643
21
428.958239
0
LINE
8
Layer 1
10
916.025643
20
428.958239
11
916.516736
21
428.770771
0
LINE
8
Layer 1
10
916.516736
20
428.770771
11
916.801982
21
428.505374
0
LINE
8
Layer 1
10
916.801982
20
428.505374
11
916.966660
21
427.687860
0
LINE
8
Layer 1
10
916.966660
20
427.687860
11
916.841878
21
427.398311
0
LINE
8
Layer 1
10
916.841878
20
427.398311
11
916.488470
21
427.119452
0
LINE
8
Layer 1
10
916.488470
20
427.119452
11
915.221418
21
426.608102
0
LINE
8
Layer 1
10
915.221418
20
426.608102
11
913.416777
21
426.182412
0
LINE
8
Layer 1
10
913.416777
20
426.182412
11
911.325823
21
425.870984
0
LINE
8
Layer 1
10
911.325823
20
425.870984
11
909.199829
21
425.702419
0
LINE
8
Layer 1
10
909.199829
20
425.702419
11
907.290071
21
425.705319
0
LINE
8
Layer 1
10
907.290071
20
425.705319
11
905.847823
21
425.908285
0
LINE
8
Layer 1
10
905.847823
20
425.908285
11
905.380539
21
426.093732
0
LINE
8
Layer 1
10
905.380539
20
426.093732
11
905.124360
21
426.339920
0
LINE
8
Layer 1
10
905.124360
20
426.339920
11
905.124340
21
426.339920
0
LINE
8
Layer 1
10
787.107340
20
428.010090
11
783.811084
21
428.906955
0
LINE
8
Layer 1
10
783.811084
20
428.906955
11
782.697526
21
429.392922
0
LINE
8
Layer 1
10
782.697526
20
429.392922
11
781.931418
21
429.911985
0
LINE
8
Layer 1
10
781.931418
20
429.911985
11
781.506063
21
430.470200
0
LINE
8
Layer 1
10
781.506063
20
430.470200
11
781.414767
21
431.073623
0
LINE
8
Layer 1
10
781.414767
20
431.073623
11
781.650831
21
431.728307
0
LINE
8
Layer 1
10
781.650831
20
431.728307
11
782.207560
21
432.440310
0
LINE
8
Layer 1
10
782.207560
20
432.440310
11
784.066553
21
432.273703
0
LINE
8
Layer 1
10
784.066553
20
432.273703
11
787.880229
21
431.542068
0
LINE
8
Layer 1
10
787.880229
20
431.542068
11
791.729370
21
430.651653
0
LINE
8
Layer 1
10
791.729370
20
430.651653
11
793.694760
21
430.008710
0
LINE
8
Layer 1
10
793.694760
20
430.008710
11
794.256669
21
429.253847
0
LINE
8
Layer 1
10
794.256669
20
429.253847
11
794.345435
21
428.619816
0
LINE
8
Layer 1
10
794.345435
20
428.619816
11
793.999725
21
428.118349
0
LINE
8
Layer 1
10
793.999725
20
428.118349
11
793.258204
21
427.761179
0
LINE
8
Layer 1
10
793.258204
20
427.761179
11
792.159538
21
427.560036
0
LINE
8
Layer 1
10
792.159538
20
427.560036
11
790.742393
21
427.526652
0
LINE
8
Layer 1
10
790.742393
20
427.526652
11
789.045435
21
427.672760
0
LINE
8
Layer 1
10
789.045435
20
427.672760
11
787.107330
21
428.010090
0
LINE
8
Layer 1
10
787.107330
20
428.010090
11
787.107340
21
428.010090
0
LINE
8
Layer 1
10
929.524340
20
428.252490
11
929.800809
21
429.190189
0
LINE
8
Layer 1
10
929.800809
20
429.190189
11
930.109888
21
429.489510
0
LINE
8
Layer 1
10
930.109888
20
429.489510
11
930.613653
21
429.697661
0
LINE
8
Layer 1
10
930.613653
20
429.697661
11
932.447602
21
429.906005
0
LINE
8
Layer 1
10
932.447602
20
429.906005
11
935.787390
21
429.946320
0
LINE
8
Layer 1
10
935.787390
20
429.946320
11
939.127163
21
429.906016
0
LINE
8
Layer 1
10
939.127163
20
429.906016
11
940.961085
21
429.697691
0
LINE
8
Layer 1
10
940.961085
20
429.697691
11
941.464841
21
429.489545
0
LINE
8
Layer 1
10
941.464841
20
429.489545
11
941.773920
21
429.190223
0
LINE
8
Layer 1
10
941.773920
20
429.190223
11
942.050430
21
428.252490
0
LINE
8
Layer 1
10
942.050430
20
428.252490
11
942.058283
21
427.294098
0
LINE
8
Layer 1
10
942.058283
20
427.294098
11
941.836247
21
426.993920
0
LINE
8
Layer 1
10
941.836247
20
426.993920
11
941.374268
21
426.788936
0
LINE
8
Layer 1
10
941.374268
20
426.788936
11
939.462573
21
426.592101
0
LINE
8
Layer 1
10
939.462573
20
426.592101
11
935.787390
21
426.558690
0
LINE
8
Layer 1
10
935.787390
20
426.558690
11
932.112277
21
426.592088
0
LINE
8
Layer 1
10
932.112277
20
426.592088
11
930.200579
21
426.788903
0
LINE
8
Layer 1
10
930.200579
20
426.788903
11
929.738581
21
426.993880
0
LINE
8
Layer 1
10
929.738581
20
426.993880
11
929.516523
21
427.294060
0
LINE
8
Layer 1
10
929.516523
20
427.294060
11
929.524340
21
428.252490
0
LINE
8
Layer 1
10
929.524340
20
428.252490
11
929.524340
21
428.252490
0
LINE
8
Layer 1
10
954.231240
20
428.755310
11
954.343211
21
429.050266
0
LINE
8
Layer 1
10
954.343211
20
429.050266
11
954.661614
21
429.330364
0
LINE
8
Layer 1
10
954.661614
20
429.330364
11
955.812674
21
429.834375
0
LINE
8
Layer 1
10
955.812674
20
429.834375
11
957.474322
21
430.244117
0
LINE
8
Layer 1
10
957.474322
20
430.244117
11
959.436464
21
430.536366
0
LINE
8
Layer 1
10
959.436464
20
430.536366
11
961.489002
21
430.687900
0
LINE
8
Layer 1
10
961.489002
20
430.687900
11
963.421842
21
430.675492
0
LINE
8
Layer 1
10
963.421842
20
430.675492
11
965.024886
21
430.475921
0
LINE
8
Layer 1
10
965.024886
20
430.475921
11
966.088040
21
430.065960
0
LINE
8
Layer 1
10
966.088040
20
430.065960
11
966.869507
21
429.402446
0
LINE
8
Layer 1
10
966.869507
20
429.402446
11
967.241476
21
428.834525
0
LINE
8
Layer 1
10
967.241476
20
428.834525
11
967.199596
21
428.360001
0
LINE
8
Layer 1
10
967.199596
20
428.360001
11
966.739516
21
427.976677
0
LINE
8
Layer 1
10
966.739516
20
427.976677
11
965.856885
21
427.682360
0
LINE
8
Layer 1
10
965.856885
20
427.682360
11
964.547351
21
427.474852
0
LINE
8
Layer 1
10
964.547351
20
427.474852
11
960.630170
21
427.311480
0
LINE
8
Layer 1
10
960.630170
20
427.311480
11
957.181033
21
427.352850
0
LINE
8
Layer 1
10
957.181033
20
427.352850
11
955.253556
21
427.542119
0
LINE
8
Layer 1
10
955.253556
20
427.542119
11
954.725104
21
427.722759
0
LINE
8
Layer 1
10
954.725104
20
427.722759
11
954.414662
21
427.977026
0
LINE
8
Layer 1
10
954.414662
20
427.977026
11
954.231270
21
428.755310
0
LINE
8
Layer 1
10
954.231270
20
428.755310
11
954.231240
21
428.755310
0
LINE
8
Layer 1
10
979.073940
20
429.193510
11
979.182160
21
430.268317
0
LINE
8
Layer 1
10
979.182160
20
430.268317
11
979.418005
21
430.602269
0
LINE
8
Layer 1
10
979.418005
20
430.602269
11
979.864401
21
430.828520
0
LINE
8
Layer 1
10
979.864401
20
430.828520
11
981.657034
21
431.041728
0
LINE
8
Layer 1
10
981.657034
20
431.041728
11
985.096430
21
431.075550
0
LINE
8
Layer 1
10
985.096430
20
431.075550
11
987.185714
21
430.994001
0
LINE
8
Layer 1
10
987.185714
20
430.994001
11
988.925446
21
430.766424
0
LINE
8
Layer 1
10
988.925446
20
430.766424
11
990.278212
21
430.418429
0
LINE
8
Layer 1
10
990.278212
20
430.418429
11
991.206600
21
429.975622
0
LINE
8
Layer 1
10
991.206600
20
429.975622
11
991.673198
21
429.463613
0
LINE
8
Layer 1
10
991.673198
20
429.463613
11
991.640594
21
428.908007
0
LINE
8
Layer 1
10
991.640594
20
428.908007
11
991.071376
21
428.334413
0
LINE
8
Layer 1
10
991.071376
20
428.334413
11
989.928130
21
427.768440
0
LINE
8
Layer 1
10
989.928130
20
427.768440
11
988.395765
21
427.342185
0
LINE
8
Layer 1
10
988.395765
20
427.342185
11
986.665832
21
427.121139
0
LINE
8
Layer 1
10
986.665832
20
427.121139
11
984.862201
21
427.089039
0
LINE
8
Layer 1
10
984.862201
20
427.089039
11
983.108738
21
427.229623
0
LINE
8
Layer 1
10
983.108738
20
427.229623
11
981.529311
21
427.526625
0
LINE
8
Layer 1
10
981.529311
20
427.526625
11
980.247789
21
427.963782
0
LINE
8
Layer 1
10
980.247789
20
427.963782
11
979.388039
21
428.524832
0
LINE
8
Layer 1
10
979.388039
20
428.524832
11
979.155038
21
428.846734
0
LINE
8
Layer 1
10
979.155038
20
428.846734
11
979.073930
21
429.193510
0
LINE
8
Layer 1
10
979.073930
20
429.193510
11
979.073940
21
429.193510
0
LINE
8
Layer 1
10
842.301940
20
431.136800
11
842.169015
21
431.433735
0
LINE
8
Layer 1
10
842.169015
20
431.433735
11
842.150799
21
431.916961
0
LINE
8
Layer 1
10
842.150799
20
431.916961
11
842.409805
21
433.328893
0
LINE
8
Layer 1
10
842.409805
20
433.328893
11
843.768765
21
437.140930
0
LINE
8
Layer 1
10
843.768765
20
437.140930
11
845.599835
21
440.758627
0
LINE
8
Layer 1
10
845.599835
20
440.758627
11
846.448979
21
441.927634
0
LINE
8
Layer 1
10
846.448979
20
441.927634
11
846.814352
21
442.252959
0
LINE
8
Layer 1
10
846.814352
20
442.252959
11
847.124030
21
442.367700
0
LINE
8
Layer 1
10
847.124030
20
442.367700
11
847.758182
21
442.256081
0
LINE
8
Layer 1
10
847.758182
20
442.256081
11
848.205556
21
441.920795
0
LINE
8
Layer 1
10
848.205556
20
441.920795
11
848.466139
21
441.361195
0
LINE
8
Layer 1
10
848.466139
20
441.361195
11
848.539918
21
440.576639
0
LINE
8
Layer 1
10
848.539918
20
440.576639
11
848.127013
21
438.330074
0
LINE
8
Layer 1
10
848.127013
20
438.330074
11
846.966740
21
435.175940
0
LINE
8
Layer 1
10
846.966740
20
435.175940
11
845.609781
21
432.305139
0
LINE
8
Layer 1
10
845.609781
20
432.305139
11
845.025879
21
431.375583
0
LINE
8
Layer 1
10
845.025879
20
431.375583
11
844.480028
21
430.761609
0
LINE
8
Layer 1
10
844.480028
20
430.761609
11
843.953474
21
430.446979
0
LINE
8
Layer 1
10
843.953474
20
430.446979
11
843.427468
21
430.415459
0
LINE
8
Layer 1
10
843.427468
20
430.415459
11
842.883257
21
430.650811
0
LINE
8
Layer 1
10
842.883257
20
430.650811
11
842.302090
21
431.136800
0
LINE
8
Layer 1
10
842.302090
20
431.136800
11
842.301940
21
431.136800
0
LINE
8
Layer 1
10
672.114940
20
436.063780
11
669.242539
21
437.751777
0
LINE
8
Layer 1
10
669.242539
20
437.751777
11
667.844859
21
438.848724
0
LINE
8
Layer 1
10
667.844859
20
438.848724
11
667.596519
21
439.299982
0
LINE
8
Layer 1
10
667.596519
20
439.299982
11
667.593836
21
439.752791
0
LINE
8
Layer 1
10
667.593836
20
439.752791
11
668.161410
21
440.862150
0
LINE
8
Layer 1
10
668.161410
20
440.862150
11
668.717910
21
441.349642
0
LINE
8
Layer 1
10
668.717910
20
441.349642
11
669.654664
21
441.314035
0
LINE
8
Layer 1
10
669.654664
20
441.314035
11
671.271246
21
440.676328
0
LINE
8
Layer 1
10
671.271246
20
440.676328
11
673.867230
21
439.357520
0
LINE
8
Layer 1
10
673.867230
20
439.357520
11
677.185418
21
437.536402
0
LINE
8
Layer 1
10
677.185418
20
437.536402
11
678.867615
21
436.338863
0
LINE
8
Layer 1
10
678.867615
20
436.338863
11
679.200735
21
435.865791
0
LINE
8
Layer 1
10
679.200735
20
435.865791
11
679.251480
21
435.418842
0
LINE
8
Layer 1
10
679.251480
20
435.418842
11
679.062056
21
434.954757
0
LINE
8
Layer 1
10
679.062056
20
434.954757
11
678.674670
21
434.430280
0
LINE
8
Layer 1
10
678.674670
20
434.430280
11
677.909542
21
433.641880
0
LINE
8
Layer 1
10
677.909542
20
433.641880
11
677.507121
21
433.497360
0
LINE
8
Layer 1
10
677.507121
20
433.497360
11
676.985413
21
433.545700
0
LINE
8
Layer 1
10
676.985413
20
433.545700
11
675.265979
21
434.300185
0
LINE
8
Layer 1
10
675.265979
20
434.300185
11
672.114940
21
436.063780
0
LINE
8
Layer 1
10
672.114940
20
436.063780
11
672.114940
21
436.063780
0
LINE
8
Layer 1
10
763.787640
20
435.559250
11
760.752216
21
437.018172
0
LINE
8
Layer 1
10
760.752216
20
437.018172
11
759.107315
21
438.145955
0
LINE
8
Layer 1
10
759.107315
20
438.145955
11
758.729913
21
438.663079
0
LINE
8
Layer 1
10
758.729913
20
438.663079
11
758.608466
21
439.190308
0
LINE
8
Layer 1
10
758.608466
20
439.190308
11
758.712415
21
439.758608
0
LINE
8
Layer 1
10
758.712415
20
439.758608
11
759.011200
21
440.398940
0
LINE
8
Layer 1
10
759.011200
20
440.398940
11
759.328452
21
440.686558
0
LINE
8
Layer 1
10
759.328452
20
440.686558
11
759.840102
21
440.814546
0
LINE
8
Layer 1
10
759.840102
20
440.814546
11
761.320823
21
440.656080
0
LINE
8
Layer 1
10
761.320823
20
440.656080
11
763.201818
21
440.052427
0
LINE
8
Layer 1
10
763.201818
20
440.052427
11
765.231545
21
439.132476
0
LINE
8
Layer 1
10
765.231545
20
439.132476
11
767.158460
21
438.025114
0
LINE
8
Layer 1
10
767.158460
20
438.025114
11
768.731020
21
436.859227
0
LINE
8
Layer 1
10
768.731020
20
436.859227
11
769.697681
21
435.763704
0
LINE
8
Layer 1
10
769.697681
20
435.763704
11
769.875192
21
435.282605
0
LINE
8
Layer 1
10
769.875192
20
435.282605
11
769.806900
21
434.867430
0
LINE
8
Layer 1
10
769.806900
20
434.867430
11
768.824540
21
433.355110
0
LINE
8
Layer 1
10
768.824540
20
433.355110
11
763.787650
21
435.559250
0
LINE
8
Layer 1
10
763.787650
20
435.559250
11
763.787640
21
435.559250
0
LINE
8
Layer 1
10
342.463640
20
437.484880
11
342.540102
21
438.167153
0
LINE
8
Layer 1
10
342.540102
20
438.167153
11
343.002763
21
439.330306
0
LINE
8
Layer 1
10
343.002763
20
439.330306
11
344.698525
21
442.456374
0
LINE
8
Layer 1
10
344.698525
20
442.456374
11
346.774612
21
445.577324
0
LINE
8
Layer 1
10
346.774612
20
445.577324
11
347.712679
21
446.734081
0
LINE
8
Layer 1
10
347.712679
20
446.734081
11
348.454710
21
447.407400
0
LINE
8
Layer 1
10
348.454710
20
447.407400
11
349.410334
21
447.828480
0
LINE
8
Layer 1
10
349.410334
20
447.828480
11
350.076186
21
447.772221
0
LINE
8
Layer 1
10
350.076186
20
447.772221
11
350.455222
21
447.301676
0
LINE
8
Layer 1
10
350.455222
20
447.301676
11
350.550398
21
446.479899
0
LINE
8
Layer 1
10
350.550398
20
446.479899
11
350.364669
21
445.369943
0
LINE
8
Layer 1
10
350.364669
20
445.369943
11
349.900993
21
444.034862
0
LINE
8
Layer 1
10
349.900993
20
444.034862
11
349.162325
21
442.537710
0
LINE
8
Layer 1
10
349.162325
20
442.537710
11
348.151620
21
440.941540
0
LINE
8
Layer 1
10
348.151620
20
440.941540
11
346.008422
21
438.159457
0
LINE
8
Layer 1
10
346.008422
20
438.159457
11
345.141111
21
437.262470
0
LINE
8
Layer 1
10
345.141111
20
437.262470
11
344.397198
21
436.687079
0
LINE
8
Layer 1
10
344.397198
20
436.687079
11
343.767089
21
436.427454
0
LINE
8
Layer 1
10
343.767089
20
436.427454
11
343.241189
21
436.477766
0
LINE
8
Layer 1
10
343.241189
20
436.477766
11
342.809904
21
436.832185
0
LINE
8
Layer 1
10
342.809904
20
436.832185
11
342.463640
21
437.484880
0
LINE
8
Layer 1
10
342.463640
20
437.484880
11
342.463640
21
437.484880
0
LINE
8
Layer 1
10
650.280640
20
448.070380
11
648.831375
21
448.993646
0
LINE
8
Layer 1
10
648.831375
20
448.993646
11
647.647679
21
449.947471
0
LINE
8
Layer 1
10
647.647679
20
449.947471
11
646.753448
21
450.884492
0
LINE
8
Layer 1
10
646.753448
20
450.884492
11
646.172576
21
451.757350
0
LINE
8
Layer 1
10
646.172576
20
451.757350
11
645.928960
21
452.518683
0
LINE
8
Layer 1
10
645.928960
20
452.518683
11
646.046493
21
453.121129
0
LINE
8
Layer 1
10
646.046493
20
453.121129
11
646.549071
21
453.517329
0
LINE
8
Layer 1
10
646.549071
20
453.517329
11
647.460590
21
453.659920
0
LINE
8
Layer 1
10
647.460590
20
453.659920
11
648.384477
21
453.415257
0
LINE
8
Layer 1
10
648.384477
20
453.415257
11
649.761267
21
452.762555
0
LINE
8
Layer 1
10
649.761267
20
452.762555
11
653.141998
21
450.720775
0
LINE
8
Layer 1
10
653.141998
20
450.720775
11
656.139670
21
448.510050
0
LINE
8
Layer 1
10
656.139670
20
448.510050
11
657.037636
21
447.646167
0
LINE
8
Layer 1
10
657.037636
20
447.646167
11
657.291170
21
447.105850
0
LINE
8
Layer 1
10
657.291170
20
447.105850
11
656.870150
21
445.693830
0
LINE
8
Layer 1
10
656.870150
20
445.693830
11
656.760981
21
445.446270
0
LINE
8
Layer 1
10
656.760981
20
445.446270
11
656.437020
21
445.358099
0
LINE
8
Layer 1
10
656.437020
20
445.358099
11
655.166010
21
445.652364
0
LINE
8
Layer 1
10
655.166010
20
445.652364
11
653.099693
21
446.561499
0
LINE
8
Layer 1
10
653.099693
20
446.561499
11
650.280640
21
448.070380
0
LINE
8
Layer 1
10
650.280640
20
448.070380
11
650.280640
21
448.070380
0
LINE
8
Layer 1
10
742.393140
20
448.799820
11
739.849535
21
451.144663
0
LINE
8
Layer 1
10
739.849535
20
451.144663
11
739.033260
21
452.140761
0
LINE
8
Layer 1
10
739.033260
20
452.140761
11
738.526695
21
453.005619
0
LINE
8
Layer 1
10
738.526695
20
453.005619
11
738.334360
21
453.728968
0
LINE
8
Layer 1
10
738.334360
20
453.728968
11
738.460773
21
454.300540
0
LINE
8
Layer 1
10
738.460773
20
454.300540
11
738.910453
21
454.710067
0
LINE
8
Layer 1
10
738.910453
20
454.710067
11
739.687920
21
454.947280
0
LINE
8
Layer 1
10
739.687920
20
454.947280
11
740.757104
21
454.742790
0
LINE
8
Layer 1
10
740.757104
20
454.742790
11
742.130920
21
453.967736
0
LINE
8
Layer 1
10
742.130920
20
453.967736
11
743.650773
21
452.785619
0
LINE
8
Layer 1
10
743.650773
20
452.785619
11
745.158070
21
451.359941
0
LINE
8
Layer 1
10
745.158070
20
451.359941
11
746.494217
21
449.854203
0
LINE
8
Layer 1
10
746.494217
20
449.854203
11
747.500620
21
448.431906
0
LINE
8
Layer 1
10
747.500620
20
448.431906
11
748.018686
21
447.256551
0
LINE
8
Layer 1
10
748.018686
20
447.256551
11
748.045031
21
446.812571
0
LINE
8
Layer 1
10
748.045031
20
446.812571
11
747.889820
21
446.491640
0
LINE
8
Layer 1
10
747.889820
20
446.491640
11
747.122768
21
445.941434
0
LINE
8
Layer 1
10
747.122768
20
445.941434
11
746.706724
21
445.898064
0
LINE
8
Layer 1
10
746.706724
20
445.898064
11
746.205396
21
446.035893
0
LINE
8
Layer 1
10
746.205396
20
446.035893
11
744.756066
21
446.935270
0
LINE
8
Layer 1
10
744.756066
20
446.935270
11
742.393140
21
448.799820
0
LINE
8
Layer 1
10
742.393140
20
448.799820
11
742.393140
21
448.799820
0
LINE
8
Layer 1
10
849.119140
20
456.765250
11
849.451490
21
459.504766
0
LINE
8
Layer 1
10
849.451490
20
459.504766
11
849.589650
21
462.787740
0
LINE
8
Layer 1
10
849.589650
20
462.787740
11
849.637628
21
464.800908
0
LINE
8
Layer 1
10
849.637628
20
464.800908
11
849.874426
21
465.902475
0
LINE
8
Layer 1
10
849.874426
20
465.902475
11
850.107164
21
466.196319
0
LINE
8
Layer 1
10
850.107164
20
466.196319
11
850.439344
21
466.364157
0
LINE
8
Layer 1
10
850.439344
20
466.364157
11
851.471680
21
466.457670
0
LINE
8
Layer 1
10
851.471680
20
466.457670
11
852.172111
21
466.375317
0
LINE
8
Layer 1
10
852.172111
20
466.375317
11
852.708114
21
466.098957
0
LINE
8
Layer 1
10
852.708114
20
466.098957
11
853.086902
21
465.584640
0
LINE
8
Layer 1
10
853.086902
20
465.584640
11
853.315685
21
464.788415
0
LINE
8
Layer 1
10
853.315685
20
464.788415
11
853.352078
21
462.174441
0
LINE
8
Layer 1
10
853.352078
20
462.174441
11
852.874980
21
457.905430
0
LINE
8
Layer 1
10
852.874980
20
457.905430
11
852.561858
21
456.055518
0
LINE
8
Layer 1
10
852.561858
20
456.055518
11
852.161743
21
454.999808
0
LINE
8
Layer 1
10
852.161743
20
454.999808
11
851.530113
21
454.523731
0
LINE
8
Layer 1
10
851.530113
20
454.523731
11
850.522450
21
454.412720
0
LINE
8
Layer 1
10
850.522450
20
454.412720
11
849.527262
21
454.480648
0
LINE
8
Layer 1
10
849.527262
20
454.480648
11
849.024550
21
454.789905
0
LINE
8
Layer 1
10
849.024550
20
454.789905
11
848.919961
21
455.498702
0
LINE
8
Layer 1
10
848.919961
20
455.498702
11
849.119140
21
456.765250
0
LINE
8
Layer 1
10
849.119140
20
456.765250
11
849.119140
21
456.765250
0
LINE
8
Layer 1
10
357.375140
20
456.898330
11
357.195883
21
457.323403
0
LINE
8
Layer 1
10
357.195883
20
457.323403
11
357.226063
21
457.878334
0
LINE
8
Layer 1
10
357.226063
20
457.878334
11
357.817145
21
459.279659
0
LINE
8
Layer 1
10
357.817145
20
459.279659
11
358.953208
21
460.906076
0
LINE
8
Layer 1
10
358.953208
20
460.906076
11
360.439075
21
462.561358
0
LINE
8
Layer 1
10
360.439075
20
462.561358
11
362.079568
21
464.049276
0
LINE
8
Layer 1
10
362.079568
20
464.049276
11
363.679508
21
465.173602
0
LINE
8
Layer 1
10
363.679508
20
465.173602
11
365.043718
21
465.738110
0
LINE
8
Layer 1
10
365.043718
20
465.738110
11
365.576431
21
465.749110
0
LINE
8
Layer 1
10
365.576431
20
465.749110
11
365.977020
21
465.546570
0
LINE
8
Layer 1
10
365.977020
20
465.546570
11
366.631189
21
464.739295
0
LINE
8
Layer 1
10
366.631189
20
464.739295
11
366.705418
21
464.339745
0
LINE
8
Layer 1
10
366.705418
20
464.339745
11
366.579370
21
463.872721
0
LINE
8
Layer 1
10
366.579370
20
463.872721
11
365.631316
21
462.525654
0
LINE
8
Layer 1
10
365.631316
20
462.525654
11
363.596780
21
460.276900
0
LINE
8
Layer 1
10
363.596780
20
460.276900
11
361.060011
21
457.663599
0
LINE
8
Layer 1
10
361.060011
20
457.663599
11
359.409376
21
456.355334
0
LINE
8
Layer 1
10
359.409376
20
456.355334
11
358.807658
21
456.131560
0
LINE
8
Layer 1
10
358.807658
20
456.131560
11
358.297033
21
456.163210
0
LINE
8
Layer 1
10
358.297033
20
456.163210
11
357.834020
21
456.426670
0
LINE
8
Layer 1
10
357.834020
20
456.426670
11
357.375140
21
456.898330
0
LINE
8
Layer 1
10
357.375140
20
456.898330
11
357.375140
21
456.898330
0
LINE
8
Layer 1
10
629.204140
20
460.113790
11
626.342248
21
461.793135
0
LINE
8
Layer 1
10
626.342248
20
461.793135
11
624.939498
21
462.898360
0
LINE
8
Layer 1
10
624.939498
20
462.898360
11
624.685237
21
463.357296
0
LINE
8
Layer 1
10
624.685237
20
463.357296
11
624.675686
21
463.818643
0
LINE
8
Layer 1
10
624.675686
20
463.818643
11
625.230610
21
464.943160
0
LINE
8
Layer 1
10
625.230610
20
464.943160
11
625.577212
21
465.247192
0
LINE
8
Layer 1
10
625.577212
20
465.247192
11
626.095350
21
465.375692
0
LINE
8
Layer 1
10
626.095350
20
465.375692
11
627.533103
21
465.176229
0
LINE
8
Layer 1
10
627.533103
20
465.176229
11
629.317617
21
464.485040
0
LINE
8
Layer 1
10
629.317617
20
464.485040
11
631.222638
21
463.442390
0
LINE
8
Layer 1
10
631.222638
20
463.442390
11
633.021911
21
462.188548
0
LINE
8
Layer 1
10
633.021911
20
462.188548
11
634.489183
21
460.863781
0
LINE
8
Layer 1
10
634.489183
20
460.863781
11
635.398201
21
459.608356
0
LINE
8
Layer 1
10
635.398201
20
459.608356
11
635.572660
21
459.050480
0
LINE
8
Layer 1
10
635.572660
20
459.050480
11
635.522710
21
458.562540
0
LINE
8
Layer 1
10
635.522710
20
458.562540
11
635.033131
21
457.716509
0
LINE
8
Layer 1
10
635.033131
20
457.716509
11
634.668434
21
457.564490
0
LINE
8
Layer 1
10
634.668434
20
457.564490
11
634.142408
21
457.613116
0
LINE
8
Layer 1
10
634.142408
20
457.613116
11
632.362203
21
458.372248
0
LINE
8
Layer 1
10
632.362203
20
458.372248
11
629.204180
21
460.113790
0
LINE
8
Layer 1
10
629.204180
20
460.113790
11
629.204140
21
460.113790
0
LINE
8
Layer 1
10
725.733740
20
468.322180
11
723.947745
21
471.992045
0
LINE
8
Layer 1
10
723.947745
20
471.992045
11
723.513246
21
473.284490
0
LINE
8
Layer 1
10
723.513246
20
473.284490
11
723.482890
21
473.968260
0
LINE
8
Layer 1
10
723.482890
20
473.968260
11
723.790323
21
474.272571
0
LINE
8
Layer 1
10
723.790323
20
474.272571
11
724.251056
21
474.501376
0
LINE
8
Layer 1
10
724.251056
20
474.501376
11
725.392886
21
474.721113
0
LINE
8
Layer 1
10
725.392886
20
474.721113
11
726.429306
21
474.604763
0
LINE
8
Layer 1
10
726.429306
20
474.604763
11
726.758276
21
474.413459
0
LINE
8
Layer 1
10
726.758276
20
474.413459
11
726.881240
21
474.129620
0
LINE
8
Layer 1
10
726.881240
20
474.129620
11
727.628525
21
472.458588
0
LINE
8
Layer 1
10
727.628525
20
472.458588
11
729.425210
21
469.296060
0
LINE
8
Layer 1
10
729.425210
20
469.296060
11
730.545571
21
467.315275
0
LINE
8
Layer 1
10
730.545571
20
467.315275
11
731.191701
21
465.861743
0
LINE
8
Layer 1
10
731.191701
20
465.861743
11
731.387450
21
464.866066
0
LINE
8
Layer 1
10
731.387450
20
464.866066
11
731.156670
21
464.258850
0
LINE
8
Layer 1
10
731.156670
20
464.258850
11
730.575531
21
463.777888
0
LINE
8
Layer 1
10
730.575531
20
463.777888
11
730.013845
21
463.544184
0
LINE
8
Layer 1
10
730.013845
20
463.544184
11
729.448067
21
463.575379
0
LINE
8
Layer 1
10
729.448067
20
463.575379
11
728.854652
21
463.889116
0
LINE
8
Layer 1
10
728.854652
20
463.889116
11
728.210057
21
464.503038
0
LINE
8
Layer 1
10
728.210057
20
464.503038
11
727.490737
21
465.434786
0
LINE
8
Layer 1
10
727.490737
20
465.434786
11
725.733740
21
468.322330
0
LINE
8
Layer 1
10
725.733740
20
468.322330
11
725.733740
21
468.322180
0
LINE
8
Layer 1
10
607.750000
20
472.926000
11
605.165050
21
474.738590
0
LINE
8
Layer 1
10
605.165050
20
474.738590
11
604.306063
21
475.529325
0
LINE
8
Layer 1
10
604.306063
20
475.529325
11
603.739051
21
476.238286
0
LINE
8
Layer 1
10
603.739051
20
476.238286
11
603.466252
21
476.861925
0
LINE
8
Layer 1
10
603.466252
20
476.861925
11
603.489902
21
477.396690
0
LINE
8
Layer 1
10
603.489902
20
477.396690
11
603.812239
21
477.839031
0
LINE
8
Layer 1
10
603.812239
20
477.839031
11
604.435500
21
478.185400
0
LINE
8
Layer 1
10
604.435500
20
478.185400
11
605.333703
21
478.143636
0
LINE
8
Layer 1
10
605.333703
20
478.143636
11
606.719220
21
477.645289
0
LINE
8
Layer 1
10
606.719220
20
477.645289
11
610.186843
21
475.760839
0
LINE
8
Layer 1
10
610.186843
20
475.760839
11
613.307669
21
473.496047
0
LINE
8
Layer 1
10
613.307669
20
473.496047
11
614.259690
21
472.522272
0
LINE
8
Layer 1
10
614.259690
20
472.522272
11
614.551000
21
471.814910
0
LINE
8
Layer 1
10
614.551000
20
471.814910
11
614.333649
21
471.170455
0
LINE
8
Layer 1
10
614.333649
20
471.170455
11
613.962716
21
470.745368
0
LINE
8
Layer 1
10
613.962716
20
470.745368
11
613.424597
21
470.541869
0
LINE
8
Layer 1
10
613.424597
20
470.541869
11
612.705686
21
470.562183
0
LINE
8
Layer 1
10
612.705686
20
470.562183
11
610.671073
21
471.283134
0
LINE
8
Layer 1
10
610.671073
20
471.283134
11
607.750040
21
472.926000
0
LINE
8
Layer 1
10
607.750040
20
472.926000
11
607.750000
21
472.926000
0
LINE
8
Layer 1
10
374.791000
20
474.487600
11
374.773519
21
475.029193
0
LINE
8
Layer 1
10
374.773519
20
475.029193
11
375.057423
21
475.728704
0
LINE
8
Layer 1
10
375.057423
20
475.728704
11
376.449488
21
477.517193
0
LINE
8
Layer 1
10
376.449488
20
477.517193
11
378.807391
21
479.684487
0
LINE
8
Layer 1
10
378.807391
20
479.684487
11
381.971330
21
482.062010
0
LINE
8
Layer 1
10
381.971330
20
482.062010
11
383.220415
21
482.619741
0
LINE
8
Layer 1
10
383.220415
20
482.619741
11
383.758545
21
482.635630
0
LINE
8
Layer 1
10
383.758545
20
482.635630
11
384.220874
21
482.486154
0
LINE
8
Layer 1
10
384.220874
20
482.486154
11
384.593755
21
482.178775
0
LINE
8
Layer 1
10
384.593755
20
482.178775
11
384.863543
21
481.720959
0
LINE
8
Layer 1
10
384.863543
20
481.720959
11
385.016593
21
481.120169
0
LINE
8
Layer 1
10
385.016593
20
481.120169
11
385.039260
21
480.383870
0
LINE
8
Layer 1
10
385.039260
20
480.383870
11
384.907764
21
479.869218
0
LINE
8
Layer 1
10
384.907764
20
479.869218
11
384.587500
21
479.304492
0
LINE
8
Layer 1
10
384.587500
20
479.304492
11
383.484293
21
478.084437
0
LINE
8
Layer 1
10
383.484293
20
478.084437
11
381.936895
21
476.842952
0
LINE
8
Layer 1
10
381.936895
20
476.842952
11
380.152560
21
475.699279
0
LINE
8
Layer 1
10
380.152560
20
475.699279
11
378.338544
21
474.772663
0
LINE
8
Layer 1
10
378.338544
20
474.772663
11
376.702102
21
474.182348
0
LINE
8
Layer 1
10
376.702102
20
474.182348
11
375.450489
21
474.047579
0
LINE
8
Layer 1
10
375.450489
20
474.047579
11
375.033760
21
474.188288
0
LINE
8
Layer 1
10
375.033760
20
474.188288
11
374.790960
21
474.487600
0
LINE
8
Layer 1
10
374.790960
20
474.487600
11
374.791000
21
474.487600
0
LINE
8
Layer 1
10
846.717000
20
483.959740
11
846.241781
21
485.868220
0
LINE
8
Layer 1
10
846.241781
20
485.868220
11
845.977141
21
487.582145
0
LINE
8
Layer 1
10
845.977141
20
487.582145
11
845.911492
21
489.047190
0
LINE
8
Layer 1
10
845.911492
20
489.047190
11
846.033249
21
490.209031
0
LINE
8
Layer 1
10
846.033249
20
490.209031
11
846.330823
21
491.013344
0
LINE
8
Layer 1
10
846.330823
20
491.013344
11
846.792630
21
491.405804
0
LINE
8
Layer 1
10
846.792630
20
491.405804
11
847.407081
21
491.332088
0
LINE
8
Layer 1
10
847.407081
20
491.332088
11
848.162590
21
490.737870
0
LINE
8
Layer 1
10
848.162590
20
490.737870
11
848.733768
21
489.824116
0
LINE
8
Layer 1
10
848.733768
20
489.824116
11
849.334336
21
488.362391
0
LINE
8
Layer 1
10
849.334336
20
488.362391
11
850.435793
21
484.584178
0
LINE
8
Layer 1
10
850.435793
20
484.584178
11
851.091257
21
480.981535
0
LINE
8
Layer 1
10
851.091257
20
480.981535
11
851.134337
21
479.739274
0
LINE
8
Layer 1
10
851.134337
20
479.739274
11
850.925030
21
479.132770
0
LINE
8
Layer 1
10
850.925030
20
479.132770
11
850.240699
21
478.761964
0
LINE
8
Layer 1
10
850.240699
20
478.761964
11
849.653222
21
478.610287
0
LINE
8
Layer 1
10
849.653222
20
478.610287
11
849.136789
21
478.707341
0
LINE
8
Layer 1
10
849.136789
20
478.707341
11
848.665593
21
479.082733
0
LINE
8
Layer 1
10
848.665593
20
479.082733
11
848.213824
21
479.766066
0
LINE
8
Layer 1
10
848.213824
20
479.766066
11
847.755674
21
480.786945
0
LINE
8
Layer 1
10
847.755674
20
480.786945
11
846.717000
21
483.959760
0
LINE
8
Layer 1
10
846.717000
20
483.959760
11
846.717000
21
483.959740
0
LINE
8
Layer 1
10
586.672000
20
485.723870
11
584.065276
21
487.551352
0
LINE
8
Layer 1
10
584.065276
20
487.551352
11
583.208421
21
488.343872
0
LINE
8
Layer 1
10
583.208421
20
488.343872
11
582.650870
21
489.052910
0
LINE
8
Layer 1
10
582.650870
20
489.052910
11
582.393846
21
489.676465
0
LINE
8
Layer 1
10
582.393846
20
489.676465
11
582.438572
21
490.212536
0
LINE
8
Layer 1
10
582.438572
20
490.212536
11
582.786272
21
490.659121
0
LINE
8
Layer 1
10
582.786272
20
490.659121
11
583.438170
21
491.014220
0
LINE
8
Layer 1
10
583.438170
20
491.014220
11
584.339888
21
490.974376
0
LINE
8
Layer 1
10
584.339888
20
490.974376
11
585.719746
21
490.475092
0
LINE
8
Layer 1
10
585.719746
20
490.475092
11
589.158863
21
488.581345
0
LINE
8
Layer 1
10
589.158863
20
488.581345
11
590.840612
21
487.428450
0
LINE
8
Layer 1
10
590.840612
20
487.428450
11
592.245483
21
486.299255
0
LINE
8
Layer 1
10
592.245483
20
486.299255
11
593.184720
21
485.314543
0
LINE
8
Layer 1
10
593.184720
20
485.314543
11
593.469570
21
484.595100
0
LINE
8
Layer 1
10
593.469570
20
484.595100
11
593.252876
21
483.956845
0
LINE
8
Layer 1
10
593.252876
20
483.956845
11
592.881633
21
483.536893
0
LINE
8
Layer 1
10
592.881633
20
483.536893
11
592.342687
21
483.337427
0
LINE
8
Layer 1
10
592.342687
20
483.337427
11
591.622884
21
483.360633
0
LINE
8
Layer 1
10
591.622884
20
483.360633
11
589.588085
21
484.083799
0
LINE
8
Layer 1
10
589.588085
20
484.083799
11
586.672000
21
485.723870
0
LINE
8
Layer 1
10
586.672000
20
485.723870
11
586.672000
21
485.723870
0
LINE
8
Layer 1
10
719.104000
20
486.531840
11
718.802007
21
487.339711
0
LINE
8
Layer 1
10
718.802007
20
487.339711
11
718.620148
21
488.863732
0
LINE
8
Layer 1
10
718.620148
20
488.863732
11
718.580500
21
493.043741
0
LINE
8
Layer 1
10
718.580500
20
493.043741
11
718.912387
21
497.038900
0
LINE
8
Layer 1
10
718.912387
20
497.038900
11
719.194947
21
498.331858
0
LINE
8
Layer 1
10
719.194947
20
498.331858
11
719.361407
21
498.691003
0
LINE
8
Layer 1
10
719.361407
20
498.691003
11
719.543140
21
498.816240
0
LINE
8
Layer 1
10
719.543140
20
498.816240
11
720.206699
21
498.745582
0
LINE
8
Layer 1
10
720.206699
20
498.745582
11
720.748420
21
498.529983
0
LINE
8
Layer 1
10
720.748420
20
498.529983
11
721.181035
21
498.138465
0
LINE
8
Layer 1
10
721.181035
20
498.138465
11
721.517275
21
497.540054
0
LINE
8
Layer 1
10
721.517275
20
497.540054
11
721.951563
21
495.598643
0
LINE
8
Layer 1
10
721.951563
20
495.598643
11
722.153140
21
492.457940
0
LINE
8
Layer 1
10
722.153140
20
492.457940
11
722.024102
21
488.959873
0
LINE
8
Layer 1
10
722.024102
20
488.959873
11
721.780069
21
487.673768
0
LINE
8
Layer 1
10
721.780069
20
487.673768
11
721.427669
21
486.718260
0
LINE
8
Layer 1
10
721.427669
20
486.718260
11
720.975381
21
486.109831
0
LINE
8
Layer 1
10
720.975381
20
486.109831
11
720.431686
21
485.864965
0
LINE
8
Layer 1
10
720.431686
20
485.864965
11
719.805066
21
486.000143
0
LINE
8
Layer 1
10
719.805066
20
486.000143
11
719.104000
21
486.531850
0
LINE
8
Layer 1
10
719.104000
20
486.531850
11
719.104000
21
486.531840
0
LINE
8
Layer 1
10
394.999000
20
488.484020
11
394.521691
21
489.042280
0
LINE
8
Layer 1
10
394.521691
20
489.042280
11
394.279633
21
489.565903
0
LINE
8
Layer 1
10
394.279633
20
489.565903
11
394.298477
21
490.087283
0
LINE
8
Layer 1
10
394.298477
20
490.087283
11
394.603875
21
490.638815
0
LINE
8
Layer 1
10
394.603875
20
490.638815
11
396.176943
21
491.961913
0
LINE
8
Layer 1
10
396.176943
20
491.961913
11
399.204050
21
493.794350
0
LINE
8
Layer 1
10
399.204050
20
493.794350
11
401.174398
21
494.761161
0
LINE
8
Layer 1
10
401.174398
20
494.761161
11
402.979711
21
495.378629
0
LINE
8
Layer 1
10
402.979711
20
495.378629
11
404.517161
21
495.665646
0
LINE
8
Layer 1
10
404.517161
20
495.665646
11
405.683915
21
495.641108
0
LINE
8
Layer 1
10
405.683915
20
495.641108
11
406.377144
21
495.323907
0
LINE
8
Layer 1
10
406.377144
20
495.323907
11
406.514051
21
495.061462
0
LINE
8
Layer 1
10
406.514051
20
495.061462
11
406.494016
21
494.732938
0
LINE
8
Layer 1
10
406.494016
20
494.732938
11
405.931702
21
493.887094
0
LINE
8
Layer 1
10
405.931702
20
493.887094
11
404.587370
21
492.805270
0
LINE
8
Layer 1
10
404.587370
20
492.805270
11
400.942171
21
490.487106
0
LINE
8
Layer 1
10
400.942171
20
490.487106
11
398.091634
21
488.977316
0
LINE
8
Layer 1
10
398.091634
20
488.977316
11
396.091872
21
488.301190
0
LINE
8
Layer 1
10
396.091872
20
488.301190
11
395.428568
21
488.283655
0
LINE
8
Layer 1
10
395.428568
20
488.283655
11
394.999000
21
488.484020
0
LINE
8
Layer 1
10
394.999000
20
488.484020
11
394.999000
21
488.484020
0
LINE
8
Layer 1
10
564.840000
20
497.416720
11
562.295517
21
498.879891
0
LINE
8
Layer 1
10
562.295517
20
498.879891
11
561.438474
21
499.553550
0
LINE
8
Layer 1
10
561.438474
20
499.553550
11
560.859915
21
500.186241
0
LINE
8
Layer 1
10
560.859915
20
500.186241
11
560.561106
21
500.776199
0
LINE
8
Layer 1
10
560.561106
20
500.776199
11
560.543313
21
501.321661
0
LINE
8
Layer 1
10
560.543313
20
501.321661
11
560.807799
21
501.820863
0
LINE
8
Layer 1
10
560.807799
20
501.820863
11
561.355830
21
502.272040
0
LINE
8
Layer 1
10
561.355830
20
502.272040
11
561.762056
21
502.396949
0
LINE
8
Layer 1
10
561.762056
20
502.396949
11
562.324573
21
502.387037
0
LINE
8
Layer 1
10
562.324573
20
502.387037
11
563.812239
21
502.022401
0
LINE
8
Layer 1
10
563.812239
20
502.022401
11
565.606338
21
501.297442
0
LINE
8
Layer 1
10
565.606338
20
501.297442
11
567.494383
21
500.331469
0
LINE
8
Layer 1
10
567.494383
20
500.331469
11
569.263883
21
499.243791
0
LINE
8
Layer 1
10
569.263883
20
499.243791
11
570.702350
21
498.153717
0
LINE
8
Layer 1
10
570.702350
20
498.153717
11
571.597295
21
497.180557
0
LINE
8
Layer 1
10
571.597295
20
497.180557
11
571.774544
21
496.775104
0
LINE
8
Layer 1
10
571.774544
20
496.775104
11
571.736230
21
496.443620
0
LINE
8
Layer 1
10
571.736230
20
496.443620
11
571.388280
21
495.875566
0
LINE
8
Layer 1
10
571.388280
20
495.875566
11
571.008133
21
495.488383
0
LINE
8
Layer 1
10
571.008133
20
495.488383
11
570.538450
21
495.290163
0
LINE
8
Layer 1
10
570.538450
20
495.290163
11
569.921888
21
495.288998
0
LINE
8
Layer 1
10
569.921888
20
495.288998
11
568.018760
21
495.910198
0
LINE
8
Layer 1
10
568.018760
20
495.910198
11
564.840020
21
497.416720
0
LINE
8
Layer 1
10
564.840020
20
497.416720
11
564.840000
21
497.416720
0
LINE
8
Layer 1
10
416.612000
20
500.333350
11
416.423810
21
501.883340
0
LINE
8
Layer 1
10
416.423810
20
501.883340
11
416.830474
21
502.383695
0
LINE
8
Layer 1
10
416.830474
20
502.383695
11
417.966037
21
503.110034
0
LINE
8
Layer 1
10
417.966037
20
503.110034
11
421.515873
21
504.844260
0
LINE
8
Layer 1
10
421.515873
20
504.844260
11
425.257352
21
506.293216
0
LINE
8
Layer 1
10
425.257352
20
506.293216
11
426.632469
21
506.662967
0
LINE
8
Layer 1
10
426.632469
20
506.662967
11
427.374510
21
506.664100
0
LINE
8
Layer 1
10
427.374510
20
506.664100
11
427.954883
21
506.170131
0
LINE
8
Layer 1
10
427.954883
20
506.170131
11
428.202943
21
505.619491
0
LINE
8
Layer 1
10
428.202943
20
505.619491
11
428.125766
21
505.020585
0
LINE
8
Layer 1
10
428.125766
20
505.020585
11
427.730424
21
504.381816
0
LINE
8
Layer 1
10
427.730424
20
504.381816
11
427.023991
21
503.711589
0
LINE
8
Layer 1
10
427.023991
20
503.711589
11
426.013540
21
503.018308
0
LINE
8
Layer 1
10
426.013540
20
503.018308
11
423.108880
21
501.596200
0
LINE
8
Layer 1
10
423.108880
20
501.596200
11
419.850783
21
500.309172
0
LINE
8
Layer 1
10
419.850783
20
500.309172
11
417.909040
21
499.713831
0
LINE
8
Layer 1
10
417.909040
20
499.713831
11
417.325346
21
499.654851
0
LINE
8
Layer 1
10
417.325346
20
499.654851
11
416.942994
21
499.743962
0
LINE
8
Layer 1
10
416.942994
20
499.743962
11
416.719403
21
499.972887
0
LINE
8
Layer 1
10
416.719403
20
499.972887
11
416.611990
21
500.333350
0
LINE
8
Layer 1
10
416.611990
20
500.333350
11
416.612000
21
500.333350
0
LINE
8
Layer 1
10
835.060000
20
505.490740
11
833.130680
21
508.247508
0
LINE
8
Layer 1
10
833.130680
20
508.247508
11
832.590261
21
509.313707
0
LINE
8
Layer 1
10
832.590261
20
509.313707
11
832.332324
21
510.174018
0
LINE
8
Layer 1
10
832.332324
20
510.174018
11
832.356611
21
510.830117
0
LINE
8
Layer 1
10
832.356611
20
510.830117
11
832.662865
21
511.283683
0
LINE
8
Layer 1
10
832.662865
20
511.283683
11
833.250828
21
511.536391
0
LINE
8
Layer 1
10
833.250828
20
511.536391
11
834.120240
21
511.589920
0
LINE
8
Layer 1
10
834.120240
20
511.589920
11
834.837177
21
511.218553
0
LINE
8
Layer 1
10
834.837177
20
511.218553
11
835.854971
21
510.268315
0
LINE
8
Layer 1
10
835.854971
20
510.268315
11
838.275913
21
507.331820
0
LINE
8
Layer 1
10
838.275913
20
507.331820
11
840.348625
21
504.181612
0
LINE
8
Layer 1
10
840.348625
20
504.181612
11
840.931134
21
502.964234
0
LINE
8
Layer 1
10
840.931134
20
502.964234
11
841.038670
21
502.218870
0
LINE
8
Layer 1
10
841.038670
20
502.218870
11
840.694503
21
501.577715
0
LINE
8
Layer 1
10
840.694503
20
501.577715
11
840.256244
21
501.225052
0
LINE
8
Layer 1
10
840.256244
20
501.225052
11
839.713344
21
501.166655
0
LINE
8
Layer 1
10
839.713344
20
501.166655
11
839.055254
21
501.408298
0
LINE
8
Layer 1
10
839.055254
20
501.408298
11
838.271423
21
501.955753
0
LINE
8
Layer 1
10
838.271423
20
501.955753
11
837.351304
21
502.814797
0
LINE
8
Layer 1
10
837.351304
20
502.814797
11
835.060000
21
505.490740
0
LINE
8
Layer 1
10
835.060000
20
505.490740
11
835.060000
21
505.490740
0
LINE
8
Layer 1
10
541.879000
20
506.582880
11
539.065895
21
507.742719
0
LINE
8
Layer 1
10
539.065895
20
507.742719
11
538.084481
21
508.349210
0
LINE
8
Layer 1
10
538.084481
20
508.349210
11
537.399891
21
508.958166
0
LINE
8
Layer 1
10
537.399891
20
508.958166
11
537.022176
21
509.558153
0
LINE
8
Layer 1
10
537.022176
20
509.558153
11
536.961385
21
510.137735
0
LINE
8
Layer 1
10
536.961385
20
510.137735
11
537.227566
21
510.685476
0
LINE
8
Layer 1
10
537.227566
20
510.685476
11
537.830770
21
511.189940
0
LINE
8
Layer 1
10
537.830770
20
511.189940
11
538.736609
21
511.329423
0
LINE
8
Layer 1
10
538.736609
20
511.329423
11
540.187122
21
511.104553
0
LINE
8
Layer 1
10
540.187122
20
511.104553
11
541.977205
21
510.598166
0
LINE
8
Layer 1
10
541.977205
20
510.598166
11
543.901752
21
509.893096
0
LINE
8
Layer 1
10
543.901752
20
509.893096
11
545.755658
21
509.072181
0
LINE
8
Layer 1
10
545.755658
20
509.072181
11
547.333817
21
508.218254
0
LINE
8
Layer 1
10
547.333817
20
508.218254
11
548.431122
21
507.414152
0
LINE
8
Layer 1
10
548.431122
20
507.414152
11
548.735360
21
507.056671
0
LINE
8
Layer 1
10
548.735360
20
507.056671
11
548.842470
21
506.742710
0
LINE
8
Layer 1
10
548.842470
20
506.742710
11
548.774536
21
506.092084
0
LINE
8
Layer 1
10
548.774536
20
506.092084
11
548.547380
21
505.623252
0
LINE
8
Layer 1
10
548.547380
20
505.623252
11
548.125969
21
505.335410
0
LINE
8
Layer 1
10
548.125969
20
505.335410
11
547.475271
21
505.227753
0
LINE
8
Layer 1
10
547.475271
20
505.227753
11
545.345890
21
505.549774
0
LINE
8
Layer 1
10
545.345890
20
505.549774
11
541.878980
21
506.582880
0
LINE
8
Layer 1
10
541.878980
20
506.582880
11
541.879000
21
506.582880
0
LINE
8
Layer 1
10
439.741000
20
509.116690
11
439.744645
21
509.464663
0
LINE
8
Layer 1
10
439.744645
20
509.464663
11
439.980596
21
509.862207
0
LINE
8
Layer 1
10
439.980596
20
509.862207
11
441.030141
21
510.756843
0
LINE
8
Layer 1
10
441.030141
20
510.756843
11
442.651092
21
511.702256
0
LINE
8
Layer 1
10
442.651092
20
511.702256
11
444.604905
21
512.600110
0
LINE
8
Layer 1
10
444.604905
20
512.600110
11
446.653036
21
513.352064
0
LINE
8
Layer 1
10
446.653036
20
513.352064
11
448.556942
21
513.859780
0
LINE
8
Layer 1
10
448.556942
20
513.859780
11
450.078077
21
514.024918
0
LINE
8
Layer 1
10
450.078077
20
514.024918
11
450.620562
21
513.948290
0
LINE
8
Layer 1
10
450.620562
20
513.948290
11
450.977900
21
513.749140
0
LINE
8
Layer 1
10
450.977900
20
513.749140
11
451.502714
21
513.073930
0
LINE
8
Layer 1
10
451.502714
20
513.073930
11
451.727166
21
512.442157
0
LINE
8
Layer 1
10
451.727166
20
512.442157
11
451.645795
21
511.848392
0
LINE
8
Layer 1
10
451.645795
20
511.848392
11
451.253137
21
511.287205
0
LINE
8
Layer 1
10
451.253137
20
511.287205
11
450.543732
21
510.753168
0
LINE
8
Layer 1
10
450.543732
20
510.753168
11
449.512115
21
510.240853
0
LINE
8
Layer 1
10
449.512115
20
510.240853
11
446.460400
21
509.259670
0
LINE
8
Layer 1
10
446.460400
20
509.259670
11
442.766506
21
508.317789
0
LINE
8
Layer 1
10
442.766506
20
508.317789
11
440.896519
21
507.990245
0
LINE
8
Layer 1
10
440.896519
20
507.990245
11
440.419921
21
508.052052
0
LINE
8
Layer 1
10
440.419921
20
508.052052
11
440.128617
21
508.261688
0
LINE
8
Layer 1
10
440.128617
20
508.261688
11
439.740980
21
509.116770
0
LINE
8
Layer 1
10
439.740980
20
509.116770
11
439.741000
21
509.116690
0
LINE
8
Layer 1
10
723.486000
20
510.886580
11
723.335800
21
511.369084
0
LINE
8
Layer 1
10
723.335800
20
511.369084
11
723.380171
21
511.975184
0
LINE
8
Layer 1
10
723.380171
20
511.975184
11
723.962370
21
513.460995
0
LINE
8
Layer 1
10
723.962370
20
513.460995
11
725.052080
21
515.149652
0
LINE
8
Layer 1
10
725.052080
20
515.149652
11
726.468782
21
516.846794
0
LINE
8
Layer 1
10
726.468782
20
516.846794
11
728.031961
21
518.358058
0
LINE
8
Layer 1
10
728.031961
20
518.358058
11
729.561098
21
519.489085
0
LINE
8
Layer 1
10
729.561098
20
519.489085
11
730.875677
21
520.045513
0
LINE
8
Layer 1
10
730.875677
20
520.045513
11
731.396095
21
520.047514
0
LINE
8
Layer 1
10
731.396095
20
520.047514
11
731.795180
21
519.832980
0
LINE
8
Layer 1
10
731.795180
20
519.832980
11
732.352018
21
519.187887
0
LINE
8
Layer 1
10
732.352018
20
519.187887
11
732.509931
21
518.647959
0
LINE
8
Layer 1
10
732.509931
20
518.647959
11
732.255107
21
518.051178
0
LINE
8
Layer 1
10
732.255107
20
518.051178
11
731.573730
21
517.235530
0
LINE
8
Layer 1
10
731.573730
20
517.235530
11
728.087390
21
512.943060
0
LINE
8
Layer 1
10
728.087390
20
512.943060
11
726.597286
21
511.230539
0
LINE
8
Layer 1
10
726.597286
20
511.230539
11
725.326485
21
510.313731
0
LINE
8
Layer 1
10
725.326485
20
510.313731
11
724.776697
21
510.155230
0
LINE
8
Layer 1
10
724.776697
20
510.155230
11
724.285784
21
510.197468
0
LINE
8
Layer 1
10
724.285784
20
510.197468
11
723.855095
21
510.441050
0
LINE
8
Layer 1
10
723.855095
20
510.441050
11
723.485980
21
510.886580
0
LINE
8
Layer 1
10
723.485980
20
510.886580
11
723.486000
21
510.886580
0
LINE
8
Layer 1
10
521.365000
20
511.660000
11
515.907130
21
512.704350
0
LINE
8
Layer 1
10
515.907130
20
512.704350
11
514.235288
21
513.264113
0
LINE
8
Layer 1
10
514.235288
20
513.264113
11
513.631511
21
513.676854
0
LINE
8
Layer 1
10
513.631511
20
513.676854
11
513.200421
21
514.151854
0
LINE
8
Layer 1
10
513.200421
20
514.151854
11
512.955459
21
514.669378
0
LINE
8
Layer 1
10
512.955459
20
514.669378
11
512.910067
21
515.209693
0
LINE
8
Layer 1
10
512.910067
20
515.209693
11
513.077686
21
515.753062
0
LINE
8
Layer 1
10
513.077686
20
515.753062
11
513.471760
21
516.279750
0
LINE
8
Layer 1
10
513.471760
20
516.279750
11
514.691318
21
516.362102
0
LINE
8
Layer 1
10
514.691318
20
516.362102
11
517.274739
21
516.115246
0
LINE
8
Layer 1
10
517.274739
20
516.115246
11
520.447538
21
515.636777
0
LINE
8
Layer 1
10
520.447538
20
515.636777
11
523.435230
21
515.024290
0
LINE
8
Layer 1
10
523.435230
20
515.024290
11
524.625126
21
514.571995
0
LINE
8
Layer 1
10
524.625126
20
514.571995
11
525.309603
21
513.980062
0
LINE
8
Layer 1
10
525.309603
20
513.980062
11
525.534417
21
513.322847
0
LINE
8
Layer 1
10
525.534417
20
513.322847
11
525.345324
21
512.674705
0
LINE
8
Layer 1
10
525.345324
20
512.674705
11
524.788080
21
512.109993
0
LINE
8
Layer 1
10
524.788080
20
512.109993
11
523.908440
21
511.703068
0
LINE
8
Layer 1
10
523.908440
20
511.703068
11
522.752162
21
511.528285
0
LINE
8
Layer 1
10
522.752162
20
511.528285
11
521.365000
21
511.660000
0
LINE
8
Layer 1
10
521.365000
20
511.660000
11
521.365000
21
511.660000
0
LINE
8
Layer 1
10
464.151400
20
514.553780
11
464.311903
21
515.707095
0
LINE
8
Layer 1
10
464.311903
20
515.707095
11
464.615549
21
516.096761
0
LINE
8
Layer 1
10
464.615549
20
516.096761
11
465.159697
21
516.396979
0
LINE
8
Layer 1
10
465.159697
20
516.396979
11
467.244216
21
516.834710
0
LINE
8
Layer 1
10
467.244216
20
516.834710
11
471.114890
21
517.231570
0
LINE
8
Layer 1
10
471.114890
20
517.231570
11
474.041165
21
517.464740
0
LINE
8
Layer 1
10
474.041165
20
517.464740
11
475.550999
21
517.390602
0
LINE
8
Layer 1
10
475.550999
20
517.390602
11
475.921236
21
517.196666
0
LINE
8
Layer 1
10
475.921236
20
517.196666
11
476.113145
21
516.875949
0
LINE
8
Layer 1
10
476.113145
20
516.875949
11
476.196360
21
515.787570
0
LINE
8
Layer 1
10
476.196360
20
515.787570
11
476.117639
21
514.920321
0
LINE
8
Layer 1
10
476.117639
20
514.920321
11
475.870173
21
514.329491
0
LINE
8
Layer 1
10
475.870173
20
514.329491
11
475.437002
21
513.991953
0
LINE
8
Layer 1
10
475.437002
20
513.991953
11
474.801170
21
513.884580
0
LINE
8
Layer 1
10
474.801170
20
513.884580
11
468.778680
21
513.400950
0
LINE
8
Layer 1
10
468.778680
20
513.400950
11
466.200649
21
513.168500
0
LINE
8
Layer 1
10
466.200649
20
513.168500
11
464.816135
21
513.221860
0
LINE
8
Layer 1
10
464.816135
20
513.221860
11
464.456114
21
513.384451
0
LINE
8
Layer 1
10
464.456114
20
513.384451
11
464.256073
21
513.652973
0
LINE
8
Layer 1
10
464.256073
20
513.652973
11
464.151400
21
514.553780
0
LINE
8
Layer 1
10
464.151400
20
514.553780
11
464.151400
21
514.553780
0
LINE
8
Layer 1
10
494.038400
20
514.484380
11
490.776007
21
514.832919
0
LINE
8
Layer 1
10
490.776007
20
514.832919
11
489.621074
21
515.135911
0
LINE
8
Layer 1
10
489.621074
20
515.135911
11
488.791260
21
515.519880
0
LINE
8
Layer 1
10
488.791260
20
515.519880
11
488.292271
21
515.981196
0
LINE
8
Layer 1
10
488.292271
20
515.981196
11
488.129813
21
516.516231
0
LINE
8
Layer 1
10
488.129813
20
516.516231
11
488.309594
21
517.121355
0
LINE
8
Layer 1
10
488.309594
20
517.121355
11
488.837320
21
517.792940
0
LINE
8
Layer 1
10
488.837320
20
517.792940
11
489.775784
21
518.204012
0
LINE
8
Layer 1
10
489.775784
20
518.204012
11
491.352416
21
518.376288
0
LINE
8
Layer 1
10
491.352416
20
518.376288
11
493.331952
21
518.341267
0
LINE
8
Layer 1
10
493.331952
20
518.341267
11
495.479130
21
518.130453
0
LINE
8
Layer 1
10
495.479130
20
518.130453
11
497.558688
21
517.775344
0
LINE
8
Layer 1
10
497.558688
20
517.775344
11
499.335364
21
517.307443
0
LINE
8
Layer 1
10
499.335364
20
517.307443
11
500.573896
21
516.758252
0
LINE
8
Layer 1
10
500.573896
20
516.758252
11
500.917838
21
516.463016
0
LINE
8
Layer 1
10
500.917838
20
516.463016
11
501.039020
21
516.159270
0
LINE
8
Layer 1
10
501.039020
20
516.159270
11
500.992241
21
515.573148
0
LINE
8
Layer 1
10
500.992241
20
515.573148
11
500.816128
21
515.120350
0
LINE
8
Layer 1
10
500.816128
20
515.120350
11
500.457020
21
514.788036
0
LINE
8
Layer 1
10
500.457020
20
514.788036
11
499.861255
21
514.563369
0
LINE
8
Layer 1
10
499.861255
20
514.563369
11
497.745104
21
514.385616
0
LINE
8
Layer 1
10
497.745104
20
514.385616
11
494.038380
21
514.484380
0
LINE
8
Layer 1
10
494.038380
20
514.484380
11
494.038400
21
514.484380
0
LINE
8
Layer 1
10
817.219400
20
521.067100
11
814.705837
21
522.948526
0
LINE
8
Layer 1
10
814.705837
20
522.948526
11
813.864494
21
523.809339
0
LINE
8
Layer 1
10
813.864494
20
523.809339
11
813.314715
21
524.590104
0
LINE
8
Layer 1
10
813.314715
20
524.590104
11
813.067456
21
525.270733
0
LINE
8
Layer 1
10
813.067456
20
525.270733
11
813.133673
21
525.831142
0
LINE
8
Layer 1
10
813.133673
20
525.831142
11
813.524319
21
526.251243
0
LINE
8
Layer 1
10
813.524319
20
526.251243
11
814.250350
21
526.510950
0
LINE
8
Layer 1
10
814.250350
20
526.510950
11
815.170857
21
526.379549
0
LINE
8
Layer 1
10
815.170857
20
526.379549
11
816.514817
21
525.813507
0
LINE
8
Layer 1
10
816.514817
20
525.813507
11
819.783684
21
523.851720
0
LINE
8
Layer 1
10
819.783684
20
523.851720
11
822.678126
21
521.574025
0
LINE
8
Layer 1
10
822.678126
20
521.574025
11
823.554055
21
520.613099
0
LINE
8
Layer 1
10
823.554055
20
520.613099
11
823.819320
21
519.928860
0
LINE
8
Layer 1
10
823.819320
20
519.928860
11
823.604539
21
519.307575
0
LINE
8
Layer 1
10
823.604539
20
519.307575
11
823.234359
21
518.901183
0
LINE
8
Layer 1
10
823.234359
20
518.901183
11
822.699306
21
518.711317
0
LINE
8
Layer 1
10
822.699306
20
518.711317
11
821.989908
21
518.739613
0
LINE
8
Layer 1
10
821.989908
20
518.739613
11
820.010183
21
519.457226
0
LINE
8
Layer 1
10
820.010183
20
519.457226
11
817.219400
21
521.067100
0
LINE
8
Layer 1
10
817.219400
20
521.067100
11
817.219400
21
521.067100
0
LINE
8
Layer 1
10
742.088900
20
526.832940
11
741.611098
21
527.369655
0
LINE
8
Layer 1
10
741.611098
20
527.369655
11
741.350574
21
527.846448
0
LINE
8
Layer 1
10
741.350574
20
527.846448
11
741.334833
21
528.295136
0
LINE
8
Layer 1
10
741.334833
20
528.295136
11
741.591383
21
528.747536
0
LINE
8
Layer 1
10
741.591383
20
528.747536
11
743.031377
21
529.790744
0
LINE
8
Layer 1
10
743.031377
20
529.790744
11
745.890610
21
531.230610
0
LINE
8
Layer 1
10
745.890610
20
531.230610
11
749.362874
21
532.737545
0
LINE
8
Layer 1
10
749.362874
20
532.737545
11
751.627586
21
533.359400
0
LINE
8
Layer 1
10
751.627586
20
533.359400
11
752.361498
21
533.344293
0
LINE
8
Layer 1
10
752.361498
20
533.344293
11
752.858785
21
533.114960
0
LINE
8
Layer 1
10
752.858785
20
533.114960
11
753.141205
21
532.673749
0
LINE
8
Layer 1
10
753.141205
20
532.673749
11
753.230510
21
532.023010
0
LINE
8
Layer 1
10
753.230510
20
532.023010
11
753.121904
21
531.584975
0
LINE
8
Layer 1
10
753.121904
20
531.584975
11
752.813443
21
531.105502
0
LINE
8
Layer 1
10
752.813443
20
531.105502
11
751.701087
21
530.070745
0
LINE
8
Layer 1
10
751.701087
20
530.070745
11
750.101711
21
529.015757
0
LINE
8
Layer 1
10
750.101711
20
529.015757
11
748.223582
21
528.037554
0
LINE
8
Layer 1
10
748.223582
20
528.037554
11
746.274970
21
527.233154
0
LINE
8
Layer 1
10
746.274970
20
527.233154
11
744.464142
21
526.699573
0
LINE
8
Layer 1
10
744.464142
20
526.699573
11
742.999366
21
526.533830
0
LINE
8
Layer 1
10
742.999366
20
526.533830
11
742.461831
21
526.619215
0
LINE
8
Layer 1
10
742.461831
20
526.619215
11
742.088910
21
526.832940
0
LINE
8
Layer 1
10
742.088910
20
526.832940
11
742.088900
21
526.832940
0
LINE
8
Layer 1
10
794.258600
20
531.148260
11
791.644160
21
532.126941
0
LINE
8
Layer 1
10
791.644160
20
532.126941
11
790.762488
21
532.648385
0
LINE
8
Layer 1
10
790.762488
20
532.648385
11
790.162705
21
533.193429
0
LINE
8
Layer 1
10
790.162705
20
533.193429
11
789.843454
21
533.763721
0
LINE
8
Layer 1
10
789.843454
20
533.763721
11
789.803378
21
534.360910
0
LINE
8
Layer 1
10
789.803378
20
534.360910
11
790.041119
21
534.986643
0
LINE
8
Layer 1
10
790.041119
20
534.986643
11
790.555320
21
535.642570
0
LINE
8
Layer 1
10
790.555320
20
535.642570
11
790.903035
21
535.829592
0
LINE
8
Layer 1
10
790.903035
20
535.829592
11
791.436369
21
535.894295
0
LINE
8
Layer 1
10
791.436369
20
535.894295
11
792.940884
21
535.706700
0
LINE
8
Layer 1
10
792.940884
20
535.706700
11
794.830846
21
535.179706
0
LINE
8
Layer 1
10
794.830846
20
535.179706
11
796.868233
21
534.413229
0
LINE
8
Layer 1
10
796.868233
20
534.413229
11
798.815024
21
533.507187
0
LINE
8
Layer 1
10
798.815024
20
533.507187
11
800.433200
21
532.561500
0
LINE
8
Layer 1
10
800.433200
20
532.561500
11
801.484739
21
531.676085
0
LINE
8
Layer 1
10
801.484739
20
531.676085
11
801.723638
21
531.287204
0
LINE
8
Layer 1
10
801.723638
20
531.287204
11
801.731620
21
530.950860
0
LINE
8
Layer 1
10
801.731620
20
530.950860
11
801.478387
21
530.447837
0
LINE
8
Layer 1
10
801.478387
20
530.447837
11
801.128602
21
530.092997
0
LINE
8
Layer 1
10
801.128602
20
530.092997
11
800.633268
21
529.887634
0
LINE
8
Layer 1
10
800.633268
20
529.887634
11
799.943391
21
529.833041
0
LINE
8
Layer 1
10
799.943391
20
529.833041
11
797.784030
21
530.181345
0
LINE
8
Layer 1
10
797.784030
20
530.181345
11
794.258560
21
531.148260
0
LINE
8
Layer 1
10
794.258560
20
531.148260
11
794.258600
21
531.148260
0
LINE
8
Layer 1
10
765.275400
20
534.882750
11
765.347299
21
535.523573
0
LINE
8
Layer 1
10
765.347299
20
535.523573
11
765.586315
21
536.042155
0
LINE
8
Layer 1
10
765.586315
20
536.042155
11
766.027428
21
536.449838
0
LINE
8
Layer 1
10
766.027428
20
536.449838
11
766.705614
21
536.757964
0
LINE
8
Layer 1
10
766.705614
20
536.757964
11
768.913123
21
537.120911
0
LINE
8
Layer 1
10
768.913123
20
537.120911
11
772.488670
21
537.221730
0
LINE
8
Layer 1
10
772.488670
20
537.221730
11
775.206149
21
537.182465
0
LINE
8
Layer 1
10
775.206149
20
537.182465
11
776.648980
21
536.960189
0
LINE
8
Layer 1
10
776.648980
20
536.960189
11
777.018157
21
536.731444
0
LINE
8
Layer 1
10
777.018157
20
536.731444
11
777.219576
21
536.398175
0
LINE
8
Layer 1
10
777.219576
20
536.398175
11
777.320350
21
535.339700
0
LINE
8
Layer 1
10
777.320350
20
535.339700
11
777.212128
21
534.264887
0
LINE
8
Layer 1
10
777.212128
20
534.264887
11
776.976282
21
533.930939
0
LINE
8
Layer 1
10
776.976282
20
533.930939
11
776.529885
21
533.704693
0
LINE
8
Layer 1
10
776.529885
20
533.704693
11
774.737252
21
533.491497
0
LINE
8
Layer 1
10
774.737252
20
533.491497
11
771.297860
21
533.457680
0
LINE
8
Layer 1
10
771.297860
20
533.457680
11
768.075709
21
533.500423
0
LINE
8
Layer 1
10
768.075709
20
533.500423
11
766.258949
21
533.690418
0
LINE
8
Layer 1
10
766.258949
20
533.690418
11
765.755231
21
533.869586
0
LINE
8
Layer 1
10
765.755231
20
533.869586
11
765.456029
21
534.120311
0
LINE
8
Layer 1
10
765.456029
20
534.120311
11
765.275400
21
534.882750
0
LINE
8
Layer 1
10
765.275400
20
534.882750
11
765.275400
21
534.882750
 0 
ENDSEC
 0 
EOF