999
"DXF R12 Output" (www.mydxf.blogspot.com)
 0 
SECTION
 2 
HEADER
 9 
$ACADVER
 1 
AC1009
 9 
$EXTMIN
 10 
 0 
 20 
 0 
 9 
$EXTMAX
 10 
 8.5 
 20 
 11 
 0 
ENDSEC
 0 
SECTION
 2 
ENTITIES
0
LINE
8
Layer 1
10
209.970000
20
57.374400
11
209.696808
21
57.672815
0
LINE
8
Layer 1
10
209.696808
20
57.672815
11
209.602763
21
57.999302
0
LINE
8
Layer 1
10
209.602763
20
57.999302
11
209.952000
21
58.755740
0
LINE
8
Layer 1
10
209.952000
20
58.755740
11
210.261509
21
59.969206
0
LINE
8
Layer 1
10
210.261509
20
59.969206
11
210.539950
21
62.724412
0
LINE
8
Layer 1
10
210.539950
20
62.724412
11
210.946100
21
72.088240
0
LINE
8
Layer 1
10
210.946100
20
72.088240
11
211.283500
21
85.184040
0
LINE
8
Layer 1
10
211.283500
20
85.184040
11
211.901000
21
98.611140
0
LINE
8
Layer 1
10
211.901000
20
98.611140
11
212.518800
21
112.155340
0
LINE
8
Layer 1
10
212.518800
20
112.155340
11
214.964800
21
166.216540
0
LINE
8
Layer 1
10
214.964800
20
166.216540
11
216.410400
21
192.883440
0
LINE
8
Layer 1
10
216.410400
20
192.883440
11
217.333650
21
212.948465
0
LINE
8
Layer 1
10
217.333650
20
212.948465
11
217.373034
21
217.825196
0
LINE
8
Layer 1
10
217.373034
20
217.825196
11
217.290341
21
219.091626
0
LINE
8
Layer 1
10
217.290341
20
219.091626
11
217.140600
21
219.621340
0
LINE
8
Layer 1
10
217.140600
20
219.621340
11
216.865477
21
219.970555
0
LINE
8
Layer 1
10
216.865477
20
219.970555
11
216.783187
21
220.331163
0
LINE
8
Layer 1
10
216.783187
20
220.331163
11
216.894605
21
220.723131
0
LINE
8
Layer 1
10
216.894605
20
220.723131
11
217.200600
21
221.166430
0
LINE
8
Layer 1
10
217.200600
20
221.166430
11
217.607715
21
222.612825
0
LINE
8
Layer 1
10
217.607715
20
222.612825
11
217.980961
21
225.616265
0
LINE
8
Layer 1
10
217.980961
20
225.616265
11
218.537663
21
234.186559
0
LINE
8
Layer 1
10
218.537663
20
234.186559
11
218.694333
21
242.661863
0
LINE
8
Layer 1
10
218.694333
20
242.661863
11
218.567540
21
245.546566
0
LINE
8
Layer 1
10
218.567540
20
245.546566
11
218.443216
21
246.420149
0
LINE
8
Layer 1
10
218.443216
20
246.420149
11
218.274600
21
246.826730
0
LINE
8
Layer 1
10
218.274600
20
246.826730
11
217.938923
21
247.145722
0
LINE
8
Layer 1
10
217.938923
20
247.145722
11
217.834463
21
247.415525
0
LINE
8
Layer 1
10
217.834463
20
247.415525
11
217.962820
21
247.671161
0
LINE
8
Layer 1
10
217.962820
20
247.671161
11
218.325600
21
247.947650
0
LINE
8
Layer 1
10
218.325600
20
247.947650
11
218.530488
21
248.343612
0
LINE
8
Layer 1
10
218.530488
20
248.343612
11
218.734736
21
249.230795
0
LINE
8
Layer 1
10
218.734736
20
249.230795
11
219.127495
21
252.197079
0
LINE
8
Layer 1
10
219.127495
20
252.197079
11
219.753337
21
260.925081
0
LINE
8
Layer 1
10
219.753337
20
260.925081
11
219.982036
21
269.623693
0
LINE
8
Layer 1
10
219.982036
20
269.623693
11
219.878365
21
272.553239
0
LINE
8
Layer 1
10
219.878365
20
272.553239
11
219.759934
21
273.416542
0
LINE
8
Layer 1
10
219.759934
20
273.416542
11
219.592500
21
273.784950
0
LINE
8
Layer 1
10
219.592500
20
273.784950
11
219.173325
21
274.152106
0
LINE
8
Layer 1
10
219.173325
20
274.152106
11
219.129300
21
274.548250
0
LINE
8
Layer 1
10
219.129300
20
274.548250
11
230.315109
21
274.052145
0
LINE
8
Layer 1
10
230.315109
20
274.052145
11
261.815925
21
272.293252
0
LINE
8
Layer 1
10
261.815925
20
272.293252
11
374.634300
21
265.625600
0
LINE
8
Layer 1
10
374.634300
20
265.625600
11
529.916300
21
256.286260
0
LINE
8
Layer 1
10
529.916300
20
256.286260
11
524.835200
21
147.289260
0
LINE
8
Layer 1
10
524.835200
20
147.289260
11
521.145612
21
70.247435
0
LINE
8
Layer 1
10
521.145612
20
70.247435
11
519.410300
21
38.078260
0
LINE
8
Layer 1
10
519.410300
20
38.078260
11
518.903662
21
38.101408
0
LINE
8
Layer 1
10
518.903662
20
38.101408
11
518.168500
21
38.458200
0
LINE
8
Layer 1
10
518.168500
20
38.458200
11
513.848189
21
38.966407
0
LINE
8
Layer 1
10
513.848189
20
38.966407
11
500.762712
21
39.901603
0
LINE
8
Layer 1
10
500.762712
20
39.901603
11
441.527100
21
43.498090
0
LINE
8
Layer 1
10
441.527100
20
43.498090
11
365.122737
21
48.002621
0
LINE
8
Layer 1
10
365.122737
20
48.002621
11
288.783100
21
52.795160
0
LINE
8
Layer 1
10
288.783100
20
52.795160
11
232.765050
21
56.206335
0
LINE
8
Layer 1
10
232.765050
20
56.206335
11
217.535219
21
57.023976
0
LINE
8
Layer 1
10
217.535219
20
57.023976
11
211.897400
21
57.188680
0
LINE
8
Layer 1
10
211.897400
20
57.188680
11
210.807663
21
57.046441
0
LINE
8
Layer 1
10
210.807663
20
57.046441
11
209.969700
21
57.373800
0
LINE
8
Layer 1
10
209.969700
20
57.373800
11
209.970000
21
57.374400
0
LINE
8
Layer 1
10
361.513000
20
49.343140
11
351.075375
21
57.826874
0
LINE
8
Layer 1
10
351.075375
20
57.826874
11
325.956800
21
77.734240
0
LINE
8
Layer 1
10
325.956800
20
77.734240
11
290.384900
21
105.776640
0
LINE
8
Layer 1
10
290.384900
20
105.776640
11
252.473600
21
82.210140
0
LINE
8
Layer 1
10
252.473600
20
82.210140
11
225.694063
21
65.462902
0
LINE
8
Layer 1
10
225.694063
20
65.462902
11
214.546400
21
58.291740
0
LINE
8
Layer 1
10
214.546400
20
58.291740
11
236.120425
21
56.729381
0
LINE
8
Layer 1
10
236.120425
20
56.729381
11
288.013800
21
53.467170
0
LINE
8
Layer 1
10
288.013800
20
53.467170
11
339.916100
21
50.410741
0
LINE
8
Layer 1
10
339.916100
20
50.410741
11
361.513000
21
49.343170
0
LINE
8
Layer 1
10
361.513000
20
49.343170
11
361.513000
21
49.343140
0
LINE
8
Layer 1
10
515.795000
20
39.956170
11
505.356663
21
48.439748
0
LINE
8
Layer 1
10
505.356663
20
48.439748
11
480.236400
21
68.342270
0
LINE
8
Layer 1
10
480.236400
20
68.342270
11
444.661800
21
96.376370
0
LINE
8
Layer 1
10
444.661800
20
96.376370
11
406.420800
21
72.909170
0
LINE
8
Layer 1
10
406.420800
20
72.909170
11
379.517550
21
56.203733
0
LINE
8
Layer 1
10
379.517550
20
56.203733
11
371.414738
21
51.019300
0
LINE
8
Layer 1
10
371.414738
20
51.019300
11
368.535300
21
48.993370
0
LINE
8
Layer 1
10
368.535300
20
48.993370
11
374.985322
21
48.428136
0
LINE
8
Layer 1
10
374.985322
20
48.428136
11
391.722664
21
47.279958
0
LINE
8
Layer 1
10
391.722664
20
47.279958
11
442.317513
21
44.078118
0
LINE
8
Layer 1
10
442.317513
20
44.078118
11
492.836255
21
41.074543
0
LINE
8
Layer 1
10
492.836255
20
41.074543
11
509.478464
21
40.174198
0
LINE
8
Layer 1
10
509.478464
20
40.174198
11
515.795300
21
39.955930
0
LINE
8
Layer 1
10
515.795300
20
39.955930
11
515.795000
21
39.956170
0
LINE
8
Layer 1
10
414.127000
20
81.011370
11
412.058844
21
82.950275
0
LINE
8
Layer 1
10
412.058844
20
82.950275
11
406.869153
21
87.458558
0
LINE
8
Layer 1
10
406.869153
20
87.458558
11
391.271625
21
100.694751
0
LINE
8
Layer 1
10
391.271625
20
100.694751
11
375.627334
21
113.742929
0
LINE
8
Layer 1
10
375.627334
20
113.742929
11
370.379190
21
118.016193
0
LINE
8
Layer 1
10
370.379190
20
118.016193
11
368.229200
21
119.626070
0
LINE
8
Layer 1
10
368.229200
20
119.626070
11
360.969786
21
115.002223
0
LINE
8
Layer 1
10
360.969786
20
115.002223
11
345.321238
21
104.633845
0
LINE
8
Layer 1
10
345.321238
20
104.633845
11
329.054070
21
93.705929
0
LINE
8
Layer 1
10
329.054070
20
93.705929
11
319.938800
21
87.403470
0
LINE
8
Layer 1
10
319.938800
20
87.403470
11
319.767996
21
87.070956
0
LINE
8
Layer 1
10
319.767996
20
87.070956
11
320.056358
21
86.481460
0
LINE
8
Layer 1
10
320.056358
20
86.481460
11
320.994119
21
85.471812
0
LINE
8
Layer 1
10
320.994119
20
85.471812
11
322.771513
21
83.878844
0
LINE
8
Layer 1
10
322.771513
20
83.878844
11
329.606136
21
78.290265
0
LINE
8
Layer 1
10
329.606136
20
78.290265
11
342.082100
21
68.410370
0
LINE
8
Layer 1
10
342.082100
20
68.410370
11
365.211700
21
50.173670
0
LINE
8
Layer 1
10
365.211700
20
50.173670
11
389.745400
21
65.421670
0
LINE
8
Layer 1
10
389.745400
20
65.421670
11
407.027613
21
76.290916
0
LINE
8
Layer 1
10
407.027613
20
76.290916
11
412.250167
21
79.675503
0
LINE
8
Layer 1
10
412.250167
20
79.675503
11
414.127000
21
81.011370
0
LINE
8
Layer 1
10
414.127000
20
81.011370
11
414.127000
21
81.011370
0
LINE
8
Layer 1
10
229.119000
20
70.868270
11
246.605700
21
81.746470
0
LINE
8
Layer 1
10
246.605700
20
81.746470
11
229.486700
21
82.788460
0
LINE
8
Layer 1
10
229.486700
20
82.788460
11
212.367600
21
83.830450
0
LINE
8
Layer 1
10
212.367600
20
83.830450
11
211.828700
21
71.920650
0
LINE
8
Layer 1
10
211.828700
20
71.920650
11
211.461100
21
60.000350
0
LINE
8
Layer 1
10
211.461100
20
60.000350
11
229.119000
21
70.868150
0
LINE
8
Layer 1
10
229.119000
20
70.868150
11
229.119000
21
70.868270
0
LINE
8
Layer 1
10
519.728000
20
53.179770
11
520.266800
21
65.089570
0
LINE
8
Layer 1
10
520.266800
20
65.089570
11
502.815200
21
66.151800
0
LINE
8
Layer 1
10
502.815200
20
66.151800
11
485.363600
21
67.214020
0
LINE
8
Layer 1
10
485.363600
20
67.214020
11
501.772800
21
54.272620
0
LINE
8
Layer 1
10
501.772800
20
54.272620
11
513.509650
21
45.123747
0
LINE
8
Layer 1
10
513.509650
20
45.123747
11
518.685500
21
41.300520
0
LINE
8
Layer 1
10
518.685500
20
41.300520
11
518.923569
21
42.228405
0
LINE
8
Layer 1
10
518.923569
20
42.228405
11
519.199475
21
44.777412
0
LINE
8
Layer 1
10
519.199475
20
44.777412
11
519.728000
21
53.179720
0
LINE
8
Layer 1
10
519.728000
20
53.179720
11
519.728000
21
53.179770
0
LINE
8
Layer 1
10
246.394000
20
84.221570
11
229.980200
21
97.276870
0
LINE
8
Layer 1
10
229.980200
20
97.276870
11
213.561000
21
110.211970
0
LINE
8
Layer 1
10
213.561000
20
110.211970
11
213.017100
21
98.188870
0
LINE
8
Layer 1
10
213.017100
20
98.188870
11
212.473100
21
86.165770
0
LINE
8
Layer 1
10
212.473100
20
86.165770
11
229.430800
21
85.133600
0
LINE
8
Layer 1
10
229.430800
20
85.133600
11
246.394000
21
84.221650
0
LINE
8
Layer 1
10
246.394000
20
84.221650
11
246.394000
21
84.221570
0
LINE
8
Layer 1
10
520.921000
20
79.568160
11
521.299500
21
91.721860
0
LINE
8
Layer 1
10
521.299500
20
91.721860
11
503.298500
21
80.640760
0
LINE
8
Layer 1
10
503.298500
20
80.640760
11
485.468400
21
69.549260
0
LINE
8
Layer 1
10
485.468400
20
69.549260
11
502.920100
21
68.487030
0
LINE
8
Layer 1
10
502.920100
20
68.487030
11
520.371700
21
67.424800
0
LINE
8
Layer 1
10
520.371700
20
67.424800
11
520.921000
21
79.568160
0
LINE
8
Layer 1
10
268.571000
20
95.396260
11
286.401000
21
106.487760
0
LINE
8
Layer 1
10
286.401000
20
106.487760
11
251.830200
21
108.591990
0
LINE
8
Layer 1
10
251.830200
20
108.591990
11
217.259300
21
110.696220
0
LINE
8
Layer 1
10
217.259300
20
110.696220
11
233.990600
21
97.501020
0
LINE
8
Layer 1
10
233.990600
20
97.501020
11
250.731400
21
84.305320
0
LINE
8
Layer 1
10
250.731400
20
84.305320
11
268.571000
21
95.396220
0
LINE
8
Layer 1
10
268.571000
20
95.396220
11
268.571000
21
95.396260
0
LINE
8
Layer 1
10
499.994000
20
81.310260
11
517.824000
21
92.401760
0
LINE
8
Layer 1
10
517.824000
20
92.401760
11
482.920600
21
94.526230
0
LINE
8
Layer 1
10
482.920600
20
94.526230
11
448.017300
21
96.650690
0
LINE
8
Layer 1
10
448.017300
20
96.650690
11
464.748500
21
83.455490
0
LINE
8
Layer 1
10
464.748500
20
83.455490
11
476.665488
21
74.130300
0
LINE
8
Layer 1
10
476.665488
20
74.130300
11
481.821900
21
70.239490
0
LINE
8
Layer 1
10
481.821900
20
70.239490
11
487.301088
21
73.482941
0
LINE
8
Layer 1
10
487.301088
20
73.482941
11
499.994000
21
81.310190
0
LINE
8
Layer 1
10
499.994000
20
81.310190
11
499.994000
21
81.310260
0
LINE
8
Layer 1
10
316.099000
20
106.787560
11
316.870200
21
123.834960
0
LINE
8
Layer 1
10
316.870200
20
123.834960
11
292.434600
21
125.322280
0
LINE
8
Layer 1
10
292.434600
20
125.322280
11
267.999000
21
126.809610
0
LINE
8
Layer 1
10
267.999000
20
126.809610
11
291.493700
21
108.285210
0
LINE
8
Layer 1
10
291.493700
20
108.285210
11
315.158000
21
89.750510
0
LINE
8
Layer 1
10
315.158000
20
89.750510
11
316.099000
21
106.787610
0
LINE
8
Layer 1
10
316.099000
20
106.787610
11
316.099000
21
106.787560
0
LINE
8
Layer 1
10
416.392000
20
117.621760
11
394.047300
21
119.026780
0
LINE
8
Layer 1
10
394.047300
20
119.026780
11
371.934200
21
120.249190
0
LINE
8
Layer 1
10
371.934200
20
120.249190
11
393.345500
21
102.085790
0
LINE
8
Layer 1
10
393.345500
20
102.085790
11
414.756900
21
83.922390
0
LINE
8
Layer 1
10
414.756900
20
83.922390
11
415.690200
21
100.680790
0
LINE
8
Layer 1
10
415.690200
20
100.680790
11
416.281350
21
112.570010
0
LINE
8
Layer 1
10
416.281350
20
112.570010
11
416.391900
21
117.621690
0
LINE
8
Layer 1
10
416.391900
20
117.621690
11
416.392000
21
117.621760
0
LINE
8
Layer 1
10
443.780400
20
99.015960
11
468.817700
21
114.586360
0
LINE
8
Layer 1
10
468.817700
20
114.586360
11
444.382000
21
116.073680
0
LINE
8
Layer 1
10
444.382000
20
116.073680
11
419.946400
21
117.561010
0
LINE
8
Layer 1
10
419.946400
20
117.561010
11
419.175100
21
100.513610
0
LINE
8
Layer 1
10
419.175100
20
100.513610
11
418.573500
21
83.455910
0
LINE
8
Layer 1
10
418.573500
20
83.455910
11
443.780400
21
99.016010
0
LINE
8
Layer 1
10
443.780400
20
99.016010
11
443.780400
21
99.015960
0
LINE
8
Layer 1
10
342.071400
20
105.459970
11
364.628800
21
120.693870
0
LINE
8
Layer 1
10
364.628800
20
120.693870
11
342.916300
21
122.139000
0
LINE
8
Layer 1
10
342.916300
20
122.139000
11
327.333188
21
123.108426
0
LINE
8
Layer 1
10
327.333188
20
123.108426
11
320.357300
21
123.409790
0
LINE
8
Layer 1
10
320.357300
20
123.409790
11
320.135967
21
122.994186
0
LINE
8
Layer 1
10
320.135967
20
122.994186
11
319.909033
21
121.901766
0
LINE
8
Layer 1
10
319.909033
20
121.901766
11
319.457048
21
118.076150
0
LINE
8
Layer 1
10
319.457048
20
118.076150
11
318.691413
21
106.589557
0
LINE
8
Layer 1
10
318.691413
20
106.589557
11
318.359370
21
95.184831
0
LINE
8
Layer 1
10
318.359370
20
95.184831
11
318.449378
21
91.461549
0
LINE
8
Layer 1
10
318.449378
20
91.461549
11
318.574739
21
90.435644
0
LINE
8
Layer 1
10
318.574739
20
90.435644
11
318.759900
21
90.096790
0
LINE
8
Layer 1
10
318.759900
20
90.096790
11
325.918775
21
94.663062
0
LINE
8
Layer 1
10
325.918775
20
94.663062
11
342.071500
21
105.459990
0
LINE
8
Layer 1
10
342.071500
20
105.459990
11
342.071400
21
105.459970
0
LINE
8
Layer 1
10
251.747500
20
136.228570
11
227.047725
21
155.593232
0
LINE
8
Layer 1
10
227.047725
20
155.593232
11
216.481700
21
163.665370
0
LINE
8
Layer 1
10
216.481700
20
163.665370
11
216.179942
21
161.541602
0
LINE
8
Layer 1
10
216.179942
20
161.541602
11
215.773734
21
155.915170
0
LINE
8
Layer 1
10
215.773734
20
155.915170
11
214.863175
21
138.792745
0
LINE
8
Layer 1
10
214.863175
20
138.792745
11
214.180428
21
121.574957
0
LINE
8
Layer 1
10
214.180428
20
121.574957
11
214.058986
21
115.829322
0
LINE
8
Layer 1
10
214.058986
20
115.829322
11
214.155900
21
113.538670
0
LINE
8
Layer 1
10
214.155900
20
113.538670
11
225.023338
21
112.656696
0
LINE
8
Layer 1
10
225.023338
20
112.656696
11
250.548700
21
111.011320
0
LINE
8
Layer 1
10
250.548700
20
111.011320
11
286.512300
21
108.822320
0
LINE
8
Layer 1
10
286.512300
20
108.822320
11
251.747500
21
136.228570
0
LINE
8
Layer 1
10
522.073500
20
119.774670
11
522.731788
21
137.595845
0
LINE
8
Layer 1
10
522.731788
20
137.595845
11
522.817252
21
143.024117
0
LINE
8
Layer 1
10
522.817252
20
143.024117
11
522.712300
21
145.026070
0
LINE
8
Layer 1
10
522.712300
20
145.026070
11
517.640905
21
142.047034
0
LINE
8
Layer 1
10
517.640905
20
142.047034
11
504.426713
21
133.888582
0
LINE
8
Layer 1
10
504.426713
20
133.888582
11
461.483000
21
106.953770
0
LINE
8
Layer 1
10
461.483000
20
106.953770
11
448.792500
21
98.944860
0
LINE
8
Layer 1
10
448.792500
20
98.944860
11
484.862500
21
96.749390
0
LINE
8
Layer 1
10
484.862500
20
96.749390
11
520.932400
21
94.553920
0
LINE
8
Layer 1
10
520.932400
20
94.553920
11
522.073500
21
119.774670
0
LINE
8
Layer 1
10
316.679500
20
126.308670
11
317.076025
21
131.193443
0
LINE
8
Layer 1
10
317.076025
20
131.193443
11
317.541400
21
142.140270
0
LINE
8
Layer 1
10
317.541400
20
142.140270
11
318.056000
21
157.404070
0
LINE
8
Layer 1
10
318.056000
20
157.404070
11
293.782400
21
143.522970
0
LINE
8
Layer 1
10
293.782400
20
143.522970
11
276.559088
21
133.569949
0
LINE
8
Layer 1
10
276.559088
20
133.569949
11
269.236300
21
129.132870
0
LINE
8
Layer 1
10
269.236300
20
129.132870
11
269.695104
21
128.964139
0
LINE
8
Layer 1
10
269.695104
20
128.964139
11
271.135549
21
128.755826
0
LINE
8
Layer 1
10
271.135549
20
128.755826
11
276.406398
21
128.253490
0
LINE
8
Layer 1
10
276.406398
20
128.253490
11
292.623213
21
127.137239
0
LINE
8
Layer 1
10
292.623213
20
127.137239
11
309.007370
21
126.312713
0
LINE
8
Layer 1
10
309.007370
20
126.312713
11
314.487399
21
126.175034
0
LINE
8
Layer 1
10
314.487399
20
126.175034
11
316.679500
21
126.308510
0
LINE
8
Layer 1
10
316.679500
20
126.308510
11
316.679500
21
126.308670
0
LINE
8
Layer 1
10
364.186500
20
123.176690
11
357.622502
21
128.618403
0
LINE
8
Layer 1
10
357.622502
20
128.618403
11
343.112338
21
140.146637
0
LINE
8
Layer 1
10
343.112338
20
140.146637
11
328.476005
21
151.596448
0
LINE
8
Layer 1
10
328.476005
20
151.596448
11
321.533500
21
156.802890
0
LINE
8
Layer 1
10
321.533500
20
156.802890
11
321.268590
21
155.501960
0
LINE
8
Layer 1
10
321.268590
20
155.501960
11
320.960155
21
152.044823
0
LINE
8
Layer 1
10
320.960155
20
152.044823
11
320.346788
21
141.505052
0
LINE
8
Layer 1
10
320.346788
20
141.505052
11
319.961552
21
130.869826
0
LINE
8
Layer 1
10
319.961552
20
130.869826
11
319.938281
21
127.293369
0
LINE
8
Layer 1
10
319.938281
20
127.293369
11
320.072600
21
125.825390
0
LINE
8
Layer 1
10
320.072600
20
125.825390
11
322.137686
21
125.559590
0
LINE
8
Layer 1
10
322.137686
20
125.559590
11
327.212980
21
125.153570
0
LINE
8
Layer 1
10
327.212980
20
125.153570
11
342.344713
21
124.164010
0
LINE
8
Layer 1
10
342.344713
20
124.164010
11
357.368839
21
123.342990
0
LINE
8
Layer 1
10
357.368839
20
123.342990
11
362.309625
21
123.147645
0
LINE
8
Layer 1
10
362.309625
20
123.147645
11
364.186400
21
123.176790
0
LINE
8
Layer 1
10
364.186400
20
123.176790
11
364.186500
21
123.176690
0
LINE
8
Layer 1
10
417.419500
20
135.391690
11
418.132500
21
151.152090
0
LINE
8
Layer 1
10
418.132500
20
151.152090
11
395.490200
21
137.080390
0
LINE
8
Layer 1
10
395.490200
20
137.080390
11
379.494363
21
127.038602
0
LINE
8
Layer 1
10
379.494363
20
127.038602
11
372.831900
21
122.655790
0
LINE
8
Layer 1
10
372.831900
20
122.655790
11
379.266588
21
122.014152
0
LINE
8
Layer 1
10
379.266588
20
122.014152
11
394.761200
21
120.967110
0
LINE
8
Layer 1
10
394.761200
20
120.967110
11
416.706500
21
119.631360
0
LINE
8
Layer 1
10
416.706500
20
119.631360
11
417.419500
21
135.391690
0
LINE
8
Layer 1
10
467.821200
20
116.961690
11
460.690244
21
122.395257
0
LINE
8
Layer 1
10
460.690244
20
122.395257
11
445.160225
21
133.868507
0
LINE
8
Layer 1
10
445.160225
20
133.868507
11
429.509719
21
145.300100
0
LINE
8
Layer 1
10
429.509719
20
145.300100
11
422.017300
21
150.608690
0
LINE
8
Layer 1
10
422.017300
20
150.608690
11
421.741323
21
149.445032
0
LINE
8
Layer 1
10
421.741323
20
149.445032
11
421.408713
21
146.135786
0
LINE
8
Layer 1
10
421.408713
20
146.135786
11
420.741100
21
135.114190
0
LINE
8
Layer 1
10
420.741100
20
135.114190
11
420.031500
21
119.428990
0
LINE
8
Layer 1
10
420.031500
20
119.428990
11
444.027200
21
117.968440
0
LINE
8
Layer 1
10
444.027200
20
117.968440
11
461.497488
21
117.024119
0
LINE
8
Layer 1
10
461.497488
20
117.024119
11
466.228217
21
116.875225
0
LINE
8
Layer 1
10
466.228217
20
116.875225
11
467.821200
21
116.961670
0
LINE
8
Layer 1
10
467.821200
20
116.961670
11
467.821200
21
116.961690
0
LINE
8
Layer 1
10
290.859200
20
144.641690
11
309.236525
21
155.280861
0
LINE
8
Layer 1
10
309.236525
20
155.280861
11
314.862116
21
158.644029
0
LINE
8
Layer 1
10
314.862116
20
158.644029
11
316.970000
21
160.029690
0
LINE
8
Layer 1
10
316.970000
20
160.029690
11
316.034631
21
160.903612
0
LINE
8
Layer 1
10
316.034631
20
160.903612
11
313.290414
21
163.070706
0
LINE
8
Layer 1
10
313.290414
20
163.070706
11
303.310613
21
170.589424
0
LINE
8
Layer 1
10
303.310613
20
170.589424
11
271.931800
21
193.500090
0
LINE
8
Layer 1
10
271.931800
20
193.500090
11
267.377200
21
196.779220
0
LINE
8
Layer 1
10
267.377200
20
196.779220
11
242.734800
21
181.463720
0
LINE
8
Layer 1
10
242.734800
20
181.463720
11
218.092400
21
166.148120
0
LINE
8
Layer 1
10
218.092400
20
166.148120
11
241.107500
21
148.001720
0
LINE
8
Layer 1
10
241.107500
20
148.001720
11
257.476413
21
135.178850
0
LINE
8
Layer 1
10
257.476413
20
135.178850
11
264.512400
21
129.831620
0
LINE
8
Layer 1
10
264.512400
20
129.831620
11
272.412588
21
134.172255
0
LINE
8
Layer 1
10
272.412588
20
134.172255
11
290.859200
21
144.641620
0
LINE
8
Layer 1
10
290.859200
20
144.641620
11
290.859200
21
144.641690
0
LINE
8
Layer 1
10
393.560200
20
138.603720
11
417.912300
21
153.748320
0
LINE
8
Layer 1
10
417.912300
20
153.748320
11
394.575100
21
172.143520
0
LINE
8
Layer 1
10
394.575100
20
172.143520
11
371.237900
21
190.538720
0
LINE
8
Layer 1
10
371.237900
20
190.538720
11
346.879000
21
175.399520
0
LINE
8
Layer 1
10
346.879000
20
175.399520
11
329.669325
21
164.570244
0
LINE
8
Layer 1
10
329.669325
20
164.570244
11
324.429259
21
161.169160
0
LINE
8
Layer 1
10
324.429259
20
161.169160
11
322.499000
21
159.793220
0
LINE
8
Layer 1
10
322.499000
20
159.793220
11
324.433278
21
158.059715
0
LINE
8
Layer 1
10
324.433278
20
158.059715
11
329.557605
21
153.870963
0
LINE
8
Layer 1
10
329.557605
20
153.870963
11
345.179363
21
141.436414
0
LINE
8
Layer 1
10
345.179363
20
141.436414
11
360.970189
21
129.106968
0
LINE
8
Layer 1
10
360.970189
20
129.106968
11
366.305852
21
125.049594
0
LINE
8
Layer 1
10
366.305852
20
125.049594
11
368.536000
21
123.500020
0
LINE
8
Layer 1
10
368.536000
20
123.500020
11
370.718467
21
124.679139
0
LINE
8
Layer 1
10
370.718467
20
124.679139
11
376.164063
21
127.919855
0
LINE
8
Layer 1
10
376.164063
20
127.919855
11
393.560200
21
138.603720
0
LINE
8
Layer 1
10
393.560200
20
138.603720
11
393.560200
21
138.603720
0
LINE
8
Layer 1
10
497.475200
20
132.397310
11
522.001300
21
147.650010
0
LINE
8
Layer 1
10
522.001300
20
147.650010
11
498.864400
21
165.882310
0
LINE
8
Layer 1
10
498.864400
20
165.882310
11
486.334991
21
175.712490
0
LINE
8
Layer 1
10
486.334991
20
175.712490
11
479.214075
21
181.124372
0
LINE
8
Layer 1
10
479.214075
20
181.124372
11
477.162011
21
182.550372
0
LINE
8
Layer 1
10
477.162011
20
182.550372
11
475.838322
21
183.324099
0
LINE
8
Layer 1
10
475.838322
20
183.324099
11
475.035090
21
183.596323
0
LINE
8
Layer 1
10
475.035090
20
183.596323
11
474.544400
21
183.517810
0
LINE
8
Layer 1
10
474.544400
20
183.517810
11
464.638423
21
177.972203
0
LINE
8
Layer 1
10
464.638423
20
177.972203
11
447.053413
21
167.870276
0
LINE
8
Layer 1
10
447.053413
20
167.870276
11
430.276620
21
158.116366
0
LINE
8
Layer 1
10
430.276620
20
158.116366
11
422.795300
21
153.614810
0
LINE
8
Layer 1
10
422.795300
20
153.614810
11
424.883488
21
151.903429
0
LINE
8
Layer 1
10
424.883488
20
151.903429
11
430.402275
21
147.719300
0
LINE
8
Layer 1
10
430.402275
20
147.719300
11
447.211975
21
135.256654
0
LINE
8
Layer 1
10
447.211975
20
135.256654
11
464.185063
21
122.874586
0
LINE
8
Layer 1
10
464.185063
20
122.874586
11
469.908084
21
118.791179
0
LINE
8
Layer 1
10
469.908084
20
118.791179
11
472.282200
21
117.220810
0
LINE
8
Layer 1
10
472.282200
20
117.220810
11
474.476403
21
118.394815
0
LINE
8
Layer 1
10
474.476403
20
118.394815
11
479.957725
21
121.647556
0
LINE
8
Layer 1
10
479.957725
20
121.647556
11
497.475200
21
132.397410
0
LINE
8
Layer 1
10
497.475200
20
132.397410
11
497.475200
21
132.397310
0
LINE
8
Layer 1
10
255.566200
20
216.906210
11
230.312113
21
218.463489
0
LINE
8
Layer 1
10
230.312113
20
218.463489
11
219.316800
21
219.010300
0
LINE
8
Layer 1
10
219.316800
20
219.010300
11
219.079305
21
218.693222
0
LINE
8
Layer 1
10
219.079305
20
218.693222
11
218.855413
21
217.775217
0
LINE
8
Layer 1
10
218.855413
20
217.775217
11
218.416300
21
213.726825
0
LINE
8
Layer 1
10
218.416300
20
213.726825
11
217.347800
21
193.913300
0
LINE
8
Layer 1
10
217.347800
20
193.913300
11
216.693025
21
176.193525
0
LINE
8
Layer 1
10
216.693025
20
176.193525
11
216.604063
21
170.711975
0
LINE
8
Layer 1
10
216.604063
20
170.711975
11
216.702300
21
168.590500
0
LINE
8
Layer 1
10
216.702300
20
168.590500
11
219.800706
21
170.267790
0
LINE
8
Layer 1
10
219.800706
20
170.267790
11
227.880650
21
175.129416
0
LINE
8
Layer 1
10
227.880650
20
175.129416
11
254.079400
21
191.410600
0
LINE
8
Layer 1
10
254.079400
20
191.410600
11
290.974300
21
214.629400
0
LINE
8
Layer 1
10
290.974300
20
214.629400
11
255.566200
21
216.906210
0
LINE
8
Layer 1
10
524.577200
20
175.120310
11
525.728800
21
200.574610
0
LINE
8
Layer 1
10
525.728800
20
200.574610
11
489.321900
21
202.790590
0
LINE
8
Layer 1
10
489.321900
20
202.790590
11
452.915000
21
205.006570
0
LINE
8
Layer 1
10
452.915000
20
205.006570
11
488.001800
21
177.346570
0
LINE
8
Layer 1
10
488.001800
20
177.346570
11
523.257100
21
149.676270
0
LINE
8
Layer 1
10
523.257100
20
149.676270
11
524.577300
21
175.120270
0
LINE
8
Layer 1
10
524.577300
20
175.120270
11
524.577200
21
175.120310
0
LINE
8
Layer 1
10
319.332200
20
178.246220
11
320.040000
21
193.892420
0
LINE
8
Layer 1
10
320.040000
20
193.892420
11
295.755100
21
195.370570
0
LINE
8
Layer 1
10
295.755100
20
195.370570
11
271.470100
21
196.848730
0
LINE
8
Layer 1
10
271.470100
20
196.848730
11
294.815800
21
179.738430
0
LINE
8
Layer 1
10
294.815800
20
179.738430
11
318.392900
21
162.614030
0
LINE
8
Layer 1
10
318.392900
20
162.614030
11
318.764263
21
167.200063
0
LINE
8
Layer 1
10
318.764263
20
167.200063
11
319.332200
21
178.246130
0
LINE
8
Layer 1
10
319.332200
20
178.246130
11
319.332200
21
178.246220
0
LINE
8
Layer 1
10
449.590200
20
172.151010
11
470.989700
21
184.544510
0
LINE
8
Layer 1
10
470.989700
20
184.544510
11
447.056600
21
186.161270
0
LINE
8
Layer 1
10
447.056600
20
186.161270
11
423.116300
21
187.618440
0
LINE
8
Layer 1
10
423.116300
20
187.618440
11
422.405500
21
171.908340
0
LINE
8
Layer 1
10
422.405500
20
171.908340
11
421.694800
21
156.198240
0
LINE
8
Layer 1
10
421.694800
20
156.198240
11
424.946400
21
158.057740
0
LINE
8
Layer 1
10
424.946400
20
158.057740
11
449.590200
21
172.151040
0
LINE
8
Layer 1
10
449.590200
20
172.151040
11
449.590200
21
172.151010
0
LINE
8
Layer 1
10
344.945200
20
176.921370
11
367.580300
21
190.998770
0
LINE
8
Layer 1
10
367.580300
20
190.998770
11
345.140000
21
192.364640
0
LINE
8
Layer 1
10
345.140000
20
192.364640
11
322.699800
21
193.730510
0
LINE
8
Layer 1
10
322.699800
20
193.730510
11
322.002500
21
178.317810
0
LINE
8
Layer 1
10
322.002500
20
178.317810
11
321.657675
21
167.423592
0
LINE
8
Layer 1
10
321.657675
20
167.423592
11
321.667644
21
164.102538
0
LINE
8
Layer 1
10
321.667644
20
164.102538
11
321.807700
21
162.874510
0
LINE
8
Layer 1
10
321.807700
20
162.874510
11
328.811650
21
166.988161
0
LINE
8
Layer 1
10
328.811650
20
166.988161
11
344.945200
21
176.921310
0
LINE
8
Layer 1
10
344.945200
20
176.921310
11
344.945200
21
176.921370
0
LINE
8
Layer 1
10
419.093700
20
172.408180
11
419.791000
21
187.820880
0
LINE
8
Layer 1
10
419.791000
20
187.820880
11
397.683200
21
189.166510
0
LINE
8
Layer 1
10
397.683200
20
189.166510
11
375.575500
21
190.512140
0
LINE
8
Layer 1
10
375.575500
20
190.512140
11
396.815900
21
173.764140
0
LINE
8
Layer 1
10
396.815900
20
173.764140
11
418.226300
21
157.005840
0
LINE
8
Layer 1
10
418.226300
20
157.005840
11
419.093800
21
172.408140
0
LINE
8
Layer 1
10
419.093800
20
172.408140
11
419.093700
21
172.408180
0
LINE
8
Layer 1
10
320.916600
20
213.275080
11
321.518200
21
230.332780
0
LINE
8
Layer 1
10
321.518200
20
230.332780
11
296.311300
21
214.772680
0
LINE
8
Layer 1
10
296.311300
20
214.772680
11
271.274100
21
199.202280
0
LINE
8
Layer 1
10
271.274100
20
199.202280
11
295.709800
21
197.714940
0
LINE
8
Layer 1
10
295.709800
20
197.714940
11
320.145400
21
196.227620
0
LINE
8
Layer 1
10
320.145400
20
196.227620
11
320.916600
21
213.275080
0
LINE
8
Layer 1
10
367.372800
20
193.616080
11
360.857622
21
199.365572
0
LINE
8
Layer 1
10
360.857622
20
199.365572
11
346.451975
21
211.655373
0
LINE
8
Layer 1
10
346.451975
20
211.655373
11
331.903941
21
223.915702
0
LINE
8
Layer 1
10
331.903941
20
223.915702
11
324.961600
21
229.576780
0
LINE
8
Layer 1
10
324.961600
20
229.576780
11
324.807707
21
229.329272
0
LINE
8
Layer 1
10
324.807707
20
229.329272
11
324.644103
21
228.510840
0
LINE
8
Layer 1
10
324.644103
20
228.510840
11
324.295575
21
225.254611
0
LINE
8
Layer 1
10
324.295575
20
225.254611
11
323.567900
21
212.918580
0
LINE
8
Layer 1
10
323.567900
20
212.918580
11
322.805400
21
196.065780
0
LINE
8
Layer 1
10
322.805400
20
196.065780
11
345.083200
21
194.709800
0
LINE
8
Layer 1
10
345.083200
20
194.709800
11
360.820363
21
193.829139
0
LINE
8
Layer 1
10
360.820363
20
193.829139
11
367.372800
21
193.616060
0
LINE
8
Layer 1
10
367.372800
20
193.616060
11
367.372800
21
193.616080
0
LINE
8
Layer 1
10
420.657300
20
206.969980
11
421.122975
21
218.849113
0
LINE
8
Layer 1
10
421.122975
20
218.849113
11
421.174200
21
223.798680
0
LINE
8
Layer 1
10
421.174200
20
223.798680
11
401.069400
21
210.386880
0
LINE
8
Layer 1
10
401.069400
20
210.386880
11
378.183700
21
194.919680
0
LINE
8
Layer 1
10
378.183700
20
194.919680
11
375.159000
21
192.879190
0
LINE
8
Layer 1
10
375.159000
20
192.879190
11
397.527800
21
191.517660
0
LINE
8
Layer 1
10
397.527800
20
191.517660
11
419.896500
21
190.156140
0
LINE
8
Layer 1
10
419.896500
20
190.156140
11
420.657300
21
206.969980
0
LINE
8
Layer 1
10
471.772600
20
187.118080
11
448.276300
21
205.757280
0
LINE
8
Layer 1
10
448.276300
20
205.757280
11
424.774500
21
224.277280
0
LINE
8
Layer 1
10
424.774500
20
224.277280
11
423.998100
21
207.115580
0
LINE
8
Layer 1
10
423.998100
20
207.115580
11
423.221700
21
189.953780
0
LINE
8
Layer 1
10
423.221700
20
189.953780
11
447.494500
21
188.476370
0
LINE
8
Layer 1
10
447.494500
20
188.476370
11
471.772600
21
187.118110
0
LINE
8
Layer 1
10
471.772600
20
187.118110
11
471.772600
21
187.118080
0
LINE
8
Layer 1
10
396.489200
20
210.314380
11
419.769500
21
226.125780
0
LINE
8
Layer 1
10
419.769500
20
226.125780
11
421.179700
21
227.110740
0
LINE
8
Layer 1
10
421.179700
20
227.110740
11
398.030400
21
245.362940
0
LINE
8
Layer 1
10
398.030400
20
245.362940
11
374.881100
21
263.615140
0
LINE
8
Layer 1
10
374.881100
20
263.615140
11
350.348300
21
248.367740
0
LINE
8
Layer 1
10
350.348300
20
248.367740
11
333.017088
21
237.490972
0
LINE
8
Layer 1
10
333.017088
20
237.490972
11
325.798800
21
232.751740
0
LINE
8
Layer 1
10
325.798800
20
232.751740
11
332.518188
21
226.783624
0
LINE
8
Layer 1
10
332.518188
20
226.783624
11
348.697700
21
212.952440
0
LINE
8
Layer 1
10
348.697700
20
212.952440
11
371.613300
21
193.521740
0
LINE
8
Layer 1
10
371.613300
20
193.521740
11
373.116200
21
194.504870
0
LINE
8
Layer 1
10
373.116200
20
194.504870
11
396.489200
21
210.314470
0
LINE
8
Layer 1
10
396.489200
20
210.314470
11
396.489200
21
210.314380
0
LINE
8
Layer 1
10
291.081200
20
217.078220
11
286.223913
21
221.163150
0
LINE
8
Layer 1
10
286.223913
20
221.163150
11
274.521900
21
230.497120
0
LINE
8
Layer 1
10
274.521900
20
230.497120
11
257.947000
21
243.569020
0
LINE
8
Layer 1
10
257.947000
20
243.569020
11
240.274300
21
232.588320
0
LINE
8
Layer 1
10
240.274300
20
232.588320
11
227.788338
21
224.729340
0
LINE
8
Layer 1
10
227.788338
20
224.729340
11
222.585700
21
221.254020
0
LINE
8
Layer 1
10
222.585700
20
221.254020
11
232.634250
21
220.391904
0
LINE
8
Layer 1
10
232.634250
20
220.391904
11
256.817600
21
218.815780
0
LINE
8
Layer 1
10
256.817600
20
218.815780
11
281.009788
21
217.445510
0
LINE
8
Layer 1
10
281.009788
20
217.445510
11
291.081200
21
217.078200
0
LINE
8
Layer 1
10
291.081200
20
217.078200
11
291.081200
21
217.078220
0
LINE
8
Layer 1
10
522.509200
20
203.108920
11
517.649263
21
207.111368
0
LINE
8
Layer 1
10
517.649263
20
207.111368
11
505.944600
21
216.411020
0
LINE
8
Layer 1
10
505.944600
20
216.411020
11
489.369600
21
229.482920
0
LINE
8
Layer 1
10
489.369600
20
229.482920
11
471.697000
21
218.502220
0
LINE
8
Layer 1
10
471.697000
20
218.502220
11
459.212888
21
210.677503
0
LINE
8
Layer 1
10
459.212888
20
210.677503
11
454.014800
21
207.284520
0
LINE
8
Layer 1
10
454.014800
20
207.284520
11
464.066313
21
206.504846
0
LINE
8
Layer 1
10
464.066313
20
206.504846
11
488.252100
21
204.963060
0
LINE
8
Layer 1
10
488.252100
20
204.963060
11
512.441938
21
203.558521
0
LINE
8
Layer 1
10
512.441938
20
203.558521
11
522.509200
21
203.108770
0
LINE
8
Layer 1
10
522.509200
20
203.108770
11
522.509200
21
203.108920
0
LINE
8
Layer 1
10
253.620000
20
243.946000
11
248.650413
21
244.499009
0
LINE
8
Layer 1
10
248.650413
20
244.499009
11
236.678300
21
245.331880
0
LINE
8
Layer 1
10
236.678300
20
245.331880
11
219.720500
21
246.364040
0
LINE
8
Layer 1
10
219.720500
20
246.364040
11
219.166000
21
234.107340
0
LINE
8
Layer 1
10
219.166000
20
234.107340
11
218.611500
21
221.850640
0
LINE
8
Layer 1
10
218.611500
20
221.850640
11
236.107800
21
232.721440
0
LINE
8
Layer 1
10
236.107800
20
232.721440
11
248.469188
21
240.502855
0
LINE
8
Layer 1
10
248.469188
20
240.502855
11
253.620000
21
243.945940
0
LINE
8
Layer 1
10
253.620000
20
243.945940
11
253.620000
21
243.946000
0
LINE
8
Layer 1
10
333.483800
20
240.765750
11
360.140862
21
257.240437
0
LINE
8
Layer 1
10
360.140862
20
257.240437
11
371.239700
21
264.343350
0
LINE
8
Layer 1
10
371.239700
20
264.343350
11
365.945755
21
264.841935
0
LINE
8
Layer 1
10
365.945755
20
264.841935
11
350.950137
21
265.890401
0
LINE
8
Layer 1
10
350.950137
20
265.890401
11
297.279200
21
269.275230
0
LINE
8
Layer 1
10
297.279200
20
269.275230
11
223.299300
21
273.778170
0
LINE
8
Layer 1
10
223.299300
20
273.778170
11
259.030500
21
245.610170
0
LINE
8
Layer 1
10
259.030500
20
245.610170
11
284.410487
21
225.742233
0
LINE
8
Layer 1
10
284.410487
20
225.742233
11
292.243777
21
219.718337
0
LINE
8
Layer 1
10
292.243777
20
219.718337
11
295.254500
21
217.529670
0
LINE
8
Layer 1
10
295.254500
20
217.529670
11
333.483800
21
240.765770
0
LINE
8
Layer 1
10
333.483800
20
240.765770
11
333.483800
21
240.765750
0
LINE
8
Layer 1
10
487.792800
20
231.686450
11
525.869000
21
255.361650
0
LINE
8
Layer 1
10
525.869000
20
255.361650
11
451.725100
21
259.874570
0
LINE
8
Layer 1
10
451.725100
20
259.874570
11
377.581100
21
264.387490
0
LINE
8
Layer 1
10
377.581100
20
264.387490
11
413.311900
21
236.219890
0
LINE
8
Layer 1
10
413.311900
20
236.219890
11
438.645725
21
216.320503
0
LINE
8
Layer 1
10
438.645725
20
216.320503
11
449.379600
21
208.031790
0
LINE
8
Layer 1
10
449.379600
20
208.031790
11
460.802475
21
214.971865
0
LINE
8
Layer 1
10
460.802475
20
214.971865
11
487.792800
21
231.686390
0
LINE
8
Layer 1
10
487.792800
20
231.686390
11
487.792800
21
231.686450
0
LINE
8
Layer 1
10
527.070000
20
215.479850
11
527.619300
21
227.623150
0
LINE
8
Layer 1
10
527.619300
20
227.623150
11
510.167700
21
228.685380
0
LINE
8
Layer 1
10
510.167700
20
228.685380
11
492.716000
21
229.747620
0
LINE
8
Layer 1
10
492.716000
20
229.747620
11
509.447300
21
216.552420
0
LINE
8
Layer 1
10
509.447300
20
216.552420
11
526.349500
21
203.346820
0
LINE
8
Layer 1
10
526.349500
20
203.346820
11
527.069800
21
215.479820
0
LINE
8
Layer 1
10
527.069800
20
215.479820
11
527.070000
21
215.479850
0
LINE
8
Layer 1
10
253.736000
20
246.521650
11
248.924625
21
250.571151
0
LINE
8
Layer 1
10
248.924625
20
250.571151
11
237.332800
21
259.810450
0
LINE
8
Layer 1
10
237.332800
20
259.810450
11
220.913600
21
272.745550
0
LINE
8
Layer 1
10
220.913600
20
272.745550
11
220.359100
21
260.488850
0
LINE
8
Layer 1
10
220.359100
20
260.488850
11
219.804600
21
248.232150
0
LINE
8
Layer 1
10
219.804600
20
248.232150
11
236.762300
21
247.199990
0
LINE
8
Layer 1
10
236.762300
20
247.199990
11
248.743362
21
246.574944
0
LINE
8
Layer 1
10
248.743362
20
246.574944
11
253.736000
21
246.521540
0
LINE
8
Layer 1
10
253.736000
20
246.521540
11
253.736000
21
246.521650
0
LINE
8
Layer 1
10
528.258000
20
241.748030
11
528.812500
21
254.004730
0
LINE
8
Layer 1
10
528.812500
20
254.004730
11
511.316300
21
243.133930
0
LINE
8
Layer 1
10
511.316300
20
243.133930
11
498.954912
21
235.352519
0
LINE
8
Layer 1
10
498.954912
20
235.352519
11
493.804100
21
231.909430
0
LINE
8
Layer 1
10
493.804100
20
231.909430
11
498.773687
21
231.356412
0
LINE
8
Layer 1
10
498.773687
20
231.356412
11
510.745800
21
230.523540
0
LINE
8
Layer 1
10
510.745800
20
230.523540
11
527.703500
21
229.491380
0
LINE
8
Layer 1
10
527.703500
20
229.491380
11
528.258000
21
241.748030
 0 
ENDSEC
 0 
EOF