999
"DXF R12 Output" (www.mydxf.blogspot.com)
 0 
SECTION
 2 
HEADER
 9 
$ACADVER
 1 
AC1009
 9 
$EXTMIN
 10 
 0 
 20 
 0 
 9 
$EXTMAX
 10 
 8.5 
 20 
 11 
 0 
ENDSEC
 0 
SECTION
 2 
ENTITIES
0
LINE
8
Layer 1
10
623.294000
20
501.644000
11
623.294000
21
984.691000
0
LINE
8
Layer 1
10
623.294000
20
984.691000
11
625.233000
21
984.691000
0
LINE
8
Layer 1
10
625.233000
20
984.691000
11
627.173000
21
984.691000
0
LINE
8
Layer 1
10
627.173000
20
984.691000
11
627.173000
21
501.644000
0
LINE
8
Layer 1
10
627.173000
20
501.644000
11
627.173000
21
18.597100
0
LINE
8
Layer 1
10
627.173000
20
18.597100
11
625.233000
21
18.597100
0
LINE
8
Layer 1
10
625.233000
20
18.597100
11
623.294000
21
18.597100
0
LINE
8
Layer 1
10
623.294000
20
18.597100
11
623.294000
21
501.644000
0
LINE
8
Layer 1
10
633.235260
20
501.644000
11
633.235000
21
984.691000
0
LINE
8
Layer 1
10
633.235000
20
984.691000
11
635.175000
21
984.691000
0
LINE
8
Layer 1
10
635.175000
20
984.691000
11
637.114000
21
984.691000
0
LINE
8
Layer 1
10
637.114000
20
984.691000
11
637.114000
21
501.644000
0
LINE
8
Layer 1
10
637.114000
20
501.644000
11
637.114000
21
18.597100
0
LINE
8
Layer 1
10
637.114000
20
18.597100
11
635.175000
21
18.597100
0
LINE
8
Layer 1
10
635.175000
20
18.597100
11
633.235000
21
18.597100
0
LINE
8
Layer 1
10
633.235000
20
18.597100
11
633.235260
21
501.644000
0
LINE
8
Layer 1
10
643.176510
20
501.644000
11
643.176000
21
984.691000
0
LINE
8
Layer 1
10
643.176000
20
984.691000
11
645.116000
21
984.691000
0
LINE
8
Layer 1
10
645.116000
20
984.691000
11
647.056000
21
984.691000
0
LINE
8
Layer 1
10
647.056000
20
984.691000
11
647.056000
21
501.644000
0
LINE
8
Layer 1
10
647.056000
20
501.644000
11
647.056000
21
18.597100
0
LINE
8
Layer 1
10
647.056000
20
18.597100
11
645.116000
21
18.597100
0
LINE
8
Layer 1
10
645.116000
20
18.597100
11
643.176000
21
18.597100
0
LINE
8
Layer 1
10
643.176000
20
18.597100
11
643.176510
21
501.644000
0
LINE
8
Layer 1
10
653.117760
20
501.644000
11
653.117000
21
984.691000
0
LINE
8
Layer 1
10
653.117000
20
984.691000
11
655.057000
21
984.691000
0
LINE
8
Layer 1
10
655.057000
20
984.691000
11
656.997000
21
984.691000
0
LINE
8
Layer 1
10
656.997000
20
984.691000
11
656.997000
21
501.644000
0
LINE
8
Layer 1
10
656.997000
20
501.644000
11
656.997000
21
18.597100
0
LINE
8
Layer 1
10
656.997000
20
18.597100
11
655.057000
21
18.597100
0
LINE
8
Layer 1
10
655.057000
20
18.597100
11
653.117000
21
18.597100
0
LINE
8
Layer 1
10
653.117000
20
18.597100
11
653.117760
21
501.644000
0
LINE
8
Layer 1
10
663.301460
20
501.644000
11
663.301000
21
984.691000
0
LINE
8
Layer 1
10
663.301000
20
984.691000
11
665.120000
21
984.691000
0
LINE
8
Layer 1
10
665.120000
20
984.691000
11
666.938000
21
984.691000
0
LINE
8
Layer 1
10
666.938000
20
984.691000
11
666.938000
21
501.644000
0
LINE
8
Layer 1
10
666.938000
20
501.644000
11
666.938000
21
18.597100
0
LINE
8
Layer 1
10
666.938000
20
18.597100
11
665.120000
21
18.597100
0
LINE
8
Layer 1
10
665.120000
20
18.597100
11
663.301000
21
18.597100
0
LINE
8
Layer 1
10
663.301000
20
18.597100
11
663.301460
21
501.644000
0
LINE
8
Layer 1
10
673.000240
20
501.644000
11
673.000000
21
984.691000
0
LINE
8
Layer 1
10
673.000000
20
984.691000
11
674.940000
21
984.691000
0
LINE
8
Layer 1
10
674.940000
20
984.691000
11
676.880000
21
984.691000
0
LINE
8
Layer 1
10
676.880000
20
984.691000
11
676.880000
21
501.644000
0
LINE
8
Layer 1
10
676.880000
20
501.644000
11
676.880000
21
18.597100
0
LINE
8
Layer 1
10
676.880000
20
18.597100
11
674.940000
21
18.597100
0
LINE
8
Layer 1
10
674.940000
20
18.597100
11
673.000000
21
18.597100
0
LINE
8
Layer 1
10
673.000000
20
18.597100
11
673.000240
21
501.644000
0
LINE
8
Layer 1
10
683.183940
20
501.644000
11
683.184000
21
984.691000
0
LINE
8
Layer 1
10
683.184000
20
984.691000
11
685.123000
21
984.691000
0
LINE
8
Layer 1
10
685.123000
20
984.691000
11
687.063000
21
984.691000
0
LINE
8
Layer 1
10
687.063000
20
984.691000
11
687.063000
21
501.644000
0
LINE
8
Layer 1
10
687.063000
20
501.644000
11
687.063000
21
18.597100
0
LINE
8
Layer 1
10
687.063000
20
18.597100
11
685.123000
21
18.597100
0
LINE
8
Layer 1
10
685.123000
20
18.597100
11
683.184000
21
18.597100
0
LINE
8
Layer 1
10
683.184000
20
18.597100
11
683.183940
21
501.644000
0
LINE
8
Layer 1
10
693.852640
20
501.644000
11
693.852000
21
984.691000
0
LINE
8
Layer 1
10
693.852000
20
984.691000
11
695.792000
21
984.691000
0
LINE
8
Layer 1
10
695.792000
20
984.691000
11
697.732000
21
984.691000
0
LINE
8
Layer 1
10
697.732000
20
984.691000
11
697.732000
21
501.644000
0
LINE
8
Layer 1
10
697.732000
20
501.644000
11
697.732000
21
18.597100
0
LINE
8
Layer 1
10
697.732000
20
18.597100
11
695.792000
21
18.597100
0
LINE
8
Layer 1
10
695.792000
20
18.597100
11
693.852000
21
18.597100
0
LINE
8
Layer 1
10
693.852000
20
18.597100
11
693.852640
21
501.644000
0
LINE
8
Layer 1
10
703.793890
20
501.644000
11
703.794000
21
984.691000
0
LINE
8
Layer 1
10
703.794000
20
984.691000
11
705.733000
21
984.691000
0
LINE
8
Layer 1
10
705.733000
20
984.691000
11
707.673000
21
984.691000
0
LINE
8
Layer 1
10
707.673000
20
984.691000
11
707.673000
21
501.644000
0
LINE
8
Layer 1
10
707.673000
20
501.644000
11
707.673000
21
18.597100
0
LINE
8
Layer 1
10
707.673000
20
18.597100
11
705.733000
21
18.597100
0
LINE
8
Layer 1
10
705.733000
20
18.597100
11
703.794000
21
18.597100
0
LINE
8
Layer 1
10
703.794000
20
18.597100
11
703.793890
21
501.644000
0
LINE
8
Layer 1
10
713.735140
20
501.644000
11
713.735000
21
984.691000
0
LINE
8
Layer 1
10
713.735000
20
984.691000
11
715.675000
21
984.691000
0
LINE
8
Layer 1
10
715.675000
20
984.691000
11
717.614000
21
984.691000
0
LINE
8
Layer 1
10
717.614000
20
984.691000
11
717.614000
21
501.644000
0
LINE
8
Layer 1
10
717.614000
20
501.644000
11
717.614000
21
18.597100
0
LINE
8
Layer 1
10
717.614000
20
18.597100
11
715.675000
21
18.597100
0
LINE
8
Layer 1
10
715.675000
20
18.597100
11
713.735000
21
18.597100
0
LINE
8
Layer 1
10
713.735000
20
18.597100
11
713.735140
21
501.644000
0
LINE
8
Layer 1
10
723.918840
20
501.644000
11
723.919000
21
984.691000
0
LINE
8
Layer 1
10
723.919000
20
984.691000
11
725.858000
21
984.691000
0
LINE
8
Layer 1
10
725.858000
20
984.691000
11
727.798000
21
984.691000
0
LINE
8
Layer 1
10
727.798000
20
984.691000
11
727.798000
21
501.644000
0
LINE
8
Layer 1
10
727.798000
20
501.644000
11
727.798000
21
18.597100
0
LINE
8
Layer 1
10
727.798000
20
18.597100
11
725.858000
21
18.597100
0
LINE
8
Layer 1
10
725.858000
20
18.597100
11
723.919000
21
18.597100
0
LINE
8
Layer 1
10
723.919000
20
18.597100
11
723.918840
21
501.644000
0
LINE
8
Layer 1
10
734.587540
20
501.644000
11
734.587000
21
984.691000
0
LINE
8
Layer 1
10
734.587000
20
984.691000
11
736.527000
21
984.691000
0
LINE
8
Layer 1
10
736.527000
20
984.691000
11
738.467000
21
984.691000
0
LINE
8
Layer 1
10
738.467000
20
984.691000
11
738.467000
21
501.644000
0
LINE
8
Layer 1
10
738.467000
20
501.644000
11
738.467000
21
18.597100
0
LINE
8
Layer 1
10
738.467000
20
18.597100
11
736.527000
21
18.597100
0
LINE
8
Layer 1
10
736.527000
20
18.597100
11
734.587000
21
18.597100
0
LINE
8
Layer 1
10
734.587000
20
18.597100
11
734.587540
21
501.644000
0
LINE
8
Layer 1
10
743.801380
20
501.644000
11
743.801000
21
984.691000
0
LINE
8
Layer 1
10
743.801000
20
984.691000
11
745.741000
21
984.691000
0
LINE
8
Layer 1
10
745.741000
20
984.691000
11
747.681000
21
984.691000
0
LINE
8
Layer 1
10
747.681000
20
984.691000
11
747.681000
21
501.644000
0
LINE
8
Layer 1
10
747.681000
20
501.644000
11
747.681000
21
18.597100
0
LINE
8
Layer 1
10
747.681000
20
18.597100
11
745.741000
21
18.597100
0
LINE
8
Layer 1
10
745.741000
20
18.597100
11
743.801000
21
18.597100
0
LINE
8
Layer 1
10
743.801000
20
18.597100
11
743.801380
21
501.644000
0
LINE
8
Layer 1
10
753.742630
20
501.644000
11
753.742000
21
984.691000
0
LINE
8
Layer 1
10
753.742000
20
984.691000
11
755.682000
21
984.691000
0
LINE
8
Layer 1
10
755.682000
20
984.691000
11
757.622000
21
984.691000
0
LINE
8
Layer 1
10
757.622000
20
984.691000
11
757.622000
21
501.644000
0
LINE
8
Layer 1
10
757.622000
20
501.644000
11
757.622000
21
18.597100
0
LINE
8
Layer 1
10
757.622000
20
18.597100
11
755.682000
21
18.597100
0
LINE
8
Layer 1
10
755.682000
20
18.597100
11
753.742000
21
18.597100
0
LINE
8
Layer 1
10
753.742000
20
18.597100
11
753.742630
21
501.644000
0
LINE
8
Layer 1
10
763.926330
20
501.644000
11
763.926000
21
984.691000
0
LINE
8
Layer 1
10
763.926000
20
984.691000
11
765.866000
21
984.691000
0
LINE
8
Layer 1
10
765.866000
20
984.691000
11
767.806000
21
984.691000
0
LINE
8
Layer 1
10
767.806000
20
984.691000
11
767.806000
21
501.644000
0
LINE
8
Layer 1
10
767.806000
20
501.644000
11
767.806000
21
18.597100
0
LINE
8
Layer 1
10
767.806000
20
18.597100
11
765.866000
21
18.597100
0
LINE
8
Layer 1
10
765.866000
20
18.597100
11
763.926000
21
18.597100
0
LINE
8
Layer 1
10
763.926000
20
18.597100
11
763.926330
21
501.644000
 0 
ENDSEC
 0 
EOF