999
"DXF R12 Output" (www.mydxf.blogspot.com)
 0 
SECTION
 2 
HEADER
 9 
$ACADVER
 1 
AC1009
 9 
$EXTMIN
 10 
 0 
 20 
 0 
 9 
$EXTMAX
 10 
 8.5 
 20 
 11 
 0 
ENDSEC
 0 
SECTION
 2 
ENTITIES
0
LINE
8
Layer 1
10
10.680300
20
0.449178
11
10.601780
21
8.838408
0
LINE
8
Layer 1
10
10.601780
20
8.838408
11
9.196640
21
7.027721
0
LINE
8
Layer 1
10
9.196640
20
7.027721
11
7.293021
21
5.114514
0
LINE
8
Layer 1
10
7.293021
20
5.114514
11
5.267147
21
3.481179
0
LINE
8
Layer 1
10
5.267147
20
3.481179
11
3.495240
21
2.510108
0
LINE
8
Layer 1
10
3.495240
20
2.510108
11
3.209756
21
4.804006
0
LINE
8
Layer 1
10
3.209756
20
4.804006
11
3.154203
21
5.865160
0
LINE
8
Layer 1
10
3.154203
20
5.865160
11
3.263910
21
6.924240
0
LINE
8
Layer 1
10
3.263910
20
6.924240
11
3.510773
21
7.538312
0
LINE
8
Layer 1
10
3.510773
20
7.538312
11
3.959051
21
8.166433
0
LINE
8
Layer 1
10
3.959051
20
8.166433
11
5.170951
21
9.346561
0
LINE
8
Layer 1
10
5.170951
20
9.346561
11
6.833830
21
10.574500
0
LINE
8
Layer 1
10
6.833830
20
10.574500
11
5.770033
21
10.904916
0
LINE
8
Layer 1
10
5.770033
20
10.904916
11
4.854828
21
11.566142
0
LINE
8
Layer 1
10
4.854828
20
11.566142
11
4.058311
21
12.490981
0
LINE
8
Layer 1
10
4.058311
20
12.490981
11
3.350574
21
13.612237
0
LINE
8
Layer 1
10
3.350574
20
13.612237
11
2.081818
21
16.175214
0
LINE
8
Layer 1
10
2.081818
20
16.175214
11
0.809311
21
18.717500
0
LINE
8
Layer 1
10
0.809311
20
18.717500
11
4.703355
21
18.510025
0
LINE
8
Layer 1
10
4.703355
20
18.510025
11
5.858403
21
18.285359
0
LINE
8
Layer 1
10
5.858403
20
18.285359
11
6.963450
21
17.726700
0
LINE
8
Layer 1
10
6.963450
20
17.726700
11
8.378219
21
16.704189
0
LINE
8
Layer 1
10
8.378219
20
16.704189
11
9.437099
21
15.708838
0
LINE
8
Layer 1
10
9.437099
20
15.708838
11
10.225167
21
14.650317
0
LINE
8
Layer 1
10
10.225167
20
14.650317
11
10.827500
21
13.438300
0
LINE
8
Layer 1
10
10.827500
20
13.438300
11
11.243109
21
14.643561
0
LINE
8
Layer 1
10
11.243109
20
14.643561
11
11.834650
21
15.758288
0
LINE
8
Layer 1
10
11.834650
20
15.758288
11
12.841391
21
16.697270
0
LINE
8
Layer 1
10
12.841391
20
16.697270
11
13.575232
21
17.074230
0
LINE
8
Layer 1
10
13.575232
20
17.074230
11
14.502600
21
17.375300
0
LINE
8
Layer 1
10
14.502600
20
17.375300
11
18.743890
21
18.491590
0
LINE
8
Layer 1
10
18.743890
20
18.491590
11
18.692260
21
17.270660
0
LINE
8
Layer 1
10
18.692260
20
17.270660
11
18.396641
21
16.070119
0
LINE
8
Layer 1
10
18.396641
20
16.070119
11
17.913336
21
14.907807
0
LINE
8
Layer 1
10
17.913336
20
14.907807
11
17.298653
21
13.801562
0
LINE
8
Layer 1
10
17.298653
20
13.801562
11
15.900368
21
11.828637
0
LINE
8
Layer 1
10
15.900368
20
11.828637
11
14.652230
21
10.294060
0
LINE
8
Layer 1
10
14.652230
20
10.294060
11
15.547872
21
7.432765
0
LINE
8
Layer 1
10
15.547872
20
7.432765
11
16.443520
21
4.571470
0
LINE
8
Layer 1
10
16.443520
20
4.571470
11
16.825315
21
4.880964
0
LINE
8
Layer 1
10
16.825315
20
4.880964
11
17.078410
21
5.614790
0
LINE
8
Layer 1
10
17.078410
20
5.614790
11
17.370105
21
7.789665
0
LINE
8
Layer 1
10
17.370105
20
7.789665
11
17.661799
21
9.964540
0
LINE
8
Layer 1
10
17.661799
20
9.964540
11
17.914895
21
10.698367
0
LINE
8
Layer 1
10
17.914895
20
10.698367
11
18.296690
21
11.007860
0
LINE
8
Layer 1
10
10.721900
20
3.494620
11
10.669940
21
9.126250
0
LINE
8
Layer 1
10
10.669940
20
9.126250
11
9.740093
21
7.910748
0
LINE
8
Layer 1
10
9.740093
20
7.910748
11
8.480378
21
6.626425
0
LINE
8
Layer 1
10
8.480378
20
6.626425
11
7.139762
21
5.529977
0
LINE
8
Layer 1
10
7.139762
20
5.529977
11
5.967210
21
4.878100
0
LINE
8
Layer 1
10
5.967210
20
4.878100
11
5.778284
21
6.417989
0
LINE
8
Layer 1
10
5.778284
20
6.417989
11
5.814110
21
7.841290
0
LINE
8
Layer 1
10
5.814110
20
7.841290
11
6.274122
21
8.675168
0
LINE
8
Layer 1
10
6.274122
20
8.675168
11
7.076095
21
9.467385
0
LINE
8
Layer 1
10
7.076095
20
9.467385
11
8.176500
21
10.291700
0
LINE
8
Layer 1
10
8.176500
20
10.291700
11
7.472538
21
10.513508
0
LINE
8
Layer 1
10
7.472538
20
10.513508
11
6.866906
21
10.957386
0
LINE
8
Layer 1
10
6.866906
20
10.957386
11
5.871471
21
12.330913
0
LINE
8
Layer 1
10
5.871471
20
12.330913
11
4.189790
21
15.758000
0
LINE
8
Layer 1
10
4.189790
20
15.758000
11
6.766669
21
15.618725
0
LINE
8
Layer 1
10
6.766669
20
15.618725
11
7.531019
21
15.467919
0
LINE
8
Layer 1
10
7.531019
20
15.467919
11
8.262280
21
15.092900
0
LINE
8
Layer 1
10
8.262280
20
15.092900
11
9.899219
21
13.738338
0
LINE
8
Layer 1
10
9.899219
20
13.738338
11
10.420723
21
13.027780
0
LINE
8
Layer 1
10
10.420723
20
13.027780
11
10.819300
21
12.214200
0
LINE
8
Layer 1
10
10.819300
20
12.214200
11
11.094338
21
13.023236
0
LINE
8
Layer 1
10
11.094338
20
13.023236
11
11.485775
21
13.771513
0
LINE
8
Layer 1
10
11.485775
20
13.771513
11
12.151975
21
14.401833
0
LINE
8
Layer 1
10
12.151975
20
14.401833
11
13.251300
21
14.857000
0
LINE
8
Layer 1
10
13.251300
20
14.857000
11
16.057960
21
15.606358
0
LINE
8
Layer 1
10
16.057960
20
15.606358
11
16.023794
21
14.786756
0
LINE
8
Layer 1
10
16.023794
20
14.786756
11
15.828168
21
13.980842
0
LINE
8
Layer 1
10
15.828168
20
13.980842
11
15.101577
21
12.457977
0
LINE
8
Layer 1
10
15.101577
20
12.457977
11
14.176267
21
11.133568
0
LINE
8
Layer 1
10
14.176267
20
11.133568
11
13.350320
21
10.103418
0
LINE
8
Layer 1
10
13.350320
20
10.103418
11
14.535700
21
6.261888
0
LINE
8
Layer 1
10
14.535700
20
6.261888
11
14.788351
21
6.469649
0
LINE
8
Layer 1
10
14.788351
20
6.469649
11
14.955836
21
6.962262
0
LINE
8
Layer 1
10
14.955836
20
6.962262
11
15.148864
21
8.422240
0
LINE
8
Layer 1
10
15.148864
20
8.422240
11
15.341892
21
9.882218
0
LINE
8
Layer 1
10
15.341892
20
9.882218
11
15.509378
21
10.374829
0
LINE
8
Layer 1
10
15.509378
20
10.374829
11
15.762030
21
10.582588
 0 
ENDSEC
 0 
EOF