999
"DXF R12 Output" (www.mydxf.blogspot.com)
 0 
SECTION
 2 
HEADER
 9 
$ACADVER
 1 
AC1009
 9 
$EXTMIN
 10 
 0 
 20 
 0 
 9 
$EXTMAX
 10 
 8.5 
 20 
 11 
 0 
ENDSEC
 0 
SECTION
 2 
ENTITIES
0
LINE
8
Layer 1
10
3.892460
20
3.347760
11
3.696298
21
3.765335
0
LINE
8
Layer 1
10
3.696298
20
3.765335
11
3.523357
21
5.096308
0
LINE
8
Layer 1
10
3.523357
20
5.096308
11
3.241306
21
12.423959
0
LINE
8
Layer 1
10
3.241306
20
12.423959
11
3.034644
21
29.181729
0
LINE
8
Layer 1
10
3.034644
20
29.181729
11
2.891709
21
59.220638
0
LINE
8
Layer 1
10
2.891709
20
59.220638
11
2.750370
21
174.545937
0
LINE
8
Layer 1
10
2.750370
20
174.545937
11
2.723990
21
389.208000
0
LINE
8
Layer 1
10
2.723990
20
389.208000
11
2.750753
21
603.277859
0
LINE
8
Layer 1
10
2.750753
20
603.277859
11
2.891910
21
718.729375
0
LINE
8
Layer 1
10
2.891910
20
718.729375
11
3.033918
21
748.986506
0
LINE
8
Layer 1
10
3.033918
20
748.986506
11
3.238762
21
766.004953
0
LINE
8
Layer 1
10
3.238762
20
766.004953
11
3.517855
21
773.590018
0
LINE
8
Layer 1
10
3.517855
20
773.590018
11
3.688812
21
775.034188
0
LINE
8
Layer 1
10
3.688812
20
775.034188
11
3.882610
21
775.547000
0
LINE
8
Layer 1
10
3.882610
20
775.547000
11
4.586248
21
775.740783
0
LINE
8
Layer 1
10
4.586248
20
775.740783
11
6.803252
21
775.910621
0
LINE
8
Layer 1
10
6.803252
20
775.910621
11
18.885847
21
776.182156
0
LINE
8
Layer 1
10
18.885847
20
776.182156
11
46.347370
21
776.368988
0
LINE
8
Layer 1
10
46.347370
20
776.368988
11
95.404795
21
776.478500
0
LINE
8
Layer 1
10
95.404795
20
776.478500
11
283.175248
21
776.495094
0
LINE
8
Layer 1
10
283.175248
20
776.495094
11
631.933000
21
776.291000
0
LINE
8
Layer 1
10
631.933000
20
776.291000
11
1074.798500
21
775.875522
0
LINE
8
Layer 1
10
1074.798500
20
775.875522
11
1209.615438
21
775.653487
0
LINE
8
Layer 1
10
1209.615438
20
775.653487
11
1259.244000
21
775.458321
0
LINE
8
Layer 1
10
1259.244000
20
775.458321
11
1259.406464
21
744.834945
0
LINE
8
Layer 1
10
1259.406464
20
744.834945
11
1259.539538
21
661.763765
0
LINE
8
Layer 1
10
1259.539538
20
661.763765
11
1259.662500
21
389.000321
0
LINE
8
Layer 1
10
1259.662500
20
389.000321
11
1259.660000
21
2.960610
0
LINE
8
Layer 1
10
1259.660000
20
2.960610
11
632.359000
21
2.813740
0
LINE
8
Layer 1
10
632.359000
20
2.813740
11
158.942044
21
2.870361
0
LINE
8
Layer 1
10
158.942044
20
2.870361
11
42.619272
21
3.055583
0
LINE
8
Layer 1
10
42.619272
20
3.055583
11
13.681114
21
3.188175
0
LINE
8
Layer 1
10
13.681114
20
3.188175
11
3.892460
21
3.347710
0
LINE
8
Layer 1
10
3.892460
20
3.347710
11
3.892460
21
3.347760
0
LINE
8
Layer 1
10
215.719000
20
111.076000
11
221.621429
21
112.345535
0
LINE
8
Layer 1
10
221.621429
20
112.345535
11
227.653904
21
114.079876
0
LINE
8
Layer 1
10
227.653904
20
114.079876
11
233.561276
21
116.196734
0
LINE
8
Layer 1
10
233.561276
20
116.196734
11
239.088400
21
118.613820
0
LINE
8
Layer 1
10
239.088400
20
118.613820
11
244.031149
21
121.174604
0
LINE
8
Layer 1
10
244.031149
20
121.174604
11
248.645332
21
123.847882
0
LINE
8
Layer 1
10
248.645332
20
123.847882
11
252.125550
21
126.139640
0
LINE
8
Layer 1
10
252.125550
20
126.139640
11
253.188733
21
126.988068
0
LINE
8
Layer 1
10
253.188733
20
126.988068
11
253.666400
21
127.555860
0
LINE
8
Layer 1
10
253.666400
20
127.555860
11
254.062457
21
127.978347
0
LINE
8
Layer 1
10
254.062457
20
127.978347
11
254.702160
21
128.154070
0
LINE
8
Layer 1
10
254.702160
20
128.154070
11
255.610985
21
128.785817
0
LINE
8
Layer 1
10
255.610985
20
128.785817
11
257.504713
21
130.490048
0
LINE
8
Layer 1
10
257.504713
20
130.490048
11
263.108508
21
135.969895
0
LINE
8
Layer 1
10
263.108508
20
135.969895
11
269.236803
21
142.301479
0
LINE
8
Layer 1
10
269.236803
20
142.301479
11
273.612860
21
147.192670
0
LINE
8
Layer 1
10
273.612860
20
147.192670
11
274.862589
21
149.027820
0
LINE
8
Layer 1
10
274.862589
20
149.027820
11
276.525045
21
151.853270
0
LINE
8
Layer 1
10
276.525045
20
151.853270
11
280.373564
21
159.069079
0
LINE
8
Layer 1
10
280.373564
20
159.069079
11
283.729255
21
166.028108
0
LINE
8
Layer 1
10
283.729255
20
166.028108
11
284.775678
21
168.532584
0
LINE
8
Layer 1
10
284.775678
20
168.532584
11
285.162960
21
169.918370
0
LINE
8
Layer 1
10
285.162960
20
169.918370
11
285.391122
21
171.115771
0
LINE
8
Layer 1
10
285.391122
20
171.115771
11
285.944740
21
172.072520
0
LINE
8
Layer 1
10
285.944740
20
172.072520
11
286.291113
21
172.628975
0
LINE
8
Layer 1
10
286.291113
20
172.628975
11
286.653627
21
173.563495
0
LINE
8
Layer 1
10
286.653627
20
173.563495
11
287.255100
21
176.045310
0
LINE
8
Layer 1
10
287.255100
20
176.045310
11
288.877810
21
184.574320
0
LINE
8
Layer 1
10
288.877810
20
184.574320
11
289.800939
21
190.483262
0
LINE
8
Layer 1
10
289.800939
20
190.483262
11
290.245581
21
196.746586
0
LINE
8
Layer 1
10
290.245581
20
196.746586
11
290.227521
21
203.214139
0
LINE
8
Layer 1
10
290.227521
20
203.214139
11
289.762545
21
209.735770
0
LINE
8
Layer 1
10
289.762545
20
209.735770
11
288.866437
21
216.161326
0
LINE
8
Layer 1
10
288.866437
20
216.161326
11
287.554982
21
222.340654
0
LINE
8
Layer 1
10
287.554982
20
222.340654
11
285.843964
21
228.123603
0
LINE
8
Layer 1
10
285.843964
20
228.123603
11
283.749170
21
233.360020
0
LINE
8
Layer 1
10
283.749170
20
233.360020
11
282.858890
21
235.596024
0
LINE
8
Layer 1
10
282.858890
20
235.596024
11
282.488600
21
237.159870
0
LINE
8
Layer 1
10
282.488600
20
237.159870
11
282.304886
21
238.039817
0
LINE
8
Layer 1
10
282.304886
20
238.039817
11
281.863180
21
238.631570
0
LINE
8
Layer 1
10
281.863180
20
238.631570
11
281.105150
21
239.527657
0
LINE
8
Layer 1
10
281.105150
20
239.527657
11
280.209656
21
241.103079
0
LINE
8
Layer 1
10
280.209656
20
241.103079
11
279.462656
21
242.789881
0
LINE
8
Layer 1
10
279.462656
20
242.789881
11
279.150110
21
244.020110
0
LINE
8
Layer 1
10
279.150110
20
244.020110
11
278.825860
21
244.866366
0
LINE
8
Layer 1
10
278.825860
20
244.866366
11
278.046270
21
245.753430
0
LINE
8
Layer 1
10
278.046270
20
245.753430
11
277.051556
21
246.890837
0
LINE
8
Layer 1
10
277.051556
20
246.890837
11
276.210090
21
248.339030
0
LINE
8
Layer 1
10
276.210090
20
248.339030
11
274.858924
21
250.763072
0
LINE
8
Layer 1
10
274.858924
20
250.763072
11
272.767376
21
253.683658
0
LINE
8
Layer 1
10
272.767376
20
253.683658
11
270.084026
21
256.943940
0
LINE
8
Layer 1
10
270.084026
20
256.943940
11
266.957455
21
260.387066
0
LINE
8
Layer 1
10
266.957455
20
260.387066
11
263.536245
21
263.856188
0
LINE
8
Layer 1
10
263.536245
20
263.856188
11
259.968977
21
267.194456
0
LINE
8
Layer 1
10
259.968977
20
267.194456
11
256.404231
21
270.245020
0
LINE
8
Layer 1
10
256.404231
20
270.245020
11
252.990590
21
272.851030
0
LINE
8
Layer 1
10
252.990590
20
272.851030
11
247.486675
21
276.333131
0
LINE
8
Layer 1
10
247.486675
20
276.333131
11
240.707310
21
280.114861
0
LINE
8
Layer 1
10
240.707310
20
280.114861
11
234.625010
21
283.150651
0
LINE
8
Layer 1
10
234.625010
20
283.150651
11
232.461670
21
284.062078
0
LINE
8
Layer 1
10
232.461670
20
284.062078
11
231.212290
21
284.394930
0
LINE
8
Layer 1
10
231.212290
20
284.394930
11
230.033629
21
284.666807
0
LINE
8
Layer 1
10
230.033629
20
284.666807
11
228.508250
21
285.320480
0
LINE
8
Layer 1
10
228.508250
20
285.320480
11
226.170607
21
286.194707
0
LINE
8
Layer 1
10
226.170607
20
286.194707
11
222.434571
21
287.175435
0
LINE
8
Layer 1
10
222.434571
20
287.175435
11
217.659975
21
288.178767
0
LINE
8
Layer 1
10
217.659975
20
288.178767
11
212.206650
21
289.120810
0
LINE
8
Layer 1
10
212.206650
20
289.120810
11
208.878016
21
289.491000
0
LINE
8
Layer 1
10
208.878016
20
289.491000
11
204.985383
21
289.677793
0
LINE
8
Layer 1
10
204.985383
20
289.677793
11
200.711102
21
289.690531
0
LINE
8
Layer 1
10
200.711102
20
289.690531
11
196.237524
21
289.538559
0
LINE
8
Layer 1
10
196.237524
20
289.538559
11
191.746999
21
289.231220
0
LINE
8
Layer 1
10
191.746999
20
289.231220
11
187.421878
21
288.777858
0
LINE
8
Layer 1
10
187.421878
20
288.777858
11
183.444511
21
288.187817
0
LINE
8
Layer 1
10
183.444511
20
288.187817
11
179.997250
21
287.470440
0
LINE
8
Layer 1
10
179.997250
20
287.470440
11
173.560332
21
285.692176
0
LINE
8
Layer 1
10
173.560332
20
285.692176
11
167.583112
21
283.667749
0
LINE
8
Layer 1
10
167.583112
20
283.667749
11
162.001855
21
281.362312
0
LINE
8
Layer 1
10
162.001855
20
281.362312
11
156.752825
21
278.741015
0
LINE
8
Layer 1
10
156.752825
20
278.741015
11
151.772285
21
275.769008
0
LINE
8
Layer 1
10
151.772285
20
275.769008
11
146.996500
21
272.411443
0
LINE
8
Layer 1
10
146.996500
20
272.411443
11
142.361734
21
268.633470
0
LINE
8
Layer 1
10
142.361734
20
268.633470
11
137.804250
21
264.400240
0
LINE
8
Layer 1
10
137.804250
20
264.400240
11
134.165160
21
260.654646
0
LINE
8
Layer 1
10
134.165160
20
260.654646
11
130.814806
21
256.872973
0
LINE
8
Layer 1
10
130.814806
20
256.872973
11
127.755912
21
253.059236
0
LINE
8
Layer 1
10
127.755912
20
253.059236
11
124.991200
21
249.217447
0
LINE
8
Layer 1
10
124.991200
20
249.217447
11
122.523395
21
245.351620
0
LINE
8
Layer 1
10
122.523395
20
245.351620
11
120.355219
21
241.465768
0
LINE
8
Layer 1
10
120.355219
20
241.465768
11
118.489396
21
237.563903
0
LINE
8
Layer 1
10
118.489396
20
237.563903
11
116.928650
21
233.650040
0
LINE
8
Layer 1
10
116.928650
20
233.650040
11
115.217710
21
229.310020
0
LINE
8
Layer 1
10
115.217710
20
229.310020
11
114.523622
21
227.519132
0
LINE
8
Layer 1
10
114.523622
20
227.519132
11
113.795157
21
225.171086
0
LINE
8
Layer 1
10
113.795157
20
225.171086
11
111.811590
21
217.311620
0
LINE
8
Layer 1
10
111.811590
20
217.311620
11
111.294524
21
214.275904
0
LINE
8
Layer 1
10
111.294524
20
214.275904
11
110.925606
21
210.333270
0
LINE
8
Layer 1
10
110.925606
20
210.333270
11
110.704771
21
205.768370
0
LINE
8
Layer 1
10
110.704771
20
205.768370
11
110.631955
21
200.865861
0
LINE
8
Layer 1
10
110.631955
20
200.865861
11
110.707093
21
195.910397
0
LINE
8
Layer 1
10
110.707093
20
195.910397
11
110.930122
21
191.186632
0
LINE
8
Layer 1
10
110.930122
20
191.186632
11
111.300975
21
186.979222
0
LINE
8
Layer 1
10
111.300975
20
186.979222
11
111.819590
21
183.572820
0
LINE
8
Layer 1
10
111.819590
20
183.572820
11
113.045038
21
177.908792
0
LINE
8
Layer 1
10
113.045038
20
177.908792
11
114.197496
21
173.461579
0
LINE
8
Layer 1
10
114.197496
20
173.461579
11
115.422677
21
169.729961
0
LINE
8
Layer 1
10
115.422677
20
169.729961
11
116.866290
21
166.212720
0
LINE
8
Layer 1
10
116.866290
20
166.212720
11
119.185790
21
160.871150
0
LINE
8
Layer 1
10
119.185790
20
160.871150
11
120.234310
21
158.701120
0
LINE
8
Layer 1
10
120.234310
20
158.701120
11
121.543920
21
156.364190
0
LINE
8
Layer 1
10
121.543920
20
156.364190
11
124.265531
21
151.715663
0
LINE
8
Layer 1
10
124.265531
20
151.715663
11
127.337901
21
147.236355
0
LINE
8
Layer 1
10
127.337901
20
147.236355
11
131.183231
21
142.354964
0
LINE
8
Layer 1
10
131.183231
20
142.354964
11
136.223720
21
136.500190
0
LINE
8
Layer 1
10
136.223720
20
136.500190
11
138.514817
21
134.354802
0
LINE
8
Layer 1
10
138.514817
20
134.354802
11
142.471665
21
130.973479
0
LINE
8
Layer 1
10
142.471665
20
130.973479
11
146.866715
21
127.381186
0
LINE
8
Layer 1
10
146.866715
20
127.381186
11
150.472420
21
124.602890
0
LINE
8
Layer 1
10
150.472420
20
124.602890
11
153.679542
21
122.556380
0
LINE
8
Layer 1
10
153.679542
20
122.556380
11
157.832409
21
120.275264
0
LINE
8
Layer 1
10
157.832409
20
120.275264
11
162.181106
21
118.148353
0
LINE
8
Layer 1
10
162.181106
20
118.148353
11
165.975720
21
116.564460
0
LINE
8
Layer 1
10
165.975720
20
116.564460
11
171.317270
21
114.482920
0
LINE
8
Layer 1
10
171.317270
20
114.482920
11
174.133272
21
113.512002
0
LINE
8
Layer 1
10
174.133272
20
113.512002
11
177.857989
21
112.528297
0
LINE
8
Layer 1
10
177.857989
20
112.528297
11
181.511296
21
111.764017
0
LINE
8
Layer 1
10
181.511296
20
111.764017
11
184.113070
21
111.451370
0
LINE
8
Layer 1
10
184.113070
20
111.451370
11
185.744562
21
111.253146
0
LINE
8
Layer 1
10
185.744562
20
111.253146
11
187.008120
21
110.793900
0
LINE
8
Layer 1
10
187.008120
20
110.793900
11
188.425499
21
110.490723
0
LINE
8
Layer 1
10
188.425499
20
110.490723
11
191.295487
21
110.292420
0
LINE
8
Layer 1
10
191.295487
20
110.292420
11
199.728924
21
110.194077
0
LINE
8
Layer 1
10
199.728924
20
110.194077
11
208.979709
21
110.466157
0
LINE
8
Layer 1
10
208.979709
20
110.466157
11
212.871381
21
110.730880
0
LINE
8
Layer 1
10
212.871381
20
110.730880
11
215.719120
21
111.075940
0
LINE
8
Layer 1
10
215.719120
20
111.075940
11
215.719000
21
111.076000
0
LINE
8
Layer 1
10
505.344000
20
111.507600
11
510.665891
21
112.691996
0
LINE
8
Layer 1
10
510.665891
20
112.691996
11
514.606975
21
113.764664
0
LINE
8
Layer 1
10
514.606975
20
113.764664
11
518.295422
21
115.078492
0
LINE
8
Layer 1
10
518.295422
20
115.078492
11
522.859400
21
116.986370
0
LINE
8
Layer 1
10
522.859400
20
116.986370
11
526.197890
21
118.396740
0
LINE
8
Layer 1
10
526.197890
20
118.396740
11
528.200980
21
119.421590
0
LINE
8
Layer 1
10
528.200980
20
119.421590
11
530.204070
21
120.431880
0
LINE
8
Layer 1
10
530.204070
20
120.431880
11
533.876400
21
122.494730
0
LINE
8
Layer 1
10
533.876400
20
122.494730
11
537.882580
21
124.750500
0
LINE
8
Layer 1
10
537.882580
20
124.750500
11
539.217965
21
125.600011
0
LINE
8
Layer 1
10
539.217965
20
125.600011
11
540.553350
21
126.828640
0
LINE
8
Layer 1
10
540.553350
20
126.828640
11
542.235445
21
128.356601
0
LINE
8
Layer 1
10
542.235445
20
128.356601
11
544.404410
21
129.925730
0
LINE
8
Layer 1
10
544.404410
20
129.925730
11
547.464124
21
132.322990
0
LINE
8
Layer 1
10
547.464124
20
132.322990
11
551.217666
21
135.954956
0
LINE
8
Layer 1
10
551.217666
20
135.954956
11
555.244630
21
140.385959
0
LINE
8
Layer 1
10
555.244630
20
140.385959
11
559.124610
21
145.180330
0
LINE
8
Layer 1
10
559.124610
20
145.180330
11
563.550660
21
150.855750
0
LINE
8
Layer 1
10
563.550660
20
150.855750
11
565.732140
21
154.861930
0
LINE
8
Layer 1
10
565.732140
20
154.861930
11
568.545600
21
160.203510
0
LINE
8
Layer 1
10
568.545600
20
160.203510
11
570.547600
21
164.200803
0
LINE
8
Layer 1
10
570.547600
20
164.200803
11
572.542185
21
169.284776
0
LINE
8
Layer 1
10
572.542185
20
169.284776
11
574.221560
21
174.585441
0
LINE
8
Layer 1
10
574.221560
20
174.585441
11
575.277930
21
179.232810
0
LINE
8
Layer 1
10
575.277930
20
179.232810
11
575.752611
21
181.511322
0
LINE
8
Layer 1
10
575.752611
20
181.511322
11
576.296420
21
183.238990
0
LINE
8
Layer 1
10
576.296420
20
183.238990
11
576.877931
21
186.633809
0
LINE
8
Layer 1
10
576.877931
20
186.633809
11
577.443460
21
192.920590
0
LINE
8
Layer 1
10
577.443460
20
192.920590
11
577.638500
21
198.291037
0
LINE
8
Layer 1
10
577.638500
20
198.291037
11
577.537392
21
203.779854
0
LINE
8
Layer 1
10
577.537392
20
203.779854
11
577.159752
21
209.252192
0
LINE
8
Layer 1
10
577.159752
20
209.252192
11
576.525197
21
214.573203
0
LINE
8
Layer 1
10
576.525197
20
214.573203
11
575.653346
21
219.608036
0
LINE
8
Layer 1
10
575.653346
20
219.608036
11
574.563814
21
224.221845
0
LINE
8
Layer 1
10
574.563814
20
224.221845
11
573.276220
21
228.279779
0
LINE
8
Layer 1
10
573.276220
20
228.279779
11
571.810180
21
231.646990
0
LINE
8
Layer 1
10
571.810180
20
231.646990
11
571.195641
21
233.123016
0
LINE
8
Layer 1
10
571.195641
20
233.123016
11
570.937630
21
234.327730
0
LINE
8
Layer 1
10
570.937630
20
234.327730
11
570.769808
21
235.170777
0
LINE
8
Layer 1
10
570.769808
20
235.170777
11
570.319371
21
236.415105
0
LINE
8
Layer 1
10
570.319371
20
236.415105
11
568.852824
21
239.559224
0
LINE
8
Layer 1
10
568.852824
20
239.559224
11
567.102332
21
242.663320
0
LINE
8
Layer 1
10
567.102332
20
242.663320
11
565.632240
21
244.630630
0
LINE
8
Layer 1
10
565.632240
20
244.630630
11
564.660667
21
245.707489
0
LINE
8
Layer 1
10
564.660667
20
245.707489
11
564.256560
21
246.548270
0
LINE
8
Layer 1
10
564.256560
20
246.548270
11
564.065168
21
247.243862
0
LINE
8
Layer 1
10
564.065168
20
247.243862
11
563.529105
21
248.318532
0
LINE
8
Layer 1
10
563.529105
20
248.318532
11
561.651644
21
251.274230
0
LINE
8
Layer 1
10
561.651644
20
251.274230
11
559.081533
21
254.753623
0
LINE
8
Layer 1
10
559.081533
20
254.753623
11
556.276130
21
258.094970
0
LINE
8
Layer 1
10
556.276130
20
258.094970
11
551.570310
21
263.302170
0
LINE
8
Layer 1
10
551.570310
20
263.302170
11
548.946872
21
265.920239
0
LINE
8
Layer 1
10
548.946872
20
265.920239
11
545.538613
21
268.829385
0
LINE
8
Layer 1
10
545.538613
20
268.829385
11
541.600025
21
271.857262
0
LINE
8
Layer 1
10
541.600025
20
271.857262
11
537.385601
21
274.831528
0
LINE
8
Layer 1
10
537.385601
20
274.831528
11
533.149835
21
277.579835
0
LINE
8
Layer 1
10
533.149835
20
277.579835
11
529.147219
21
279.929842
0
LINE
8
Layer 1
10
529.147219
20
279.929842
11
525.632247
21
281.709201
0
LINE
8
Layer 1
10
525.632247
20
281.709201
11
522.859410
21
282.745570
0
LINE
8
Layer 1
10
522.859410
20
282.745570
11
520.885864
21
283.427430
0
LINE
8
Layer 1
10
520.885864
20
283.427430
11
518.484990
21
284.452190
0
LINE
8
Layer 1
10
518.484990
20
284.452190
11
516.329448
21
285.326833
0
LINE
8
Layer 1
10
516.329448
20
285.326833
11
513.661925
21
286.123399
0
LINE
8
Layer 1
10
513.661925
20
286.123399
11
510.159509
21
286.925557
0
LINE
8
Layer 1
10
510.159509
20
286.925557
11
505.499290
21
287.816980
0
LINE
8
Layer 1
10
505.499290
20
287.816980
11
499.776470
21
289.107790
0
LINE
8
Layer 1
10
499.776470
20
289.107790
11
497.357909
21
289.499337
0
LINE
8
Layer 1
10
497.357909
20
289.499337
11
493.635576
21
289.692675
0
LINE
8
Layer 1
10
493.635576
20
289.692675
11
489.047325
21
289.706754
0
LINE
8
Layer 1
10
489.047325
20
289.706754
11
484.031009
21
289.560526
0
LINE
8
Layer 1
10
484.031009
20
289.560526
11
479.024482
21
289.272943
0
LINE
8
Layer 1
10
479.024482
20
289.272943
11
474.465597
21
288.862955
0
LINE
8
Layer 1
10
474.465597
20
288.862955
11
470.792209
21
288.349513
0
LINE
8
Layer 1
10
470.792209
20
288.349513
11
468.442170
21
287.751570
0
LINE
8
Layer 1
10
468.442170
20
287.751570
11
466.322236
21
287.123440
0
LINE
8
Layer 1
10
466.322236
20
287.123440
11
463.100590
21
286.383890
0
LINE
8
Layer 1
10
463.100590
20
286.383890
11
459.075431
21
285.241420
0
LINE
8
Layer 1
10
459.075431
20
285.241420
11
455.023580
21
283.644600
0
LINE
8
Layer 1
10
455.023580
20
283.644600
11
451.835877
21
282.288296
0
LINE
8
Layer 1
10
451.835877
20
282.288296
11
449.888330
21
281.724180
0
LINE
8
Layer 1
10
449.888330
20
281.724180
11
449.027939
21
281.548360
0
LINE
8
Layer 1
10
449.027939
20
281.548360
11
448.454010
21
281.125640
0
LINE
8
Layer 1
10
448.454010
20
281.125640
11
447.456290
21
280.314985
0
LINE
8
Layer 1
10
447.456290
20
280.314985
11
445.576900
21
279.206460
0
LINE
8
Layer 1
10
445.576900
20
279.206460
11
437.870346
21
274.984883
0
LINE
8
Layer 1
10
437.870346
20
274.984883
11
435.767737
21
273.604492
0
LINE
8
Layer 1
10
435.767737
20
273.604492
11
434.031400
21
272.226900
0
LINE
8
Layer 1
10
434.031400
20
272.226900
11
427.694380
21
267.034870
0
LINE
8
Layer 1
10
427.694380
20
267.034870
11
424.329194
21
263.985776
0
LINE
8
Layer 1
10
424.329194
20
263.985776
11
420.713595
21
260.075455
0
LINE
8
Layer 1
10
420.713595
20
260.075455
11
417.036574
21
255.574069
0
LINE
8
Layer 1
10
417.036574
20
255.574069
11
413.487124
21
250.751781
0
LINE
8
Layer 1
10
413.487124
20
250.751781
11
410.254237
21
245.878755
0
LINE
8
Layer 1
10
410.254237
20
245.878755
11
407.526906
21
241.225152
0
LINE
8
Layer 1
10
407.526906
20
241.225152
11
405.494123
21
237.061136
0
LINE
8
Layer 1
10
405.494123
20
237.061136
11
404.797247
21
235.247149
0
LINE
8
Layer 1
10
404.797247
20
235.247149
11
404.344880
21
233.656870
0
LINE
8
Layer 1
10
404.344880
20
233.656870
11
403.854415
21
232.136301
0
LINE
8
Layer 1
10
403.854415
20
232.136301
11
403.290480
21
231.281380
0
LINE
8
Layer 1
10
403.290480
20
231.281380
11
402.855185
21
230.514845
0
LINE
8
Layer 1
10
402.855185
20
230.514845
11
402.674140
21
229.206720
0
LINE
8
Layer 1
10
402.674140
20
229.206720
11
402.402264
21
227.489915
0
LINE
8
Layer 1
10
402.402264
20
227.489915
11
401.748600
21
225.740710
0
LINE
8
Layer 1
10
401.748600
20
225.740710
11
400.666601
21
222.825586
0
LINE
8
Layer 1
10
400.666601
20
222.825586
11
399.636152
21
218.495905
0
LINE
8
Layer 1
10
399.636152
20
218.495905
11
398.741188
21
213.172452
0
LINE
8
Layer 1
10
398.741188
20
213.172452
11
398.065640
21
207.276010
0
LINE
8
Layer 1
10
398.065640
20
207.276010
11
397.812336
21
202.892441
0
LINE
8
Layer 1
10
397.812336
20
202.892441
11
397.793733
21
198.279710
0
LINE
8
Layer 1
10
397.793733
20
198.279710
11
397.994353
21
193.579079
0
LINE
8
Layer 1
10
397.994353
20
193.579079
11
398.398720
21
188.931810
0
LINE
8
Layer 1
10
398.398720
20
188.931810
11
398.991355
21
184.479166
0
LINE
8
Layer 1
10
398.991355
20
184.479166
11
399.756782
21
180.362410
0
LINE
8
Layer 1
10
399.756782
20
180.362410
11
400.679523
21
176.722804
0
LINE
8
Layer 1
10
400.679523
20
176.722804
11
401.744100
21
173.701610
0
LINE
8
Layer 1
10
401.744100
20
173.701610
11
402.400944
21
171.859910
0
LINE
8
Layer 1
10
402.400944
20
171.859910
11
402.674140
21
170.511050
0
LINE
8
Layer 1
10
402.674140
20
170.511050
11
403.321072
21
168.496858
0
LINE
8
Layer 1
10
403.321072
20
168.496858
11
404.846037
21
164.818776
0
LINE
8
Layer 1
10
404.846037
20
164.818776
11
406.625295
21
160.909157
0
LINE
8
Layer 1
10
406.625295
20
160.909157
11
408.035100
21
158.200350
0
LINE
8
Layer 1
10
408.035100
20
158.200350
11
410.505180
21
153.526460
0
LINE
8
Layer 1
10
410.505180
20
153.526460
11
412.062760
21
150.870270
0
LINE
8
Layer 1
10
412.062760
20
150.870270
11
414.265805
21
147.720750
0
LINE
8
Layer 1
10
414.265805
20
147.720750
11
416.944103
21
144.273361
0
LINE
8
Layer 1
10
416.944103
20
144.273361
11
419.927441
21
140.723563
0
LINE
8
Layer 1
10
419.927441
20
140.723563
11
423.045610
21
137.266813
0
LINE
8
Layer 1
10
423.045610
20
137.266813
11
426.128397
21
134.098573
0
LINE
8
Layer 1
10
426.128397
20
134.098573
11
429.005591
21
131.414302
0
LINE
8
Layer 1
10
429.005591
20
131.414302
11
431.506980
21
129.409460
0
LINE
8
Layer 1
10
431.506980
20
129.409460
11
435.257670
21
126.494220
0
LINE
8
Layer 1
10
435.257670
20
126.494220
11
437.697443
21
124.852650
0
LINE
8
Layer 1
10
437.697443
20
124.852650
11
441.899571
21
122.376283
0
LINE
8
Layer 1
10
441.899571
20
122.376283
11
446.486474
21
119.849332
0
LINE
8
Layer 1
10
446.486474
20
119.849332
11
450.080570
21
118.056010
0
LINE
8
Layer 1
10
450.080570
20
118.056010
11
456.142575
21
115.480290
0
LINE
8
Layer 1
10
456.142575
20
115.480290
11
460.095970
21
114.158000
0
LINE
8
Layer 1
10
460.095970
20
114.158000
11
464.769840
21
112.760310
0
LINE
8
Layer 1
10
464.769840
20
112.760310
11
466.831352
21
112.240086
0
LINE
8
Layer 1
10
466.831352
20
112.240086
11
469.443710
21
111.761030
0
LINE
8
Layer 1
10
469.443710
20
111.761030
11
471.859940
21
111.275338
0
LINE
8
Layer 1
10
471.859940
20
111.275338
11
473.449880
21
110.739050
0
LINE
8
Layer 1
10
473.449880
20
110.739050
11
474.801201
21
110.515280
0
LINE
8
Layer 1
10
474.801201
20
110.515280
11
477.740141
21
110.328971
0
LINE
8
Layer 1
10
477.740141
20
110.328971
11
486.648580
21
110.146540
0
LINE
8
Layer 1
10
486.648580
20
110.146540
11
492.987145
21
110.195966
0
LINE
8
Layer 1
10
492.987145
20
110.195966
11
497.722087
21
110.403089
0
LINE
8
Layer 1
10
497.722087
20
110.403089
11
501.594152
21
110.822197
0
LINE
8
Layer 1
10
501.594152
20
110.822197
11
505.344080
21
111.507580
0
LINE
8
Layer 1
10
505.344080
20
111.507580
11
505.344000
21
111.507600
0
LINE
8
Layer 1
10
795.947000
20
112.092090
11
804.627040
21
114.586750
0
LINE
8
Layer 1
10
804.627040
20
114.586750
11
809.748353
21
116.707836
0
LINE
8
Layer 1
10
809.748353
20
116.707836
11
816.034721
21
119.719362
0
LINE
8
Layer 1
10
816.034721
20
119.719362
11
821.755974
21
122.750633
0
LINE
8
Layer 1
10
821.755974
20
122.750633
11
823.864003
21
124.001579
0
LINE
8
Layer 1
10
823.864003
20
124.001579
11
825.181940
21
124.930950
0
LINE
8
Layer 1
10
825.181940
20
124.930950
11
826.899905
21
126.264185
0
LINE
8
Layer 1
10
826.899905
20
126.264185
11
827.950430
21
126.818710
0
LINE
8
Layer 1
10
827.950430
20
126.818710
11
828.779184
21
127.293285
0
LINE
8
Layer 1
10
828.779184
20
127.293285
11
830.376581
21
128.585921
0
LINE
8
Layer 1
10
830.376581
20
128.585921
11
835.048072
21
132.838848
0
LINE
8
Layer 1
10
835.048072
20
132.838848
11
840.306443
21
138.004430
0
LINE
8
Layer 1
10
840.306443
20
138.004430
11
844.493230
21
142.509610
0
LINE
8
Layer 1
10
844.493230
20
142.509610
11
847.983600
21
147.049240
0
LINE
8
Layer 1
10
847.983600
20
147.049240
11
851.616286
21
152.455993
0
LINE
8
Layer 1
10
851.616286
20
152.455993
11
854.810345
21
157.813803
0
LINE
8
Layer 1
10
854.810345
20
157.813803
11
856.984830
21
162.206610
0
LINE
8
Layer 1
10
856.984830
20
162.206610
11
859.054970
21
167.214320
0
LINE
8
Layer 1
10
859.054970
20
167.214320
11
861.034410
21
172.889740
0
LINE
8
Layer 1
10
861.034410
20
172.889740
11
862.563040
21
177.563600
0
LINE
8
Layer 1
10
862.563040
20
177.563600
11
863.399615
21
180.774986
0
LINE
8
Layer 1
10
863.399615
20
180.774986
11
864.165271
21
185.652221
0
LINE
8
Layer 1
10
864.165271
20
185.652221
11
864.770182
21
191.492870
0
LINE
8
Layer 1
10
864.770182
20
191.492870
11
865.124520
21
197.594500
0
LINE
8
Layer 1
10
865.124520
20
197.594500
11
865.094529
21
204.191750
0
LINE
8
Layer 1
10
865.094529
20
204.191750
11
864.576270
21
210.703664
0
LINE
8
Layer 1
10
864.576270
20
210.703664
11
863.584603
21
217.004121
0
LINE
8
Layer 1
10
863.584603
20
217.004121
11
862.134390
21
222.967000
0
LINE
8
Layer 1
10
862.134390
20
222.967000
11
860.201610
21
229.643960
0
LINE
8
Layer 1
10
860.201610
20
229.643960
11
858.529547
21
234.318495
0
LINE
8
Layer 1
10
858.529547
20
234.318495
11
856.210826
21
239.544689
0
LINE
8
Layer 1
10
856.210826
20
239.544689
11
853.841992
21
244.080243
0
LINE
8
Layer 1
10
853.841992
20
244.080243
11
852.825203
21
245.700812
0
LINE
8
Layer 1
10
852.825203
20
245.700812
11
852.019590
21
246.682860
0
LINE
8
Layer 1
10
852.019590
20
246.682860
11
851.086319
21
247.764613
0
LINE
8
Layer 1
10
851.086319
20
247.764613
11
850.698140
21
248.686150
0
LINE
8
Layer 1
10
850.698140
20
248.686150
11
850.529903
21
249.291811
0
LINE
8
Layer 1
10
850.529903
20
249.291811
11
850.046061
21
250.175729
0
LINE
8
Layer 1
10
850.046061
20
250.175729
11
848.256768
21
252.645359
0
LINE
8
Layer 1
10
848.256768
20
252.645359
11
845.580680
21
255.829082
0
LINE
8
Layer 1
10
845.580680
20
255.829082
11
842.268215
21
259.460939
0
LINE
8
Layer 1
10
842.268215
20
259.460939
11
838.569790
21
263.274972
0
LINE
8
Layer 1
10
838.569790
20
263.274972
11
834.735824
21
267.005224
0
LINE
8
Layer 1
10
834.735824
20
267.005224
11
831.016735
21
270.385736
0
LINE
8
Layer 1
10
831.016735
20
270.385736
11
827.662940
21
273.150550
0
LINE
8
Layer 1
10
827.662940
20
273.150550
11
823.410625
21
275.781521
0
LINE
8
Layer 1
10
823.410625
20
275.781521
11
816.732660
21
279.369380
0
LINE
8
Layer 1
10
816.732660
20
279.369380
11
809.760860
21
282.815549
0
LINE
8
Layer 1
10
809.760860
20
282.815549
11
804.627040
21
285.021450
0
LINE
8
Layer 1
10
804.627040
20
285.021450
11
798.451518
21
286.708004
0
LINE
8
Layer 1
10
798.451518
20
286.708004
11
788.091940
21
289.111010
0
LINE
8
Layer 1
10
788.091940
20
289.111010
11
786.161653
21
289.386398
0
LINE
8
Layer 1
10
786.161653
20
289.386398
11
783.415367
21
289.578110
0
LINE
8
Layer 1
10
783.415367
20
289.578110
11
776.401639
21
289.713894
0
LINE
8
Layer 1
10
776.401639
20
289.713894
11
768.904436
21
289.525135
0
LINE
8
Layer 1
10
768.904436
20
289.525135
11
762.777440
21
289.018610
0
LINE
8
Layer 1
10
762.777440
20
289.018610
11
757.989448
21
288.200390
0
LINE
8
Layer 1
10
757.989448
20
288.200390
11
753.033939
21
287.091419
0
LINE
8
Layer 1
10
753.033939
20
287.091419
11
748.614580
21
285.866848
0
LINE
8
Layer 1
10
748.614580
20
285.866848
11
745.435040
21
284.701830
0
LINE
8
Layer 1
10
745.435040
20
284.701830
11
743.708214
21
284.013605
0
LINE
8
Layer 1
10
743.708214
20
284.013605
11
742.511120
21
283.727350
0
LINE
8
Layer 1
10
742.511120
20
283.727350
11
741.467051
21
283.455613
0
LINE
8
Layer 1
10
741.467051
20
283.455613
11
739.675830
21
282.714574
0
LINE
8
Layer 1
10
739.675830
20
282.714574
11
734.702618
21
280.269638
0
LINE
8
Layer 1
10
734.702618
20
280.269638
11
729.292857
21
277.282627
0
LINE
8
Layer 1
10
729.292857
20
277.282627
11
725.147920
21
274.643630
0
LINE
8
Layer 1
10
725.147920
20
274.643630
11
722.177409
21
272.570914
0
LINE
8
Layer 1
10
722.177409
20
272.570914
11
720.633840
21
271.708810
0
LINE
8
Layer 1
10
720.633840
20
271.708810
11
718.047808
21
269.524279
0
LINE
8
Layer 1
10
718.047808
20
269.524279
11
712.570870
21
264.272090
0
LINE
8
Layer 1
10
712.570870
20
264.272090
11
708.057633
21
259.614905
0
LINE
8
Layer 1
10
708.057633
20
259.614905
11
704.308375
21
255.140945
0
LINE
8
Layer 1
10
704.308375
20
255.140945
11
700.539265
21
249.830083
0
LINE
8
Layer 1
10
700.539265
20
249.830083
11
695.966470
21
242.662190
0
LINE
8
Layer 1
10
695.966470
20
242.662190
11
693.487205
21
238.217024
0
LINE
8
Layer 1
10
693.487205
20
238.217024
11
692.731727
21
236.512736
0
LINE
8
Layer 1
10
692.731727
20
236.512736
11
692.454060
21
235.471410
0
LINE
8
Layer 1
10
692.454060
20
235.471410
11
692.020033
21
233.963433
0
LINE
8
Layer 1
10
692.020033
20
233.963433
11
690.976510
21
231.605540
0
LINE
8
Layer 1
10
690.976510
20
231.605540
11
689.932278
21
229.170201
0
LINE
8
Layer 1
10
689.932278
20
229.170201
11
688.957795
21
226.159986
0
LINE
8
Layer 1
10
688.957795
20
226.159986
11
688.020618
21
222.460973
0
LINE
8
Layer 1
10
688.020618
20
222.460973
11
687.088300
21
217.959240
0
LINE
8
Layer 1
10
687.088300
20
217.959240
11
686.153227
21
212.249690
0
LINE
8
Layer 1
10
686.153227
20
212.249690
11
685.546016
21
206.649581
0
LINE
8
Layer 1
10
685.546016
20
206.649581
11
685.267466
21
201.138876
0
LINE
8
Layer 1
10
685.267466
20
201.138876
11
685.318374
21
195.697540
0
LINE
8
Layer 1
10
685.318374
20
195.697540
11
685.699538
21
190.305535
0
LINE
8
Layer 1
10
685.699538
20
190.305535
11
686.411757
21
184.942824
0
LINE
8
Layer 1
10
686.411757
20
184.942824
11
687.455829
21
179.589372
0
LINE
8
Layer 1
10
687.455829
20
179.589372
11
688.832550
21
174.225140
0
LINE
8
Layer 1
10
688.832550
20
174.225140
11
689.729131
21
171.577153
0
LINE
8
Layer 1
10
689.729131
20
171.577153
11
691.067614
21
168.207726
0
LINE
8
Layer 1
10
691.067614
20
168.207726
11
694.487494
21
160.538489
0
LINE
8
Layer 1
10
694.487494
20
160.538489
11
697.926601
21
153.685302
0
LINE
8
Layer 1
10
697.926601
20
153.685302
11
699.289120
21
151.335938
0
LINE
8
Layer 1
10
699.289120
20
151.335938
11
700.219350
21
150.116040
0
LINE
8
Layer 1
10
700.219350
20
150.116040
11
701.176129
21
148.930595
0
LINE
8
Layer 1
10
701.176129
20
148.930595
11
702.083490
21
147.236530
0
LINE
8
Layer 1
10
702.083490
20
147.236530
11
703.048377
21
145.802233
0
LINE
8
Layer 1
10
703.048377
20
145.802233
11
705.030760
21
143.416980
0
LINE
8
Layer 1
10
705.030760
20
143.416980
11
710.891930
21
137.121230
0
LINE
8
Layer 1
10
710.891930
20
137.121230
11
714.613932
21
133.497473
0
LINE
8
Layer 1
10
714.613932
20
133.497473
11
718.351132
21
130.169114
0
LINE
8
Layer 1
10
718.351132
20
130.169114
11
722.099396
21
127.138989
0
LINE
8
Layer 1
10
722.099396
20
127.138989
11
725.854593
21
124.409930
0
LINE
8
Layer 1
10
725.854593
20
124.409930
11
729.612587
21
121.984771
0
LINE
8
Layer 1
10
729.612587
20
121.984771
11
733.369247
21
119.866346
0
LINE
8
Layer 1
10
733.369247
20
119.866346
11
737.120439
21
118.057487
0
LINE
8
Layer 1
10
737.120439
20
118.057487
11
740.862030
21
116.561030
0
LINE
8
Layer 1
10
740.862030
20
116.561030
11
745.535890
21
114.852390
0
LINE
8
Layer 1
10
745.535890
20
114.852390
11
748.521753
21
113.803051
0
LINE
8
Layer 1
10
748.521753
20
113.803051
11
751.669008
21
112.869245
0
LINE
8
Layer 1
10
751.669008
20
112.869245
11
754.818178
21
112.094244
0
LINE
8
Layer 1
10
754.818178
20
112.094244
11
757.809790
21
111.521320
0
LINE
8
Layer 1
10
757.809790
20
111.521320
11
760.940645
21
110.915374
0
LINE
8
Layer 1
10
760.940645
20
110.915374
11
762.483660
21
110.415890
0
LINE
8
Layer 1
10
762.483660
20
110.415890
11
763.723854
21
110.277307
0
LINE
8
Layer 1
10
763.723854
20
110.277307
11
766.795700
21
110.213058
0
LINE
8
Layer 1
10
766.795700
20
110.213058
11
776.583760
21
110.320290
0
LINE
8
Layer 1
10
776.583760
20
110.320290
11
783.629180
21
110.544896
0
LINE
8
Layer 1
10
783.629180
20
110.544896
11
788.692473
21
110.868176
0
LINE
8
Layer 1
10
788.692473
20
110.868176
11
792.542208
21
111.360464
0
LINE
8
Layer 1
10
792.542208
20
111.360464
11
795.946960
21
112.092090
0
LINE
8
Layer 1
10
795.946960
20
112.092090
11
795.947000
21
112.092090
0
LINE
8
Layer 1
10
1084.392000
20
112.392900
11
1089.961450
21
113.966104
0
LINE
8
Layer 1
10
1089.961450
20
113.966104
11
1093.506800
21
115.179060
0
LINE
8
Layer 1
10
1093.506800
20
115.179060
11
1095.171462
21
115.854584
0
LINE
8
Layer 1
10
1095.171462
20
115.854584
11
1096.219100
21
116.135540
0
LINE
8
Layer 1
10
1096.219100
20
116.135540
11
1097.472800
21
116.533686
0
LINE
8
Layer 1
10
1097.472800
20
116.533686
11
1099.632800
21
117.490950
0
LINE
8
Layer 1
10
1099.632800
20
117.490950
11
1103.931300
21
119.503940
0
LINE
8
Layer 1
10
1103.931300
20
119.503940
11
1107.161100
21
121.320050
0
LINE
8
Layer 1
10
1107.161100
20
121.320050
11
1113.191100
21
125.164340
0
LINE
8
Layer 1
10
1113.191100
20
125.164340
11
1115.573844
21
126.744920
0
LINE
8
Layer 1
10
1115.573844
20
126.744920
11
1118.257361
21
128.779996
0
LINE
8
Layer 1
10
1118.257361
20
128.779996
11
1123.931563
21
133.664240
0
LINE
8
Layer 1
10
1123.931563
20
133.664240
11
1129.023408
21
138.718284
0
LINE
8
Layer 1
10
1129.023408
20
138.718284
11
1130.978979
21
140.965610
0
LINE
8
Layer 1
10
1130.978979
20
140.965610
11
1132.342600
21
142.843340
0
LINE
8
Layer 1
10
1132.342600
20
142.843340
11
1133.614963
21
144.610647
0
LINE
8
Layer 1
10
1133.614963
20
144.610647
11
1135.225200
21
146.515670
0
LINE
8
Layer 1
10
1135.225200
20
146.515670
11
1137.073491
21
148.836989
0
LINE
8
Layer 1
10
1137.073491
20
148.836989
11
1139.196525
21
152.329742
0
LINE
8
Layer 1
10
1139.196525
20
152.329742
11
1142.076422
21
157.863835
0
LINE
8
Layer 1
10
1142.076422
20
157.863835
11
1146.195300
21
166.309170
0
LINE
8
Layer 1
10
1146.195300
20
166.309170
11
1147.389013
21
169.157440
0
LINE
8
Layer 1
10
1147.389013
20
169.157440
11
1148.165500
21
171.650720
0
LINE
8
Layer 1
10
1148.165500
20
171.650720
11
1148.655500
21
173.429213
0
LINE
8
Layer 1
10
1148.655500
20
173.429213
11
1149.160200
21
174.558910
0
LINE
8
Layer 1
10
1149.160200
20
174.558910
11
1149.666375
21
175.913077
0
LINE
8
Layer 1
10
1149.666375
20
175.913077
11
1150.160100
21
178.231250
0
LINE
8
Layer 1
10
1150.160100
20
178.231250
11
1150.662450
21
180.552617
0
LINE
8
Layer 1
10
1150.662450
20
180.552617
11
1151.189400
21
181.914510
0
LINE
8
Layer 1
10
1151.189400
20
181.914510
11
1151.599991
21
183.844569
0
LINE
8
Layer 1
10
1151.599991
20
183.844569
11
1152.015625
21
188.161446
0
LINE
8
Layer 1
10
1152.015625
20
188.161446
11
1152.378947
21
194.109455
0
LINE
8
Layer 1
10
1152.378947
20
194.109455
11
1152.632600
21
200.932910
0
LINE
8
Layer 1
10
1152.632600
20
200.932910
11
1152.551375
21
205.371001
0
LINE
8
Layer 1
10
1152.551375
20
205.371001
11
1152.198800
21
209.946800
0
LINE
8
Layer 1
10
1152.198800
20
209.946800
11
1151.279427
21
215.279512
0
LINE
8
Layer 1
10
1151.279427
20
215.279512
11
1149.774913
21
221.875130
0
LINE
8
Layer 1
10
1149.774913
20
221.875130
11
1148.129042
21
227.949033
0
LINE
8
Layer 1
10
1148.129042
20
227.949033
11
1147.391781
21
230.232647
0
LINE
8
Layer 1
10
1147.391781
20
230.232647
11
1146.785600
21
231.716600
0
LINE
8
Layer 1
10
1146.785600
20
231.716600
11
1146.103687
21
233.269639
0
LINE
8
Layer 1
10
1146.103687
20
233.269639
11
1145.820100
21
234.381550
0
LINE
8
Layer 1
10
1145.820100
20
234.381550
11
1145.561162
21
235.290100
0
LINE
8
Layer 1
10
1145.561162
20
235.290100
11
1144.866261
21
236.927203
0
LINE
8
Layer 1
10
1144.866261
20
236.927203
11
1142.660062
21
241.434697
0
LINE
8
Layer 1
10
1142.660062
20
241.434697
11
1140.184483
21
245.999293
0
LINE
8
Layer 1
10
1140.184483
20
245.999293
11
1138.422500
21
248.716250
0
LINE
8
Layer 1
10
1138.422500
20
248.716250
11
1137.516725
21
249.853772
0
LINE
8
Layer 1
10
1137.516725
20
249.853772
11
1137.140000
21
250.653000
0
LINE
8
Layer 1
10
1137.140000
20
250.653000
11
1136.351562
21
251.949422
0
LINE
8
Layer 1
10
1136.351562
20
251.949422
11
1134.455900
21
254.282300
0
LINE
8
Layer 1
10
1134.455900
20
254.282300
11
1128.613500
21
260.953630
0
LINE
8
Layer 1
10
1128.613500
20
260.953630
11
1125.356733
21
264.347755
0
LINE
8
Layer 1
10
1125.356733
20
264.347755
11
1121.501945
21
267.847796
0
LINE
8
Layer 1
10
1121.501945
20
267.847796
11
1117.260357
21
271.305113
0
LINE
8
Layer 1
10
1117.260357
20
271.305113
11
1112.843187
21
274.571061
0
LINE
8
Layer 1
10
1112.843187
20
274.571061
11
1108.461657
21
277.497000
0
LINE
8
Layer 1
10
1108.461657
20
277.497000
11
1104.326986
21
279.934285
0
LINE
8
Layer 1
10
1104.326986
20
279.934285
11
1100.650394
21
281.734276
0
LINE
8
Layer 1
10
1100.650394
20
281.734276
11
1097.643100
21
282.748330
0
LINE
8
Layer 1
10
1097.643100
20
282.748330
11
1095.290538
21
283.516875
0
LINE
8
Layer 1
10
1095.290538
20
283.516875
11
1092.500800
21
284.735120
0
LINE
8
Layer 1
10
1092.500800
20
284.735120
11
1090.822545
21
285.418727
0
LINE
8
Layer 1
10
1090.822545
20
285.418727
11
1088.545462
21
286.142719
0
LINE
8
Layer 1
10
1088.545462
20
286.142719
11
1083.390500
21
287.366500
0
LINE
8
Layer 1
10
1083.390500
20
287.366500
11
1074.222000
21
289.156500
0
LINE
8
Layer 1
10
1074.222000
20
289.156500
11
1072.131897
21
289.485433
0
LINE
8
Layer 1
10
1072.131897
20
289.485433
11
1069.445905
21
289.703384
0
LINE
8
Layer 1
10
1069.445905
20
289.703384
11
1062.850487
21
289.814375
0
LINE
8
Layer 1
10
1062.850487
20
289.814375
11
1055.564227
21
289.505554
0
LINE
8
Layer 1
10
1055.564227
20
289.505554
11
1048.715600
21
288.793000
0
LINE
8
Layer 1
10
1048.715600
20
288.793000
11
1043.736625
21
288.001605
0
LINE
8
Layer 1
10
1043.736625
20
288.001605
11
1039.864500
21
287.163564
0
LINE
8
Layer 1
10
1039.864500
20
287.163564
11
1036.150025
21
286.032510
0
LINE
8
Layer 1
10
1036.150025
20
286.032510
11
1031.644000
21
284.362080
0
LINE
8
Layer 1
10
1031.644000
20
284.362080
11
1026.163900
21
282.256360
0
LINE
8
Layer 1
10
1026.163900
20
282.256360
11
1024.064125
21
281.303622
0
LINE
8
Layer 1
10
1024.064125
20
281.303622
11
1022.491600
21
280.334910
0
LINE
8
Layer 1
10
1022.491600
20
280.334910
11
1020.371413
21
279.008506
0
LINE
8
Layer 1
10
1020.371413
20
279.008506
11
1016.954700
21
277.195780
0
LINE
8
Layer 1
10
1016.954700
20
277.195780
11
1013.023382
21
274.946965
0
LINE
8
Layer 1
10
1013.023382
20
274.946965
11
1008.874869
21
272.043913
0
LINE
8
Layer 1
10
1008.874869
20
272.043913
11
1004.636871
21
268.610172
0
LINE
8
Layer 1
10
1004.636871
20
268.610172
11
1000.437100
21
264.769292
0
LINE
8
Layer 1
10
1000.437100
20
264.769292
11
996.403266
21
260.644824
0
LINE
8
Layer 1
10
996.403266
20
260.644824
11
992.663081
21
256.360316
0
LINE
8
Layer 1
10
992.663081
20
256.360316
11
989.344255
21
252.039318
0
LINE
8
Layer 1
10
989.344255
20
252.039318
11
986.574500
21
247.805380
0
LINE
8
Layer 1
10
986.574500
20
247.805380
11
984.599520
21
244.705690
0
LINE
8
Layer 1
10
984.599520
20
244.705690
11
982.089903
21
240.353601
0
LINE
8
Layer 1
10
982.089903
20
240.353601
11
981.229993
21
238.488244
0
LINE
8
Layer 1
10
981.229993
20
238.488244
11
980.899070
21
237.357670
0
LINE
8
Layer 1
10
980.899070
20
237.357670
11
980.428999
21
235.891201
0
LINE
8
Layer 1
10
980.428999
20
235.891201
11
979.298800
21
233.325750
0
LINE
8
Layer 1
10
979.298800
20
233.325750
11
977.869294
21
230.108791
0
LINE
8
Layer 1
10
977.869294
20
230.108791
11
976.682686
21
226.966287
0
LINE
8
Layer 1
10
976.682686
20
226.966287
11
975.772680
21
223.996491
0
LINE
8
Layer 1
10
975.772680
20
223.996491
11
975.172980
21
221.297650
0
LINE
8
Layer 1
10
975.172980
20
221.297650
11
974.706268
21
219.215267
0
LINE
8
Layer 1
10
974.706268
20
219.215267
11
974.226460
21
217.959160
0
LINE
8
Layer 1
10
974.226460
20
217.959160
11
973.924858
21
217.161448
0
LINE
8
Layer 1
10
973.924858
20
217.161448
11
973.631581
21
215.673308
0
LINE
8
Layer 1
10
973.631581
20
215.673308
11
973.110470
21
211.103200
0
LINE
8
Layer 1
10
973.110470
20
211.103200
11
972.744062
21
205.203747
0
LINE
8
Layer 1
10
972.744062
20
205.203747
11
972.613290
21
198.929860
0
LINE
8
Layer 1
10
972.613290
20
198.929860
11
972.690579
21
195.036317
0
LINE
8
Layer 1
10
972.690579
20
195.036317
11
972.911324
21
191.335380
0
LINE
8
Layer 1
10
972.911324
20
191.335380
11
973.287197
21
187.762349
0
LINE
8
Layer 1
10
973.287197
20
187.762349
11
973.829868
21
184.252522
0
LINE
8
Layer 1
10
973.829868
20
184.252522
11
974.551005
21
180.741201
0
LINE
8
Layer 1
10
974.551005
20
180.741201
11
975.462279
21
177.163683
0
LINE
8
Layer 1
10
975.462279
20
177.163683
11
977.901920
21
169.551260
0
LINE
8
Layer 1
10
977.901920
20
169.551260
11
979.919015
21
164.580598
0
LINE
8
Layer 1
10
979.919015
20
164.580598
11
982.454013
21
159.173257
0
LINE
8
Layer 1
10
982.454013
20
159.173257
11
984.859474
21
154.632868
0
LINE
8
Layer 1
10
984.859474
20
154.632868
11
985.811304
21
153.095165
0
LINE
8
Layer 1
10
985.811304
20
153.095165
11
986.487960
21
152.263060
0
LINE
8
Layer 1
10
986.487960
20
152.263060
11
987.256414
21
151.361909
0
LINE
8
Layer 1
10
987.256414
20
151.361909
11
987.576030
21
150.463450
0
LINE
8
Layer 1
10
987.576030
20
150.463450
11
988.128476
21
149.185982
0
LINE
8
Layer 1
10
988.128476
20
149.185982
11
989.456670
21
147.373630
0
LINE
8
Layer 1
10
989.456670
20
147.373630
11
991.214520
21
145.112730
0
LINE
8
Layer 1
10
991.214520
20
145.112730
11
992.799960
21
142.756820
0
LINE
8
Layer 1
10
992.799960
20
142.756820
11
993.830306
21
141.313396
0
LINE
8
Layer 1
10
993.830306
20
141.313396
11
995.337386
21
139.566210
0
LINE
8
Layer 1
10
995.337386
20
139.566210
11
999.440666
21
135.477325
0
LINE
8
Layer 1
10
999.440666
20
135.477325
11
1004.427644
21
131.123712
0
LINE
8
Layer 1
10
1004.427644
20
131.123712
11
1009.616160
21
127.138920
0
LINE
8
Layer 1
10
1009.616160
20
127.138920
11
1015.505055
21
123.357726
0
LINE
8
Layer 1
10
1015.505055
20
123.357726
11
1022.261523
21
119.610750
0
LINE
8
Layer 1
10
1022.261523
20
119.610750
11
1028.786483
21
116.468109
0
LINE
8
Layer 1
10
1028.786483
20
116.468109
11
1031.618687
21
115.301576
0
LINE
8
Layer 1
10
1031.618687
20
115.301576
11
1033.980860
21
114.499920
0
LINE
8
Layer 1
10
1033.980860
20
114.499920
11
1037.150798
21
113.510637
0
LINE
8
Layer 1
10
1037.150798
20
113.510637
11
1039.146460
21
112.741600
0
LINE
8
Layer 1
10
1039.146460
20
112.741600
11
1040.409298
21
112.293447
0
LINE
8
Layer 1
10
1040.409298
20
112.293447
11
1041.817260
21
112.075650
0
LINE
8
Layer 1
10
1041.817260
20
112.075650
11
1043.767310
21
111.776670
0
LINE
8
Layer 1
10
1043.767310
20
111.776670
11
1046.333260
21
111.132990
0
LINE
8
Layer 1
10
1046.333260
20
111.132990
11
1048.484669
21
110.731736
0
LINE
8
Layer 1
10
1048.484669
20
110.731736
11
1051.860510
21
110.484086
0
LINE
8
Layer 1
10
1051.860510
20
110.484086
11
1063.359560
21
110.403600
0
LINE
8
Layer 1
10
1063.359560
20
110.403600
11
1071.159752
21
110.540457
0
LINE
8
Layer 1
10
1071.159752
20
110.540457
11
1076.283148
21
110.824741
0
LINE
8
Layer 1
10
1076.283148
20
110.824741
11
1080.202849
21
111.395790
0
LINE
8
Layer 1
10
1080.202849
20
111.395790
11
1084.391960
21
112.392940
0
LINE
8
Layer 1
10
1084.391960
20
112.392940
11
1084.392000
21
112.392900
0
LINE
8
Layer 1
10
212.381000
20
341.161000
11
217.351170
21
341.794785
0
LINE
8
Layer 1
10
217.351170
20
341.794785
11
220.393360
21
342.395990
0
LINE
8
Layer 1
10
220.393360
20
342.395990
11
229.073400
21
345.212610
0
LINE
8
Layer 1
10
229.073400
20
345.212610
11
234.817271
21
347.314638
0
LINE
8
Layer 1
10
234.817271
20
347.314638
11
240.683682
21
349.889290
0
LINE
8
Layer 1
10
240.683682
20
349.889290
11
245.679978
21
352.465839
0
LINE
8
Layer 1
10
245.679978
20
352.465839
11
247.541627
21
353.607724
0
LINE
8
Layer 1
10
247.541627
20
353.607724
11
248.813500
21
354.573560
0
LINE
8
Layer 1
10
248.813500
20
354.573560
11
250.006777
21
355.466505
0
LINE
8
Layer 1
10
250.006777
20
355.466505
11
250.940060
21
355.837900
0
LINE
8
Layer 1
10
250.940060
20
355.837900
11
251.934075
21
356.320992
0
LINE
8
Layer 1
10
251.934075
20
356.320992
11
253.725321
21
357.637717
0
LINE
8
Layer 1
10
253.725321
20
357.637717
11
258.814511
21
361.976762
0
LINE
8
Layer 1
10
258.814511
20
361.976762
11
264.437651
21
367.264427
0
LINE
8
Layer 1
10
264.437651
20
367.264427
11
268.824760
21
371.910100
0
LINE
8
Layer 1
10
268.824760
20
371.910100
11
271.323063
21
374.999607
0
LINE
8
Layer 1
10
271.323063
20
374.999607
11
273.583891
21
378.040706
0
LINE
8
Layer 1
10
273.583891
20
378.040706
11
275.745646
21
381.228327
0
LINE
8
Layer 1
10
275.745646
20
381.228327
11
277.946730
21
384.757400
0
LINE
8
Layer 1
10
277.946730
20
384.757400
11
280.524167
21
389.200073
0
LINE
8
Layer 1
10
280.524167
20
389.200073
11
282.383975
21
392.991636
0
LINE
8
Layer 1
10
282.383975
20
392.991636
11
284.026666
21
397.287831
0
LINE
8
Layer 1
10
284.026666
20
397.287831
11
285.952750
21
403.244400
0
LINE
8
Layer 1
10
285.952750
20
403.244400
11
287.879830
21
408.919820
0
LINE
8
Layer 1
10
287.879830
20
408.919820
11
288.633057
21
411.757387
0
LINE
8
Layer 1
10
288.633057
20
411.757387
11
289.340497
21
416.359419
0
LINE
8
Layer 1
10
289.340497
20
416.359419
11
289.921829
21
422.082451
0
LINE
8
Layer 1
10
289.921829
20
422.082451
11
290.296730
21
428.283020
0
LINE
8
Layer 1
10
290.296730
20
428.283020
11
290.342237
21
431.817546
0
LINE
8
Layer 1
10
290.342237
20
431.817546
11
290.212710
21
435.499157
0
LINE
8
Layer 1
10
290.212710
20
435.499157
11
289.915520
21
439.275232
0
LINE
8
Layer 1
10
289.915520
20
439.275232
11
289.458036
21
443.093153
0
LINE
8
Layer 1
10
289.458036
20
443.093153
11
288.847628
21
446.900301
0
LINE
8
Layer 1
10
288.847628
20
446.900301
11
288.091664
21
450.644057
0
LINE
8
Layer 1
10
288.091664
20
450.644057
11
287.197515
21
454.271803
0
LINE
8
Layer 1
10
287.197515
20
454.271803
11
286.172550
21
457.730920
0
LINE
8
Layer 1
10
286.172550
20
457.730920
11
283.864429
21
463.635063
0
LINE
8
Layer 1
10
283.864429
20
463.635063
11
280.572810
21
470.711428
0
LINE
8
Layer 1
10
280.572810
20
470.711428
11
277.110011
21
477.314838
0
LINE
8
Layer 1
10
277.110011
20
477.314838
11
275.568269
21
479.925069
0
LINE
8
Layer 1
10
275.568269
20
479.925069
11
274.288350
21
481.800120
0
LINE
8
Layer 1
10
274.288350
20
481.800120
11
268.181773
21
489.323451
0
LINE
8
Layer 1
10
268.181773
20
489.323451
11
265.370821
21
492.478093
0
LINE
8
Layer 1
10
265.370821
20
492.478093
11
262.639787
21
495.309020
0
LINE
8
Layer 1
10
262.639787
20
495.309020
11
259.927443
21
497.876960
0
LINE
8
Layer 1
10
259.927443
20
497.876960
11
257.172558
21
500.242639
0
LINE
8
Layer 1
10
257.172558
20
500.242639
11
254.313903
21
502.466783
0
LINE
8
Layer 1
10
254.313903
20
502.466783
11
251.290250
21
504.610120
0
LINE
8
Layer 1
10
251.290250
20
504.610120
11
246.407943
21
507.530172
0
LINE
8
Layer 1
10
246.407943
20
507.530172
11
239.757966
21
511.108358
0
LINE
8
Layer 1
10
239.757966
20
511.108358
11
233.664581
21
514.139250
0
LINE
8
Layer 1
10
233.664581
20
514.139250
11
231.552942
21
515.072764
0
LINE
8
Layer 1
10
231.552942
20
515.072764
11
230.452050
21
515.417420
0
LINE
8
Layer 1
10
230.452050
20
515.417420
11
229.238685
21
515.684833
0
LINE
8
Layer 1
10
229.238685
20
515.684833
11
227.505120
21
516.327770
0
LINE
8
Layer 1
10
227.505120
20
516.327770
11
225.423463
21
517.034590
0
LINE
8
Layer 1
10
225.423463
20
517.034590
11
222.471710
21
517.773801
0
LINE
8
Layer 1
10
222.471710
20
517.773801
11
214.918784
21
519.195678
0
LINE
8
Layer 1
10
214.918784
20
519.195678
11
206.768075
21
520.285976
0
LINE
8
Layer 1
10
206.768075
20
520.285976
11
203.069095
21
520.610712
0
LINE
8
Layer 1
10
203.069095
20
520.610712
11
199.941320
21
520.737270
0
LINE
8
Layer 1
10
199.941320
20
520.737270
11
194.385586
21
520.361846
0
LINE
8
Layer 1
10
194.385586
20
520.361846
11
187.123292
21
519.382581
0
LINE
8
Layer 1
10
187.123292
20
519.382581
11
179.964563
21
518.085236
0
LINE
8
Layer 1
10
179.964563
20
518.085236
11
176.989698
21
517.406583
0
LINE
8
Layer 1
10
176.989698
20
517.406583
11
174.719520
21
516.755570
0
LINE
8
Layer 1
10
174.719520
20
516.755570
11
171.724305
21
515.810495
0
LINE
8
Layer 1
10
171.724305
20
515.810495
11
170.059890
21
515.417420
0
LINE
8
Layer 1
10
170.059890
20
515.417420
11
168.786494
21
515.031439
0
LINE
8
Layer 1
10
168.786494
20
515.031439
11
166.440075
21
513.992845
0
LINE
8
Layer 1
10
166.440075
20
513.992845
11
159.876899
21
510.673929
0
LINE
8
Layer 1
10
159.876899
20
510.673929
11
153.067818
21
506.892883
0
LINE
8
Layer 1
10
153.067818
20
506.892883
11
150.414019
21
505.276628
0
LINE
8
Layer 1
10
150.414019
20
505.276628
11
148.710290
21
504.081920
0
LINE
8
Layer 1
10
148.710290
20
504.081920
11
146.257284
21
502.184827
0
LINE
8
Layer 1
10
146.257284
20
502.184827
11
144.915410
21
501.395770
0
LINE
8
Layer 1
10
144.915410
20
501.395770
11
142.845124
21
499.804181
0
LINE
8
Layer 1
10
142.845124
20
499.804181
11
138.640870
21
495.977600
0
LINE
8
Layer 1
10
138.640870
20
495.977600
11
134.102258
21
491.346609
0
LINE
8
Layer 1
10
134.102258
20
491.346609
11
129.737331
21
486.286219
0
LINE
8
Layer 1
10
129.737331
20
486.286219
11
125.943224
21
481.286120
0
LINE
8
Layer 1
10
125.943224
20
481.286120
11
123.117070
21
476.836000
0
LINE
8
Layer 1
10
123.117070
20
476.836000
11
120.070965
21
471.081480
0
LINE
8
Layer 1
10
120.070965
20
471.081480
11
117.664262
21
466.045658
0
LINE
8
Layer 1
10
117.664262
20
466.045658
11
115.919199
21
461.778356
0
LINE
8
Layer 1
10
115.919199
20
461.778356
11
114.858010
21
458.329400
0
LINE
8
Layer 1
10
114.858010
20
458.329400
11
114.108709
21
455.597153
0
LINE
8
Layer 1
10
114.108709
20
455.597153
11
113.411090
21
453.716200
0
LINE
8
Layer 1
10
113.411090
20
453.716200
11
112.916488
21
452.521185
0
LINE
8
Layer 1
10
112.916488
20
452.521185
11
112.463874
21
450.952293
0
LINE
8
Layer 1
10
112.463874
20
450.952293
11
111.692592
21
446.870480
0
LINE
8
Layer 1
10
111.692592
20
446.870480
11
111.113204
21
441.825970
0
LINE
8
Layer 1
10
111.113204
20
441.825970
11
110.741671
21
436.173974
0
LINE
8
Layer 1
10
110.741671
20
436.173974
11
110.593954
21
430.269699
0
LINE
8
Layer 1
10
110.593954
20
430.269699
11
110.686012
21
424.468356
0
LINE
8
Layer 1
10
110.686012
20
424.468356
11
111.033808
21
419.125153
0
LINE
8
Layer 1
10
111.033808
20
419.125153
11
111.653300
21
414.595300
0
LINE
8
Layer 1
10
111.653300
20
414.595300
11
112.604807
21
410.327703
0
LINE
8
Layer 1
10
112.604807
20
410.327703
11
113.866607
21
405.778836
0
LINE
8
Layer 1
10
113.866607
20
405.778836
11
115.365322
21
401.137848
0
LINE
8
Layer 1
10
115.365322
20
401.137848
11
117.027570
21
396.593887
0
LINE
8
Layer 1
10
117.027570
20
396.593887
11
118.779972
21
392.336104
0
LINE
8
Layer 1
10
118.779972
20
392.336104
11
120.549147
21
388.553645
0
LINE
8
Layer 1
10
120.549147
20
388.553645
11
122.261717
21
385.435661
0
LINE
8
Layer 1
10
122.261717
20
385.435661
11
123.844300
21
383.171300
0
LINE
8
Layer 1
10
123.844300
20
383.171300
11
125.070472
21
381.469116
0
LINE
8
Layer 1
10
125.070472
20
381.469116
11
125.580470
21
380.274060
0
LINE
8
Layer 1
10
125.580470
20
380.274060
11
126.070804
21
379.224459
0
LINE
8
Layer 1
10
126.070804
20
379.224459
11
127.249690
21
377.871970
0
LINE
8
Layer 1
10
127.249690
20
377.871970
11
128.428606
21
376.520706
0
LINE
8
Layer 1
10
128.428606
20
376.520706
11
128.918940
21
375.474040
0
LINE
8
Layer 1
10
128.918940
20
375.474040
11
129.359991
21
374.565653
0
LINE
8
Layer 1
10
129.359991
20
374.565653
11
130.568034
21
373.010902
0
LINE
8
Layer 1
10
130.568034
20
373.010902
11
134.594440
21
368.662934
0
LINE
8
Layer 1
10
134.594440
20
368.662934
11
139.616846
21
363.831394
0
LINE
8
Layer 1
10
139.616846
20
363.831394
11
144.253940
21
359.917540
0
LINE
8
Layer 1
10
144.253940
20
359.917540
11
151.023081
21
355.118741
0
LINE
8
Layer 1
10
151.023081
20
355.118741
11
157.273649
21
351.234394
0
LINE
8
Layer 1
10
157.273649
20
351.234394
11
162.750612
21
348.410395
0
LINE
8
Layer 1
10
162.750612
20
348.410395
11
165.119295
21
347.441618
0
LINE
8
Layer 1
10
165.119295
20
347.441618
11
167.198940
21
346.792640
0
LINE
8
Layer 1
10
167.198940
20
346.792640
11
168.574024
21
346.300117
0
LINE
8
Layer 1
10
168.574024
20
346.300117
11
169.360290
21
345.748540
0
LINE
8
Layer 1
10
169.360290
20
345.748540
11
170.019557
21
345.329224
0
LINE
8
Layer 1
10
170.019557
20
345.329224
11
171.089240
21
345.154820
0
LINE
8
Layer 1
10
171.089240
20
345.154820
11
172.669200
21
344.880092
0
LINE
8
Layer 1
10
172.669200
20
344.880092
11
174.555220
21
344.219580
0
LINE
8
Layer 1
10
174.555220
20
344.219580
11
177.418787
21
343.327748
0
LINE
8
Layer 1
10
177.418787
20
343.327748
11
181.835646
21
342.321730
0
LINE
8
Layer 1
10
181.835646
20
342.321730
11
186.643692
21
341.439410
0
LINE
8
Layer 1
10
186.643692
20
341.439410
11
190.680820
21
340.918670
0
LINE
8
Layer 1
10
190.680820
20
340.918670
11
195.784900
21
340.666102
0
LINE
8
Layer 1
10
195.784900
20
340.666102
11
201.564927
21
340.627457
0
LINE
8
Layer 1
10
201.564927
20
340.627457
11
207.327926
21
340.794985
0
LINE
8
Layer 1
10
207.327926
20
340.794985
11
212.380920
21
341.160930
0
LINE
8
Layer 1
10
212.380920
20
341.160930
11
212.381000
21
341.161000
0
LINE
8
Layer 1
10
498.489000
20
341.143300
11
503.399277
21
341.843327
0
LINE
8
Layer 1
10
503.399277
20
341.843327
11
508.458635
21
342.831733
0
LINE
8
Layer 1
10
508.458635
20
342.831733
11
512.564826
21
343.865344
0
LINE
8
Layer 1
10
512.564826
20
343.865344
11
513.916030
21
344.323111
0
LINE
8
Layer 1
10
513.916030
20
344.323111
11
514.615600
21
344.700990
0
LINE
8
Layer 1
10
514.615600
20
344.700990
11
515.277948
21
345.022030
0
LINE
8
Layer 1
10
515.277948
20
345.022030
11
516.232000
21
345.155510
0
LINE
8
Layer 1
10
516.232000
20
345.155510
11
518.364019
21
345.743921
0
LINE
8
Layer 1
10
518.364019
20
345.743921
11
521.858390
21
347.158600
0
LINE
8
Layer 1
10
521.858390
20
347.158600
11
525.222880
21
348.573279
0
LINE
8
Layer 1
10
525.222880
20
348.573279
11
527.042700
21
349.161690
0
LINE
8
Layer 1
10
527.042700
20
349.161690
11
527.929571
21
349.504926
0
LINE
8
Layer 1
10
527.929571
20
349.504926
11
529.051080
21
350.330150
0
LINE
8
Layer 1
10
529.051080
20
350.330150
11
531.085883
21
351.743794
0
LINE
8
Layer 1
10
531.085883
20
351.743794
11
534.168540
21
353.501710
0
LINE
8
Layer 1
10
534.168540
20
353.501710
11
538.434859
21
355.940529
0
LINE
8
Layer 1
10
538.434859
20
355.940529
11
542.348764
21
358.699820
0
LINE
8
Layer 1
10
542.348764
20
358.699820
11
546.439681
21
362.193106
0
LINE
8
Layer 1
10
546.439681
20
362.193106
11
551.237040
21
366.833910
0
LINE
8
Layer 1
10
551.237040
20
366.833910
11
554.478374
21
370.257076
0
LINE
8
Layer 1
10
554.478374
20
370.257076
11
557.579983
21
373.858368
0
LINE
8
Layer 1
10
557.579983
20
373.858368
11
560.496025
21
377.570387
0
LINE
8
Layer 1
10
560.496025
20
377.570387
11
563.180656
21
381.325734
0
LINE
8
Layer 1
10
563.180656
20
381.325734
11
565.588036
21
385.057009
0
LINE
8
Layer 1
10
565.588036
20
385.057009
11
567.672321
21
388.696813
0
LINE
8
Layer 1
10
567.672321
20
388.696813
11
569.387670
21
392.177746
0
LINE
8
Layer 1
10
569.387670
20
392.177746
11
570.688240
21
395.432410
0
LINE
8
Layer 1
10
570.688240
20
395.432410
11
571.787919
21
398.271842
0
LINE
8
Layer 1
10
571.787919
20
398.271842
11
572.746590
21
400.222090
0
LINE
8
Layer 1
10
572.746590
20
400.222090
11
573.352748
21
401.664316
0
LINE
8
Layer 1
10
573.352748
20
401.664316
11
573.604860
21
403.282380
0
LINE
8
Layer 1
10
573.604860
20
403.282380
11
573.751964
21
404.660012
0
LINE
8
Layer 1
10
573.751964
20
404.660012
11
574.105640
21
405.524300
0
LINE
8
Layer 1
10
574.105640
20
405.524300
11
574.723992
21
407.073266
0
LINE
8
Layer 1
10
574.723992
20
407.073266
11
575.498695
21
410.330982
0
LINE
8
Layer 1
10
575.498695
20
410.330982
11
576.306908
21
414.705183
0
LINE
8
Layer 1
10
576.306908
20
414.705183
11
577.025790
21
419.603600
0
LINE
8
Layer 1
10
577.025790
20
419.603600
11
577.274928
21
422.542629
0
LINE
8
Layer 1
10
577.274928
20
422.542629
11
577.395995
21
426.223471
0
LINE
8
Layer 1
10
577.395995
20
426.223471
11
577.292219
21
434.745994
0
LINE
8
Layer 1
10
577.292219
20
434.745994
11
576.791069
21
443.041970
0
LINE
8
Layer 1
10
576.791069
20
443.041970
11
576.415417
21
446.439628
0
LINE
8
Layer 1
10
576.415417
20
446.439628
11
575.969150
21
448.982200
0
LINE
8
Layer 1
10
575.969150
20
448.982200
11
574.446117
21
454.957690
0
LINE
8
Layer 1
10
574.446117
20
454.957690
11
572.862455
21
459.941155
0
LINE
8
Layer 1
10
572.862455
20
459.941155
11
570.910978
21
464.786717
0
LINE
8
Layer 1
10
570.910978
20
464.786717
11
568.284500
21
470.348500
0
LINE
8
Layer 1
10
568.284500
20
470.348500
11
564.903953
21
476.824977
0
LINE
8
Layer 1
10
564.903953
20
476.824977
11
563.313216
21
479.484075
0
LINE
8
Layer 1
10
563.313216
20
479.484075
11
561.640496
21
481.963987
0
LINE
8
Layer 1
10
561.640496
20
481.963987
11
559.774540
21
484.419896
0
LINE
8
Layer 1
10
559.774540
20
484.419896
11
557.604092
21
487.006980
0
LINE
8
Layer 1
10
557.604092
20
487.006980
11
551.904700
21
493.195400
0
LINE
8
Layer 1
10
551.904700
20
493.195400
11
548.410297
21
496.714394
0
LINE
8
Layer 1
10
548.410297
20
496.714394
11
545.076836
21
499.723414
0
LINE
8
Layer 1
10
545.076836
20
499.723414
11
541.651907
21
502.436151
0
LINE
8
Layer 1
10
541.651907
20
502.436151
11
537.883100
21
505.066300
0
LINE
8
Layer 1
10
537.883100
20
505.066300
11
532.401813
21
508.565104
0
LINE
8
Layer 1
10
532.401813
20
508.565104
11
527.786134
21
511.244917
0
LINE
8
Layer 1
10
527.786134
20
511.244917
11
524.045838
21
513.100440
0
LINE
8
Layer 1
10
524.045838
20
513.100440
11
521.190700
21
514.126370
0
LINE
8
Layer 1
10
521.190700
20
514.126370
11
517.187566
21
515.348886
0
LINE
8
Layer 1
10
517.187566
20
515.348886
11
513.178350
21
516.857580
0
LINE
8
Layer 1
10
513.178350
20
516.857580
11
510.975518
21
517.559990
0
LINE
8
Layer 1
10
510.975518
20
517.559990
11
507.776177
21
518.266922
0
LINE
8
Layer 1
10
507.776177
20
518.266922
11
499.588969
21
519.542765
0
LINE
8
Layer 1
10
499.588969
20
519.542765
11
491.018726
21
520.381943
0
LINE
8
Layer 1
10
491.018726
20
520.381943
11
487.340592
21
520.543044
0
LINE
8
Layer 1
10
487.340592
20
520.543044
11
484.467450
21
520.481290
0
LINE
8
Layer 1
10
484.467450
20
520.481290
11
475.840133
21
519.524441
0
LINE
8
Layer 1
10
475.840133
20
519.524441
11
467.650037
21
518.115045
0
LINE
8
Layer 1
10
467.650037
20
518.115045
11
460.776848
21
516.433602
0
LINE
8
Layer 1
10
460.776848
20
516.433602
11
458.108995
21
515.547268
0
LINE
8
Layer 1
10
458.108995
20
515.547268
11
456.100250
21
514.660610
0
LINE
8
Layer 1
10
456.100250
20
514.660610
11
454.209212
21
513.780809
0
LINE
8
Layer 1
10
454.209212
20
513.780809
11
452.930460
21
513.414870
0
LINE
8
Layer 1
10
452.930460
20
513.414870
11
450.895199
21
512.782308
0
LINE
8
Layer 1
10
450.895199
20
512.782308
11
447.657544
21
511.306182
0
LINE
8
Layer 1
10
447.657544
20
511.306182
11
444.496522
21
509.618839
0
LINE
8
Layer 1
10
444.496522
20
509.618839
11
442.691160
21
508.352620
0
LINE
8
Layer 1
10
442.691160
20
508.352620
11
441.486844
21
507.367364
0
LINE
8
Layer 1
10
441.486844
20
507.367364
11
439.784940
21
506.436730
0
LINE
8
Layer 1
10
439.784940
20
506.436730
11
438.054268
21
505.576129
0
LINE
8
Layer 1
10
438.054268
20
505.576129
11
436.117364
21
504.244000
0
LINE
8
Layer 1
10
436.117364
20
504.244000
11
428.722940
21
497.934820
0
LINE
8
Layer 1
10
428.722940
20
497.934820
11
424.959546
21
494.505150
0
LINE
8
Layer 1
10
424.959546
20
494.505150
11
421.619620
21
491.195376
0
LINE
8
Layer 1
10
421.619620
20
491.195376
11
418.633119
21
487.913081
0
LINE
8
Layer 1
10
418.633119
20
487.913081
11
415.930002
21
484.565845
0
LINE
8
Layer 1
10
415.930002
20
484.565845
11
413.440228
21
481.061250
0
LINE
8
Layer 1
10
413.440228
20
481.061250
11
411.093754
21
477.306876
0
LINE
8
Layer 1
10
411.093754
20
477.306876
11
408.820539
21
473.210306
0
LINE
8
Layer 1
10
408.820539
20
473.210306
11
406.550540
21
468.679120
0
LINE
8
Layer 1
10
406.550540
20
468.679120
11
403.856019
21
462.943788
0
LINE
8
Layer 1
10
403.856019
20
462.943788
11
402.198036
21
459.033089
0
LINE
8
Layer 1
10
402.198036
20
459.033089
11
401.288705
21
456.189630
0
LINE
8
Layer 1
10
401.288705
20
456.189630
11
400.840140
21
453.656020
0
LINE
8
Layer 1
10
400.840140
20
453.656020
11
400.450359
21
451.564991
0
LINE
8
Layer 1
10
400.450359
20
451.564991
11
399.961000
21
450.288080
0
LINE
8
Layer 1
10
399.961000
20
450.288080
11
399.685792
21
449.413833
0
LINE
8
Layer 1
10
399.685792
20
449.413833
11
399.350607
21
447.548811
0
LINE
8
Layer 1
10
399.350607
20
447.548811
11
398.669790
21
441.941880
0
LINE
8
Layer 1
10
398.669790
20
441.941880
11
398.067229
21
436.285464
0
LINE
8
Layer 1
10
398.067229
20
436.285464
11
397.644960
21
433.427230
0
LINE
8
Layer 1
10
397.644960
20
433.427230
11
397.449453
21
431.369549
0
LINE
8
Layer 1
10
397.449453
20
431.369549
11
397.612771
21
427.844196
0
LINE
8
Layer 1
10
397.612771
20
427.844196
11
398.067261
21
423.310184
0
LINE
8
Layer 1
10
398.067261
20
423.310184
11
398.745270
21
418.226527
0
LINE
8
Layer 1
10
398.745270
20
418.226527
11
399.579146
21
413.052240
0
LINE
8
Layer 1
10
399.579146
20
413.052240
11
400.501237
21
408.246335
0
LINE
8
Layer 1
10
400.501237
20
408.246335
11
401.443889
21
404.267827
0
LINE
8
Layer 1
10
401.443889
20
404.267827
11
402.339450
21
401.575730
0
LINE
8
Layer 1
10
402.339450
20
401.575730
11
404.872030
21
395.232620
0
LINE
8
Layer 1
10
404.872030
20
395.232620
11
406.359812
21
391.644693
0
LINE
8
Layer 1
10
406.359812
20
391.644693
11
408.114507
21
388.071866
0
LINE
8
Layer 1
10
408.114507
20
388.071866
11
410.137794
21
384.511686
0
LINE
8
Layer 1
10
410.137794
20
384.511686
11
412.431354
21
380.961700
0
LINE
8
Layer 1
10
412.431354
20
380.961700
11
414.996867
21
377.419454
0
LINE
8
Layer 1
10
414.996867
20
377.419454
11
417.836014
21
373.882494
0
LINE
8
Layer 1
10
417.836014
20
373.882494
11
420.950475
21
370.348367
0
LINE
8
Layer 1
10
420.950475
20
370.348367
11
424.341930
21
366.814620
0
LINE
8
Layer 1
10
424.341930
20
366.814620
11
430.827125
21
360.747299
0
LINE
8
Layer 1
10
430.827125
20
360.747299
11
433.792127
21
358.239101
0
LINE
8
Layer 1
10
433.792127
20
358.239101
11
436.059430
21
356.531120
0
LINE
8
Layer 1
10
436.059430
20
356.531120
11
441.353870
21
353.378252
0
LINE
8
Layer 1
10
441.353870
20
353.378252
11
448.340249
21
349.625992
0
LINE
8
Layer 1
10
448.340249
20
349.625992
11
454.680043
21
346.484147
0
LINE
8
Layer 1
10
454.680043
20
346.484147
11
456.876683
21
345.520194
0
LINE
8
Layer 1
10
456.876683
20
345.520194
11
458.034730
21
345.162520
0
LINE
8
Layer 1
10
458.034730
20
345.162520
11
459.796612
21
344.844679
0
LINE
8
Layer 1
10
459.796612
20
344.844679
11
462.708620
21
344.091920
0
LINE
8
Layer 1
10
462.708620
20
344.091920
11
470.445790
21
342.042572
0
LINE
8
Layer 1
10
470.445790
20
342.042572
11
473.157432
21
341.579041
0
LINE
8
Layer 1
10
473.157432
20
341.579041
11
476.455020
21
341.204520
0
LINE
8
Layer 1
10
476.455020
20
341.204520
11
482.134452
21
340.763365
0
LINE
8
Layer 1
10
482.134452
20
340.763365
11
487.726476
21
340.606019
0
LINE
8
Layer 1
10
487.726476
20
340.606019
11
493.191272
21
340.732598
0
LINE
8
Layer 1
10
493.191272
20
340.732598
11
498.489020
21
341.143220
0
LINE
8
Layer 1
10
498.489020
20
341.143220
11
498.489000
21
341.143300
0
LINE
8
Layer 1
10
787.364000
20
341.188500
11
792.433826
21
341.872285
0
LINE
8
Layer 1
10
792.433826
20
341.872285
11
794.121086
21
342.224018
0
LINE
8
Layer 1
10
794.121086
20
342.224018
11
794.912980
21
342.523880
0
LINE
8
Layer 1
10
794.912980
20
342.523880
11
795.787061
21
342.967883
0
LINE
8
Layer 1
10
795.787061
20
342.967883
11
796.997810
21
343.152550
0
LINE
8
Layer 1
10
796.997810
20
343.152550
11
799.233151
21
343.523877
0
LINE
8
Layer 1
10
799.233151
20
343.523877
11
802.558788
21
344.527527
0
LINE
8
Layer 1
10
802.558788
20
344.527527
11
806.587224
21
345.998007
0
LINE
8
Layer 1
10
806.587224
20
345.998007
11
810.930963
21
347.769823
0
LINE
8
Layer 1
10
810.930963
20
347.769823
11
815.202507
21
349.677479
0
LINE
8
Layer 1
10
815.202507
20
349.677479
11
819.014361
21
351.555482
0
LINE
8
Layer 1
10
819.014361
20
351.555482
11
821.979027
21
353.238337
0
LINE
8
Layer 1
10
821.979027
20
353.238337
11
823.709010
21
354.560550
0
LINE
8
Layer 1
10
823.709010
20
354.560550
11
824.773076
21
355.463325
0
LINE
8
Layer 1
10
824.773076
20
355.463325
11
825.706830
21
355.838820
0
LINE
8
Layer 1
10
825.706830
20
355.838820
11
826.889122
21
356.394443
0
LINE
8
Layer 1
10
826.889122
20
356.394443
11
828.945006
21
357.908347
0
LINE
8
Layer 1
10
828.945006
20
357.908347
11
834.682234
21
362.893208
0
LINE
8
Layer 1
10
834.682234
20
362.893208
11
840.927885
21
368.957825
0
LINE
8
Layer 1
10
840.927885
20
368.957825
11
843.619297
21
371.821424
0
LINE
8
Layer 1
10
843.619297
20
371.821424
11
845.691330
21
374.266620
0
LINE
8
Layer 1
10
845.691330
20
374.266620
11
850.000084
21
380.255438
0
LINE
8
Layer 1
10
850.000084
20
380.255438
11
853.981923
21
386.528491
0
LINE
8
Layer 1
10
853.981923
20
386.528491
11
856.906565
21
391.858834
0
LINE
8
Layer 1
10
856.906565
20
391.858834
11
857.744224
21
393.787068
0
LINE
8
Layer 1
10
857.744224
20
393.787068
11
858.043730
21
395.019520
0
LINE
8
Layer 1
10
858.043730
20
395.019520
11
858.227256
21
395.995163
0
LINE
8
Layer 1
10
858.227256
20
395.995163
11
858.668490
21
397.078130
0
LINE
8
Layer 1
10
858.668490
20
397.078130
11
859.799719
21
399.337318
0
LINE
8
Layer 1
10
859.799719
20
399.337318
11
860.666894
21
401.438401
0
LINE
8
Layer 1
10
860.666894
20
401.438401
11
861.290580
21
403.437936
0
LINE
8
Layer 1
10
861.290580
20
403.437936
11
861.691340
21
405.392480
0
LINE
8
Layer 1
10
861.691340
20
405.392480
11
862.170173
21
407.804978
0
LINE
8
Layer 1
10
862.170173
20
407.804978
11
862.711390
21
409.588360
0
LINE
8
Layer 1
10
862.711390
20
409.588360
11
863.491270
21
412.342602
0
LINE
8
Layer 1
10
863.491270
20
412.342602
11
864.217337
21
416.649461
0
LINE
8
Layer 1
10
864.217337
20
416.649461
11
864.806196
21
421.902620
0
LINE
8
Layer 1
10
864.806196
20
421.902620
11
865.174450
21
427.495760
0
LINE
8
Layer 1
10
865.174450
20
427.495760
11
865.218322
21
432.179234
0
LINE
8
Layer 1
10
865.218322
20
432.179234
11
864.982392
21
437.024401
0
LINE
8
Layer 1
10
864.982392
20
437.024401
11
864.482909
21
441.940053
0
LINE
8
Layer 1
10
864.482909
20
441.940053
11
863.736128
21
446.834985
0
LINE
8
Layer 1
10
863.736128
20
446.834985
11
862.758298
21
451.617989
0
LINE
8
Layer 1
10
862.758298
20
451.617989
11
861.565672
21
456.197857
0
LINE
8
Layer 1
10
861.565672
20
456.197857
11
860.174502
21
460.483383
0
LINE
8
Layer 1
10
860.174502
20
460.483383
11
858.601040
21
464.383360
0
LINE
8
Layer 1
10
858.601040
20
464.383360
11
857.735866
21
466.606935
0
LINE
8
Layer 1
10
857.735866
20
466.606935
11
857.376020
21
468.140870
0
LINE
8
Layer 1
10
857.376020
20
468.140870
11
857.059823
21
469.139798
0
LINE
8
Layer 1
10
857.059823
20
469.139798
11
856.299640
21
470.077060
0
LINE
8
Layer 1
10
856.299640
20
470.077060
11
855.061454
21
471.695419
0
LINE
8
Layer 1
10
855.061454
20
471.695419
11
853.596130
21
474.331910
0
LINE
8
Layer 1
10
853.596130
20
474.331910
11
852.294273
21
476.775080
0
LINE
8
Layer 1
10
852.294273
20
476.775080
11
850.661097
21
479.441552
0
LINE
8
Layer 1
10
850.661097
20
479.441552
11
846.651895
21
485.115428
0
LINE
8
Layer 1
10
846.651895
20
485.115428
11
842.070736
21
490.695595
0
LINE
8
Layer 1
10
842.070736
20
490.695595
11
839.722613
21
493.244930
0
LINE
8
Layer 1
10
839.722613
20
493.244930
11
837.419830
21
495.524110
0
LINE
8
Layer 1
10
837.419830
20
495.524110
11
833.527260
21
498.920699
0
LINE
8
Layer 1
10
833.527260
20
498.920699
11
828.954979
21
502.592800
0
LINE
8
Layer 1
10
828.954979
20
502.592800
11
825.000523
21
505.534056
0
LINE
8
Layer 1
10
825.000523
20
505.534056
11
823.660460
21
506.416131
0
LINE
8
Layer 1
10
823.660460
20
506.416131
11
822.961430
21
506.738110
0
LINE
8
Layer 1
10
822.961430
20
506.738110
11
822.047308
21
507.171164
0
LINE
8
Layer 1
10
822.047308
20
507.171164
11
820.457840
21
508.212340
0
LINE
8
Layer 1
10
820.457840
20
508.212340
11
818.439489
21
509.522199
0
LINE
8
Layer 1
10
818.439489
20
509.522199
11
816.228443
21
510.773203
0
LINE
8
Layer 1
10
816.228443
20
510.773203
11
814.305865
21
511.710612
0
LINE
8
Layer 1
10
814.305865
20
511.710612
11
813.152920
21
512.079690
0
LINE
8
Layer 1
10
813.152920
20
512.079690
11
811.549421
21
512.646441
0
LINE
8
Layer 1
10
811.549421
20
512.646441
11
808.453340
21
514.009070
0
LINE
8
Layer 1
10
808.453340
20
514.009070
11
804.731420
21
515.575430
0
LINE
8
Layer 1
10
804.731420
20
515.575430
11
801.623450
21
516.632000
0
LINE
8
Layer 1
10
801.623450
20
516.632000
11
795.155369
21
518.208886
0
LINE
8
Layer 1
10
795.155369
20
518.208886
11
789.314947
21
519.391204
0
LINE
8
Layer 1
10
789.314947
20
519.391204
11
783.919476
21
520.187332
0
LINE
8
Layer 1
10
783.919476
20
520.187332
11
778.786250
21
520.605650
0
LINE
8
Layer 1
10
778.786250
20
520.605650
11
773.732561
21
520.654537
0
LINE
8
Layer 1
10
773.732561
20
520.654537
11
768.575703
21
520.342371
0
LINE
8
Layer 1
10
768.575703
20
520.342371
11
763.132968
21
519.677532
0
LINE
8
Layer 1
10
763.132968
20
519.677532
11
757.221650
21
518.668400
0
LINE
8
Layer 1
10
757.221650
20
518.668400
11
753.265397
21
517.768789
0
LINE
8
Layer 1
10
753.265397
20
517.768789
11
749.005904
21
516.540495
0
LINE
8
Layer 1
10
749.005904
20
516.540495
11
744.619532
21
515.055574
0
LINE
8
Layer 1
10
744.619532
20
515.055574
11
740.282643
21
513.386081
0
LINE
8
Layer 1
10
740.282643
20
513.386081
11
736.171598
21
511.604072
0
LINE
8
Layer 1
10
736.171598
20
511.604072
11
732.462760
21
509.781602
0
LINE
8
Layer 1
10
732.462760
20
509.781602
11
729.332490
21
507.990726
0
LINE
8
Layer 1
10
729.332490
20
507.990726
11
726.957150
21
506.303500
0
LINE
8
Layer 1
10
726.957150
20
506.303500
11
725.417909
21
505.195778
0
LINE
8
Layer 1
10
725.417909
20
505.195778
11
724.367510
21
504.735050
0
LINE
8
Layer 1
10
724.367510
20
504.735050
11
723.161254
21
504.137311
0
LINE
8
Layer 1
10
723.161254
20
504.137311
11
721.247230
21
502.700180
0
LINE
8
Layer 1
10
721.247230
20
502.700180
11
714.322130
21
496.982950
0
LINE
8
Layer 1
10
714.322130
20
496.982950
11
711.139111
21
494.207876
0
LINE
8
Layer 1
10
711.139111
20
494.207876
11
710.170825
21
493.227955
0
LINE
8
Layer 1
10
710.170825
20
493.227955
11
709.815200
21
492.706850
0
LINE
8
Layer 1
10
709.815200
20
492.706850
11
709.167606
21
491.640640
0
LINE
8
Layer 1
10
709.167606
20
491.640640
11
707.610660
21
489.910950
0
LINE
8
Layer 1
10
707.610660
20
489.910950
11
705.740544
21
487.815838
0
LINE
8
Layer 1
10
705.740544
20
487.815838
11
703.436200
21
484.930583
0
LINE
8
Layer 1
10
703.436200
20
484.930583
11
701.182894
21
481.886511
0
LINE
8
Layer 1
10
701.182894
20
481.886511
11
699.465890
21
479.314950
0
LINE
8
Layer 1
10
699.465890
20
479.314950
11
697.181844
21
475.145005
0
LINE
8
Layer 1
10
697.181844
20
475.145005
11
694.408418
21
469.603794
0
LINE
8
Layer 1
10
694.408418
20
469.603794
11
692.000927
21
464.455985
0
LINE
8
Layer 1
10
692.000927
20
464.455985
11
690.814690
21
461.466250
0
LINE
8
Layer 1
10
690.814690
20
461.466250
11
690.304920
21
459.857643
0
LINE
8
Layer 1
10
690.304920
20
459.857643
11
689.732960
21
458.966110
0
LINE
8
Layer 1
10
689.732960
20
458.966110
11
689.296440
21
458.267378
0
LINE
8
Layer 1
10
689.296440
20
458.267378
11
689.112460
21
457.122290
0
LINE
8
Layer 1
10
689.112460
20
457.122290
11
688.817428
21
455.527304
0
LINE
8
Layer 1
10
688.817428
20
455.527304
11
688.110930
21
453.746880
0
LINE
8
Layer 1
10
688.110930
20
453.746880
11
687.402628
21
451.879225
0
LINE
8
Layer 1
10
687.402628
20
451.879225
11
687.100360
21
450.074540
0
LINE
8
Layer 1
10
687.100360
20
450.074540
11
686.807294
21
447.262573
0
LINE
8
Layer 1
10
686.807294
20
447.262573
11
686.122120
21
442.973150
0
LINE
8
Layer 1
10
686.122120
20
442.973150
11
685.541978
21
438.593763
0
LINE
8
Layer 1
10
685.541978
20
438.593763
11
685.266409
21
433.724217
0
LINE
8
Layer 1
10
685.266409
20
433.724217
11
685.282039
21
428.532272
0
LINE
8
Layer 1
10
685.282039
20
428.532272
11
685.575494
21
423.185688
0
LINE
8
Layer 1
10
685.575494
20
423.185688
11
686.133400
21
417.852223
0
LINE
8
Layer 1
10
686.133400
20
417.852223
11
686.942384
21
412.699639
0
LINE
8
Layer 1
10
686.942384
20
412.699639
11
687.989072
21
407.895695
0
LINE
8
Layer 1
10
687.989072
20
407.895695
11
689.260090
21
403.608150
0
LINE
8
Layer 1
10
689.260090
20
403.608150
11
691.830050
21
396.234410
0
LINE
8
Layer 1
10
691.830050
20
396.234410
11
693.149351
21
392.983817
0
LINE
8
Layer 1
10
693.149351
20
392.983817
11
694.935541
21
389.268464
0
LINE
8
Layer 1
10
694.935541
20
389.268464
11
696.919636
21
385.614158
0
LINE
8
Layer 1
10
696.919636
20
385.614158
11
698.832650
21
382.546710
0
LINE
8
Layer 1
10
698.832650
20
382.546710
11
704.326965
21
375.030358
0
LINE
8
Layer 1
10
704.326965
20
375.030358
11
709.481350
21
368.647510
0
LINE
8
Layer 1
10
709.481350
20
368.647510
11
713.305062
21
364.984460
0
LINE
8
Layer 1
10
713.305062
20
364.984460
11
718.890683
21
360.283110
0
LINE
8
Layer 1
10
718.890683
20
360.283110
11
724.519537
21
355.930960
0
LINE
8
Layer 1
10
724.519537
20
355.930960
11
726.813091
21
354.319429
0
LINE
8
Layer 1
10
726.813091
20
354.319429
11
728.472950
21
353.315510
0
LINE
8
Layer 1
10
728.472950
20
353.315510
11
733.518460
21
350.455920
0
LINE
8
Layer 1
10
733.518460
20
350.455920
11
736.189261
21
349.020566
0
LINE
8
Layer 1
10
736.189261
20
349.020566
11
738.860040
21
347.900550
0
LINE
8
Layer 1
10
738.860040
20
347.900550
11
743.533900
21
346.190270
0
LINE
8
Layer 1
10
743.533900
20
346.190270
11
748.238940
21
344.483423
0
LINE
8
Layer 1
10
748.238940
20
344.483423
11
753.204095
21
343.081157
0
LINE
8
Layer 1
10
753.204095
20
343.081157
11
758.409844
21
341.985700
0
LINE
8
Layer 1
10
758.409844
20
341.985700
11
763.836663
21
341.199281
0
LINE
8
Layer 1
10
763.836663
20
341.199281
11
769.465030
21
340.724128
0
LINE
8
Layer 1
10
769.465030
20
340.724128
11
775.275423
21
340.562467
0
LINE
8
Layer 1
10
775.275423
20
340.562467
11
781.248321
21
340.716529
0
LINE
8
Layer 1
10
781.248321
20
340.716529
11
787.364200
21
341.188540
0
LINE
8
Layer 1
10
787.364200
20
341.188540
11
787.364000
21
341.188500
0
LINE
8
Layer 1
10
1076.047000
20
341.470030
11
1081.742981
21
342.442710
0
LINE
8
Layer 1
10
1081.742981
20
342.442710
11
1085.856800
21
343.358836
0
LINE
8
Layer 1
10
1085.856800
20
343.358836
11
1089.989969
21
344.646334
0
LINE
8
Layer 1
10
1089.989969
20
344.646334
11
1095.744000
21
346.733130
0
LINE
8
Layer 1
10
1095.744000
20
346.733130
11
1098.523937
21
347.850684
0
LINE
8
Layer 1
10
1098.523937
20
347.850684
11
1100.050700
21
348.627550
0
LINE
8
Layer 1
10
1100.050700
20
348.627550
11
1100.827700
21
349.004879
0
LINE
8
Layer 1
10
1100.827700
20
349.004879
11
1101.805100
21
349.161820
0
LINE
8
Layer 1
10
1101.805100
20
349.161820
11
1102.840300
21
349.456030
0
LINE
8
Layer 1
10
1102.840300
20
349.456030
11
1103.756400
21
350.163370
0
LINE
8
Layer 1
10
1103.756400
20
350.163370
11
1104.687713
21
350.870709
0
LINE
8
Layer 1
10
1104.687713
20
350.870709
11
1105.759500
21
351.164910
0
LINE
8
Layer 1
10
1105.759500
20
351.164910
11
1106.844587
21
351.475139
0
LINE
8
Layer 1
10
1106.844587
20
351.475139
11
1107.807800
21
352.221020
0
LINE
8
Layer 1
10
1107.807800
20
352.221020
11
1109.053237
21
353.294110
0
LINE
8
Layer 1
10
1109.053237
20
353.294110
11
1110.816700
21
354.391020
0
LINE
8
Layer 1
10
1110.816700
20
354.391020
11
1113.489901
21
356.039786
0
LINE
8
Layer 1
10
1113.489901
20
356.039786
11
1116.622181
21
358.388304
0
LINE
8
Layer 1
10
1116.622181
20
358.388304
11
1120.059271
21
361.288865
0
LINE
8
Layer 1
10
1120.059271
20
361.288865
11
1123.646900
21
364.593761
0
LINE
8
Layer 1
10
1123.646900
20
364.593761
11
1127.230798
21
368.155283
0
LINE
8
Layer 1
10
1127.230798
20
368.155283
11
1130.656694
21
371.825723
0
LINE
8
Layer 1
10
1130.656694
20
371.825723
11
1133.770318
21
375.457371
0
LINE
8
Layer 1
10
1133.770318
20
375.457371
11
1136.417400
21
378.902520
0
LINE
8
Layer 1
10
1136.417400
20
378.902520
11
1139.638837
21
383.793493
0
LINE
8
Layer 1
10
1139.638837
20
383.793493
11
1142.708775
21
389.108310
0
LINE
8
Layer 1
10
1142.708775
20
389.108310
11
1145.161350
21
393.987032
0
LINE
8
Layer 1
10
1145.161350
20
393.987032
11
1146.010545
21
395.994126
0
LINE
8
Layer 1
10
1146.010545
20
395.994126
11
1146.530700
21
397.569720
0
LINE
8
Layer 1
10
1146.530700
20
397.569720
11
1147.667675
21
401.314580
0
LINE
8
Layer 1
10
1147.667675
20
401.314580
11
1149.220600
21
405.582070
0
LINE
8
Layer 1
10
1149.220600
20
405.582070
11
1149.864105
21
407.541106
0
LINE
8
Layer 1
10
1149.864105
20
407.541106
11
1150.482536
21
410.055807
0
LINE
8
Layer 1
10
1150.482536
20
410.055807
11
1151.577812
21
416.286052
0
LINE
8
Layer 1
10
1151.577812
20
416.286052
11
1152.373708
21
423.340507
0
LINE
8
Layer 1
10
1152.373708
20
423.340507
11
1152.737500
21
430.286870
0
LINE
8
Layer 1
10
1152.737500
20
430.286870
11
1152.653741
21
434.566150
0
LINE
8
Layer 1
10
1152.653741
20
434.566150
11
1152.289186
21
439.123170
0
LINE
8
Layer 1
10
1152.289186
20
439.123170
11
1151.667528
21
443.841271
0
LINE
8
Layer 1
10
1151.667528
20
443.841271
11
1150.812462
21
448.603795
0
LINE
8
Layer 1
10
1150.812462
20
448.603795
11
1149.747683
21
453.294085
0
LINE
8
Layer 1
10
1149.747683
20
453.294085
11
1148.496883
21
457.795482
0
LINE
8
Layer 1
10
1148.496883
20
457.795482
11
1147.083757
21
461.991330
0
LINE
8
Layer 1
10
1147.083757
20
461.991330
11
1145.532000
21
465.764970
0
LINE
8
Layer 1
10
1145.532000
20
465.764970
11
1144.321625
21
468.614826
0
LINE
8
Layer 1
10
1144.321625
20
468.614826
11
1143.818200
21
470.209820
0
LINE
8
Layer 1
10
1143.818200
20
470.209820
11
1143.545938
21
471.014801
0
LINE
8
Layer 1
10
1143.545938
20
471.014801
11
1142.891400
21
471.965290
0
LINE
8
Layer 1
10
1142.891400
20
471.965290
11
1141.703062
21
473.741145
0
LINE
8
Layer 1
10
1141.703062
20
473.741145
11
1140.147600
21
476.530490
0
LINE
8
Layer 1
10
1140.147600
20
476.530490
11
1138.687438
21
479.119579
0
LINE
8
Layer 1
10
1138.687438
20
479.119579
11
1137.728200
21
480.413950
0
LINE
8
Layer 1
10
1137.728200
20
480.413950
11
1136.643100
21
481.693710
0
LINE
8
Layer 1
10
1136.643100
20
481.693710
11
1134.880300
21
484.247540
0
LINE
8
Layer 1
10
1134.880300
20
484.247540
11
1133.279893
21
486.429502
0
LINE
8
Layer 1
10
1133.279893
20
486.429502
11
1131.101325
21
488.987545
0
LINE
8
Layer 1
10
1131.101325
20
488.987545
11
1125.581525
21
494.679900
0
LINE
8
Layer 1
10
1125.581525
20
494.679900
11
1119.464538
21
500.220650
0
LINE
8
Layer 1
10
1119.464538
20
500.220650
11
1116.539485
21
502.589187
0
LINE
8
Layer 1
10
1116.539485
20
502.589187
11
1113.894000
21
504.505840
0
LINE
8
Layer 1
10
1113.894000
20
504.505840
11
1108.471445
21
507.911810
0
LINE
8
Layer 1
10
1108.471445
20
507.911810
11
1103.006563
21
510.991665
0
LINE
8
Layer 1
10
1103.006563
20
510.991665
11
1098.482273
21
513.222812
0
LINE
8
Layer 1
10
1098.482273
20
513.222812
11
1096.880015
21
513.856811
0
LINE
8
Layer 1
10
1096.880015
20
513.856811
11
1095.881500
21
514.082660
0
LINE
8
Layer 1
10
1095.881500
20
514.082660
11
1094.640850
21
514.370630
0
LINE
8
Layer 1
10
1094.640850
20
514.370630
11
1093.367800
21
515.062970
0
LINE
8
Layer 1
10
1093.367800
20
515.062970
11
1092.033525
21
515.761551
0
LINE
8
Layer 1
10
1092.033525
20
515.761551
11
1090.645700
21
516.064530
0
LINE
8
Layer 1
10
1090.645700
20
516.064530
11
1089.076800
21
516.372861
0
LINE
8
Layer 1
10
1089.076800
20
516.372861
11
1087.307200
21
517.083200
0
LINE
8
Layer 1
10
1087.307200
20
517.083200
11
1085.232600
21
517.788828
0
LINE
8
Layer 1
10
1085.232600
20
517.788828
11
1082.930300
21
518.084730
0
LINE
8
Layer 1
10
1082.930300
20
518.084730
11
1081.088850
21
518.250888
0
LINE
8
Layer 1
10
1081.088850
20
518.250888
11
1080.450097
21
518.428654
0
LINE
8
Layer 1
10
1080.450097
20
518.428654
11
1080.122200
21
518.644940
0
LINE
8
Layer 1
10
1080.122200
20
518.644940
11
1079.222892
21
518.930903
0
LINE
8
Layer 1
10
1079.222892
20
518.930903
11
1077.028438
21
519.298435
0
LINE
8
Layer 1
10
1077.028438
20
519.298435
11
1070.073000
21
520.088700
0
LINE
8
Layer 1
10
1070.073000
20
520.088700
11
1065.011955
21
520.493143
0
LINE
8
Layer 1
10
1065.011955
20
520.493143
11
1061.133313
21
520.637665
0
LINE
8
Layer 1
10
1061.133313
20
520.637665
11
1057.836164
21
520.524930
0
LINE
8
Layer 1
10
1057.836164
20
520.524930
11
1054.519600
21
520.157600
0
LINE
8
Layer 1
10
1054.519600
20
520.157600
11
1042.620063
21
518.246625
0
LINE
8
Layer 1
10
1042.620063
20
518.246625
11
1038.551336
21
517.418017
0
LINE
8
Layer 1
10
1038.551336
20
517.418017
11
1036.659100
21
516.845080
0
LINE
8
Layer 1
10
1036.659100
20
516.845080
11
1034.712188
21
516.035015
0
LINE
8
Layer 1
10
1034.712188
20
516.035015
11
1030.977500
21
514.751400
0
LINE
8
Layer 1
10
1030.977500
20
514.751400
11
1027.131163
21
513.354238
0
LINE
8
Layer 1
10
1027.131163
20
513.354238
11
1024.915700
21
512.271220
0
LINE
8
Layer 1
10
1024.915700
20
512.271220
11
1023.882638
21
511.664364
0
LINE
8
Layer 1
10
1023.882638
20
511.664364
11
1022.879200
21
511.411950
0
LINE
8
Layer 1
10
1022.879200
20
511.411950
11
1021.966563
21
511.193098
0
LINE
8
Layer 1
10
1021.966563
20
511.193098
11
1021.151800
21
510.666910
0
LINE
8
Layer 1
10
1021.151800
20
510.666910
11
1018.951425
21
509.088963
0
LINE
8
Layer 1
10
1018.951425
20
509.088963
11
1015.233500
21
507.128350
0
LINE
8
Layer 1
10
1015.233500
20
507.128350
11
1013.518275
21
506.118770
0
LINE
8
Layer 1
10
1013.518275
20
506.118770
11
1012.282000
21
505.068840
0
LINE
8
Layer 1
10
1012.282000
20
505.068840
11
1011.045725
21
504.041480
0
LINE
8
Layer 1
10
1011.045725
20
504.041480
11
1009.330500
21
503.086240
0
LINE
8
Layer 1
10
1009.330500
20
503.086240
11
1007.857759
21
502.162248
0
LINE
8
Layer 1
10
1007.857759
20
502.162248
11
1005.788281
21
500.484893
0
LINE
8
Layer 1
10
1005.788281
20
500.484893
11
1000.524475
21
495.535343
0
LINE
8
Layer 1
10
1000.524475
20
495.535343
11
994.869806
21
489.568091
0
LINE
8
Layer 1
10
994.869806
20
489.568091
11
992.311750
21
486.618609
0
LINE
8
Layer 1
10
992.311750
20
486.618609
11
990.155000
21
483.913640
0
LINE
8
Layer 1
10
990.155000
20
483.913640
11
988.251890
21
481.211408
0
LINE
8
Layer 1
10
988.251890
20
481.211408
11
986.281896
21
478.106177
0
LINE
8
Layer 1
10
986.281896
20
478.106177
11
982.437671
21
471.257143
0
LINE
8
Layer 1
10
982.437671
20
471.257143
11
979.215161
21
464.507382
0
LINE
8
Layer 1
10
979.215161
20
464.507382
11
978.022310
21
461.526243
0
LINE
8
Layer 1
10
978.022310
20
461.526243
11
977.207200
21
458.997740
0
LINE
8
Layer 1
10
977.207200
20
458.997740
11
975.164990
21
451.653070
0
LINE
8
Layer 1
10
975.164990
20
451.653070
11
974.226315
21
447.871794
0
LINE
8
Layer 1
10
974.226315
20
447.871794
11
973.488153
21
443.712267
0
LINE
8
Layer 1
10
973.488153
20
443.712267
11
972.955295
21
439.277832
0
LINE
8
Layer 1
10
972.955295
20
439.277832
11
972.632535
21
434.671829
0
LINE
8
Layer 1
10
972.632535
20
434.671829
11
972.524667
21
429.997600
0
LINE
8
Layer 1
10
972.524667
20
429.997600
11
972.636485
21
425.358486
0
LINE
8
Layer 1
10
972.636485
20
425.358486
11
972.972781
21
420.857829
0
LINE
8
Layer 1
10
972.972781
20
420.857829
11
973.538350
21
416.598970
0
LINE
8
Layer 1
10
973.538350
20
416.598970
11
974.574021
21
411.373112
0
LINE
8
Layer 1
10
974.574021
20
411.373112
11
975.910941
21
405.872674
0
LINE
8
Layer 1
10
975.910941
20
405.872674
11
977.228731
21
401.311909
0
LINE
8
Layer 1
10
977.228731
20
401.311909
11
977.780333
21
399.763358
0
LINE
8
Layer 1
10
977.780333
20
399.763358
11
978.207010
21
398.905070
0
LINE
8
Layer 1
10
978.207010
20
398.905070
11
978.910059
21
397.314255
0
LINE
8
Layer 1
10
978.910059
20
397.314255
11
979.889130
21
394.427140
0
LINE
8
Layer 1
10
979.889130
20
394.427140
11
981.087525
21
391.403043
0
LINE
8
Layer 1
10
981.087525
20
391.403043
11
981.738554
21
390.223850
0
LINE
8
Layer 1
10
981.738554
20
390.223850
11
982.317870
21
389.482870
0
LINE
8
Layer 1
10
982.317870
20
389.482870
11
983.202889
21
388.350463
0
LINE
8
Layer 1
10
983.202889
20
388.350463
11
983.571000
21
387.220380
0
LINE
8
Layer 1
10
983.571000
20
387.220380
11
983.676373
21
386.686881
0
LINE
8
Layer 1
10
983.676373
20
386.686881
11
983.963278
21
386.068438
0
LINE
8
Layer 1
10
983.963278
20
386.068438
11
984.906400
21
384.883450
0
LINE
8
Layer 1
10
984.906400
20
384.883450
11
985.849523
21
383.772953
0
LINE
8
Layer 1
10
985.849523
20
383.772953
11
986.241800
21
382.800110
0
LINE
8
Layer 1
10
986.241800
20
382.800110
11
986.830200
21
381.512094
0
LINE
8
Layer 1
10
986.830200
20
381.512094
11
988.244890
21
379.643870
0
LINE
8
Layer 1
10
988.244890
20
379.643870
11
989.659573
21
377.896053
0
LINE
8
Layer 1
10
989.659573
20
377.896053
11
990.247980
21
376.897470
0
LINE
8
Layer 1
10
990.247980
20
376.897470
11
990.721927
21
376.095789
0
LINE
8
Layer 1
10
990.721927
20
376.095789
11
992.005030
21
374.536906
0
LINE
8
Layer 1
10
992.005030
20
374.536906
11
996.166280
21
370.016694
0
LINE
8
Layer 1
10
996.166280
20
370.016694
11
1001.066880
21
365.075145
0
LINE
8
Layer 1
10
1001.066880
20
365.075145
11
1005.041980
21
361.450570
0
LINE
8
Layer 1
10
1005.041980
20
361.450570
11
1011.197680
21
356.411740
0
LINE
8
Layer 1
10
1011.197680
20
356.411740
11
1012.798745
21
355.268001
0
LINE
8
Layer 1
10
1012.798745
20
355.268001
11
1015.179732
21
353.821753
0
LINE
8
Layer 1
10
1015.179732
20
353.821753
11
1021.342718
21
350.499156
0
LINE
8
Layer 1
10
1021.342718
20
350.499156
11
1027.809135
21
347.398801
0
LINE
8
Layer 1
10
1027.809135
20
347.398801
11
1030.569410
21
346.230356
0
LINE
8
Layer 1
10
1030.569410
20
346.230356
11
1032.701480
21
345.475540
0
LINE
8
Layer 1
10
1032.701480
20
345.475540
11
1037.988280
21
343.818640
0
LINE
8
Layer 1
10
1037.988280
20
343.818640
11
1041.455709
21
342.780940
0
LINE
8
Layer 1
10
1041.455709
20
342.780940
11
1045.728849
21
341.928864
0
LINE
8
Layer 1
10
1045.728849
20
341.928864
11
1050.589117
21
341.275902
0
LINE
8
Layer 1
10
1050.589117
20
341.275902
11
1055.817930
21
340.835543
0
LINE
8
Layer 1
10
1055.817930
20
340.835543
11
1061.196706
21
340.621276
0
LINE
8
Layer 1
10
1061.196706
20
340.621276
11
1066.506861
21
340.646590
0
LINE
8
Layer 1
10
1066.506861
20
340.646590
11
1071.529814
21
340.924975
0
LINE
8
Layer 1
10
1071.529814
20
340.924975
11
1076.046980
21
341.469920
0
LINE
8
Layer 1
10
1076.046980
20
341.469920
11
1076.047000
21
341.470030
0
LINE
8
Layer 1
10
213.382000
20
571.848000
11
217.121006
21
572.591790
0
LINE
8
Layer 1
10
217.121006
20
572.591790
11
221.350694
21
573.625785
0
LINE
8
Layer 1
10
221.350694
20
573.625785
11
230.238809
21
576.227953
0
LINE
8
Layer 1
10
230.238809
20
576.227953
11
237.959719
21
578.981639
0
LINE
8
Layer 1
10
237.959719
20
578.981639
11
240.730402
21
580.205032
0
LINE
8
Layer 1
10
240.730402
20
580.205032
11
242.426800
21
581.213980
0
LINE
8
Layer 1
10
242.426800
20
581.213980
11
243.549570
21
581.916568
0
LINE
8
Layer 1
10
243.549570
20
581.916568
11
244.842590
21
582.459870
0
LINE
8
Layer 1
10
244.842590
20
582.459870
11
246.191889
21
583.150745
0
LINE
8
Layer 1
10
246.191889
20
583.150745
11
247.449950
21
584.208100
0
LINE
8
Layer 1
10
247.449950
20
584.208100
11
248.525964
21
585.139175
0
LINE
8
Layer 1
10
248.525964
20
585.139175
11
249.437600
21
585.526440
0
LINE
8
Layer 1
10
249.437600
20
585.526440
11
250.352193
21
585.916958
0
LINE
8
Layer 1
10
250.352193
20
585.916958
11
251.435310
21
586.855860
0
LINE
8
Layer 1
10
251.435310
20
586.855860
11
253.104044
21
588.274760
0
LINE
8
Layer 1
10
253.104044
20
588.274760
11
255.426620
21
589.819300
0
LINE
8
Layer 1
10
255.426620
20
589.819300
11
257.181533
21
591.066021
0
LINE
8
Layer 1
10
257.181533
20
591.066021
11
259.376133
21
592.963549
0
LINE
8
Layer 1
10
259.376133
20
592.963549
11
264.546038
21
598.134949
0
LINE
8
Layer 1
10
264.546038
20
598.134949
11
269.859608
21
604.181350
0
LINE
8
Layer 1
10
269.859608
20
604.181350
11
272.233791
21
607.172628
0
LINE
8
Layer 1
10
272.233791
20
607.172628
11
274.240120
21
609.950600
0
LINE
8
Layer 1
10
274.240120
20
609.950600
11
277.663583
21
615.430571
0
LINE
8
Layer 1
10
277.663583
20
615.430571
11
281.156454
21
621.671858
0
LINE
8
Layer 1
10
281.156454
20
621.671858
11
283.985108
21
627.297315
0
LINE
8
Layer 1
10
283.985108
20
627.297315
11
284.921096
21
629.448751
0
LINE
8
Layer 1
10
284.921096
20
629.448751
11
285.415920
21
630.929800
0
LINE
8
Layer 1
10
285.415920
20
630.929800
11
286.905092
21
637.083039
0
LINE
8
Layer 1
10
286.905092
20
637.083039
11
288.010790
21
640.945200
0
LINE
8
Layer 1
10
288.010790
20
640.945200
11
288.691065
21
643.232376
0
LINE
8
Layer 1
10
288.691065
20
643.232376
11
289.271634
21
646.405815
0
LINE
8
Layer 1
10
289.271634
20
646.405815
11
289.738110
21
650.231513
0
LINE
8
Layer 1
10
289.738110
20
650.231513
11
290.076109
21
654.475469
0
LINE
8
Layer 1
10
290.076109
20
654.475469
11
290.271243
21
658.903678
0
LINE
8
Layer 1
10
290.271243
20
658.903678
11
290.309127
21
663.282138
0
LINE
8
Layer 1
10
290.309127
20
663.282138
11
290.175375
21
667.376847
0
LINE
8
Layer 1
10
290.175375
20
667.376847
11
289.855600
21
670.953800
0
LINE
8
Layer 1
10
289.855600
20
670.953800
11
288.969819
21
676.558310
0
LINE
8
Layer 1
10
288.969819
20
676.558310
11
287.789855
21
682.378356
0
LINE
8
Layer 1
10
287.789855
20
682.378356
11
286.529701
21
687.458049
0
LINE
8
Layer 1
10
286.529701
20
687.458049
11
285.403350
21
690.841500
0
LINE
8
Layer 1
10
285.403350
20
690.841500
11
283.550750
21
695.515370
0
LINE
8
Layer 1
10
283.550750
20
695.515370
11
282.196923
21
698.973252
0
LINE
8
Layer 1
10
282.196923
20
698.973252
11
280.703565
21
702.151833
0
LINE
8
Layer 1
10
280.703565
20
702.151833
11
279.169393
21
704.859207
0
LINE
8
Layer 1
10
279.169393
20
704.859207
11
277.693120
21
706.903470
0
LINE
8
Layer 1
10
277.693120
20
706.903470
11
276.364290
21
708.705623
0
LINE
8
Layer 1
10
276.364290
20
708.705623
11
275.811590
21
709.958610
0
LINE
8
Layer 1
10
275.811590
20
709.958610
11
275.321246
21
711.028003
0
LINE
8
Layer 1
10
275.321246
20
711.028003
11
274.142350
21
712.388710
0
LINE
8
Layer 1
10
274.142350
20
712.388710
11
272.963445
21
713.776274
0
LINE
8
Layer 1
10
272.963445
20
713.776274
11
272.604815
21
714.416314
0
LINE
8
Layer 1
10
272.604815
20
714.416314
11
272.473100
21
714.910220
0
LINE
8
Layer 1
10
272.473100
20
714.910220
11
271.827703
21
715.926147
0
LINE
8
Layer 1
10
271.827703
20
715.926147
11
270.070434
21
717.987562
0
LINE
8
Layer 1
10
270.070434
20
717.987562
11
264.293810
21
724.047560
0
LINE
8
Layer 1
10
264.293810
20
724.047560
11
258.092206
21
729.882840
0
LINE
8
Layer 1
10
258.092206
20
729.882840
11
255.113705
21
732.387014
0
LINE
8
Layer 1
10
255.113705
20
732.387014
11
252.171590
21
734.648593
0
LINE
8
Layer 1
10
252.171590
20
734.648593
11
249.232003
21
736.692360
0
LINE
8
Layer 1
10
249.232003
20
736.692360
11
246.261084
21
738.543103
0
LINE
8
Layer 1
10
246.261084
20
738.543103
11
243.224973
21
740.225608
0
LINE
8
Layer 1
10
243.224973
20
740.225608
11
240.089810
21
741.764660
0
LINE
8
Layer 1
10
240.089810
20
741.764660
11
233.643660
21
744.848040
0
LINE
8
Layer 1
10
233.643660
20
744.848040
11
231.922121
21
745.501640
0
LINE
8
Layer 1
10
231.922121
20
745.501640
11
230.271810
21
745.773486
0
LINE
8
Layer 1
10
230.271810
20
745.773486
11
228.930700
21
745.984861
0
LINE
8
Layer 1
10
228.930700
20
745.984861
11
227.952590
21
746.493083
0
LINE
8
Layer 1
10
227.952590
20
746.493083
11
227.073821
21
747.050862
0
LINE
8
Layer 1
10
227.073821
20
747.050862
11
225.294061
21
747.674348
0
LINE
8
Layer 1
10
225.294061
20
747.674348
11
217.388090
21
749.602103
0
LINE
8
Layer 1
10
217.388090
20
749.602103
11
214.386203
21
750.073493
0
LINE
8
Layer 1
10
214.386203
20
750.073493
11
210.326167
21
750.424253
0
LINE
8
Layer 1
10
210.326167
20
750.424253
11
200.478678
21
750.753261
0
LINE
8
Layer 1
10
200.478678
20
750.753261
11
190.739695
21
750.567888
0
LINE
8
Layer 1
10
190.739695
20
750.567888
11
186.815291
21
750.275669
0
LINE
8
Layer 1
10
186.815291
20
750.275669
11
184.003290
21
749.846890
0
LINE
8
Layer 1
10
184.003290
20
749.846890
11
178.345079
21
748.432984
0
LINE
8
Layer 1
10
178.345079
20
748.432984
11
173.313878
21
746.994156
0
LINE
8
Layer 1
10
173.313878
20
746.994156
11
169.268757
21
745.640868
0
LINE
8
Layer 1
10
169.268757
20
745.640868
11
166.568790
21
744.483580
0
LINE
8
Layer 1
10
166.568790
20
744.483580
11
164.328846
21
743.508250
0
LINE
8
Layer 1
10
164.328846
20
743.508250
11
162.561710
21
743.102580
0
LINE
8
Layer 1
10
162.561710
20
743.102580
11
161.294590
21
742.793079
0
LINE
8
Layer 1
10
161.294590
20
742.793079
11
160.256820
21
742.048960
0
LINE
8
Layer 1
10
160.256820
20
742.048960
11
158.646250
21
740.803477
0
LINE
8
Layer 1
10
158.646250
20
740.803477
11
156.001970
21
739.288570
0
LINE
8
Layer 1
10
156.001970
20
739.288570
11
153.060119
21
737.619166
0
LINE
8
Layer 1
10
153.060119
20
737.619166
11
150.734160
21
736.002190
0
LINE
8
Layer 1
10
150.734160
20
736.002190
11
149.216965
21
734.886554
0
LINE
8
Layer 1
10
149.216965
20
734.886554
11
148.219640
21
734.422530
0
LINE
8
Layer 1
10
148.219640
20
734.422530
11
146.161743
21
733.050763
0
LINE
8
Layer 1
10
146.161743
20
733.050763
11
142.094670
21
729.752680
0
LINE
8
Layer 1
10
142.094670
20
729.752680
11
137.354606
21
725.361233
0
LINE
8
Layer 1
10
137.354606
20
725.361233
11
132.552296
21
720.280910
0
LINE
8
Layer 1
10
132.552296
20
720.280910
11
128.207174
21
715.094673
0
LINE
8
Layer 1
10
128.207174
20
715.094673
11
124.838670
21
710.385480
0
LINE
8
Layer 1
10
124.838670
20
710.385480
11
122.261710
21
705.993716
0
LINE
8
Layer 1
10
122.261710
20
705.993716
11
119.587491
21
700.952940
0
LINE
8
Layer 1
10
119.587491
20
700.952940
11
117.378687
21
696.371884
0
LINE
8
Layer 1
10
117.378687
20
696.371884
11
116.197970
21
693.359280
0
LINE
8
Layer 1
10
116.197970
20
693.359280
11
114.854120
21
689.019230
0
LINE
8
Layer 1
10
114.854120
20
689.019230
11
113.671770
21
685.680770
0
LINE
8
Layer 1
10
113.671770
20
685.680770
11
112.840807
21
682.803340
0
LINE
8
Layer 1
10
112.840807
20
682.803340
11
112.118431
21
679.251857
0
LINE
8
Layer 1
10
112.118431
20
679.251857
11
111.518749
21
675.190175
0
LINE
8
Layer 1
10
111.518749
20
675.190175
11
111.055873
21
670.782148
0
LINE
8
Layer 1
10
111.055873
20
670.782148
11
110.743910
21
666.191629
0
LINE
8
Layer 1
10
110.743910
20
666.191629
11
110.596971
21
661.582474
0
LINE
8
Layer 1
10
110.596971
20
661.582474
11
110.629164
21
657.118536
0
LINE
8
Layer 1
10
110.629164
20
657.118536
11
110.854600
21
652.963670
0
LINE
8
Layer 1
10
110.854600
20
652.963670
11
111.349039
21
648.502197
0
LINE
8
Layer 1
10
111.349039
20
648.502197
11
112.087140
21
643.974775
0
LINE
8
Layer 1
10
112.087140
20
643.974775
11
113.044184
21
639.467497
0
LINE
8
Layer 1
10
113.044184
20
639.467497
11
114.195450
21
635.066458
0
LINE
8
Layer 1
10
114.195450
20
635.066458
11
115.516220
21
630.857751
0
LINE
8
Layer 1
10
115.516220
20
630.857751
11
116.981775
21
626.927472
0
LINE
8
Layer 1
10
116.981775
20
626.927472
11
118.567394
21
623.361713
0
LINE
8
Layer 1
10
118.567394
20
623.361713
11
120.248360
21
620.246570
0
LINE
8
Layer 1
10
120.248360
20
620.246570
11
122.516050
21
615.847500
0
LINE
8
Layer 1
10
122.516050
20
615.847500
11
124.007071
21
613.186755
0
LINE
8
Layer 1
10
124.007071
20
613.186755
11
125.253120
21
611.560620
0
LINE
8
Layer 1
10
125.253120
20
611.560620
11
126.264604
21
610.323026
0
LINE
8
Layer 1
10
126.264604
20
610.323026
11
127.191660
21
608.596380
0
LINE
8
Layer 1
10
127.191660
20
608.596380
11
128.328555
21
606.791346
0
LINE
8
Layer 1
10
128.328555
20
606.791346
11
130.447378
21
604.233838
0
LINE
8
Layer 1
10
130.447378
20
604.233838
11
133.301162
21
601.163535
0
LINE
8
Layer 1
10
133.301162
20
601.163535
11
136.642945
21
597.820113
0
LINE
8
Layer 1
10
136.642945
20
597.820113
11
140.225761
21
594.443249
0
LINE
8
Layer 1
10
140.225761
20
594.443249
11
143.802645
21
591.272620
0
LINE
8
Layer 1
10
143.802645
20
591.272620
11
147.126633
21
588.547905
0
LINE
8
Layer 1
10
147.126633
20
588.547905
11
149.950760
21
586.508780
0
LINE
8
Layer 1
10
149.950760
20
586.508780
11
155.063669
21
583.345150
0
LINE
8
Layer 1
10
155.063669
20
583.345150
11
159.788988
21
580.691158
0
LINE
8
Layer 1
10
159.788988
20
580.691158
11
163.526267
21
578.864712
0
LINE
8
Layer 1
10
163.526267
20
578.864712
11
164.836752
21
578.361165
0
LINE
8
Layer 1
10
164.836752
20
578.361165
11
165.675060
21
578.183720
0
LINE
8
Layer 1
10
165.675060
20
578.183720
11
166.617348
21
577.970929
0
LINE
8
Layer 1
10
166.617348
20
577.970929
11
167.429570
21
577.462060
0
LINE
8
Layer 1
10
167.429570
20
577.462060
11
168.599210
21
576.790178
0
LINE
8
Layer 1
10
168.599210
20
576.790178
11
170.400830
21
576.185300
0
LINE
8
Layer 1
10
170.400830
20
576.185300
11
174.240315
21
575.048988
0
LINE
8
Layer 1
10
174.240315
20
575.048988
11
178.661740
21
573.452220
0
LINE
8
Layer 1
10
178.661740
20
573.452220
11
180.764450
21
572.953283
0
LINE
8
Layer 1
10
180.764450
20
572.953283
11
183.944670
21
572.488950
0
LINE
8
Layer 1
10
183.944670
20
572.488950
11
187.142125
21
572.012816
0
LINE
8
Layer 1
10
187.142125
20
572.012816
11
189.286250
21
571.485450
0
LINE
8
Layer 1
10
189.286250
20
571.485450
11
190.726805
21
571.187076
0
LINE
8
Layer 1
10
190.726805
20
571.187076
11
193.132528
21
570.994658
0
LINE
8
Layer 1
10
193.132528
20
570.994658
11
199.807089
21
570.912165
0
LINE
8
Layer 1
10
199.807089
20
570.912165
11
207.245155
21
571.206923
0
LINE
8
Layer 1
10
207.245155
20
571.206923
11
210.605260
21
571.486067
0
LINE
8
Layer 1
10
210.605260
20
571.486067
11
213.381950
21
571.847880
0
LINE
8
Layer 1
10
213.381950
20
571.847880
11
213.382000
21
571.848000
0
LINE
8
Layer 1
10
498.154000
20
571.497400
11
501.791350
21
572.094008
0
LINE
8
Layer 1
10
501.791350
20
572.094008
11
505.726701
21
572.903132
0
LINE
8
Layer 1
10
505.726701
20
572.903132
11
515.258800
21
575.330920
0
LINE
8
Layer 1
10
515.258800
20
575.330920
11
517.557214
21
576.093198
0
LINE
8
Layer 1
10
517.557214
20
576.093198
11
520.425412
21
577.233490
0
LINE
8
Layer 1
10
520.425412
20
577.233490
11
526.977991
21
580.214224
0
LINE
8
Layer 1
10
526.977991
20
580.214224
11
533.130200
21
583.405330
0
LINE
8
Layer 1
10
533.130200
20
583.405330
11
535.497935
21
584.808589
0
LINE
8
Layer 1
10
535.497935
20
584.808589
11
537.095700
21
585.939020
0
LINE
8
Layer 1
10
537.095700
20
585.939020
11
538.673081
21
587.062299
0
LINE
8
Layer 1
10
538.673081
20
587.062299
11
539.811240
21
587.529500
0
LINE
8
Layer 1
10
539.811240
20
587.529500
11
540.286481
21
587.692005
0
LINE
8
Layer 1
10
540.286481
20
587.692005
11
540.970264
21
588.134471
0
LINE
8
Layer 1
10
540.970264
20
588.134471
11
542.597730
21
589.588990
0
LINE
8
Layer 1
10
542.597730
20
589.588990
11
544.895929
21
591.716567
0
LINE
8
Layer 1
10
544.895929
20
591.716567
11
547.667490
21
593.939740
0
LINE
8
Layer 1
10
547.667490
20
593.939740
11
549.179624
21
595.206607
0
LINE
8
Layer 1
10
549.179624
20
595.206607
11
551.024065
21
596.992805
0
LINE
8
Layer 1
10
551.024065
20
596.992805
11
555.272540
21
601.618947
0
LINE
8
Layer 1
10
555.272540
20
601.618947
11
559.538265
21
606.809687
0
LINE
8
Layer 1
10
559.538265
20
606.809687
11
562.946590
21
611.556540
0
LINE
8
Layer 1
10
562.946590
20
611.556540
11
565.811899
21
616.418906
0
LINE
8
Layer 1
10
565.811899
20
616.418906
11
568.643764
21
621.888435
0
LINE
8
Layer 1
10
568.643764
20
621.888435
11
571.029475
21
627.118766
0
LINE
8
Layer 1
10
571.029475
20
627.118766
11
572.556320
21
631.263540
0
LINE
8
Layer 1
10
572.556320
20
631.263540
11
573.550476
21
634.427572
0
LINE
8
Layer 1
10
573.550476
20
634.427572
11
574.314240
21
636.409020
0
LINE
8
Layer 1
10
574.314240
20
636.409020
11
574.854749
21
638.055799
0
LINE
8
Layer 1
10
574.854749
20
638.055799
11
575.312210
21
640.415190
0
LINE
8
Layer 1
10
575.312210
20
640.415190
11
575.770734
21
642.832194
0
LINE
8
Layer 1
10
575.770734
20
642.832194
11
576.313820
21
644.617450
0
LINE
8
Layer 1
10
576.313820
20
644.617450
11
576.661320
21
645.964584
0
LINE
8
Layer 1
10
576.661320
20
645.964584
11
576.973537
21
648.245506
0
LINE
8
Layer 1
10
576.973537
20
648.245506
11
577.445132
21
654.640589
0
LINE
8
Layer 1
10
577.445132
20
654.640589
11
577.634635
21
661.866452
0
LINE
8
Layer 1
10
577.634635
20
661.866452
11
577.448070
21
667.986850
0
LINE
8
Layer 1
10
577.448070
20
667.986850
11
576.648923
21
675.007795
0
LINE
8
Layer 1
10
576.648923
20
675.007795
11
575.471716
21
681.493131
0
LINE
8
Layer 1
10
575.471716
20
681.493131
11
573.959809
21
687.245577
0
LINE
8
Layer 1
10
573.959809
20
687.245577
11
573.091892
21
689.785316
0
LINE
8
Layer 1
10
573.091892
20
689.785316
11
572.156560
21
692.067850
0
LINE
8
Layer 1
10
572.156560
20
692.067850
11
571.292289
21
694.221716
0
LINE
8
Layer 1
10
571.292289
20
694.221716
11
570.932820
21
695.588060
0
LINE
8
Layer 1
10
570.932820
20
695.588060
11
570.699310
21
696.458120
0
LINE
8
Layer 1
10
570.699310
20
696.458120
11
570.068841
21
697.973281
0
LINE
8
Layer 1
10
570.068841
20
697.973281
11
568.037391
21
702.128690
0
LINE
8
Layer 1
10
568.037391
20
702.128690
11
565.679198
21
706.433859
0
LINE
8
Layer 1
10
565.679198
20
706.433859
11
563.834990
21
709.268360
0
LINE
8
Layer 1
10
563.834990
20
709.268360
11
562.717549
21
710.840682
0
LINE
8
Layer 1
10
562.717549
20
710.840682
11
562.252780
21
711.970550
0
LINE
8
Layer 1
10
562.252780
20
711.970550
11
562.042039
21
712.492718
0
LINE
8
Layer 1
10
562.042039
20
712.492718
11
561.468236
21
713.312108
0
LINE
8
Layer 1
10
561.468236
20
713.312108
11
559.581980
21
715.393330
0
LINE
8
Layer 1
10
559.581980
20
715.393330
11
557.695741
21
717.416770
0
LINE
8
Layer 1
10
557.695741
20
717.416770
11
556.911200
21
718.619470
0
LINE
8
Layer 1
10
556.911200
20
718.619470
11
556.780236
21
719.073597
0
LINE
8
Layer 1
10
556.780236
20
719.073597
11
556.401939
21
719.706024
0
LINE
8
Layer 1
10
556.401939
20
719.706024
11
554.990928
21
721.426783
0
LINE
8
Layer 1
10
554.990928
20
721.426783
11
552.853321
21
723.623750
0
LINE
8
Layer 1
10
552.853321
20
723.623750
11
550.164275
21
726.138931
0
LINE
8
Layer 1
10
550.164275
20
726.138931
11
543.832484
21
731.491949
0
LINE
8
Layer 1
10
543.832484
20
731.491949
11
540.540051
21
734.013795
0
LINE
8
Layer 1
10
540.540051
20
734.013795
11
537.396800
21
736.221870
0
LINE
8
Layer 1
10
537.396800
20
736.221870
11
532.951671
21
738.921939
0
LINE
8
Layer 1
10
532.951671
20
738.921939
11
527.750785
21
741.732683
0
LINE
8
Layer 1
10
527.750785
20
741.732683
11
522.903757
21
744.084039
0
LINE
8
Layer 1
10
522.903757
20
744.084039
11
519.520200
21
745.405950
0
LINE
8
Layer 1
10
519.520200
20
745.405950
11
516.515580
21
746.383281
0
LINE
8
Layer 1
10
516.515580
20
746.383281
11
513.870822
21
747.344689
0
LINE
8
Layer 1
10
513.870822
20
747.344689
11
511.126022
21
748.179825
0
LINE
8
Layer 1
10
511.126022
20
748.179825
11
505.187656
21
749.497057
0
LINE
8
Layer 1
10
505.187656
20
749.497057
11
498.403202
21
750.386544
0
LINE
8
Layer 1
10
498.403202
20
750.386544
11
490.475380
21
750.899851
0
LINE
8
Layer 1
10
490.475380
20
750.899851
11
484.591814
21
750.992116
0
LINE
8
Layer 1
10
484.591814
20
750.992116
11
479.328807
21
750.719526
0
LINE
8
Layer 1
10
479.328807
20
750.719526
11
474.047137
21
750.023348
0
LINE
8
Layer 1
10
474.047137
20
750.023348
11
468.107580
21
748.844851
0
LINE
8
Layer 1
10
468.107580
20
748.844851
11
460.810131
21
747.066366
0
LINE
8
Layer 1
10
460.810131
20
747.066366
11
458.695255
21
746.345444
0
LINE
8
Layer 1
10
458.695255
20
746.345444
11
456.956780
21
745.545551
0
LINE
8
Layer 1
10
456.956780
20
745.545551
11
455.139749
21
744.763398
0
LINE
8
Layer 1
10
455.139749
20
744.763398
11
453.771870
21
744.438081
0
LINE
8
Layer 1
10
453.771870
20
744.438081
11
452.808498
21
744.192288
0
LINE
8
Layer 1
10
452.808498
20
744.192288
11
451.170557
21
743.533292
0
LINE
8
Layer 1
10
451.170557
20
743.533292
11
446.794984
21
741.445986
0
LINE
8
Layer 1
10
446.794984
20
741.445986
11
442.493178
21
739.116752
0
LINE
8
Layer 1
10
442.493178
20
739.116752
11
440.947448
21
738.155347
0
LINE
8
Layer 1
10
440.947448
20
738.155347
11
440.113170
21
737.486181
0
LINE
8
Layer 1
10
440.113170
20
737.486181
11
439.251815
21
736.737233
0
LINE
8
Layer 1
10
439.251815
20
736.737233
11
438.416770
21
736.425721
0
LINE
8
Layer 1
10
438.416770
20
736.425721
11
437.486837
21
736.035204
0
LINE
8
Layer 1
10
437.486837
20
736.035204
11
436.397350
21
735.096301
0
LINE
8
Layer 1
10
436.397350
20
735.096301
11
434.728605
21
733.677391
0
LINE
8
Layer 1
10
434.728605
20
733.677391
11
432.406010
21
732.132861
0
LINE
8
Layer 1
10
432.406010
20
732.132861
11
430.641883
21
730.880166
0
LINE
8
Layer 1
10
430.641883
20
730.880166
11
428.440722
21
728.976521
0
LINE
8
Layer 1
10
428.440722
20
728.976521
11
423.256474
21
723.783678
0
LINE
8
Layer 1
10
423.256474
20
723.783678
11
417.911618
21
717.688927
0
LINE
8
Layer 1
10
417.911618
20
717.688927
11
415.509699
21
714.657896
0
LINE
8
Layer 1
10
415.509699
20
714.657896
11
413.464510
21
711.826861
0
LINE
8
Layer 1
10
413.464510
20
711.826861
11
410.213382
21
706.769519
0
LINE
8
Layer 1
10
410.213382
20
706.769519
11
407.403816
21
701.916257
0
LINE
8
Layer 1
10
407.403816
20
701.916257
11
405.427337
21
697.985647
0
LINE
8
Layer 1
10
405.427337
20
697.985647
11
404.873857
21
696.590890
0
LINE
8
Layer 1
10
404.873857
20
696.590890
11
404.675470
21
695.696261
0
LINE
8
Layer 1
10
404.675470
20
695.696261
11
404.405367
21
694.481967
0
LINE
8
Layer 1
10
404.405367
20
694.481967
11
403.767540
21
692.968931
0
LINE
8
Layer 1
10
403.767540
20
692.968931
11
402.799320
21
690.589882
0
LINE
8
Layer 1
10
402.799320
20
690.589882
11
401.736090
21
687.293511
0
LINE
8
Layer 1
10
401.736090
20
687.293511
11
399.930240
21
681.340801
0
LINE
8
Layer 1
10
399.930240
20
681.340801
11
399.188021
21
677.180210
0
LINE
8
Layer 1
10
399.188021
20
677.180210
11
398.351340
21
669.990001
0
LINE
8
Layer 1
10
398.351340
20
669.990001
11
397.991088
21
665.317217
0
LINE
8
Layer 1
10
397.991088
20
665.317217
11
397.854117
21
660.872082
0
LINE
8
Layer 1
10
397.854117
20
660.872082
11
397.954758
21
656.522731
0
LINE
8
Layer 1
10
397.954758
20
656.522731
11
398.307340
21
652.137301
0
LINE
8
Layer 1
10
398.307340
20
652.137301
11
398.926195
21
647.583927
0
LINE
8
Layer 1
10
398.926195
20
647.583927
11
399.825652
21
642.730745
0
LINE
8
Layer 1
10
399.825652
20
642.730745
11
401.020044
21
637.445891
0
LINE
8
Layer 1
10
401.020044
20
637.445891
11
402.523700
21
631.597501
0
LINE
8
Layer 1
10
402.523700
20
631.597501
11
403.131167
21
629.921436
0
LINE
8
Layer 1
10
403.131167
20
629.921436
11
404.223627
21
627.442634
0
LINE
8
Layer 1
10
404.223627
20
627.442634
11
407.318382
21
621.137727
0
LINE
8
Layer 1
10
407.318382
20
621.137727
11
410.717671
21
614.804608
0
LINE
8
Layer 1
10
410.717671
20
614.804608
11
413.331200
21
610.565101
0
LINE
8
Layer 1
10
413.331200
20
610.565101
11
417.121640
21
605.223551
0
LINE
8
Layer 1
10
417.121640
20
605.223551
11
418.420638
21
603.515220
0
LINE
8
Layer 1
10
418.420638
20
603.515220
11
420.226477
21
601.461232
0
LINE
8
Layer 1
10
420.226477
20
601.461232
11
424.903690
21
596.748353
0
LINE
8
Layer 1
10
424.903690
20
596.748353
11
430.243302
21
591.949049
0
LINE
8
Layer 1
10
430.243302
20
591.949049
11
435.335340
21
587.927451
0
LINE
8
Layer 1
10
435.335340
20
587.927451
11
440.922567
21
584.292850
0
LINE
8
Layer 1
10
440.922567
20
584.292850
11
447.247100
21
580.752636
0
LINE
8
Layer 1
10
447.247100
20
580.752636
11
453.388378
21
577.787230
0
LINE
8
Layer 1
10
453.388378
20
577.787230
11
456.102621
21
576.670211
0
LINE
8
Layer 1
10
456.102621
20
576.670211
11
458.425840
21
575.877051
0
LINE
8
Layer 1
10
458.425840
20
575.877051
11
464.435110
21
574.022621
0
LINE
8
Layer 1
10
464.435110
20
574.022621
11
467.708665
21
573.105584
0
LINE
8
Layer 1
10
467.708665
20
573.105584
11
471.626445
21
572.332270
0
LINE
8
Layer 1
10
471.626445
20
572.332270
11
476.000806
21
571.716731
0
LINE
8
Layer 1
10
476.000806
20
571.716731
11
480.644105
21
571.273018
0
LINE
8
Layer 1
10
480.644105
20
571.273018
11
485.368698
21
571.015185
0
LINE
8
Layer 1
10
485.368698
20
571.015185
11
489.986942
21
570.957283
0
LINE
8
Layer 1
10
489.986942
20
570.957283
11
494.311194
21
571.113364
0
LINE
8
Layer 1
10
494.311194
20
571.113364
11
498.153810
21
571.497481
0
LINE
8
Layer 1
10
498.153810
20
571.497481
11
498.154000
21
571.497400
0
LINE
8
Layer 1
10
792.274000
20
572.432710
11
796.727004
21
573.565939
0
LINE
8
Layer 1
10
796.727004
20
573.565939
11
801.202511
21
574.884647
0
LINE
8
Layer 1
10
801.202511
20
574.884647
11
805.575678
21
576.339731
0
LINE
8
Layer 1
10
805.575678
20
576.339731
11
809.721662
21
577.882090
0
LINE
8
Layer 1
10
809.721662
20
577.882090
11
813.515620
21
579.462620
0
LINE
8
Layer 1
10
813.515620
20
579.462620
11
816.832708
21
581.032218
0
LINE
8
Layer 1
10
816.832708
20
581.032218
11
819.548082
21
582.541783
0
LINE
8
Layer 1
10
819.548082
20
582.541783
11
821.536900
21
583.942210
0
LINE
8
Layer 1
10
821.536900
20
583.942210
11
823.125022
21
585.061061
0
LINE
8
Layer 1
10
823.125022
20
585.061061
11
824.292890
21
585.526430
0
LINE
8
Layer 1
10
824.292890
20
585.526430
11
825.160530
21
585.832784
0
LINE
8
Layer 1
10
825.160530
20
585.832784
11
826.026970
21
586.569330
0
LINE
8
Layer 1
10
826.026970
20
586.569330
11
827.633876
21
587.966871
0
LINE
8
Layer 1
10
827.633876
20
587.966871
11
830.281850
21
589.862390
0
LINE
8
Layer 1
10
830.281850
20
589.862390
11
831.971127
21
591.144592
0
LINE
8
Layer 1
10
831.971127
20
591.144592
11
834.116418
21
593.016215
0
LINE
8
Layer 1
10
834.116418
20
593.016215
11
839.187155
21
597.929124
0
LINE
8
Layer 1
10
839.187155
20
597.929124
11
844.318289
21
603.403915
0
LINE
8
Layer 1
10
844.318289
20
603.403915
11
848.334050
21
608.243390
0
LINE
8
Layer 1
10
848.334050
20
608.243390
11
849.756324
21
610.386230
0
LINE
8
Layer 1
10
849.756324
20
610.386230
11
851.514369
21
613.374483
0
LINE
8
Layer 1
10
851.514369
20
613.374483
11
855.390009
21
620.614936
0
LINE
8
Layer 1
10
855.390009
20
620.614936
11
858.665444
21
627.420167
0
LINE
8
Layer 1
10
858.665444
20
627.420167
11
859.673233
21
629.864391
0
LINE
8
Layer 1
10
859.673233
20
629.864391
11
860.045150
21
631.245590
0
LINE
8
Layer 1
10
860.045150
20
631.245590
11
860.230036
21
632.434911
0
LINE
8
Layer 1
10
860.230036
20
632.434911
11
860.674580
21
633.300060
0
LINE
8
Layer 1
10
860.674580
20
633.300060
11
861.192643
21
634.207677
0
LINE
8
Layer 1
10
861.192643
20
634.207677
11
861.836699
21
636.196705
0
LINE
8
Layer 1
10
861.836699
20
636.196705
11
863.931060
21
644.951360
0
LINE
8
Layer 1
10
863.931060
20
644.951360
11
864.442975
21
648.077607
0
LINE
8
Layer 1
10
864.442975
20
648.077607
11
864.804678
21
652.029863
0
LINE
8
Layer 1
10
864.804678
20
652.029863
11
865.016802
21
656.532752
0
LINE
8
Layer 1
10
865.016802
20
656.532752
11
865.079979
21
661.310896
0
LINE
8
Layer 1
10
865.079979
20
661.310896
11
864.994841
21
666.088917
0
LINE
8
Layer 1
10
864.994841
20
666.088917
11
864.762020
21
670.591436
0
LINE
8
Layer 1
10
864.762020
20
670.591436
11
864.382149
21
674.543076
0
LINE
8
Layer 1
10
864.382149
20
674.543076
11
863.855860
21
677.668460
0
LINE
8
Layer 1
10
863.855860
20
677.668460
11
862.721755
21
682.133009
0
LINE
8
Layer 1
10
862.721755
20
682.133009
11
861.341876
21
686.779674
0
LINE
8
Layer 1
10
861.341876
20
686.779674
11
859.796102
21
691.404104
0
LINE
8
Layer 1
10
859.796102
20
691.404104
11
858.164312
21
695.801947
0
LINE
8
Layer 1
10
858.164312
20
695.801947
11
856.526385
21
699.768856
0
LINE
8
Layer 1
10
856.526385
20
699.768856
11
854.962198
21
703.100477
0
LINE
8
Layer 1
10
854.962198
20
703.100477
11
853.551630
21
705.592462
0
LINE
8
Layer 1
10
853.551630
20
705.592462
11
852.374560
21
707.040460
0
LINE
8
Layer 1
10
852.374560
20
707.040460
11
851.661565
21
707.874191
0
LINE
8
Layer 1
10
851.661565
20
707.874191
11
851.365000
21
708.702110
0
LINE
8
Layer 1
10
851.365000
20
708.702110
11
850.709475
21
710.145689
0
LINE
8
Layer 1
10
850.709475
20
710.145689
11
849.133430
21
712.459610
0
LINE
8
Layer 1
10
849.133430
20
712.459610
11
847.477350
21
714.776561
0
LINE
8
Layer 1
10
847.477350
20
714.776561
11
846.629560
21
716.227390
0
LINE
8
Layer 1
10
846.629560
20
716.227390
11
845.770083
21
717.539956
0
LINE
8
Layer 1
10
845.770083
20
717.539956
11
843.910578
21
719.634569
0
LINE
8
Layer 1
10
843.910578
20
719.634569
11
838.201556
21
725.231655
0
LINE
8
Layer 1
10
838.201556
20
725.231655
11
831.522637
21
731.142083
0
LINE
8
Layer 1
10
831.522637
20
731.142083
11
828.450759
21
733.628374
0
LINE
8
Layer 1
10
828.450759
20
733.628374
11
825.893960
21
735.489290
0
LINE
8
Layer 1
10
825.893960
20
735.489290
11
821.177392
21
738.509340
0
LINE
8
Layer 1
10
821.177392
20
738.509340
11
818.883160
21
739.767130
0
LINE
8
Layer 1
10
818.883160
20
739.767130
11
817.598589
21
740.355888
0
LINE
8
Layer 1
10
817.598589
20
740.355888
11
815.309370
21
741.767370
0
LINE
8
Layer 1
10
815.309370
20
741.767370
11
812.880952
21
743.178842
0
LINE
8
Layer 1
10
812.880952
20
743.178842
11
811.261680
21
743.767580
0
LINE
8
Layer 1
10
811.261680
20
743.767580
11
809.654597
21
744.203629
0
LINE
8
Layer 1
10
809.654597
20
744.203629
11
807.255500
21
745.247960
0
LINE
8
Layer 1
10
807.255500
20
745.247960
11
804.084049
21
746.550902
0
LINE
8
Layer 1
10
804.084049
20
746.550902
11
800.620060
21
747.608660
0
LINE
8
Layer 1
10
800.620060
20
747.608660
11
793.269638
21
749.311700
0
LINE
8
Layer 1
10
793.269638
20
749.311700
11
787.974085
21
750.227721
0
LINE
8
Layer 1
10
787.974085
20
750.227721
11
782.658394
21
750.610749
0
LINE
8
Layer 1
10
782.658394
20
750.610749
11
775.247560
21
750.714810
0
LINE
8
Layer 1
10
775.247560
20
750.714810
11
767.410080
21
750.668326
0
LINE
8
Layer 1
10
767.410080
20
750.668326
11
761.755597
21
750.261181
0
LINE
8
Layer 1
10
761.755597
20
750.261181
11
759.147217
21
749.845141
0
LINE
8
Layer 1
10
759.147217
20
749.845141
11
756.364871
21
749.246273
0
LINE
8
Layer 1
10
756.364871
20
749.246273
11
749.318660
21
747.376500
0
LINE
8
Layer 1
10
749.318660
20
747.376500
11
746.702095
21
746.501634
0
LINE
8
Layer 1
10
746.702095
20
746.501634
11
743.332927
21
745.169802
0
LINE
8
Layer 1
10
743.332927
20
745.169802
11
735.603070
21
741.731949
0
LINE
8
Layer 1
10
735.603070
20
741.731949
11
728.661657
21
738.256346
0
LINE
8
Layer 1
10
728.661657
20
738.256346
11
726.278046
21
736.877328
0
LINE
8
Layer 1
10
726.278046
20
736.877328
11
725.041260
21
735.936400
0
LINE
8
Layer 1
10
725.041260
20
735.936400
11
724.115092
21
735.106621
0
LINE
8
Layer 1
10
724.115092
20
735.106621
11
723.048450
21
734.509390
0
LINE
8
Layer 1
10
723.048450
20
734.509390
11
722.158210
21
734.027789
0
LINE
8
Layer 1
10
722.158210
20
734.027789
11
720.953326
21
733.149001
0
LINE
8
Layer 1
10
720.953326
20
733.149001
11
717.804985
21
730.418521
0
LINE
8
Layer 1
10
717.804985
20
730.418521
11
714.014150
21
726.755267
0
LINE
8
Layer 1
10
714.014150
20
726.755267
11
709.991542
21
722.596556
0
LINE
8
Layer 1
10
709.991542
20
722.596556
11
706.147886
21
718.379706
0
LINE
8
Layer 1
10
706.147886
20
718.379706
11
702.893903
21
714.542034
0
LINE
8
Layer 1
10
702.893903
20
714.542034
11
700.640317
21
711.520856
0
LINE
8
Layer 1
10
700.640317
20
711.520856
11
700.017024
21
710.453114
0
LINE
8
Layer 1
10
700.017024
20
710.453114
11
699.797850
21
709.753490
0
LINE
8
Layer 1
10
699.797850
20
709.753490
11
699.633147
21
709.256822
0
LINE
8
Layer 1
10
699.633147
20
709.256822
11
699.237310
21
709.050245
0
LINE
8
Layer 1
10
699.237310
20
709.050245
11
698.620816
21
708.608941
0
LINE
8
Layer 1
10
698.620816
20
708.608941
11
697.925760
21
707.547935
0
LINE
8
Layer 1
10
697.925760
20
707.547935
11
695.281730
21
702.707135
0
LINE
8
Layer 1
10
695.281730
20
702.707135
11
693.586416
21
699.368659
0
LINE
8
Layer 1
10
693.586416
20
699.368659
11
692.168670
21
696.030175
0
LINE
8
Layer 1
10
692.168670
20
696.030175
11
690.115510
21
690.688595
0
LINE
8
Layer 1
10
690.115510
20
690.688595
11
689.184346
21
688.163279
0
LINE
8
Layer 1
10
689.184346
20
688.163279
11
688.319069
21
685.276827
0
LINE
8
Layer 1
10
688.319069
20
685.276827
11
687.581905
21
682.258559
0
LINE
8
Layer 1
10
687.581905
20
682.258559
11
687.035080
21
679.337795
0
LINE
8
Layer 1
10
687.035080
20
679.337795
11
685.766530
21
671.993125
0
LINE
8
Layer 1
10
685.766530
20
671.993125
11
685.484671
21
669.710614
0
LINE
8
Layer 1
10
685.484671
20
669.710614
11
685.309874
21
666.585834
0
LINE
8
Layer 1
10
685.309874
20
666.585834
11
685.321300
21
658.973025
0
LINE
8
Layer 1
10
685.321300
20
658.973025
11
685.627359
21
653.404200
0
LINE
8
Layer 1
10
685.627359
20
653.404200
11
686.163514
21
648.181459
0
LINE
8
Layer 1
10
686.163514
20
648.181459
11
686.949546
21
643.227233
0
LINE
8
Layer 1
10
686.949546
20
643.227233
11
688.005237
21
638.463950
0
LINE
8
Layer 1
10
688.005237
20
638.463950
11
689.350372
21
633.814039
0
LINE
8
Layer 1
10
689.350372
20
633.814039
11
691.004732
21
629.199928
0
LINE
8
Layer 1
10
691.004732
20
629.199928
11
692.988101
21
624.544047
0
LINE
8
Layer 1
10
692.988101
20
624.544047
11
695.320260
21
619.768825
0
LINE
8
Layer 1
10
695.320260
20
619.768825
11
698.629278
21
613.717044
0
LINE
8
Layer 1
10
698.629278
20
613.717044
11
701.812065
21
608.830520
0
LINE
8
Layer 1
10
701.812065
20
608.830520
11
705.476825
21
604.270223
0
LINE
8
Layer 1
10
705.476825
20
604.270223
11
710.231760
21
599.197125
0
LINE
8
Layer 1
10
710.231760
20
599.197125
11
714.159131
21
595.287795
0
LINE
8
Layer 1
10
714.159131
20
595.287795
11
717.737824
21
591.956144
0
LINE
8
Layer 1
10
717.737824
20
591.956144
11
721.126582
21
589.091489
0
LINE
8
Layer 1
10
721.126582
20
589.091489
11
724.484147
21
586.583150
0
LINE
8
Layer 1
10
724.484147
20
586.583150
11
727.969265
21
584.320445
0
LINE
8
Layer 1
10
727.969265
20
584.320445
11
731.740677
21
582.192694
0
LINE
8
Layer 1
10
731.740677
20
582.192694
11
735.957128
21
580.089214
0
LINE
8
Layer 1
10
735.957128
20
580.089214
11
740.777360
21
577.899325
0
LINE
8
Layer 1
10
740.777360
20
577.899325
11
743.903817
21
576.684206
0
LINE
8
Layer 1
10
743.903817
20
576.684206
11
745.912610
21
576.178805
0
LINE
8
Layer 1
10
745.912610
20
576.178805
11
746.876707
21
576.004896
0
LINE
8
Layer 1
10
746.876707
20
576.004896
11
747.491380
21
575.586795
0
LINE
8
Layer 1
10
747.491380
20
575.586795
11
748.487441
21
575.030845
0
LINE
8
Layer 1
10
748.487441
20
575.030845
11
750.368540
21
574.525505
0
LINE
8
Layer 1
10
750.368540
20
574.525505
11
752.338202
21
574.041040
0
LINE
8
Layer 1
10
752.338202
20
574.041040
11
753.547440
21
573.535275
0
LINE
8
Layer 1
10
753.547440
20
573.535275
11
755.258159
21
573.032481
0
LINE
8
Layer 1
10
755.258159
20
573.032481
11
758.433590
21
572.555195
0
LINE
8
Layer 1
10
758.433590
20
572.555195
11
761.840816
21
572.045815
0
LINE
8
Layer 1
10
761.840816
20
572.045815
11
764.109010
21
571.465875
0
LINE
8
Layer 1
10
764.109010
20
571.465875
11
765.756009
21
571.171363
0
LINE
8
Layer 1
10
765.756009
20
571.171363
11
768.718276
21
571.022307
0
LINE
8
Layer 1
10
768.718276
20
571.022307
11
777.028707
21
571.107014
0
LINE
8
Layer 1
10
777.028707
20
571.107014
11
785.920490
21
571.612889
0
LINE
8
Layer 1
10
785.920490
20
571.612889
11
789.609446
21
571.990293
0
LINE
8
Layer 1
10
789.609446
20
571.990293
11
792.273810
21
572.432825
0
LINE
8
Layer 1
10
792.273810
20
572.432825
11
792.274000
21
572.432710
0
LINE
8
Layer 1
10
1073.374000
20
571.503480
11
1080.791275
21
572.821340
0
LINE
8
Layer 1
10
1080.791275
20
572.821340
11
1086.967375
21
574.228886
0
LINE
8
Layer 1
10
1086.967375
20
574.228886
11
1092.200088
21
575.803977
0
LINE
8
Layer 1
10
1092.200088
20
575.803977
11
1096.787200
21
577.624470
0
LINE
8
Layer 1
10
1096.787200
20
577.624470
11
1099.010812
21
578.489618
0
LINE
8
Layer 1
10
1099.010812
20
578.489618
11
1100.544800
21
578.849460
0
LINE
8
Layer 1
10
1100.544800
20
578.849460
11
1101.543688
21
579.165665
0
LINE
8
Layer 1
10
1101.543688
20
579.165665
11
1102.481000
21
579.925900
0
LINE
8
Layer 1
10
1102.481000
20
579.925900
11
1104.099300
21
581.164068
0
LINE
8
Layer 1
10
1104.099300
20
581.164068
11
1106.735800
21
582.629380
0
LINE
8
Layer 1
10
1106.735800
20
582.629380
11
1109.281319
21
583.983466
0
LINE
8
Layer 1
10
1109.281319
20
583.983466
11
1112.016192
21
585.660045
0
LINE
8
Layer 1
10
1112.016192
20
585.660045
11
1117.782312
21
589.770410
0
LINE
8
Layer 1
10
1117.782312
20
589.770410
11
1123.490777
21
594.539935
0
LINE
8
Layer 1
10
1123.490777
20
594.539935
11
1126.153580
21
597.040464
0
LINE
8
Layer 1
10
1126.153580
20
597.040464
11
1128.598200
21
599.548080
0
LINE
8
Layer 1
10
1128.598200
20
599.548080
11
1132.256161
21
603.843467
0
LINE
8
Layer 1
10
1132.256161
20
603.843467
11
1135.939762
21
608.760599
0
LINE
8
Layer 1
10
1135.939762
20
608.760599
11
1139.163258
21
613.612471
0
LINE
8
Layer 1
10
1139.163258
20
613.612471
11
1141.440900
21
617.712080
0
LINE
8
Layer 1
10
1141.440900
20
617.712080
11
1142.538187
21
619.687925
0
LINE
8
Layer 1
10
1142.538187
20
619.687925
11
1143.543600
21
620.965400
0
LINE
8
Layer 1
10
1143.543600
20
620.965400
11
1144.207562
21
621.787545
0
LINE
8
Layer 1
10
1144.207562
20
621.787545
11
1144.483700
21
622.668640
0
LINE
8
Layer 1
10
1144.483700
20
622.668640
11
1144.974012
21
624.336965
0
LINE
8
Layer 1
10
1144.974012
20
624.336965
11
1146.152900
21
627.051870
0
LINE
8
Layer 1
10
1146.152900
20
627.051870
11
1147.331788
21
629.813678
0
LINE
8
Layer 1
10
1147.331788
20
629.813678
11
1147.822100
21
631.594830
0
LINE
8
Layer 1
10
1147.822100
20
631.594830
11
1148.110100
21
632.740308
0
LINE
8
Layer 1
10
1148.110100
20
632.740308
11
1148.802500
21
633.973730
0
LINE
8
Layer 1
10
1148.802500
20
633.973730
11
1149.501025
21
635.392881
0
LINE
8
Layer 1
10
1149.501025
20
635.392881
11
1149.804000
21
636.984810
0
LINE
8
Layer 1
10
1149.804000
20
636.984810
11
1150.103425
21
639.163259
0
LINE
8
Layer 1
10
1150.103425
20
639.163259
11
1150.791800
21
641.992520
0
LINE
8
Layer 1
10
1150.791800
20
641.992520
11
1151.395393
21
644.534229
0
LINE
8
Layer 1
10
1151.395393
20
644.534229
11
1151.909377
21
647.654694
0
LINE
8
Layer 1
10
1151.909377
20
647.654694
11
1152.626387
21
654.968466
0
LINE
8
Layer 1
10
1152.626387
20
654.968466
11
1152.858580
21
662.606990
0
LINE
8
Layer 1
10
1152.858580
20
662.606990
11
1152.766540
21
666.133395
0
LINE
8
Layer 1
10
1152.766540
20
666.133395
11
1152.521700
21
669.243420
0
LINE
8
Layer 1
10
1152.521700
20
669.243420
11
1151.689453
21
675.522376
0
LINE
8
Layer 1
10
1151.689453
20
675.522376
11
1150.719750
21
681.203170
0
LINE
8
Layer 1
10
1150.719750
20
681.203170
11
1149.708272
21
685.789864
0
LINE
8
Layer 1
10
1149.708272
20
685.789864
11
1148.750700
21
688.786520
0
LINE
8
Layer 1
10
1148.750700
20
688.786520
11
1148.094887
21
690.514333
0
LINE
8
Layer 1
10
1148.094887
20
690.514333
11
1147.822100
21
691.713890
0
LINE
8
Layer 1
10
1147.822100
20
691.713890
11
1147.510161
21
692.765629
0
LINE
8
Layer 1
10
1147.510161
20
692.765629
11
1146.672297
21
694.709162
0
LINE
8
Layer 1
10
1146.672297
20
694.709162
11
1144.006500
21
700.132315
0
LINE
8
Layer 1
10
1144.006500
20
700.132315
11
1141.000128
21
705.704756
0
LINE
8
Layer 1
10
1141.000128
20
705.704756
11
1138.828600
21
709.147890
0
LINE
8
Layer 1
10
1138.828600
20
709.147890
11
1137.635313
21
710.770249
0
LINE
8
Layer 1
10
1137.635313
20
710.770249
11
1137.139000
21
711.851100
0
LINE
8
Layer 1
10
1137.139000
20
711.851100
11
1136.599625
21
712.992127
0
LINE
8
Layer 1
10
1136.599625
20
712.992127
11
1135.302900
21
714.759120
0
LINE
8
Layer 1
10
1135.302900
20
714.759120
11
1131.129700
21
720.070160
0
LINE
8
Layer 1
10
1131.129700
20
720.070160
11
1128.217552
21
723.404419
0
LINE
8
Layer 1
10
1128.217552
20
723.404419
11
1124.274013
21
727.137378
0
LINE
8
Layer 1
10
1124.274013
20
727.137378
11
1119.585217
21
731.016703
0
LINE
8
Layer 1
10
1119.585217
20
731.016703
11
1114.437300
21
734.790060
0
LINE
8
Layer 1
10
1114.437300
20
734.790060
11
1108.841081
21
738.309928
0
LINE
8
Layer 1
10
1108.841081
20
738.309928
11
1102.445550
21
741.885131
0
LINE
8
Layer 1
10
1102.445550
20
741.885131
11
1096.866994
21
744.658699
0
LINE
8
Layer 1
10
1096.866994
20
744.658699
11
1094.889171
21
745.477066
0
LINE
8
Layer 1
10
1094.889171
20
745.477066
11
1093.721700
21
745.773660
0
LINE
8
Layer 1
10
1093.721700
20
745.773660
11
1092.336650
21
746.066653
0
LINE
8
Layer 1
10
1092.336650
20
746.066653
11
1090.643500
21
746.771078
0
LINE
8
Layer 1
10
1090.643500
20
746.771078
11
1088.982263
21
747.476730
0
LINE
8
Layer 1
10
1088.982263
20
747.476730
11
1087.673900
21
747.772638
0
LINE
8
Layer 1
10
1087.673900
20
747.772638
11
1086.780563
21
747.922631
0
LINE
8
Layer 1
10
1086.780563
20
747.922631
11
1086.117400
21
748.277505
0
LINE
8
Layer 1
10
1086.117400
20
748.277505
11
1085.298675
21
748.690360
0
LINE
8
Layer 1
10
1085.298675
20
748.690360
11
1083.726348
21
749.102828
0
LINE
8
Layer 1
10
1083.726348
20
749.102828
11
1078.731138
21
749.877763
0
LINE
8
Layer 1
10
1078.731138
20
749.877763
11
1071.952258
21
750.504628
0
LINE
8
Layer 1
10
1071.952258
20
750.504628
11
1064.210200
21
750.885745
0
LINE
8
Layer 1
10
1064.210200
20
750.885745
11
1055.956930
21
750.885907
0
LINE
8
Layer 1
10
1055.956930
20
750.885907
11
1052.318551
21
750.665122
0
LINE
8
Layer 1
10
1052.318551
20
750.665122
11
1048.840013
21
750.273866
0
LINE
8
Layer 1
10
1048.840013
20
750.273866
11
1045.397066
21
749.694719
0
LINE
8
Layer 1
10
1045.397066
20
749.694719
11
1041.865464
21
748.910260
0
LINE
8
Layer 1
10
1041.865464
20
748.910260
11
1034.039300
21
746.655725
0
LINE
8
Layer 1
10
1034.039300
20
746.655725
11
1028.592667
21
744.631790
0
LINE
8
Layer 1
10
1028.592667
20
744.631790
11
1022.807963
21
742.067679
0
LINE
8
Layer 1
10
1022.807963
20
742.067679
11
1017.936852
21
739.559224
0
LINE
8
Layer 1
10
1017.936852
20
739.559224
11
1016.235039
21
738.512064
0
LINE
8
Layer 1
10
1016.235039
20
738.512064
11
1015.231000
21
737.702255
0
LINE
8
Layer 1
10
1015.231000
20
737.702255
11
1014.169963
21
736.800836
0
LINE
8
Layer 1
10
1014.169963
20
736.800836
11
1013.241000
21
736.425905
0
LINE
8
Layer 1
10
1013.241000
20
736.425905
11
1011.885375
21
735.788466
0
LINE
8
Layer 1
10
1011.885375
20
735.788466
11
1009.798500
21
734.255885
0
LINE
8
Layer 1
10
1009.798500
20
734.255885
11
1004.973300
21
730.416645
0
LINE
8
Layer 1
10
1004.973300
20
730.416645
11
1001.890217
21
727.972553
0
LINE
8
Layer 1
10
1001.890217
20
727.972553
11
999.280911
21
725.615515
0
LINE
8
Layer 1
10
999.280911
20
725.615515
11
996.989300
21
723.193332
0
LINE
8
Layer 1
10
996.989300
20
723.193332
11
994.859300
21
720.553805
0
LINE
8
Layer 1
10
994.859300
20
720.553805
11
992.587033
21
717.643176
0
LINE
8
Layer 1
10
992.587033
20
717.643176
11
991.156310
21
716.016465
0
LINE
8
Layer 1
10
991.156310
20
716.016465
11
989.622329
21
714.085559
0
LINE
8
Layer 1
10
989.622329
20
714.085559
11
987.294894
21
710.681425
0
LINE
8
Layer 1
10
987.294894
20
710.681425
11
985.168569
21
707.315811
0
LINE
8
Layer 1
10
985.168569
20
707.315811
11
984.237920
21
705.500465
0
LINE
8
Layer 1
10
984.237920
20
705.500465
11
983.771576
21
704.490975
0
LINE
8
Layer 1
10
983.771576
20
704.490975
11
982.651270
21
702.829665
0
LINE
8
Layer 1
10
982.651270
20
702.829665
11
981.186825
21
700.249816
0
LINE
8
Layer 1
10
981.186825
20
700.249816
11
979.892150
21
697.031875
0
LINE
8
Layer 1
10
979.892150
20
697.031875
11
978.915603
21
694.242163
0
LINE
8
Layer 1
10
978.915603
20
694.242163
11
978.216090
21
692.691855
0
LINE
8
Layer 1
10
978.216090
20
692.691855
11
977.717974
21
691.533825
0
LINE
8
Layer 1
10
977.717974
20
691.533825
11
977.225760
21
689.687235
0
LINE
8
Layer 1
10
977.225760
20
689.687235
11
976.729769
21
687.840623
0
LINE
8
Layer 1
10
976.729769
20
687.840623
11
976.222610
21
686.682585
0
LINE
8
Layer 1
10
976.222610
20
686.682585
11
975.716415
21
685.328418
0
LINE
8
Layer 1
10
975.716415
20
685.328418
11
975.222670
21
683.010255
0
LINE
8
Layer 1
10
975.222670
20
683.010255
11
974.729513
21
680.692109
0
LINE
8
Layer 1
10
974.729513
20
680.692109
11
974.224670
21
679.337945
0
LINE
8
Layer 1
10
974.224670
20
679.337945
11
973.753427
21
677.842298
0
LINE
8
Layer 1
10
973.753427
20
677.842298
11
973.319432
21
674.901758
0
LINE
8
Layer 1
10
973.319432
20
674.901758
11
972.654091
21
666.433468
0
LINE
8
Layer 1
10
972.654091
20
666.433468
11
972.410463
21
657.428016
0
LINE
8
Layer 1
10
972.410463
20
657.428016
11
972.503607
21
653.816024
0
LINE
8
Layer 1
10
972.503607
20
653.816024
11
972.770360
21
651.380345
0
LINE
8
Layer 1
10
972.770360
20
651.380345
11
974.142400
21
644.617765
0
LINE
8
Layer 1
10
974.142400
20
644.617765
11
975.991434
21
636.511154
0
LINE
8
Layer 1
10
975.991434
20
636.511154
11
977.039237
21
632.815583
0
LINE
8
Layer 1
10
977.039237
20
632.815583
11
978.106920
21
629.594665
0
LINE
8
Layer 1
10
978.106920
20
629.594665
11
979.947065
21
625.170848
0
LINE
8
Layer 1
10
979.947065
20
625.170848
11
982.369724
21
620.133278
0
LINE
8
Layer 1
10
982.369724
20
620.133278
11
984.807793
21
615.598751
0
LINE
8
Layer 1
10
984.807793
20
615.598751
11
986.694170
21
612.684065
0
LINE
8
Layer 1
10
986.694170
20
612.684065
11
987.787856
21
611.154270
0
LINE
8
Layer 1
10
987.787856
20
611.154270
11
988.242760
21
610.126645
0
LINE
8
Layer 1
10
988.242760
20
610.126645
11
988.925611
21
608.835595
0
LINE
8
Layer 1
10
988.925611
20
608.835595
11
990.567330
21
606.672475
0
LINE
8
Layer 1
10
990.567330
20
606.672475
11
995.562700
21
600.690365
0
LINE
8
Layer 1
10
995.562700
20
600.690365
11
998.832099
21
597.162104
0
LINE
8
Layer 1
10
998.832099
20
597.162104
11
1002.760423
21
593.558891
0
LINE
8
Layer 1
10
1002.760423
20
593.558891
11
1007.177559
21
589.996375
0
LINE
8
Layer 1
10
1007.177559
20
589.996375
11
1011.913395
21
586.590205
0
LINE
8
Layer 1
10
1011.913395
20
586.590205
11
1016.797820
21
583.456030
0
LINE
8
Layer 1
10
1016.797820
20
583.456030
11
1021.660720
21
580.709499
0
LINE
8
Layer 1
10
1021.660720
20
580.709499
11
1026.331984
21
578.466261
0
LINE
8
Layer 1
10
1026.331984
20
578.466261
11
1030.641500
21
576.841965
0
LINE
8
Layer 1
10
1030.641500
20
576.841965
11
1032.723838
21
576.098541
0
LINE
8
Layer 1
10
1032.723838
20
576.098541
11
1033.979900
21
575.486675
0
LINE
8
Layer 1
10
1033.979900
20
575.486675
11
1035.385550
21
574.981636
0
LINE
8
Layer 1
10
1035.385550
20
574.981636
11
1037.827400
21
574.495085
0
LINE
8
Layer 1
10
1037.827400
20
574.495085
11
1040.170850
21
574.002654
0
LINE
8
Layer 1
10
1040.170850
20
574.002654
11
1041.339800
21
573.483455
0
LINE
8
Layer 1
10
1041.339800
20
573.483455
11
1041.824064
21
573.236897
0
LINE
8
Layer 1
10
1041.824064
20
573.236897
11
1042.896638
21
572.963470
0
LINE
8
Layer 1
10
1042.896638
20
572.963470
11
1046.172400
21
572.469135
0
LINE
8
Layer 1
10
1046.172400
20
572.469135
11
1049.742738
21
571.975586
0
LINE
8
Layer 1
10
1049.742738
20
571.975586
11
1052.007700
21
571.457535
0
LINE
8
Layer 1
10
1052.007700
20
571.457535
11
1053.267755
21
571.211802
0
LINE
8
Layer 1
10
1053.267755
20
571.211802
11
1055.462284
21
571.039076
0
LINE
8
Layer 1
10
1055.462284
20
571.039076
11
1061.591950
21
570.910350
0
LINE
8
Layer 1
10
1061.591950
20
570.910350
11
1068.271066
21
571.066766
0
LINE
8
Layer 1
10
1068.271066
20
571.066766
11
1073.374000
21
571.503735
0
LINE
8
Layer 1
10
1073.374000
20
571.503735
11
1073.374000
21
571.503480
 0 
ENDSEC
 0 
EOF